<svg width="319" height="205" viewBox="0 0 319 205" fill="none" xmlns="http://www.w3.org/2000/svg">
<rect width="25" height="25" fill="#C7D8E4"/>
<path d="M7.6582 15.625C7.79004 17.875 9.50391 19.2637 12.123 19.2637C14.7773 19.2637 16.4912 17.8135 16.4912 15.5371C16.4912 13.6299 15.4541 12.5576 12.9932 11.9512L11.8857 11.6699C10.2334 11.2568 9.53027 10.624 9.53027 9.52539C9.53027 8.2334 10.5059 7.45996 12.1318 7.45996C13.626 7.45996 14.5928 8.2334 14.751 9.54297H16.2627C16.1572 7.43359 14.5137 6.05371 12.123 6.05371C9.5918 6.05371 7.96582 7.45117 7.96582 9.61328C7.96582 11.4502 9.0293 12.5664 11.3848 13.1641L12.4746 13.4365C14.1885 13.8584 14.9268 14.5176 14.9268 15.6162C14.9268 16.9785 13.8193 17.8574 12.1318 17.8574C10.4443 17.8574 9.32812 17.0137 9.16992 15.625H7.6582Z" fill="black"/>
<rect width="25" height="25" transform="translate(30)" fill="#C7D8E4"/>
<path d="M45.9727 12.4346C45.7266 10.4746 44.2852 9.2793 42.1758 9.2793C39.583 9.2793 38.0713 10.8701 38.0713 13.6035V14.8516C38.0713 17.585 39.583 19.1758 42.1758 19.1758C44.2852 19.1758 45.7354 17.9893 45.9727 16.0469H44.4961C44.3115 17.1367 43.3799 17.8311 42.1494 17.8311C40.4883 17.8311 39.5654 16.7061 39.5654 14.6582V13.7969C39.5654 11.749 40.4883 10.6152 42.1494 10.6152C43.3799 10.6152 44.3115 11.3184 44.4961 12.4346H45.9727Z" fill="black"/>
<rect width="25" height="25" transform="translate(60)" fill="#C7D8E4"/>
<path d="M71.0332 19.167C72.4219 19.167 73.459 18.5957 73.916 17.5762H74.0654V19.0088H75.4893V12.4785C75.4893 10.4922 74.2061 9.34961 71.9648 9.34961C70.0137 9.34961 68.5371 10.3955 68.3613 11.9248H69.8291C70.0752 11.1074 70.8486 10.6416 71.9473 10.6416C73.2744 10.6416 74.0039 11.3008 74.0039 12.4961V13.3574L71.3848 13.4893C69.2139 13.6035 68.001 14.6055 68.001 16.293C68.001 18.0244 69.2139 19.167 71.0332 19.167ZM71.4639 17.8574C70.2598 17.8574 69.5127 17.2422 69.5127 16.2402C69.5127 15.2471 70.2158 14.6758 71.5518 14.6143L74.0039 14.5V15.625C74.0039 16.8994 72.9053 17.8574 71.4639 17.8574Z" fill="black"/>
<rect width="25" height="25" transform="translate(90)" fill="#C7D8E4"/>
<path d="M100.374 6.90625V9.49023H97.834V10.7646H100.374V16.1611C100.374 18.1475 101.473 19.0439 103.837 19.0439C104.294 19.0439 105.454 19 105.691 18.9561V17.6904C105.437 17.7168 104.479 17.7432 103.942 17.7432C102.598 17.7432 101.868 17.1807 101.868 16.1436V10.7646H105.718V9.49023H101.851V6.90625H100.374Z" fill="black"/>
<rect width="25" height="25" transform="translate(120)" fill="#C7D8E4"/>
<path d="M130.374 6.90625V9.49023H127.834V10.7646H130.374V16.1611C130.374 18.1475 131.473 19.0439 133.837 19.0439C134.294 19.0439 135.454 19 135.691 18.9561V17.6904C135.437 17.7168 134.479 17.7432 133.942 17.7432C132.598 17.7432 131.868 17.1807 131.868 16.1436V10.7646H135.718V9.49023H131.851V6.90625H130.374Z" fill="black"/>
<rect width="25" height="25" transform="translate(150)" fill="#C7D8E4"/>
<path d="M164.575 16.5391C164.312 17.374 163.424 17.8838 162.22 17.8838C160.594 17.8838 159.557 16.7588 159.557 15.0098V14.623H166.052V13.6914C166.052 10.9316 164.593 9.28809 162.114 9.28809C159.688 9.28809 158.08 10.9404 158.08 13.4541V14.8867C158.08 17.6025 159.601 19.1758 162.22 19.1758C164.224 19.1758 165.735 18.1123 166.025 16.5391H164.575ZM162.105 10.5713C163.644 10.5713 164.575 11.6699 164.575 13.4893H159.557C159.557 11.6611 160.515 10.5713 162.105 10.5713Z" fill="black"/>
<rect width="25" height="25" transform="translate(180)" fill="#C7D8E4"/>
<path d="M191.622 14.7285C191.622 12.3027 192.87 10.8438 194.979 10.8438C195.498 10.8438 196.113 10.9492 196.553 11.1074V9.42871C196.236 9.29688 195.718 9.21777 195.173 9.21777C193.336 9.21777 192.149 10.1318 191.798 11.8984H191.604V9.46387H188.045V10.6592H190.163V17.8047H188.238V19H194.575V17.8047H191.622V14.7285Z" fill="black"/>
<rect width="25" height="25" transform="translate(210)" fill="#C7D8E4"/>
<path d="M221.13 6.31738L221.271 15.0537H222.729L222.879 6.31738H221.13ZM222 19.167C222.668 19.167 223.204 18.6133 223.204 17.9189C223.204 17.2246 222.668 16.6709 222 16.6709C221.332 16.6709 220.796 17.2246 220.796 17.9189C220.796 18.6133 221.332 19.167 222 19.167Z" fill="black"/>
<rect width="25" height="25" transform="translate(0 61)" fill="#E99D42" fill-opacity="0.33"/>
<path d="M15.9727 73.4346C15.7266 71.4746 14.2852 70.2793 12.1758 70.2793C9.58301 70.2793 8.07129 71.8701 8.07129 74.6035V75.8516C8.07129 78.585 9.58301 80.1758 12.1758 80.1758C14.2852 80.1758 15.7354 78.9893 15.9727 77.0469H14.4961C14.3115 78.1367 13.3799 78.8311 12.1494 78.8311C10.4883 78.8311 9.56543 77.7061 9.56543 75.6582V74.7969C9.56543 72.749 10.4883 71.6152 12.1494 71.6152C13.3799 71.6152 14.3115 72.3184 14.4961 73.4346H15.9727Z" fill="black"/>
<rect width="25" height="25" transform="translate(30 61)" fill="#E99D42" fill-opacity="0.33"/>
<path d="M41.0332 80.167C42.4219 80.167 43.459 79.5957 43.916 78.5762H44.0654V80.0088H45.4893V73.4785C45.4893 71.4922 44.2061 70.3496 41.9648 70.3496C40.0137 70.3496 38.5371 71.3955 38.3613 72.9248H39.8291C40.0752 72.1074 40.8486 71.6416 41.9473 71.6416C43.2744 71.6416 44.0039 72.3008 44.0039 73.4961V74.3574L41.3848 74.4893C39.2139 74.6035 38.001 75.6055 38.001 77.293C38.001 79.0244 39.2139 80.167 41.0332 80.167ZM41.4639 78.8574C40.2598 78.8574 39.5127 78.2422 39.5127 77.2402C39.5127 76.2471 40.2158 75.6758 41.5518 75.6143L44.0039 75.5V76.625C44.0039 77.8994 42.9053 78.8574 41.4639 78.8574Z" fill="black"/>
<rect width="25" height="25" transform="translate(60 61)" fill="#E99D42" fill-opacity="0.33"/>
<path d="M70.374 67.9062V70.4902H67.834V71.7646H70.374V77.1611C70.374 79.1475 71.4727 80.0439 73.8369 80.0439C74.2939 80.0439 75.4541 80 75.6914 79.9561V78.6904C75.4365 78.7168 74.4785 78.7432 73.9424 78.7432C72.5977 78.7432 71.8682 78.1807 71.8682 77.1436V71.7646H75.7178V70.4902H71.8506V67.9062H70.374Z" fill="black"/>
<line x1="12.5" y1="27" x2="12.5" y2="59" stroke="black" stroke-dasharray="2 2"/>
<line x1="17.7678" y1="38.2322" x2="27.4749" y2="47.9393" stroke="#D62728" stroke-width="5"/>
<line x1="18.2322" y1="48.2322" x2="27.9393" y2="38.5251" stroke="#D62728" stroke-width="5"/>
<path d="M46.0146 50V40.2266H46.0762L52.3428 50H53.626V38.0117H52.3428V47.7852H52.2725L46.0234 38.0117H44.7314V50H46.0146ZM60.4199 40.6484C58.2051 40.6484 56.5352 42.1777 56.5352 44.6738V46.124C56.5352 48.7256 58.1787 50.1494 60.4199 50.1494C62.6172 50.1494 64.2959 48.6992 64.2959 46.124V44.6738C64.2959 42.0986 62.6084 40.6484 60.4199 40.6484ZM60.4287 41.7822C61.9932 41.7822 63.0215 42.9775 63.0215 44.8232V45.9922C63.0215 47.8818 62.0371 49.0244 60.4287 49.0244C58.8027 49.0244 57.8008 47.873 57.8008 45.9922V44.8232C57.8008 42.9775 58.8555 41.7822 60.4287 41.7822ZM71.2041 50H72.4697V44.085C72.4697 42.7666 73.3398 41.7822 74.6318 41.7822C75.9502 41.7822 76.7324 42.6699 76.7324 43.9355V50H78.0068V44.0762C78.0068 42.7754 78.9297 41.7822 80.2041 41.7822C81.5488 41.7822 82.2695 42.6172 82.2695 43.874V50H83.5352V43.5312C83.5352 41.6592 82.3662 40.6484 80.5029 40.6484C78.9121 40.6484 78.0508 41.5273 77.6904 42.415H77.6377C77.3477 41.4307 76.4688 40.6484 75.0449 40.6484C73.3398 40.6484 72.751 41.624 72.54 42.2744H72.4697V40.7979H71.2041V50ZM89.2041 50.1494C90.6279 50.1494 91.4805 49.4463 91.9111 48.7168H91.9727V50H93.2031V43.6455C93.2031 41.4746 91.709 40.6484 89.8721 40.6484C87.9385 40.6484 86.6992 41.4658 86.5586 42.96H87.7979C87.9912 42.3096 88.5186 41.7822 89.8105 41.7822C91.0938 41.7822 91.9199 42.3711 91.9199 43.6719V44.665H89.4062C87.3057 44.665 86.1982 45.7549 86.1982 47.3369C86.1982 49.0332 87.4199 50.1494 89.2041 50.1494ZM89.5117 49.0244C88.4482 49.0244 87.5166 48.4707 87.5166 47.3105C87.5166 46.4141 88.0703 45.7285 89.4326 45.7285H91.9199V46.8447C91.9199 48.0928 90.874 49.0244 89.5117 49.0244ZM96.8682 40.7979H95.4004V41.8613H96.8682V47.5039C96.8682 49.2705 97.2812 50.0879 99.3818 50.0879C99.6719 50.0879 100.305 50.0439 100.445 50.0176V48.9541C100.287 48.9717 99.9092 48.998 99.6895 48.998C98.5029 48.998 98.1338 48.6992 98.1338 47.5654V41.8613H100.296V40.7979H98.1338V38.4951H96.8682V40.7979ZM102.52 46.1855C102.52 48.6377 103.961 50.1494 106.264 50.1494C108.663 50.1494 109.709 48.7959 109.771 47.5654H108.505C108.329 48.2861 107.775 48.9893 106.29 48.9893C104.734 48.9893 103.785 47.917 103.785 46.1855V44.6562C103.785 42.9072 104.655 41.8086 106.281 41.8086C107.837 41.8086 108.329 42.7578 108.443 43.3555H109.709C109.665 42.0723 108.531 40.6484 106.264 40.6484C103.97 40.6484 102.52 42.1777 102.52 44.5859V46.1855ZM112.434 50H113.699V44.8145C113.699 43.1445 114.578 41.7822 116.301 41.7822C117.681 41.7822 118.507 42.6523 118.507 44.1377V50H119.781V43.7334C119.781 41.6768 118.454 40.6484 116.67 40.6484C114.736 40.6484 113.963 41.835 113.77 42.5117H113.699V37.3701H112.434V50ZM123.508 53.1113L124.712 48.207H123.147L122.321 53.1113H123.508ZM131.392 50H132.657V44.085C132.657 42.7666 133.527 41.7822 134.819 41.7822C136.138 41.7822 136.92 42.6699 136.92 43.9355V50H138.194V44.0762C138.194 42.7754 139.117 41.7822 140.392 41.7822C141.736 41.7822 142.457 42.6172 142.457 43.874V50H143.723V43.5312C143.723 41.6592 142.554 40.6484 140.69 40.6484C139.1 40.6484 138.238 41.5273 137.878 42.415H137.825C137.535 41.4307 136.656 40.6484 135.232 40.6484C133.527 40.6484 132.938 41.624 132.728 42.2744H132.657V40.7979H131.392V50ZM150.367 40.6484C148.152 40.6484 146.482 42.1777 146.482 44.6738V46.124C146.482 48.7256 148.126 50.1494 150.367 50.1494C152.564 50.1494 154.243 48.6992 154.243 46.124V44.6738C154.243 42.0986 152.556 40.6484 150.367 40.6484ZM150.376 41.7822C151.94 41.7822 152.969 42.9775 152.969 44.8232V45.9922C152.969 47.8818 151.984 49.0244 150.376 49.0244C148.75 49.0244 147.748 47.873 147.748 45.9922V44.8232C147.748 42.9775 148.803 41.7822 150.376 41.7822ZM159.139 50H160.413L163.779 40.7979H162.417L159.789 48.6201H159.728L157.249 40.7979H155.834L159.139 50ZM169.176 50.1494C171.417 50.1494 172.507 48.7607 172.647 47.8115H171.303C171.136 48.418 170.38 49.0244 169.167 49.0244C167.506 49.0244 166.618 47.8203 166.618 46.2119V45.7285H172.779V44.7002C172.779 42.2041 171.232 40.6484 169.062 40.6484C166.891 40.6484 165.344 42.2041 165.344 44.7002V46.124C165.344 48.5762 166.75 50.1494 169.176 50.1494ZM166.618 44.7354V44.5859C166.618 42.8721 167.594 41.7822 169.062 41.7822C170.529 41.7822 171.505 42.8721 171.505 44.5859V44.7354H166.618ZM180.101 40.7979H178.633V41.8613H180.101V47.5039C180.101 49.2705 180.514 50.0879 182.614 50.0879C182.904 50.0879 183.537 50.0439 183.678 50.0176V48.9541C183.52 48.9717 183.142 48.998 182.922 48.998C181.735 48.998 181.366 48.6992 181.366 47.5654V41.8613H183.528V40.7979H181.366V38.4951H180.101V40.7979ZM189.637 40.6484C187.422 40.6484 185.752 42.1777 185.752 44.6738V46.124C185.752 48.7256 187.396 50.1494 189.637 50.1494C191.834 50.1494 193.513 48.6992 193.513 46.124V44.6738C193.513 42.0986 191.825 40.6484 189.637 40.6484ZM189.646 41.7822C191.21 41.7822 192.238 42.9775 192.238 44.8232V45.9922C192.238 47.8818 191.254 49.0244 189.646 49.0244C188.02 49.0244 187.018 47.873 187.018 45.9922V44.8232C187.018 42.9775 188.072 41.7822 189.646 41.7822ZM200.421 50H201.687V44.8145C201.687 43.1533 202.53 41.7822 204.306 41.7822C205.686 41.7822 206.459 42.6348 206.459 44.1201V50H207.733V43.7158C207.733 41.668 206.441 40.6484 204.587 40.6484C202.653 40.6484 201.994 41.7471 201.757 42.5117H201.687V40.7979H200.421V50ZM214.316 50.1494C216.558 50.1494 217.647 48.7607 217.788 47.8115H216.443C216.276 48.418 215.521 49.0244 214.308 49.0244C212.646 49.0244 211.759 47.8203 211.759 46.2119V45.7285H217.92V44.7002C217.92 42.2041 216.373 40.6484 214.202 40.6484C212.031 40.6484 210.484 42.2041 210.484 44.7002V46.124C210.484 48.5762 211.891 50.1494 214.316 50.1494ZM211.759 44.7354V44.5859C211.759 42.8721 212.734 41.7822 214.202 41.7822C215.67 41.7822 216.646 42.8721 216.646 44.5859V44.7354H211.759ZM225.9 50H227.43L224.23 45.3066L227.377 40.7979H225.918L223.571 44.3662H223.51L221.225 40.7979H219.695L222.833 45.4473L219.695 50H221.146L223.501 46.4141H223.554L225.9 50ZM230.269 40.7979H228.801V41.8613H230.269V47.5039C230.269 49.2705 230.682 50.0879 232.782 50.0879C233.072 50.0879 233.705 50.0439 233.846 50.0176V48.9541C233.688 48.9717 233.31 48.998 233.09 48.998C231.903 48.998 231.534 48.6992 231.534 47.5654V41.8613H233.696V40.7979H231.534V38.4951H230.269V40.7979ZM240.033 46.1855C240.033 48.6377 241.475 50.1494 243.777 50.1494C246.177 50.1494 247.223 48.7959 247.284 47.5654H246.019C245.843 48.2861 245.289 48.9893 243.804 48.9893C242.248 48.9893 241.299 47.917 241.299 46.1855V44.6562C241.299 42.9072 242.169 41.8086 243.795 41.8086C245.351 41.8086 245.843 42.7578 245.957 43.3555H247.223C247.179 42.0723 246.045 40.6484 243.777 40.6484C241.483 40.6484 240.033 42.1777 240.033 44.5859V46.1855ZM249.947 50H251.213V44.8145C251.213 43.1445 252.092 41.7822 253.814 41.7822C255.194 41.7822 256.021 42.6523 256.021 44.1377V50H257.295V43.7334C257.295 41.6768 255.968 40.6484 254.184 40.6484C252.25 40.6484 251.477 41.835 251.283 42.5117H251.213V37.3701H249.947V50ZM262.964 50.1494C264.388 50.1494 265.24 49.4463 265.671 48.7168H265.732V50H266.963V43.6455C266.963 41.4746 265.469 40.6484 263.632 40.6484C261.698 40.6484 260.459 41.4658 260.318 42.96H261.558C261.751 42.3096 262.278 41.7822 263.57 41.7822C264.854 41.7822 265.68 42.3711 265.68 43.6719V44.665H263.166C261.065 44.665 259.958 45.7549 259.958 47.3369C259.958 49.0332 261.18 50.1494 262.964 50.1494ZM263.271 49.0244C262.208 49.0244 261.276 48.4707 261.276 47.3105C261.276 46.4141 261.83 45.7285 263.192 45.7285H265.68V46.8447C265.68 48.0928 264.634 49.0244 263.271 49.0244ZM270.312 50H271.577V44.208C271.577 42.8369 272.474 41.8438 274.091 41.8438C274.381 41.8438 274.671 41.8613 274.812 41.8877V40.7012C274.636 40.6836 274.442 40.6572 274.24 40.6572C272.562 40.6572 271.867 41.6328 271.639 42.2744H271.577V40.7979H270.312V50ZM279.452 50.1494C280.876 50.1494 281.729 49.4463 282.159 48.7168H282.221V50H283.451V43.6455C283.451 41.4746 281.957 40.6484 280.12 40.6484C278.187 40.6484 276.947 41.4658 276.807 42.96H278.046C278.239 42.3096 278.767 41.7822 280.059 41.7822C281.342 41.7822 282.168 42.3711 282.168 43.6719V44.665H279.654C277.554 44.665 276.446 45.7549 276.446 47.3369C276.446 49.0332 277.668 50.1494 279.452 50.1494ZM279.76 49.0244C278.696 49.0244 277.765 48.4707 277.765 47.3105C277.765 46.4141 278.318 45.7285 279.681 45.7285H282.168V46.8447C282.168 48.0928 281.122 49.0244 279.76 49.0244ZM286.211 46.1855C286.211 48.6377 287.652 50.1494 289.955 50.1494C292.354 50.1494 293.4 48.7959 293.462 47.5654H292.196C292.021 48.2861 291.467 48.9893 289.981 48.9893C288.426 48.9893 287.477 47.917 287.477 46.1855V44.6562C287.477 42.9072 288.347 41.8086 289.973 41.8086C291.528 41.8086 292.021 42.7578 292.135 43.3555H293.4C293.356 42.0723 292.223 40.6484 289.955 40.6484C287.661 40.6484 286.211 42.1777 286.211 44.5859V46.1855ZM296.573 40.7979H295.105V41.8613H296.573V47.5039C296.573 49.2705 296.986 50.0879 299.087 50.0879C299.377 50.0879 300.01 50.0439 300.15 50.0176V48.9541C299.992 48.9717 299.614 48.998 299.395 48.998C298.208 48.998 297.839 48.6992 297.839 47.5654V41.8613H300.001V40.7979H297.839V38.4951H296.573V40.7979ZM306.057 50.1494C308.298 50.1494 309.388 48.7607 309.528 47.8115H308.184C308.017 48.418 307.261 49.0244 306.048 49.0244C304.387 49.0244 303.499 47.8203 303.499 46.2119V45.7285H309.66V44.7002C309.66 42.2041 308.113 40.6484 305.942 40.6484C303.771 40.6484 302.225 42.2041 302.225 44.7002V46.124C302.225 48.5762 303.631 50.1494 306.057 50.1494ZM303.499 44.7354V44.5859C303.499 42.8721 304.475 41.7822 305.942 41.7822C307.41 41.7822 308.386 42.8721 308.386 44.5859V44.7354H303.499ZM312.552 50H313.817V44.208C313.817 42.8369 314.714 41.8438 316.331 41.8438C316.621 41.8438 316.911 41.8613 317.052 41.8877V40.7012C316.876 40.6836 316.683 40.6572 316.48 40.6572C314.802 40.6572 314.107 41.6328 313.879 42.2744H313.817V40.7979H312.552V50Z" fill="black"/>
<rect width="25" height="25" transform="translate(0 119)" fill="#C7D8E4"/>
<path d="M7.6582 134.625C7.79004 136.875 9.50391 138.264 12.123 138.264C14.7773 138.264 16.4912 136.813 16.4912 134.537C16.4912 132.63 15.4541 131.558 12.9932 130.951L11.8857 130.67C10.2334 130.257 9.53027 129.624 9.53027 128.525C9.53027 127.233 10.5059 126.46 12.1318 126.46C13.626 126.46 14.5928 127.233 14.751 128.543H16.2627C16.1572 126.434 14.5137 125.054 12.123 125.054C9.5918 125.054 7.96582 126.451 7.96582 128.613C7.96582 130.45 9.0293 131.566 11.3848 132.164L12.4746 132.437C14.1885 132.858 14.9268 133.518 14.9268 134.616C14.9268 135.979 13.8193 136.857 12.1318 136.857C10.4443 136.857 9.32812 136.014 9.16992 134.625H7.6582Z" fill="black"/>
<rect width="25" height="25" transform="translate(30 119)" fill="#C7D8E4"/>
<path d="M45.9727 131.435C45.7266 129.475 44.2852 128.279 42.1758 128.279C39.583 128.279 38.0713 129.87 38.0713 132.604V133.852C38.0713 136.585 39.583 138.176 42.1758 138.176C44.2852 138.176 45.7354 136.989 45.9727 135.047H44.4961C44.3115 136.137 43.3799 136.831 42.1494 136.831C40.4883 136.831 39.5654 135.706 39.5654 133.658V132.797C39.5654 130.749 40.4883 129.615 42.1494 129.615C43.3799 129.615 44.3115 130.318 44.4961 131.435H45.9727Z" fill="black"/>
<rect width="25" height="25" transform="translate(60 119)" fill="#C7D8E4"/>
<path d="M71.0332 138.167C72.4219 138.167 73.459 137.596 73.916 136.576H74.0654V138.009H75.4893V131.479C75.4893 129.492 74.2061 128.35 71.9648 128.35C70.0137 128.35 68.5371 129.396 68.3613 130.925H69.8291C70.0752 130.107 70.8486 129.642 71.9473 129.642C73.2744 129.642 74.0039 130.301 74.0039 131.496V132.357L71.3848 132.489C69.2139 132.604 68.001 133.605 68.001 135.293C68.001 137.024 69.2139 138.167 71.0332 138.167ZM71.4639 136.857C70.2598 136.857 69.5127 136.242 69.5127 135.24C69.5127 134.247 70.2158 133.676 71.5518 133.614L74.0039 133.5V134.625C74.0039 135.899 72.9053 136.857 71.4639 136.857Z" fill="black"/>
<rect width="25" height="25" transform="translate(90 119)" fill="#C7D8E4"/>
<path d="M100.374 125.906V128.49H97.834V129.765H100.374V135.161C100.374 137.147 101.473 138.044 103.837 138.044C104.294 138.044 105.454 138 105.691 137.956V136.69C105.437 136.717 104.479 136.743 103.942 136.743C102.598 136.743 101.868 136.181 101.868 135.144V129.765H105.718V128.49H101.851V125.906H100.374Z" fill="black"/>
<rect width="25" height="25" transform="translate(120 119)" fill="#C7D8E4"/>
<path d="M130.374 125.906V128.49H127.834V129.765H130.374V135.161C130.374 137.147 131.473 138.044 133.837 138.044C134.294 138.044 135.454 138 135.691 137.956V136.69C135.437 136.717 134.479 136.743 133.942 136.743C132.598 136.743 131.868 136.181 131.868 135.144V129.765H135.718V128.49H131.851V125.906H130.374Z" fill="black"/>
<rect width="25" height="25" transform="translate(150 119)" fill="#C7D8E4"/>
<path d="M164.575 135.539C164.312 136.374 163.424 136.884 162.22 136.884C160.594 136.884 159.557 135.759 159.557 134.01V133.623H166.052V132.691C166.052 129.932 164.593 128.288 162.114 128.288C159.688 128.288 158.08 129.94 158.08 132.454V133.887C158.08 136.603 159.601 138.176 162.22 138.176C164.224 138.176 165.735 137.112 166.025 135.539H164.575ZM162.105 129.571C163.644 129.571 164.575 130.67 164.575 132.489H159.557C159.557 130.661 160.515 129.571 162.105 129.571Z" fill="black"/>
<rect width="25" height="25" transform="translate(180 119)" fill="#C7D8E4"/>
<path d="M191.622 133.729C191.622 131.303 192.87 129.844 194.979 129.844C195.498 129.844 196.113 129.949 196.553 130.107V128.429C196.236 128.297 195.718 128.218 195.173 128.218C193.336 128.218 192.149 129.132 191.798 130.898H191.604V128.464H188.045V129.659H190.163V136.805H188.238V138H194.575V136.805H191.622V133.729Z" fill="black"/>
<rect width="25" height="25" transform="translate(210 119)" fill="#C7D8E4"/>
<path d="M221.13 125.317L221.271 134.054H222.729L222.879 125.317H221.13ZM222 138.167C222.668 138.167 223.204 137.613 223.204 136.919C223.204 136.225 222.668 135.671 222 135.671C221.332 135.671 220.796 136.225 220.796 136.919C220.796 137.613 221.332 138.167 222 138.167Z" fill="black"/>
<rect width="25" height="25" transform="translate(30 180)" fill="#E99D42" fill-opacity="0.33"/>
<path d="M45.9727 192.435C45.7266 190.475 44.2852 189.279 42.1758 189.279C39.583 189.279 38.0713 190.87 38.0713 193.604V194.852C38.0713 197.585 39.583 199.176 42.1758 199.176C44.2852 199.176 45.7354 197.989 45.9727 196.047H44.4961C44.3115 197.137 43.3799 197.831 42.1494 197.831C40.4883 197.831 39.5654 196.706 39.5654 194.658V193.797C39.5654 191.749 40.4883 190.615 42.1494 190.615C43.3799 190.615 44.3115 191.318 44.4961 192.435H45.9727Z" fill="black"/>
<rect width="25" height="25" transform="translate(60 180)" fill="#E99D42" fill-opacity="0.33"/>
<path d="M71.0332 199.167C72.4219 199.167 73.459 198.596 73.916 197.576H74.0654V199.009H75.4893V192.479C75.4893 190.492 74.2061 189.35 71.9648 189.35C70.0137 189.35 68.5371 190.396 68.3613 191.925H69.8291C70.0752 191.107 70.8486 190.642 71.9473 190.642C73.2744 190.642 74.0039 191.301 74.0039 192.496V193.357L71.3848 193.489C69.2139 193.604 68.001 194.605 68.001 196.293C68.001 198.024 69.2139 199.167 71.0332 199.167ZM71.4639 197.857C70.2598 197.857 69.5127 197.242 69.5127 196.24C69.5127 195.247 70.2158 194.676 71.5518 194.614L74.0039 194.5V195.625C74.0039 196.899 72.9053 197.857 71.4639 197.857Z" fill="black"/>
<rect width="25" height="25" transform="translate(90 180)" fill="#E99D42" fill-opacity="0.33"/>
<path d="M100.374 186.906V189.49H97.834V190.765H100.374V196.161C100.374 198.147 101.473 199.044 103.837 199.044C104.294 199.044 105.454 199 105.691 198.956V197.69C105.437 197.717 104.479 197.743 103.942 197.743C102.598 197.743 101.868 197.181 101.868 196.144V190.765H105.718V189.49H101.851V186.906H100.374Z" fill="black"/>
<line x1="42.5" y1="146" x2="42.5" y2="178" stroke="black" stroke-dasharray="2 2"/>
<line x1="72.5" y1="146" x2="72.5" y2="178" stroke="black" stroke-dasharray="2 2"/>
<line x1="102.5" y1="146" x2="102.5" y2="178" stroke="black" stroke-dasharray="2 2"/>
<path d="M140.798 166.822H135.015V162.454H140.481V161.285H135.015V157.181H140.798V156.012H133.731V168H140.798V166.822ZM143.575 168H144.841V162.814C144.841 161.153 145.685 159.782 147.46 159.782C148.84 159.782 149.613 160.635 149.613 162.12V168H150.888V161.716C150.888 159.668 149.596 158.648 147.741 158.648C145.808 158.648 145.148 159.747 144.911 160.512H144.841V158.798H143.575V168ZM154.544 158.798H153.076V159.861H154.544V165.504C154.544 167.271 154.957 168.088 157.058 168.088C157.348 168.088 157.98 168.044 158.121 168.018V166.954C157.963 166.972 157.585 166.998 157.365 166.998C156.179 166.998 155.81 166.699 155.81 165.565V159.861H157.972V158.798H155.81V156.495H154.544V158.798ZM160.547 155.959C160.547 156.504 160.978 156.926 161.514 156.926C162.076 156.926 162.498 156.504 162.498 155.959C162.498 155.388 162.076 154.975 161.514 154.975C160.978 154.975 160.547 155.388 160.547 155.959ZM160.89 168H162.155V158.798H160.89V168ZM165.776 168H167.042V162.208C167.042 160.837 167.938 159.844 169.556 159.844C169.846 159.844 170.136 159.861 170.276 159.888V158.701C170.101 158.684 169.907 158.657 169.705 158.657C168.026 158.657 167.332 159.633 167.104 160.274H167.042V158.798H165.776V168ZM175.822 168.149C178.063 168.149 179.153 166.761 179.294 165.812H177.949C177.782 166.418 177.026 167.024 175.813 167.024C174.152 167.024 173.265 165.82 173.265 164.212V163.729H179.426V162.7C179.426 160.204 177.879 158.648 175.708 158.648C173.537 158.648 171.99 160.204 171.99 162.7V164.124C171.99 166.576 173.396 168.149 175.822 168.149ZM173.265 162.735V162.586C173.265 160.872 174.24 159.782 175.708 159.782C177.176 159.782 178.151 160.872 178.151 162.586V162.735H173.265ZM190.315 168.149C192.478 168.149 193.91 166.673 193.91 164.247V162.542C193.91 160.16 192.513 158.648 190.368 158.648C188.936 158.648 187.898 159.378 187.556 160.318H187.485V158.789H186.281V171.041H187.547V166.585H187.617C188.021 167.517 188.953 168.149 190.315 168.149ZM190.148 167.024C188.602 167.024 187.547 165.908 187.547 164.344V162.63C187.547 160.907 188.514 159.782 190.104 159.782C191.695 159.782 192.636 160.89 192.636 162.858V163.948C192.636 165.926 191.678 167.024 190.148 167.024ZM199.192 168.149C200.616 168.149 201.469 167.446 201.899 166.717H201.961V168H203.191V161.646C203.191 159.475 201.697 158.648 199.86 158.648C197.927 158.648 196.688 159.466 196.547 160.96H197.786C197.979 160.31 198.507 159.782 199.799 159.782C201.082 159.782 201.908 160.371 201.908 161.672V162.665H199.395C197.294 162.665 196.187 163.755 196.187 165.337C196.187 167.033 197.408 168.149 199.192 168.149ZM199.5 167.024C198.437 167.024 197.505 166.471 197.505 165.311C197.505 164.414 198.059 163.729 199.421 163.729H201.908V164.845C201.908 166.093 200.862 167.024 199.5 167.024ZM206.856 158.798H205.389V159.861H206.856V165.504C206.856 167.271 207.27 168.088 209.37 168.088C209.66 168.088 210.293 168.044 210.434 168.018V166.954C210.275 166.972 209.897 166.998 209.678 166.998C208.491 166.998 208.122 166.699 208.122 165.565V159.861H210.284V158.798H208.122V156.495H206.856V158.798ZM213.448 158.798H211.98V159.861H213.448V165.504C213.448 167.271 213.861 168.088 215.962 168.088C216.252 168.088 216.885 168.044 217.025 168.018V166.954C216.867 166.972 216.489 166.998 216.27 166.998C215.083 166.998 214.714 166.699 214.714 165.565V159.861H216.876V158.798H214.714V156.495H213.448V158.798ZM222.932 168.149C225.173 168.149 226.263 166.761 226.403 165.812H225.059C224.892 166.418 224.136 167.024 222.923 167.024C221.262 167.024 220.374 165.82 220.374 164.212V163.729H226.535V162.7C226.535 160.204 224.988 158.648 222.817 158.648C220.646 158.648 219.1 160.204 219.1 162.7V164.124C219.1 166.576 220.506 168.149 222.932 168.149ZM220.374 162.735V162.586C220.374 160.872 221.35 159.782 222.817 159.782C224.285 159.782 225.261 160.872 225.261 162.586V162.735H220.374ZM229.427 168H230.692V162.208C230.692 160.837 231.589 159.844 233.206 159.844C233.496 159.844 233.786 159.861 233.927 159.888V158.701C233.751 158.684 233.558 158.657 233.355 158.657C231.677 158.657 230.982 159.633 230.754 160.274H230.692V158.798H229.427V168ZM236.106 168H237.372V162.814C237.372 161.153 238.216 159.782 239.991 159.782C241.371 159.782 242.145 160.635 242.145 162.12V168H243.419V161.716C243.419 159.668 242.127 158.648 240.272 158.648C238.339 158.648 237.68 159.747 237.442 160.512H237.372V158.798H236.106V168ZM250.714 168H251.979V162.085C251.979 160.767 252.85 159.782 254.142 159.782C255.46 159.782 256.242 160.67 256.242 161.936V168H257.517V162.076C257.517 160.775 258.439 159.782 259.714 159.782C261.059 159.782 261.779 160.617 261.779 161.874V168H263.045V161.531C263.045 159.659 261.876 158.648 260.013 158.648C258.422 158.648 257.561 159.527 257.2 160.415H257.147C256.857 159.431 255.979 158.648 254.555 158.648C252.85 158.648 252.261 159.624 252.05 160.274H251.979V158.798H250.714V168ZM268.714 168.149C270.138 168.149 270.99 167.446 271.421 166.717H271.482V168H272.713V161.646C272.713 159.475 271.219 158.648 269.382 158.648C267.448 158.648 266.209 159.466 266.068 160.96H267.308C267.501 160.31 268.028 159.782 269.32 159.782C270.604 159.782 271.43 160.371 271.43 161.672V162.665H268.916C266.815 162.665 265.708 163.755 265.708 165.337C265.708 167.033 266.93 168.149 268.714 168.149ZM269.021 167.024C267.958 167.024 267.026 166.471 267.026 165.311C267.026 164.414 267.58 163.729 268.942 163.729H271.43V164.845C271.43 166.093 270.384 167.024 269.021 167.024ZM276.378 158.798H274.91V159.861H276.378V165.504C276.378 167.271 276.791 168.088 278.892 168.088C279.182 168.088 279.814 168.044 279.955 168.018V166.954C279.797 166.972 279.419 166.998 279.199 166.998C278.013 166.998 277.644 166.699 277.644 165.565V159.861H279.806V158.798H277.644V156.495H276.378V158.798ZM282.029 164.186C282.029 166.638 283.471 168.149 285.773 168.149C288.173 168.149 289.219 166.796 289.28 165.565H288.015C287.839 166.286 287.285 166.989 285.8 166.989C284.244 166.989 283.295 165.917 283.295 164.186V162.656C283.295 160.907 284.165 159.809 285.791 159.809C287.347 159.809 287.839 160.758 287.953 161.355H289.219C289.175 160.072 288.041 158.648 285.773 158.648C283.479 158.648 282.029 160.178 282.029 162.586V164.186ZM291.943 168H293.209V162.814C293.209 161.145 294.088 159.782 295.811 159.782C297.19 159.782 298.017 160.652 298.017 162.138V168H299.291V161.733C299.291 159.677 297.964 158.648 296.18 158.648C294.246 158.648 293.473 159.835 293.279 160.512H293.209V155.37H291.943V168ZM305.883 168.149C308.124 168.149 309.214 166.761 309.354 165.812H308.01C307.843 166.418 307.087 167.024 305.874 167.024C304.213 167.024 303.325 165.82 303.325 164.212V163.729H309.486V162.7C309.486 160.204 307.939 158.648 305.769 158.648C303.598 158.648 302.051 160.204 302.051 162.7V164.124C302.051 166.576 303.457 168.149 305.883 168.149ZM303.325 162.735V162.586C303.325 160.872 304.301 159.782 305.769 159.782C307.236 159.782 308.212 160.872 308.212 162.586V162.735H303.325ZM311.771 161.373C311.771 163.14 313.151 163.526 314.892 163.896C316.201 164.159 317.256 164.388 317.256 165.495C317.256 166.409 316.544 167.095 315.015 167.095C313.547 167.095 312.949 166.471 312.835 165.627H311.587C311.587 167.2 312.923 168.149 314.962 168.149C317.027 168.149 318.521 167.156 318.521 165.346C318.521 163.544 317.036 163.113 315.313 162.788C314.18 162.568 313.02 162.375 313.02 161.232C313.02 160.248 313.89 159.721 315.032 159.721C316.421 159.721 317.045 160.503 317.098 161.171H318.293C318.293 159.747 317.089 158.648 315.085 158.648C313.345 158.648 311.771 159.492 311.771 161.373Z" fill="black"/>
<path d="M46 159.414L50.9143 164.328L59.3284 155.914" stroke="#2CA02C" stroke-width="4"/>
<path d="M76 159.414L80.9143 164.328L89.3284 155.914" stroke="#2CA02C" stroke-width="4"/>
<path d="M106 159.414L110.914 164.328L119.328 155.914" stroke="#2CA02C" stroke-width="4"/>
</svg>
