<svg width="463" height="159" viewBox="0 0 463 159" fill="none" xmlns="http://www.w3.org/2000/svg">
<rect width="110" height="31" transform="translate(1)" fill="#1F77B4" fill-opacity="0.24"/>
<path d="M20.5938 12.6641C18.5234 12.6641 17.3125 14.2891 17.3125 16.5234V17.2656C17.3125 19.5547 18.4531 21.125 20.5938 21.125C21.6953 21.125 22.5547 20.6094 23.0156 19.7656H23.0469V21H24.3359V9.77344H22.9922V13.9297H22.9531C22.5391 13.2031 21.6797 12.6641 20.5938 12.6641ZM20.7812 13.8359C22.1641 13.8359 23.0156 14.9141 23.0156 16.5703V17.2266C23.0156 18.9688 22.1797 19.9531 20.8047 19.9531C19.5625 19.9531 18.6641 19.0469 18.6641 17.2188V16.5703C18.6641 14.7422 19.5625 13.8359 20.7812 13.8359ZM29.9531 12.6562C27.6562 12.6562 26.4219 14.3203 26.4219 16.5156V17.25C26.4219 19.4766 27.6484 21.1328 29.9531 21.1328C32.2578 21.1328 33.4688 19.4766 33.4688 17.25V16.5156C33.4688 14.3203 32.25 12.6562 29.9531 12.6562ZM29.9531 13.8047C31.3594 13.8047 32.125 14.8828 32.125 16.5625V17.2031C32.125 18.8828 31.3594 19.9688 29.9531 19.9688C28.5391 19.9688 27.7656 18.875 27.7656 17.2031V16.5625C27.7656 14.8828 28.5391 13.8047 29.9531 13.8047ZM35.2188 17.2656C35.2188 19.4531 36.4453 21.1328 38.625 21.1328C40.5078 21.1328 41.5391 20.1484 41.8125 18.7422H40.4922C40.3438 19.3984 39.7422 19.9453 38.7188 19.9453C37.4062 19.9453 36.5625 18.8828 36.5625 17.2734V16.5078C36.5625 14.8516 37.3516 13.8438 38.7109 13.8438C39.6016 13.8438 40.25 14.4766 40.4297 15.1719H41.75C41.6797 13.9141 40.5234 12.6562 38.625 12.6562C36.4844 12.6562 35.2188 14.2422 35.2188 16.4531V17.2656ZM50.2344 12.7891H48.8828V17.875C48.8828 19.1797 48.0547 19.9219 46.875 19.9219C45.7969 19.9219 44.9141 19.4297 44.9141 17.8984V12.7891H43.5625V18.2812C43.5625 20.1641 44.7734 21.1328 46.4688 21.1328C47.7812 21.1328 48.5547 20.5703 48.8438 19.9219H48.8984V21H50.2344V12.7891ZM52.625 21H53.9688V15.7969C53.9688 14.5547 54.7578 13.8672 55.7656 13.8672C56.8828 13.8672 57.5547 14.5547 57.5547 15.8125V21H58.8906V15.8125C58.8906 14.6719 59.5391 13.8672 60.7031 13.8672C61.875 13.8672 62.4766 14.6406 62.4766 15.6875V21H63.8125V15.4141C63.8125 13.7266 62.7891 12.6562 61.0547 12.6562C59.7188 12.6562 58.8516 13.2734 58.5391 13.9766H58.4766C58.1562 13.1719 57.3906 12.6562 56.1094 12.6562C55.0234 12.6562 54.2969 13.2344 54.0312 13.7969H53.9609V12.7891H52.625V21ZM69.2891 21.1328C71.1016 21.1328 72.1875 20.125 72.5 18.7656H71.1641C70.8984 19.5312 70.2734 20.0078 69.3203 20.0078C67.9844 20.0078 67.1875 18.9375 67.1875 17.375V17.2266H72.6094V16.4609C72.6094 14.2031 71.375 12.6562 69.2266 12.6562C67.0703 12.6562 65.8438 14.2031 65.8438 16.3672V17.2891C65.8438 19.625 67.1484 21.1328 69.2891 21.1328ZM67.1875 16.1406V16.1172C67.1875 14.8203 67.9844 13.7812 69.2344 13.7812C70.4609 13.7812 71.2656 14.8125 71.2656 16.1172V16.1406H67.1875ZM74.6406 21H75.9844V16C75.9844 14.875 76.5938 13.875 78.0078 13.875C79.2031 13.875 80.0156 14.5781 80.0156 15.9609V21H81.3594V15.7344C81.3594 13.7344 80.1016 12.6562 78.4141 12.6562C77.0781 12.6562 76.3203 13.3516 76.0156 13.875H75.9766V12.7891H74.6406V21ZM84.125 12.7891H83.0156V13.9141H84.1172V18.7031C84.1172 20.3203 84.5156 21.0703 86.4609 21.0703C86.7422 21.0703 87.0234 21.0391 87.1406 21.0156V19.9375C87.0312 19.9531 86.9297 19.9531 86.7969 19.9531C85.7891 19.9531 85.4609 19.7031 85.4609 18.7188V13.9141H87.0859V12.7891H85.4609V10.7422H84.125V12.7891ZM88.6641 15.1406C88.6641 16.625 89.9219 17.0938 91.4531 17.4062C92.6016 17.6328 93.5156 17.8125 93.5156 18.7422C93.5156 19.4375 92.9453 20.0312 91.6875 20.0312C90.5938 20.0312 89.9531 19.5391 89.8359 18.7891H88.5234C88.5234 20.2656 89.7812 21.1328 91.5859 21.1328C93.5156 21.1328 94.8359 20.2109 94.8359 18.5781C94.8359 16.9766 93.5391 16.5625 92 16.2891C91.0625 16.1172 89.9766 15.9219 89.9766 15C89.9766 14.1875 90.6797 13.7578 91.6562 13.7578C92.9375 13.7578 93.3281 14.4922 93.375 15.1172H94.625C94.625 13.7578 93.6328 12.6562 91.7031 12.6562C90.125 12.6562 88.6641 13.4062 88.6641 15.1406Z" fill="black"/>
<rect width="120" height="31" transform="translate(240)" fill="#1F77B4" fill-opacity="0.24"/>
<path d="M266.438 12.7891H265.078L263.57 19.2812H263.508L261.648 12.7891H260.367L258.516 19.2812H258.453L256.945 12.7891H255.586L257.727 21H259.125L260.992 14.6719H261.023L262.898 21H264.289L266.438 12.7891ZM271.133 12.6562C268.836 12.6562 267.602 14.3203 267.602 16.5156V17.25C267.602 19.4766 268.828 21.1328 271.133 21.1328C273.438 21.1328 274.648 19.4766 274.648 17.25V16.5156C274.648 14.3203 273.43 12.6562 271.133 12.6562ZM271.133 13.8047C272.539 13.8047 273.305 14.8828 273.305 16.5625V17.2031C273.305 18.8828 272.539 19.9688 271.133 19.9688C269.719 19.9688 268.945 18.875 268.945 17.2031V16.5625C268.945 14.8828 269.719 13.8047 271.133 13.8047ZM276.727 21H278.078V15.9141C278.078 14.8047 278.531 13.8984 279.984 13.8984C280.234 13.8984 280.5 13.9062 280.641 13.9297V12.7031C280.477 12.6797 280.305 12.6641 280.133 12.6641C278.969 12.6641 278.352 13.3047 278.109 13.7969H278.07V12.7891H276.727V21ZM285.086 12.6641C283.016 12.6641 281.805 14.2891 281.805 16.5234V17.2656C281.805 19.5547 282.945 21.125 285.086 21.125C286.188 21.125 287.047 20.6094 287.508 19.7656H287.539V21H288.828V9.77344H287.484V13.9297H287.445C287.031 13.2031 286.172 12.6641 285.086 12.6641ZM285.273 13.8359C286.656 13.8359 287.508 14.9141 287.508 16.5703V17.2266C287.508 18.9688 286.672 19.9531 285.297 19.9531C284.055 19.9531 283.156 19.0469 283.156 17.2188V16.5703C283.156 14.7422 284.055 13.8359 285.273 13.8359ZM296.156 21H297.602L300.547 12.7891H299.188L296.891 19.3828H296.844L294.703 12.7891H293.281L296.156 21ZM304.875 21.1328C306.688 21.1328 307.773 20.125 308.086 18.7656H306.75C306.484 19.5312 305.859 20.0078 304.906 20.0078C303.57 20.0078 302.773 18.9375 302.773 17.375V17.2266H308.195V16.4609C308.195 14.2031 306.961 12.6562 304.812 12.6562C302.656 12.6562 301.43 14.2031 301.43 16.3672V17.2891C301.43 19.625 302.734 21.1328 304.875 21.1328ZM302.773 16.1406V16.1172C302.773 14.8203 303.57 13.7812 304.82 13.7812C306.047 13.7812 306.852 14.8125 306.852 16.1172V16.1406H302.773ZM309.898 17.2656C309.898 19.4531 311.125 21.1328 313.305 21.1328C315.188 21.1328 316.219 20.1484 316.492 18.7422H315.172C315.023 19.3984 314.422 19.9453 313.398 19.9453C312.086 19.9453 311.242 18.8828 311.242 17.2734V16.5078C311.242 14.8516 312.031 13.8438 313.391 13.8438C314.281 13.8438 314.93 14.4766 315.109 15.1719H316.43C316.359 13.9141 315.203 12.6562 313.305 12.6562C311.164 12.6562 309.898 14.2422 309.898 16.4531V17.2656ZM319.102 12.7891H317.992V13.9141H319.094V18.7031C319.094 20.3203 319.492 21.0703 321.438 21.0703C321.719 21.0703 322 21.0391 322.117 21.0156V19.9375C322.008 19.9531 321.906 19.9531 321.773 19.9531C320.766 19.9531 320.438 19.7031 320.438 18.7188V13.9141H322.062V12.7891H320.438V10.7422H319.102V12.7891ZM327.164 12.6562C324.867 12.6562 323.633 14.3203 323.633 16.5156V17.25C323.633 19.4766 324.859 21.1328 327.164 21.1328C329.469 21.1328 330.68 19.4766 330.68 17.25V16.5156C330.68 14.3203 329.461 12.6562 327.164 12.6562ZM327.164 13.8047C328.57 13.8047 329.336 14.8828 329.336 16.5625V17.2031C329.336 18.8828 328.57 19.9688 327.164 19.9688C325.75 19.9688 324.977 18.875 324.977 17.2031V16.5625C324.977 14.8828 325.75 13.8047 327.164 13.8047ZM332.758 21H334.109V15.9141C334.109 14.8047 334.562 13.8984 336.016 13.8984C336.266 13.8984 336.531 13.9062 336.672 13.9297V12.7031C336.508 12.6797 336.336 12.6641 336.164 12.6641C335 12.6641 334.383 13.3047 334.141 13.7969H334.102V12.7891H332.758V21ZM337.844 15.1406C337.844 16.625 339.102 17.0938 340.633 17.4062C341.781 17.6328 342.695 17.8125 342.695 18.7422C342.695 19.4375 342.125 20.0312 340.867 20.0312C339.773 20.0312 339.133 19.5391 339.016 18.7891H337.703C337.703 20.2656 338.961 21.1328 340.766 21.1328C342.695 21.1328 344.016 20.2109 344.016 18.5781C344.016 16.9766 342.719 16.5625 341.18 16.2891C340.242 16.1172 339.156 15.9219 339.156 15C339.156 14.1875 339.859 13.7578 340.836 13.7578C342.117 13.7578 342.508 14.4922 342.555 15.1172H343.805C343.805 13.7578 342.812 12.6562 340.883 12.6562C339.305 12.6562 337.844 13.4062 337.844 15.1406Z" fill="black"/>
<path d="M250.359 53.1641C250.141 51.4219 248.859 50.3594 246.984 50.3594C244.68 50.3594 243.336 51.7734 243.336 54.2031V55.3125C243.336 57.7422 244.68 59.1562 246.984 59.1562C248.859 59.1562 250.148 58.1016 250.359 56.375H249.047C248.883 57.3438 248.055 57.9609 246.961 57.9609C245.484 57.9609 244.664 56.9609 244.664 55.1406V54.375C244.664 52.5547 245.484 51.5469 246.961 51.5469C248.055 51.5469 248.883 52.1719 249.047 53.1641H250.359ZM256.867 48.4453C257.492 48.4453 257.969 47.9766 257.969 47.3516C257.969 46.7344 257.492 46.2656 256.867 46.2656C256.242 46.2656 255.766 46.7344 255.766 47.3516C255.766 47.9766 256.242 48.4453 256.867 48.4453ZM260.422 59V57.8984H257.617V50.5234H253.422V51.625H256.305V57.8984H253.398V59H260.422ZM265.164 48.25V50.5469H262.906V51.6797H265.164V56.4766C265.164 58.2422 266.141 59.0391 268.242 59.0391C268.648 59.0391 269.68 59 269.891 58.9609V57.8359C269.664 57.8594 268.812 57.8828 268.336 57.8828C267.141 57.8828 266.492 57.3828 266.492 56.4609V51.6797H269.914V50.5469H266.477V48.25H265.164ZM276.648 48.4453C277.273 48.4453 277.75 47.9766 277.75 47.3516C277.75 46.7344 277.273 46.2656 276.648 46.2656C276.023 46.2656 275.547 46.7344 275.547 47.3516C275.547 47.9766 276.023 48.4453 276.648 48.4453ZM280.203 59V57.8984H277.398V50.5234H273.203V51.625H276.086V57.8984H273.18V59H280.203ZM283.094 59H289.688V57.8594H284.758V57.7578L289.656 51.5156V50.5234H283.117V51.6641H288.07V51.7656L283.094 58.0625V59ZM298.57 56.8125C298.336 57.5547 297.547 58.0078 296.477 58.0078C295.031 58.0078 294.109 57.0078 294.109 55.4531V55.1094H299.883V54.2812C299.883 51.8281 298.586 50.3672 296.383 50.3672C294.227 50.3672 292.797 51.8359 292.797 54.0703V55.3438C292.797 57.7578 294.148 59.1562 296.477 59.1562C298.258 59.1562 299.602 58.2109 299.859 56.8125H298.57ZM296.375 51.5078C297.742 51.5078 298.57 52.4844 298.57 54.1016H294.109C294.109 52.4766 294.961 51.5078 296.375 51.5078ZM302.703 59H304.031V54.0078C304.031 52.5625 304.969 51.5859 306.367 51.5859C307.688 51.5859 308.312 52.3047 308.312 53.8359V59H309.641V53.5C309.641 51.4688 308.641 50.3672 306.797 50.3672C305.508 50.3672 304.539 50.9609 304.086 52.0156H303.977V50.5234H302.703V59Z" fill="black"/>
<path d="M334.133 59.1406C335.344 59.1406 336.234 58.6406 336.672 57.7031H336.82V59H338.125V47.1953H336.773V51.8359H336.633C336.266 50.9062 335.359 50.3828 334.133 50.3828C332.172 50.3828 330.891 51.7969 330.891 53.9688V55.5469C330.891 57.7266 332.172 59.1406 334.133 59.1406ZM334.523 57.9297C333.125 57.9297 332.227 56.9219 332.227 55.3594V54.1406C332.227 52.5781 333.125 51.5781 334.523 51.5781C335.914 51.5781 336.812 52.5781 336.812 54.1406V55.3594C336.812 56.9297 335.914 57.9297 334.523 57.9297ZM346.844 56.8125C346.609 57.5547 345.82 58.0078 344.75 58.0078C343.305 58.0078 342.383 57.0078 342.383 55.4531V55.1094H348.156V54.2812C348.156 51.8281 346.859 50.3672 344.656 50.3672C342.5 50.3672 341.07 51.8359 341.07 54.0703V55.3438C341.07 57.7578 342.422 59.1562 344.75 59.1562C346.531 59.1562 347.875 58.2109 348.133 56.8125H346.844ZM344.648 51.5078C346.016 51.5078 346.844 52.4844 346.844 54.1016H342.383C342.383 52.4766 343.234 51.5078 344.648 51.5078ZM353.586 59.1484C354.82 59.1484 355.742 58.6406 356.148 57.7344H356.281V59.0078H357.547V53.2031C357.547 51.4375 356.406 50.4219 354.414 50.4219C352.68 50.4219 351.367 51.3516 351.211 52.7109H352.516C352.734 51.9844 353.422 51.5703 354.398 51.5703C355.578 51.5703 356.227 52.1562 356.227 53.2188V53.9844L353.898 54.1016C351.969 54.2031 350.891 55.0938 350.891 56.5938C350.891 58.1328 351.969 59.1484 353.586 59.1484ZM353.969 57.9844C352.898 57.9844 352.234 57.4375 352.234 56.5469C352.234 55.6641 352.859 55.1562 354.047 55.1016L356.227 55V56C356.227 57.1328 355.25 57.9844 353.969 57.9844ZM364 55.2031C364 53.0469 365.109 51.75 366.984 51.75C367.445 51.75 367.992 51.8438 368.383 51.9844V50.4922C368.102 50.375 367.641 50.3047 367.156 50.3047C365.523 50.3047 364.469 51.1172 364.156 52.6875H363.984V50.5234H360.82V51.5859H362.703V57.9375H360.992V59H366.625V57.9375H364V55.2031Z" fill="black"/>
<path d="M396.523 59H397.852V51.6797H401.578V50.5469H397.836V49.6719C397.836 48.8203 398.461 48.3828 399.641 48.3828C400.117 48.3828 401.211 48.4141 401.578 48.4531V47.3672C401.297 47.3281 400.117 47.2891 399.625 47.2891C397.539 47.2891 396.523 48.0547 396.523 49.6953V50.5469H394.25V51.6797H396.523V59ZM409.953 56.8125C409.719 57.5547 408.93 58.0078 407.859 58.0078C406.414 58.0078 405.492 57.0078 405.492 55.4531V55.1094H411.266V54.2812C411.266 51.8281 409.969 50.3672 407.766 50.3672C405.609 50.3672 404.18 51.8359 404.18 54.0703V55.3438C404.18 57.7578 405.531 59.1562 407.859 59.1562C409.641 59.1562 410.984 58.2109 411.242 56.8125H409.953ZM407.758 51.5078C409.125 51.5078 409.953 52.4844 409.953 54.1016H405.492C405.492 52.4766 406.344 51.5078 407.758 51.5078ZM421.258 59V57.8984H418.461V47.1953H414.258V48.2969H417.133V57.8984H414.234V59H421.258ZM431.148 59V57.8984H428.352V47.1953H424.148V48.2969H427.023V57.8984H424.125V59H431.148ZM437.336 59.1562C439.578 59.1562 441.008 57.6953 441.008 55.4062V54.125C441.008 51.8359 439.578 50.375 437.336 50.375C435.094 50.375 433.664 51.8359 433.664 54.125V55.4062C433.664 57.6953 435.094 59.1562 437.336 59.1562ZM437.336 51.5469C438.789 51.5469 439.695 52.5781 439.695 54.2422V55.2812C439.695 56.9531 438.789 57.9766 437.336 57.9766C435.883 57.9766 434.977 56.9531 434.977 55.2812V54.2422C434.977 52.5781 435.883 51.5469 437.336 51.5469ZM451.805 50.5234H450.508L449.359 57.3203H449.219L447.852 50.5312H446.602L445.234 57.3203H445.094L443.945 50.5234H442.648L444.469 59H445.742L447.18 52.3906H447.273L448.711 59H449.984L451.805 50.5234Z" fill="black"/>
<path d="M3.69531 93H5.02344V85.6797H8.75V84.5469H5.00781V83.6719C5.00781 82.8203 5.63281 82.3828 6.8125 82.3828C7.28906 82.3828 8.38281 82.4141 8.75 82.4531V81.3672C8.46875 81.3281 7.28906 81.2891 6.79688 81.2891C4.71094 81.2891 3.69531 82.0547 3.69531 83.6953V84.5469H1.42188V85.6797H3.69531V93ZM17.125 90.8125C16.8906 91.5547 16.1016 92.0078 15.0312 92.0078C13.5859 92.0078 12.6641 91.0078 12.6641 89.4531V89.1094H18.4375V88.2812C18.4375 85.8281 17.1406 84.3672 14.9375 84.3672C12.7812 84.3672 11.3516 85.8359 11.3516 88.0703V89.3438C11.3516 91.7578 12.7031 93.1562 15.0312 93.1562C16.8125 93.1562 18.1562 92.2109 18.4141 90.8125H17.125ZM14.9297 85.5078C16.2969 85.5078 17.125 86.4844 17.125 88.1016H12.6641C12.6641 86.4766 13.5156 85.5078 14.9297 85.5078ZM28.4297 93V91.8984H25.6328V81.1953H21.4297V82.2969H24.3047V91.8984H21.4062V93H28.4297ZM38.3203 93V91.8984H35.5234V81.1953H31.3203V82.2969H34.1953V91.8984H31.2969V93H38.3203ZM44.5078 93.1562C46.75 93.1562 48.1797 91.6953 48.1797 89.4062V88.125C48.1797 85.8359 46.75 84.375 44.5078 84.375C42.2656 84.375 40.8359 85.8359 40.8359 88.125V89.4062C40.8359 91.6953 42.2656 93.1562 44.5078 93.1562ZM44.5078 85.5469C45.9609 85.5469 46.8672 86.5781 46.8672 88.2422V89.2812C46.8672 90.9531 45.9609 91.9766 44.5078 91.9766C43.0547 91.9766 42.1484 90.9531 42.1484 89.2812V88.2422C42.1484 86.5781 43.0547 85.5469 44.5078 85.5469ZM58.9766 84.5234H57.6797L56.5312 91.3203H56.3906L55.0234 84.5312H53.7734L52.4062 91.3203H52.2656L51.1172 84.5234H49.8203L51.6406 93H52.9141L54.3516 86.3906H54.4453L55.8828 93H57.1562L58.9766 84.5234ZM77.7109 87.1641C77.4922 85.4219 76.2109 84.3594 74.3359 84.3594C72.0312 84.3594 70.6875 85.7734 70.6875 88.2031V89.3125C70.6875 91.7422 72.0312 93.1562 74.3359 93.1562C76.2109 93.1562 77.5 92.1016 77.7109 90.375H76.3984C76.2344 91.3438 75.4062 91.9609 74.3125 91.9609C72.8359 91.9609 72.0156 90.9609 72.0156 89.1406V88.375C72.0156 86.5547 72.8359 85.5469 74.3125 85.5469C75.4062 85.5469 76.2344 86.1719 76.3984 87.1641H77.7109ZM84.2188 82.4453C84.8438 82.4453 85.3203 81.9766 85.3203 81.3516C85.3203 80.7344 84.8438 80.2656 84.2188 80.2656C83.5938 80.2656 83.1172 80.7344 83.1172 81.3516C83.1172 81.9766 83.5938 82.4453 84.2188 82.4453ZM87.7734 93V91.8984H84.9688V84.5234H80.7734V85.625H83.6562V91.8984H80.75V93H87.7734ZM92.5156 82.25V84.5469H90.2578V85.6797H92.5156V90.4766C92.5156 92.2422 93.4922 93.0391 95.5938 93.0391C96 93.0391 97.0312 93 97.2422 92.9609V91.8359C97.0156 91.8594 96.1641 91.8828 95.6875 91.8828C94.4922 91.8828 93.8438 91.3828 93.8438 90.4609V85.6797H97.2656V84.5469H93.8281V82.25H92.5156ZM104 82.4453C104.625 82.4453 105.102 81.9766 105.102 81.3516C105.102 80.7344 104.625 80.2656 104 80.2656C103.375 80.2656 102.898 80.7344 102.898 81.3516C102.898 81.9766 103.375 82.4453 104 82.4453ZM107.555 93V91.8984H104.75V84.5234H100.555V85.625H103.438V91.8984H100.531V93H107.555ZM110.445 93H117.039V91.8594H112.109V91.7578L117.008 85.5156V84.5234H110.469V85.6641H115.422V85.7656L110.445 92.0625V93ZM125.922 90.8125C125.688 91.5547 124.898 92.0078 123.828 92.0078C122.383 92.0078 121.461 91.0078 121.461 89.4531V89.1094H127.234V88.2812C127.234 85.8281 125.938 84.3672 123.734 84.3672C121.578 84.3672 120.148 85.8359 120.148 88.0703V89.3438C120.148 91.7578 121.5 93.1562 123.828 93.1562C125.609 93.1562 126.953 92.2109 127.211 90.8125H125.922ZM123.727 85.5078C125.094 85.5078 125.922 86.4844 125.922 88.1016H121.461C121.461 86.4766 122.312 85.5078 123.727 85.5078ZM130.055 93H131.383V88.0078C131.383 86.5625 132.32 85.5859 133.719 85.5859C135.039 85.5859 135.664 86.3047 135.664 87.8359V93H136.992V87.5C136.992 85.4688 135.992 84.3672 134.148 84.3672C132.859 84.3672 131.891 84.9609 131.438 86.0156H131.328V84.5234H130.055V93Z" fill="black"/>
<path d="M4.41406 122.141C5.625 122.141 6.51562 121.641 6.95312 120.703H7.10156V122H8.40625V110.195H7.05469V114.836H6.91406C6.54688 113.906 5.64062 113.383 4.41406 113.383C2.45312 113.383 1.17188 114.797 1.17188 116.969V118.547C1.17188 120.727 2.45312 122.141 4.41406 122.141ZM4.80469 120.93C3.40625 120.93 2.50781 119.922 2.50781 118.359V117.141C2.50781 115.578 3.40625 114.578 4.80469 114.578C6.19531 114.578 7.09375 115.578 7.09375 117.141V118.359C7.09375 119.93 6.19531 120.93 4.80469 120.93ZM17.125 119.812C16.8906 120.555 16.1016 121.008 15.0312 121.008C13.5859 121.008 12.6641 120.008 12.6641 118.453V118.109H18.4375V117.281C18.4375 114.828 17.1406 113.367 14.9375 113.367C12.7812 113.367 11.3516 114.836 11.3516 117.07V118.344C11.3516 120.758 12.7031 122.156 15.0312 122.156C16.8125 122.156 18.1562 121.211 18.4141 119.812H17.125ZM14.9297 114.508C16.2969 114.508 17.125 115.484 17.125 117.102H12.6641C12.6641 115.477 13.5156 114.508 14.9297 114.508ZM23.8672 122.148C25.1016 122.148 26.0234 121.641 26.4297 120.734H26.5625V122.008H27.8281V116.203C27.8281 114.438 26.6875 113.422 24.6953 113.422C22.9609 113.422 21.6484 114.352 21.4922 115.711H22.7969C23.0156 114.984 23.7031 114.57 24.6797 114.57C25.8594 114.57 26.5078 115.156 26.5078 116.219V116.984L24.1797 117.102C22.25 117.203 21.1719 118.094 21.1719 119.594C21.1719 121.133 22.25 122.148 23.8672 122.148ZM24.25 120.984C23.1797 120.984 22.5156 120.438 22.5156 119.547C22.5156 118.664 23.1406 118.156 24.3281 118.102L26.5078 118V119C26.5078 120.133 25.5312 120.984 24.25 120.984ZM34.2812 118.203C34.2812 116.047 35.3906 114.75 37.2656 114.75C37.7266 114.75 38.2734 114.844 38.6641 114.984V113.492C38.3828 113.375 37.9219 113.305 37.4375 113.305C35.8047 113.305 34.75 114.117 34.4375 115.688H34.2656V113.523H31.1016V114.586H32.9844V120.938H31.2734V122H36.9062V120.938H34.2812V118.203ZM57.9297 116.164C57.7109 114.422 56.4297 113.359 54.5547 113.359C52.25 113.359 50.9062 114.773 50.9062 117.203V118.312C50.9062 120.742 52.25 122.156 54.5547 122.156C56.4297 122.156 57.7188 121.102 57.9297 119.375H56.6172C56.4531 120.344 55.625 120.961 54.5312 120.961C53.0547 120.961 52.2344 119.961 52.2344 118.141V117.375C52.2344 115.555 53.0547 114.547 54.5312 114.547C55.625 114.547 56.4531 115.172 56.6172 116.164H57.9297ZM64.4375 111.445C65.0625 111.445 65.5391 110.977 65.5391 110.352C65.5391 109.734 65.0625 109.266 64.4375 109.266C63.8125 109.266 63.3359 109.734 63.3359 110.352C63.3359 110.977 63.8125 111.445 64.4375 111.445ZM67.9922 122V120.898H65.1875V113.523H60.9922V114.625H63.875V120.898H60.9688V122H67.9922ZM72.7344 111.25V113.547H70.4766V114.68H72.7344V119.477C72.7344 121.242 73.7109 122.039 75.8125 122.039C76.2188 122.039 77.25 122 77.4609 121.961V120.836C77.2344 120.859 76.3828 120.883 75.9062 120.883C74.7109 120.883 74.0625 120.383 74.0625 119.461V114.68H77.4844V113.547H74.0469V111.25H72.7344ZM84.2188 111.445C84.8438 111.445 85.3203 110.977 85.3203 110.352C85.3203 109.734 84.8438 109.266 84.2188 109.266C83.5938 109.266 83.1172 109.734 83.1172 110.352C83.1172 110.977 83.5938 111.445 84.2188 111.445ZM87.7734 122V120.898H84.9688V113.523H80.7734V114.625H83.6562V120.898H80.75V122H87.7734ZM90.6641 122H97.2578V120.859H92.3281V120.758L97.2266 114.516V113.523H90.6875V114.664H95.6406V114.766L90.6641 121.062V122ZM106.141 119.812C105.906 120.555 105.117 121.008 104.047 121.008C102.602 121.008 101.68 120.008 101.68 118.453V118.109H107.453V117.281C107.453 114.828 106.156 113.367 103.953 113.367C101.797 113.367 100.367 114.836 100.367 117.07V118.344C100.367 120.758 101.719 122.156 104.047 122.156C105.828 122.156 107.172 121.211 107.43 119.812H106.141ZM103.945 114.508C105.312 114.508 106.141 115.484 106.141 117.102H101.68C101.68 115.477 102.531 114.508 103.945 114.508ZM110.273 122H111.602V117.008C111.602 115.562 112.539 114.586 113.938 114.586C115.258 114.586 115.883 115.305 115.883 116.836V122H117.211V116.5C117.211 114.469 116.211 113.367 114.367 113.367C113.078 113.367 112.109 113.961 111.656 115.016H111.547V113.523H110.273V122Z" fill="black"/>
<path d="M4.41406 151.141C5.625 151.141 6.51562 150.641 6.95312 149.703H7.10156V151H8.40625V139.195H7.05469V143.836H6.91406C6.54688 142.906 5.64062 142.383 4.41406 142.383C2.45312 142.383 1.17188 143.797 1.17188 145.969V147.547C1.17188 149.727 2.45312 151.141 4.41406 151.141ZM4.80469 149.93C3.40625 149.93 2.50781 148.922 2.50781 147.359V146.141C2.50781 144.578 3.40625 143.578 4.80469 143.578C6.19531 143.578 7.09375 144.578 7.09375 146.141V147.359C7.09375 148.93 6.19531 149.93 4.80469 149.93ZM17.125 148.812C16.8906 149.555 16.1016 150.008 15.0312 150.008C13.5859 150.008 12.6641 149.008 12.6641 147.453V147.109H18.4375V146.281C18.4375 143.828 17.1406 142.367 14.9375 142.367C12.7812 142.367 11.3516 143.836 11.3516 146.07V147.344C11.3516 149.758 12.7031 151.156 15.0312 151.156C16.8125 151.156 18.1562 150.211 18.4141 148.812H17.125ZM14.9297 143.508C16.2969 143.508 17.125 144.484 17.125 146.102H12.6641C12.6641 144.477 13.5156 143.508 14.9297 143.508ZM23.8672 151.148C25.1016 151.148 26.0234 150.641 26.4297 149.734H26.5625V151.008H27.8281V145.203C27.8281 143.438 26.6875 142.422 24.6953 142.422C22.9609 142.422 21.6484 143.352 21.4922 144.711H22.7969C23.0156 143.984 23.7031 143.57 24.6797 143.57C25.8594 143.57 26.5078 144.156 26.5078 145.219V145.984L24.1797 146.102C22.25 146.203 21.1719 147.094 21.1719 148.594C21.1719 150.133 22.25 151.148 23.8672 151.148ZM24.25 149.984C23.1797 149.984 22.5156 149.438 22.5156 148.547C22.5156 147.664 23.1406 147.156 24.3281 147.102L26.5078 147V148C26.5078 149.133 25.5312 149.984 24.25 149.984ZM34.2812 147.203C34.2812 145.047 35.3906 143.75 37.2656 143.75C37.7266 143.75 38.2734 143.844 38.6641 143.984V142.492C38.3828 142.375 37.9219 142.305 37.4375 142.305C35.8047 142.305 34.75 143.117 34.4375 144.688H34.2656V142.523H31.1016V143.586H32.9844V149.938H31.2734V151H36.9062V149.938H34.2812V147.203ZM53.8672 151.141C55.0781 151.141 55.9688 150.641 56.4062 149.703H56.5547V151H57.8594V139.195H56.5078V143.836H56.3672C56 142.906 55.0938 142.383 53.8672 142.383C51.9062 142.383 50.625 143.797 50.625 145.969V147.547C50.625 149.727 51.9062 151.141 53.8672 151.141ZM54.2578 149.93C52.8594 149.93 51.9609 148.922 51.9609 147.359V146.141C51.9609 144.578 52.8594 143.578 54.2578 143.578C55.6484 143.578 56.5469 144.578 56.5469 146.141V147.359C56.5469 148.93 55.6484 149.93 54.2578 149.93ZM66.5781 148.812C66.3438 149.555 65.5547 150.008 64.4844 150.008C63.0391 150.008 62.1172 149.008 62.1172 147.453V147.109H67.8906V146.281C67.8906 143.828 66.5938 142.367 64.3906 142.367C62.2344 142.367 60.8047 143.836 60.8047 146.07V147.344C60.8047 149.758 62.1562 151.156 64.4844 151.156C66.2656 151.156 67.6094 150.211 67.8672 148.812H66.5781ZM64.3828 143.508C65.75 143.508 66.5781 144.484 66.5781 146.102H62.1172C62.1172 144.477 62.9688 143.508 64.3828 143.508ZM73.3203 151.148C74.5547 151.148 75.4766 150.641 75.8828 149.734H76.0156V151.008H77.2812V145.203C77.2812 143.438 76.1406 142.422 74.1484 142.422C72.4141 142.422 71.1016 143.352 70.9453 144.711H72.25C72.4688 143.984 73.1562 143.57 74.1328 143.57C75.3125 143.57 75.9609 144.156 75.9609 145.219V145.984L73.6328 146.102C71.7031 146.203 70.625 147.094 70.625 148.594C70.625 150.133 71.7031 151.148 73.3203 151.148ZM73.7031 149.984C72.6328 149.984 71.9688 149.438 71.9688 148.547C71.9688 147.664 72.5938 147.156 73.7812 147.102L75.9609 147V148C75.9609 149.133 74.9844 149.984 73.7031 149.984ZM83.7344 147.203C83.7344 145.047 84.8438 143.75 86.7188 143.75C87.1797 143.75 87.7266 143.844 88.1172 143.984V142.492C87.8359 142.375 87.375 142.305 86.8906 142.305C85.2578 142.305 84.2031 143.117 83.8906 144.688H83.7188V142.523H80.5547V143.586H82.4375V149.938H80.7266V151H86.3594V149.938H83.7344V147.203ZM102.602 151H103.93V143.68H107.656V142.547H103.914V141.672C103.914 140.82 104.539 140.383 105.719 140.383C106.195 140.383 107.289 140.414 107.656 140.453V139.367C107.375 139.328 106.195 139.289 105.703 139.289C103.617 139.289 102.602 140.055 102.602 141.695V142.547H100.328V143.68H102.602V151ZM116.031 148.812C115.797 149.555 115.008 150.008 113.938 150.008C112.492 150.008 111.57 149.008 111.57 147.453V147.109H117.344V146.281C117.344 143.828 116.047 142.367 113.844 142.367C111.688 142.367 110.258 143.836 110.258 146.07V147.344C110.258 149.758 111.609 151.156 113.938 151.156C115.719 151.156 117.062 150.211 117.32 148.812H116.031ZM113.836 143.508C115.203 143.508 116.031 144.484 116.031 146.102H111.57C111.57 144.477 112.422 143.508 113.836 143.508ZM127.336 151V149.898H124.539V139.195H120.336V140.297H123.211V149.898H120.312V151H127.336ZM137.227 151V149.898H134.43V139.195H130.227V140.297H133.102V149.898H130.203V151H137.227ZM143.414 151.156C145.656 151.156 147.086 149.695 147.086 147.406V146.125C147.086 143.836 145.656 142.375 143.414 142.375C141.172 142.375 139.742 143.836 139.742 146.125V147.406C139.742 149.695 141.172 151.156 143.414 151.156ZM143.414 143.547C144.867 143.547 145.773 144.578 145.773 146.242V147.281C145.773 148.953 144.867 149.977 143.414 149.977C141.961 149.977 141.055 148.953 141.055 147.281V146.242C141.055 144.578 141.961 143.547 143.414 143.547ZM157.883 142.523H156.586L155.438 149.32H155.297L153.93 142.531H152.68L151.312 149.32H151.172L150.023 142.523H148.727L150.547 151H151.82L153.258 144.391H153.352L154.789 151H156.062L157.883 142.523Z" fill="black"/>
<path d="M219 16L209 10.2265L209 21.7735L219 16ZM158 17L210 17L210 15L158 15L158 17Z" fill="#1F77B4"/>
<path d="M219 117L209 111.226L209 122.774L219 117ZM158 118L210 118L210 116L158 116L158 118Z" fill="#1F77B4"/>
<path d="M283.203 91V89.7891H280.031V79.7266H278.68L275.32 81.9062V83.375L278.547 81.2891H278.672V89.7891H275.344V91H283.203Z" fill="black"/>
<path d="M349.953 91.2578C352.398 91.2578 353.758 89.1641 353.758 85.3672C353.758 81.5703 352.398 79.4766 349.953 79.4766C347.5 79.4766 346.148 81.5703 346.148 85.3672C346.148 89.1641 347.5 91.2578 349.953 91.2578ZM347.516 85.3672C347.516 82.3047 348.359 80.6953 349.953 80.6953C351.016 80.6953 351.75 81.4141 352.117 82.8125L347.57 86.6094C347.539 86.2266 347.516 85.8125 347.516 85.3672ZM349.953 90.0391C348.891 90.0391 348.164 89.3203 347.797 87.9375L352.328 84.1094C352.367 84.5 352.383 84.9141 352.383 85.3672C352.383 88.4219 351.547 90.0391 349.953 90.0391Z" fill="black"/>
<path d="M425.203 91V89.7891H422.031V79.7266H420.68L417.32 81.9062V83.375L420.547 81.2891H420.672V89.7891H417.344V91H425.203Z" fill="black"/>
<path d="M283.203 122V120.789H280.031V110.727H278.68L275.32 112.906V114.375L278.547 112.289H278.672V120.789H275.344V122H283.203Z" fill="black"/>
<path d="M354.203 122V120.789H351.031V110.727H349.68L346.32 112.906V114.375L349.547 112.289H349.672V120.789H346.344V122H354.203Z" fill="black"/>
<path d="M420.953 122.258C423.398 122.258 424.758 120.164 424.758 116.367C424.758 112.57 423.398 110.477 420.953 110.477C418.5 110.477 417.148 112.57 417.148 116.367C417.148 120.164 418.5 122.258 420.953 122.258ZM418.516 116.367C418.516 113.305 419.359 111.695 420.953 111.695C422.016 111.695 422.75 112.414 423.117 113.812L418.57 117.609C418.539 117.227 418.516 116.812 418.516 116.367ZM420.953 121.039C419.891 121.039 419.164 120.32 418.797 118.938L423.328 115.109C423.367 115.5 423.383 115.914 423.383 116.367C423.383 119.422 422.547 121.039 420.953 121.039Z" fill="black"/>
<path d="M278.953 151.258C281.398 151.258 282.758 149.164 282.758 145.367C282.758 141.57 281.398 139.477 278.953 139.477C276.5 139.477 275.148 141.57 275.148 145.367C275.148 149.164 276.5 151.258 278.953 151.258ZM276.516 145.367C276.516 142.305 277.359 140.695 278.953 140.695C280.016 140.695 280.75 141.414 281.117 142.812L276.57 146.609C276.539 146.227 276.516 145.812 276.516 145.367ZM278.953 150.039C277.891 150.039 277.164 149.32 276.797 147.938L281.328 144.109C281.367 144.5 281.383 144.914 281.383 145.367C281.383 148.422 280.547 150.039 278.953 150.039Z" fill="black"/>
<path d="M346.352 142.898V142.945H347.68V142.898C347.68 141.57 348.539 140.703 349.836 140.703C351.148 140.703 352 141.5 352 142.711C352 143.602 351.656 144.203 350.227 145.805L346.414 150.047V151H353.547V149.75H348.383V149.617L351.039 146.727C352.836 144.766 353.367 143.828 353.367 142.656C353.367 140.773 351.945 139.492 349.875 139.492C347.82 139.492 346.352 140.914 346.352 142.898Z" fill="black"/>
<path d="M425.203 151V149.789H422.031V139.727H420.68L417.32 141.906V143.375L420.547 141.289H420.672V149.789H417.344V151H425.203Z" fill="black"/>
<path d="M241 74H236.5V116V158H241" stroke="black"/>
<path d="M454 158H458.5V116V74H454" stroke="black"/>
</svg>
