<svg width="668" height="76" viewBox="0 0 668 76" fill="none" xmlns="http://www.w3.org/2000/svg">
<g clip-path="url(#clip0)">
<rect width="668" height="76" fill="white"/>
<circle cx="32.5" cy="39.5" r="31" stroke="#E99D42" stroke-width="3"/>
<circle cx="255.5" cy="39.5" r="31" stroke="#2C7CF6" stroke-width="3"/>
<circle cx="507.5" cy="39.5" r="31" stroke="#8FC34F" stroke-width="3"/>
<path d="M76.7422 13.3359H72.2422V24H74.8047V20.6875H76.7109C79.1719 20.6875 80.4688 19.0703 80.4688 17.0312C80.4688 15.0234 79.1953 13.3359 76.7422 13.3359ZM77.8672 17.0312C77.8672 18.1328 77.2109 18.7578 76.1484 18.7578H74.7969V15.3047H76.1484C77.2109 15.3047 77.8672 15.9141 77.8672 17.0312ZM85.5703 15.5078C83.1406 15.5078 81.6094 17.0938 81.6094 19.4453V20.1719C81.6094 22.7266 83.1328 24.1562 85.5703 24.1562C87.9922 24.1562 89.5234 22.7188 89.5234 20.1641V19.4297C89.5234 17.0469 87.9922 15.5078 85.5703 15.5078ZM85.5703 17.3672C86.5938 17.3672 87 18.3438 87 19.4375V20.2109C87 21.2656 86.6328 22.2891 85.5703 22.2891C84.5078 22.2891 84.125 21.2578 84.125 20.2109V19.4375C84.125 18.3516 84.5469 17.3672 85.5703 17.3672ZM96.3516 24.0938C98.2812 24.0938 99.4219 22.6797 99.4219 20.2891V19.3594C99.4219 16.9688 98.2891 15.5625 96.3672 15.5625C95.2109 15.5625 94.3125 16.0938 93.9766 16.9766H93.8516V15.6562H91.3828V26.7656H93.875V22.7031H94C94.3594 23.5859 95.2188 24.0938 96.3516 24.0938ZM95.3828 22.1719C94.4688 22.1719 93.875 21.4297 93.875 20.2812V19.4453C93.875 18.2344 94.4453 17.5 95.3672 17.5C96.3125 17.5 96.8516 18.2344 96.8516 19.5234V20.1406C96.8516 21.4219 96.3125 22.1719 95.3828 22.1719ZM108.984 15.6562H106.5V20.5078C106.5 21.4922 105.82 22.0703 105.047 22.0703C104.43 22.0703 103.742 21.7812 103.742 20.5781V15.6562H101.25V21.2188C101.25 23.2188 102.344 24.125 104.008 24.125C105.469 24.125 106.227 23.2578 106.445 22.6016H106.57V24H108.984V15.6562ZM111.273 24H113.766V12.7734H111.273V24ZM118.422 24.125C119.648 24.125 120.32 23.5469 120.602 22.9766H120.719V24H123.055V18.4531C123.055 16.2969 121.461 15.5312 119.484 15.5312C116.922 15.5312 116.031 16.8359 115.969 18.1797H118.305C118.367 17.7031 118.734 17.3516 119.445 17.3516C120.148 17.3516 120.602 17.6953 120.602 18.375V19.0703H118.656C116.719 19.0703 115.664 20.0625 115.664 21.5781C115.664 23.1719 116.789 24.125 118.422 24.125ZM119.281 22.3828C118.68 22.3828 118.117 22.0469 118.117 21.3906C118.117 20.8281 118.531 20.4375 119.312 20.4375H120.602V21.25C120.602 21.9141 119.984 22.3828 119.281 22.3828ZM125.844 15.7812H124.516V17.6484H125.789V21.625C125.789 23.3672 126.641 24.0234 128.773 24.0234C129.359 24.0234 129.938 23.9688 130.125 23.9297V22.1406C129.969 22.1562 129.68 22.1719 129.375 22.1719C128.609 22.1719 128.25 21.9219 128.25 21.1875V17.6484H130.078V15.7812H128.25V13.7188H125.844V15.7812ZM131.773 13.2734C131.773 14.0234 132.375 14.5156 133.258 14.5156C134.156 14.5156 134.742 14.0234 134.742 13.2734C134.742 12.5156 134.148 12.0156 133.258 12.0156C132.367 12.0156 131.773 12.5156 131.773 13.2734ZM132.016 24H134.508V15.6562H132.016V24ZM140.461 15.5078C138.031 15.5078 136.5 17.0938 136.5 19.4453V20.1719C136.5 22.7266 138.023 24.1562 140.461 24.1562C142.883 24.1562 144.414 22.7188 144.414 20.1641V19.4297C144.414 17.0469 142.883 15.5078 140.461 15.5078ZM140.461 17.3672C141.484 17.3672 141.891 18.3438 141.891 19.4375V20.2109C141.891 21.2656 141.523 22.2891 140.461 22.2891C139.398 22.2891 139.016 21.2578 139.016 20.2109V19.4375C139.016 18.3516 139.438 17.3672 140.461 17.3672ZM146.266 24H148.758V19.3906C148.758 18.2656 149.352 17.5938 150.219 17.5938C150.891 17.5938 151.523 17.9688 151.523 19.1484V24H154.016V18.4844C154.016 16.5078 152.93 15.5312 151.258 15.5312C149.695 15.5312 149.016 16.4609 148.805 17.1016H148.688V15.6562H146.266V24ZM156.102 17.6562C156.102 18.5625 156.789 19.1094 157.633 19.1094C158.492 19.1094 159.172 18.5625 159.172 17.6562C159.172 16.7578 158.5 16.1797 157.633 16.1797C156.781 16.1797 156.102 16.7422 156.102 17.6562ZM156.102 22.7109C156.102 23.6172 156.789 24.1641 157.633 24.1641C158.492 24.1641 159.172 23.6172 159.172 22.7109C159.172 21.8047 158.5 21.2344 157.633 21.2344C156.781 21.2344 156.102 21.7891 156.102 22.7109Z" fill="#E99D42"/>
<path d="M165.664 15.8047H164.398V16.9531H165.656V21.6953C165.656 23.3203 166.078 24.0703 168.031 24.0703C168.344 24.0703 168.922 24.0312 169.039 24V22.8672C168.906 22.8828 168.594 22.9062 168.391 22.9062C167.391 22.9062 167.062 22.6562 167.062 21.6875V16.9531H168.922V15.8047H167.062V13.7422H165.664V15.8047ZM171.258 24H172.672V19.4219C172.672 17.9922 173.406 16.8828 174.812 16.8828C175.922 16.8828 176.633 17.5547 176.633 18.8516V24H178.047V18.4062C178.047 16.5625 176.875 15.6484 175.289 15.6484C173.578 15.6484 172.906 16.7031 172.742 17.2734H172.672V12.7734H171.258V24ZM183.898 24.1328C185.977 24.1328 186.969 22.8438 187.094 21.9688H185.641C185.5 22.4766 184.852 22.9375 183.891 22.9375C182.523 22.9375 181.789 21.9453 181.789 20.6719V20.2578H187.203V19.2656C187.203 17.0547 185.781 15.6484 183.789 15.6484C181.82 15.6484 180.383 17.0312 180.383 19.2656V20.5156C180.383 22.7344 181.688 24.1328 183.898 24.1328ZM181.789 19.2344V19.1016C181.789 17.7344 182.594 16.8359 183.797 16.8359C185 16.8359 185.797 17.7344 185.797 19.1016V19.2344H181.789ZM72 37.1406C72 38.7578 73.2422 39.1094 74.7734 39.4219C75.9141 39.6484 76.8281 39.8203 76.8281 40.7344C76.8281 41.4453 76.2969 42.0312 75 42.0312C73.8516 42.0312 73.3438 41.5703 73.2344 40.8438H71.8516C71.8516 42.3125 73.1094 43.1328 74.9375 43.1328C76.9062 43.1328 78.2188 42.2031 78.2188 40.5703C78.2188 38.9688 76.9453 38.5391 75.4062 38.2734C74.4766 38.1016 73.3672 37.9766 73.3672 37C73.3672 36.2031 74.0547 35.7578 75.0156 35.7578C76.1172 35.7578 76.6484 36.375 76.6953 36.9453H78.0078C78.0078 35.5625 76.8359 34.6484 75.0625 34.6484C73.4609 34.6484 72 35.3984 72 37.1406ZM83.6484 43.1328C85.7266 43.1328 86.7188 41.8438 86.8438 40.9688H85.3906C85.25 41.4766 84.6016 41.9375 83.6406 41.9375C82.2734 41.9375 81.5391 40.9453 81.5391 39.6719V39.2578H86.9531V38.2656C86.9531 36.0547 85.5312 34.6484 83.5391 34.6484C81.5703 34.6484 80.1328 36.0312 80.1328 38.2656V39.5156C80.1328 41.7344 81.4375 43.1328 83.6484 43.1328ZM81.5391 38.2344V38.1016C81.5391 36.7344 82.3438 35.8359 83.5469 35.8359C84.75 35.8359 85.5469 36.7344 85.5469 38.1016V38.2344H81.5391ZM89.7578 34.8047H88.4922V35.9531H89.75V40.6953C89.75 42.3203 90.1719 43.0703 92.125 43.0703C92.4375 43.0703 93.0156 43.0312 93.1328 43V41.8672C93 41.8828 92.6875 41.9062 92.4844 41.9062C91.4844 41.9062 91.1562 41.6562 91.1562 40.6875V35.9531H93.0156V34.8047H91.1562V32.7422H89.7578V34.8047ZM102.109 34.6484C100.055 34.6484 98.5547 36.0625 98.5547 38.2812V39.4922C98.5547 41.8359 100.031 43.1328 102.109 43.1328C104.148 43.1328 105.656 41.8125 105.656 39.4922V38.2734C105.656 35.9844 104.148 34.6484 102.109 34.6484ZM102.117 35.8516C103.438 35.8516 104.234 36.8984 104.234 38.3984V39.3906C104.234 40.9141 103.477 41.9375 102.117 41.9375C100.742 41.9375 99.9688 40.9141 99.9688 39.3906V38.3984C99.9688 36.8984 100.797 35.8516 102.117 35.8516ZM108.719 43H110.133V35.9531H112.023V34.8047H110.117V34.0938C110.117 33.1172 110.531 32.8359 111.5 32.8359C111.703 32.8359 112.109 32.8516 112.234 32.8672V31.7266C112.07 31.7109 111.664 31.6797 111.297 31.6797C109.461 31.6797 108.719 32.4062 108.719 33.9844V34.8047H107.336V35.9531H108.719V43ZM120.125 43.1328C121.336 43.1328 122.078 42.5703 122.477 41.9062H122.539V43H123.898V37.3906C123.898 35.375 122.5 34.6484 120.805 34.6484C118.969 34.6484 117.875 35.4297 117.75 36.8203H119.117C119.281 36.25 119.719 35.8438 120.758 35.8438C121.812 35.8438 122.477 36.3281 122.477 37.3828V38.1953H120.328C118.438 38.1953 117.438 39.1719 117.438 40.6094C117.438 42.1328 118.531 43.1328 120.125 43.1328ZM120.516 41.9453C119.664 41.9453 118.883 41.5156 118.883 40.5625C118.883 39.8281 119.336 39.2734 120.445 39.2734H122.477V40.1875C122.477 41.1953 121.625 41.9453 120.516 41.9453ZM126.688 43H128.102V31.7734H126.688V43ZM130.984 43H132.398V31.7734H130.984V43ZM145.531 34.7812H144.117V39.9609C144.117 41.0156 143.203 41.8984 142 41.8984C141.023 41.8984 140.211 41.4688 140.211 40.1016V34.7812H138.797V40.4844C138.797 42.3906 139.961 43.1328 141.609 43.1328C143.047 43.1328 143.82 42.3047 144.055 41.6328H144.133V43H145.531V34.7812ZM148.312 43H149.727V38.4219C149.727 37 150.43 35.8828 151.875 35.8828C152.992 35.8828 153.656 36.5469 153.656 37.8359V43H155.07V37.3906C155.07 35.5469 153.938 34.6484 152.281 34.6484C150.562 34.6484 149.992 35.625 149.789 36.2734H149.711V34.7812H148.312V43ZM157.711 32.25C157.711 32.8125 158.141 33.2188 158.703 33.2188C159.297 33.2188 159.727 32.8125 159.727 32.25C159.727 31.6797 159.297 31.2734 158.703 31.2734C158.141 31.2734 157.711 31.6797 157.711 32.25ZM158.008 43H159.422V34.7812H158.008V43ZM162.852 34.8047H161.586V35.9531H162.844V40.6953C162.844 42.3203 163.266 43.0703 165.219 43.0703C165.531 43.0703 166.109 43.0312 166.227 43V41.8672C166.094 41.8828 165.781 41.9062 165.578 41.9062C164.578 41.9062 164.25 41.6562 164.25 40.6875V35.9531H166.109V34.8047H164.25V32.7422H162.852V34.8047ZM168.031 37.1406C168.031 38.7578 169.273 39.1094 170.805 39.4219C171.945 39.6484 172.859 39.8203 172.859 40.7344C172.859 41.4453 172.328 42.0312 171.031 42.0312C169.883 42.0312 169.375 41.5703 169.266 40.8438H167.883C167.883 42.3125 169.141 43.1328 170.969 43.1328C172.938 43.1328 174.25 42.2031 174.25 40.5703C174.25 38.9688 172.977 38.5391 171.438 38.2734C170.508 38.1016 169.398 37.9766 169.398 37C169.398 36.2031 170.086 35.7578 171.047 35.7578C172.148 35.7578 172.68 36.375 172.727 36.9453H174.039C174.039 35.5625 172.867 34.6484 171.094 34.6484C169.492 34.6484 168.031 35.3984 168.031 37.1406ZM183.344 34.6484C181.289 34.6484 179.789 36.0625 179.789 38.2812V39.4922C179.789 41.8359 181.266 43.1328 183.344 43.1328C185.383 43.1328 186.891 41.8125 186.891 39.4922V38.2734C186.891 35.9844 185.383 34.6484 183.344 34.6484ZM183.352 35.8516C184.672 35.8516 185.469 36.8984 185.469 38.3984V39.3906C185.469 40.9141 184.711 41.9375 183.352 41.9375C181.977 41.9375 181.203 40.9141 181.203 39.3906V38.3984C181.203 36.8984 182.031 35.8516 183.352 35.8516ZM189.953 43H191.367V35.9531H193.258V34.8047H191.352V34.0938C191.352 33.1172 191.766 32.8359 192.734 32.8359C192.938 32.8359 193.344 32.8516 193.469 32.8672V31.7266C193.305 31.7109 192.898 31.6797 192.531 31.6797C190.695 31.6797 189.953 32.4062 189.953 33.9844V34.8047H188.57V35.9531H189.953V43ZM72.2891 51.25C72.2891 51.8125 72.7188 52.2188 73.2812 52.2188C73.875 52.2188 74.3047 51.8125 74.3047 51.25C74.3047 50.6797 73.875 50.2734 73.2812 50.2734C72.7188 50.2734 72.2891 50.6797 72.2891 51.25ZM72.5859 62H74V53.7812H72.5859V62ZM76.9844 62H78.3984V57.4219C78.3984 56 79.1016 54.8828 80.5469 54.8828C81.6641 54.8828 82.3281 55.5469 82.3281 56.8359V62H83.7422V56.3906C83.7422 54.5469 82.6094 53.6484 80.9531 53.6484C79.2344 53.6484 78.6641 54.625 78.4609 55.2734H78.3828V53.7812H76.9844V62ZM86.9297 53.8047H85.6641V54.9531H86.9219V59.6953C86.9219 61.3203 87.3438 62.0703 89.2969 62.0703C89.6094 62.0703 90.1875 62.0312 90.3047 62V60.8672C90.1719 60.8828 89.8594 60.9062 89.6562 60.9062C88.6562 60.9062 88.3281 60.6562 88.3281 59.6875V54.9531H90.1875V53.8047H88.3281V51.7422H86.9297V53.8047ZM95.6172 62.1328C97.6953 62.1328 98.6875 60.8438 98.8125 59.9688H97.3594C97.2188 60.4766 96.5703 60.9375 95.6094 60.9375C94.2422 60.9375 93.5078 59.9453 93.5078 58.6719V58.2578H98.9219V57.2656C98.9219 55.0547 97.5 53.6484 95.5078 53.6484C93.5391 53.6484 92.1016 55.0312 92.1016 57.2656V58.5156C92.1016 60.7344 93.4062 62.1328 95.6172 62.1328ZM93.5078 57.2344V57.1016C93.5078 55.7344 94.3125 54.8359 95.5156 54.8359C96.7188 54.8359 97.5156 55.7344 97.5156 57.1016V57.2344H93.5078ZM101.391 62H102.812V56.9219C102.812 55.8047 103.531 54.9375 104.977 54.9375C105.227 54.9375 105.508 54.9531 105.641 54.9844V53.6953C105.477 53.6719 105.305 53.6562 105.125 53.6562C103.672 53.6562 103.078 54.5078 102.875 55.0469H102.805V53.7812H101.391V62ZM110.617 62.1328C112.695 62.1328 113.688 60.8438 113.812 59.9688H112.359C112.219 60.4766 111.57 60.9375 110.609 60.9375C109.242 60.9375 108.508 59.9453 108.508 58.6719V58.2578H113.922V57.2656C113.922 55.0547 112.5 53.6484 110.508 53.6484C108.539 53.6484 107.102 55.0312 107.102 57.2656V58.5156C107.102 60.7344 108.406 62.1328 110.617 62.1328ZM108.508 57.2344V57.1016C108.508 55.7344 109.312 54.8359 110.516 54.8359C111.719 54.8359 112.516 55.7344 112.516 57.1016V57.2344H108.508ZM115.875 56.1406C115.875 57.7578 117.117 58.1094 118.648 58.4219C119.789 58.6484 120.703 58.8203 120.703 59.7344C120.703 60.4453 120.172 61.0312 118.875 61.0312C117.727 61.0312 117.219 60.5703 117.109 59.8438H115.727C115.727 61.3125 116.984 62.1328 118.812 62.1328C120.781 62.1328 122.094 61.2031 122.094 59.5703C122.094 57.9688 120.82 57.5391 119.281 57.2734C118.352 57.1016 117.242 56.9766 117.242 56C117.242 55.2031 117.93 54.7578 118.891 54.7578C119.992 54.7578 120.523 55.375 120.57 55.9453H121.883C121.883 54.5625 120.711 53.6484 118.938 53.6484C117.336 53.6484 115.875 54.3984 115.875 56.1406ZM124.852 53.8047H123.586V54.9531H124.844V59.6953C124.844 61.3203 125.266 62.0703 127.219 62.0703C127.531 62.0703 128.109 62.0312 128.227 62V60.8672C128.094 60.8828 127.781 60.9062 127.578 60.9062C126.578 60.9062 126.25 60.6562 126.25 59.6875V54.9531H128.109V53.8047H126.25V51.7422H124.852V53.8047ZM131.133 64.7891L132.219 60.2578H130.562L129.859 64.7891H131.133ZM137.672 56.1406C137.672 57.7578 138.914 58.1094 140.445 58.4219C141.586 58.6484 142.5 58.8203 142.5 59.7344C142.5 60.4453 141.969 61.0312 140.672 61.0312C139.523 61.0312 139.016 60.5703 138.906 59.8438H137.523C137.523 61.3125 138.781 62.1328 140.609 62.1328C142.578 62.1328 143.891 61.2031 143.891 59.5703C143.891 57.9688 142.617 57.5391 141.078 57.2734C140.148 57.1016 139.039 56.9766 139.039 56C139.039 55.2031 139.727 54.7578 140.688 54.7578C141.789 54.7578 142.32 55.375 142.367 55.9453H143.68C143.68 54.5625 142.508 53.6484 140.734 53.6484C139.133 53.6484 137.672 54.3984 137.672 56.1406ZM146.102 51.25C146.102 51.8125 146.531 52.2188 147.094 52.2188C147.688 52.2188 148.117 51.8125 148.117 51.25C148.117 50.6797 147.688 50.2734 147.094 50.2734C146.531 50.2734 146.102 50.6797 146.102 51.25ZM146.398 62H147.812V53.7812H146.398V62ZM150.352 62H156.5V60.7891H152.133V60.7188L156.453 54.7422V53.7812H150.336V54.9922H154.695V55.0703L150.352 61.0625V62ZM161.914 62.1328C163.992 62.1328 164.984 60.8438 165.109 59.9688H163.656C163.516 60.4766 162.867 60.9375 161.906 60.9375C160.539 60.9375 159.805 59.9453 159.805 58.6719V58.2578H165.219V57.2656C165.219 55.0547 163.797 53.6484 161.805 53.6484C159.836 53.6484 158.398 55.0312 158.398 57.2656V58.5156C158.398 60.7344 159.703 62.1328 161.914 62.1328ZM159.805 57.2344V57.1016C159.805 55.7344 160.609 54.8359 161.812 54.8359C163.016 54.8359 163.812 55.7344 163.812 57.1016V57.2344H159.805ZM172.688 62V53.7891H172.742L178.031 62H179.391V51.3359H177.977V59.5391H177.906L172.633 51.3359H171.273V62H172.688Z" fill="black"/>
<path d="M296.664 11.9531C296.727 13.625 297.938 15.1953 300.953 15.1953C303.828 15.1953 305.336 13.7734 305.336 11.75C305.336 9.80469 304.039 9 302.414 8.67969L300.867 8.35938C299.961 8.1875 299.438 7.83594 299.438 7.26562C299.438 6.58594 300 6.07031 301.031 6.07031C302.094 6.07031 302.688 6.64844 302.773 7.28125H305.148C305.086 5.63281 303.703 4.13281 301.039 4.13281C298.57 4.13281 296.883 5.40625 296.883 7.45312C296.883 9.21875 298.023 10.1328 299.719 10.4844L301.227 10.8125C302.273 11.0391 302.805 11.3438 302.805 12.0078C302.805 12.7109 302.242 13.2344 301.055 13.2344C299.891 13.2344 299.195 12.6562 299.109 11.9531H296.664ZM309.578 15.125C310.805 15.125 311.477 14.5469 311.758 13.9766H311.875V15H314.211V9.45312C314.211 7.29688 312.617 6.53125 310.641 6.53125C308.078 6.53125 307.188 7.83594 307.125 9.17969H309.461C309.523 8.70312 309.891 8.35156 310.602 8.35156C311.305 8.35156 311.758 8.69531 311.758 9.375V10.0703H309.812C307.875 10.0703 306.82 11.0625 306.82 12.5781C306.82 14.1719 307.945 15.125 309.578 15.125ZM310.438 13.3828C309.836 13.3828 309.273 13.0469 309.273 12.3906C309.273 11.8281 309.688 11.4375 310.469 11.4375H311.758V12.25C311.758 12.9141 311.141 13.3828 310.438 13.3828ZM316.375 15H318.867V10.0625C318.867 9.01562 319.422 8.54688 320.125 8.54688C320.781 8.54688 321.367 8.9375 321.367 10.0234V15H323.742V10.0781C323.742 9.0625 324.297 8.54688 325.016 8.54688C325.703 8.54688 326.25 8.94531 326.25 10V15H328.734V9.21094C328.734 7.59375 327.766 6.53125 326.094 6.53125C324.648 6.53125 323.82 7.35938 323.57 8.10156H323.469C323.227 7.19531 322.461 6.53125 321.203 6.53125C319.711 6.53125 319.094 7.42969 318.914 8.07031H318.797V6.65625H316.375V15ZM335.898 15.0938C337.828 15.0938 338.969 13.6797 338.969 11.2891V10.3594C338.969 7.96875 337.836 6.5625 335.914 6.5625C334.758 6.5625 333.859 7.09375 333.523 7.97656H333.398V6.65625H330.93V17.7656H333.422V13.7031H333.547C333.906 14.5859 334.766 15.0938 335.898 15.0938ZM334.93 13.1719C334.016 13.1719 333.422 12.4297 333.422 11.2812V10.4453C333.422 9.23438 333.992 8.5 334.914 8.5C335.859 8.5 336.398 9.23438 336.398 10.5234V11.1406C336.398 12.4219 335.859 13.1719 334.93 13.1719ZM340.914 15H343.406V3.77344H340.914V15ZM345.586 4.27344C345.586 5.02344 346.188 5.51562 347.07 5.51562C347.969 5.51562 348.555 5.02344 348.555 4.27344C348.555 3.51562 347.961 3.01562 347.07 3.01562C346.18 3.01562 345.586 3.51562 345.586 4.27344ZM345.828 15H348.32V6.65625H345.828V15ZM350.672 15H353.164V10.3906C353.164 9.26562 353.758 8.59375 354.625 8.59375C355.297 8.59375 355.93 8.96875 355.93 10.1484V15H358.422V9.48438C358.422 7.50781 357.336 6.53125 355.664 6.53125C354.102 6.53125 353.422 7.46094 353.211 8.10156H353.094V6.65625H350.672V15ZM364.211 16.2969C363.453 16.2969 362.906 16.0234 362.789 15.5234H360.422C360.469 16.8438 361.594 18.0469 364.148 18.0469C366.133 18.0469 368.258 17.3125 368.258 14.8906V6.65625H365.789V7.95312H365.672C365.391 7.17188 364.531 6.5625 363.32 6.5625C361.492 6.5625 360.25 7.90625 360.25 10.3828V11.0312C360.25 13.5078 361.5 14.8438 363.32 14.8438C364.516 14.8438 365.344 14.2734 365.641 13.5312H365.766V14.6875C365.766 15.7109 365.266 16.2969 364.211 16.2969ZM364.312 8.5C365.195 8.5 365.766 9.25 365.766 10.4062V11.1641C365.766 12.3125 365.211 13.0625 364.32 13.0625C363.438 13.0625 362.812 12.3438 362.812 11.0625V10.4922C362.812 9.21875 363.406 8.5 364.312 8.5ZM374.695 15H377.164V8.64844H378.938V6.78125H377.102V6.17188C377.102 5.53906 377.453 5.30469 378.234 5.30469C378.492 5.30469 378.875 5.32812 379.023 5.35156V3.66406C378.727 3.61719 378.164 3.58594 377.711 3.58594C375.531 3.58594 374.695 4.26562 374.695 5.96094V6.78125H373.352V8.64844H374.695V15ZM380.773 15H383.336V10.4766C383.336 9.35938 383.914 8.625 385.195 8.625C385.562 8.625 385.938 8.66406 386.109 8.72656V6.60938C385.953 6.5625 385.711 6.53906 385.359 6.53906C384.148 6.53906 383.531 7.40625 383.383 7.97656H383.266V6.65625H380.773V15ZM389.891 15.125C391.117 15.125 391.789 14.5469 392.07 13.9766H392.188V15H394.523V9.45312C394.523 7.29688 392.93 6.53125 390.953 6.53125C388.391 6.53125 387.5 7.83594 387.438 9.17969H389.773C389.836 8.70312 390.203 8.35156 390.914 8.35156C391.617 8.35156 392.07 8.69531 392.07 9.375V10.0703H390.125C388.188 10.0703 387.133 11.0625 387.133 12.5781C387.133 14.1719 388.258 15.125 389.891 15.125ZM390.75 13.3828C390.148 13.3828 389.586 13.0469 389.586 12.3906C389.586 11.8281 390 11.4375 390.781 11.4375H392.07V12.25C392.07 12.9141 391.453 13.3828 390.75 13.3828ZM396.688 15H399.18V10.0625C399.18 9.01562 399.734 8.54688 400.438 8.54688C401.094 8.54688 401.68 8.9375 401.68 10.0234V15H404.055V10.0781C404.055 9.0625 404.609 8.54688 405.328 8.54688C406.016 8.54688 406.562 8.94531 406.562 10V15H409.047V9.21094C409.047 7.59375 408.078 6.53125 406.406 6.53125C404.961 6.53125 404.133 7.35938 403.883 8.10156H403.781C403.539 7.19531 402.773 6.53125 401.516 6.53125C400.023 6.53125 399.406 7.42969 399.227 8.07031H399.109V6.65625H396.688V15ZM414.836 15.1562C417.391 15.1562 418.438 13.5547 418.492 12.4219H416.211C416.148 12.9453 415.578 13.3125 414.828 13.3125C413.945 13.3125 413.297 12.6953 413.297 11.7266V11.3438H418.547V10.4219C418.547 7.99219 416.984 6.50781 414.727 6.50781C412.602 6.50781 410.875 7.8125 410.875 10.4219V11.2188C410.875 13.8203 412.469 15.1562 414.836 15.1562ZM413.297 9.94531V9.89062C413.297 8.92969 413.891 8.28906 414.75 8.28906C415.609 8.28906 416.164 8.92969 416.164 9.89062V9.94531H413.297ZM420.289 8.65625C420.289 9.5625 420.977 10.1094 421.82 10.1094C422.68 10.1094 423.359 9.5625 423.359 8.65625C423.359 7.75781 422.688 7.17969 421.82 7.17969C420.969 7.17969 420.289 7.74219 420.289 8.65625ZM420.289 13.7109C420.289 14.6172 420.977 15.1641 421.82 15.1641C422.68 15.1641 423.359 14.6172 423.359 13.7109C423.359 12.8047 422.688 12.2344 421.82 12.2344C420.969 12.2344 420.289 12.7891 420.289 13.7109Z" fill="#2C7CF6"/>
<path d="M429.852 6.80469H428.586V7.95312H429.844V12.6953C429.844 14.3203 430.266 15.0703 432.219 15.0703C432.531 15.0703 433.109 15.0312 433.227 15V13.8672C433.094 13.8828 432.781 13.9062 432.578 13.9062C431.578 13.9062 431.25 13.6562 431.25 12.6875V7.95312H433.109V6.80469H431.25V4.74219H429.852V6.80469ZM435.445 15H436.859V10.4219C436.859 8.99219 437.594 7.88281 439 7.88281C440.109 7.88281 440.82 8.55469 440.82 9.85156V15H442.234V9.40625C442.234 7.5625 441.062 6.64844 439.477 6.64844C437.766 6.64844 437.094 7.70312 436.93 8.27344H436.859V3.77344H435.445V15ZM448.086 15.1328C450.164 15.1328 451.156 13.8438 451.281 12.9688H449.828C449.688 13.4766 449.039 13.9375 448.078 13.9375C446.711 13.9375 445.977 12.9453 445.977 11.6719V11.2578H451.391V10.2656C451.391 8.05469 449.969 6.64844 447.977 6.64844C446.008 6.64844 444.57 8.03125 444.57 10.2656V11.5156C444.57 13.7344 445.875 15.1328 448.086 15.1328ZM445.977 10.2344V10.1016C445.977 8.73438 446.781 7.83594 447.984 7.83594C449.188 7.83594 449.984 8.73438 449.984 10.1016V10.2344H445.977ZM297 28.1406C297 29.7578 298.242 30.1094 299.773 30.4219C300.914 30.6484 301.828 30.8203 301.828 31.7344C301.828 32.4453 301.297 33.0312 300 33.0312C298.852 33.0312 298.344 32.5703 298.234 31.8438H296.852C296.852 33.3125 298.109 34.1328 299.938 34.1328C301.906 34.1328 303.219 33.2031 303.219 31.5703C303.219 29.9688 301.945 29.5391 300.406 29.2734C299.477 29.1016 298.367 28.9766 298.367 28C298.367 27.2031 299.055 26.7578 300.016 26.7578C301.117 26.7578 301.648 27.375 301.695 27.9453H303.008C303.008 26.5625 301.836 25.6484 300.062 25.6484C298.461 25.6484 297 26.3984 297 28.1406ZM308.648 34.1328C310.727 34.1328 311.719 32.8438 311.844 31.9688H310.391C310.25 32.4766 309.602 32.9375 308.641 32.9375C307.273 32.9375 306.539 31.9453 306.539 30.6719V30.2578H311.953V29.2656C311.953 27.0547 310.531 25.6484 308.539 25.6484C306.57 25.6484 305.133 27.0312 305.133 29.2656V30.5156C305.133 32.7344 306.438 34.1328 308.648 34.1328ZM306.539 29.2344V29.1016C306.539 27.7344 307.344 26.8359 308.547 26.8359C309.75 26.8359 310.547 27.7344 310.547 29.1016V29.2344H306.539ZM314.758 25.8047H313.492V26.9531H314.75V31.6953C314.75 33.3203 315.172 34.0703 317.125 34.0703C317.438 34.0703 318.016 34.0312 318.133 34V32.8672C318 32.8828 317.688 32.9062 317.484 32.9062C316.484 32.9062 316.156 32.6562 316.156 31.6875V26.9531H318.016V25.8047H316.156V23.7422H314.758V25.8047ZM327.109 25.6484C325.055 25.6484 323.555 27.0625 323.555 29.2812V30.4922C323.555 32.8359 325.031 34.1328 327.109 34.1328C329.148 34.1328 330.656 32.8125 330.656 30.4922V29.2734C330.656 26.9844 329.148 25.6484 327.109 25.6484ZM327.117 26.8516C328.438 26.8516 329.234 27.8984 329.234 29.3984V30.3906C329.234 31.9141 328.477 32.9375 327.117 32.9375C325.742 32.9375 324.969 31.9141 324.969 30.3906V29.3984C324.969 27.8984 325.797 26.8516 327.117 26.8516ZM333.719 34H335.133V26.9531H337.023V25.8047H335.117V25.0938C335.117 24.1172 335.531 23.8359 336.5 23.8359C336.703 23.8359 337.109 23.8516 337.234 23.8672V22.7266C337.07 22.7109 336.664 22.6797 336.297 22.6797C334.461 22.6797 333.719 23.4062 333.719 24.9844V25.8047H332.336V26.9531H333.719V34ZM345.125 34.1328C346.336 34.1328 347.078 33.5703 347.477 32.9062H347.539V34H348.898V28.3906C348.898 26.375 347.5 25.6484 345.805 25.6484C343.969 25.6484 342.875 26.4297 342.75 27.8203H344.117C344.281 27.25 344.719 26.8438 345.758 26.8438C346.812 26.8438 347.477 27.3281 347.477 28.3828V29.1953H345.328C343.438 29.1953 342.438 30.1719 342.438 31.6094C342.438 33.1328 343.531 34.1328 345.125 34.1328ZM345.516 32.9453C344.664 32.9453 343.883 32.5156 343.883 31.5625C343.883 30.8281 344.336 30.2734 345.445 30.2734H347.477V31.1875C347.477 32.1953 346.625 32.9453 345.516 32.9453ZM351.688 34H353.102V22.7734H351.688V34ZM355.984 34H357.398V22.7734H355.984V34ZM367.711 34.125C369.672 34.125 370.898 32.7734 370.898 30.5938V29.1797C370.898 27.0156 369.688 25.6562 367.758 25.6562C366.578 25.6562 365.633 26.2031 365.297 27.0859H365.227V25.7734H363.867V36.7266H365.281V32.7812H365.352C365.734 33.6484 366.578 34.125 367.711 34.125ZM367.422 32.9141C366.156 32.9141 365.281 32.0078 365.281 30.6875V29.2578C365.281 27.7734 366.086 26.8672 367.383 26.8672C368.719 26.8672 369.477 27.8125 369.477 29.4609V30.3359C369.477 31.9766 368.719 32.9141 367.422 32.9141ZM376.453 25.6484C374.398 25.6484 372.898 27.0625 372.898 29.2812V30.4922C372.898 32.8359 374.375 34.1328 376.453 34.1328C378.492 34.1328 380 32.8125 380 30.4922V29.2734C380 26.9844 378.492 25.6484 376.453 25.6484ZM376.461 26.8516C377.781 26.8516 378.578 27.8984 378.578 29.3984V30.3906C378.578 31.9141 377.82 32.9375 376.461 32.9375C375.086 32.9375 374.312 31.9141 374.312 30.3906V29.3984C374.312 27.8984 375.141 26.8516 376.461 26.8516ZM381.984 28.1406C381.984 29.7578 383.227 30.1094 384.758 30.4219C385.898 30.6484 386.812 30.8203 386.812 31.7344C386.812 32.4453 386.281 33.0312 384.984 33.0312C383.836 33.0312 383.328 32.5703 383.219 31.8438H381.836C381.836 33.3125 383.094 34.1328 384.922 34.1328C386.891 34.1328 388.203 33.2031 388.203 31.5703C388.203 29.9688 386.93 29.5391 385.391 29.2734C384.461 29.1016 383.352 28.9766 383.352 28C383.352 27.2031 384.039 26.7578 385 26.7578C386.102 26.7578 386.633 27.375 386.68 27.9453H387.992C387.992 26.5625 386.82 25.6484 385.047 25.6484C383.445 25.6484 381.984 26.3984 381.984 28.1406ZM390.125 28.1406C390.125 29.7578 391.367 30.1094 392.898 30.4219C394.039 30.6484 394.953 30.8203 394.953 31.7344C394.953 32.4453 394.422 33.0312 393.125 33.0312C391.977 33.0312 391.469 32.5703 391.359 31.8438H389.977C389.977 33.3125 391.234 34.1328 393.062 34.1328C395.031 34.1328 396.344 33.2031 396.344 31.5703C396.344 29.9688 395.07 29.5391 393.531 29.2734C392.602 29.1016 391.492 28.9766 391.492 28C391.492 27.2031 392.18 26.7578 393.141 26.7578C394.242 26.7578 394.773 27.375 394.82 27.9453H396.133C396.133 26.5625 394.961 25.6484 393.188 25.6484C391.586 25.6484 390.125 26.3984 390.125 28.1406ZM398.555 23.25C398.555 23.8125 398.984 24.2188 399.547 24.2188C400.141 24.2188 400.57 23.8125 400.57 23.25C400.57 22.6797 400.141 22.2734 399.547 22.2734C398.984 22.2734 398.555 22.6797 398.555 23.25ZM398.852 34H400.266V25.7812H398.852V34ZM407.125 34.125C409.086 34.125 410.312 32.7734 410.312 30.5938V29.1797C410.312 27.0078 409.102 25.6562 407.164 25.6562C405.977 25.6562 405 26.2266 404.742 27.0859H404.672V22.7734H403.258V34H404.617V32.7812H404.688C405.055 33.625 405.969 34.125 407.125 34.125ZM406.852 32.9141C405.586 32.9141 404.672 31.9766 404.672 30.6484V29.2969C404.672 27.8047 405.5 26.8672 406.812 26.8672C408.133 26.8672 408.891 27.8203 408.891 29.4766V30.3516C408.891 31.9766 408.141 32.9141 406.852 32.9141ZM412.75 34H414.164V22.7734H412.75V34ZM420.117 34.1328C422.195 34.1328 423.188 32.8438 423.312 31.9688H421.859C421.719 32.4766 421.07 32.9375 420.109 32.9375C418.742 32.9375 418.008 31.9453 418.008 30.6719V30.2578H423.422V29.2656C423.422 27.0547 422 25.6484 420.008 25.6484C418.039 25.6484 416.602 27.0312 416.602 29.2656V30.5156C416.602 32.7344 417.906 34.1328 420.117 34.1328ZM418.008 29.2344V29.1016C418.008 27.7344 418.812 26.8359 420.016 26.8359C421.219 26.8359 422.016 27.7344 422.016 29.1016V29.2344H418.008ZM304.062 44.7812H302.648V49.9609C302.648 51.0156 301.734 51.8984 300.531 51.8984C299.555 51.8984 298.742 51.4688 298.742 50.1016V44.7812H297.328V50.4844C297.328 52.3906 298.492 53.1328 300.141 53.1328C301.578 53.1328 302.352 52.3047 302.586 51.6328H302.664V53H304.062V44.7812ZM306.844 53H308.258V48.4219C308.258 47 308.961 45.8828 310.406 45.8828C311.523 45.8828 312.188 46.5469 312.188 47.8359V53H313.602V47.3906C313.602 45.5469 312.469 44.6484 310.812 44.6484C309.094 44.6484 308.523 45.625 308.32 46.2734H308.242V44.7812H306.844V53ZM316.242 42.25C316.242 42.8125 316.672 43.2188 317.234 43.2188C317.828 43.2188 318.258 42.8125 318.258 42.25C318.258 41.6797 317.828 41.2734 317.234 41.2734C316.672 41.2734 316.242 41.6797 316.242 42.25ZM316.539 53H317.953V44.7812H316.539V53ZM321.383 44.8047H320.117V45.9531H321.375V50.6953C321.375 52.3203 321.797 53.0703 323.75 53.0703C324.062 53.0703 324.641 53.0312 324.758 53V51.8672C324.625 51.8828 324.312 51.9062 324.109 51.9062C323.109 51.9062 322.781 51.6562 322.781 50.6875V45.9531H324.641V44.8047H322.781V42.7422H321.383V44.8047ZM326.562 47.1406C326.562 48.7578 327.805 49.1094 329.336 49.4219C330.477 49.6484 331.391 49.8203 331.391 50.7344C331.391 51.4453 330.859 52.0312 329.562 52.0312C328.414 52.0312 327.906 51.5703 327.797 50.8438H326.414C326.414 52.3125 327.672 53.1328 329.5 53.1328C331.469 53.1328 332.781 52.2031 332.781 50.5703C332.781 48.9688 331.508 48.5391 329.969 48.2734C329.039 48.1016 327.93 47.9766 327.93 47C327.93 46.2031 328.617 45.7578 329.578 45.7578C330.68 45.7578 331.211 46.375 331.258 46.9453H332.57C332.57 45.5625 331.398 44.6484 329.625 44.6484C328.023 44.6484 326.562 45.3984 326.562 47.1406ZM339.18 44.8047H337.914V45.9531H339.172V50.6953C339.172 52.3203 339.594 53.0703 341.547 53.0703C341.859 53.0703 342.438 53.0312 342.555 53V51.8672C342.422 51.8828 342.109 51.9062 341.906 51.9062C340.906 51.9062 340.578 51.6562 340.578 50.6875V45.9531H342.438V44.8047H340.578V42.7422H339.18V44.8047ZM344.773 53H346.188V48.4219C346.188 46.9922 346.922 45.8828 348.328 45.8828C349.438 45.8828 350.148 46.5547 350.148 47.8516V53H351.562V47.4062C351.562 45.5625 350.391 44.6484 348.805 44.6484C347.094 44.6484 346.422 45.7031 346.258 46.2734H346.188V41.7734H344.773V53ZM356.516 53.1328C357.727 53.1328 358.469 52.5703 358.867 51.9062H358.93V53H360.289V47.3906C360.289 45.375 358.891 44.6484 357.195 44.6484C355.359 44.6484 354.266 45.4297 354.141 46.8203H355.508C355.672 46.25 356.109 45.8438 357.148 45.8438C358.203 45.8438 358.867 46.3281 358.867 47.3828V48.1953H356.719C354.828 48.1953 353.828 49.1719 353.828 50.6094C353.828 52.1328 354.922 53.1328 356.516 53.1328ZM356.906 51.9453C356.055 51.9453 355.273 51.5156 355.273 50.5625C355.273 49.8281 355.727 49.2734 356.836 49.2734H358.867V50.1875C358.867 51.1953 358.016 51.9453 356.906 51.9453ZM363.477 44.8047H362.211V45.9531H363.469V50.6953C363.469 52.3203 363.891 53.0703 365.844 53.0703C366.156 53.0703 366.734 53.0312 366.852 53V51.8672C366.719 51.8828 366.406 51.9062 366.203 51.9062C365.203 51.9062 364.875 51.6562 364.875 50.6875V45.9531H366.734V44.8047H364.875V42.7422H363.477V44.8047ZM372.273 49.5469C372.273 51.75 373.586 53.1328 375.703 53.1328C377.875 53.1328 378.867 51.9297 378.914 50.7188H377.539C377.391 51.3438 376.938 51.8984 375.727 51.8984C374.461 51.8984 373.688 50.9922 373.688 49.5625V48.25C373.688 46.8125 374.383 45.8828 375.727 45.8828C377.008 45.8828 377.391 46.6719 377.477 47.1562H378.859C378.82 45.9141 377.758 44.6484 375.703 44.6484C373.594 44.6484 372.273 46.0469 372.273 48.2031V49.5469ZM383.375 53.1328C384.586 53.1328 385.328 52.5703 385.727 51.9062H385.789V53H387.148V47.3906C387.148 45.375 385.75 44.6484 384.055 44.6484C382.219 44.6484 381.125 45.4297 381 46.8203H382.367C382.531 46.25 382.969 45.8438 384.008 45.8438C385.062 45.8438 385.727 46.3281 385.727 47.3828V48.1953H383.578C381.688 48.1953 380.688 49.1719 380.688 50.6094C380.688 52.1328 381.781 53.1328 383.375 53.1328ZM383.766 51.9453C382.914 51.9453 382.133 51.5156 382.133 50.5625C382.133 49.8281 382.586 49.2734 383.695 49.2734H385.727V50.1875C385.727 51.1953 384.875 51.9453 383.766 51.9453ZM389.891 53H391.305V48.4219C391.305 47 392.008 45.8828 393.453 45.8828C394.57 45.8828 395.234 46.5469 395.234 47.8359V53H396.648V47.3906C396.648 45.5469 395.516 44.6484 393.859 44.6484C392.141 44.6484 391.57 45.625 391.367 46.2734H391.289V44.7812H389.891V53ZM406.891 53.125C408.852 53.125 410.078 51.7734 410.078 49.5938V48.1797C410.078 46.0078 408.867 44.6562 406.93 44.6562C405.742 44.6562 404.766 45.2266 404.508 46.0859H404.438V41.7734H403.023V53H404.383V51.7812H404.453C404.82 52.625 405.734 53.125 406.891 53.125ZM406.617 51.9141C405.352 51.9141 404.438 50.9766 404.438 49.6484V48.2969C404.438 46.8047 405.266 45.8672 406.578 45.8672C407.898 45.8672 408.656 46.8203 408.656 48.4766V49.3516C408.656 50.9766 407.906 51.9141 406.617 51.9141ZM415.586 53.1328C417.664 53.1328 418.656 51.8438 418.781 50.9688H417.328C417.188 51.4766 416.539 51.9375 415.578 51.9375C414.211 51.9375 413.477 50.9453 413.477 49.6719V49.2578H418.891V48.2656C418.891 46.0547 417.469 44.6484 415.477 44.6484C413.508 44.6484 412.07 46.0312 412.07 48.2656V49.5156C412.07 51.7344 413.375 53.1328 415.586 53.1328ZM413.477 48.2344V48.1016C413.477 46.7344 414.281 45.8359 415.484 45.8359C416.688 45.8359 417.484 46.7344 417.484 48.1016V48.2344H413.477ZM300.18 63.6562C298.266 63.6562 296.992 65 296.992 67.0938V68.6875C296.992 70.7812 298.234 72.1172 300.148 72.1172C301.352 72.1172 302.375 71.5234 302.617 70.6875H302.688V72H304.047V60.7734H302.633V65H302.562C302.234 64.1641 301.336 63.6562 300.18 63.6562ZM300.469 64.8672C301.719 64.8672 302.633 65.7891 302.633 67.0938V68.5156C302.633 69.9922 301.797 70.9062 300.508 70.9062C299.203 70.9062 298.414 69.9766 298.414 68.3828V67.3828C298.414 65.8047 299.188 64.8672 300.469 64.8672ZM306.984 72H308.406V66.9219C308.406 65.8047 309.125 64.9375 310.57 64.9375C310.82 64.9375 311.102 64.9531 311.234 64.9844V63.6953C311.07 63.6719 310.898 63.6562 310.719 63.6562C309.266 63.6562 308.672 64.5078 308.469 65.0469H308.398V63.7812H306.984V72ZM315.328 72.1328C316.539 72.1328 317.281 71.5703 317.68 70.9062H317.742V72H319.102V66.3906C319.102 64.375 317.703 63.6484 316.008 63.6484C314.172 63.6484 313.078 64.4297 312.953 65.8203H314.32C314.484 65.25 314.922 64.8438 315.961 64.8438C317.016 64.8438 317.68 65.3281 317.68 66.3828V67.1953H315.531C313.641 67.1953 312.641 68.1719 312.641 69.6094C312.641 71.1328 313.734 72.1328 315.328 72.1328ZM315.719 70.9453C314.867 70.9453 314.086 70.5156 314.086 69.5625C314.086 68.8281 314.539 68.2734 315.648 68.2734H317.68V69.1875C317.68 70.1953 316.828 70.9453 315.719 70.9453ZM331.891 63.7812H330.477L328.992 70.2422H328.938L327.086 63.7812H325.758L323.961 70.2422H323.906L322.453 63.7812H320.883L323.188 72H324.602L326.406 65.7109H326.445L328.297 72H329.703L331.891 63.7812ZM333.734 72H335.148V67.4219C335.148 66 335.852 64.8828 337.297 64.8828C338.414 64.8828 339.078 65.5469 339.078 66.8359V72H340.492V66.3906C340.492 64.5469 339.359 63.6484 337.703 63.6484C335.984 63.6484 335.414 64.625 335.211 65.2734H335.133V63.7812H333.734V72ZM346.758 61.25C346.758 61.8125 347.188 62.2188 347.75 62.2188C348.344 62.2188 348.773 61.8125 348.773 61.25C348.773 60.6797 348.344 60.2734 347.75 60.2734C347.188 60.2734 346.758 60.6797 346.758 61.25ZM347.055 72H348.469V63.7812H347.055V72ZM351.453 72H352.867V67.4219C352.867 66 353.57 64.8828 355.016 64.8828C356.133 64.8828 356.797 65.5469 356.797 66.8359V72H358.211V66.3906C358.211 64.5469 357.078 63.6484 355.422 63.6484C353.703 63.6484 353.133 64.625 352.93 65.2734H352.852V63.7812H351.453V72ZM361.398 63.8047H360.133V64.9531H361.391V69.6953C361.391 71.3203 361.812 72.0703 363.766 72.0703C364.078 72.0703 364.656 72.0312 364.773 72V70.8672C364.641 70.8828 364.328 70.9062 364.125 70.9062C363.125 70.9062 362.797 70.6562 362.797 69.6875V64.9531H364.656V63.8047H362.797V61.7422H361.398V63.8047ZM370.125 63.6484C368.07 63.6484 366.57 65.0625 366.57 67.2812V68.4922C366.57 70.8359 368.047 72.1328 370.125 72.1328C372.164 72.1328 373.672 70.8125 373.672 68.4922V67.2734C373.672 64.9844 372.164 63.6484 370.125 63.6484ZM370.133 64.8516C371.453 64.8516 372.25 65.8984 372.25 67.3984V68.3906C372.25 69.9141 371.492 70.9375 370.133 70.9375C368.758 70.9375 367.984 69.9141 367.984 68.3906V67.3984C367.984 65.8984 368.812 64.8516 370.133 64.8516ZM379.281 66.1406C379.281 67.7578 380.523 68.1094 382.055 68.4219C383.195 68.6484 384.109 68.8203 384.109 69.7344C384.109 70.4453 383.578 71.0312 382.281 71.0312C381.133 71.0312 380.625 70.5703 380.516 69.8438H379.133C379.133 71.3125 380.391 72.1328 382.219 72.1328C384.188 72.1328 385.5 71.2031 385.5 69.5703C385.5 67.9688 384.227 67.5391 382.688 67.2734C381.758 67.1016 380.648 66.9766 380.648 66C380.648 65.2031 381.336 64.7578 382.297 64.7578C383.398 64.7578 383.93 65.375 383.977 65.9453H385.289C385.289 64.5625 384.117 63.6484 382.344 63.6484C380.742 63.6484 379.281 64.3984 379.281 66.1406ZM390.031 72.1328C391.242 72.1328 391.984 71.5703 392.383 70.9062H392.445V72H393.805V66.3906C393.805 64.375 392.406 63.6484 390.711 63.6484C388.875 63.6484 387.781 64.4297 387.656 65.8203H389.023C389.188 65.25 389.625 64.8438 390.664 64.8438C391.719 64.8438 392.383 65.3281 392.383 66.3828V67.1953H390.234C388.344 67.1953 387.344 68.1719 387.344 69.6094C387.344 71.1328 388.438 72.1328 390.031 72.1328ZM390.422 70.9453C389.57 70.9453 388.789 70.5156 388.789 69.5625C388.789 68.8281 389.242 68.2734 390.352 68.2734H392.383V69.1875C392.383 70.1953 391.531 70.9453 390.422 70.9453ZM396.547 72H397.961V66.7734C397.961 65.6484 398.703 64.875 399.734 64.875C400.812 64.875 401.477 65.6016 401.477 66.6719V72H402.875V66.7891C402.875 65.6641 403.664 64.875 404.688 64.875C405.797 64.875 406.391 65.5625 406.391 66.6172V72H407.805V66.2188C407.805 64.5703 406.781 63.6484 405.102 63.6484C403.711 63.6484 402.93 64.3906 402.594 65.1953H402.531C402.273 64.3125 401.492 63.6484 400.25 63.6484C398.734 63.6484 398.211 64.5078 398.023 65.0938H397.945V63.7812H396.547V72ZM414.398 72.125C416.359 72.125 417.586 70.7734 417.586 68.5938V67.1797C417.586 65.0156 416.375 63.6562 414.445 63.6562C413.266 63.6562 412.32 64.2031 411.984 65.0859H411.914V63.7734H410.555V74.7266H411.969V70.7812H412.039C412.422 71.6484 413.266 72.125 414.398 72.125ZM414.109 70.9141C412.844 70.9141 411.969 70.0078 411.969 68.6875V67.2578C411.969 65.7734 412.773 64.8672 414.07 64.8672C415.406 64.8672 416.164 65.8125 416.164 67.4609V68.3359C416.164 69.9766 415.406 70.9141 414.109 70.9141ZM420.031 72H421.445V60.7734H420.031V72ZM427.398 72.1328C429.477 72.1328 430.469 70.8438 430.594 69.9688H429.141C429 70.4766 428.352 70.9375 427.391 70.9375C426.023 70.9375 425.289 69.9453 425.289 68.6719V68.2578H430.703V67.2656C430.703 65.0547 429.281 63.6484 427.289 63.6484C425.32 63.6484 423.883 65.0312 423.883 67.2656V68.5156C423.883 70.7344 425.188 72.1328 427.398 72.1328ZM425.289 67.2344V67.1016C425.289 65.7344 426.094 64.8359 427.297 64.8359C428.5 64.8359 429.297 65.7344 429.297 67.1016V67.2344H425.289Z" fill="black"/>
<path d="M550.664 20.9531C550.727 22.625 551.938 24.1953 554.953 24.1953C557.828 24.1953 559.336 22.7734 559.336 20.75C559.336 18.8047 558.039 18 556.414 17.6797L554.867 17.3594C553.961 17.1875 553.438 16.8359 553.438 16.2656C553.438 15.5859 554 15.0703 555.031 15.0703C556.094 15.0703 556.688 15.6484 556.773 16.2812H559.148C559.086 14.6328 557.703 13.1328 555.039 13.1328C552.57 13.1328 550.883 14.4062 550.883 16.4531C550.883 18.2188 552.023 19.1328 553.719 19.4844L555.227 19.8125C556.273 20.0391 556.805 20.3438 556.805 21.0078C556.805 21.7109 556.242 22.2344 555.055 22.2344C553.891 22.2344 553.195 21.6562 553.109 20.9531H550.664ZM563.578 24.125C564.805 24.125 565.477 23.5469 565.758 22.9766H565.875V24H568.211V18.4531C568.211 16.2969 566.617 15.5312 564.641 15.5312C562.078 15.5312 561.188 16.8359 561.125 18.1797H563.461C563.523 17.7031 563.891 17.3516 564.602 17.3516C565.305 17.3516 565.758 17.6953 565.758 18.375V19.0703H563.812C561.875 19.0703 560.82 20.0625 560.82 21.5781C560.82 23.1719 561.945 24.125 563.578 24.125ZM564.438 22.3828C563.836 22.3828 563.273 22.0469 563.273 21.3906C563.273 20.8281 563.688 20.4375 564.469 20.4375H565.758V21.25C565.758 21.9141 565.141 22.3828 564.438 22.3828ZM570.375 24H572.867V19.0625C572.867 18.0156 573.422 17.5469 574.125 17.5469C574.781 17.5469 575.367 17.9375 575.367 19.0234V24H577.742V19.0781C577.742 18.0625 578.297 17.5469 579.016 17.5469C579.703 17.5469 580.25 17.9453 580.25 19V24H582.734V18.2109C582.734 16.5938 581.766 15.5312 580.094 15.5312C578.648 15.5312 577.82 16.3594 577.57 17.1016H577.469C577.227 16.1953 576.461 15.5312 575.203 15.5312C573.711 15.5312 573.094 16.4297 572.914 17.0703H572.797V15.6562H570.375V24ZM589.898 24.0938C591.828 24.0938 592.969 22.6797 592.969 20.2891V19.3594C592.969 16.9688 591.836 15.5625 589.914 15.5625C588.758 15.5625 587.859 16.0938 587.523 16.9766H587.398V15.6562H584.93V26.7656H587.422V22.7031H587.547C587.906 23.5859 588.766 24.0938 589.898 24.0938ZM588.93 22.1719C588.016 22.1719 587.422 21.4297 587.422 20.2812V19.4453C587.422 18.2344 587.992 17.5 588.914 17.5C589.859 17.5 590.398 18.2344 590.398 19.5234V20.1406C590.398 21.4219 589.859 22.1719 588.93 22.1719ZM594.914 24H597.406V12.7734H594.914V24ZM603.273 24.1562C605.828 24.1562 606.875 22.5547 606.93 21.4219H604.648C604.586 21.9453 604.016 22.3125 603.266 22.3125C602.383 22.3125 601.734 21.6953 601.734 20.7266V20.3438H606.984V19.4219C606.984 16.9922 605.422 15.5078 603.164 15.5078C601.039 15.5078 599.312 16.8125 599.312 19.4219V20.2188C599.312 22.8203 600.906 24.1562 603.273 24.1562ZM601.734 18.9453V18.8906C601.734 17.9297 602.328 17.2891 603.188 17.2891C604.047 17.2891 604.602 17.9297 604.602 18.8906V18.9453H601.734ZM608.727 17.6562C608.727 18.5625 609.414 19.1094 610.258 19.1094C611.117 19.1094 611.797 18.5625 611.797 17.6562C611.797 16.7578 611.125 16.1797 610.258 16.1797C609.406 16.1797 608.727 16.7422 608.727 17.6562ZM608.727 22.7109C608.727 23.6172 609.414 24.1641 610.258 24.1641C611.117 24.1641 611.797 23.6172 611.797 22.7109C611.797 21.8047 611.125 21.2344 610.258 21.2344C609.406 21.2344 608.727 21.7891 608.727 22.7109Z" fill="#8FC34F"/>
<path d="M620.047 24.1328C621.258 24.1328 622 23.5703 622.398 22.9062H622.461V24H623.82V18.3906C623.82 16.375 622.422 15.6484 620.727 15.6484C618.891 15.6484 617.797 16.4297 617.672 17.8203H619.039C619.203 17.25 619.641 16.8438 620.68 16.8438C621.734 16.8438 622.398 17.3281 622.398 18.3828V19.1953H620.25C618.359 19.1953 617.359 20.1719 617.359 21.6094C617.359 23.1328 618.453 24.1328 620.047 24.1328ZM620.438 22.9453C619.586 22.9453 618.805 22.5156 618.805 21.5625C618.805 20.8281 619.258 20.2734 620.367 20.2734H622.398V21.1875C622.398 22.1953 621.547 22.9453 620.438 22.9453ZM551 37.1406C551 38.7578 552.242 39.1094 553.773 39.4219C554.914 39.6484 555.828 39.8203 555.828 40.7344C555.828 41.4453 555.297 42.0312 554 42.0312C552.852 42.0312 552.344 41.5703 552.234 40.8438H550.852C550.852 42.3125 552.109 43.1328 553.938 43.1328C555.906 43.1328 557.219 42.2031 557.219 40.5703C557.219 38.9688 555.945 38.5391 554.406 38.2734C553.477 38.1016 552.367 37.9766 552.367 37C552.367 36.2031 553.055 35.7578 554.016 35.7578C555.117 35.7578 555.648 36.375 555.695 36.9453H557.008C557.008 35.5625 555.836 34.6484 554.062 34.6484C552.461 34.6484 551 35.3984 551 37.1406ZM566.203 34.7812H564.789V39.9609C564.789 41.0156 563.875 41.8984 562.672 41.8984C561.695 41.8984 560.883 41.4688 560.883 40.1016V34.7812H559.469V40.4844C559.469 42.3906 560.633 43.1328 562.281 43.1328C563.719 43.1328 564.492 42.3047 564.727 41.6328H564.805V43H566.203V34.7812ZM572.859 43.125C574.82 43.125 576.047 41.7734 576.047 39.5938V38.1797C576.047 36.0078 574.836 34.6562 572.898 34.6562C571.711 34.6562 570.734 35.2266 570.477 36.0859H570.406V31.7734H568.992V43H570.352V41.7812H570.422C570.789 42.625 571.703 43.125 572.859 43.125ZM572.586 41.9141C571.32 41.9141 570.406 40.9766 570.406 39.6484V38.2969C570.406 36.8047 571.234 35.8672 572.547 35.8672C573.867 35.8672 574.625 36.8203 574.625 38.4766V39.3516C574.625 40.9766 573.875 41.9141 572.586 41.9141ZM578.047 37.1406C578.047 38.7578 579.289 39.1094 580.82 39.4219C581.961 39.6484 582.875 39.8203 582.875 40.7344C582.875 41.4453 582.344 42.0312 581.047 42.0312C579.898 42.0312 579.391 41.5703 579.281 40.8438H577.898C577.898 42.3125 579.156 43.1328 580.984 43.1328C582.953 43.1328 584.266 42.2031 584.266 40.5703C584.266 38.9688 582.992 38.5391 581.453 38.2734C580.523 38.1016 579.414 37.9766 579.414 37C579.414 36.2031 580.102 35.7578 581.062 35.7578C582.164 35.7578 582.695 36.375 582.742 36.9453H584.055C584.055 35.5625 582.883 34.6484 581.109 34.6484C579.508 34.6484 578.047 35.3984 578.047 37.1406ZM589.695 43.1328C591.773 43.1328 592.766 41.8438 592.891 40.9688H591.438C591.297 41.4766 590.648 41.9375 589.688 41.9375C588.32 41.9375 587.586 40.9453 587.586 39.6719V39.2578H593V38.2656C593 36.0547 591.578 34.6484 589.586 34.6484C587.617 34.6484 586.18 36.0312 586.18 38.2656V39.5156C586.18 41.7344 587.484 43.1328 589.695 43.1328ZM587.586 38.2344V38.1016C587.586 36.7344 588.391 35.8359 589.594 35.8359C590.797 35.8359 591.594 36.7344 591.594 38.1016V38.2344H587.586ZM595.805 34.8047H594.539V35.9531H595.797V40.6953C595.797 42.3203 596.219 43.0703 598.172 43.0703C598.484 43.0703 599.062 43.0312 599.18 43V41.8672C599.047 41.8828 598.734 41.9062 598.531 41.9062C597.531 41.9062 597.203 41.6562 597.203 40.6875V35.9531H599.062V34.8047H597.203V32.7422H595.805V34.8047ZM608.156 34.6484C606.102 34.6484 604.602 36.0625 604.602 38.2812V39.4922C604.602 41.8359 606.078 43.1328 608.156 43.1328C610.195 43.1328 611.703 41.8125 611.703 39.4922V38.2734C611.703 35.9844 610.195 34.6484 608.156 34.6484ZM608.164 35.8516C609.484 35.8516 610.281 36.8984 610.281 38.3984V39.3906C610.281 40.9141 609.523 41.9375 608.164 41.9375C606.789 41.9375 606.016 40.9141 606.016 39.3906V38.3984C606.016 36.8984 606.844 35.8516 608.164 35.8516ZM614.766 43H616.18V35.9531H618.07V34.8047H616.164V34.0938C616.164 33.1172 616.578 32.8359 617.547 32.8359C617.75 32.8359 618.156 32.8516 618.281 32.8672V31.7266C618.117 31.7109 617.711 31.6797 617.344 31.6797C615.508 31.6797 614.766 32.4062 614.766 33.9844V34.8047H613.383V35.9531H614.766V43ZM624.414 34.8047H623.148V35.9531H624.406V40.6953C624.406 42.3203 624.828 43.0703 626.781 43.0703C627.094 43.0703 627.672 43.0312 627.789 43V41.8672C627.656 41.8828 627.344 41.9062 627.141 41.9062C626.141 41.9062 625.812 41.6562 625.812 40.6875V35.9531H627.672V34.8047H625.812V32.7422H624.414V34.8047ZM630.008 43H631.422V38.4219C631.422 36.9922 632.156 35.8828 633.562 35.8828C634.672 35.8828 635.383 36.5547 635.383 37.8516V43H636.797V37.4062C636.797 35.5625 635.625 34.6484 634.039 34.6484C632.328 34.6484 631.656 35.7031 631.492 36.2734H631.422V31.7734H630.008V43ZM642.648 43.1328C644.727 43.1328 645.719 41.8438 645.844 40.9688H644.391C644.25 41.4766 643.602 41.9375 642.641 41.9375C641.273 41.9375 640.539 40.9453 640.539 39.6719V39.2578H645.953V38.2656C645.953 36.0547 644.531 34.6484 642.539 34.6484C640.57 34.6484 639.133 36.0312 639.133 38.2656V39.5156C639.133 41.7344 640.438 43.1328 642.648 43.1328ZM640.539 38.2344V38.1016C640.539 36.7344 641.344 35.8359 642.547 35.8359C643.75 35.8359 644.547 36.7344 644.547 38.1016V38.2344H640.539ZM551 56.1406C551 57.7578 552.242 58.1094 553.773 58.4219C554.914 58.6484 555.828 58.8203 555.828 59.7344C555.828 60.4453 555.297 61.0312 554 61.0312C552.852 61.0312 552.344 60.5703 552.234 59.8438H550.852C550.852 61.3125 552.109 62.1328 553.938 62.1328C555.906 62.1328 557.219 61.2031 557.219 59.5703C557.219 57.9688 555.945 57.5391 554.406 57.2734C553.477 57.1016 552.367 56.9766 552.367 56C552.367 55.2031 553.055 54.7578 554.016 54.7578C555.117 54.7578 555.648 55.375 555.695 55.9453H557.008C557.008 54.5625 555.836 53.6484 554.062 53.6484C552.461 53.6484 551 54.3984 551 56.1406ZM561.75 62.1328C562.961 62.1328 563.703 61.5703 564.102 60.9062H564.164V62H565.523V56.3906C565.523 54.375 564.125 53.6484 562.43 53.6484C560.594 53.6484 559.5 54.4297 559.375 55.8203H560.742C560.906 55.25 561.344 54.8438 562.383 54.8438C563.438 54.8438 564.102 55.3281 564.102 56.3828V57.1953H561.953C560.062 57.1953 559.062 58.1719 559.062 59.6094C559.062 61.1328 560.156 62.1328 561.75 62.1328ZM562.141 60.9453C561.289 60.9453 560.508 60.5156 560.508 59.5625C560.508 58.8281 560.961 58.2734 562.07 58.2734H564.102V59.1875C564.102 60.1953 563.25 60.9453 562.141 60.9453ZM568.266 62H569.68V56.7734C569.68 55.6484 570.422 54.875 571.453 54.875C572.531 54.875 573.195 55.6016 573.195 56.6719V62H574.594V56.7891C574.594 55.6641 575.383 54.875 576.406 54.875C577.516 54.875 578.109 55.5625 578.109 56.6172V62H579.523V56.2188C579.523 54.5703 578.5 53.6484 576.82 53.6484C575.43 53.6484 574.648 54.3906 574.312 55.1953H574.25C573.992 54.3125 573.211 53.6484 571.969 53.6484C570.453 53.6484 569.93 54.5078 569.742 55.0938H569.664V53.7812H568.266V62ZM586.117 62.125C588.078 62.125 589.305 60.7734 589.305 58.5938V57.1797C589.305 55.0156 588.094 53.6562 586.164 53.6562C584.984 53.6562 584.039 54.2031 583.703 55.0859H583.633V53.7734H582.273V64.7266H583.688V60.7812H583.758C584.141 61.6484 584.984 62.125 586.117 62.125ZM585.828 60.9141C584.562 60.9141 583.688 60.0078 583.688 58.6875V57.2578C583.688 55.7734 584.492 54.8672 585.789 54.8672C587.125 54.8672 587.883 55.8125 587.883 57.4609V58.3359C587.883 59.9766 587.125 60.9141 585.828 60.9141ZM591.75 62H593.164V50.7734H591.75V62ZM595.898 51.25C595.898 51.8125 596.328 52.2188 596.891 52.2188C597.484 52.2188 597.914 51.8125 597.914 51.25C597.914 50.6797 597.484 50.2734 596.891 50.2734C596.328 50.2734 595.898 50.6797 595.898 51.25ZM596.195 62H597.609V53.7812H596.195V62ZM600.594 62H602.008V57.4219C602.008 56 602.711 54.8828 604.156 54.8828C605.273 54.8828 605.938 55.5469 605.938 56.8359V62H607.352V56.3906C607.352 54.5469 606.219 53.6484 604.562 53.6484C602.844 53.6484 602.273 54.625 602.07 55.2734H601.992V53.7812H600.594V62ZM613.062 63.8203C611.984 63.8203 611.32 63.3359 611.211 62.7578H609.773C609.883 63.9531 610.914 65.0078 613.016 65.0078C615.117 65.0078 616.633 64.0156 616.633 61.75V53.7812H615.281V55.0234H615.211C614.938 54.3516 614.062 53.6562 612.828 53.6562C611.008 53.6562 609.594 54.9609 609.594 57.125V58.3984C609.594 60.5625 611.016 61.8516 612.836 61.8516C613.977 61.8516 614.82 61.2734 615.141 60.5625H615.219V61.7578C615.219 63.0469 614.508 63.8203 613.062 63.8203ZM613.18 54.8672C614.469 54.8672 615.219 55.9609 615.219 57.1641V58.4062C615.219 59.5781 614.508 60.6641 613.195 60.6641C611.922 60.6641 611.016 59.6562 611.016 58.1562V57.3828C611.016 55.8828 611.844 54.8672 613.18 54.8672ZM623.609 62H625.023V54.9531H626.914V53.8047H625.008V53.0938C625.008 52.1172 625.422 51.8359 626.391 51.8359C626.594 51.8359 627 51.8516 627.125 51.8672V50.7266C626.961 50.7109 626.555 50.6797 626.188 50.6797C624.352 50.6797 623.609 51.4062 623.609 52.9844V53.8047H622.227V54.9531H623.609V62ZM629.297 62H630.719V56.9219C630.719 55.8047 631.438 54.9375 632.883 54.9375C633.133 54.9375 633.414 54.9531 633.547 54.9844V53.6953C633.383 53.6719 633.211 53.6562 633.031 53.6562C631.578 53.6562 630.984 54.5078 630.781 55.0469H630.711V53.7812H629.297V62ZM637.641 62.1328C638.852 62.1328 639.594 61.5703 639.992 60.9062H640.055V62H641.414V56.3906C641.414 54.375 640.016 53.6484 638.32 53.6484C636.484 53.6484 635.391 54.4297 635.266 55.8203H636.633C636.797 55.25 637.234 54.8438 638.273 54.8438C639.328 54.8438 639.992 55.3281 639.992 56.3828V57.1953H637.844C635.953 57.1953 634.953 58.1719 634.953 59.6094C634.953 61.1328 636.047 62.1328 637.641 62.1328ZM638.031 60.9453C637.18 60.9453 636.398 60.5156 636.398 59.5625C636.398 58.8281 636.852 58.2734 637.961 58.2734H639.992V59.1875C639.992 60.1953 639.141 60.9453 638.031 60.9453ZM644.156 62H645.57V56.7734C645.57 55.6484 646.312 54.875 647.344 54.875C648.422 54.875 649.086 55.6016 649.086 56.6719V62H650.484V56.7891C650.484 55.6641 651.273 54.875 652.297 54.875C653.406 54.875 654 55.5625 654 56.6172V62H655.414V56.2188C655.414 54.5703 654.391 53.6484 652.711 53.6484C651.32 53.6484 650.539 54.3906 650.203 55.1953H650.141C649.883 54.3125 649.102 53.6484 647.859 53.6484C646.344 53.6484 645.82 54.5078 645.633 55.0938H645.555V53.7812H644.156V62ZM661.273 62.1328C663.352 62.1328 664.344 60.8438 664.469 59.9688H663.016C662.875 60.4766 662.227 60.9375 661.266 60.9375C659.898 60.9375 659.164 59.9453 659.164 58.6719V58.2578H664.578V57.2656C664.578 55.0547 663.156 53.6484 661.164 53.6484C659.195 53.6484 657.758 55.0312 657.758 57.2656V58.5156C657.758 60.7344 659.062 62.1328 661.273 62.1328ZM659.164 57.2344V57.1016C659.164 55.7344 659.969 54.8359 661.172 54.8359C662.375 54.8359 663.172 55.7344 663.172 57.1016V57.2344H659.164Z" fill="black"/>
</g>
<defs>
<clipPath id="clip0">
<rect width="668" height="76" fill="white"/>
</clipPath>
</defs>
</svg>
