<svg width="315" height="143" viewBox="0 0 315 143" fill="none" xmlns="http://www.w3.org/2000/svg">
<rect x="49.5" y="26.5" width="141" height="23" stroke="#1F77B4"/>
<rect x="73.5" y="0.5" width="35" height="100" stroke="#E99D42"/>
<path d="M0.291774 54.9897H0.255302C0.0851007 54.9897 0 54.9229 0 54.7892C0 54.7405 0.0182359 54.6433 0.0547076 54.4974C0.103337 54.3272 0.145887 54.2299 0.182359 54.2056C0.21883 54.1813 0.334324 54.1631 0.52884 54.1509C1.57436 54.1144 2.39498 53.7983 2.99068 53.2026C3.11225 53.0811 3.81737 52.3152 5.10604 50.9049C6.39471 49.4947 7.03296 48.7774 7.02081 48.7531C5.69567 45.3734 5.0027 43.6531 4.94192 43.5923C4.8325 43.4586 4.44955 43.3857 3.79306 43.3735H3.28245C3.20951 43.3006 3.17304 43.2519 3.17304 43.2276C3.17304 43.2033 3.1852 43.0878 3.20951 42.8811C3.25814 42.7231 3.31893 42.6076 3.39187 42.5347H3.64717C4.06052 42.559 4.79603 42.5711 5.85371 42.5711C6.2549 42.5711 6.6257 42.5711 6.9661 42.5711C7.3065 42.5711 7.58004 42.565 7.78671 42.5529C7.99339 42.5407 8.11496 42.5407 8.15143 42.5529C8.3581 42.5529 8.46144 42.6198 8.46144 42.7535C8.46144 42.7656 8.44928 42.8447 8.42497 42.9905C8.37634 43.1729 8.33379 43.2823 8.29732 43.3188C8.26084 43.3553 8.16359 43.3735 8.00554 43.3735C7.62867 43.41 7.30042 43.5133 7.02081 43.6835L8.42497 47.2213L9.39147 46.1454C10.668 44.7716 11.3062 44.0118 11.3062 43.8659C11.3062 43.647 11.1603 43.4951 10.8686 43.41C10.8078 43.41 10.7288 43.3978 10.6315 43.3735C10.4491 43.3735 10.358 43.3066 10.358 43.1729C10.358 43.1486 10.3701 43.0513 10.3944 42.8811C10.4431 42.7231 10.5039 42.6076 10.5768 42.5347H10.7956C10.8078 42.5347 10.9598 42.5347 11.2515 42.5347C11.5433 42.5347 11.8715 42.5468 12.2363 42.5711C12.601 42.5954 12.8502 42.6015 12.9839 42.5894C14.0781 42.5894 14.6799 42.5711 14.7893 42.5347H14.9352C15.0203 42.6198 15.0628 42.6866 15.0628 42.7352C15.0385 43.0392 14.9656 43.2519 14.844 43.3735H14.5522C14.1389 43.3857 13.7681 43.4404 13.4398 43.5376C13.1116 43.6349 12.8624 43.7382 12.6922 43.8476C12.522 43.957 12.3761 44.0665 12.2545 44.1759L12.0539 44.34C12.0539 44.3278 11.4764 44.96 10.3215 46.2365L8.73498 47.9872C8.73498 47.9993 8.92341 48.4856 9.30029 49.446C9.67716 50.4065 10.0723 51.3912 10.4856 52.4003C10.899 53.4093 11.1239 53.9321 11.1603 53.9685C11.2819 54.078 11.6527 54.1387 12.2727 54.1509C12.6982 54.1509 12.911 54.2056 12.911 54.315C12.911 54.3393 12.8988 54.4244 12.8745 54.5703C12.8259 54.7648 12.7833 54.8803 12.7469 54.9168C12.7104 54.9533 12.6253 54.9715 12.4916 54.9715C12.4551 54.9715 12.2545 54.9715 11.8898 54.9715C11.5251 54.9715 10.9841 54.9654 10.2668 54.9533C9.5252 54.9533 8.95989 54.9533 8.57085 54.9533C8.18182 54.9533 7.96907 54.9594 7.9326 54.9715C7.72593 54.9715 7.62259 54.9168 7.62259 54.8074C7.62259 54.7952 7.63475 54.7041 7.65906 54.5338C7.68338 54.4123 7.70769 54.3272 7.732 54.2785C7.75632 54.2299 7.78671 54.1995 7.82318 54.1874C7.85966 54.1752 7.91436 54.1631 7.98731 54.1509C8.06025 54.1387 8.15751 54.1327 8.27908 54.1327C8.40065 54.1327 8.5587 54.0901 8.75321 54.005C8.95989 53.9078 9.06322 53.847 9.06322 53.8227C9.05107 53.8227 8.76537 53.1115 8.20614 51.6891L7.34905 49.5372C5.06349 52.0173 3.89032 53.3242 3.82953 53.4579C3.7809 53.5552 3.75659 53.6281 3.75659 53.6768C3.75659 53.9078 3.93287 54.0597 4.28543 54.1327C4.29758 54.1327 4.33406 54.1327 4.39484 54.1327C4.45563 54.1327 4.4921 54.1387 4.50426 54.1509C4.54073 54.1509 4.56504 54.1509 4.5772 54.1509C4.58936 54.1509 4.60759 54.157 4.63191 54.1691C4.65622 54.1813 4.67446 54.1995 4.68662 54.2238C4.69877 54.2482 4.70485 54.2907 4.70485 54.3515C4.70485 54.4609 4.69269 54.5582 4.66838 54.6433C4.63191 54.8013 4.59544 54.8925 4.55897 54.9168C4.52249 54.9411 4.43131 54.9594 4.28543 54.9715C4.24896 54.9715 4.13954 54.9715 3.95718 54.9715C3.77482 54.9715 3.51952 54.9654 3.19128 54.9533C2.86303 54.9411 2.50439 54.9411 2.11536 54.9533C1.1671 54.9533 0.559233 54.9654 0.291774 54.9897Z" fill="black"/>
<path d="M21.15 48.662C21.15 48.5039 21.2351 48.3824 21.4053 48.2973H33.0215C33.2039 48.3945 33.295 48.5161 33.295 48.662C33.295 48.7957 33.2099 48.9112 33.0397 49.0085L27.2407 49.0267H21.4417C21.2472 48.9659 21.15 48.8443 21.15 48.662ZM21.15 52.1997C21.15 52.0174 21.2472 51.8958 21.4417 51.835H33.0397C33.2099 51.9566 33.295 52.0782 33.295 52.1997C33.295 52.3578 33.2039 52.4794 33.0215 52.5645H21.4053C21.2351 52.4794 21.15 52.3578 21.15 52.1997Z" fill="black"/>
<path d="M45.1994 34.8062V1.99984H51.5272V3.53165H46.7312V34.8062H45.1994Z" fill="black"/>
<path d="M45.1994 98.8616V66.0553H46.7312V97.3298H51.5272V98.8616H45.1994Z" fill="black"/>
<g clip-path="url(#clip0_1125_629)">
<path d="M45.1994 75.7139V23.3708H46.7312V75.7139H45.1994Z" fill="black"/>
</g>
<path d="M55.4297 5.13667L55.1927 5.22785C55.0225 5.28864 54.7793 5.34943 54.4632 5.41021C54.1472 5.471 53.7946 5.51355 53.4056 5.53786H53.0591V4.69901H53.4056C53.977 4.6747 54.5058 4.58352 54.9921 4.42548C55.4784 4.26743 55.8188 4.12155 56.0133 3.98782C56.2078 3.85409 56.378 3.72036 56.5239 3.58663C56.5482 3.55015 56.6212 3.53192 56.7427 3.53192C56.8521 3.53192 56.9555 3.56839 57.0527 3.64133V9.09386L57.071 14.5646C57.1561 14.6497 57.229 14.7044 57.2898 14.7287C57.3506 14.7531 57.4965 14.7774 57.7275 14.8017C57.9585 14.826 58.3353 14.8382 58.8581 14.8382H59.3322V15.677H59.1316C58.8763 15.6405 57.9098 15.6223 56.2321 15.6223C54.5787 15.6223 53.6244 15.6405 53.3691 15.677H53.1503V14.8382H53.6244C53.8919 14.8382 54.1228 14.8382 54.3174 14.8382C54.5119 14.8382 54.6638 14.8321 54.7733 14.8199C54.8827 14.8078 54.9799 14.7895 55.065 14.7652C55.1501 14.7409 55.1988 14.7287 55.2109 14.7287C55.2231 14.7287 55.2595 14.6983 55.3203 14.6376C55.3811 14.5768 55.4176 14.5525 55.4297 14.5646V5.13667Z" fill="black"/>
<path d="M80.4931 10.4069C80.5782 9.89632 80.9065 9.3067 81.4779 8.63805C82.0492 7.9694 82.7544 7.629 83.5932 7.61684C84.0187 7.61684 84.4077 7.72626 84.7603 7.94509C85.1129 8.16392 85.3742 8.43745 85.5444 8.7657C86.0551 7.99979 86.669 7.61684 87.3863 7.61684C87.8361 7.61684 88.2251 7.75057 88.5534 8.01803C88.8816 8.28549 89.0518 8.64413 89.064 9.09394C89.064 9.4465 88.9789 9.7322 88.8087 9.95103C88.6385 10.1699 88.4743 10.3036 88.3163 10.3522C88.1583 10.4008 88.0184 10.4252 87.8969 10.4252C87.6659 10.4252 87.4774 10.3583 87.3316 10.2246C87.1857 10.0908 87.1127 9.91456 87.1127 9.69573C87.1127 9.1365 87.4167 8.75354 88.0245 8.54687C87.8908 8.38882 87.6477 8.3098 87.2951 8.3098C87.137 8.3098 87.0216 8.32196 86.9486 8.34627C86.4866 8.54079 86.1462 8.94198 85.9274 9.54984C85.198 12.2366 84.8332 13.8049 84.8332 14.2547C84.8332 14.5951 84.9305 14.8382 85.125 14.9841C85.3195 15.13 85.5323 15.203 85.7633 15.203C86.2131 15.203 86.6568 15.0024 87.0945 14.6012C87.5322 14.2 87.83 13.7076 87.9881 13.1241C88.0245 13.0025 88.061 12.9356 88.0975 12.9235C88.1339 12.9113 88.2312 12.8992 88.3892 12.887H88.4622C88.6445 12.887 88.7357 12.9356 88.7357 13.0329C88.7357 13.045 88.7236 13.1119 88.6993 13.2335C88.5047 13.9264 88.1279 14.5404 87.5686 15.0753C87.0094 15.6102 86.359 15.8777 85.6174 15.8777C84.7664 15.8777 84.1221 15.4947 83.6844 14.7288C83.1859 15.4826 82.6146 15.8594 81.9702 15.8594H81.8608C81.2651 15.8594 80.8396 15.7014 80.5843 15.3853C80.329 15.0692 80.1953 14.7349 80.1831 14.3823C80.1831 13.9933 80.2986 13.6772 80.5296 13.4341C80.7606 13.1909 81.0341 13.0694 81.3502 13.0694C81.873 13.0694 82.1343 13.3247 82.1343 13.8353C82.1343 14.0784 82.0614 14.2912 81.9155 14.4735C81.7696 14.6559 81.6298 14.7775 81.4961 14.8382C81.3624 14.899 81.2833 14.9294 81.259 14.9294L81.2043 14.9477C81.2043 14.9598 81.2408 14.9841 81.3137 15.0206C81.3867 15.0571 81.4839 15.0996 81.6055 15.1483C81.7271 15.1969 81.8426 15.2151 81.952 15.203C82.3896 15.203 82.7665 14.9294 83.0826 14.3823C83.192 14.1878 83.3318 13.7745 83.502 13.1423C83.6722 12.5101 83.8424 11.8536 84.0126 11.1728C84.1828 10.492 84.2801 10.0908 84.3044 9.96927C84.3652 9.64102 84.3956 9.40395 84.3956 9.25807C84.3956 8.91766 84.3044 8.67452 84.1221 8.52863C83.9397 8.38275 83.733 8.3098 83.502 8.3098C83.0157 8.3098 82.5598 8.50432 82.1343 8.89335C81.7088 9.28238 81.411 9.78083 81.2408 10.3887C81.2165 10.4981 81.1861 10.5589 81.1496 10.571C81.1131 10.5832 81.0159 10.5954 80.8578 10.6075H80.6025C80.5296 10.5346 80.4931 10.4677 80.4931 10.4069Z" fill="black"/>
<path d="M92.7219 10.9603L92.5543 11.0248C92.434 11.0678 92.2621 11.1108 92.0386 11.1537C91.8151 11.1967 91.5659 11.2268 91.2908 11.244H91.0459V10.6509H91.2908C91.6948 10.6337 92.0687 10.5693 92.4125 10.4575C92.7563 10.3458 92.997 10.2426 93.1345 10.1481C93.272 10.0536 93.3923 9.95901 93.4955 9.86446C93.5127 9.83867 93.5643 9.82578 93.6502 9.82578C93.7276 9.82578 93.8006 9.85157 93.8694 9.90314V13.7581L93.8823 17.6259C93.9424 17.6861 93.994 17.7247 94.037 17.7419C94.08 17.7591 94.1831 17.7763 94.3464 17.7935C94.5097 17.8107 94.7762 17.8193 95.1458 17.8193H95.481V18.4124H95.3392C95.1587 18.3866 94.4753 18.3737 93.2892 18.3737C92.1203 18.3737 91.4455 18.3866 91.265 18.4124H91.1103V17.8193H91.4455C91.6346 17.8193 91.7979 17.8193 91.9355 17.8193C92.073 17.8193 92.1804 17.815 92.2578 17.8064C92.3351 17.7978 92.4039 17.7849 92.4641 17.7677C92.5242 17.7505 92.5586 17.7419 92.5672 17.7419C92.5758 17.7419 92.6016 17.7204 92.6446 17.6775C92.6875 17.6345 92.7133 17.6173 92.7219 17.6259V10.9603Z" fill="black"/>
<path d="M99.1683 10.9603L99.0007 11.0248C98.8804 11.0678 98.7085 11.1108 98.485 11.1537C98.2615 11.1967 98.0123 11.2268 97.7372 11.244H97.4922V10.6509H97.7372C98.1412 10.6337 98.5151 10.5693 98.8589 10.4575C99.2027 10.3458 99.4434 10.2426 99.5809 10.1481C99.7184 10.0536 99.8387 9.95901 99.9419 9.86446C99.9591 9.83867 100.011 9.82578 100.097 9.82578C100.174 9.82578 100.247 9.85157 100.316 9.90314V13.7581L100.329 17.6259C100.389 17.6861 100.44 17.7247 100.483 17.7419C100.526 17.7591 100.629 17.7763 100.793 17.7935C100.956 17.8107 101.223 17.8193 101.592 17.8193H101.927V18.4124H101.786C101.605 18.3866 100.922 18.3737 99.7356 18.3737C98.5666 18.3737 97.8919 18.3866 97.7114 18.4124H97.5567V17.8193H97.8919C98.081 17.8193 98.2443 17.8193 98.3818 17.8193C98.5194 17.8193 98.6268 17.815 98.7042 17.8064C98.7815 17.7978 98.8503 17.7849 98.9105 17.7677C98.9706 17.7505 99.005 17.7419 99.0136 17.7419C99.0222 17.7419 99.048 17.7204 99.091 17.6775C99.1339 17.6345 99.1597 17.6173 99.1683 17.6259V10.9603Z" fill="black"/>
<path d="M124.084 11.118C124.084 10.8262 124.187 10.5709 124.394 10.3521C124.601 10.1333 124.862 10.0239 125.178 10.0239C125.47 10.0239 125.725 10.1211 125.944 10.3156C126.163 10.5101 126.278 10.7715 126.291 11.0998C126.291 11.4037 126.187 11.6651 125.981 11.8839C125.774 12.1027 125.513 12.2122 125.196 12.2122C124.88 12.2122 124.619 12.1088 124.412 11.9021C124.206 11.6955 124.096 11.4341 124.084 11.118ZM132.236 11.118C132.236 10.8262 132.339 10.5709 132.546 10.3521C132.752 10.1333 133.014 10.0239 133.33 10.0239C133.621 10.0239 133.877 10.1211 134.096 10.3156C134.314 10.5101 134.43 10.7715 134.442 11.0998C134.442 11.4037 134.339 11.6651 134.132 11.8839C133.925 12.1027 133.664 12.2122 133.348 12.2122C133.032 12.2122 132.77 12.1088 132.564 11.9021C132.357 11.6955 132.248 11.4341 132.236 11.118ZM140.387 11.118C140.387 10.8262 140.49 10.5709 140.697 10.3521C140.904 10.1333 141.165 10.0239 141.481 10.0239C141.773 10.0239 142.028 10.1211 142.247 10.3156C142.466 10.5101 142.581 10.7715 142.594 11.0998C142.594 11.4037 142.49 11.6651 142.283 11.8839C142.077 12.1027 141.815 12.2122 141.499 12.2122C141.183 12.2122 140.922 12.1088 140.715 11.9021C140.509 11.6955 140.399 11.4341 140.387 11.118Z" fill="black"/>
<path d="M163.864 10.4069C163.949 9.89632 164.277 9.3067 164.849 8.63805C165.42 7.9694 166.125 7.629 166.964 7.61684C167.389 7.61684 167.778 7.72626 168.131 7.94509C168.484 8.16392 168.745 8.43745 168.915 8.7657C169.426 7.99979 170.04 7.61684 170.757 7.61684C171.207 7.61684 171.596 7.75057 171.924 8.01803C172.252 8.28549 172.423 8.64413 172.435 9.09394C172.435 9.4465 172.35 9.7322 172.179 9.95103C172.009 10.1699 171.845 10.3036 171.687 10.3522C171.529 10.4008 171.389 10.4252 171.268 10.4252C171.037 10.4252 170.848 10.3583 170.702 10.2246C170.556 10.0908 170.483 9.91456 170.483 9.69573C170.483 9.1365 170.787 8.75354 171.395 8.54687C171.262 8.38882 171.018 8.3098 170.666 8.3098C170.508 8.3098 170.392 8.32196 170.319 8.34627C169.857 8.54079 169.517 8.94198 169.298 9.54984C168.569 12.2366 168.204 13.8049 168.204 14.2547C168.204 14.5951 168.301 14.8382 168.496 14.9841C168.69 15.13 168.903 15.203 169.134 15.203C169.584 15.203 170.028 15.0024 170.465 14.6012C170.903 14.2 171.201 13.7076 171.359 13.1241C171.395 13.0025 171.432 12.9356 171.468 12.9235C171.505 12.9113 171.602 12.8992 171.76 12.887H171.833C172.015 12.887 172.106 12.9356 172.106 13.0329C172.106 13.045 172.094 13.1119 172.07 13.2335C171.875 13.9264 171.499 14.5404 170.939 15.0753C170.38 15.6102 169.73 15.8777 168.988 15.8777C168.137 15.8777 167.493 15.4947 167.055 14.7288C166.557 15.4826 165.985 15.8594 165.341 15.8594H165.232C164.636 15.8594 164.21 15.7014 163.955 15.3853C163.7 15.0692 163.566 14.7349 163.554 14.3823C163.554 13.9933 163.669 13.6772 163.9 13.4341C164.131 13.1909 164.405 13.0694 164.721 13.0694C165.244 13.0694 165.505 13.3247 165.505 13.8353C165.505 14.0784 165.432 14.2912 165.286 14.4735C165.14 14.6559 165.001 14.7775 164.867 14.8382C164.733 14.899 164.654 14.9294 164.63 14.9294L164.575 14.9477C164.575 14.9598 164.612 14.9841 164.684 15.0206C164.757 15.0571 164.855 15.0996 164.976 15.1483C165.098 15.1969 165.213 15.2151 165.323 15.203C165.76 15.203 166.137 14.9294 166.453 14.3823C166.563 14.1878 166.703 13.7745 166.873 13.1423C167.043 12.5101 167.213 11.8536 167.383 11.1728C167.554 10.492 167.651 10.0908 167.675 9.96927C167.736 9.64102 167.766 9.40395 167.766 9.25807C167.766 8.91766 167.675 8.67452 167.493 8.52863C167.31 8.38275 167.104 8.3098 166.873 8.3098C166.386 8.3098 165.931 8.50432 165.505 8.89335C165.08 9.28238 164.782 9.78083 164.612 10.3887C164.587 10.4981 164.557 10.5589 164.52 10.571C164.484 10.5832 164.387 10.5954 164.229 10.6075H163.973C163.9 10.5346 163.864 10.4677 163.864 10.4069Z" fill="black"/>
<path d="M176.093 10.9603L175.925 11.0248C175.805 11.0678 175.633 11.1108 175.409 11.1537C175.186 11.1967 174.937 11.2268 174.662 11.244H174.417V10.6509H174.662C175.065 10.6337 175.439 10.5693 175.783 10.4575C176.127 10.3458 176.368 10.2426 176.505 10.1481C176.643 10.0536 176.763 9.95901 176.866 9.86446C176.883 9.83867 176.935 9.82578 177.021 9.82578C177.098 9.82578 177.171 9.85157 177.24 9.90314V13.7581L177.253 17.6259C177.313 17.6861 177.365 17.7247 177.408 17.7419C177.451 17.7591 177.554 17.7763 177.717 17.7935C177.88 17.8107 178.147 17.8193 178.516 17.8193H178.852V18.4124H178.71C178.529 18.3866 177.846 18.3737 176.66 18.3737C175.491 18.3737 174.816 18.3866 174.636 18.4124H174.481V17.8193H174.816C175.005 17.8193 175.169 17.8193 175.306 17.8193C175.444 17.8193 175.551 17.815 175.628 17.8064C175.706 17.7978 175.775 17.7849 175.835 17.7677C175.895 17.7505 175.929 17.7419 175.938 17.7419C175.946 17.7419 175.972 17.7204 176.015 17.6775C176.058 17.6345 176.084 17.6173 176.093 17.6259V10.9603Z" fill="black"/>
<path d="M180.089 14.7122C180.098 14.6864 180.107 14.652 180.115 14.609C180.124 14.566 180.145 14.4715 180.18 14.3254C180.214 14.1793 180.257 14.046 180.309 13.9257C180.36 13.8054 180.425 13.6635 180.502 13.5002C180.579 13.3369 180.665 13.208 180.76 13.1135C180.854 13.0189 180.966 12.9244 181.095 12.8298C181.224 12.7353 181.366 12.6966 181.52 12.7138C182.165 12.7138 182.578 12.9888 182.758 13.5389L182.887 13.4229C183.42 12.9501 183.927 12.7138 184.408 12.7138C184.967 12.7138 185.405 12.9158 185.723 13.3197C186.042 13.7237 186.201 14.2136 186.201 14.7895C186.201 15.7178 185.874 16.573 185.221 17.3552C184.567 18.1373 183.828 18.5327 183.003 18.5413C182.814 18.5413 182.646 18.5155 182.5 18.464C182.406 18.421 182.307 18.3565 182.204 18.2706C182.101 18.1846 182.019 18.1115 181.959 18.0514L181.869 17.9482C181.86 17.9568 181.765 18.3307 181.585 19.0699C181.404 19.8091 181.314 20.183 181.314 20.1916C181.314 20.2432 181.349 20.2732 181.417 20.2818C181.486 20.2904 181.645 20.3033 181.894 20.3205H182.217C182.268 20.3807 182.294 20.4194 182.294 20.4365C182.294 20.4537 182.281 20.5311 182.255 20.6686C182.23 20.7718 182.204 20.8362 182.178 20.862C182.152 20.8878 182.096 20.905 182.01 20.9136C181.993 20.9136 181.946 20.9136 181.869 20.9136C181.791 20.9136 181.645 20.9093 181.43 20.9007C181.215 20.8921 180.949 20.8878 180.631 20.8878C180.029 20.8878 179.647 20.8964 179.483 20.9136H179.38C179.32 20.8534 179.29 20.8061 179.29 20.7718C179.307 20.5397 179.363 20.3893 179.458 20.3205H179.715C180.008 20.3119 180.175 20.2603 180.218 20.1658C180.244 20.1142 180.506 19.0871 181.005 17.0844C181.503 15.0818 181.765 14.0202 181.791 13.8999C181.8 13.8569 181.804 13.7968 181.804 13.7194C181.804 13.367 181.697 13.1908 181.482 13.1908C181.293 13.1908 181.134 13.3111 181.005 13.5518C180.876 13.7925 180.777 14.0546 180.708 14.3383C180.639 14.6219 180.588 14.7766 180.553 14.8024C180.536 14.8196 180.468 14.8282 180.347 14.8282H180.167C180.115 14.7766 180.089 14.7379 180.089 14.7122ZM182.088 17.0973C182.277 17.7506 182.595 18.0772 183.042 18.0772C183.3 18.0772 183.549 17.9783 183.79 17.7806C184.03 17.5829 184.228 17.3337 184.383 17.0329C184.537 16.7406 184.692 16.2765 184.847 15.6404C185.001 15.0044 185.083 14.5317 185.092 14.2222V14.1449C185.092 13.5088 184.83 13.1908 184.305 13.1908C184.211 13.1908 184.116 13.2037 184.022 13.2295C183.927 13.2553 183.833 13.294 183.738 13.3455C183.643 13.3971 183.558 13.453 183.48 13.5131C183.403 13.5733 183.33 13.6378 183.261 13.7065C183.192 13.7753 183.128 13.8397 183.068 13.8999C183.007 13.9601 182.96 14.0202 182.926 14.0804C182.891 14.1406 182.857 14.1836 182.823 14.2093L182.784 14.2609C182.784 14.2695 182.771 14.3297 182.745 14.4414C182.719 14.5531 182.672 14.7422 182.603 15.0087C182.535 15.2751 182.475 15.4986 182.423 15.6791C182.199 16.5902 182.088 17.0629 182.088 17.0973Z" fill="black"/>
<path d="M55.4297 31.3452L55.1927 31.4364C55.0225 31.4971 54.7793 31.5579 54.4632 31.6187C54.1472 31.6795 53.7946 31.722 53.4056 31.7464H53.0591V30.9075H53.4056C53.977 30.8832 54.5058 30.792 54.9921 30.634C55.4784 30.4759 55.8188 30.33 56.0133 30.1963C56.2078 30.0626 56.378 29.9289 56.5239 29.7951C56.5482 29.7587 56.6212 29.7404 56.7427 29.7404C56.8521 29.7404 56.9555 29.7769 57.0527 29.8498V35.3024L57.071 40.7731C57.1561 40.8582 57.229 40.9129 57.2898 40.9372C57.3506 40.9615 57.4965 40.9859 57.7275 41.0102C57.9585 41.0345 58.3353 41.0466 58.8581 41.0466H59.3322V41.8855H59.1316C58.8763 41.849 57.9098 41.8308 56.2321 41.8308C54.5787 41.8308 53.6244 41.849 53.3691 41.8855H53.1503V41.0466H53.6244C53.8919 41.0466 54.1228 41.0466 54.3174 41.0466C54.5119 41.0466 54.6638 41.0406 54.7733 41.0284C54.8827 41.0163 54.9799 40.998 55.065 40.9737C55.1501 40.9494 55.1988 40.9372 55.2109 40.9372C55.2231 40.9372 55.2595 40.9068 55.3203 40.8461C55.3811 40.7853 55.4176 40.761 55.4297 40.7731V31.3452Z" fill="black"/>
<path d="M80.4931 36.6152C80.5782 36.1046 80.9065 35.5149 81.4779 34.8463C82.0492 34.1777 82.7544 33.8372 83.5932 33.8251C84.0187 33.8251 84.4077 33.9345 84.7603 34.1533C85.1129 34.3722 85.3742 34.6457 85.5444 34.974C86.0551 34.208 86.669 33.8251 87.3863 33.8251C87.8361 33.8251 88.2251 33.9588 88.5534 34.2263C88.8816 34.4937 89.0518 34.8524 89.064 35.3022C89.064 35.6548 88.9789 35.9405 88.8087 36.1593C88.6385 36.3781 88.4743 36.5118 88.3163 36.5605C88.1583 36.6091 88.0184 36.6334 87.8969 36.6334C87.6659 36.6334 87.4774 36.5665 87.3316 36.4328C87.1857 36.2991 87.1127 36.1228 87.1127 35.904C87.1127 35.3447 87.4167 34.9618 88.0245 34.7551C87.8908 34.5971 87.6477 34.5181 87.2951 34.5181C87.137 34.5181 87.0216 34.5302 86.9486 34.5545C86.4866 34.749 86.1462 35.1502 85.9274 35.7581C85.198 38.4448 84.8332 40.0131 84.8332 40.4629C84.8332 40.8033 84.9305 41.0465 85.125 41.1924C85.3195 41.3383 85.5323 41.4112 85.7633 41.4112C86.2131 41.4112 86.6568 41.2106 87.0945 40.8094C87.5322 40.4082 87.83 39.9159 87.9881 39.3323C88.0245 39.2107 88.061 39.1439 88.0975 39.1317C88.1339 39.1196 88.2312 39.1074 88.3892 39.0953H88.4622C88.6445 39.0953 88.7357 39.1439 88.7357 39.2411C88.7357 39.2533 88.7236 39.3202 88.6993 39.4417C88.5047 40.1347 88.1279 40.7486 87.5686 41.2836C87.0094 41.8185 86.359 42.0859 85.6174 42.0859C84.7664 42.0859 84.1221 41.703 83.6844 40.9371C83.1859 41.6908 82.6146 42.0677 81.9702 42.0677H81.8608C81.2651 42.0677 80.8396 41.9097 80.5843 41.5936C80.329 41.2775 80.1953 40.9432 80.1831 40.5906C80.1831 40.2016 80.2986 39.8855 80.5296 39.6423C80.7606 39.3992 81.0341 39.2776 81.3502 39.2776C81.873 39.2776 82.1343 39.5329 82.1343 40.0435C82.1343 40.2867 82.0614 40.4994 81.9155 40.6818C81.7696 40.8641 81.6298 40.9857 81.4961 41.0465C81.3624 41.1073 81.2833 41.1377 81.259 41.1377L81.2043 41.1559C81.2043 41.1681 81.2408 41.1924 81.3137 41.2289C81.3867 41.2653 81.4839 41.3079 81.6055 41.3565C81.7271 41.4051 81.8426 41.4234 81.952 41.4112C82.3896 41.4112 82.7665 41.1377 83.0826 40.5906C83.192 40.3961 83.3318 39.9827 83.502 39.3506C83.6722 38.7184 83.8424 38.0619 84.0126 37.3811C84.1828 36.7003 84.2801 36.2991 84.3044 36.1775C84.3652 35.8493 84.3956 35.6122 84.3956 35.4663C84.3956 35.1259 84.3044 34.8828 84.1221 34.7369C83.9397 34.591 83.733 34.5181 83.502 34.5181C83.0157 34.5181 82.5598 34.7126 82.1343 35.1016C81.7088 35.4906 81.411 35.9891 81.2408 36.5969C81.2165 36.7064 81.1861 36.7671 81.1496 36.7793C81.1131 36.7915 81.0159 36.8036 80.8578 36.8158H80.6025C80.5296 36.7428 80.4931 36.676 80.4931 36.6152Z" fill="black"/>
<path d="M91.3811 39.0899C91.149 39.0899 90.9642 39.0125 90.8267 38.8578C90.6892 38.7031 90.6204 38.514 90.6204 38.2905C90.6204 37.6803 90.8482 37.1516 91.3037 36.7047C91.7593 36.2578 92.3265 36.0343 93.0056 36.0343C93.7877 36.0343 94.4409 36.2749 94.9652 36.7563C95.4896 37.2376 95.756 37.8607 95.7646 38.6257C95.7646 38.9953 95.6786 39.3477 95.5067 39.6829C95.3348 40.0181 95.1286 40.3104 94.8879 40.5596C94.6472 40.8089 94.3034 41.1269 93.8565 41.5137C93.547 41.7801 93.1173 42.1755 92.5672 42.6998L91.8065 43.4218L92.7864 43.4347C94.1358 43.4347 94.8535 43.4132 94.9395 43.3703C94.9996 43.3531 95.1028 42.9706 95.2489 42.2228V42.1841H95.7646V42.2228C95.756 42.2486 95.7001 42.6397 95.597 43.396C95.4939 44.1524 95.4294 44.5478 95.4036 44.5822V44.6208H90.6204V44.3759V44.2212C90.6204 44.161 90.6462 44.0965 90.6977 44.0278C90.7493 43.959 90.8782 43.8086 91.0845 43.5765C91.3338 43.3015 91.5487 43.0608 91.7292 42.8545C91.8065 42.7686 91.9526 42.6096 92.1675 42.3775C92.3824 42.1454 92.5285 41.9864 92.6059 41.9005C92.6832 41.8145 92.8079 41.6727 92.9798 41.475C93.1517 41.2773 93.272 41.1312 93.3408 41.0367C93.4095 40.9421 93.5084 40.8132 93.6373 40.6499C93.7662 40.4866 93.8565 40.3491 93.908 40.2373C93.9596 40.1256 94.0241 40.0009 94.1014 39.8634C94.1788 39.7259 94.2347 39.5884 94.269 39.4509C94.3034 39.3133 94.3335 39.1844 94.3593 39.0641C94.3851 38.9437 94.398 38.8019 94.398 38.6386C94.398 38.0971 94.2519 37.6287 93.9596 37.2333C93.6674 36.8379 93.2505 36.6402 92.709 36.6402C92.4254 36.6402 92.1761 36.7133 91.9612 36.8594C91.7464 37.0055 91.5959 37.1474 91.51 37.2849C91.424 37.4224 91.3811 37.5041 91.3811 37.5298C91.3811 37.5384 91.4026 37.5427 91.4455 37.5427C91.6002 37.5427 91.7593 37.6029 91.9226 37.7232C92.0859 37.8436 92.1675 38.0412 92.1675 38.3163C92.1675 38.5312 92.0988 38.7117 91.9612 38.8578C91.8237 39.0039 91.6303 39.0813 91.3811 39.0899Z" fill="black"/>
<path d="M99.1683 37.1688L99.0007 37.2333C98.8804 37.2763 98.7085 37.3193 98.485 37.3622C98.2615 37.4052 98.0123 37.4353 97.7372 37.4525H97.4922V36.8594H97.7372C98.1412 36.8422 98.5151 36.7778 98.8589 36.666C99.2027 36.5543 99.4434 36.4511 99.5809 36.3566C99.7184 36.262 99.8387 36.1675 99.9419 36.073C99.9591 36.0472 100.011 36.0343 100.097 36.0343C100.174 36.0343 100.247 36.0601 100.316 36.1116V39.9666L100.329 43.8344C100.389 43.8946 100.44 43.9332 100.483 43.9504C100.526 43.9676 100.629 43.9848 100.793 44.002C100.956 44.0192 101.223 44.0278 101.592 44.0278H101.927V44.6208H101.786C101.605 44.5951 100.922 44.5822 99.7356 44.5822C98.5666 44.5822 97.8919 44.5951 97.7114 44.6208H97.5567V44.0278H97.8919C98.081 44.0278 98.2443 44.0278 98.3818 44.0278C98.5194 44.0278 98.6268 44.0235 98.7042 44.0149C98.7815 44.0063 98.8503 43.9934 98.9105 43.9762C98.9706 43.959 99.005 43.9504 99.0136 43.9504C99.0222 43.9504 99.048 43.9289 99.091 43.886C99.1339 43.843 99.1597 43.8258 99.1683 43.8344V37.1688Z" fill="black"/>
<path d="M124.084 37.3265C124.084 37.0347 124.187 36.7794 124.394 36.5606C124.601 36.3418 124.862 36.2324 125.178 36.2324C125.47 36.2324 125.725 36.3296 125.944 36.5241C126.163 36.7186 126.278 36.98 126.291 37.3083C126.291 37.6122 126.187 37.8736 125.981 38.0924C125.774 38.3112 125.513 38.4207 125.196 38.4207C124.88 38.4207 124.619 38.3173 124.412 38.1106C124.206 37.904 124.096 37.6426 124.084 37.3265ZM132.236 37.3265C132.236 37.0347 132.339 36.7794 132.546 36.5606C132.752 36.3418 133.014 36.2324 133.33 36.2324C133.621 36.2324 133.877 36.3296 134.096 36.5241C134.314 36.7186 134.43 36.98 134.442 37.3083C134.442 37.6122 134.339 37.8736 134.132 38.0924C133.925 38.3112 133.664 38.4207 133.348 38.4207C133.032 38.4207 132.77 38.3173 132.564 38.1106C132.357 37.904 132.248 37.6426 132.236 37.3265ZM140.387 37.3265C140.387 37.0347 140.49 36.7794 140.697 36.5606C140.904 36.3418 141.165 36.2324 141.481 36.2324C141.773 36.2324 142.028 36.3296 142.247 36.5241C142.466 36.7186 142.581 36.98 142.594 37.3083C142.594 37.6122 142.49 37.8736 142.283 38.0924C142.077 38.3112 141.815 38.4207 141.499 38.4207C141.183 38.4207 140.922 38.3173 140.715 38.1106C140.509 37.904 140.399 37.6426 140.387 37.3265Z" fill="black"/>
<path d="M163.864 36.6154C163.949 36.1048 164.277 35.5152 164.849 34.8465C165.42 34.1779 166.125 33.8375 166.964 33.8253C167.389 33.8253 167.778 33.9348 168.131 34.1536C168.484 34.3724 168.745 34.6459 168.915 34.9742C169.426 34.2083 170.04 33.8253 170.757 33.8253C171.207 33.8253 171.596 33.9591 171.924 34.2265C172.252 34.494 172.423 34.8526 172.435 35.3024C172.435 35.655 172.35 35.9407 172.179 36.1595C172.009 36.3784 171.845 36.5121 171.687 36.5607C171.529 36.6093 171.389 36.6337 171.268 36.6337C171.037 36.6337 170.848 36.5668 170.702 36.4331C170.556 36.2993 170.483 36.1231 170.483 35.9042C170.483 35.345 170.787 34.962 171.395 34.7554C171.262 34.5973 171.018 34.5183 170.666 34.5183C170.508 34.5183 170.392 34.5305 170.319 34.5548C169.857 34.7493 169.517 35.1505 169.298 35.7583C168.569 38.4451 168.204 40.0134 168.204 40.4632C168.204 40.8036 168.301 41.0467 168.496 41.1926C168.69 41.3385 168.903 41.4115 169.134 41.4115C169.584 41.4115 170.028 41.2109 170.465 40.8097C170.903 40.4085 171.201 39.9161 171.359 39.3326C171.395 39.211 171.432 39.1441 171.468 39.132C171.505 39.1198 171.602 39.1077 171.76 39.0955H171.833C172.015 39.0955 172.106 39.1441 172.106 39.2414C172.106 39.2535 172.094 39.3204 172.07 39.442C171.875 40.1349 171.499 40.7489 170.939 41.2838C170.38 41.8187 169.73 42.0862 168.988 42.0862C168.137 42.0862 167.493 41.7032 167.055 40.9373C166.557 41.6911 165.985 42.0679 165.341 42.0679H165.232C164.636 42.0679 164.21 41.9099 163.955 41.5938C163.7 41.2777 163.566 40.9434 163.554 40.5908C163.554 40.2018 163.669 39.8857 163.9 39.6426C164.131 39.3994 164.405 39.2779 164.721 39.2779C165.244 39.2779 165.505 39.5332 165.505 40.0438C165.505 40.2869 165.432 40.4997 165.286 40.682C165.14 40.8644 165.001 40.986 164.867 41.0467C164.733 41.1075 164.654 41.1379 164.63 41.1379L164.575 41.1562C164.575 41.1683 164.612 41.1926 164.684 41.2291C164.757 41.2656 164.855 41.3081 164.976 41.3567C165.098 41.4054 165.213 41.4236 165.323 41.4115C165.76 41.4115 166.137 41.1379 166.453 40.5908C166.563 40.3963 166.703 39.983 166.873 39.3508C167.043 38.7186 167.213 38.0621 167.383 37.3813C167.554 36.7005 167.651 36.2993 167.675 36.1778C167.736 35.8495 167.766 35.6125 167.766 35.4666C167.766 35.1262 167.675 34.883 167.493 34.7371C167.31 34.5912 167.104 34.5183 166.873 34.5183C166.386 34.5183 165.931 34.7128 165.505 35.1018C165.08 35.4909 164.782 35.9893 164.612 36.5972C164.587 36.7066 164.557 36.7674 164.52 36.7795C164.484 36.7917 164.387 36.8039 164.229 36.816H163.973C163.9 36.7431 163.864 36.6762 163.864 36.6154Z" fill="black"/>
<path d="M174.752 39.0899C174.52 39.0899 174.335 39.0125 174.197 38.8578C174.06 38.7031 173.991 38.514 173.991 38.2905C173.991 37.6803 174.219 37.1516 174.674 36.7047C175.13 36.2578 175.697 36.0343 176.376 36.0343C177.158 36.0343 177.812 36.2749 178.336 36.7563C178.86 37.2376 179.127 37.8607 179.135 38.6257C179.135 38.9953 179.049 39.3477 178.877 39.6829C178.706 40.0181 178.499 40.3104 178.259 40.5596C178.018 40.8089 177.674 41.1269 177.227 41.5137C176.918 41.7801 176.488 42.1755 175.938 42.6998L175.177 43.4218L176.157 43.4347C177.507 43.4347 178.224 43.4132 178.31 43.3703C178.37 43.3531 178.473 42.9706 178.62 42.2228V42.1841H179.135V42.2228C179.127 42.2486 179.071 42.6397 178.968 43.396C178.865 44.1524 178.8 44.5478 178.774 44.5822V44.6208H173.991V44.3759V44.2212C173.991 44.161 174.017 44.0965 174.068 44.0278C174.12 43.959 174.249 43.8086 174.455 43.5765C174.705 43.3015 174.919 43.0608 175.1 42.8545C175.177 42.7686 175.323 42.6096 175.538 42.3775C175.753 42.1454 175.899 41.9864 175.977 41.9005C176.054 41.8145 176.179 41.6727 176.35 41.475C176.522 41.2773 176.643 41.1312 176.711 41.0367C176.78 40.9421 176.879 40.8132 177.008 40.6499C177.137 40.4866 177.227 40.3491 177.279 40.2373C177.33 40.1256 177.395 40.0009 177.472 39.8634C177.55 39.7259 177.605 39.5884 177.64 39.4509C177.674 39.3133 177.704 39.1844 177.73 39.0641C177.756 38.9437 177.769 38.8019 177.769 38.6386C177.769 38.0971 177.623 37.6287 177.33 37.2333C177.038 36.8379 176.621 36.6402 176.08 36.6402C175.796 36.6402 175.547 36.7133 175.332 36.8594C175.117 37.0055 174.967 37.1474 174.881 37.2849C174.795 37.4224 174.752 37.5041 174.752 37.5298C174.752 37.5384 174.773 37.5427 174.816 37.5427C174.971 37.5427 175.13 37.6029 175.293 37.7232C175.457 37.8436 175.538 38.0412 175.538 38.3163C175.538 38.5312 175.469 38.7117 175.332 38.8578C175.194 39.0039 175.001 39.0813 174.752 39.0899Z" fill="black"/>
<path d="M180.089 40.9207C180.098 40.8949 180.107 40.8605 180.115 40.8175C180.124 40.7745 180.145 40.68 180.18 40.5339C180.214 40.3878 180.257 40.2545 180.309 40.1342C180.36 40.0139 180.425 39.872 180.502 39.7087C180.579 39.5454 180.665 39.4165 180.76 39.322C180.854 39.2274 180.966 39.1329 181.095 39.0383C181.224 38.9438 181.366 38.9051 181.52 38.9223C182.165 38.9223 182.578 39.1973 182.758 39.7474L182.887 39.6314C183.42 39.1586 183.927 38.9223 184.408 38.9223C184.967 38.9223 185.405 39.1243 185.724 39.5282C186.042 39.9322 186.201 40.4221 186.201 40.998C186.201 41.9263 185.874 42.7815 185.221 43.5637C184.567 44.3458 183.828 44.7412 183.003 44.7498C182.814 44.7498 182.646 44.724 182.5 44.6724C182.406 44.6295 182.307 44.565 182.204 44.4791C182.101 44.3931 182.019 44.32 181.959 44.2599L181.869 44.1567C181.86 44.1653 181.765 44.5392 181.585 45.2784C181.404 46.0176 181.314 46.3915 181.314 46.4001C181.314 46.4516 181.349 46.4817 181.417 46.4903C181.486 46.4989 181.645 46.5118 181.894 46.529H182.217C182.268 46.5892 182.294 46.6278 182.294 46.645C182.294 46.6622 182.281 46.7396 182.255 46.8771C182.23 46.9803 182.204 47.0447 182.178 47.0705C182.152 47.0963 182.096 47.1135 182.01 47.1221C181.993 47.1221 181.946 47.1221 181.869 47.1221C181.791 47.1221 181.645 47.1178 181.43 47.1092C181.215 47.1006 180.949 47.0963 180.631 47.0963C180.029 47.0963 179.647 47.1049 179.483 47.1221H179.38C179.32 47.0619 179.29 47.0146 179.29 46.9803C179.307 46.7482 179.363 46.5978 179.458 46.529H179.715C180.008 46.5204 180.175 46.4688 180.218 46.3743C180.244 46.3227 180.506 45.2956 181.005 43.2929C181.503 41.2902 181.765 40.2287 181.791 40.1084C181.8 40.0654 181.804 40.0053 181.804 39.9279C181.804 39.5755 181.697 39.3993 181.482 39.3993C181.293 39.3993 181.134 39.5196 181.005 39.7603C180.876 40.001 180.777 40.2631 180.708 40.5468C180.639 40.8304 180.588 40.9851 180.554 41.0109C180.536 41.0281 180.468 41.0367 180.347 41.0367H180.167C180.115 40.9851 180.089 40.9464 180.089 40.9207ZM182.088 43.3058C182.277 43.959 182.595 44.2857 183.042 44.2857C183.3 44.2857 183.549 44.1868 183.79 43.9891C184.03 43.7914 184.228 43.5422 184.383 43.2414C184.537 42.9491 184.692 42.485 184.847 41.8489C185.002 41.2129 185.083 40.7402 185.092 40.4307V40.3534C185.092 39.7173 184.83 39.3993 184.305 39.3993C184.211 39.3993 184.116 39.4122 184.022 39.438C183.927 39.4638 183.833 39.5025 183.738 39.554C183.643 39.6056 183.558 39.6615 183.48 39.7216C183.403 39.7818 183.33 39.8463 183.261 39.915C183.192 39.9838 183.128 40.0482 183.068 40.1084C183.007 40.1686 182.96 40.2287 182.926 40.2889C182.891 40.3491 182.857 40.3921 182.823 40.4178L182.784 40.4694C182.784 40.478 182.771 40.5382 182.745 40.6499C182.719 40.7616 182.672 40.9507 182.603 41.2172C182.535 41.4836 182.475 41.7071 182.423 41.8876C182.199 42.7987 182.088 43.2714 182.088 43.3058Z" fill="black"/>
<path d="M124.084 63.535C124.084 63.2432 124.187 62.9879 124.394 62.7691C124.601 62.5503 124.862 62.4408 125.178 62.4408C125.47 62.4408 125.725 62.5381 125.944 62.7326C126.163 62.9271 126.278 63.1885 126.291 63.5168C126.291 63.8207 126.187 64.0821 125.981 64.3009C125.774 64.5197 125.513 64.6292 125.196 64.6292C124.88 64.6292 124.619 64.5258 124.412 64.3191C124.206 64.1125 124.096 63.8511 124.084 63.535ZM132.236 63.535C132.236 63.2432 132.339 62.9879 132.546 62.7691C132.752 62.5503 133.014 62.4408 133.33 62.4408C133.621 62.4408 133.877 62.5381 134.096 62.7326C134.314 62.9271 134.43 63.1885 134.442 63.5168C134.442 63.8207 134.339 64.0821 134.132 64.3009C133.925 64.5197 133.664 64.6292 133.348 64.6292C133.032 64.6292 132.77 64.5258 132.564 64.3191C132.357 64.1125 132.248 63.8511 132.236 63.535ZM140.387 63.535C140.387 63.2432 140.49 62.9879 140.697 62.7691C140.904 62.5503 141.165 62.4408 141.481 62.4408C141.773 62.4408 142.028 62.5381 142.247 62.7326C142.466 62.9271 142.581 63.1885 142.594 63.5168C142.594 63.8207 142.49 64.0821 142.283 64.3009C142.077 64.5197 141.815 64.6292 141.499 64.6292C141.183 64.6292 140.922 64.5258 140.715 64.3191C140.509 64.1125 140.399 63.8511 140.387 63.535Z" fill="black"/>
<path d="M55.4297 83.0839L55.1927 83.1751C55.0225 83.2359 54.7793 83.2967 54.4632 83.3575C54.1472 83.4183 53.7946 83.4608 53.4056 83.4851H53.0591V82.6463H53.4056C53.977 82.622 54.5058 82.5308 54.9921 82.3727C55.4784 82.2147 55.8188 82.0688 56.0133 81.9351C56.2078 81.8014 56.378 81.6676 56.5239 81.5339C56.5482 81.4974 56.6212 81.4792 56.7427 81.4792C56.8521 81.4792 56.9555 81.5157 57.0527 81.5886V87.0411L57.071 92.5119C57.1561 92.597 57.229 92.6517 57.2898 92.676C57.3506 92.7003 57.4965 92.7246 57.7275 92.7489C57.9585 92.7733 58.3353 92.7854 58.8581 92.7854H59.3322V93.6243H59.1316C58.8763 93.5878 57.9098 93.5696 56.2321 93.5696C54.5787 93.5696 53.6244 93.5878 53.3691 93.6243H53.1503V92.7854H53.6244C53.8919 92.7854 54.1228 92.7854 54.3174 92.7854C54.5119 92.7854 54.6638 92.7793 54.7733 92.7672C54.8827 92.755 54.9799 92.7368 55.065 92.7125C55.1501 92.6882 55.1988 92.676 55.2109 92.676C55.2231 92.676 55.2595 92.6456 55.3203 92.5848C55.3811 92.524 55.4176 92.4997 55.4297 92.5119V83.0839Z" fill="black"/>
<path d="M79.8476 88.3542C79.9327 87.8436 80.2609 87.254 80.8323 86.5853C81.4037 85.9167 82.1088 85.5763 82.9477 85.5641C83.3732 85.5641 83.7622 85.6735 84.1148 85.8924C84.4673 86.1112 84.7287 86.3847 84.8989 86.713C85.4095 85.9471 86.0235 85.5641 86.7407 85.5641C87.1905 85.5641 87.5796 85.6978 87.9078 85.9653C88.2361 86.2328 88.4063 86.5914 88.4184 87.0412C88.4184 87.3938 88.3333 87.6795 88.1631 87.8983C87.9929 88.1171 87.8288 88.2509 87.6708 88.2995C87.5127 88.3481 87.3729 88.3724 87.2513 88.3724C87.0203 88.3724 86.8319 88.3056 86.686 88.1718C86.5401 88.0381 86.4672 87.8618 86.4672 87.643C86.4672 87.0838 86.7711 86.7008 87.379 86.4941C87.2453 86.3361 87.0021 86.2571 86.6496 86.2571C86.4915 86.2571 86.376 86.2692 86.3031 86.2935C85.8411 86.4881 85.5007 86.8892 85.2819 87.4971C84.5524 90.1839 84.1877 91.7521 84.1877 92.202C84.1877 92.5424 84.285 92.7855 84.4795 92.9314C84.674 93.0773 84.8868 93.1502 85.1177 93.1502C85.5676 93.1502 86.0113 92.9496 86.449 92.5484C86.8866 92.1473 87.1845 91.6549 87.3425 91.0713C87.379 90.9498 87.4155 90.8829 87.4519 90.8707C87.4884 90.8586 87.5857 90.8464 87.7437 90.8343H87.8166C87.999 90.8343 88.0902 90.8829 88.0902 90.9802C88.0902 90.9923 88.078 91.0592 88.0537 91.1808C87.8592 91.8737 87.4823 92.4877 86.9231 93.0226C86.3639 93.5575 85.7134 93.825 84.9719 93.825C84.1208 93.825 83.4765 93.442 83.0389 92.6761C82.5404 93.4298 81.969 93.8067 81.3247 93.8067H81.2153C80.6196 93.8067 80.1941 93.6487 79.9388 93.3326C79.6835 93.0165 79.5497 92.6822 79.5376 92.3296C79.5376 91.9406 79.6531 91.6245 79.884 91.3813C80.115 91.1382 80.3886 91.0166 80.7047 91.0166C81.2274 91.0166 81.4888 91.2719 81.4888 91.7825C81.4888 92.0257 81.4159 92.2384 81.27 92.4208C81.1241 92.6031 80.9843 92.7247 80.8505 92.7855C80.7168 92.8463 80.6378 92.8767 80.6135 92.8767L80.5588 92.8949C80.5588 92.9071 80.5952 92.9314 80.6682 92.9679C80.7411 93.0043 80.8384 93.0469 80.96 93.0955C81.0815 93.1441 81.197 93.1624 81.3064 93.1502C81.7441 93.1502 82.121 92.8767 82.4371 92.3296C82.5465 92.1351 82.6863 91.7217 82.8565 91.0896C83.0267 90.4574 83.1969 89.8009 83.3671 89.1201C83.5373 88.4393 83.6346 88.0381 83.6589 87.9165C83.7197 87.5883 83.7501 87.3512 83.7501 87.2053C83.7501 86.8649 83.6589 86.6218 83.4765 86.4759C83.2942 86.33 83.0875 86.2571 82.8565 86.2571C82.3702 86.2571 81.9143 86.4516 81.4888 86.8406C81.0633 87.2296 80.7654 87.7281 80.5952 88.336C80.5709 88.4454 80.5405 88.5062 80.5041 88.5183C80.4676 88.5305 80.3703 88.5426 80.2123 88.5548H79.957C79.884 88.4818 79.8476 88.415 79.8476 88.3542Z" fill="black"/>
<path d="M89.601 92.6594C89.6096 92.6079 89.6225 92.5391 89.6397 92.4531C89.6569 92.3672 89.7084 92.2039 89.7944 91.9632C89.8803 91.7226 89.9663 91.5206 90.0522 91.3573C90.1382 91.1939 90.28 91.0349 90.4777 90.8802C90.6754 90.7255 90.8731 90.6525 91.0708 90.661C91.3802 90.661 91.638 90.7384 91.8443 90.8931C92.0506 91.0478 92.1795 91.1939 92.2311 91.3315C92.2827 91.469 92.3085 91.5592 92.3085 91.6022C92.3085 91.6194 92.3128 91.628 92.3214 91.628L92.4632 91.4862C92.9875 90.9361 93.5848 90.661 94.2553 90.661C94.7194 90.661 95.0933 90.7771 95.3769 91.0092C95.6606 91.2412 95.8067 91.5807 95.8153 92.0277C95.8239 92.4746 95.6606 93.1493 95.3254 94.0518C94.9902 94.9543 94.8268 95.5001 94.8354 95.6892C94.8354 95.9127 94.9085 96.0244 95.0546 96.0244C95.1062 96.0244 95.1449 96.0201 95.1707 96.0115C95.4199 95.9686 95.6434 95.8053 95.8411 95.5216C96.0388 95.238 96.1892 94.8942 96.2923 94.4902C96.3095 94.4214 96.3955 94.3871 96.5502 94.3871C96.7221 94.3871 96.808 94.4214 96.808 94.4902C96.808 94.4988 96.7908 94.5633 96.7565 94.6836C96.6877 94.9328 96.5932 95.1778 96.4728 95.4185C96.3525 95.6591 96.1548 95.8998 95.8798 96.1405C95.6047 96.3811 95.3082 96.4972 94.9902 96.4886C94.5862 96.4886 94.2939 96.3725 94.1134 96.1405C93.9329 95.9084 93.8427 95.6677 93.8427 95.4185C93.8427 95.2552 93.9974 94.7395 94.3068 93.8713C94.6163 93.0032 94.7753 92.35 94.7839 91.9116C94.7839 91.4045 94.5948 91.151 94.2166 91.151H94.1521C93.4129 91.151 92.7898 91.585 92.2827 92.4531L92.1924 92.6079L91.767 94.3355C91.4833 95.4614 91.32 96.0674 91.277 96.1534C91.1653 96.3854 90.9805 96.5015 90.7227 96.5015C90.6109 96.5015 90.5207 96.4757 90.4519 96.4241C90.3831 96.3725 90.3359 96.321 90.3101 96.2694C90.2843 96.2178 90.2757 96.1748 90.2843 96.1405C90.2843 96.0287 90.4476 95.3282 90.7742 94.0389C91.1008 92.7497 91.2727 92.0492 91.2899 91.9374C91.2985 91.8945 91.3028 91.7956 91.3028 91.6409C91.3028 91.3057 91.1997 91.1381 90.9934 91.1381C90.6668 91.1381 90.396 91.5678 90.1812 92.4274C90.1296 92.5993 90.1038 92.6895 90.1038 92.6981C90.0866 92.7497 90.005 92.7755 89.8588 92.7755H89.6783C89.6268 92.7239 89.601 92.6852 89.601 92.6594Z" fill="black"/>
<path d="M99.812 88.9076L99.6444 88.9721C99.5241 89.015 99.3522 89.058 99.1287 89.101C98.9053 89.144 98.656 89.1741 98.3809 89.1912H98.136V88.5982H98.3809C98.7849 88.581 99.1588 88.5165 99.5026 88.4048C99.8464 88.2931 100.087 88.1899 100.225 88.0954C100.362 88.0008 100.482 87.9063 100.586 87.8117C100.603 87.7859 100.654 87.773 100.74 87.773C100.818 87.773 100.891 87.7988 100.959 87.8504V91.7053L100.972 95.5732C101.033 95.6333 101.084 95.672 101.127 95.6892C101.17 95.7064 101.273 95.7236 101.437 95.7408C101.6 95.758 101.866 95.7666 102.236 95.7666H102.571V96.3596H102.429C102.249 96.3338 101.565 96.3209 100.379 96.3209C99.2104 96.3209 98.5357 96.3338 98.3552 96.3596H98.2005V95.7666H98.5357C98.7248 95.7666 98.8881 95.7666 99.0256 95.7666C99.1631 95.7666 99.2705 95.7623 99.3479 95.7537C99.4253 95.7451 99.494 95.7322 99.5542 95.715C99.6144 95.6978 99.6487 95.6892 99.6573 95.6892C99.6659 95.6892 99.6917 95.6677 99.7347 95.6247C99.7777 95.5818 99.8034 95.5646 99.812 95.5732V88.9076Z" fill="black"/>
<path d="M124.084 89.0653C124.084 88.7735 124.187 88.5182 124.394 88.2994C124.601 88.0805 124.862 87.9711 125.178 87.9711C125.47 87.9711 125.725 88.0684 125.944 88.2629C126.163 88.4574 126.278 88.7188 126.291 89.047C126.291 89.351 126.187 89.6123 125.981 89.8312C125.774 90.05 125.513 90.1594 125.196 90.1594C124.88 90.1594 124.619 90.0561 124.412 89.8494C124.206 89.6427 124.096 89.3814 124.084 89.0653ZM132.236 89.0653C132.236 88.7735 132.339 88.5182 132.546 88.2994C132.752 88.0805 133.014 87.9711 133.33 87.9711C133.621 87.9711 133.877 88.0684 134.096 88.2629C134.314 88.4574 134.43 88.7188 134.442 89.047C134.442 89.351 134.339 89.6123 134.132 89.8312C133.925 90.05 133.664 90.1594 133.348 90.1594C133.032 90.1594 132.77 90.0561 132.564 89.8494C132.357 89.6427 132.248 89.3814 132.236 89.0653ZM140.387 89.0653C140.387 88.7735 140.49 88.5182 140.697 88.2994C140.904 88.0805 141.165 87.9711 141.481 87.9711C141.773 87.9711 142.028 88.0684 142.247 88.2629C142.466 88.4574 142.581 88.7188 142.594 89.047C142.594 89.351 142.49 89.6123 142.283 89.8312C142.077 90.05 141.815 90.1594 141.499 90.1594C141.183 90.1594 140.922 90.0561 140.715 89.8494C140.509 89.6427 140.399 89.3814 140.387 89.0653Z" fill="black"/>
<path d="M163.218 88.3542C163.303 87.8436 163.632 87.254 164.203 86.5853C164.774 85.9167 165.48 85.5763 166.318 85.5641C166.744 85.5641 167.133 85.6735 167.485 85.8924C167.838 86.1112 168.099 86.3847 168.27 86.713C168.78 85.9471 169.394 85.5641 170.111 85.5641C170.561 85.5641 170.95 85.6978 171.279 85.9653C171.607 86.2328 171.777 86.5914 171.789 87.0412C171.789 87.3938 171.704 87.6795 171.534 87.8983C171.364 88.1171 171.2 88.2509 171.041 88.2995C170.883 88.3481 170.744 88.3724 170.622 88.3724C170.391 88.3724 170.203 88.3056 170.057 88.1718C169.911 88.0381 169.838 87.8618 169.838 87.643C169.838 87.0838 170.142 86.7008 170.75 86.4941C170.616 86.3361 170.373 86.2571 170.02 86.2571C169.862 86.2571 169.747 86.2692 169.674 86.2935C169.212 86.4881 168.871 86.8892 168.653 87.4971C167.923 90.1839 167.558 91.7521 167.558 92.202C167.558 92.5424 167.656 92.7855 167.85 92.9314C168.045 93.0773 168.257 93.1502 168.488 93.1502C168.938 93.1502 169.382 92.9496 169.82 92.5484C170.257 92.1473 170.555 91.6549 170.713 91.0713C170.75 90.9498 170.786 90.8829 170.823 90.8707C170.859 90.8586 170.956 90.8464 171.114 90.8343H171.187C171.37 90.8343 171.461 90.8829 171.461 90.9802C171.461 90.9923 171.449 91.0592 171.424 91.1808C171.23 91.8737 170.853 92.4877 170.294 93.0226C169.735 93.5575 169.084 93.825 168.343 93.825C167.492 93.825 166.847 93.442 166.41 92.6761C165.911 93.4298 165.34 93.8067 164.695 93.8067H164.586C163.99 93.8067 163.565 93.6487 163.309 93.3326C163.054 93.0165 162.92 92.6822 162.908 92.3296C162.908 91.9406 163.024 91.6245 163.255 91.3813C163.486 91.1382 163.759 91.0166 164.075 91.0166C164.598 91.0166 164.86 91.2719 164.86 91.7825C164.86 92.0257 164.787 92.2384 164.641 92.4208C164.495 92.6031 164.355 92.7247 164.221 92.7855C164.088 92.8463 164.008 92.8767 163.984 92.8767L163.929 92.8949C163.929 92.9071 163.966 92.9314 164.039 92.9679C164.112 93.0043 164.209 93.0469 164.331 93.0955C164.452 93.1441 164.568 93.1624 164.677 93.1502C165.115 93.1502 165.492 92.8767 165.808 92.3296C165.917 92.1351 166.057 91.7217 166.227 91.0896C166.397 90.4574 166.568 89.8009 166.738 89.1201C166.908 88.4393 167.005 88.0381 167.03 87.9165C167.09 87.5883 167.121 87.3512 167.121 87.2053C167.121 86.8649 167.03 86.6218 166.847 86.4759C166.665 86.33 166.458 86.2571 166.227 86.2571C165.741 86.2571 165.285 86.4516 164.86 86.8406C164.434 87.2296 164.136 87.7281 163.966 88.336C163.942 88.4454 163.911 88.5062 163.875 88.5183C163.838 88.5305 163.741 88.5426 163.583 88.5548H163.328C163.255 88.4818 163.218 88.415 163.218 88.3542Z" fill="black"/>
<path d="M172.972 92.6594C172.98 92.6079 172.993 92.5391 173.01 92.4531C173.028 92.3672 173.079 92.2039 173.165 91.9632C173.251 91.7226 173.337 91.5206 173.423 91.3573C173.509 91.1939 173.651 91.0349 173.848 90.8802C174.046 90.7255 174.244 90.6525 174.441 90.661C174.751 90.661 175.009 90.7384 175.215 90.8931C175.421 91.0478 175.55 91.1939 175.602 91.3315C175.653 91.469 175.679 91.5592 175.679 91.6022C175.679 91.6194 175.683 91.628 175.692 91.628L175.834 91.4862C176.358 90.9361 176.956 90.661 177.626 90.661C178.09 90.661 178.464 90.7771 178.748 91.0092C179.031 91.2412 179.177 91.5807 179.186 92.0277C179.195 92.4746 179.031 93.1493 178.696 94.0518C178.361 94.9543 178.198 95.5001 178.206 95.6892C178.206 95.9127 178.279 96.0244 178.425 96.0244C178.477 96.0244 178.516 96.0201 178.541 96.0115C178.791 95.9686 179.014 95.8053 179.212 95.5216C179.409 95.238 179.56 94.8942 179.663 94.4902C179.68 94.4214 179.766 94.3871 179.921 94.3871C180.093 94.3871 180.179 94.4214 180.179 94.4902C180.179 94.4988 180.162 94.5633 180.127 94.6836C180.058 94.9328 179.964 95.1778 179.843 95.4185C179.723 95.6591 179.525 95.8998 179.25 96.1405C178.975 96.3811 178.679 96.4972 178.361 96.4886C177.957 96.4886 177.665 96.3725 177.484 96.1405C177.304 95.9084 177.213 95.6677 177.213 95.4185C177.213 95.2552 177.368 94.7395 177.678 93.8713C177.987 93.0032 178.146 92.35 178.155 91.9116C178.155 91.4045 177.965 91.151 177.587 91.151H177.523C176.784 91.151 176.16 91.585 175.653 92.4531L175.563 92.6079L175.138 94.3355C174.854 95.4614 174.691 96.0674 174.648 96.1534C174.536 96.3854 174.351 96.5015 174.093 96.5015C173.982 96.5015 173.891 96.4757 173.823 96.4241C173.754 96.3725 173.707 96.321 173.681 96.2694C173.655 96.2178 173.646 96.1748 173.655 96.1405C173.655 96.0287 173.818 95.3282 174.145 94.0389C174.472 92.7497 174.643 92.0492 174.661 91.9374C174.669 91.8945 174.673 91.7956 174.673 91.6409C174.673 91.3057 174.57 91.1381 174.364 91.1381C174.037 91.1381 173.767 91.5678 173.552 92.4274C173.5 92.5993 173.474 92.6895 173.474 92.6981C173.457 92.7497 173.376 92.7755 173.23 92.7755H173.049C172.997 92.7239 172.972 92.6852 172.972 92.6594Z" fill="black"/>
<path d="M180.733 92.6594C180.742 92.6336 180.75 92.5993 180.759 92.5563C180.767 92.5133 180.789 92.4188 180.823 92.2726C180.858 92.1265 180.901 91.9933 180.952 91.873C181.004 91.7526 181.068 91.6108 181.146 91.4475C181.223 91.2842 181.309 91.1553 181.404 91.0607C181.498 90.9662 181.61 90.8716 181.739 90.7771C181.868 90.6825 182.009 90.6439 182.164 90.661C182.809 90.661 183.221 90.9361 183.402 91.4862L183.531 91.3701C184.064 90.8974 184.571 90.661 185.052 90.661C185.611 90.661 186.049 90.863 186.367 91.267C186.685 91.671 186.844 92.1609 186.844 92.7368C186.844 93.6651 186.518 94.5203 185.864 95.3024C185.211 96.0846 184.472 96.48 183.647 96.4886C183.458 96.4886 183.29 96.4628 183.144 96.4112C183.049 96.3682 182.951 96.3038 182.848 96.2178C182.744 96.1319 182.663 96.0588 182.603 95.9986L182.512 95.8955C182.504 95.9041 182.409 96.278 182.229 97.0172C182.048 97.7564 181.958 98.1303 181.958 98.1388C181.958 98.1904 181.992 98.2205 182.061 98.2291C182.13 98.2377 182.289 98.2506 182.538 98.2678H182.86C182.912 98.3279 182.938 98.3666 182.938 98.3838C182.938 98.401 182.925 98.4784 182.899 98.6159C182.873 98.719 182.848 98.7835 182.822 98.8093C182.796 98.8351 182.74 98.8522 182.654 98.8608C182.637 98.8608 182.59 98.8608 182.512 98.8608C182.435 98.8608 182.289 98.8565 182.074 98.8479C181.859 98.8394 181.593 98.8351 181.275 98.8351C180.673 98.8351 180.29 98.8436 180.127 98.8608H180.024C179.964 98.8007 179.934 98.7534 179.934 98.719C179.951 98.4869 180.007 98.3365 180.101 98.2678H180.359C180.651 98.2592 180.819 98.2076 180.862 98.1131C180.888 98.0615 181.15 97.0344 181.648 95.0317C182.147 93.029 182.409 91.9675 182.435 91.8472C182.444 91.8042 182.448 91.744 182.448 91.6667C182.448 91.3143 182.34 91.1381 182.126 91.1381C181.936 91.1381 181.777 91.2584 181.648 91.4991C181.52 91.7397 181.421 92.0019 181.352 92.2855C181.283 92.5692 181.232 92.7239 181.197 92.7497C181.18 92.7669 181.111 92.7755 180.991 92.7755H180.81C180.759 92.7239 180.733 92.6852 180.733 92.6594ZM182.731 95.0446C182.921 95.6978 183.239 96.0244 183.686 96.0244C183.943 96.0244 184.193 95.9256 184.433 95.7279C184.674 95.5302 184.872 95.281 185.026 94.9801C185.181 94.6879 185.336 94.2237 185.491 93.5877C185.645 92.9517 185.727 92.4789 185.735 92.1695V92.0921C185.735 91.4561 185.473 91.1381 184.949 91.1381C184.854 91.1381 184.76 91.151 184.665 91.1768C184.571 91.2025 184.476 91.2412 184.382 91.2928C184.287 91.3444 184.201 91.4002 184.124 91.4604C184.047 91.5206 183.973 91.585 183.905 91.6538C183.836 91.7226 183.771 91.787 183.711 91.8472C183.651 91.9073 183.604 91.9675 183.57 92.0277C183.535 92.0878 183.501 92.1308 183.466 92.1566L183.428 92.2082C183.428 92.2168 183.415 92.2769 183.389 92.3887C183.363 92.5004 183.316 92.6895 183.247 92.956C183.178 93.2224 183.118 93.4459 183.067 93.6264C182.843 94.5375 182.731 95.0102 182.731 95.0446Z" fill="black"/>
<path d="M187.837 3.53165V1.99984H194.165V34.8062H192.633V3.53165H187.837Z" fill="black"/>
<path d="M192.633 97.3298V66.0553H194.165V98.8616H187.837V97.3298H192.633Z" fill="black"/>
<g clip-path="url(#clip1_1125_629)">
<path d="M192.633 75.7139V23.3708H194.165V75.7139H192.633Z" fill="black"/>
</g>
<path d="M200.957 40H207.068V38.8926H202.188V35.502H206.815V34.4082H202.188V31.2432H207.068V30.1357H200.957V40ZM210.589 40.1367C211.539 40.1367 212.394 39.624 212.811 38.8447H212.838V40H214.027V35.085C214.027 33.6631 212.975 32.7539 211.293 32.7539C209.618 32.7539 208.6 33.6973 208.497 34.8662L208.49 34.9414H209.639L209.652 34.8799C209.789 34.2441 210.363 33.8066 211.279 33.8066C212.271 33.8066 212.838 34.333 212.838 35.2012V35.7959L210.801 35.9121C209.167 36.0078 208.224 36.7666 208.224 37.9766V37.9902C208.224 39.2822 209.174 40.1367 210.589 40.1367ZM209.44 37.9902V37.9766C209.44 37.3135 209.987 36.8896 210.938 36.835L212.838 36.7188V37.2998C212.838 38.332 211.977 39.1045 210.855 39.1045C210.001 39.1045 209.44 38.6738 209.44 37.9902ZM218.484 40.1367C220.091 40.1367 221.26 39.0908 221.451 37.7373L221.458 37.6895H220.289L220.275 37.7441C220.077 38.5371 219.455 39.084 218.484 39.084C217.254 39.084 216.406 38.1064 216.406 36.4521V36.4453C216.406 34.832 217.233 33.8066 218.471 33.8066C219.517 33.8066 220.091 34.4355 220.269 35.1465L220.282 35.2012H221.444L221.438 35.1465C221.287 33.9297 220.241 32.7539 218.471 32.7539C216.495 32.7539 215.189 34.1895 215.189 36.4316V36.4385C215.189 38.7012 216.468 40.1367 218.484 40.1367ZM222.613 40H223.803V35.8506C223.803 34.6406 224.534 33.8066 225.635 33.8066C226.742 33.8066 227.398 34.5654 227.398 35.8506V40H228.588V35.6455C228.588 33.9229 227.556 32.7539 226.045 32.7539C224.985 32.7539 224.213 33.2256 223.83 34.0254H223.803V30.1357H222.613V40ZM232.97 40H234.159V35.5566C234.159 34.5518 234.761 33.8887 235.684 33.8887C235.971 33.8887 236.224 33.9229 236.319 33.957V32.8018C236.224 32.7881 236.046 32.7539 235.841 32.7539C235.007 32.7539 234.351 33.2529 234.118 34.0391H234.091V32.8906H232.97V40ZM239.895 40.1367C241.856 40.1367 243.183 38.7148 243.183 36.4453V36.4316C243.183 34.1621 241.85 32.7539 239.888 32.7539C237.926 32.7539 236.6 34.1689 236.6 36.4316V36.4453C236.6 38.708 237.919 40.1367 239.895 40.1367ZM239.901 39.084C238.644 39.084 237.816 38.1201 237.816 36.4453V36.4316C237.816 34.7705 238.65 33.8066 239.888 33.8066C241.146 33.8066 241.966 34.7637 241.966 36.4316V36.4453C241.966 38.1133 241.152 39.084 239.901 39.084ZM245.794 40H247.004L248.604 34.4971H248.631L250.237 40H251.447L253.43 32.8906H252.254L250.832 38.6738H250.805L249.191 32.8906H248.043L246.437 38.6738H246.409L244.987 32.8906H243.805L245.794 40ZM257.948 31.6875C258.365 31.6875 258.693 31.3525 258.693 30.9424C258.693 30.5254 258.365 30.1973 257.948 30.1973C257.538 30.1973 257.203 30.5254 257.203 30.9424C257.203 31.3525 257.538 31.6875 257.948 31.6875ZM257.354 40H258.543V32.8906H257.354V40ZM262.686 40.1367C264.271 40.1367 265.447 39.2617 265.447 38.0176V38.0107C265.447 36.999 264.928 36.4316 263.492 36.083L262.364 35.8096C261.578 35.6182 261.257 35.2832 261.257 34.7979V34.791C261.257 34.1621 261.79 33.7451 262.651 33.7451C263.533 33.7451 264.06 34.2031 264.155 34.8936L264.162 34.9414H265.297L265.29 34.8525C265.201 33.6631 264.21 32.7539 262.651 32.7539C261.113 32.7539 260.04 33.6221 260.04 34.8457V34.8525C260.04 35.8779 260.689 36.5 262.029 36.8213L263.157 37.0947C263.964 37.293 264.23 37.5801 264.23 38.0928V38.0996C264.23 38.7422 263.656 39.1455 262.692 39.1455C261.722 39.1455 261.195 38.7285 261.052 38.0176L261.038 37.9492H259.849L259.855 38.0107C259.999 39.2822 261.011 40.1367 262.686 40.1367ZM272.502 40.1367C274.464 40.1367 275.79 38.7148 275.79 36.4453V36.4316C275.79 34.1621 274.457 32.7539 272.495 32.7539C270.533 32.7539 269.207 34.1689 269.207 36.4316V36.4453C269.207 38.708 270.526 40.1367 272.502 40.1367ZM272.509 39.084C271.251 39.084 270.424 38.1201 270.424 36.4453V36.4316C270.424 34.7705 271.258 33.8066 272.495 33.8066C273.753 33.8066 274.573 34.7637 274.573 36.4316V36.4453C274.573 38.1133 273.76 39.084 272.509 39.084ZM276.993 40H278.183V35.8164C278.183 34.6064 278.914 33.8066 280.035 33.8066C281.129 33.8066 281.669 34.4424 281.669 35.5977V40H282.858V35.3857C282.858 33.7656 281.956 32.7539 280.397 32.7539C279.317 32.7539 278.593 33.2393 278.21 33.9023H278.183V32.8906H276.993V40ZM287.302 40.1367C288.854 40.1367 290.016 39.207 290.248 38.0312L290.262 37.9629H289.093L289.072 38.0244C288.867 38.6328 288.231 39.084 287.329 39.084C286.064 39.084 285.258 38.2295 285.23 36.7666H290.351V36.3291C290.351 34.1963 289.168 32.7539 287.227 32.7539C285.285 32.7539 284.027 34.2646 284.027 36.4658V36.4727C284.027 38.708 285.258 40.1367 287.302 40.1367ZM287.22 33.8066C288.259 33.8066 289.024 34.4561 289.141 35.8369H285.251C285.381 34.5107 286.188 33.8066 287.22 33.8066ZM203.719 57.1367C205.681 57.1367 207.007 55.7148 207.007 53.4453V53.4316C207.007 51.1621 205.674 49.7539 203.712 49.7539C201.75 49.7539 200.424 51.1689 200.424 53.4316V53.4453C200.424 55.708 201.743 57.1367 203.719 57.1367ZM203.726 56.084C202.468 56.084 201.641 55.1201 201.641 53.4453V53.4316C201.641 51.7705 202.475 50.8066 203.712 50.8066C204.97 50.8066 205.79 51.7637 205.79 53.4316V53.4453C205.79 55.1133 204.977 56.084 203.726 56.084ZM211.744 57.1367C213.562 57.1367 214.766 55.6875 214.766 53.4453V53.4385C214.766 51.1963 213.549 49.7539 211.765 49.7539C210.76 49.7539 209.933 50.2598 209.488 51.0801H209.461V47.1357H208.271V57H209.461V55.7969H209.488C209.933 56.624 210.726 57.1367 211.744 57.1367ZM211.512 56.084C210.309 56.084 209.454 55.0381 209.454 53.4453V53.4385C209.454 51.8525 210.315 50.8066 211.512 50.8066C212.77 50.8066 213.549 51.8184 213.549 53.4385V53.4453C213.549 55.0791 212.77 56.084 211.512 56.084ZM218.484 57.1367C220.07 57.1367 221.246 56.2617 221.246 55.0176V55.0107C221.246 53.999 220.727 53.4316 219.291 53.083L218.163 52.8096C217.377 52.6182 217.056 52.2832 217.056 51.7979V51.791C217.056 51.1621 217.589 50.7451 218.45 50.7451C219.332 50.7451 219.858 51.2031 219.954 51.8936L219.961 51.9414H221.096L221.089 51.8525C221 50.6631 220.009 49.7539 218.45 49.7539C216.912 49.7539 215.839 50.6221 215.839 51.8457V51.8525C215.839 52.8779 216.488 53.5 217.828 53.8213L218.956 54.0947C219.763 54.293 220.029 54.5801 220.029 55.0928V55.0996C220.029 55.7422 219.455 56.1455 218.491 56.1455C217.521 56.1455 216.994 55.7285 216.851 55.0176L216.837 54.9492H215.647L215.654 55.0107C215.798 56.2822 216.81 57.1367 218.484 57.1367ZM225.409 57.1367C226.961 57.1367 228.123 56.207 228.355 55.0312L228.369 54.9629H227.2L227.18 55.0244C226.975 55.6328 226.339 56.084 225.437 56.084C224.172 56.084 223.365 55.2295 223.338 53.7666H228.458V53.3291C228.458 51.1963 227.275 49.7539 225.334 49.7539C223.393 49.7539 222.135 51.2646 222.135 53.4658V53.4727C222.135 55.708 223.365 57.1367 225.409 57.1367ZM225.327 50.8066C226.366 50.8066 227.132 51.4561 227.248 52.8369H223.358C223.488 51.5107 224.295 50.8066 225.327 50.8066ZM229.661 57H230.851V52.5566C230.851 51.5518 231.452 50.8887 232.375 50.8887C232.662 50.8887 232.915 50.9229 233.011 50.957V49.8018C232.915 49.7881 232.737 49.7539 232.532 49.7539C231.698 49.7539 231.042 50.2529 230.81 51.0391H230.782V49.8906H229.661V57ZM235.984 57H237.201L239.812 49.8906H238.575L236.606 55.7354H236.579L234.617 49.8906H233.366L235.984 57ZM242.69 57.1367C243.641 57.1367 244.495 56.624 244.912 55.8447H244.939V57H246.129V52.085C246.129 50.6631 245.076 49.7539 243.395 49.7539C241.72 49.7539 240.701 50.6973 240.599 51.8662L240.592 51.9414H241.74L241.754 51.8799C241.891 51.2441 242.465 50.8066 243.381 50.8066C244.372 50.8066 244.939 51.333 244.939 52.2012V52.7959L242.902 52.9121C241.269 53.0078 240.325 53.7666 240.325 54.9766V54.9902C240.325 56.2822 241.275 57.1367 242.69 57.1367ZM241.542 54.9902V54.9766C241.542 54.3135 242.089 53.8896 243.039 53.835L244.939 53.7188V54.2998C244.939 55.332 244.078 56.1045 242.957 56.1045C242.103 56.1045 241.542 55.6738 241.542 54.9902ZM249.95 57.1367C250.183 57.1367 250.436 57.1094 250.586 57.0889V56.125C250.483 56.1318 250.347 56.1523 250.203 56.1523C249.567 56.1523 249.232 55.9404 249.232 55.1816V50.875H250.586V49.8906H249.232V47.9697H248.002V49.8906H246.963V50.875H248.002V55.1885C248.002 56.5488 248.645 57.1367 249.95 57.1367ZM252.534 48.6875C252.951 48.6875 253.279 48.3525 253.279 47.9424C253.279 47.5254 252.951 47.1973 252.534 47.1973C252.124 47.1973 251.789 47.5254 251.789 47.9424C251.789 48.3525 252.124 48.6875 252.534 48.6875ZM251.939 57H253.129V49.8906H251.939V57ZM257.695 57.1367C259.657 57.1367 260.983 55.7148 260.983 53.4453V53.4316C260.983 51.1621 259.65 49.7539 257.688 49.7539C255.727 49.7539 254.4 51.1689 254.4 53.4316V53.4453C254.4 55.708 255.72 57.1367 257.695 57.1367ZM257.702 56.084C256.444 56.084 255.617 55.1201 255.617 53.4453V53.4316C255.617 51.7705 256.451 50.8066 257.688 50.8066C258.946 50.8066 259.767 51.7637 259.767 53.4316V53.4453C259.767 55.1133 258.953 56.084 257.702 56.084ZM262.187 57H263.376V52.8164C263.376 51.6064 264.107 50.8066 265.229 50.8066C266.322 50.8066 266.862 51.4424 266.862 52.5977V57H268.052V52.3857C268.052 50.7656 267.149 49.7539 265.591 49.7539C264.511 49.7539 263.786 50.2393 263.403 50.9023H263.376V49.8906H262.187V57ZM270.301 57.0957C270.738 57.0957 271.08 56.7539 271.08 56.3164C271.08 55.8789 270.738 55.5371 270.301 55.5371C269.863 55.5371 269.521 55.8789 269.521 56.3164C269.521 56.7539 269.863 57.0957 270.301 57.0957Z" fill="black"/>
<path d="M9.0459 122H15.1572V120.893H10.2764V117.502H14.9043V116.408H10.2764V113.243H15.1572V112.136H9.0459V122ZM18.6777 122.137C19.6279 122.137 20.4824 121.624 20.8994 120.845H20.9268V122H22.1162V117.085C22.1162 115.663 21.0635 114.754 19.3818 114.754C17.707 114.754 16.6885 115.697 16.5859 116.866L16.5791 116.941H17.7275L17.7412 116.88C17.8779 116.244 18.4521 115.807 19.3682 115.807C20.3594 115.807 20.9268 116.333 20.9268 117.201V117.796L18.8896 117.912C17.2559 118.008 16.3125 118.767 16.3125 119.977V119.99C16.3125 121.282 17.2627 122.137 18.6777 122.137ZM17.5293 119.99V119.977C17.5293 119.313 18.0762 118.89 19.0264 118.835L20.9268 118.719V119.3C20.9268 120.332 20.0654 121.104 18.9443 121.104C18.0898 121.104 17.5293 120.674 17.5293 119.99ZM26.5732 122.137C28.1797 122.137 29.3486 121.091 29.54 119.737L29.5469 119.689H28.3779L28.3643 119.744C28.166 120.537 27.5439 121.084 26.5732 121.084C25.3428 121.084 24.4951 120.106 24.4951 118.452V118.445C24.4951 116.832 25.3223 115.807 26.5596 115.807C27.6055 115.807 28.1797 116.436 28.3574 117.146L28.3711 117.201H29.5332L29.5264 117.146C29.376 115.93 28.3301 114.754 26.5596 114.754C24.584 114.754 23.2783 116.189 23.2783 118.432V118.438C23.2783 120.701 24.5566 122.137 26.5732 122.137ZM30.7021 122H31.8916V117.851C31.8916 116.641 32.623 115.807 33.7236 115.807C34.8311 115.807 35.4873 116.565 35.4873 117.851V122H36.6768V117.646C36.6768 115.923 35.6445 114.754 34.1338 114.754C33.0742 114.754 32.3018 115.226 31.9189 116.025H31.8916V112.136H30.7021V122ZM44.0049 122.137C45.6113 122.137 46.7803 121.091 46.9717 119.737L46.9785 119.689H45.8096L45.7959 119.744C45.5977 120.537 44.9756 121.084 44.0049 121.084C42.7744 121.084 41.9268 120.106 41.9268 118.452V118.445C41.9268 116.832 42.7539 115.807 43.9912 115.807C45.0371 115.807 45.6113 116.436 45.7891 117.146L45.8027 117.201H46.9648L46.958 117.146C46.8076 115.93 45.7617 114.754 43.9912 114.754C42.0156 114.754 40.71 116.189 40.71 118.432V118.438C40.71 120.701 41.9883 122.137 44.0049 122.137ZM51.0186 122.137C52.9805 122.137 54.3066 120.715 54.3066 118.445V118.432C54.3066 116.162 52.9736 114.754 51.0117 114.754C49.0498 114.754 47.7236 116.169 47.7236 118.432V118.445C47.7236 120.708 49.043 122.137 51.0186 122.137ZM51.0254 121.084C49.7676 121.084 48.9404 120.12 48.9404 118.445V118.432C48.9404 116.771 49.7744 115.807 51.0117 115.807C52.2695 115.807 53.0898 116.764 53.0898 118.432V118.445C53.0898 120.113 52.2764 121.084 51.0254 121.084ZM55.5713 122H56.7607V112.136H55.5713V122ZM60.7939 122.137C61.874 122.137 62.5986 121.651 62.9814 120.988H63.0088V122H64.1982V114.891H63.0088V119.074C63.0088 120.284 62.2773 121.084 61.1562 121.084C60.0625 121.084 59.5225 120.448 59.5225 119.293V114.891H58.333V119.505C58.333 121.125 59.2354 122.137 60.7939 122.137ZM65.75 122H66.9395V117.543C66.9395 116.552 67.623 115.807 68.5664 115.807C69.4482 115.807 70.0225 116.374 70.0225 117.235V122H71.2119V117.481C71.2119 116.511 71.875 115.807 72.8184 115.807C73.7549 115.807 74.2949 116.388 74.2949 117.365V122H75.4844V117.092C75.4844 115.677 74.5752 114.754 73.167 114.754C72.1689 114.754 71.335 115.267 70.9385 116.121H70.9111C70.6035 115.253 69.8857 114.754 68.915 114.754C67.999 114.754 67.2881 115.226 66.9668 115.93H66.9395V114.891H65.75V122ZM77.002 122H78.1914V117.816C78.1914 116.606 78.9229 115.807 80.0439 115.807C81.1377 115.807 81.6777 116.442 81.6777 117.598V122H82.8672V117.386C82.8672 115.766 81.9648 114.754 80.4062 114.754C79.3262 114.754 78.6016 115.239 78.2188 115.902H78.1914V114.891H77.002V122ZM87.9258 113.688C88.3428 113.688 88.6709 113.353 88.6709 112.942C88.6709 112.525 88.3428 112.197 87.9258 112.197C87.5156 112.197 87.1807 112.525 87.1807 112.942C87.1807 113.353 87.5156 113.688 87.9258 113.688ZM87.3311 122H88.5205V114.891H87.3311V122ZM92.6631 122.137C94.249 122.137 95.4248 121.262 95.4248 120.018V120.011C95.4248 118.999 94.9053 118.432 93.4697 118.083L92.3418 117.81C91.5557 117.618 91.2344 117.283 91.2344 116.798V116.791C91.2344 116.162 91.7676 115.745 92.6289 115.745C93.5107 115.745 94.0371 116.203 94.1328 116.894L94.1396 116.941H95.2744L95.2676 116.853C95.1787 115.663 94.1875 114.754 92.6289 114.754C91.0908 114.754 90.0176 115.622 90.0176 116.846V116.853C90.0176 117.878 90.667 118.5 92.0068 118.821L93.1348 119.095C93.9414 119.293 94.208 119.58 94.208 120.093V120.1C94.208 120.742 93.6338 121.146 92.6699 121.146C91.6992 121.146 91.1729 120.729 91.0293 120.018L91.0156 119.949H89.8262L89.833 120.011C89.9766 121.282 90.9883 122.137 92.6631 122.137ZM102.479 122.137C104.441 122.137 105.768 120.715 105.768 118.445V118.432C105.768 116.162 104.435 114.754 102.473 114.754C100.511 114.754 99.1846 116.169 99.1846 118.432V118.445C99.1846 120.708 100.504 122.137 102.479 122.137ZM102.486 121.084C101.229 121.084 100.401 120.12 100.401 118.445V118.432C100.401 116.771 101.235 115.807 102.473 115.807C103.73 115.807 104.551 116.764 104.551 118.432V118.445C104.551 120.113 103.737 121.084 102.486 121.084ZM106.971 122H108.16V117.816C108.16 116.606 108.892 115.807 110.013 115.807C111.106 115.807 111.646 116.442 111.646 117.598V122H112.836V117.386C112.836 115.766 111.934 114.754 110.375 114.754C109.295 114.754 108.57 115.239 108.188 115.902H108.16V114.891H106.971V122ZM117.279 122.137C118.831 122.137 119.993 121.207 120.226 120.031L120.239 119.963H119.07L119.05 120.024C118.845 120.633 118.209 121.084 117.307 121.084C116.042 121.084 115.235 120.229 115.208 118.767H120.328V118.329C120.328 116.196 119.146 114.754 117.204 114.754C115.263 114.754 114.005 116.265 114.005 118.466V118.473C114.005 120.708 115.235 122.137 117.279 122.137ZM117.197 115.807C118.236 115.807 119.002 116.456 119.118 117.837H115.229C115.358 116.511 116.165 115.807 117.197 115.807ZM124.402 124.393H125.592V120.811H125.619C126.063 121.631 126.891 122.137 127.896 122.137C129.68 122.137 130.896 120.694 130.896 118.452V118.445C130.896 116.203 129.693 114.754 127.875 114.754C126.856 114.754 126.063 115.267 125.619 116.094H125.592V114.891H124.402V124.393ZM127.643 121.084C126.446 121.084 125.585 120.038 125.585 118.452V118.445C125.585 116.853 126.439 115.807 127.643 115.807C128.9 115.807 129.68 116.812 129.68 118.445V118.452C129.68 120.072 128.9 121.084 127.643 121.084ZM132.1 122H133.289V117.557C133.289 116.552 133.891 115.889 134.813 115.889C135.101 115.889 135.354 115.923 135.449 115.957V114.802C135.354 114.788 135.176 114.754 134.971 114.754C134.137 114.754 133.48 115.253 133.248 116.039H133.221V114.891H132.1V122ZM139.004 122.137C140.556 122.137 141.718 121.207 141.95 120.031L141.964 119.963H140.795L140.774 120.024C140.569 120.633 139.934 121.084 139.031 121.084C137.767 121.084 136.96 120.229 136.933 118.767H142.053V118.329C142.053 116.196 140.87 114.754 138.929 114.754C136.987 114.754 135.729 116.265 135.729 118.466V118.473C135.729 120.708 136.96 122.137 139.004 122.137ZM138.922 115.807C139.961 115.807 140.727 116.456 140.843 117.837H136.953C137.083 116.511 137.89 115.807 138.922 115.807ZM145.929 122.137C146.947 122.137 147.74 121.624 148.185 120.797H148.212V122H149.401V112.136H148.212V116.08H148.185C147.74 115.26 146.913 114.754 145.908 114.754C144.124 114.754 142.907 116.196 142.907 118.438V118.445C142.907 120.688 144.11 122.137 145.929 122.137ZM146.161 121.084C144.903 121.084 144.124 120.079 144.124 118.445V118.438C144.124 116.818 144.903 115.807 146.161 115.807C147.357 115.807 148.219 116.853 148.219 118.438V118.445C148.219 120.038 147.364 121.084 146.161 121.084ZM151.678 113.688C152.095 113.688 152.423 113.353 152.423 112.942C152.423 112.525 152.095 112.197 151.678 112.197C151.268 112.197 150.933 112.525 150.933 112.942C150.933 113.353 151.268 113.688 151.678 113.688ZM151.083 122H152.272V114.891H151.083V122ZM156.839 122.137C158.445 122.137 159.614 121.091 159.806 119.737L159.812 119.689H158.644L158.63 119.744C158.432 120.537 157.81 121.084 156.839 121.084C155.608 121.084 154.761 120.106 154.761 118.452V118.445C154.761 116.832 155.588 115.807 156.825 115.807C157.871 115.807 158.445 116.436 158.623 117.146L158.637 117.201H159.799L159.792 117.146C159.642 115.93 158.596 114.754 156.825 114.754C154.85 114.754 153.544 116.189 153.544 118.432V118.438C153.544 120.701 154.822 122.137 156.839 122.137ZM163.217 122.137C163.449 122.137 163.702 122.109 163.853 122.089V121.125C163.75 121.132 163.613 121.152 163.47 121.152C162.834 121.152 162.499 120.94 162.499 120.182V115.875H163.853V114.891H162.499V112.97H161.269V114.891H160.229V115.875H161.269V120.188C161.269 121.549 161.911 122.137 163.217 122.137ZM167.872 122.137C169.834 122.137 171.16 120.715 171.16 118.445V118.432C171.16 116.162 169.827 114.754 167.865 114.754C165.903 114.754 164.577 116.169 164.577 118.432V118.445C164.577 120.708 165.896 122.137 167.872 122.137ZM167.879 121.084C166.621 121.084 165.794 120.12 165.794 118.445V118.432C165.794 116.771 166.628 115.807 167.865 115.807C169.123 115.807 169.943 116.764 169.943 118.432V118.445C169.943 120.113 169.13 121.084 167.879 121.084ZM172.363 122H173.553V117.557C173.553 116.552 174.154 115.889 175.077 115.889C175.364 115.889 175.617 115.923 175.713 115.957V114.802C175.617 114.788 175.439 114.754 175.234 114.754C174.4 114.754 173.744 115.253 173.512 116.039H173.484V114.891H172.363V122ZM31.7822 139H32.999L35.6104 131.891H34.373L32.4043 137.735H32.377L30.415 131.891H29.1641L31.7822 139ZM38.4883 139.137C39.4385 139.137 40.293 138.624 40.71 137.845H40.7373V139H41.9268V134.085C41.9268 132.663 40.874 131.754 39.1924 131.754C37.5176 131.754 36.499 132.697 36.3965 133.866L36.3896 133.941H37.5381L37.5518 133.88C37.6885 133.244 38.2627 132.807 39.1787 132.807C40.1699 132.807 40.7373 133.333 40.7373 134.201V134.796L38.7002 134.912C37.0664 135.008 36.123 135.767 36.123 136.977V136.99C36.123 138.282 37.0732 139.137 38.4883 139.137ZM37.3398 136.99V136.977C37.3398 136.313 37.8867 135.89 38.8369 135.835L40.7373 135.719V136.3C40.7373 137.332 39.876 138.104 38.7549 138.104C37.9004 138.104 37.3398 137.674 37.3398 136.99ZM43.4375 139H44.627V134.557C44.627 133.552 45.2285 132.889 46.1514 132.889C46.4385 132.889 46.6914 132.923 46.7871 132.957V131.802C46.6914 131.788 46.5137 131.754 46.3086 131.754C45.4746 131.754 44.8184 132.253 44.5859 133.039H44.5586V131.891H43.4375V139ZM48.4277 130.688C48.8447 130.688 49.1729 130.353 49.1729 129.942C49.1729 129.525 48.8447 129.197 48.4277 129.197C48.0176 129.197 47.6826 129.525 47.6826 129.942C47.6826 130.353 48.0176 130.688 48.4277 130.688ZM47.833 139H49.0225V131.891H47.833V139ZM52.7207 139.137C53.6709 139.137 54.5254 138.624 54.9424 137.845H54.9697V139H56.1592V134.085C56.1592 132.663 55.1064 131.754 53.4248 131.754C51.75 131.754 50.7314 132.697 50.6289 133.866L50.6221 133.941H51.7705L51.7842 133.88C51.9209 133.244 52.4951 132.807 53.4111 132.807C54.4023 132.807 54.9697 133.333 54.9697 134.201V134.796L52.9326 134.912C51.2988 135.008 50.3555 135.767 50.3555 136.977V136.99C50.3555 138.282 51.3057 139.137 52.7207 139.137ZM51.5723 136.99V136.977C51.5723 136.313 52.1191 135.89 53.0693 135.835L54.9697 135.719V136.3C54.9697 137.332 54.1084 138.104 52.9873 138.104C52.1328 138.104 51.5723 137.674 51.5723 136.99ZM61.2041 139.137C63.0225 139.137 64.2256 137.688 64.2256 135.445V135.438C64.2256 133.196 63.0088 131.754 61.2246 131.754C60.2197 131.754 59.3926 132.26 58.9482 133.08H58.9209V129.136H57.7314V139H58.9209V137.797H58.9482C59.3926 138.624 60.1855 139.137 61.2041 139.137ZM60.9717 138.084C59.7686 138.084 58.9141 137.038 58.9141 135.445V135.438C58.9141 133.853 59.7754 132.807 60.9717 132.807C62.2295 132.807 63.0088 133.818 63.0088 135.438V135.445C63.0088 137.079 62.2295 138.084 60.9717 138.084ZM65.4834 139H66.6729V129.136H65.4834V139ZM71.2051 139.137C72.7568 139.137 73.9189 138.207 74.1514 137.031L74.165 136.963H72.9961L72.9756 137.024C72.7705 137.633 72.1348 138.084 71.2324 138.084C69.9678 138.084 69.1611 137.229 69.1338 135.767H74.2539V135.329C74.2539 133.196 73.0713 131.754 71.1299 131.754C69.1885 131.754 67.9307 133.265 67.9307 135.466V135.473C67.9307 137.708 69.1611 139.137 71.2051 139.137ZM71.123 132.807C72.1621 132.807 72.9277 133.456 73.0439 134.837H69.1543C69.2842 133.511 70.0908 132.807 71.123 132.807ZM80.7959 141.393H81.7939C80.8096 140.251 80.0645 137.544 80.0645 135.261C80.0645 132.978 80.8096 130.277 81.7939 129.136H80.7959C79.4629 130.831 78.8545 132.827 78.8545 135.261C78.8545 137.694 79.4629 139.704 80.7959 141.393ZM85.7861 139.137C87.748 139.137 89.0742 137.715 89.0742 135.445V135.432C89.0742 133.162 87.7412 131.754 85.7793 131.754C83.8174 131.754 82.4912 133.169 82.4912 135.432V135.445C82.4912 137.708 83.8105 139.137 85.7861 139.137ZM85.793 138.084C84.5352 138.084 83.708 137.12 83.708 135.445V135.432C83.708 133.771 84.542 132.807 85.7793 132.807C87.0371 132.807 87.8574 133.764 87.8574 135.432V135.445C87.8574 137.113 87.0439 138.084 85.793 138.084ZM90.2773 139H91.4668V134.816C91.4668 133.606 92.1982 132.807 93.3193 132.807C94.4131 132.807 94.9531 133.442 94.9531 134.598V139H96.1426V134.386C96.1426 132.766 95.2402 131.754 93.6816 131.754C92.6016 131.754 91.877 132.239 91.4941 132.902H91.4668V131.891H90.2773V139ZM100.586 139.137C102.138 139.137 103.3 138.207 103.532 137.031L103.546 136.963H102.377L102.356 137.024C102.151 137.633 101.516 138.084 100.613 138.084C99.3486 138.084 98.542 137.229 98.5146 135.767H103.635V135.329C103.635 133.196 102.452 131.754 100.511 131.754C98.5693 131.754 97.3115 133.265 97.3115 135.466V135.473C97.3115 137.708 98.542 139.137 100.586 139.137ZM100.504 132.807C101.543 132.807 102.309 133.456 102.425 134.837H98.5352C98.665 133.511 99.4717 132.807 100.504 132.807ZM108.092 139H109.281V132.875H110.73V131.891H109.268V131.022C109.268 130.318 109.596 129.983 110.252 129.983C110.437 129.983 110.621 129.99 110.765 130.011V129.047C110.587 129.02 110.307 128.999 110.04 128.999C108.728 128.999 108.092 129.648 108.092 131.016V131.891H107.101V132.875H108.092V139ZM114.203 139.137C115.755 139.137 116.917 138.207 117.149 137.031L117.163 136.963H115.994L115.974 137.024C115.769 137.633 115.133 138.084 114.23 138.084C112.966 138.084 112.159 137.229 112.132 135.767H117.252V135.329C117.252 133.196 116.069 131.754 114.128 131.754C112.187 131.754 110.929 133.265 110.929 135.466V135.473C110.929 137.708 112.159 139.137 114.203 139.137ZM114.121 132.807C115.16 132.807 115.926 133.456 116.042 134.837H112.152C112.282 133.511 113.089 132.807 114.121 132.807ZM120.533 139.137C121.483 139.137 122.338 138.624 122.755 137.845H122.782V139H123.972V134.085C123.972 132.663 122.919 131.754 121.237 131.754C119.562 131.754 118.544 132.697 118.441 133.866L118.435 133.941H119.583L119.597 133.88C119.733 133.244 120.308 132.807 121.224 132.807C122.215 132.807 122.782 133.333 122.782 134.201V134.796L120.745 134.912C119.111 135.008 118.168 135.767 118.168 136.977V136.99C118.168 138.282 119.118 139.137 120.533 139.137ZM119.385 136.99V136.977C119.385 136.313 119.932 135.89 120.882 135.835L122.782 135.719V136.3C122.782 137.332 121.921 138.104 120.8 138.104C119.945 138.104 119.385 137.674 119.385 136.99ZM127.793 139.137C128.025 139.137 128.278 139.109 128.429 139.089V138.125C128.326 138.132 128.189 138.152 128.046 138.152C127.41 138.152 127.075 137.94 127.075 137.182V132.875H128.429V131.891H127.075V129.97H125.845V131.891H124.806V132.875H125.845V137.188C125.845 138.549 126.487 139.137 127.793 139.137ZM132.134 139.137C133.214 139.137 133.938 138.651 134.321 137.988H134.349V139H135.538V131.891H134.349V136.074C134.349 137.284 133.617 138.084 132.496 138.084C131.402 138.084 130.862 137.448 130.862 136.293V131.891H129.673V136.505C129.673 138.125 130.575 139.137 132.134 139.137ZM137.09 139H138.279V134.557C138.279 133.552 138.881 132.889 139.804 132.889C140.091 132.889 140.344 132.923 140.439 132.957V131.802C140.344 131.788 140.166 131.754 139.961 131.754C139.127 131.754 138.471 132.253 138.238 133.039H138.211V131.891H137.09V139ZM143.994 139.137C145.546 139.137 146.708 138.207 146.94 137.031L146.954 136.963H145.785L145.765 137.024C145.56 137.633 144.924 138.084 144.021 138.084C142.757 138.084 141.95 137.229 141.923 135.767H147.043V135.329C147.043 133.196 145.86 131.754 143.919 131.754C141.978 131.754 140.72 133.265 140.72 135.466V135.473C140.72 137.708 141.95 139.137 143.994 139.137ZM143.912 132.807C144.951 132.807 145.717 133.456 145.833 134.837H141.943C142.073 133.511 142.88 132.807 143.912 132.807ZM148.745 141.393C150.078 139.704 150.687 137.694 150.687 135.261C150.687 132.827 150.078 130.831 148.745 129.136H147.747C148.731 130.277 149.477 132.978 149.477 135.261C149.477 137.544 148.731 140.251 147.747 141.393H148.745ZM153.489 139.096C153.927 139.096 154.269 138.754 154.269 138.316C154.269 137.879 153.927 137.537 153.489 137.537C153.052 137.537 152.71 137.879 152.71 138.316C152.71 138.754 153.052 139.096 153.489 139.096Z" fill="black"/>
<defs>
<clipPath id="clip0_1125_629">
<rect width="12.1633" height="34.8943" fill="white" transform="matrix(1 0 0 -1 39.3822 66.9897)"/>
</clipPath>
<clipPath id="clip1_1125_629">
<rect width="12.1633" height="34.8943" fill="white" transform="matrix(1 0 0 -1 187.837 66.9897)"/>
</clipPath>
</defs>
</svg>
