<svg width="225" height="172" viewBox="0 0 225 172" fill="none" xmlns="http://www.w3.org/2000/svg">
<path d="M1.21589e-06 171.41L11.1536 168.422L2.98859 160.257L1.21589e-06 171.41ZM69.2929 100.703L5.65686 164.339L7.07107 165.753L70.7071 102.117L69.2929 100.703Z" fill="black"/>
<path d="M183 111.41L173 105.637L173 117.184L183 111.41ZM49 112.41L174 112.41L174 110.41L49 110.41L49 112.41Z" fill="black"/>
<path d="M9.87376 87.4576L66.6191 56.5046L175.616 60.3966L184.338 91.8931L9.87376 87.4576Z" fill="#D9D9D9" stroke="black"/>
<path d="M60 12.4102L54.2265 22.4102L65.7735 22.4102L60 12.4102ZM61 63.4102L61 21.4102L59 21.4102L59 63.4102L61 63.4102Z" fill="black"/>
<path d="M60 128.41L60 88.4102" stroke="black" stroke-width="2"/>
<line x1="161.14" y1="71.0914" x2="130.591" y2="27.7813" stroke="black" stroke-dasharray="4 2"/>
<circle cx="127" cy="20.4102" r="4" fill="#1F77B4"/>
<path d="M135 9.04574C135 8.88706 135.085 8.61505 135.255 8.2297C135.425 7.84434 135.697 7.44199 136.071 7.02263C136.445 6.60328 136.864 6.39927 137.329 6.4106C137.794 6.4106 138.168 6.54094 138.451 6.80162C138.735 7.0623 138.882 7.42499 138.893 7.88968C138.871 8.10502 138.854 8.22403 138.842 8.2467C138.842 8.2807 138.752 8.54138 138.57 9.02874C138.389 9.51609 138.202 10.0658 138.009 10.6778C137.816 11.2898 137.726 11.7772 137.737 12.1399C137.737 12.6272 137.816 12.9673 137.975 13.1599C138.134 13.3526 138.372 13.4546 138.689 13.466C138.95 13.466 139.194 13.4036 139.42 13.2789C139.647 13.1543 139.823 13.0239 139.947 12.8879C140.072 12.7519 140.225 12.5649 140.406 12.3269C140.406 12.3156 140.435 12.2022 140.491 11.9869C140.548 11.7715 140.627 11.4372 140.729 10.9838C140.831 10.5305 140.939 10.1111 141.052 9.72577C141.483 8.02568 141.721 7.13597 141.766 7.05664C141.914 6.75062 142.157 6.59761 142.497 6.59761C142.645 6.59761 142.764 6.63728 142.854 6.71662C142.945 6.79596 143.007 6.86396 143.041 6.92063C143.075 6.9773 143.087 7.0283 143.075 7.07364C143.075 7.22098 142.798 8.41104 142.242 10.6438C141.687 12.8766 141.37 14.1007 141.29 14.316C140.973 15.2567 140.423 16.0048 139.641 16.5601C138.859 17.1155 138.077 17.3988 137.295 17.4102C136.785 17.4102 136.337 17.2855 135.952 17.0361C135.567 16.7868 135.374 16.4128 135.374 15.9141C135.374 15.6647 135.414 15.4551 135.493 15.285C135.572 15.115 135.68 14.9904 135.816 14.911C135.952 14.8317 136.065 14.775 136.156 14.741C136.247 14.707 136.343 14.69 136.445 14.69C136.944 14.69 137.193 14.928 137.193 15.4041C137.193 15.6307 137.125 15.8291 136.989 15.9991C136.853 16.1691 136.723 16.2824 136.598 16.3391C136.473 16.3958 136.4 16.4241 136.377 16.4241L136.326 16.4411C136.349 16.4978 136.456 16.5658 136.649 16.6451C136.842 16.7245 137.034 16.7641 137.227 16.7641H137.363C137.556 16.7641 137.703 16.7528 137.805 16.7301C138.179 16.6281 138.525 16.4128 138.842 16.0841C139.16 15.7554 139.403 15.4041 139.573 15.03C139.743 14.656 139.874 14.3387 139.964 14.078C140.055 13.8173 140.1 13.6473 140.1 13.568L139.998 13.636C139.93 13.6813 139.823 13.7436 139.675 13.823C139.528 13.9023 139.381 13.9703 139.233 14.027C139.007 14.0837 138.786 14.112 138.57 14.112C138.049 14.112 137.59 13.9873 137.193 13.738C136.796 13.4886 136.536 13.0863 136.411 12.5309C136.4 12.4516 136.394 12.2759 136.394 12.0039C136.394 11.3579 136.592 10.5135 136.989 9.47076C137.386 8.42804 137.584 7.76501 137.584 7.48166C137.584 7.47032 137.584 7.45899 137.584 7.44766C137.584 7.34565 137.584 7.27765 137.584 7.24365C137.584 7.20964 137.561 7.16998 137.516 7.12464C137.471 7.0793 137.408 7.05664 137.329 7.05664H137.261C137 7.05664 136.762 7.16431 136.547 7.37965C136.332 7.595 136.162 7.82734 136.037 8.07669C135.912 8.32603 135.816 8.56405 135.748 8.79072C135.68 9.0174 135.635 9.14207 135.612 9.16474C135.589 9.18741 135.499 9.19874 135.34 9.19874H135.102C135.034 9.13074 135 9.07974 135 9.04574Z" fill="black"/>
<path d="M167.028 68.1621L169.888 66.1447L154.326 44.0811M135.903 24.0348L138.763 22.0174L154.326 44.0811M154.326 44.0811L157.186 42.0637" stroke="black"/>
<path d="M162 38.1179C162 37.9744 162.077 37.7284 162.231 37.38C162.384 37.0315 162.63 36.6677 162.968 36.2885C163.307 35.9093 163.686 35.7248 164.106 35.7351C164.526 35.7351 164.864 35.8529 165.121 36.0887C165.377 36.3244 165.51 36.6523 165.52 37.0725C165.5 37.2673 165.485 37.3749 165.474 37.3954C165.474 37.4261 165.392 37.6618 165.228 38.1025C165.064 38.5432 164.895 39.0403 164.721 39.5937C164.547 40.1471 164.465 40.5878 164.475 40.9158C164.475 41.3565 164.547 41.6639 164.69 41.8382C164.834 42.0124 165.049 42.1046 165.336 42.1149C165.572 42.1149 165.792 42.0585 165.997 41.9458C166.202 41.833 166.361 41.7152 166.474 41.5922C166.586 41.4692 166.725 41.3001 166.889 41.0849C166.889 41.0746 166.914 40.9721 166.965 40.7774C167.017 40.5827 167.088 40.2804 167.181 39.8704C167.273 39.4605 167.37 39.0813 167.473 38.7328C167.862 37.1955 168.077 36.391 168.118 36.3193C168.252 36.0425 168.472 35.9042 168.779 35.9042C168.913 35.9042 169.02 35.9401 169.102 36.0118C169.184 36.0835 169.241 36.145 169.271 36.1963C169.302 36.2475 169.312 36.2936 169.302 36.3346C169.302 36.4679 169.051 37.544 168.549 39.563C168.047 41.5819 167.76 42.6888 167.688 42.8835C167.401 43.7342 166.904 44.4106 166.197 44.9127C165.49 45.4149 164.783 45.6711 164.075 45.6814C163.614 45.6814 163.209 45.5687 162.861 45.3432C162.512 45.1177 162.338 44.7795 162.338 44.3286C162.338 44.1031 162.374 43.9135 162.446 43.7598C162.518 43.606 162.615 43.4933 162.738 43.4216C162.861 43.3498 162.963 43.2986 163.045 43.2678C163.127 43.2371 163.214 43.2217 163.307 43.2217C163.758 43.2217 163.983 43.4369 163.983 43.8674C163.983 44.0724 163.922 44.2517 163.799 44.4054C163.676 44.5592 163.558 44.6617 163.445 44.7129C163.332 44.7641 163.266 44.7898 163.245 44.7898L163.199 44.8051C163.22 44.8564 163.317 44.9179 163.491 44.9896C163.665 45.0614 163.84 45.0972 164.014 45.0972H164.137C164.311 45.0972 164.444 45.087 164.537 45.0665C164.875 44.9742 165.187 44.7795 165.474 44.4823C165.761 44.1851 165.982 43.8674 166.135 43.5292C166.289 43.191 166.407 42.904 166.489 42.6683C166.571 42.4326 166.612 42.2788 166.612 42.2071L166.52 42.2686C166.458 42.3096 166.361 42.366 166.228 42.4377C166.094 42.5094 165.961 42.5709 165.828 42.6222C165.623 42.6734 165.423 42.699 165.228 42.699C164.757 42.699 164.342 42.5863 163.983 42.3608C163.624 42.1354 163.389 41.7715 163.276 41.2694C163.266 41.1976 163.261 41.0388 163.261 40.7928C163.261 40.2086 163.44 39.4451 163.799 38.5022C164.157 37.5593 164.337 36.9598 164.337 36.7036C164.337 36.6933 164.337 36.6831 164.337 36.6728C164.337 36.5806 164.337 36.5191 164.337 36.4884C164.337 36.4576 164.316 36.4217 164.275 36.3807C164.234 36.3398 164.178 36.3193 164.106 36.3193H164.045C163.809 36.3193 163.594 36.4166 163.399 36.6113C163.204 36.8061 163.05 37.0162 162.938 37.2416C162.825 37.4671 162.738 37.6823 162.676 37.8873C162.615 38.0923 162.574 38.205 162.553 38.2255C162.533 38.246 162.451 38.2562 162.307 38.2562H162.092C162.031 38.1948 162 38.1486 162 38.1179Z" fill="black"/>
<path d="M173.917 38.8863C173.917 38.8863 173.917 38.8197 173.917 38.6864C173.917 38.5532 173.989 38.4507 174.132 38.379H183.064C183.218 38.461 183.295 38.5635 183.295 38.6864C183.295 38.8094 183.218 38.9119 183.064 38.9939H174.132C173.989 38.9222 173.917 38.8197 173.917 38.6864V38.8863Z" fill="black"/>
<path d="M189.816 45.0204C189.836 45.0204 189.867 45.0306 189.908 45.0511C189.949 45.0716 190.005 45.087 190.077 45.0972C190.149 45.1075 190.21 45.1126 190.262 45.1126C190.395 45.1126 190.518 45.046 190.631 44.9127C190.743 44.7795 190.825 44.6309 190.877 44.4669C190.979 44.1902 191.153 43.4062 191.399 42.1149C191.645 40.8235 191.881 39.5937 192.106 38.4254C192.332 37.257 192.445 36.6677 192.445 36.6575V36.6113H191.722C191.24 36.6113 190.984 36.6011 190.953 36.5806C190.912 36.5498 190.892 36.4986 190.892 36.4269L191 35.9964C191.02 35.9452 191.061 35.9196 191.123 35.9196C191.184 35.9196 191.425 35.9144 191.845 35.9042C192.337 35.9042 192.583 35.8991 192.583 35.8888C192.583 35.8683 192.629 35.6121 192.721 35.1202C192.814 34.6282 192.875 34.331 192.906 34.2285C193.285 32.5375 194.033 31.692 195.15 31.692C195.529 31.7125 195.842 31.8252 196.088 32.0302C196.334 32.2352 196.457 32.5068 196.457 32.845C196.457 33.2139 196.349 33.4804 196.134 33.6444C195.919 33.8083 195.704 33.8954 195.488 33.9057C195.038 33.9057 194.812 33.6905 194.812 33.26C194.812 33.0653 194.868 32.8962 194.981 32.7527C195.094 32.6092 195.217 32.5016 195.35 32.4299L195.488 32.353C195.325 32.2915 195.171 32.2608 195.027 32.2608C194.904 32.2608 194.786 32.312 194.674 32.4145C194.561 32.517 194.484 32.6605 194.443 32.845C194.371 33.1422 194.289 33.5419 194.197 34.0441C194.105 34.5462 194.023 34.9716 193.951 35.32C193.879 35.6685 193.844 35.8529 193.844 35.8734C193.844 35.8939 194.125 35.9042 194.689 35.9042C195.15 35.9042 195.417 35.9093 195.488 35.9196C195.56 35.9298 195.617 35.9605 195.658 36.0118C195.668 36.0528 195.658 36.1399 195.627 36.2731C195.596 36.4064 195.57 36.4884 195.55 36.5191C195.529 36.5703 195.483 36.596 195.412 36.596C195.34 36.596 195.063 36.6011 194.581 36.6113H193.721L193.367 38.4868C192.875 41.0285 192.532 42.617 192.337 43.2525C192.06 44.1236 191.702 44.7693 191.261 45.1895C190.882 45.5174 190.508 45.6814 190.139 45.6814C189.811 45.6814 189.514 45.584 189.247 45.3893C188.981 45.1946 188.847 44.9179 188.847 44.5592C188.847 44.18 188.955 43.9033 189.17 43.729C189.385 43.5548 189.601 43.4677 189.816 43.4677C190.267 43.4677 190.492 43.6829 190.492 44.1134C190.492 44.3081 190.436 44.4772 190.323 44.6207C190.21 44.7641 190.087 44.8718 189.954 44.9435L189.816 45.0204Z" fill="black"/>
<path d="M195.915 42.6622C195.915 41.9231 196.056 41.1442 196.339 40.3254C196.621 39.5066 197.006 38.8001 197.491 38.206C197.976 37.6118 198.48 37.2713 199.002 37.1843C199.009 37.1843 199.038 37.1843 199.089 37.1843C199.139 37.1843 199.183 37.1807 199.219 37.1735C199.61 37.2024 199.915 37.38 200.132 37.706C200.415 38.1408 200.556 38.7241 200.556 39.4559C200.556 40.2892 200.393 41.1369 200.067 41.9992C199.741 42.8614 199.324 43.5679 198.817 44.1186C198.31 44.6692 197.824 44.9446 197.361 44.9446H197.284C197.024 44.9446 196.799 44.8721 196.611 44.7272C196.422 44.5823 196.281 44.3903 196.187 44.1512C196.093 43.9121 196.024 43.6693 195.98 43.423C195.937 43.1766 195.915 42.923 195.915 42.6622ZM199.697 38.6842C199.697 37.9451 199.505 37.5756 199.121 37.5756C198.86 37.5756 198.607 37.7386 198.36 38.0647C198.114 38.3908 197.911 38.7603 197.752 39.1733C197.592 39.5863 197.469 39.9486 197.382 40.2602C197.295 40.5717 197.248 40.7529 197.241 40.8036C197.596 40.8109 197.947 40.8145 198.295 40.8145L199.35 40.8036C199.357 40.7964 199.386 40.6768 199.436 40.4449C199.487 40.2131 199.545 39.9232 199.61 39.5754C199.676 39.2276 199.705 38.9306 199.697 38.6842ZM196.763 43.4012C196.763 44.1693 196.955 44.5533 197.339 44.5533C197.447 44.5533 197.563 44.5171 197.687 44.4446C197.81 44.3722 197.958 44.2345 198.132 44.0316C198.306 43.8287 198.48 43.5135 198.654 43.086C198.828 42.6585 199.002 42.1296 199.176 41.4992L199.23 41.3144H197.111C197.111 41.3362 197.078 41.4738 197.013 41.7274C196.948 41.981 196.89 42.2636 196.839 42.5752C196.788 42.8868 196.763 43.1621 196.763 43.4012Z" fill="black"/>
<path d="M202.848 38.6866C202.848 37.9794 202.899 37.3081 203.001 36.6727C203.104 36.0373 203.222 35.489 203.355 35.0278C203.488 34.5666 203.678 34.1157 203.924 33.675C204.17 33.2343 204.364 32.8909 204.508 32.645C204.651 32.399 204.867 32.1325 205.153 31.8456C205.44 31.5586 205.61 31.3844 205.661 31.3229C205.712 31.2614 205.84 31.1538 206.045 31.0001H206.245H206.306C206.45 31.0001 206.522 31.0462 206.522 31.1384C206.522 31.1692 206.435 31.2768 206.26 31.4613C206.086 31.6457 205.876 31.9173 205.63 32.276C205.384 32.6347 205.133 33.0754 204.877 33.5981C204.621 34.1208 204.405 34.8279 204.231 35.7196C204.057 36.6112 203.97 37.6002 203.97 38.6866C203.97 39.7729 204.057 40.7568 204.231 41.6382C204.405 42.5196 204.615 43.2318 204.861 43.775C205.107 44.3182 205.358 44.7589 205.615 45.0971C205.871 45.4353 206.086 45.7069 206.26 45.9119C206.435 46.1168 206.522 46.2244 206.522 46.2347C206.522 46.3269 206.445 46.373 206.291 46.373H206.245H206.045L205.615 46.0041C204.651 45.133 203.949 44.0466 203.509 42.745C203.068 41.4434 202.848 40.0906 202.848 38.6866Z" fill="black"/>
<path d="M208.028 42.5298H207.997C207.854 42.5298 207.782 42.4734 207.782 42.3607C207.782 42.3197 207.798 42.2377 207.828 42.1147C207.869 41.9712 207.905 41.8892 207.936 41.8687C207.967 41.8482 208.064 41.8329 208.228 41.8226C209.109 41.7919 209.801 41.5254 210.303 41.0232C210.406 40.9207 211 40.2751 212.087 39.0862C213.173 37.8974 213.711 37.2927 213.701 37.2722C212.584 34.4231 212 32.9729 211.948 32.9217C211.856 32.8089 211.533 32.7474 210.98 32.7372H210.549C210.488 32.6757 210.457 32.6347 210.457 32.6142C210.457 32.5937 210.467 32.4964 210.488 32.3221C210.529 32.1889 210.58 32.0915 210.642 32.03H210.857C211.205 32.0505 211.825 32.0608 212.717 32.0608C213.055 32.0608 213.368 32.0608 213.655 32.0608C213.942 32.0608 214.172 32.0557 214.347 32.0454C214.521 32.0352 214.623 32.0352 214.654 32.0454C214.828 32.0454 214.915 32.1018 214.915 32.2145C214.915 32.2248 214.905 32.2914 214.885 32.4144C214.844 32.5681 214.808 32.6603 214.777 32.6911C214.746 32.7218 214.664 32.7372 214.531 32.7372C214.213 32.7679 213.937 32.8551 213.701 32.9985L214.885 35.9809L215.699 35.0739C216.775 33.9158 217.314 33.2753 217.314 33.1523C217.314 32.9678 217.191 32.8397 216.945 32.7679C216.893 32.7679 216.827 32.7577 216.745 32.7372C216.591 32.7372 216.514 32.6808 216.514 32.5681C216.514 32.5476 216.524 32.4656 216.545 32.3221C216.586 32.1889 216.637 32.0915 216.699 32.03H216.883C216.893 32.03 217.021 32.03 217.267 32.03C217.513 32.03 217.79 32.0403 218.098 32.0608C218.405 32.0813 218.615 32.0864 218.728 32.0762C219.65 32.0762 220.158 32.0608 220.25 32.03H220.373C220.444 32.1018 220.48 32.1581 220.48 32.1991C220.46 32.4554 220.398 32.6347 220.296 32.7372H220.05C219.701 32.7474 219.389 32.7936 219.112 32.8756C218.835 32.9575 218.625 33.0447 218.482 33.1369C218.338 33.2291 218.215 33.3214 218.113 33.4136L217.944 33.552C217.944 33.5417 217.457 34.0746 216.483 35.1508L215.146 36.6266C215.146 36.6368 215.305 37.0468 215.622 37.8564C215.94 38.666 216.273 39.4962 216.622 40.3468C216.97 41.1975 217.16 41.6382 217.191 41.6689C217.293 41.7611 217.606 41.8124 218.128 41.8226C218.487 41.8226 218.666 41.8687 218.666 41.961C218.666 41.9815 218.656 42.0532 218.636 42.1762C218.595 42.3402 218.559 42.4375 218.528 42.4683C218.497 42.499 218.425 42.5144 218.313 42.5144C218.282 42.5144 218.113 42.5144 217.805 42.5144C217.498 42.5144 217.042 42.5093 216.437 42.499C215.812 42.499 215.336 42.499 215.008 42.499C214.68 42.499 214.5 42.5042 214.47 42.5144C214.295 42.5144 214.208 42.4683 214.208 42.3761C214.208 42.3658 214.218 42.2889 214.239 42.1455C214.259 42.043 214.28 41.9712 214.3 41.9302C214.321 41.8892 214.347 41.8636 214.377 41.8534C214.408 41.8431 214.454 41.8329 214.516 41.8226C214.577 41.8124 214.659 41.8073 214.762 41.8073C214.864 41.8073 214.997 41.7714 215.161 41.6996C215.336 41.6177 215.423 41.5664 215.423 41.5459C215.412 41.5459 215.172 40.9464 214.7 39.7473L213.978 37.9333C212.051 40.024 211.062 41.1257 211.011 41.2385C210.97 41.3204 210.949 41.3819 210.949 41.4229C210.949 41.6177 211.098 41.7458 211.395 41.8073C211.405 41.8073 211.436 41.8073 211.487 41.8073C211.538 41.8073 211.569 41.8124 211.579 41.8226C211.61 41.8226 211.631 41.8226 211.641 41.8226C211.651 41.8226 211.667 41.8278 211.687 41.838C211.708 41.8482 211.723 41.8636 211.733 41.8841C211.743 41.9046 211.749 41.9405 211.749 41.9917C211.749 42.084 211.738 42.166 211.718 42.2377C211.687 42.3709 211.656 42.4478 211.626 42.4683C211.595 42.4888 211.518 42.5042 211.395 42.5144C211.364 42.5144 211.272 42.5144 211.118 42.5144C210.964 42.5144 210.749 42.5093 210.473 42.499C210.196 42.4888 209.893 42.4888 209.566 42.499C208.766 42.499 208.254 42.5093 208.028 42.5298Z" fill="black"/>
<path d="M221.403 31.0154L221.464 31.0001C221.515 31.0001 221.567 31.0001 221.618 31.0001H221.802L222.233 31.369C223.196 32.2402 223.898 33.3265 224.339 34.6281C224.78 35.9297 225 37.2825 225 38.6866C225 39.3835 224.949 40.0548 224.846 40.7004C224.744 41.3461 224.626 41.8944 224.493 42.3453C224.359 42.7963 224.17 43.2472 223.924 43.6981C223.678 44.1491 223.483 44.4924 223.34 44.7281C223.196 44.9639 222.986 45.2252 222.709 45.5122C222.433 45.7991 222.269 45.9682 222.217 46.0195C222.166 46.0707 222.048 46.1681 221.864 46.3116C221.833 46.3423 221.813 46.3628 221.802 46.373H221.618C221.536 46.373 221.48 46.373 221.449 46.373C221.418 46.373 221.392 46.3577 221.372 46.3269C221.351 46.2962 221.336 46.2501 221.326 46.1886C221.336 46.1783 221.392 46.1117 221.495 45.9887C223.084 44.3387 223.878 41.9046 223.878 38.6866C223.878 35.4685 223.084 33.0344 221.495 31.3844C221.392 31.2614 221.336 31.1948 221.326 31.1845C221.326 31.1026 221.351 31.0462 221.403 31.0154Z" fill="black"/>
</svg>
