<svg width="172" height="155" viewBox="0 0 172 155" fill="none" xmlns="http://www.w3.org/2000/svg">
<line x1="71.7389" y1="72.5736" x2="113.063" y2="47.273" stroke="black" stroke-dasharray="4 2"/>
<path d="M8.00001 0L2.2265 10L13.7735 10L8.00001 0ZM9 155L9.00001 9L7.00001 9L7 155L9 155Z" fill="black"/>
<path d="M141 146L131 140.226L131 151.773L141 146ZM8.74228e-08 147L132 147L132 145L-8.74228e-08 145L8.74228e-08 147Z" fill="black"/>
<circle cx="116" cy="45" r="4" fill="#1F77B4"/>
<circle cx="68" cy="75" r="3" stroke="#E99D42" stroke-width="2"/>
<circle cx="102" cy="132" r="3" stroke="#E99D42" stroke-width="2"/>
<circle cx="34" cy="24" r="3" stroke="#E99D42" stroke-width="2"/>
<circle cx="48" cy="46" r="3" stroke="#E99D42" stroke-width="2"/>
<path d="M72 80.2053L73.8547 83.1735L98.0241 68.0708M120.339 49.9999L122.193 52.9681L98.0241 68.0708M98.0241 68.0708L99.8788 71.039" stroke="black"/>
<path d="M123 33.6356C123 33.4769 123.085 33.2049 123.255 32.8195C123.425 32.4342 123.697 32.0318 124.071 31.6125C124.445 31.1931 124.864 30.9891 125.329 31.0004C125.794 31.0004 126.168 31.1308 126.451 31.3915C126.735 31.6521 126.882 32.0148 126.893 32.4795C126.871 32.6949 126.854 32.8139 126.842 32.8365C126.842 32.8705 126.752 33.1312 126.57 33.6186C126.389 34.1059 126.202 34.6556 126.009 35.2677C125.816 35.8797 125.726 36.3671 125.737 36.7297C125.737 37.2171 125.816 37.5571 125.975 37.7498C126.134 37.9425 126.372 38.0445 126.689 38.0558C126.95 38.0558 127.194 37.9935 127.42 37.8688C127.647 37.7441 127.823 37.6138 127.947 37.4778C128.072 37.3418 128.225 37.1548 128.406 36.9167C128.406 36.9054 128.435 36.7921 128.491 36.5767C128.548 36.3614 128.627 36.027 128.729 35.5737C128.831 35.1203 128.939 34.701 129.052 34.3156C129.483 32.6155 129.721 31.7258 129.766 31.6465C129.914 31.3405 130.157 31.1875 130.497 31.1875C130.645 31.1875 130.764 31.2271 130.854 31.3065C130.945 31.3858 131.007 31.4538 131.041 31.5105C131.075 31.5671 131.087 31.6181 131.075 31.6635C131.075 31.8108 130.798 33.0009 130.242 35.2337C129.687 37.4664 129.37 38.6905 129.29 38.9058C128.973 39.8466 128.423 40.5946 127.641 41.15C126.859 41.7053 126.077 41.9887 125.295 42C124.785 42 124.337 41.8753 123.952 41.626C123.567 41.3766 123.374 41.0026 123.374 40.5039C123.374 40.2546 123.414 40.0449 123.493 39.8749C123.572 39.7049 123.68 39.5802 123.816 39.5009C123.952 39.4215 124.065 39.3649 124.156 39.3309C124.247 39.2969 124.343 39.2799 124.445 39.2799C124.944 39.2799 125.193 39.5179 125.193 39.9939C125.193 40.2206 125.125 40.4189 124.989 40.5889C124.853 40.7589 124.723 40.8723 124.598 40.9289C124.473 40.9856 124.4 41.014 124.377 41.014L124.326 41.031C124.349 41.0876 124.456 41.1556 124.649 41.235C124.842 41.3143 125.034 41.354 125.227 41.354H125.363C125.556 41.354 125.703 41.3426 125.805 41.32C126.179 41.218 126.525 41.0026 126.842 40.6739C127.16 40.3453 127.403 39.9939 127.573 39.6199C127.743 39.2459 127.874 38.9285 127.964 38.6678C128.055 38.4072 128.1 38.2371 128.1 38.1578L127.998 38.2258C127.93 38.2711 127.823 38.3335 127.675 38.4128C127.528 38.4922 127.381 38.5602 127.233 38.6168C127.007 38.6735 126.786 38.7018 126.57 38.7018C126.049 38.7018 125.59 38.5772 125.193 38.3278C124.796 38.0785 124.536 37.6761 124.411 37.1208C124.4 37.0414 124.394 36.8657 124.394 36.5937C124.394 35.9477 124.592 35.1033 124.989 34.0606C125.386 33.0179 125.584 32.3548 125.584 32.0715C125.584 32.0602 125.584 32.0488 125.584 32.0375C125.584 31.9355 125.584 31.8675 125.584 31.8335C125.584 31.7995 125.561 31.7598 125.516 31.7145C125.471 31.6691 125.408 31.6465 125.329 31.6465H125.261C125 31.6465 124.762 31.7542 124.547 31.9695C124.332 32.1848 124.162 32.4172 124.037 32.6665C123.912 32.9159 123.816 33.1539 123.748 33.3806C123.68 33.6072 123.635 33.7319 123.612 33.7546C123.589 33.7773 123.499 33.7886 123.34 33.7886H123.102C123.034 33.7206 123 33.6696 123 33.6356Z" fill="black"/>
<path d="M20.1147 91.1362C20.1383 91.1362 20.1737 91.148 20.2208 91.1715C20.268 91.1951 20.3329 91.2128 20.4155 91.2246C20.498 91.2364 20.5688 91.2423 20.6278 91.2423C20.7811 91.2423 20.9227 91.1656 21.0524 91.0123C21.1822 90.859 21.2765 90.6879 21.3355 90.4992C21.4535 90.1807 21.654 89.2784 21.9371 87.7921C22.2202 86.3059 22.4915 84.8904 22.751 83.5457C23.0105 82.201 23.1402 81.5228 23.1402 81.511V81.4579H22.3087C21.7543 81.4579 21.4594 81.4461 21.424 81.4225C21.3768 81.3871 21.3532 81.3282 21.3532 81.2456L21.4771 80.7502C21.5007 80.6912 21.5478 80.6617 21.6186 80.6617C21.6894 80.6617 21.9666 80.6558 22.4502 80.644C23.0164 80.644 23.2995 80.6381 23.2995 80.6263C23.2995 80.6027 23.3526 80.3078 23.4587 79.7417C23.5649 79.1755 23.6357 78.8334 23.671 78.7154C24.1075 76.7692 24.9685 75.796 26.2543 75.796C26.6907 75.8196 27.0505 75.9494 27.3336 76.1853C27.6166 76.4212 27.7582 76.7338 27.7582 77.123C27.7582 77.5477 27.6343 77.8544 27.3866 78.0431C27.1389 78.2318 26.8912 78.3321 26.6435 78.3439C26.1245 78.3439 25.865 78.0962 25.865 77.6008C25.865 77.3767 25.9299 77.182 26.0596 77.0169C26.1894 76.8518 26.3309 76.7279 26.4843 76.6453L26.6435 76.5569C26.4548 76.4861 26.2779 76.4507 26.1127 76.4507C25.9712 76.4507 25.8355 76.5097 25.7058 76.6276C25.576 76.7456 25.4876 76.9107 25.4404 77.123C25.3578 77.4651 25.2634 77.9251 25.1573 78.5031C25.0511 79.0811 24.9568 79.5706 24.8742 79.9717C24.7916 80.3727 24.7503 80.585 24.7503 80.6086C24.7503 80.6322 25.0747 80.644 25.7235 80.644C26.2543 80.644 26.5609 80.6499 26.6435 80.6617C26.7261 80.6735 26.791 80.7089 26.8381 80.7679C26.8499 80.8151 26.8381 80.9153 26.8028 81.0687C26.7674 81.222 26.7379 81.3164 26.7143 81.3518C26.6907 81.4107 26.6376 81.4402 26.555 81.4402C26.4725 81.4402 26.154 81.4461 25.5996 81.4579H24.6088L24.2018 83.6165C23.6357 86.5418 23.2405 88.3701 23.0164 89.1014C22.6979 90.104 22.2851 90.8472 21.7779 91.3308C21.3414 91.7082 20.9109 91.897 20.4862 91.897C20.1088 91.897 19.7667 91.7849 19.46 91.5608C19.1533 91.3367 19 91.0182 19 90.6054C19 90.1689 19.1239 89.8504 19.3716 89.6499C19.6193 89.4494 19.867 89.3491 20.1147 89.3491C20.6337 89.3491 20.8932 89.5968 20.8932 90.0923C20.8932 90.3164 20.8283 90.511 20.6986 90.6761C20.5688 90.8413 20.4273 90.9651 20.2739 91.0477L20.1147 91.1362Z" fill="black"/>
<path d="M27.3283 92.3731C27.3283 91.5224 27.4909 90.626 27.8162 89.6836C28.1414 88.7412 28.5834 87.9281 29.1421 87.2443C29.7009 86.5605 30.2805 86.1685 30.8809 86.0684C30.8893 86.0684 30.9226 86.0684 30.981 86.0684C31.0394 86.0684 31.0894 86.0643 31.1311 86.0559C31.5814 86.0893 31.9317 86.2936 32.1819 86.6689C32.5071 87.1693 32.6697 87.8406 32.6697 88.6829C32.6697 89.6419 32.4821 90.6176 32.1068 91.61C31.7315 92.6024 31.252 93.4155 30.6683 94.0493C30.0845 94.6831 29.5258 95 28.992 95H28.9045C28.6042 95 28.3457 94.9166 28.1289 94.7498C27.9121 94.583 27.7495 94.362 27.641 94.0868C27.5326 93.8116 27.4534 93.5323 27.4034 93.2487C27.3533 92.9652 27.3283 92.6733 27.3283 92.3731ZM31.6815 87.7947C31.6815 86.9441 31.4605 86.5188 31.0185 86.5188C30.7183 86.5188 30.4264 86.7064 30.1429 87.0817C29.8593 87.457 29.6258 87.8823 29.4424 88.3576C29.2589 88.833 29.1171 89.2499 29.017 89.6085C28.917 89.9671 28.8628 90.1756 28.8544 90.234C29.2631 90.2423 29.6675 90.2465 30.0678 90.2465L31.2812 90.234C31.2895 90.2257 31.3229 90.0881 31.3813 89.8212C31.4397 89.5543 31.5064 89.2208 31.5814 88.8205C31.6565 88.4202 31.6898 88.0783 31.6815 87.7947ZM28.304 93.2237C28.304 94.1077 28.525 94.5497 28.967 94.5497C29.0921 94.5497 29.2255 94.508 29.3673 94.4246C29.5091 94.3412 29.68 94.1827 29.8802 93.9492C30.0803 93.7157 30.2805 93.353 30.4806 92.8609C30.6808 92.3689 30.8809 91.7601 31.0811 91.0346L31.1436 90.8219H28.7043C28.7043 90.847 28.6668 91.0054 28.5917 91.2973C28.5167 91.5892 28.45 91.9144 28.3916 92.273C28.3332 92.6316 28.304 92.9485 28.304 93.2237Z" fill="black"/>
<path d="M29.1396 84.9427L30.8534 83.2664L30.9535 83.3665C32.0376 84.4006 32.5797 84.926 32.5797 84.9427L32.2544 85.3054C32.2378 85.2971 31.9959 85.0886 31.5289 84.68L30.8659 84.1045L30.1779 84.6925C30.0695 84.7842 29.9611 84.8801 29.8527 84.9802C29.7443 85.0803 29.6567 85.1595 29.59 85.2179L29.4899 85.2929C29.4732 85.3096 29.4107 85.2512 29.3023 85.1178L29.1396 84.9427Z" fill="black"/>
<path d="M36.5429 83.8465C36.5429 83.0326 36.6019 82.26 36.7198 81.5286C36.8378 80.7973 36.9734 80.1662 37.1268 79.6354C37.2801 79.1046 37.4983 78.5856 37.7814 78.0784C38.0645 77.5712 38.2886 77.1761 38.4538 76.893C38.6189 76.6099 38.8666 76.3032 39.1969 75.9729C39.5272 75.6426 39.7218 75.4421 39.7808 75.3714C39.8398 75.3006 39.9872 75.1767 40.2231 74.9998H40.4531H40.5239C40.689 74.9998 40.7716 75.0529 40.7716 75.159C40.7716 75.1944 40.6713 75.3183 40.4708 75.5306C40.2703 75.7429 40.0285 76.0555 39.7454 76.4683C39.4623 76.8812 39.1733 77.3884 38.8784 77.99C38.5835 78.5915 38.3358 79.4054 38.1353 80.4316C37.9348 81.4579 37.8345 82.5961 37.8345 83.8465C37.8345 85.0968 37.9348 86.2292 38.1353 87.2436C38.3358 88.258 38.5776 89.0778 38.8607 89.7029C39.1438 90.3281 39.4328 90.8353 39.7277 91.2246C40.0226 91.6138 40.2703 91.9264 40.4708 92.1623C40.6713 92.3982 40.7716 92.5221 40.7716 92.5339C40.7716 92.64 40.6831 92.6931 40.5062 92.6931H40.4531H40.2231L39.7277 92.2685C38.6189 91.2659 37.8109 90.0155 37.3037 88.5175C36.7965 87.0195 36.5429 85.4624 36.5429 83.8465Z" fill="black"/>
<path d="M42.5056 88.27H42.4702C42.3051 88.27 42.2225 88.2051 42.2225 88.0754C42.2225 88.0282 42.2402 87.9338 42.2756 87.7923C42.3228 87.6272 42.3641 87.5328 42.3994 87.5092C42.4348 87.4856 42.5469 87.4679 42.7356 87.4561C43.75 87.4207 44.5462 87.1141 45.1242 86.5361C45.2422 86.4181 45.9263 85.675 47.1766 84.3067C48.427 82.9384 49.0462 82.2425 49.0344 82.2189C47.7487 78.9397 47.0764 77.2707 47.0174 77.2117C46.9112 77.0819 46.5397 77.0112 45.9027 76.9994H45.4073C45.3365 76.9286 45.3011 76.8814 45.3011 76.8578C45.3011 76.8342 45.3129 76.7222 45.3365 76.5217C45.3837 76.3683 45.4427 76.2563 45.5135 76.1855H45.7612C46.1622 76.2091 46.8758 76.2209 47.9021 76.2209C48.2913 76.2209 48.6511 76.2209 48.9814 76.2209C49.3116 76.2209 49.577 76.215 49.7776 76.2032C49.9781 76.1914 50.096 76.1914 50.1314 76.2032C50.3319 76.2032 50.4322 76.268 50.4322 76.3978C50.4322 76.4096 50.4204 76.4863 50.3968 76.6278C50.3496 76.8047 50.3084 76.9109 50.273 76.9463C50.2376 76.9817 50.1432 76.9994 49.9899 76.9994C49.6242 77.0348 49.3057 77.135 49.0344 77.3002L50.3968 80.7327L51.3346 79.6888C52.5731 78.3559 53.1924 77.6186 53.1924 77.4771C53.1924 77.2648 53.0508 77.1173 52.7677 77.0348C52.7087 77.0348 52.6321 77.023 52.5377 76.9994C52.3608 76.9994 52.2723 76.9345 52.2723 76.8047C52.2723 76.7812 52.2841 76.6868 52.3077 76.5217C52.3549 76.3683 52.4139 76.2563 52.4846 76.1855H52.697C52.7087 76.1855 52.8562 76.1855 53.1393 76.1855C53.4224 76.1855 53.7409 76.1973 54.0947 76.2209C54.4486 76.2445 54.6904 76.2504 54.8202 76.2386C55.8817 76.2386 56.4656 76.2209 56.5718 76.1855H56.7133C56.7959 76.268 56.8372 76.3329 56.8372 76.3801C56.8136 76.675 56.7428 76.8814 56.6249 76.9994H56.3418C55.9407 77.0112 55.581 77.0642 55.2625 77.1586C54.944 77.253 54.7022 77.3532 54.5371 77.4594C54.3719 77.5656 54.2304 77.6717 54.1124 77.7779L53.9178 77.9371C53.9178 77.9253 53.3575 78.5387 52.2369 79.7772L50.6976 81.4758C50.6976 81.4876 50.8804 81.9594 51.2461 82.8912C51.6118 83.8231 51.9951 84.7785 52.3962 85.7576C52.7972 86.7366 53.0154 87.2438 53.0508 87.2792C53.1688 87.3854 53.5285 87.4443 54.1301 87.4561C54.543 87.4561 54.7494 87.5092 54.7494 87.6154C54.7494 87.639 54.7376 87.7215 54.714 87.8631C54.6668 88.0518 54.6255 88.1639 54.5901 88.1992C54.5548 88.2346 54.4722 88.2523 54.3424 88.2523C54.307 88.2523 54.1124 88.2523 53.7586 88.2523C53.4047 88.2523 52.8798 88.2464 52.1838 88.2346C51.4643 88.2346 50.9158 88.2346 50.5384 88.2346C50.1609 88.2346 49.9545 88.2405 49.9191 88.2523C49.7186 88.2523 49.6183 88.1992 49.6183 88.0931C49.6183 88.0813 49.6301 87.9928 49.6537 87.8277C49.6773 87.7097 49.7009 87.6272 49.7245 87.58C49.7481 87.5328 49.7776 87.5033 49.8129 87.4915C49.8483 87.4797 49.9014 87.4679 49.9722 87.4561C50.043 87.4443 50.1373 87.4384 50.2553 87.4384C50.3732 87.4384 50.5266 87.3971 50.7153 87.3146C50.9158 87.2202 51.0161 87.1612 51.0161 87.1376C51.0043 87.1376 50.7271 86.4476 50.1845 85.0675L49.3529 82.9797C47.1353 85.386 45.9971 86.654 45.9381 86.7838C45.8909 86.8781 45.8673 86.9489 45.8673 86.9961C45.8673 87.2202 46.0384 87.3677 46.3804 87.4384C46.3922 87.4384 46.4276 87.4384 46.4866 87.4384C46.5456 87.4384 46.581 87.4443 46.5928 87.4561C46.6281 87.4561 46.6517 87.4561 46.6635 87.4561C46.6753 87.4561 46.693 87.462 46.7166 87.4738C46.7402 87.4856 46.7579 87.5033 46.7697 87.5269C46.7815 87.5505 46.7874 87.5918 46.7874 87.6508C46.7874 87.7569 46.7756 87.8513 46.752 87.9338C46.7166 88.0872 46.6812 88.1757 46.6458 88.1992C46.6104 88.2228 46.522 88.2405 46.3804 88.2523C46.345 88.2523 46.2389 88.2523 46.062 88.2523C45.885 88.2523 45.6373 88.2464 45.3188 88.2346C45.0004 88.2228 44.6524 88.2228 44.2749 88.2346C43.3549 88.2346 42.7651 88.2464 42.5056 88.27Z" fill="black"/>
<path d="M57.8988 75.0175L57.9695 74.9998C58.0285 74.9998 58.0875 74.9998 58.1465 74.9998H58.3588L58.8542 75.4244C59.963 76.4271 60.771 77.6774 61.2782 79.1754C61.7854 80.6735 62.039 82.2305 62.039 83.8465C62.039 84.6486 61.98 85.4212 61.8621 86.1643C61.7441 86.9074 61.6085 87.5385 61.4551 88.0575C61.3018 88.5765 61.0836 89.0955 60.8005 89.6145C60.5174 90.1335 60.2933 90.5286 60.1281 90.7999C59.963 91.0712 59.7212 91.372 59.4027 91.7023C59.0842 92.0326 58.8955 92.2272 58.8365 92.2862C58.7775 92.3451 58.6419 92.4572 58.4296 92.6223C58.3942 92.6577 58.3706 92.6813 58.3588 92.6931H58.1465C58.0521 92.6931 57.9872 92.6931 57.9518 92.6931C57.9165 92.6931 57.887 92.6754 57.8634 92.64C57.8398 92.6046 57.8221 92.5516 57.8103 92.4808C57.8221 92.469 57.887 92.3923 58.0049 92.2508C59.8332 90.3517 60.7474 87.5503 60.7474 83.8465C60.7474 80.1427 59.8332 77.3412 58.0049 75.4421C57.887 75.3006 57.8221 75.2239 57.8103 75.2121C57.8103 75.1177 57.8398 75.0529 57.8988 75.0175Z" fill="black"/>
<path d="M98 80.1921C98 80.027 98.0885 79.7439 98.2654 79.3428C98.4423 78.9418 98.7254 78.523 99.1147 78.0866C99.5039 77.6502 99.9404 77.4378 100.424 77.4496C100.908 77.4496 101.297 77.5853 101.592 77.8566C101.887 78.1279 102.04 78.5053 102.052 78.989C102.028 79.2131 102.01 79.3369 101.999 79.3605C101.999 79.3959 101.904 79.6672 101.716 80.1744C101.527 80.6816 101.332 81.2537 101.132 81.8907C100.931 82.5276 100.837 83.0348 100.849 83.4123C100.849 83.9195 100.931 84.2734 101.096 84.4739C101.261 84.6744 101.509 84.7806 101.839 84.7924C102.111 84.7924 102.364 84.7275 102.6 84.5977C102.836 84.468 103.019 84.3323 103.149 84.1908C103.279 84.0492 103.438 83.8546 103.626 83.6069C103.626 83.5951 103.656 83.4772 103.715 83.253C103.774 83.0289 103.856 82.681 103.963 82.2091C104.069 81.7373 104.181 81.3009 104.299 80.8998C104.747 79.1305 104.995 78.2046 105.042 78.122C105.195 77.8035 105.449 77.6443 105.803 77.6443C105.956 77.6443 106.08 77.6855 106.174 77.7681C106.269 77.8507 106.334 77.9215 106.369 77.9804C106.404 78.0394 106.416 78.0925 106.404 78.1397C106.404 78.293 106.115 79.5316 105.537 81.8553C104.959 84.179 104.629 85.4529 104.547 85.677C104.216 86.6561 103.644 87.4346 102.83 88.0126C102.016 88.5905 101.202 88.8854 100.389 88.8972C99.8578 88.8972 99.3919 88.7675 98.9908 88.508C98.5898 88.2485 98.3893 87.8592 98.3893 87.3402C98.3893 87.0807 98.4305 86.8625 98.5131 86.6856C98.5957 86.5086 98.7077 86.3789 98.8493 86.2963C98.9908 86.2137 99.1088 86.1548 99.2031 86.1194C99.2975 86.084 99.3978 86.0663 99.5039 86.0663C100.023 86.0663 100.282 86.314 100.282 86.8094C100.282 87.0453 100.212 87.2517 100.07 87.4287C99.9286 87.6056 99.7929 87.7236 99.6632 87.7825C99.5334 87.8415 99.4568 87.871 99.4332 87.871L99.3801 87.8887C99.4037 87.9477 99.5157 88.0184 99.7163 88.101C99.9168 88.1836 100.117 88.2249 100.318 88.2249H100.459C100.66 88.2249 100.813 88.2131 100.919 88.1895C101.309 88.0833 101.668 87.8592 101.999 87.5171C102.329 87.1751 102.583 86.8094 102.76 86.4202C102.936 86.0309 103.072 85.7006 103.166 85.4293C103.261 85.158 103.308 84.9811 103.308 84.8985L103.202 84.9693C103.131 85.0165 103.019 85.0814 102.866 85.1639C102.712 85.2465 102.559 85.3173 102.406 85.3762C102.17 85.4352 101.94 85.4647 101.716 85.4647C101.173 85.4647 100.695 85.335 100.282 85.0755C99.8696 84.816 99.5983 84.3972 99.4685 83.8192C99.4568 83.7367 99.4509 83.5538 99.4509 83.2707C99.4509 82.5984 99.6573 81.7196 100.07 80.6344C100.483 79.5492 100.689 78.8592 100.689 78.5643C100.689 78.5525 100.689 78.5407 100.689 78.5289C100.689 78.4228 100.689 78.352 100.689 78.3166C100.689 78.2812 100.666 78.2399 100.619 78.1928C100.571 78.1456 100.507 78.122 100.424 78.122H100.353C100.082 78.122 99.8342 78.234 99.6101 78.4582C99.386 78.6823 99.209 78.9241 99.0793 79.1836C98.9495 79.4431 98.8493 79.6908 98.7785 79.9267C98.7077 80.1626 98.6606 80.2924 98.637 80.316C98.6134 80.3395 98.519 80.3513 98.3539 80.3513H98.1062C98.0354 80.2806 98 80.2275 98 80.1921Z" fill="black"/>
<path d="M111.716 81.0766C111.716 81.0766 111.716 80.9999 111.716 80.8466C111.716 80.6932 111.798 80.5753 111.964 80.4927H122.243C122.42 80.5871 122.509 80.705 122.509 80.8466C122.509 80.9881 122.42 81.1061 122.243 81.2004H111.964C111.798 81.1179 111.716 80.9999 111.716 80.8466V81.0766Z" fill="black"/>
<path d="M130.014 88.1364C130.038 88.1364 130.073 88.1482 130.12 88.1718C130.168 88.1954 130.233 88.2131 130.315 88.2249C130.398 88.2367 130.468 88.2426 130.527 88.2426C130.681 88.2426 130.822 88.1659 130.952 88.0126C131.082 87.8592 131.176 87.6882 131.235 87.4994C131.353 87.181 131.554 86.2786 131.837 84.7924C132.12 83.3061 132.391 81.8907 132.651 80.546C132.91 79.2013 133.04 78.523 133.04 78.5112V78.4582H132.208C131.654 78.4582 131.359 78.4464 131.324 78.4228C131.276 78.3874 131.253 78.3284 131.253 78.2458L131.377 77.7504C131.4 77.6914 131.447 77.662 131.518 77.662C131.589 77.662 131.866 77.6561 132.35 77.6443C132.916 77.6443 133.199 77.6384 133.199 77.6266C133.199 77.603 133.252 77.3081 133.358 76.7419C133.464 76.1757 133.535 75.8336 133.571 75.7157C134.007 73.7694 134.868 72.7963 136.154 72.7963C136.59 72.8199 136.95 72.9496 137.233 73.1855C137.516 73.4215 137.658 73.734 137.658 74.1233C137.658 74.5479 137.534 74.8546 137.286 75.0433C137.039 75.2321 136.791 75.3323 136.543 75.3441C136.024 75.3441 135.765 75.0964 135.765 74.601C135.765 74.3769 135.829 74.1823 135.959 74.0171C136.089 73.852 136.231 73.7281 136.384 73.6456L136.543 73.5571C136.354 73.4863 136.177 73.4509 136.012 73.4509C135.871 73.4509 135.735 73.5099 135.605 73.6279C135.476 73.7458 135.387 73.911 135.34 74.1233C135.257 74.4654 135.163 74.9254 135.057 75.5034C134.951 76.0814 134.856 76.5709 134.774 76.9719C134.691 77.373 134.65 77.5853 134.65 77.6089C134.65 77.6325 134.974 77.6443 135.623 77.6443C136.154 77.6443 136.461 77.6502 136.543 77.662C136.626 77.6738 136.691 77.7091 136.738 77.7681C136.75 77.8153 136.738 77.9156 136.702 78.0689C136.667 78.2222 136.637 78.3166 136.614 78.352C136.59 78.411 136.537 78.4405 136.455 78.4405C136.372 78.4405 136.054 78.4464 135.499 78.4582H134.508L134.101 80.6167C133.535 83.542 133.14 85.3703 132.916 86.1017C132.598 87.1043 132.185 87.8474 131.677 88.331C131.241 88.7085 130.81 88.8972 130.386 88.8972C130.008 88.8972 129.666 88.7852 129.36 88.561C129.053 88.3369 128.9 88.0184 128.9 87.6056C128.9 87.1692 129.023 86.8507 129.271 86.6502C129.519 86.4496 129.767 86.3494 130.014 86.3494C130.533 86.3494 130.793 86.5971 130.793 87.0925C130.793 87.3166 130.728 87.5112 130.598 87.6764C130.468 87.8415 130.327 87.9654 130.174 88.0479L130.014 88.1364Z" fill="black"/>
<path d="M137.228 89.3731C137.228 88.5224 137.391 87.626 137.716 86.6836C138.041 85.7412 138.483 84.9281 139.042 84.2443C139.6 83.5605 140.18 83.1685 140.781 83.0684C140.789 83.0684 140.822 83.0684 140.881 83.0684C140.939 83.0684 140.989 83.0643 141.031 83.0559C141.481 83.0893 141.831 83.2936 142.081 83.6689C142.407 84.1693 142.569 84.8406 142.569 85.6829C142.569 86.6419 142.382 87.6176 142.006 88.61C141.631 89.6024 141.152 90.4155 140.568 91.0493C139.984 91.6831 139.425 92 138.892 92H138.804C138.504 92 138.245 91.9166 138.029 91.7498C137.812 91.583 137.649 91.362 137.541 91.0868C137.432 90.8116 137.353 90.5323 137.303 90.2487C137.253 89.9652 137.228 89.6733 137.228 89.3731ZM141.581 84.7947C141.581 83.9441 141.36 83.5188 140.918 83.5188C140.618 83.5188 140.326 83.7064 140.042 84.0817C139.759 84.457 139.525 84.8823 139.342 85.3576C139.159 85.833 139.017 86.2499 138.917 86.6085C138.817 86.9671 138.762 87.1756 138.754 87.234C139.163 87.2423 139.567 87.2465 139.967 87.2465L141.181 87.234C141.189 87.2257 141.223 87.0881 141.281 86.8212C141.339 86.5543 141.406 86.2208 141.481 85.8205C141.556 85.4202 141.589 85.0783 141.581 84.7947ZM138.204 90.2237C138.204 91.1077 138.425 91.5497 138.867 91.5497C138.992 91.5497 139.125 91.508 139.267 91.4246C139.409 91.3412 139.58 91.1827 139.78 90.9492C139.98 90.7157 140.18 90.353 140.38 89.8609C140.58 89.3689 140.781 88.7601 140.981 88.0346L141.043 87.8219H138.604C138.604 87.847 138.566 88.0054 138.491 88.2973C138.416 88.5892 138.35 88.9144 138.291 89.273C138.233 89.6316 138.204 89.9485 138.204 90.2237Z" fill="black"/>
<path d="M139.039 81.9427L140.753 80.2664L140.853 80.3665C141.937 81.4006 142.479 81.926 142.479 81.9427L142.154 82.3054C142.137 82.2971 141.896 82.0886 141.429 81.68L140.766 81.1045L140.078 81.6925C139.969 81.7842 139.861 81.8801 139.752 81.9802C139.644 82.0803 139.556 82.1595 139.49 82.2179L139.39 82.2929C139.373 82.3096 139.31 82.2512 139.202 82.1178L139.039 81.9427Z" fill="black"/>
<path d="M146.443 80.8467C146.443 80.0328 146.502 79.2602 146.619 78.5289C146.737 77.7975 146.873 77.1665 147.026 76.6357C147.18 76.1049 147.398 75.5859 147.681 75.0787C147.964 74.5715 148.188 74.1763 148.353 73.8932C148.519 73.6101 148.766 73.3034 149.097 72.9732C149.427 72.6429 149.621 72.4424 149.68 72.3716C149.739 72.3008 149.887 72.177 150.123 72H150.353H150.424C150.589 72 150.671 72.0531 150.671 72.1593C150.671 72.1947 150.571 72.3185 150.37 72.5308C150.17 72.7432 149.928 73.0557 149.645 73.4686C149.362 73.8814 149.073 74.3886 148.778 74.9902C148.483 75.5918 148.235 76.4057 148.035 77.4319C147.834 78.4581 147.734 79.5964 147.734 80.8467C147.734 82.097 147.834 83.2294 148.035 84.2438C148.235 85.2582 148.477 86.078 148.76 86.7032C149.043 87.3284 149.332 87.8356 149.627 88.2248C149.922 88.6141 150.17 88.9266 150.37 89.1626C150.571 89.3985 150.671 89.5223 150.671 89.5341C150.671 89.6403 150.583 89.6934 150.406 89.6934H150.353H150.123L149.627 89.2687C148.519 88.2661 147.711 87.0158 147.203 85.5177C146.696 84.0197 146.443 82.4627 146.443 80.8467Z" fill="black"/>
<path d="M152.405 85.27H152.37C152.205 85.27 152.122 85.2051 152.122 85.0754C152.122 85.0282 152.14 84.9338 152.175 84.7923C152.222 84.6272 152.264 84.5328 152.299 84.5092C152.334 84.4856 152.446 84.4679 152.635 84.4561C153.65 84.4207 154.446 84.1141 155.024 83.5361C155.142 83.4181 155.826 82.675 157.076 81.3067C158.327 79.9384 158.946 79.2425 158.934 79.2189C157.648 75.9397 156.976 74.2707 156.917 74.2117C156.811 74.0819 156.439 74.0112 155.802 73.9994H155.307C155.236 73.9286 155.201 73.8814 155.201 73.8578C155.201 73.8342 155.213 73.7222 155.236 73.5217C155.283 73.3683 155.342 73.2563 155.413 73.1855H155.661C156.062 73.2091 156.775 73.2209 157.802 73.2209C158.191 73.2209 158.551 73.2209 158.881 73.2209C159.211 73.2209 159.477 73.215 159.677 73.2032C159.878 73.1914 159.996 73.1914 160.031 73.2032C160.232 73.2032 160.332 73.268 160.332 73.3978C160.332 73.4096 160.32 73.4863 160.296 73.6278C160.249 73.8047 160.208 73.9109 160.173 73.9463C160.137 73.9817 160.043 73.9994 159.889 73.9994C159.524 74.0348 159.205 74.135 158.934 74.3002L160.296 77.7327L161.234 76.6888C162.473 75.3559 163.092 74.6186 163.092 74.4771C163.092 74.2648 162.95 74.1173 162.667 74.0348C162.608 74.0348 162.532 74.023 162.437 73.9994C162.26 73.9994 162.172 73.9345 162.172 73.8047C162.172 73.7812 162.184 73.6868 162.207 73.5217C162.254 73.3683 162.313 73.2563 162.384 73.1855H162.597C162.608 73.1855 162.756 73.1855 163.039 73.1855C163.322 73.1855 163.64 73.1973 163.994 73.2209C164.348 73.2445 164.59 73.2504 164.72 73.2386C165.781 73.2386 166.365 73.2209 166.471 73.1855H166.613C166.696 73.268 166.737 73.3329 166.737 73.3801C166.713 73.675 166.642 73.8814 166.524 73.9994H166.241C165.84 74.0112 165.481 74.0642 165.162 74.1586C164.844 74.253 164.602 74.3532 164.437 74.4594C164.272 74.5656 164.13 74.6717 164.012 74.7779L163.817 74.9371C163.817 74.9253 163.257 75.5387 162.137 76.7772L160.597 78.4758C160.597 78.4876 160.78 78.9594 161.146 79.8912C161.511 80.8231 161.895 81.7785 162.296 82.7576C162.697 83.7366 162.915 84.2438 162.95 84.2792C163.068 84.3854 163.428 84.4443 164.03 84.4561C164.443 84.4561 164.649 84.5092 164.649 84.6154C164.649 84.639 164.637 84.7215 164.614 84.8631C164.566 85.0518 164.525 85.1639 164.49 85.1992C164.454 85.2346 164.372 85.2523 164.242 85.2523C164.207 85.2523 164.012 85.2523 163.658 85.2523C163.304 85.2523 162.779 85.2464 162.083 85.2346C161.364 85.2346 160.815 85.2346 160.438 85.2346C160.061 85.2346 159.854 85.2405 159.819 85.2523C159.618 85.2523 159.518 85.1992 159.518 85.0931C159.518 85.0813 159.53 84.9928 159.553 84.8277C159.577 84.7097 159.6 84.6272 159.624 84.58C159.648 84.5328 159.677 84.5033 159.713 84.4915C159.748 84.4797 159.801 84.4679 159.872 84.4561C159.943 84.4443 160.037 84.4384 160.155 84.4384C160.273 84.4384 160.426 84.3971 160.615 84.3146C160.815 84.2202 160.916 84.1612 160.916 84.1376C160.904 84.1376 160.627 83.4476 160.084 82.0675L159.253 79.9797C157.035 82.386 155.897 83.654 155.838 83.7838C155.791 83.8781 155.767 83.9489 155.767 83.9961C155.767 84.2202 155.938 84.3677 156.28 84.4384C156.292 84.4384 156.327 84.4384 156.386 84.4384C156.445 84.4384 156.481 84.4443 156.492 84.4561C156.528 84.4561 156.551 84.4561 156.563 84.4561C156.575 84.4561 156.593 84.462 156.616 84.4738C156.64 84.4856 156.657 84.5033 156.669 84.5269C156.681 84.5505 156.687 84.5918 156.687 84.6508C156.687 84.7569 156.675 84.8513 156.652 84.9338C156.616 85.0872 156.581 85.1757 156.545 85.1992C156.51 85.2228 156.422 85.2405 156.28 85.2523C156.245 85.2523 156.138 85.2523 155.962 85.2523C155.785 85.2523 155.537 85.2464 155.218 85.2346C154.9 85.2228 154.552 85.2228 154.175 85.2346C153.254 85.2346 152.665 85.2464 152.405 85.27Z" fill="black"/>
<path d="M167.798 72.0177L167.869 72C167.928 72 167.987 72 168.046 72H168.258L168.754 72.4247C169.863 73.4273 170.671 74.6776 171.178 76.1757C171.685 77.6737 171.939 79.2307 171.939 80.8467C171.939 81.6488 171.88 82.4214 171.762 83.1645C171.644 83.9076 171.508 84.5387 171.355 85.0577C171.201 85.5767 170.983 86.0957 170.7 86.6147C170.417 87.1337 170.193 87.5289 170.028 87.8002C169.863 88.0715 169.621 88.3723 169.302 88.7025C168.984 89.0328 168.795 89.2274 168.736 89.2864C168.677 89.3454 168.542 89.4574 168.329 89.6226C168.294 89.658 168.27 89.6816 168.258 89.6934H168.046C167.952 89.6934 167.887 89.6934 167.851 89.6934C167.816 89.6934 167.787 89.6757 167.763 89.6403C167.739 89.6049 167.722 89.5518 167.71 89.481C167.722 89.4692 167.787 89.3926 167.905 89.251C169.733 87.3519 170.647 84.5505 170.647 80.8467C170.647 77.1429 169.733 74.3415 167.905 72.4424C167.787 72.3008 167.722 72.2242 167.71 72.2124C167.71 72.118 167.739 72.0531 167.798 72.0177Z" fill="black"/>
</svg>
