<svg width="358" height="169" viewBox="0 0 358 169" fill="none" xmlns="http://www.w3.org/2000/svg">
<path d="M20.5664 72H21.5625L23.5312 65.2266H23.5547L25.5234 72H26.5195L28.8223 63.5449H27.7207L26.0156 70.4883H25.9922L24.0762 63.5449H23.0098L21.0938 70.4883H21.0703L19.3652 63.5449H18.2637L20.5664 72ZM31.6113 72.1172C32.9414 72.1172 33.9375 71.3203 34.1367 70.3125L34.1484 70.2539H33.1465L33.1289 70.3066C32.9531 70.8281 32.4082 71.2148 31.6348 71.2148C30.5508 71.2148 29.8594 70.4824 29.8359 69.2285H34.2246V68.8535C34.2246 67.0254 33.2109 65.7891 31.5469 65.7891C29.8828 65.7891 28.8047 67.084 28.8047 68.9707V68.9766C28.8047 70.8926 29.8594 72.1172 31.6113 72.1172ZM31.541 66.6914C32.4316 66.6914 33.0879 67.248 33.1875 68.4316H29.8535C29.9648 67.2949 30.6562 66.6914 31.541 66.6914ZM37.418 72.1172C38.7773 72.1172 39.7852 71.3672 39.7852 70.3008V70.2949C39.7852 69.4277 39.3398 68.9414 38.1094 68.6426L37.1426 68.4082C36.4688 68.2441 36.1934 67.957 36.1934 67.541V67.5352C36.1934 66.9961 36.6504 66.6387 37.3887 66.6387C38.1445 66.6387 38.5957 67.0312 38.6777 67.623L38.6836 67.6641H39.6562L39.6504 67.5879C39.5742 66.5684 38.7246 65.7891 37.3887 65.7891C36.0703 65.7891 35.1504 66.5332 35.1504 67.582V67.5879C35.1504 68.4668 35.707 69 36.8555 69.2754L37.8223 69.5098C38.5137 69.6797 38.7422 69.9258 38.7422 70.3652V70.3711C38.7422 70.9219 38.25 71.2676 37.4238 71.2676C36.5918 71.2676 36.1406 70.9102 36.0176 70.3008L36.0059 70.2422H34.9863L34.9922 70.2949C35.1152 71.3848 35.9824 72.1172 37.418 72.1172ZM42.8262 72.1172C43.0254 72.1172 43.2422 72.0938 43.3711 72.0762V71.25C43.2832 71.2559 43.166 71.2734 43.043 71.2734C42.498 71.2734 42.2109 71.0918 42.2109 70.4414V66.75H43.3711V65.9062H42.2109V64.2598H41.1562V65.9062H40.2656V66.75H41.1562V70.4473C41.1562 71.6133 41.707 72.1172 42.8262 72.1172Z" fill="black"/>
<path d="M20.5664 86H21.5625L23.5312 79.2266H23.5547L25.5234 86H26.5195L28.8223 77.5449H27.7207L26.0156 84.4883H25.9922L24.0762 77.5449H23.0098L21.0938 84.4883H21.0703L19.3652 77.5449H18.2637L20.5664 86ZM31.6113 86.1172C32.9414 86.1172 33.9375 85.3203 34.1367 84.3125L34.1484 84.2539H33.1465L33.1289 84.3066C32.9531 84.8281 32.4082 85.2148 31.6348 85.2148C30.5508 85.2148 29.8594 84.4824 29.8359 83.2285H34.2246V82.8535C34.2246 81.0254 33.2109 79.7891 31.5469 79.7891C29.8828 79.7891 28.8047 81.084 28.8047 82.9707V82.9766C28.8047 84.8926 29.8594 86.1172 31.6113 86.1172ZM31.541 80.6914C32.4316 80.6914 33.0879 81.248 33.1875 82.4316H29.8535C29.9648 81.2949 30.6562 80.6914 31.541 80.6914ZM37.418 86.1172C38.7773 86.1172 39.7852 85.3672 39.7852 84.3008V84.2949C39.7852 83.4277 39.3398 82.9414 38.1094 82.6426L37.1426 82.4082C36.4688 82.2441 36.1934 81.957 36.1934 81.541V81.5352C36.1934 80.9961 36.6504 80.6387 37.3887 80.6387C38.1445 80.6387 38.5957 81.0312 38.6777 81.623L38.6836 81.6641H39.6562L39.6504 81.5879C39.5742 80.5684 38.7246 79.7891 37.3887 79.7891C36.0703 79.7891 35.1504 80.5332 35.1504 81.582V81.5879C35.1504 82.4668 35.707 83 36.8555 83.2754L37.8223 83.5098C38.5137 83.6797 38.7422 83.9258 38.7422 84.3652V84.3711C38.7422 84.9219 38.25 85.2676 37.4238 85.2676C36.5918 85.2676 36.1406 84.9102 36.0176 84.3008L36.0059 84.2422H34.9863L34.9922 84.2949C35.1152 85.3848 35.9824 86.1172 37.418 86.1172ZM42.8262 86.1172C43.0254 86.1172 43.2422 86.0938 43.3711 86.0762V85.25C43.2832 85.2559 43.166 85.2734 43.043 85.2734C42.498 85.2734 42.2109 85.0918 42.2109 84.4414V80.75H43.3711V79.9062H42.2109V78.2598H41.1562V79.9062H40.2656V80.75H41.1562V84.4473C41.1562 85.6133 41.707 86.1172 42.8262 86.1172Z" fill="black"/>
<path d="M18.8203 100H19.8633V93.3262H19.8926L24.5449 100H25.5703V91.5449H24.5273V98.2188H24.498L19.8457 91.5449H18.8203V100ZM29.5781 100.117C31.2598 100.117 32.3965 98.8984 32.3965 96.9531V96.9414C32.3965 94.9961 31.2539 93.7891 29.5723 93.7891C27.8906 93.7891 26.7539 95.002 26.7539 96.9414V96.9531C26.7539 98.8926 27.8848 100.117 29.5781 100.117ZM29.584 99.2148C28.5059 99.2148 27.7969 98.3887 27.7969 96.9531V96.9414C27.7969 95.5176 28.5117 94.6914 29.5723 94.6914C30.6504 94.6914 31.3535 95.5117 31.3535 96.9414V96.9531C31.3535 98.3828 30.6562 99.2148 29.584 99.2148ZM33.4277 100H34.4473V96.1914C34.4473 95.3301 34.9629 94.7617 35.7539 94.7617C36 94.7617 36.2168 94.791 36.2988 94.8203V93.8301C36.2168 93.8184 36.0645 93.7891 35.8887 93.7891C35.1738 93.7891 34.6113 94.2168 34.4121 94.8906H34.3887V93.9062H33.4277V100ZM39.1113 100.117C39.3105 100.117 39.5273 100.094 39.6562 100.076V99.25C39.5684 99.2559 39.4512 99.2734 39.3281 99.2734C38.7832 99.2734 38.4961 99.0918 38.4961 98.4414V94.75H39.6562V93.9062H38.4961V92.2598H37.4414V93.9062H36.5508V94.75H37.4414V98.4473C37.4414 99.6133 37.9922 100.117 39.1113 100.117ZM40.8047 100H41.8242V96.4434C41.8242 95.4062 42.4512 94.6914 43.3945 94.6914C44.3438 94.6914 44.9062 95.3418 44.9062 96.4434V100H45.9258V96.2676C45.9258 94.791 45.041 93.7891 43.7461 93.7891C42.8379 93.7891 42.1758 94.1934 41.8477 94.8789H41.8242V91.5449H40.8047V100ZM49.7285 100.117C51.0586 100.117 52.0547 99.3203 52.2539 98.3125L52.2656 98.2539H51.2637L51.2461 98.3066C51.0703 98.8281 50.5254 99.2148 49.752 99.2148C48.668 99.2148 47.9766 98.4824 47.9531 97.2285H52.3418V96.8535C52.3418 95.0254 51.3281 93.7891 49.6641 93.7891C48 93.7891 46.9219 95.084 46.9219 96.9707V96.9766C46.9219 98.8926 47.9766 100.117 49.7285 100.117ZM49.6582 94.6914C50.5488 94.6914 51.2051 95.248 51.3047 96.4316H47.9707C48.082 95.2949 48.7734 94.6914 49.6582 94.6914ZM55.1543 100.117C55.9688 100.117 56.7012 99.6777 57.0586 99.0098H57.082V100H58.1016V95.7871C58.1016 94.5684 57.1992 93.7891 55.7578 93.7891C54.3223 93.7891 53.4492 94.5977 53.3613 95.5996L53.3555 95.6641H54.3398L54.3516 95.6113C54.4688 95.0664 54.9609 94.6914 55.7461 94.6914C56.5957 94.6914 57.082 95.1426 57.082 95.8867V96.3965L55.3359 96.4961C53.9355 96.5781 53.127 97.2285 53.127 98.2656V98.2773C53.127 99.3848 53.9414 100.117 55.1543 100.117ZM54.1699 98.2773V98.2656C54.1699 97.6973 54.6387 97.334 55.4531 97.2871L57.082 97.1875V97.6855C57.082 98.5703 56.3438 99.2324 55.3828 99.2324C54.6504 99.2324 54.1699 98.8633 54.1699 98.2773ZM61.5586 100.117C62.918 100.117 63.9258 99.3672 63.9258 98.3008V98.2949C63.9258 97.4277 63.4805 96.9414 62.25 96.6426L61.2832 96.4082C60.6094 96.2441 60.334 95.957 60.334 95.541V95.5352C60.334 94.9961 60.791 94.6387 61.5293 94.6387C62.2852 94.6387 62.7363 95.0312 62.8184 95.623L62.8242 95.6641H63.7969L63.791 95.5879C63.7148 94.5684 62.8652 93.7891 61.5293 93.7891C60.2109 93.7891 59.291 94.5332 59.291 95.582V95.5879C59.291 96.4668 59.8477 97 60.9961 97.2754L61.9629 97.5098C62.6543 97.6797 62.8828 97.9258 62.8828 98.3652V98.3711C62.8828 98.9219 62.3906 99.2676 61.5645 99.2676C60.7324 99.2676 60.2812 98.9102 60.1582 98.3008L60.1465 98.2422H59.127L59.1328 98.2949C59.2559 99.3848 60.123 100.117 61.5586 100.117ZM66.9668 100.117C67.166 100.117 67.3828 100.094 67.5117 100.076V99.25C67.4238 99.2559 67.3066 99.2734 67.1836 99.2734C66.6387 99.2734 66.3516 99.0918 66.3516 98.4414V94.75H67.5117V93.9062H66.3516V92.2598H65.2969V93.9062H64.4062V94.75H65.2969V98.4473C65.2969 99.6133 65.8477 100.117 66.9668 100.117Z" fill="black"/>
<path d="M21.5859 114.141C23.5195 114.141 24.709 113.191 24.709 111.691V111.686C24.709 110.396 23.9824 109.693 22.248 109.312L21.3105 109.107C20.209 108.867 19.6992 108.434 19.6992 107.742V107.736C19.6992 106.922 20.4375 106.383 21.5684 106.377C22.6406 106.377 23.3613 106.887 23.4902 107.748L23.502 107.83H24.5566L24.5508 107.742C24.457 106.359 23.25 105.404 21.5977 105.404C19.8574 105.404 18.627 106.377 18.6211 107.766V107.771C18.6211 109.008 19.3945 109.752 21.0469 110.115L21.9844 110.32C23.1445 110.578 23.6309 110.994 23.6309 111.738V111.744C23.6309 112.617 22.8633 113.168 21.6445 113.168C20.4199 113.168 19.5996 112.646 19.4766 111.797L19.4648 111.715H18.4102L18.416 111.797C18.5215 113.244 19.7578 114.141 21.5859 114.141ZM28.3125 114.117C29.9941 114.117 31.1309 112.898 31.1309 110.953V110.941C31.1309 108.996 29.9883 107.789 28.3066 107.789C26.625 107.789 25.4883 109.002 25.4883 110.941V110.953C25.4883 112.893 26.6191 114.117 28.3125 114.117ZM28.3184 113.215C27.2402 113.215 26.5312 112.389 26.5312 110.953V110.941C26.5312 109.518 27.2461 108.691 28.3066 108.691C29.3848 108.691 30.0879 109.512 30.0879 110.941V110.953C30.0879 112.383 29.3906 113.215 28.3184 113.215ZM34.2422 114.117C35.168 114.117 35.7891 113.701 36.1172 113.133H36.1406V114H37.1602V107.906H36.1406V111.492C36.1406 112.529 35.5137 113.215 34.5527 113.215C33.6152 113.215 33.1523 112.67 33.1523 111.68V107.906H32.1328V111.861C32.1328 113.25 32.9062 114.117 34.2422 114.117ZM40.4707 114.117C40.6699 114.117 40.8867 114.094 41.0156 114.076V113.25C40.9277 113.256 40.8105 113.273 40.6875 113.273C40.1426 113.273 39.8555 113.092 39.8555 112.441V108.75H41.0156V107.906H39.8555V106.26H38.8008V107.906H37.9102V108.75H38.8008V112.447C38.8008 113.613 39.3516 114.117 40.4707 114.117ZM42.1641 114H43.1836V110.443C43.1836 109.406 43.8105 108.691 44.7539 108.691C45.7031 108.691 46.2656 109.342 46.2656 110.443V114H47.2852V110.268C47.2852 108.791 46.4004 107.789 45.1055 107.789C44.1973 107.789 43.5352 108.193 43.207 108.879H43.1836V105.545H42.1641V114Z" fill="black"/>
<path d="M20.5664 128H21.5625L23.5312 121.227H23.5547L25.5234 128H26.5195L28.8223 119.545H27.7207L26.0156 126.488H25.9922L24.0762 119.545H23.0098L21.0938 126.488H21.0703L19.3652 119.545H18.2637L20.5664 128ZM31.6113 128.117C32.9414 128.117 33.9375 127.32 34.1367 126.312L34.1484 126.254H33.1465L33.1289 126.307C32.9531 126.828 32.4082 127.215 31.6348 127.215C30.5508 127.215 29.8594 126.482 29.8359 125.229H34.2246V124.854C34.2246 123.025 33.2109 121.789 31.5469 121.789C29.8828 121.789 28.8047 123.084 28.8047 124.971V124.977C28.8047 126.893 29.8594 128.117 31.6113 128.117ZM31.541 122.691C32.4316 122.691 33.0879 123.248 33.1875 124.432H29.8535C29.9648 123.295 30.6562 122.691 31.541 122.691ZM37.418 128.117C38.7773 128.117 39.7852 127.367 39.7852 126.301V126.295C39.7852 125.428 39.3398 124.941 38.1094 124.643L37.1426 124.408C36.4688 124.244 36.1934 123.957 36.1934 123.541V123.535C36.1934 122.996 36.6504 122.639 37.3887 122.639C38.1445 122.639 38.5957 123.031 38.6777 123.623L38.6836 123.664H39.6562L39.6504 123.588C39.5742 122.568 38.7246 121.789 37.3887 121.789C36.0703 121.789 35.1504 122.533 35.1504 123.582V123.588C35.1504 124.467 35.707 125 36.8555 125.275L37.8223 125.51C38.5137 125.68 38.7422 125.926 38.7422 126.365V126.371C38.7422 126.922 38.25 127.268 37.4238 127.268C36.5918 127.268 36.1406 126.91 36.0176 126.301L36.0059 126.242H34.9863L34.9922 126.295C35.1152 127.385 35.9824 128.117 37.418 128.117ZM42.8262 128.117C43.0254 128.117 43.2422 128.094 43.3711 128.076V127.25C43.2832 127.256 43.166 127.273 43.043 127.273C42.498 127.273 42.2109 127.092 42.2109 126.441V122.75H43.3711V121.906H42.2109V120.26H41.1562V121.906H40.2656V122.75H41.1562V126.447C41.1562 127.613 41.707 128.117 42.8262 128.117Z" fill="black"/>
<path d="M18.8203 142H19.8047V135.467H19.8398L22.541 142H23.4316L26.1328 135.467H26.168V142H27.1523V133.545H25.9336L23.0039 140.67H22.9688L20.0391 133.545H18.8203V142ZM29.209 134.875C29.5664 134.875 29.8477 134.588 29.8477 134.236C29.8477 133.879 29.5664 133.598 29.209 133.598C28.8574 133.598 28.5703 133.879 28.5703 134.236C28.5703 134.588 28.8574 134.875 29.209 134.875ZM28.6992 142H29.7188V135.906H28.6992V142ZM33.3984 142.117C34.2715 142.117 34.9512 141.678 35.332 140.969H35.3555V142H36.375V133.545H35.3555V136.926H35.332C34.9512 136.223 34.2422 135.789 33.3809 135.789C31.8516 135.789 30.8086 137.025 30.8086 138.947V138.953C30.8086 140.875 31.8398 142.117 33.3984 142.117ZM33.5977 141.215C32.5195 141.215 31.8516 140.354 31.8516 138.953V138.947C31.8516 137.559 32.5195 136.691 33.5977 136.691C34.623 136.691 35.3613 137.588 35.3613 138.947V138.953C35.3613 140.318 34.6289 141.215 33.5977 141.215ZM38.959 142H39.9961L41.3672 137.283H41.3906L42.7676 142H43.8047L45.5039 135.906H44.4961L43.2773 140.863H43.2539L41.8711 135.906H40.8867L39.5098 140.863H39.4863L38.2676 135.906H37.2539L38.959 142ZM48.8496 142.117C50.1797 142.117 51.1758 141.32 51.375 140.312L51.3867 140.254H50.3848L50.3672 140.307C50.1914 140.828 49.6465 141.215 48.873 141.215C47.7891 141.215 47.0977 140.482 47.0742 139.229H51.4629V138.854C51.4629 137.025 50.4492 135.789 48.7852 135.789C47.1211 135.789 46.043 137.084 46.043 138.971V138.977C46.043 140.893 47.0977 142.117 48.8496 142.117ZM48.7793 136.691C49.6699 136.691 50.3262 137.248 50.4258 138.432H47.0918C47.2031 137.295 47.8945 136.691 48.7793 136.691ZM54.6562 142.117C56.0156 142.117 57.0234 141.367 57.0234 140.301V140.295C57.0234 139.428 56.5781 138.941 55.3477 138.643L54.3809 138.408C53.707 138.244 53.4316 137.957 53.4316 137.541V137.535C53.4316 136.996 53.8887 136.639 54.627 136.639C55.3828 136.639 55.834 137.031 55.916 137.623L55.9219 137.664H56.8945L56.8887 137.588C56.8125 136.568 55.9629 135.789 54.627 135.789C53.3086 135.789 52.3887 136.533 52.3887 137.582V137.588C52.3887 138.467 52.9453 139 54.0938 139.275L55.0605 139.51C55.752 139.68 55.9805 139.926 55.9805 140.365V140.371C55.9805 140.922 55.4883 141.268 54.6621 141.268C53.8301 141.268 53.3789 140.91 53.2559 140.301L53.2441 140.242H52.2246L52.2305 140.295C52.3535 141.385 53.2207 142.117 54.6562 142.117ZM60.0645 142.117C60.2637 142.117 60.4805 142.094 60.6094 142.076V141.25C60.5215 141.256 60.4043 141.273 60.2812 141.273C59.7363 141.273 59.4492 141.092 59.4492 140.441V136.75H60.6094V135.906H59.4492V134.26H58.3945V135.906H57.5039V136.75H58.3945V140.447C58.3945 141.613 58.9453 142.117 60.0645 142.117Z" fill="black"/>
<path d="M118 103L108 97.2265L108 108.774L118 103ZM82 104L109 104L109 102L82 102L82 104Z" fill="#1F77B4"/>
<path d="M136 61H131.5V103V145H136" stroke="black"/>
<path d="M349 145H353.5V103V61H349" stroke="black"/>
<path d="M146.566 52H147.562L149.531 45.2266H149.555L151.523 52H152.52L154.822 43.5449H153.721L152.016 50.4883H151.992L150.076 43.5449H149.01L147.094 50.4883H147.07L145.365 43.5449H144.264L146.566 52ZM157.611 52.1172C158.941 52.1172 159.938 51.3203 160.137 50.3125L160.148 50.2539H159.146L159.129 50.3066C158.953 50.8281 158.408 51.2148 157.635 51.2148C156.551 51.2148 155.859 50.4824 155.836 49.2285H160.225V48.8535C160.225 47.0254 159.211 45.7891 157.547 45.7891C155.883 45.7891 154.805 47.084 154.805 48.9707V48.9766C154.805 50.8926 155.859 52.1172 157.611 52.1172ZM157.541 46.6914C158.432 46.6914 159.088 47.248 159.188 48.4316H155.854C155.965 47.2949 156.656 46.6914 157.541 46.6914ZM163.418 52.1172C164.777 52.1172 165.785 51.3672 165.785 50.3008V50.2949C165.785 49.4277 165.34 48.9414 164.109 48.6426L163.143 48.4082C162.469 48.2441 162.193 47.957 162.193 47.541V47.5352C162.193 46.9961 162.65 46.6387 163.389 46.6387C164.145 46.6387 164.596 47.0312 164.678 47.623L164.684 47.6641H165.656L165.65 47.5879C165.574 46.5684 164.725 45.7891 163.389 45.7891C162.07 45.7891 161.15 46.5332 161.15 47.582V47.5879C161.15 48.4668 161.707 49 162.855 49.2754L163.822 49.5098C164.514 49.6797 164.742 49.9258 164.742 50.3652V50.3711C164.742 50.9219 164.25 51.2676 163.424 51.2676C162.592 51.2676 162.141 50.9102 162.018 50.3008L162.006 50.2422H160.986L160.992 50.2949C161.115 51.3848 161.982 52.1172 163.418 52.1172ZM168.826 52.1172C169.025 52.1172 169.242 52.0938 169.371 52.0762V51.25C169.283 51.2559 169.166 51.2734 169.043 51.2734C168.498 51.2734 168.211 51.0918 168.211 50.4414V46.75H169.371V45.9062H168.211V44.2598H167.156V45.9062H166.266V46.75H167.156V50.4473C167.156 51.6133 167.707 52.1172 168.826 52.1172Z" fill="black"/>
<path d="M185.82 52H186.863V45.3262H186.893L191.545 52H192.57V43.5449H191.527V50.2188H191.498L186.846 43.5449H185.82V52ZM196.578 52.1172C198.26 52.1172 199.396 50.8984 199.396 48.9531V48.9414C199.396 46.9961 198.254 45.7891 196.572 45.7891C194.891 45.7891 193.754 47.002 193.754 48.9414V48.9531C193.754 50.8926 194.885 52.1172 196.578 52.1172ZM196.584 51.2148C195.506 51.2148 194.797 50.3887 194.797 48.9531V48.9414C194.797 47.5176 195.512 46.6914 196.572 46.6914C197.65 46.6914 198.354 47.5117 198.354 48.9414V48.9531C198.354 50.3828 197.656 51.2148 196.584 51.2148ZM200.428 52H201.447V48.1914C201.447 47.3301 201.963 46.7617 202.754 46.7617C203 46.7617 203.217 46.791 203.299 46.8203V45.8301C203.217 45.8184 203.064 45.7891 202.889 45.7891C202.174 45.7891 201.611 46.2168 201.412 46.8906H201.389V45.9062H200.428V52ZM206.111 52.1172C206.311 52.1172 206.527 52.0938 206.656 52.0762V51.25C206.568 51.2559 206.451 51.2734 206.328 51.2734C205.783 51.2734 205.496 51.0918 205.496 50.4414V46.75H206.656V45.9062H205.496V44.2598H204.441V45.9062H203.551V46.75H204.441V50.4473C204.441 51.6133 204.992 52.1172 206.111 52.1172ZM207.805 52H208.824V48.4434C208.824 47.4062 209.451 46.6914 210.395 46.6914C211.344 46.6914 211.906 47.3418 211.906 48.4434V52H212.926V48.2676C212.926 46.791 212.041 45.7891 210.746 45.7891C209.838 45.7891 209.176 46.1934 208.848 46.8789H208.824V43.5449H207.805V52ZM216.729 52.1172C218.059 52.1172 219.055 51.3203 219.254 50.3125L219.266 50.2539H218.264L218.246 50.3066C218.07 50.8281 217.525 51.2148 216.752 51.2148C215.668 51.2148 214.977 50.4824 214.953 49.2285H219.342V48.8535C219.342 47.0254 218.328 45.7891 216.664 45.7891C215 45.7891 213.922 47.084 213.922 48.9707V48.9766C213.922 50.8926 214.977 52.1172 216.729 52.1172ZM216.658 46.6914C217.549 46.6914 218.205 47.248 218.305 48.4316H214.971C215.082 47.2949 215.773 46.6914 216.658 46.6914ZM222.154 52.1172C222.969 52.1172 223.701 51.6777 224.059 51.0098H224.082V52H225.102V47.7871C225.102 46.5684 224.199 45.7891 222.758 45.7891C221.322 45.7891 220.449 46.5977 220.361 47.5996L220.355 47.6641H221.34L221.352 47.6113C221.469 47.0664 221.961 46.6914 222.746 46.6914C223.596 46.6914 224.082 47.1426 224.082 47.8867V48.3965L222.336 48.4961C220.936 48.5781 220.127 49.2285 220.127 50.2656V50.2773C220.127 51.3848 220.941 52.1172 222.154 52.1172ZM221.17 50.2773V50.2656C221.17 49.6973 221.639 49.334 222.453 49.2871L224.082 49.1875V49.6855C224.082 50.5703 223.344 51.2324 222.383 51.2324C221.65 51.2324 221.17 50.8633 221.17 50.2773ZM228.559 52.1172C229.918 52.1172 230.926 51.3672 230.926 50.3008V50.2949C230.926 49.4277 230.48 48.9414 229.25 48.6426L228.283 48.4082C227.609 48.2441 227.334 47.957 227.334 47.541V47.5352C227.334 46.9961 227.791 46.6387 228.529 46.6387C229.285 46.6387 229.736 47.0312 229.818 47.623L229.824 47.6641H230.797L230.791 47.5879C230.715 46.5684 229.865 45.7891 228.529 45.7891C227.211 45.7891 226.291 46.5332 226.291 47.582V47.5879C226.291 48.4668 226.848 49 227.996 49.2754L228.963 49.5098C229.654 49.6797 229.883 49.9258 229.883 50.3652V50.3711C229.883 50.9219 229.391 51.2676 228.564 51.2676C227.732 51.2676 227.281 50.9102 227.158 50.3008L227.146 50.2422H226.127L226.133 50.2949C226.256 51.3848 227.123 52.1172 228.559 52.1172ZM233.967 52.1172C234.166 52.1172 234.383 52.0938 234.512 52.0762V51.25C234.424 51.2559 234.307 51.2734 234.184 51.2734C233.639 51.2734 233.352 51.0918 233.352 50.4414V46.75H234.512V45.9062H233.352V44.2598H232.297V45.9062H231.406V46.75H232.297V50.4473C232.297 51.6133 232.848 52.1172 233.967 52.1172Z" fill="black"/>
<path d="M253.586 52.1406C255.52 52.1406 256.709 51.1914 256.709 49.6914V49.6855C256.709 48.3965 255.982 47.6934 254.248 47.3125L253.311 47.1074C252.209 46.8672 251.699 46.4336 251.699 45.7422V45.7363C251.699 44.9219 252.438 44.3828 253.568 44.377C254.641 44.377 255.361 44.8867 255.49 45.748L255.502 45.8301H256.557L256.551 45.7422C256.457 44.3594 255.25 43.4043 253.598 43.4043C251.857 43.4043 250.627 44.377 250.621 45.7656V45.7715C250.621 47.0078 251.395 47.752 253.047 48.1152L253.984 48.3203C255.145 48.5781 255.631 48.9941 255.631 49.7383V49.7441C255.631 50.6172 254.863 51.168 253.645 51.168C252.42 51.168 251.6 50.6465 251.477 49.7969L251.465 49.7148H250.41L250.416 49.7969C250.521 51.2441 251.758 52.1406 253.586 52.1406ZM260.312 52.1172C261.994 52.1172 263.131 50.8984 263.131 48.9531V48.9414C263.131 46.9961 261.988 45.7891 260.307 45.7891C258.625 45.7891 257.488 47.002 257.488 48.9414V48.9531C257.488 50.8926 258.619 52.1172 260.312 52.1172ZM260.318 51.2148C259.24 51.2148 258.531 50.3887 258.531 48.9531V48.9414C258.531 47.5176 259.246 46.6914 260.307 46.6914C261.385 46.6914 262.088 47.5117 262.088 48.9414V48.9531C262.088 50.3828 261.391 51.2148 260.318 51.2148ZM266.242 52.1172C267.168 52.1172 267.789 51.7012 268.117 51.1328H268.141V52H269.16V45.9062H268.141V49.4922C268.141 50.5293 267.514 51.2148 266.553 51.2148C265.615 51.2148 265.152 50.6699 265.152 49.6797V45.9062H264.133V49.8613C264.133 51.25 264.906 52.1172 266.242 52.1172ZM272.471 52.1172C272.67 52.1172 272.887 52.0938 273.016 52.0762V51.25C272.928 51.2559 272.811 51.2734 272.688 51.2734C272.143 51.2734 271.855 51.0918 271.855 50.4414V46.75H273.016V45.9062H271.855V44.2598H270.801V45.9062H269.91V46.75H270.801V50.4473C270.801 51.6133 271.352 52.1172 272.471 52.1172ZM274.164 52H275.184V48.4434C275.184 47.4062 275.811 46.6914 276.754 46.6914C277.703 46.6914 278.266 47.3418 278.266 48.4434V52H279.285V48.2676C279.285 46.791 278.4 45.7891 277.105 45.7891C276.197 45.7891 275.535 46.1934 275.207 46.8789H275.184V43.5449H274.164V52Z" fill="black"/>
<path d="M295.82 52H296.805V45.4668H296.84L299.541 52H300.432L303.133 45.4668H303.168V52H304.152V43.5449H302.934L300.004 50.6699H299.969L297.039 43.5449H295.82V52ZM306.209 44.875C306.566 44.875 306.848 44.5879 306.848 44.2363C306.848 43.8789 306.566 43.5977 306.209 43.5977C305.857 43.5977 305.57 43.8789 305.57 44.2363C305.57 44.5879 305.857 44.875 306.209 44.875ZM305.699 52H306.719V45.9062H305.699V52ZM310.398 52.1172C311.271 52.1172 311.951 51.6777 312.332 50.9688H312.355V52H313.375V43.5449H312.355V46.9258H312.332C311.951 46.2227 311.242 45.7891 310.381 45.7891C308.852 45.7891 307.809 47.0254 307.809 48.9473V48.9531C307.809 50.875 308.84 52.1172 310.398 52.1172ZM310.598 51.2148C309.52 51.2148 308.852 50.3535 308.852 48.9531V48.9473C308.852 47.5586 309.52 46.6914 310.598 46.6914C311.623 46.6914 312.361 47.5879 312.361 48.9473V48.9531C312.361 50.3184 311.629 51.2148 310.598 51.2148ZM315.959 52H316.996L318.367 47.2832H318.391L319.768 52H320.805L322.504 45.9062H321.496L320.277 50.8633H320.254L318.871 45.9062H317.887L316.51 50.8633H316.486L315.268 45.9062H314.254L315.959 52ZM325.85 52.1172C327.18 52.1172 328.176 51.3203 328.375 50.3125L328.387 50.2539H327.385L327.367 50.3066C327.191 50.8281 326.646 51.2148 325.873 51.2148C324.789 51.2148 324.098 50.4824 324.074 49.2285H328.463V48.8535C328.463 47.0254 327.449 45.7891 325.785 45.7891C324.121 45.7891 323.043 47.084 323.043 48.9707V48.9766C323.043 50.8926 324.098 52.1172 325.85 52.1172ZM325.779 46.6914C326.67 46.6914 327.326 47.248 327.426 48.4316H324.092C324.203 47.2949 324.895 46.6914 325.779 46.6914ZM331.656 52.1172C333.016 52.1172 334.023 51.3672 334.023 50.3008V50.2949C334.023 49.4277 333.578 48.9414 332.348 48.6426L331.381 48.4082C330.707 48.2441 330.432 47.957 330.432 47.541V47.5352C330.432 46.9961 330.889 46.6387 331.627 46.6387C332.383 46.6387 332.834 47.0312 332.916 47.623L332.922 47.6641H333.895L333.889 47.5879C333.812 46.5684 332.963 45.7891 331.627 45.7891C330.309 45.7891 329.389 46.5332 329.389 47.582V47.5879C329.389 48.4668 329.945 49 331.094 49.2754L332.061 49.5098C332.752 49.6797 332.98 49.9258 332.98 50.3652V50.3711C332.98 50.9219 332.488 51.2676 331.662 51.2676C330.83 51.2676 330.379 50.9102 330.256 50.3008L330.244 50.2422H329.225L329.23 50.2949C329.354 51.3848 330.221 52.1172 331.656 52.1172ZM337.064 52.1172C337.264 52.1172 337.48 52.0938 337.609 52.0762V51.25C337.521 51.2559 337.404 51.2734 337.281 51.2734C336.736 51.2734 336.449 51.0918 336.449 50.4414V46.75H337.609V45.9062H336.449V44.2598H335.395V45.9062H334.504V46.75H335.395V50.4473C335.395 51.6133 335.945 52.1172 337.064 52.1172Z" fill="black"/>
<path d="M163.902 72V71.0918H161.523V63.5449H160.51L157.99 65.1797V66.2812L160.41 64.7168H160.504V71.0918H158.008V72H163.902Z" fill="black"/>
<path d="M213.715 72.1934C215.549 72.1934 216.568 70.623 216.568 67.7754C216.568 64.9277 215.549 63.3574 213.715 63.3574C211.875 63.3574 210.861 64.9277 210.861 67.7754C210.861 70.623 211.875 72.1934 213.715 72.1934ZM211.887 67.7754C211.887 65.4785 212.52 64.2715 213.715 64.2715C214.512 64.2715 215.062 64.8105 215.338 65.8594L211.928 68.707C211.904 68.4199 211.887 68.1094 211.887 67.7754ZM213.715 71.2793C212.918 71.2793 212.373 70.7402 212.098 69.7031L215.496 66.832C215.525 67.125 215.537 67.4355 215.537 67.7754C215.537 70.0664 214.91 71.2793 213.715 71.2793Z" fill="black"/>
<path d="M266.715 72.1934C268.549 72.1934 269.568 70.623 269.568 67.7754C269.568 64.9277 268.549 63.3574 266.715 63.3574C264.875 63.3574 263.861 64.9277 263.861 67.7754C263.861 70.623 264.875 72.1934 266.715 72.1934ZM264.887 67.7754C264.887 65.4785 265.52 64.2715 266.715 64.2715C267.512 64.2715 268.062 64.8105 268.338 65.8594L264.928 68.707C264.904 68.4199 264.887 68.1094 264.887 67.7754ZM266.715 71.2793C265.918 71.2793 265.373 70.7402 265.098 69.7031L268.496 66.832C268.525 67.125 268.537 67.4355 268.537 67.7754C268.537 70.0664 267.91 71.2793 266.715 71.2793Z" fill="black"/>
<path d="M319.715 72.1934C321.549 72.1934 322.568 70.623 322.568 67.7754C322.568 64.9277 321.549 63.3574 319.715 63.3574C317.875 63.3574 316.861 64.9277 316.861 67.7754C316.861 70.623 317.875 72.1934 319.715 72.1934ZM317.887 67.7754C317.887 65.4785 318.52 64.2715 319.715 64.2715C320.512 64.2715 321.062 64.8105 321.338 65.8594L317.928 68.707C317.904 68.4199 317.887 68.1094 317.887 67.7754ZM319.715 71.2793C318.918 71.2793 318.373 70.7402 318.098 69.7031L321.496 66.832C321.525 67.125 321.537 67.4355 321.537 67.7754C321.537 70.0664 320.91 71.2793 319.715 71.2793Z" fill="black"/>
<path d="M163.902 86V85.0918H161.523V77.5449H160.51L157.99 79.1797V80.2812L160.41 78.7168H160.504V85.0918H158.008V86H163.902Z" fill="black"/>
<path d="M213.715 86.1934C215.549 86.1934 216.568 84.623 216.568 81.7754C216.568 78.9277 215.549 77.3574 213.715 77.3574C211.875 77.3574 210.861 78.9277 210.861 81.7754C210.861 84.623 211.875 86.1934 213.715 86.1934ZM211.887 81.7754C211.887 79.4785 212.52 78.2715 213.715 78.2715C214.512 78.2715 215.062 78.8105 215.338 79.8594L211.928 82.707C211.904 82.4199 211.887 82.1094 211.887 81.7754ZM213.715 85.2793C212.918 85.2793 212.373 84.7402 212.098 83.7031L215.496 80.832C215.525 81.125 215.537 81.4355 215.537 81.7754C215.537 84.0664 214.91 85.2793 213.715 85.2793Z" fill="black"/>
<path d="M266.715 86.1934C268.549 86.1934 269.568 84.623 269.568 81.7754C269.568 78.9277 268.549 77.3574 266.715 77.3574C264.875 77.3574 263.861 78.9277 263.861 81.7754C263.861 84.623 264.875 86.1934 266.715 86.1934ZM264.887 81.7754C264.887 79.4785 265.52 78.2715 266.715 78.2715C267.512 78.2715 268.062 78.8105 268.338 79.8594L264.928 82.707C264.904 82.4199 264.887 82.1094 264.887 81.7754ZM266.715 85.2793C265.918 85.2793 265.373 84.7402 265.098 83.7031L268.496 80.832C268.525 81.125 268.537 81.4355 268.537 81.7754C268.537 84.0664 267.91 85.2793 266.715 85.2793Z" fill="black"/>
<path d="M319.715 86.1934C321.549 86.1934 322.568 84.623 322.568 81.7754C322.568 78.9277 321.549 77.3574 319.715 77.3574C317.875 77.3574 316.861 78.9277 316.861 81.7754C316.861 84.623 317.875 86.1934 319.715 86.1934ZM317.887 81.7754C317.887 79.4785 318.52 78.2715 319.715 78.2715C320.512 78.2715 321.062 78.8105 321.338 79.8594L317.928 82.707C317.904 82.4199 317.887 82.1094 317.887 81.7754ZM319.715 85.2793C318.918 85.2793 318.373 84.7402 318.098 83.7031L321.496 80.832C321.525 81.125 321.537 81.4355 321.537 81.7754C321.537 84.0664 320.91 85.2793 319.715 85.2793Z" fill="black"/>
<path d="M160.715 100.193C162.549 100.193 163.568 98.623 163.568 95.7754C163.568 92.9277 162.549 91.3574 160.715 91.3574C158.875 91.3574 157.861 92.9277 157.861 95.7754C157.861 98.623 158.875 100.193 160.715 100.193ZM158.887 95.7754C158.887 93.4785 159.52 92.2715 160.715 92.2715C161.512 92.2715 162.062 92.8105 162.338 93.8594L158.928 96.707C158.904 96.4199 158.887 96.1094 158.887 95.7754ZM160.715 99.2793C159.918 99.2793 159.373 98.7402 159.098 97.7031L162.496 94.832C162.525 95.125 162.537 95.4355 162.537 95.7754C162.537 98.0664 161.91 99.2793 160.715 99.2793Z" fill="black"/>
<path d="M216.902 100V99.0918H214.523V91.5449H213.51L210.99 93.1797V94.2812L213.41 92.7168H213.504V99.0918H211.008V100H216.902Z" fill="black"/>
<path d="M266.715 100.193C268.549 100.193 269.568 98.623 269.568 95.7754C269.568 92.9277 268.549 91.3574 266.715 91.3574C264.875 91.3574 263.861 92.9277 263.861 95.7754C263.861 98.623 264.875 100.193 266.715 100.193ZM264.887 95.7754C264.887 93.4785 265.52 92.2715 266.715 92.2715C267.512 92.2715 268.062 92.8105 268.338 93.8594L264.928 96.707C264.904 96.4199 264.887 96.1094 264.887 95.7754ZM266.715 99.2793C265.918 99.2793 265.373 98.7402 265.098 97.7031L268.496 94.832C268.525 95.125 268.537 95.4355 268.537 95.7754C268.537 98.0664 267.91 99.2793 266.715 99.2793Z" fill="black"/>
<path d="M319.715 100.193C321.549 100.193 322.568 98.623 322.568 95.7754C322.568 92.9277 321.549 91.3574 319.715 91.3574C317.875 91.3574 316.861 92.9277 316.861 95.7754C316.861 98.623 317.875 100.193 319.715 100.193ZM317.887 95.7754C317.887 93.4785 318.52 92.2715 319.715 92.2715C320.512 92.2715 321.062 92.8105 321.338 93.8594L317.928 96.707C317.904 96.4199 317.887 96.1094 317.887 95.7754ZM319.715 99.2793C318.918 99.2793 318.373 98.7402 318.098 97.7031L321.496 94.832C321.525 95.125 321.537 95.4355 321.537 95.7754C321.537 98.0664 320.91 99.2793 319.715 99.2793Z" fill="black"/>
<path d="M160.715 114.193C162.549 114.193 163.568 112.623 163.568 109.775C163.568 106.928 162.549 105.357 160.715 105.357C158.875 105.357 157.861 106.928 157.861 109.775C157.861 112.623 158.875 114.193 160.715 114.193ZM158.887 109.775C158.887 107.479 159.52 106.271 160.715 106.271C161.512 106.271 162.062 106.811 162.338 107.859L158.928 110.707C158.904 110.42 158.887 110.109 158.887 109.775ZM160.715 113.279C159.918 113.279 159.373 112.74 159.098 111.703L162.496 108.832C162.525 109.125 162.537 109.436 162.537 109.775C162.537 112.066 161.91 113.279 160.715 113.279Z" fill="black"/>
<path d="M213.715 114.193C215.549 114.193 216.568 112.623 216.568 109.775C216.568 106.928 215.549 105.357 213.715 105.357C211.875 105.357 210.861 106.928 210.861 109.775C210.861 112.623 211.875 114.193 213.715 114.193ZM211.887 109.775C211.887 107.479 212.52 106.271 213.715 106.271C214.512 106.271 215.062 106.811 215.338 107.859L211.928 110.707C211.904 110.42 211.887 110.109 211.887 109.775ZM213.715 113.279C212.918 113.279 212.373 112.74 212.098 111.703L215.496 108.832C215.525 109.125 215.537 109.436 215.537 109.775C215.537 112.066 214.91 113.279 213.715 113.279Z" fill="black"/>
<path d="M269.902 114V113.092H267.523V105.545H266.51L263.99 107.18V108.281L266.41 106.717H266.504V113.092H264.008V114H269.902Z" fill="black"/>
<path d="M319.715 114.193C321.549 114.193 322.568 112.623 322.568 109.775C322.568 106.928 321.549 105.357 319.715 105.357C317.875 105.357 316.861 106.928 316.861 109.775C316.861 112.623 317.875 114.193 319.715 114.193ZM317.887 109.775C317.887 107.479 318.52 106.271 319.715 106.271C320.512 106.271 321.062 106.811 321.338 107.859L317.928 110.707C317.904 110.42 317.887 110.109 317.887 109.775ZM319.715 113.279C318.918 113.279 318.373 112.74 318.098 111.703L321.496 108.832C321.525 109.125 321.537 109.436 321.537 109.775C321.537 112.066 320.91 113.279 319.715 113.279Z" fill="black"/>
<path d="M163.902 128V127.092H161.523V119.545H160.51L157.99 121.18V122.281L160.41 120.717H160.504V127.092H158.008V128H163.902Z" fill="black"/>
<path d="M213.715 128.193C215.549 128.193 216.568 126.623 216.568 123.775C216.568 120.928 215.549 119.357 213.715 119.357C211.875 119.357 210.861 120.928 210.861 123.775C210.861 126.623 211.875 128.193 213.715 128.193ZM211.887 123.775C211.887 121.479 212.52 120.271 213.715 120.271C214.512 120.271 215.062 120.811 215.338 121.859L211.928 124.707C211.904 124.42 211.887 124.109 211.887 123.775ZM213.715 127.279C212.918 127.279 212.373 126.74 212.098 125.703L215.496 122.832C215.525 123.125 215.537 123.436 215.537 123.775C215.537 126.066 214.91 127.279 213.715 127.279Z" fill="black"/>
<path d="M266.715 128.193C268.549 128.193 269.568 126.623 269.568 123.775C269.568 120.928 268.549 119.357 266.715 119.357C264.875 119.357 263.861 120.928 263.861 123.775C263.861 126.623 264.875 128.193 266.715 128.193ZM264.887 123.775C264.887 121.479 265.52 120.271 266.715 120.271C267.512 120.271 268.062 120.811 268.338 121.859L264.928 124.707C264.904 124.42 264.887 124.109 264.887 123.775ZM266.715 127.279C265.918 127.279 265.373 126.74 265.098 125.703L268.496 122.832C268.525 123.125 268.537 123.436 268.537 123.775C268.537 126.066 267.91 127.279 266.715 127.279Z" fill="black"/>
<path d="M319.715 128.193C321.549 128.193 322.568 126.623 322.568 123.775C322.568 120.928 321.549 119.357 319.715 119.357C317.875 119.357 316.861 120.928 316.861 123.775C316.861 126.623 317.875 128.193 319.715 128.193ZM317.887 123.775C317.887 121.479 318.52 120.271 319.715 120.271C320.512 120.271 321.062 120.811 321.338 121.859L317.928 124.707C317.904 124.42 317.887 124.109 317.887 123.775ZM319.715 127.279C318.918 127.279 318.373 126.74 318.098 125.703L321.496 122.832C321.525 123.125 321.537 123.436 321.537 123.775C321.537 126.066 320.91 127.279 319.715 127.279Z" fill="black"/>
<path d="M160.715 142.193C162.549 142.193 163.568 140.623 163.568 137.775C163.568 134.928 162.549 133.357 160.715 133.357C158.875 133.357 157.861 134.928 157.861 137.775C157.861 140.623 158.875 142.193 160.715 142.193ZM158.887 137.775C158.887 135.479 159.52 134.271 160.715 134.271C161.512 134.271 162.062 134.811 162.338 135.859L158.928 138.707C158.904 138.42 158.887 138.109 158.887 137.775ZM160.715 141.279C159.918 141.279 159.373 140.74 159.098 139.703L162.496 136.832C162.525 137.125 162.537 137.436 162.537 137.775C162.537 140.066 161.91 141.279 160.715 141.279Z" fill="black"/>
<path d="M213.715 142.193C215.549 142.193 216.568 140.623 216.568 137.775C216.568 134.928 215.549 133.357 213.715 133.357C211.875 133.357 210.861 134.928 210.861 137.775C210.861 140.623 211.875 142.193 213.715 142.193ZM211.887 137.775C211.887 135.479 212.52 134.271 213.715 134.271C214.512 134.271 215.062 134.811 215.338 135.859L211.928 138.707C211.904 138.42 211.887 138.109 211.887 137.775ZM213.715 141.279C212.918 141.279 212.373 140.74 212.098 139.703L215.496 136.832C215.525 137.125 215.537 137.436 215.537 137.775C215.537 140.066 214.91 141.279 213.715 141.279Z" fill="black"/>
<path d="M266.715 142.193C268.549 142.193 269.568 140.623 269.568 137.775C269.568 134.928 268.549 133.357 266.715 133.357C264.875 133.357 263.861 134.928 263.861 137.775C263.861 140.623 264.875 142.193 266.715 142.193ZM264.887 137.775C264.887 135.479 265.52 134.271 266.715 134.271C267.512 134.271 268.062 134.811 268.338 135.859L264.928 138.707C264.904 138.42 264.887 138.109 264.887 137.775ZM266.715 141.279C265.918 141.279 265.373 140.74 265.098 139.703L268.496 136.832C268.525 137.125 268.537 137.436 268.537 137.775C268.537 140.066 267.91 141.279 266.715 141.279Z" fill="black"/>
<path d="M322.902 142V141.092H320.523V133.545H319.51L316.99 135.18V136.281L319.41 134.717H319.504V141.092H317.008V142H322.902Z" fill="black"/>
<path d="M72 55V44L45 44M18 55V44H45M45 44V33" stroke="black"/>
<path d="M16.2363 11H17.291V7.33789H21.0352V6.40039H17.291V3.49414H21.3691V2.54492H16.2363V11ZM24.709 11.1172C26.3906 11.1172 27.5273 9.89844 27.5273 7.95312V7.94141C27.5273 5.99609 26.3848 4.78906 24.7031 4.78906C23.0215 4.78906 21.8848 6.00195 21.8848 7.94141V7.95312C21.8848 9.89258 23.0156 11.1172 24.709 11.1172ZM24.7148 10.2148C23.6367 10.2148 22.9277 9.38867 22.9277 7.95312V7.94141C22.9277 6.51758 23.6426 5.69141 24.7031 5.69141C25.7812 5.69141 26.4844 6.51172 26.4844 7.94141V7.95312C26.4844 9.38281 25.7871 10.2148 24.7148 10.2148ZM30.6387 11.1172C31.5645 11.1172 32.1855 10.7012 32.5137 10.1328H32.5371V11H33.5566V4.90625H32.5371V8.49219C32.5371 9.5293 31.9102 10.2148 30.9492 10.2148C30.0117 10.2148 29.5488 9.66992 29.5488 8.67969V4.90625H28.5293V8.86133C28.5293 10.25 29.3027 11.1172 30.6387 11.1172ZM34.8867 11H35.9062V7.19141C35.9062 6.33008 36.4219 5.76172 37.2129 5.76172C37.459 5.76172 37.6758 5.79102 37.7578 5.82031V4.83008C37.6758 4.81836 37.5234 4.78906 37.3477 4.78906C36.6328 4.78906 36.0703 5.2168 35.8711 5.89062H35.8477V4.90625H34.8867V11ZM43.1309 11.1172C44.0566 11.1172 44.6777 10.7012 45.0059 10.1328H45.0293V11H46.0488V4.90625H45.0293V8.49219C45.0293 9.5293 44.4023 10.2148 43.4414 10.2148C42.5039 10.2148 42.041 9.66992 42.041 8.67969V4.90625H41.0215V8.86133C41.0215 10.25 41.7949 11.1172 43.1309 11.1172ZM47.3789 11H48.3984V7.41406C48.3984 6.37695 49.0254 5.69141 49.9863 5.69141C50.9238 5.69141 51.3867 6.23633 51.3867 7.22656V11H52.4062V7.04492C52.4062 5.65625 51.6328 4.78906 50.2969 4.78906C49.3711 4.78906 48.75 5.20508 48.4219 5.77344H48.3984V4.90625H47.3789V11ZM54.2812 3.875C54.6387 3.875 54.9199 3.58789 54.9199 3.23633C54.9199 2.87891 54.6387 2.59766 54.2812 2.59766C53.9297 2.59766 53.6426 2.87891 53.6426 3.23633C53.6426 3.58789 53.9297 3.875 54.2812 3.875ZM53.7715 11H54.791V4.90625H53.7715V11ZM60.4277 13.0508H61.4473V4.90625H60.4277V5.9375H60.4043C60.0293 5.26367 59.3496 4.80078 58.4883 4.80078C56.9414 4.80078 55.8809 6.03711 55.8809 7.94141V7.94727C55.8809 9.86328 56.9297 11.1055 58.4648 11.1055C59.3379 11.1055 60.041 10.6777 60.4043 10.0098H60.4277V13.0508ZM58.6875 10.2031C57.6035 10.2031 56.9238 9.3418 56.9238 7.94727V7.94141C56.9238 6.57617 57.6035 5.70312 58.6875 5.70312C59.7188 5.70312 60.4277 6.58789 60.4277 7.94141V7.94727C60.4277 9.3125 59.7246 10.2031 58.6875 10.2031ZM64.8457 11.1172C65.7715 11.1172 66.3926 10.7012 66.7207 10.1328H66.7441V11H67.7637V4.90625H66.7441V8.49219C66.7441 9.5293 66.1172 10.2148 65.1562 10.2148C64.2188 10.2148 63.7559 9.66992 63.7559 8.67969V4.90625H62.7363V8.86133C62.7363 10.25 63.5098 11.1172 64.8457 11.1172ZM71.6016 11.1172C72.9316 11.1172 73.9277 10.3203 74.127 9.3125L74.1387 9.25391H73.1367L73.1191 9.30664C72.9434 9.82812 72.3984 10.2148 71.625 10.2148C70.541 10.2148 69.8496 9.48242 69.8262 8.22852H74.2148V7.85352C74.2148 6.02539 73.2012 4.78906 71.5371 4.78906C69.873 4.78906 68.7949 6.08398 68.7949 7.9707V7.97656C68.7949 9.89258 69.8496 11.1172 71.6016 11.1172ZM71.5312 5.69141C72.4219 5.69141 73.0781 6.24805 73.1777 7.43164H69.8438C69.9551 6.29492 70.6465 5.69141 71.5312 5.69141ZM21.9316 25.1172C23.3086 25.1172 24.3105 24.2207 24.4746 23.0605L24.4805 23.0195H23.4785L23.4668 23.0664C23.2969 23.7461 22.7637 24.2148 21.9316 24.2148C20.877 24.2148 20.1504 23.377 20.1504 21.959V21.9531C20.1504 20.5703 20.8594 19.6914 21.9199 19.6914C22.8164 19.6914 23.3086 20.2305 23.4609 20.8398L23.4727 20.8867H24.4688L24.4629 20.8398C24.334 19.7969 23.4375 18.7891 21.9199 18.7891C20.2266 18.7891 19.1074 20.0195 19.1074 21.9414V21.9473C19.1074 23.8867 20.2031 25.1172 21.9316 25.1172ZM27.1992 25.1172C28.0137 25.1172 28.7461 24.6777 29.1035 24.0098H29.127V25H30.1465V20.7871C30.1465 19.5684 29.2441 18.7891 27.8027 18.7891C26.3672 18.7891 25.4941 19.5977 25.4062 20.5996L25.4004 20.6641H26.3848L26.3965 20.6113C26.5137 20.0664 27.0059 19.6914 27.791 19.6914C28.6406 19.6914 29.127 20.1426 29.127 20.8867V21.3965L27.3809 21.4961C25.9805 21.5781 25.1719 22.2285 25.1719 23.2656V23.2773C25.1719 24.3848 25.9863 25.1172 27.1992 25.1172ZM26.2148 23.2773V23.2656C26.2148 22.6973 26.6836 22.334 27.498 22.2871L29.127 22.1875V22.6855C29.127 23.5703 28.3887 24.2324 27.4277 24.2324C26.6953 24.2324 26.2148 23.8633 26.2148 23.2773ZM33.4219 25.1172C33.6211 25.1172 33.8379 25.0938 33.9668 25.0762V24.25C33.8789 24.2559 33.7617 24.2734 33.6387 24.2734C33.0938 24.2734 32.8066 24.0918 32.8066 23.4414V19.75H33.9668V18.9062H32.8066V17.2598H31.752V18.9062H30.8613V19.75H31.752V23.4473C31.752 24.6133 32.3027 25.1172 33.4219 25.1172ZM37.3945 25.1172C38.7246 25.1172 39.7207 24.3203 39.9199 23.3125L39.9316 23.2539H38.9297L38.9121 23.3066C38.7363 23.8281 38.1914 24.2148 37.418 24.2148C36.334 24.2148 35.6426 23.4824 35.6191 22.2285H40.0078V21.8535C40.0078 20.0254 38.9941 18.7891 37.3301 18.7891C35.666 18.7891 34.5879 20.084 34.5879 21.9707V21.9766C34.5879 23.8926 35.6426 25.1172 37.3945 25.1172ZM37.3242 19.6914C38.2148 19.6914 38.8711 20.248 38.9707 21.4316H35.6367C35.748 20.2949 36.4395 19.6914 37.3242 19.6914ZM43.6172 27.168C45.2695 27.168 46.3066 26.2422 46.3066 24.8301V18.9062H45.2871V19.9375H45.2637C44.8887 19.2578 44.209 18.7891 43.3477 18.7891C41.8008 18.7891 40.7402 20.0195 40.7402 21.9121V21.918C40.7402 23.8223 41.7891 25.0586 43.3242 25.0586C44.1973 25.0586 44.9004 24.625 45.2637 23.9512H45.2871V24.7305C45.2871 25.6738 44.6777 26.2656 43.6055 26.2656C42.7734 26.2656 42.1934 25.9961 42 25.5566L41.9766 25.5039H40.9512L40.9629 25.5566C41.1621 26.459 42.1113 27.168 43.6172 27.168ZM43.5469 24.1562C42.4629 24.1562 41.7832 23.3008 41.7832 21.918V21.9121C41.7832 20.5586 42.4629 19.6914 43.5469 19.6914C44.5781 19.6914 45.2871 20.5703 45.2871 21.9121V21.918C45.2871 23.2715 44.584 24.1562 43.5469 24.1562ZM50.1504 25.1172C51.832 25.1172 52.9688 23.8984 52.9688 21.9531V21.9414C52.9688 19.9961 51.8262 18.7891 50.1445 18.7891C48.4629 18.7891 47.3262 20.002 47.3262 21.9414V21.9531C47.3262 23.8926 48.457 25.1172 50.1504 25.1172ZM50.1562 24.2148C49.0781 24.2148 48.3691 23.3887 48.3691 21.9531V21.9414C48.3691 20.5176 49.084 19.6914 50.1445 19.6914C51.2227 19.6914 51.9258 20.5117 51.9258 21.9414V21.9531C51.9258 23.3828 51.2285 24.2148 50.1562 24.2148ZM54 25H55.0195V21.1914C55.0195 20.3301 55.5352 19.7617 56.3262 19.7617C56.5723 19.7617 56.7891 19.791 56.8711 19.8203V18.8301C56.7891 18.8184 56.6367 18.7891 56.4609 18.7891C55.7461 18.7891 55.1836 19.2168 54.9844 19.8906H54.9609V18.9062H54V25ZM58.2773 17.875C58.6348 17.875 58.916 17.5879 58.916 17.2363C58.916 16.8789 58.6348 16.5977 58.2773 16.5977C57.9258 16.5977 57.6387 16.8789 57.6387 17.2363C57.6387 17.5879 57.9258 17.875 58.2773 17.875ZM57.7676 25H58.7871V18.9062H57.7676V25ZM62.6836 25.1172C64.0137 25.1172 65.0098 24.3203 65.209 23.3125L65.2207 23.2539H64.2188L64.2012 23.3066C64.0254 23.8281 63.4805 24.2148 62.707 24.2148C61.623 24.2148 60.9316 23.4824 60.9082 22.2285H65.2969V21.8535C65.2969 20.0254 64.2832 18.7891 62.6191 18.7891C60.9551 18.7891 59.877 20.084 59.877 21.9707V21.9766C59.877 23.8926 60.9316 25.1172 62.6836 25.1172ZM62.6133 19.6914C63.5039 19.6914 64.1602 20.248 64.2598 21.4316H60.9258C61.0371 20.2949 61.7285 19.6914 62.6133 19.6914ZM68.4902 25.1172C69.8496 25.1172 70.8574 24.3672 70.8574 23.3008V23.2949C70.8574 22.4277 70.4121 21.9414 69.1816 21.6426L68.2148 21.4082C67.541 21.2441 67.2656 20.957 67.2656 20.541V20.5352C67.2656 19.9961 67.7227 19.6387 68.4609 19.6387C69.2168 19.6387 69.668 20.0312 69.75 20.623L69.7559 20.6641H70.7285L70.7227 20.5879C70.6465 19.5684 69.7969 18.7891 68.4609 18.7891C67.1426 18.7891 66.2227 19.5332 66.2227 20.582V20.5879C66.2227 21.4668 66.7793 22 67.9277 22.2754L68.8945 22.5098C69.5859 22.6797 69.8145 22.9258 69.8145 23.3652V23.3711C69.8145 23.9219 69.3223 24.2676 68.4961 24.2676C67.6641 24.2676 67.2129 23.9102 67.0898 23.3008L67.0781 23.2422H66.0586L66.0645 23.2949C66.1875 24.3848 67.0547 25.1172 68.4902 25.1172Z" fill="black"/>
<path d="M199.111 11H200.166V7.33789H203.91V6.40039H200.166V3.49414H204.244V2.54492H199.111V11ZM207.584 11.1172C209.266 11.1172 210.402 9.89844 210.402 7.95312V7.94141C210.402 5.99609 209.26 4.78906 207.578 4.78906C205.896 4.78906 204.76 6.00195 204.76 7.94141V7.95312C204.76 9.89258 205.891 11.1172 207.584 11.1172ZM207.59 10.2148C206.512 10.2148 205.803 9.38867 205.803 7.95312V7.94141C205.803 6.51758 206.518 5.69141 207.578 5.69141C208.656 5.69141 209.359 6.51172 209.359 7.94141V7.95312C209.359 9.38281 208.662 10.2148 207.59 10.2148ZM213.514 11.1172C214.439 11.1172 215.061 10.7012 215.389 10.1328H215.412V11H216.432V4.90625H215.412V8.49219C215.412 9.5293 214.785 10.2148 213.824 10.2148C212.887 10.2148 212.424 9.66992 212.424 8.67969V4.90625H211.404V8.86133C211.404 10.25 212.178 11.1172 213.514 11.1172ZM217.762 11H218.781V7.19141C218.781 6.33008 219.297 5.76172 220.088 5.76172C220.334 5.76172 220.551 5.79102 220.633 5.82031V4.83008C220.551 4.81836 220.398 4.78906 220.223 4.78906C219.508 4.78906 218.945 5.2168 218.746 5.89062H218.723V4.90625H217.762V11ZM223.926 11H224.945V7.41406C224.945 6.37695 225.572 5.69141 226.533 5.69141C227.471 5.69141 227.934 6.23633 227.934 7.22656V11H228.953V7.04492C228.953 5.65625 228.18 4.78906 226.844 4.78906C225.918 4.78906 225.297 5.20508 224.969 5.77344H224.945V4.90625H223.926V11ZM232.762 11.1172C234.092 11.1172 235.088 10.3203 235.287 9.3125L235.299 9.25391H234.297L234.279 9.30664C234.104 9.82812 233.559 10.2148 232.785 10.2148C231.701 10.2148 231.01 9.48242 230.986 8.22852H235.375V7.85352C235.375 6.02539 234.361 4.78906 232.697 4.78906C231.033 4.78906 229.955 6.08398 229.955 7.9707V7.97656C229.955 9.89258 231.01 11.1172 232.762 11.1172ZM232.691 5.69141C233.582 5.69141 234.238 6.24805 234.338 7.43164H231.004C231.115 6.29492 231.807 5.69141 232.691 5.69141ZM237.613 11H238.65L240.021 6.2832H240.045L241.422 11H242.459L244.158 4.90625H243.15L241.932 9.86328H241.908L240.525 4.90625H239.541L238.164 9.86328H238.141L236.922 4.90625H235.908L237.613 11ZM247.785 11H248.805V5.75H250.047V4.90625H248.793V4.16211C248.793 3.55859 249.074 3.27148 249.637 3.27148C249.795 3.27148 249.953 3.27734 250.076 3.29492V2.46875C249.924 2.44531 249.684 2.42773 249.455 2.42773C248.33 2.42773 247.785 2.98438 247.785 4.15625V4.90625H246.936V5.75H247.785V11ZM253.023 11.1172C254.354 11.1172 255.35 10.3203 255.549 9.3125L255.561 9.25391H254.559L254.541 9.30664C254.365 9.82812 253.82 10.2148 253.047 10.2148C251.963 10.2148 251.271 9.48242 251.248 8.22852H255.637V7.85352C255.637 6.02539 254.623 4.78906 252.959 4.78906C251.295 4.78906 250.217 6.08398 250.217 7.9707V7.97656C250.217 9.89258 251.271 11.1172 253.023 11.1172ZM252.953 5.69141C253.844 5.69141 254.5 6.24805 254.6 7.43164H251.266C251.377 6.29492 252.068 5.69141 252.953 5.69141ZM258.449 11.1172C259.264 11.1172 259.996 10.6777 260.354 10.0098H260.377V11H261.396V6.78711C261.396 5.56836 260.494 4.78906 259.053 4.78906C257.617 4.78906 256.744 5.59766 256.656 6.59961L256.65 6.66406H257.635L257.646 6.61133C257.764 6.06641 258.256 5.69141 259.041 5.69141C259.891 5.69141 260.377 6.14258 260.377 6.88672V7.39648L258.631 7.49609C257.23 7.57812 256.422 8.22852 256.422 9.26562V9.27734C256.422 10.3848 257.236 11.1172 258.449 11.1172ZM257.465 9.27734V9.26562C257.465 8.69727 257.934 8.33398 258.748 8.28711L260.377 8.1875V8.68555C260.377 9.57031 259.639 10.2324 258.678 10.2324C257.945 10.2324 257.465 9.86328 257.465 9.27734ZM264.672 11.1172C264.871 11.1172 265.088 11.0938 265.217 11.0762V10.25C265.129 10.2559 265.012 10.2734 264.889 10.2734C264.344 10.2734 264.057 10.0918 264.057 9.44141V5.75H265.217V4.90625H264.057V3.25977H263.002V4.90625H262.111V5.75H263.002V9.44727C263.002 10.6133 263.553 11.1172 264.672 11.1172ZM268.393 11.1172C269.318 11.1172 269.939 10.7012 270.268 10.1328H270.291V11H271.311V4.90625H270.291V8.49219C270.291 9.5293 269.664 10.2148 268.703 10.2148C267.766 10.2148 267.303 9.66992 267.303 8.67969V4.90625H266.283V8.86133C266.283 10.25 267.057 11.1172 268.393 11.1172ZM272.641 11H273.66V7.19141C273.66 6.33008 274.176 5.76172 274.967 5.76172C275.213 5.76172 275.43 5.79102 275.512 5.82031V4.83008C275.43 4.81836 275.277 4.78906 275.102 4.78906C274.387 4.78906 273.824 5.2168 273.625 5.89062H273.602V4.90625H272.641V11ZM278.559 11.1172C279.889 11.1172 280.885 10.3203 281.084 9.3125L281.096 9.25391H280.094L280.076 9.30664C279.9 9.82812 279.355 10.2148 278.582 10.2148C277.498 10.2148 276.807 9.48242 276.783 8.22852H281.172V7.85352C281.172 6.02539 280.158 4.78906 278.494 4.78906C276.83 4.78906 275.752 6.08398 275.752 7.9707V7.97656C275.752 9.89258 276.807 11.1172 278.559 11.1172ZM278.488 5.69141C279.379 5.69141 280.035 6.24805 280.135 7.43164H276.801C276.912 6.29492 277.604 5.69141 278.488 5.69141ZM284.365 11.1172C285.725 11.1172 286.732 10.3672 286.732 9.30078V9.29492C286.732 8.42773 286.287 7.94141 285.057 7.64258L284.09 7.4082C283.416 7.24414 283.141 6.95703 283.141 6.54102V6.53516C283.141 5.99609 283.598 5.63867 284.336 5.63867C285.092 5.63867 285.543 6.03125 285.625 6.62305L285.631 6.66406H286.604L286.598 6.58789C286.521 5.56836 285.672 4.78906 284.336 4.78906C283.018 4.78906 282.098 5.5332 282.098 6.58203V6.58789C282.098 7.4668 282.654 8 283.803 8.27539L284.77 8.50977C285.461 8.67969 285.689 8.92578 285.689 9.36523V9.37109C285.689 9.92188 285.197 10.2676 284.371 10.2676C283.539 10.2676 283.088 9.91016 282.965 9.30078L282.953 9.24219H281.934L281.939 9.29492C282.062 10.3848 282.93 11.1172 284.365 11.1172ZM287.383 12.6582H288.109L288.965 9.79297H287.898L287.383 12.6582ZM149.113 25.1172C150.795 25.1172 151.932 23.8984 151.932 21.9531V21.9414C151.932 19.9961 150.789 18.7891 149.107 18.7891C147.426 18.7891 146.289 20.002 146.289 21.9414V21.9531C146.289 23.8926 147.42 25.1172 149.113 25.1172ZM149.119 24.2148C148.041 24.2148 147.332 23.3887 147.332 21.9531V21.9414C147.332 20.5176 148.047 19.6914 149.107 19.6914C150.186 19.6914 150.889 20.5117 150.889 21.9414V21.9531C150.889 23.3828 150.191 24.2148 149.119 24.2148ZM152.963 25H153.982V21.4141C153.982 20.377 154.609 19.6914 155.57 19.6914C156.508 19.6914 156.971 20.2363 156.971 21.2266V25H157.99V21.0449C157.99 19.6562 157.217 18.7891 155.881 18.7891C154.955 18.7891 154.334 19.2051 154.006 19.7734H153.982V18.9062H152.963V25ZM159.344 25H160.363V16.5449H159.344V25ZM162.326 27.0508C163.428 27.0508 163.961 26.5469 164.395 25.3809L166.773 18.9062H165.701L164.014 23.9805H163.99L162.309 18.9062H161.219L163.48 25.0059L163.357 25.3516C163.111 26.043 162.754 26.207 162.109 26.207C161.986 26.207 161.869 26.1895 161.781 26.1719V27.0039C161.91 27.0273 162.127 27.0508 162.326 27.0508ZM172.562 25.1172C174.244 25.1172 175.381 23.8984 175.381 21.9531V21.9414C175.381 19.9961 174.238 18.7891 172.557 18.7891C170.875 18.7891 169.738 20.002 169.738 21.9414V21.9531C169.738 23.8926 170.869 25.1172 172.562 25.1172ZM172.568 24.2148C171.49 24.2148 170.781 23.3887 170.781 21.9531V21.9414C170.781 20.5176 171.496 19.6914 172.557 19.6914C173.635 19.6914 174.338 20.5117 174.338 21.9414V21.9531C174.338 23.3828 173.641 24.2148 172.568 24.2148ZM176.412 25H177.432V21.4141C177.432 20.377 178.059 19.6914 179.02 19.6914C179.957 19.6914 180.42 20.2363 180.42 21.2266V25H181.439V21.0449C181.439 19.6562 180.666 18.7891 179.33 18.7891C178.404 18.7891 177.783 19.2051 177.455 19.7734H177.432V18.9062H176.412V25ZM185.248 25.1172C186.578 25.1172 187.574 24.3203 187.773 23.3125L187.785 23.2539H186.783L186.766 23.3066C186.59 23.8281 186.045 24.2148 185.271 24.2148C184.188 24.2148 183.496 23.4824 183.473 22.2285H187.861V21.8535C187.861 20.0254 186.848 18.7891 185.184 18.7891C183.52 18.7891 182.441 20.084 182.441 21.9707V21.9766C182.441 23.8926 183.496 25.1172 185.248 25.1172ZM185.178 19.6914C186.068 19.6914 186.725 20.248 186.824 21.4316H183.49C183.602 20.2949 184.293 19.6914 185.178 19.6914ZM191.682 25H192.701V19.75H193.943V18.9062H192.689V18.1621C192.689 17.5586 192.971 17.2715 193.533 17.2715C193.691 17.2715 193.85 17.2773 193.973 17.2949V16.4688C193.82 16.4453 193.58 16.4277 193.352 16.4277C192.227 16.4277 191.682 16.9844 191.682 18.1562V18.9062H190.832V19.75H191.682V25ZM196.92 25.1172C198.25 25.1172 199.246 24.3203 199.445 23.3125L199.457 23.2539H198.455L198.438 23.3066C198.262 23.8281 197.717 24.2148 196.943 24.2148C195.859 24.2148 195.168 23.4824 195.145 22.2285H199.533V21.8535C199.533 20.0254 198.52 18.7891 196.855 18.7891C195.191 18.7891 194.113 20.084 194.113 21.9707V21.9766C194.113 23.8926 195.168 25.1172 196.92 25.1172ZM196.85 19.6914C197.74 19.6914 198.396 20.248 198.496 21.4316H195.162C195.273 20.2949 195.965 19.6914 196.85 19.6914ZM202.346 25.1172C203.16 25.1172 203.893 24.6777 204.25 24.0098H204.273V25H205.293V20.7871C205.293 19.5684 204.391 18.7891 202.949 18.7891C201.514 18.7891 200.641 19.5977 200.553 20.5996L200.547 20.6641H201.531L201.543 20.6113C201.66 20.0664 202.152 19.6914 202.938 19.6914C203.787 19.6914 204.273 20.1426 204.273 20.8867V21.3965L202.527 21.4961C201.127 21.5781 200.318 22.2285 200.318 23.2656V23.2773C200.318 24.3848 201.133 25.1172 202.346 25.1172ZM201.361 23.2773V23.2656C201.361 22.6973 201.83 22.334 202.645 22.2871L204.273 22.1875V22.6855C204.273 23.5703 203.535 24.2324 202.574 24.2324C201.842 24.2324 201.361 23.8633 201.361 23.2773ZM208.568 25.1172C208.768 25.1172 208.984 25.0938 209.113 25.0762V24.25C209.025 24.2559 208.908 24.2734 208.785 24.2734C208.24 24.2734 207.953 24.0918 207.953 23.4414V19.75H209.113V18.9062H207.953V17.2598H206.898V18.9062H206.008V19.75H206.898V23.4473C206.898 24.6133 207.449 25.1172 208.568 25.1172ZM212.289 25.1172C213.215 25.1172 213.836 24.7012 214.164 24.1328H214.188V25H215.207V18.9062H214.188V22.4922C214.188 23.5293 213.561 24.2148 212.6 24.2148C211.662 24.2148 211.199 23.6699 211.199 22.6797V18.9062H210.18V22.8613C210.18 24.25 210.953 25.1172 212.289 25.1172ZM216.537 25H217.557V21.1914C217.557 20.3301 218.072 19.7617 218.863 19.7617C219.109 19.7617 219.326 19.791 219.408 19.8203V18.8301C219.326 18.8184 219.174 18.7891 218.998 18.7891C218.283 18.7891 217.721 19.2168 217.521 19.8906H217.498V18.9062H216.537V25ZM222.455 25.1172C223.785 25.1172 224.781 24.3203 224.98 23.3125L224.992 23.2539H223.99L223.973 23.3066C223.797 23.8281 223.252 24.2148 222.479 24.2148C221.395 24.2148 220.703 23.4824 220.68 22.2285H225.068V21.8535C225.068 20.0254 224.055 18.7891 222.391 18.7891C220.727 18.7891 219.648 20.084 219.648 21.9707V21.9766C219.648 23.8926 220.703 25.1172 222.455 25.1172ZM222.385 19.6914C223.275 19.6914 223.932 20.248 224.031 21.4316H220.697C220.809 20.2949 221.5 19.6914 222.385 19.6914ZM228.613 25H229.633V21.4434C229.633 20.4062 230.26 19.6914 231.203 19.6914C232.152 19.6914 232.715 20.3418 232.715 21.4434V25H233.734V21.2676C233.734 19.791 232.85 18.7891 231.555 18.7891C230.646 18.7891 229.984 19.1934 229.656 19.8789H229.633V16.5449H228.613V25ZM236.811 25.1172C237.625 25.1172 238.357 24.6777 238.715 24.0098H238.738V25H239.758V20.7871C239.758 19.5684 238.855 18.7891 237.414 18.7891C235.979 18.7891 235.105 19.5977 235.018 20.5996L235.012 20.6641H235.996L236.008 20.6113C236.125 20.0664 236.617 19.6914 237.402 19.6914C238.252 19.6914 238.738 20.1426 238.738 20.8867V21.3965L236.992 21.4961C235.592 21.5781 234.783 22.2285 234.783 23.2656V23.2773C234.783 24.3848 235.598 25.1172 236.811 25.1172ZM235.826 23.2773V23.2656C235.826 22.6973 236.295 22.334 237.109 22.2871L238.738 22.1875V22.6855C238.738 23.5703 238 24.2324 237.039 24.2324C236.307 24.2324 235.826 23.8633 235.826 23.2773ZM243.215 25.1172C244.574 25.1172 245.582 24.3672 245.582 23.3008V23.2949C245.582 22.4277 245.137 21.9414 243.906 21.6426L242.939 21.4082C242.266 21.2441 241.99 20.957 241.99 20.541V20.5352C241.99 19.9961 242.447 19.6387 243.186 19.6387C243.941 19.6387 244.393 20.0312 244.475 20.623L244.48 20.6641H245.453L245.447 20.5879C245.371 19.5684 244.521 18.7891 243.186 18.7891C241.867 18.7891 240.947 19.5332 240.947 20.582V20.5879C240.947 21.4668 241.504 22 242.652 22.2754L243.619 22.5098C244.311 22.6797 244.539 22.9258 244.539 23.3652V23.3711C244.539 23.9219 244.047 24.2676 243.221 24.2676C242.389 24.2676 241.938 23.9102 241.814 23.3008L241.803 23.2422H240.783L240.789 23.2949C240.912 24.3848 241.779 25.1172 243.215 25.1172ZM250.82 25H251.863L254.102 18.9062H253.041L251.354 23.916H251.33L249.648 18.9062H248.576L250.82 25ZM256.568 25.1172C257.383 25.1172 258.115 24.6777 258.473 24.0098H258.496V25H259.516V20.7871C259.516 19.5684 258.613 18.7891 257.172 18.7891C255.736 18.7891 254.863 19.5977 254.775 20.5996L254.77 20.6641H255.754L255.766 20.6113C255.883 20.0664 256.375 19.6914 257.16 19.6914C258.01 19.6914 258.496 20.1426 258.496 20.8867V21.3965L256.75 21.4961C255.35 21.5781 254.541 22.2285 254.541 23.2656V23.2773C254.541 24.3848 255.355 25.1172 256.568 25.1172ZM255.584 23.2773V23.2656C255.584 22.6973 256.053 22.334 256.867 22.2871L258.496 22.1875V22.6855C258.496 23.5703 257.758 24.2324 256.797 24.2324C256.064 24.2324 255.584 23.8633 255.584 23.2773ZM260.863 25H261.883V16.5449H260.863V25ZM265.34 25.1172C266.266 25.1172 266.887 24.7012 267.215 24.1328H267.238V25H268.258V18.9062H267.238V22.4922C267.238 23.5293 266.611 24.2148 265.65 24.2148C264.713 24.2148 264.25 23.6699 264.25 22.6797V18.9062H263.23V22.8613C263.23 24.25 264.004 25.1172 265.34 25.1172ZM272.096 25.1172C273.426 25.1172 274.422 24.3203 274.621 23.3125L274.633 23.2539H273.631L273.613 23.3066C273.438 23.8281 272.893 24.2148 272.119 24.2148C271.035 24.2148 270.344 23.4824 270.32 22.2285H274.709V21.8535C274.709 20.0254 273.695 18.7891 272.031 18.7891C270.367 18.7891 269.289 20.084 269.289 21.9707V21.9766C269.289 23.8926 270.344 25.1172 272.096 25.1172ZM272.025 19.6914C272.916 19.6914 273.572 20.248 273.672 21.4316H270.338C270.449 20.2949 271.141 19.6914 272.025 19.6914ZM280.381 25H281.4V16.5449H280.369L278.119 18.1621V19.2227L280.357 17.6641H280.381V25ZM286.557 17.875C286.914 17.875 287.195 17.5879 287.195 17.2363C287.195 16.8789 286.914 16.5977 286.557 16.5977C286.205 16.5977 285.918 16.8789 285.918 17.2363C285.918 17.5879 286.205 17.875 286.557 17.875ZM286.047 25H287.066V18.9062H286.047V25ZM288.455 25H289.475V21.4141C289.475 20.377 290.102 19.6914 291.062 19.6914C292 19.6914 292.463 20.2363 292.463 21.2266V25H293.482V21.0449C293.482 19.6562 292.709 18.7891 291.373 18.7891C290.447 18.7891 289.826 19.2051 289.498 19.7734H289.475V18.9062H288.455V25ZM299.752 25.1172C301.082 25.1172 302.078 24.3203 302.277 23.3125L302.289 23.2539H301.287L301.27 23.3066C301.094 23.8281 300.549 24.2148 299.775 24.2148C298.691 24.2148 298 23.4824 297.977 22.2285H302.365V21.8535C302.365 20.0254 301.352 18.7891 299.688 18.7891C298.023 18.7891 296.945 20.084 296.945 21.9707V21.9766C296.945 23.8926 298 25.1172 299.752 25.1172ZM299.682 19.6914C300.572 19.6914 301.229 20.248 301.328 21.4316H297.994C298.105 20.2949 298.797 19.6914 299.682 19.6914ZM305.178 25.1172C305.992 25.1172 306.725 24.6777 307.082 24.0098H307.105V25H308.125V20.7871C308.125 19.5684 307.223 18.7891 305.781 18.7891C304.346 18.7891 303.473 19.5977 303.385 20.5996L303.379 20.6641H304.363L304.375 20.6113C304.492 20.0664 304.984 19.6914 305.77 19.6914C306.619 19.6914 307.105 20.1426 307.105 20.8867V21.3965L305.359 21.4961C303.959 21.5781 303.15 22.2285 303.15 23.2656V23.2773C303.15 24.3848 303.965 25.1172 305.178 25.1172ZM304.193 23.2773V23.2656C304.193 22.6973 304.662 22.334 305.477 22.2871L307.105 22.1875V22.6855C307.105 23.5703 306.367 24.2324 305.406 24.2324C304.674 24.2324 304.193 23.8633 304.193 23.2773ZM311.945 25.1172C313.322 25.1172 314.324 24.2207 314.488 23.0605L314.494 23.0195H313.492L313.48 23.0664C313.311 23.7461 312.777 24.2148 311.945 24.2148C310.891 24.2148 310.164 23.377 310.164 21.959V21.9531C310.164 20.5703 310.873 19.6914 311.934 19.6914C312.83 19.6914 313.322 20.2305 313.475 20.8398L313.486 20.8867H314.482L314.477 20.8398C314.348 19.7969 313.451 18.7891 311.934 18.7891C310.24 18.7891 309.121 20.0195 309.121 21.9414V21.9473C309.121 23.8867 310.217 25.1172 311.945 25.1172ZM315.484 25H316.504V21.4434C316.504 20.4062 317.131 19.6914 318.074 19.6914C319.023 19.6914 319.586 20.3418 319.586 21.4434V25H320.605V21.2676C320.605 19.791 319.721 18.7891 318.426 18.7891C317.518 18.7891 316.855 19.1934 316.527 19.8789H316.504V16.5449H315.484V25ZM324.361 25H325.381V21.1914C325.381 20.3301 325.896 19.7617 326.688 19.7617C326.934 19.7617 327.15 19.791 327.232 19.8203V18.8301C327.15 18.8184 326.998 18.7891 326.822 18.7891C326.107 18.7891 325.545 19.2168 325.346 19.8906H325.322V18.9062H324.361V25ZM330.297 25.1172C331.979 25.1172 333.115 23.8984 333.115 21.9531V21.9414C333.115 19.9961 331.973 18.7891 330.291 18.7891C328.609 18.7891 327.473 20.002 327.473 21.9414V21.9531C327.473 23.8926 328.604 25.1172 330.297 25.1172ZM330.303 24.2148C329.225 24.2148 328.516 23.3887 328.516 21.9531V21.9414C328.516 20.5176 329.23 19.6914 330.291 19.6914C331.369 19.6914 332.072 20.5117 332.072 21.9414V21.9531C332.072 23.3828 331.375 24.2148 330.303 24.2148ZM335.354 25H336.391L337.762 20.2832H337.785L339.162 25H340.199L341.898 18.9062H340.891L339.672 23.8633H339.648L338.266 18.9062H337.281L335.904 23.8633H335.881L334.662 18.9062H333.648L335.354 25Z" fill="black"/>
<path d="M118 14L108 8.2265L108 19.7735L118 14ZM82 15L109 15L109 13L82 13L82 15Z" fill="#1F77B4"/>
<path d="M236.305 169H236.266C236.089 169 236 168.93 236 168.791C236 168.74 236.019 168.638 236.057 168.486C236.108 168.308 236.152 168.207 236.19 168.182C236.228 168.156 236.349 168.137 236.552 168.124C237.643 168.086 238.5 167.756 239.122 167.135C239.248 167.008 239.984 166.208 241.329 164.736C242.674 163.265 243.341 162.516 243.328 162.49C241.945 158.963 241.222 157.167 241.158 157.104C241.044 156.964 240.644 156.888 239.959 156.876H239.426C239.35 156.799 239.312 156.749 239.312 156.723C239.312 156.698 239.325 156.577 239.35 156.362C239.401 156.197 239.464 156.076 239.54 156H239.807C240.238 156.025 241.006 156.038 242.11 156.038C242.529 156.038 242.916 156.038 243.271 156.038C243.626 156.038 243.912 156.032 244.127 156.019C244.343 156.006 244.47 156.006 244.508 156.019C244.724 156.019 244.832 156.089 244.832 156.228C244.832 156.241 244.819 156.324 244.794 156.476C244.743 156.666 244.698 156.78 244.66 156.818C244.622 156.857 244.521 156.876 244.356 156.876C243.962 156.914 243.62 157.021 243.328 157.199L244.794 160.892L245.802 159.769C247.135 158.335 247.801 157.542 247.801 157.389C247.801 157.161 247.649 157.002 247.344 156.914C247.281 156.914 247.198 156.901 247.097 156.876C246.906 156.876 246.811 156.806 246.811 156.666C246.811 156.641 246.824 156.539 246.849 156.362C246.9 156.197 246.963 156.076 247.04 156H247.268C247.281 156 247.439 156 247.744 156C248.048 156 248.391 156.013 248.772 156.038C249.152 156.063 249.412 156.07 249.552 156.057C250.694 156.057 251.322 156.038 251.436 156H251.589C251.677 156.089 251.722 156.159 251.722 156.209C251.696 156.527 251.62 156.749 251.493 156.876H251.189C250.757 156.888 250.37 156.945 250.028 157.047C249.685 157.148 249.425 157.256 249.247 157.37C249.07 157.485 248.918 157.599 248.791 157.713L248.581 157.884C248.581 157.872 247.979 158.531 246.773 159.864L245.117 161.691C245.117 161.704 245.314 162.211 245.707 163.214C246.101 164.216 246.513 165.244 246.944 166.297C247.376 167.35 247.611 167.896 247.649 167.934C247.775 168.048 248.163 168.112 248.81 168.124C249.254 168.124 249.476 168.182 249.476 168.296C249.476 168.321 249.463 168.41 249.438 168.562C249.387 168.765 249.343 168.886 249.305 168.924C249.266 168.962 249.178 168.981 249.038 168.981C249 168.981 248.791 168.981 248.41 168.981C248.029 168.981 247.465 168.975 246.716 168.962C245.942 168.962 245.352 168.962 244.946 168.962C244.54 168.962 244.318 168.968 244.28 168.981C244.064 168.981 243.956 168.924 243.956 168.81C243.956 168.797 243.969 168.702 243.994 168.524C244.02 168.397 244.045 168.308 244.07 168.258C244.096 168.207 244.127 168.175 244.165 168.163C244.204 168.15 244.261 168.137 244.337 168.124C244.413 168.112 244.514 168.105 244.641 168.105C244.768 168.105 244.933 168.061 245.136 167.972C245.352 167.871 245.46 167.807 245.46 167.782C245.447 167.782 245.149 167.04 244.565 165.555L243.671 163.309C241.285 165.898 240.061 167.262 239.997 167.401C239.946 167.503 239.921 167.579 239.921 167.63C239.921 167.871 240.105 168.029 240.473 168.105C240.486 168.105 240.524 168.105 240.587 168.105C240.651 168.105 240.689 168.112 240.701 168.124C240.739 168.124 240.765 168.124 240.777 168.124C240.79 168.124 240.809 168.131 240.835 168.143C240.86 168.156 240.879 168.175 240.892 168.201C240.904 168.226 240.911 168.27 240.911 168.334C240.911 168.448 240.898 168.55 240.873 168.638C240.835 168.803 240.796 168.898 240.758 168.924C240.72 168.949 240.625 168.968 240.473 168.981C240.435 168.981 240.321 168.981 240.13 168.981C239.94 168.981 239.673 168.975 239.331 168.962C238.988 168.949 238.614 168.949 238.208 168.962C237.218 168.962 236.584 168.975 236.305 169Z" fill="black"/>
</svg>
