<?xml version="1.0" encoding="utf-8" standalone="no"?>
<!DOCTYPE svg PUBLIC "-//W3C//DTD SVG 1.1//EN"
  "http://www.w3.org/Graphics/SVG/1.1/DTD/svg11.dtd">
<!-- Created with matplotlib (https://matplotlib.org/) -->
<svg height="207.009688pt" version="1.1" viewBox="0 0 341.589062 207.009688" width="341.589062pt" xmlns="http://www.w3.org/2000/svg" xmlns:xlink="http://www.w3.org/1999/xlink">
 <metadata>
  <rdf:RDF xmlns:cc="http://creativecommons.org/ns#" xmlns:dc="http://purl.org/dc/elements/1.1/" xmlns:rdf="http://www.w3.org/1999/02/22-rdf-syntax-ns#">
   <cc:Work>
    <dc:type rdf:resource="http://purl.org/dc/dcmitype/StillImage"/>
    <dc:date>2023-02-05T00:31:01.979207</dc:date>
    <dc:format>image/svg+xml</dc:format>
    <dc:creator>
     <cc:Agent>
      <dc:title>Matplotlib v3.3.4, https://matplotlib.org/</dc:title>
     </cc:Agent>
    </dc:creator>
   </cc:Work>
  </rdf:RDF>
 </metadata>
 <defs>
  <style type="text/css">*{stroke-linecap:butt;stroke-linejoin:round;}</style>
 </defs>
 <g id="figure_1">
  <g id="patch_1">
   <path d="M 0 207.009688 
L 341.589062 207.009688 
L 341.589062 0 
L 0 0 
z
" style="fill:#ffffff;"/>
  </g>
  <g id="axes_1">
   <g id="patch_2">
    <path d="M 55.389063 170.28 
L 334.389063 170.28 
L 334.389063 7.2 
L 55.389063 7.2 
z
" style="fill:#ffffff;"/>
   </g>
   <g id="matplotlib.axis_1">
    <g id="xtick_1">
     <g id="line2d_1">
      <path clip-path="url(#pcd721543c7)" d="M 79.734575 170.28 
L 79.734575 7.2 
" style="fill:none;stroke:#cccccc;stroke-linecap:round;stroke-width:0.8;"/>
     </g>
     <g id="text_1">
      <!-- 20 -->
      <g style="fill:#262626;" transform="translate(74.173637 184.437813)scale(0.1 -0.1)">
       <defs>
        <path d="M 50.34375 8.453125 
L 50.34375 0 
L 3.03125 0 
Q 2.9375 3.171875 4.046875 6.109375 
Q 5.859375 10.9375 9.828125 15.625 
Q 13.8125 20.3125 21.34375 26.46875 
Q 33.015625 36.03125 37.109375 41.625 
Q 41.21875 47.21875 41.21875 52.203125 
Q 41.21875 57.421875 37.46875 61 
Q 33.734375 64.59375 27.734375 64.59375 
Q 21.390625 64.59375 17.578125 60.78125 
Q 13.765625 56.984375 13.71875 50.25 
L 4.6875 51.171875 
Q 5.609375 61.28125 11.65625 66.578125 
Q 17.71875 71.875 27.9375 71.875 
Q 38.234375 71.875 44.234375 66.15625 
Q 50.25 60.453125 50.25 52 
Q 50.25 47.703125 48.484375 43.546875 
Q 46.734375 39.40625 42.65625 34.8125 
Q 38.578125 30.21875 29.109375 22.21875 
Q 21.1875 15.578125 18.9375 13.203125 
Q 16.703125 10.84375 15.234375 8.453125 
z
" id="ArialMT-50"/>
        <path d="M 4.15625 35.296875 
Q 4.15625 48 6.765625 55.734375 
Q 9.375 63.484375 14.515625 67.671875 
Q 19.671875 71.875 27.484375 71.875 
Q 33.25 71.875 37.59375 69.546875 
Q 41.9375 67.234375 44.765625 62.859375 
Q 47.609375 58.5 49.21875 52.21875 
Q 50.828125 45.953125 50.828125 35.296875 
Q 50.828125 22.703125 48.234375 14.96875 
Q 45.65625 7.234375 40.5 3 
Q 35.359375 -1.21875 27.484375 -1.21875 
Q 17.140625 -1.21875 11.234375 6.203125 
Q 4.15625 15.140625 4.15625 35.296875 
z
M 13.1875 35.296875 
Q 13.1875 17.671875 17.3125 11.828125 
Q 21.4375 6 27.484375 6 
Q 33.546875 6 37.671875 11.859375 
Q 41.796875 17.71875 41.796875 35.296875 
Q 41.796875 52.984375 37.671875 58.78125 
Q 33.546875 64.59375 27.390625 64.59375 
Q 21.34375 64.59375 17.71875 59.46875 
Q 13.1875 52.9375 13.1875 35.296875 
z
" id="ArialMT-48"/>
       </defs>
       <use xlink:href="#ArialMT-50"/>
       <use x="55.615234" xlink:href="#ArialMT-48"/>
      </g>
     </g>
    </g>
    <g id="xtick_2">
     <g id="line2d_2">
      <path clip-path="url(#pcd721543c7)" d="M 114.109049 170.28 
L 114.109049 7.2 
" style="fill:none;stroke:#cccccc;stroke-linecap:round;stroke-width:0.8;"/>
     </g>
     <g id="text_2">
      <!-- 30 -->
      <g style="fill:#262626;" transform="translate(108.548111 184.437813)scale(0.1 -0.1)">
       <defs>
        <path d="M 4.203125 18.890625 
L 12.984375 20.0625 
Q 14.5 12.59375 18.140625 9.296875 
Q 21.78125 6 27 6 
Q 33.203125 6 37.46875 10.296875 
Q 41.75 14.59375 41.75 20.953125 
Q 41.75 27 37.796875 30.921875 
Q 33.84375 34.859375 27.734375 34.859375 
Q 25.25 34.859375 21.53125 33.890625 
L 22.515625 41.609375 
Q 23.390625 41.5 23.921875 41.5 
Q 29.546875 41.5 34.03125 44.421875 
Q 38.53125 47.359375 38.53125 53.46875 
Q 38.53125 58.296875 35.25 61.46875 
Q 31.984375 64.65625 26.8125 64.65625 
Q 21.6875 64.65625 18.265625 61.421875 
Q 14.84375 58.203125 13.875 51.765625 
L 5.078125 53.328125 
Q 6.6875 62.15625 12.390625 67.015625 
Q 18.109375 71.875 26.609375 71.875 
Q 32.46875 71.875 37.390625 69.359375 
Q 42.328125 66.84375 44.9375 62.5 
Q 47.5625 58.15625 47.5625 53.265625 
Q 47.5625 48.640625 45.0625 44.828125 
Q 42.578125 41.015625 37.703125 38.765625 
Q 44.046875 37.3125 47.5625 32.6875 
Q 51.078125 28.078125 51.078125 21.140625 
Q 51.078125 11.765625 44.234375 5.25 
Q 37.40625 -1.265625 26.953125 -1.265625 
Q 17.53125 -1.265625 11.296875 4.34375 
Q 5.078125 9.96875 4.203125 18.890625 
z
" id="ArialMT-51"/>
       </defs>
       <use xlink:href="#ArialMT-51"/>
       <use x="55.615234" xlink:href="#ArialMT-48"/>
      </g>
     </g>
    </g>
    <g id="xtick_3">
     <g id="line2d_3">
      <path clip-path="url(#pcd721543c7)" d="M 148.483523 170.28 
L 148.483523 7.2 
" style="fill:none;stroke:#cccccc;stroke-linecap:round;stroke-width:0.8;"/>
     </g>
     <g id="text_3">
      <!-- 40 -->
      <g style="fill:#262626;" transform="translate(142.922585 184.437813)scale(0.1 -0.1)">
       <defs>
        <path d="M 32.328125 0 
L 32.328125 17.140625 
L 1.265625 17.140625 
L 1.265625 25.203125 
L 33.9375 71.578125 
L 41.109375 71.578125 
L 41.109375 25.203125 
L 50.78125 25.203125 
L 50.78125 17.140625 
L 41.109375 17.140625 
L 41.109375 0 
z
M 32.328125 25.203125 
L 32.328125 57.46875 
L 9.90625 25.203125 
z
" id="ArialMT-52"/>
       </defs>
       <use xlink:href="#ArialMT-52"/>
       <use x="55.615234" xlink:href="#ArialMT-48"/>
      </g>
     </g>
    </g>
    <g id="xtick_4">
     <g id="line2d_4">
      <path clip-path="url(#pcd721543c7)" d="M 182.857997 170.28 
L 182.857997 7.2 
" style="fill:none;stroke:#cccccc;stroke-linecap:round;stroke-width:0.8;"/>
     </g>
     <g id="text_4">
      <!-- 50 -->
      <g style="fill:#262626;" transform="translate(177.297059 184.437813)scale(0.1 -0.1)">
       <defs>
        <path d="M 4.15625 18.75 
L 13.375 19.53125 
Q 14.40625 12.796875 18.140625 9.390625 
Q 21.875 6 27.15625 6 
Q 33.5 6 37.890625 10.78125 
Q 42.28125 15.578125 42.28125 23.484375 
Q 42.28125 31 38.0625 35.34375 
Q 33.84375 39.703125 27 39.703125 
Q 22.75 39.703125 19.328125 37.765625 
Q 15.921875 35.84375 13.96875 32.765625 
L 5.71875 33.84375 
L 12.640625 70.609375 
L 48.25 70.609375 
L 48.25 62.203125 
L 19.671875 62.203125 
L 15.828125 42.96875 
Q 22.265625 47.46875 29.34375 47.46875 
Q 38.71875 47.46875 45.15625 40.96875 
Q 51.609375 34.46875 51.609375 24.265625 
Q 51.609375 14.546875 45.953125 7.46875 
Q 39.0625 -1.21875 27.15625 -1.21875 
Q 17.390625 -1.21875 11.203125 4.25 
Q 5.03125 9.71875 4.15625 18.75 
z
" id="ArialMT-53"/>
       </defs>
       <use xlink:href="#ArialMT-53"/>
       <use x="55.615234" xlink:href="#ArialMT-48"/>
      </g>
     </g>
    </g>
    <g id="xtick_5">
     <g id="line2d_5">
      <path clip-path="url(#pcd721543c7)" d="M 217.232471 170.28 
L 217.232471 7.2 
" style="fill:none;stroke:#cccccc;stroke-linecap:round;stroke-width:0.8;"/>
     </g>
     <g id="text_5">
      <!-- 60 -->
      <g style="fill:#262626;" transform="translate(211.671533 184.437813)scale(0.1 -0.1)">
       <defs>
        <path d="M 49.75 54.046875 
L 41.015625 53.375 
Q 39.84375 58.546875 37.703125 60.890625 
Q 34.125 64.65625 28.90625 64.65625 
Q 24.703125 64.65625 21.53125 62.3125 
Q 17.390625 59.28125 14.984375 53.46875 
Q 12.59375 47.65625 12.5 36.921875 
Q 15.671875 41.75 20.265625 44.09375 
Q 24.859375 46.4375 29.890625 46.4375 
Q 38.671875 46.4375 44.84375 39.96875 
Q 51.03125 33.5 51.03125 23.25 
Q 51.03125 16.5 48.125 10.71875 
Q 45.21875 4.9375 40.140625 1.859375 
Q 35.0625 -1.21875 28.609375 -1.21875 
Q 17.625 -1.21875 10.6875 6.859375 
Q 3.765625 14.9375 3.765625 33.5 
Q 3.765625 54.25 11.421875 63.671875 
Q 18.109375 71.875 29.4375 71.875 
Q 37.890625 71.875 43.28125 67.140625 
Q 48.6875 62.40625 49.75 54.046875 
z
M 13.875 23.1875 
Q 13.875 18.65625 15.796875 14.5 
Q 17.71875 10.359375 21.1875 8.171875 
Q 24.65625 6 28.46875 6 
Q 34.03125 6 38.03125 10.484375 
Q 42.046875 14.984375 42.046875 22.703125 
Q 42.046875 30.125 38.078125 34.390625 
Q 34.125 38.671875 28.125 38.671875 
Q 22.171875 38.671875 18.015625 34.390625 
Q 13.875 30.125 13.875 23.1875 
z
" id="ArialMT-54"/>
       </defs>
       <use xlink:href="#ArialMT-54"/>
       <use x="55.615234" xlink:href="#ArialMT-48"/>
      </g>
     </g>
    </g>
    <g id="xtick_6">
     <g id="line2d_6">
      <path clip-path="url(#pcd721543c7)" d="M 251.606945 170.28 
L 251.606945 7.2 
" style="fill:none;stroke:#cccccc;stroke-linecap:round;stroke-width:0.8;"/>
     </g>
     <g id="text_6">
      <!-- 70 -->
      <g style="fill:#262626;" transform="translate(246.046007 184.437813)scale(0.1 -0.1)">
       <defs>
        <path d="M 4.734375 62.203125 
L 4.734375 70.65625 
L 51.078125 70.65625 
L 51.078125 63.8125 
Q 44.234375 56.546875 37.515625 44.484375 
Q 30.8125 32.421875 27.15625 19.671875 
Q 24.515625 10.6875 23.78125 0 
L 14.75 0 
Q 14.890625 8.453125 18.0625 20.40625 
Q 21.234375 32.375 27.171875 43.484375 
Q 33.109375 54.59375 39.796875 62.203125 
z
" id="ArialMT-55"/>
       </defs>
       <use xlink:href="#ArialMT-55"/>
       <use x="55.615234" xlink:href="#ArialMT-48"/>
      </g>
     </g>
    </g>
    <g id="xtick_7">
     <g id="line2d_7">
      <path clip-path="url(#pcd721543c7)" d="M 285.981419 170.28 
L 285.981419 7.2 
" style="fill:none;stroke:#cccccc;stroke-linecap:round;stroke-width:0.8;"/>
     </g>
     <g id="text_7">
      <!-- 80 -->
      <g style="fill:#262626;" transform="translate(280.420481 184.437813)scale(0.1 -0.1)">
       <defs>
        <path d="M 17.671875 38.8125 
Q 12.203125 40.828125 9.5625 44.53125 
Q 6.9375 48.25 6.9375 53.421875 
Q 6.9375 61.234375 12.546875 66.546875 
Q 18.171875 71.875 27.484375 71.875 
Q 36.859375 71.875 42.578125 66.421875 
Q 48.296875 60.984375 48.296875 53.171875 
Q 48.296875 48.1875 45.671875 44.5 
Q 43.0625 40.828125 37.75 38.8125 
Q 44.34375 36.671875 47.78125 31.875 
Q 51.21875 27.09375 51.21875 20.453125 
Q 51.21875 11.28125 44.71875 5.03125 
Q 38.234375 -1.21875 27.640625 -1.21875 
Q 17.046875 -1.21875 10.546875 5.046875 
Q 4.046875 11.328125 4.046875 20.703125 
Q 4.046875 27.6875 7.59375 32.390625 
Q 11.140625 37.109375 17.671875 38.8125 
z
M 15.921875 53.71875 
Q 15.921875 48.640625 19.1875 45.40625 
Q 22.46875 42.1875 27.6875 42.1875 
Q 32.765625 42.1875 36.015625 45.375 
Q 39.265625 48.578125 39.265625 53.21875 
Q 39.265625 58.0625 35.90625 61.359375 
Q 32.5625 64.65625 27.59375 64.65625 
Q 22.5625 64.65625 19.234375 61.421875 
Q 15.921875 58.203125 15.921875 53.71875 
z
M 13.09375 20.65625 
Q 13.09375 16.890625 14.875 13.375 
Q 16.65625 9.859375 20.171875 7.921875 
Q 23.6875 6 27.734375 6 
Q 34.03125 6 38.125 10.046875 
Q 42.234375 14.109375 42.234375 20.359375 
Q 42.234375 26.703125 38.015625 30.859375 
Q 33.796875 35.015625 27.4375 35.015625 
Q 21.234375 35.015625 17.15625 30.90625 
Q 13.09375 26.8125 13.09375 20.65625 
z
" id="ArialMT-56"/>
       </defs>
       <use xlink:href="#ArialMT-56"/>
       <use x="55.615234" xlink:href="#ArialMT-48"/>
      </g>
     </g>
    </g>
    <g id="xtick_8">
     <g id="line2d_8">
      <path clip-path="url(#pcd721543c7)" d="M 320.355893 170.28 
L 320.355893 7.2 
" style="fill:none;stroke:#cccccc;stroke-linecap:round;stroke-width:0.8;"/>
     </g>
     <g id="text_8">
      <!-- 90 -->
      <g style="fill:#262626;" transform="translate(314.794955 184.437813)scale(0.1 -0.1)">
       <defs>
        <path d="M 5.46875 16.546875 
L 13.921875 17.328125 
Q 14.984375 11.375 18.015625 8.6875 
Q 21.046875 6 25.78125 6 
Q 29.828125 6 32.875 7.859375 
Q 35.9375 9.71875 37.890625 12.8125 
Q 39.84375 15.921875 41.15625 21.1875 
Q 42.484375 26.46875 42.484375 31.9375 
Q 42.484375 32.515625 42.4375 33.6875 
Q 39.796875 29.5 35.234375 26.875 
Q 30.671875 24.265625 25.34375 24.265625 
Q 16.453125 24.265625 10.296875 30.703125 
Q 4.15625 37.15625 4.15625 47.703125 
Q 4.15625 58.59375 10.578125 65.234375 
Q 17 71.875 26.65625 71.875 
Q 33.640625 71.875 39.421875 68.109375 
Q 45.21875 64.359375 48.21875 57.390625 
Q 51.21875 50.4375 51.21875 37.25 
Q 51.21875 23.53125 48.234375 15.40625 
Q 45.265625 7.28125 39.375 3.03125 
Q 33.5 -1.21875 25.59375 -1.21875 
Q 17.1875 -1.21875 11.859375 3.4375 
Q 6.546875 8.109375 5.46875 16.546875 
z
M 41.453125 48.140625 
Q 41.453125 55.71875 37.421875 60.15625 
Q 33.40625 64.59375 27.734375 64.59375 
Q 21.875 64.59375 17.53125 59.8125 
Q 13.1875 55.03125 13.1875 47.40625 
Q 13.1875 40.578125 17.3125 36.296875 
Q 21.4375 32.03125 27.484375 32.03125 
Q 33.59375 32.03125 37.515625 36.296875 
Q 41.453125 40.578125 41.453125 48.140625 
z
" id="ArialMT-57"/>
       </defs>
       <use xlink:href="#ArialMT-57"/>
       <use x="55.615234" xlink:href="#ArialMT-48"/>
      </g>
     </g>
    </g>
    <g id="text_9">
     <!-- Runner Age (yr) -->
     <g style="fill:#262626;" transform="translate(159.597656 197.705)scale(0.1 -0.1)">
      <defs>
       <path d="M 7.859375 0 
L 7.859375 71.578125 
L 39.59375 71.578125 
Q 49.171875 71.578125 54.140625 69.640625 
Q 59.125 67.71875 62.109375 62.828125 
Q 65.09375 57.953125 65.09375 52.046875 
Q 65.09375 44.4375 60.15625 39.203125 
Q 55.21875 33.984375 44.921875 32.5625 
Q 48.6875 30.765625 50.640625 29 
Q 54.78125 25.203125 58.5 19.484375 
L 70.953125 0 
L 59.03125 0 
L 49.5625 14.890625 
Q 45.40625 21.34375 42.71875 24.75 
Q 40.046875 28.171875 37.921875 29.53125 
Q 35.796875 30.90625 33.59375 31.453125 
Q 31.984375 31.78125 28.328125 31.78125 
L 17.328125 31.78125 
L 17.328125 0 
z
M 17.328125 39.984375 
L 37.703125 39.984375 
Q 44.1875 39.984375 47.84375 41.328125 
Q 51.515625 42.671875 53.421875 45.625 
Q 55.328125 48.578125 55.328125 52.046875 
Q 55.328125 57.125 51.640625 60.390625 
Q 47.953125 63.671875 39.984375 63.671875 
L 17.328125 63.671875 
z
" id="ArialMT-82"/>
       <path d="M 40.578125 0 
L 40.578125 7.625 
Q 34.515625 -1.171875 24.125 -1.171875 
Q 19.53125 -1.171875 15.546875 0.578125 
Q 11.578125 2.34375 9.640625 5 
Q 7.71875 7.671875 6.9375 11.53125 
Q 6.390625 14.109375 6.390625 19.734375 
L 6.390625 51.859375 
L 15.1875 51.859375 
L 15.1875 23.09375 
Q 15.1875 16.21875 15.71875 13.8125 
Q 16.546875 10.359375 19.234375 8.375 
Q 21.921875 6.390625 25.875 6.390625 
Q 29.828125 6.390625 33.296875 8.421875 
Q 36.765625 10.453125 38.203125 13.9375 
Q 39.65625 17.4375 39.65625 24.078125 
L 39.65625 51.859375 
L 48.4375 51.859375 
L 48.4375 0 
z
" id="ArialMT-117"/>
       <path d="M 6.59375 0 
L 6.59375 51.859375 
L 14.5 51.859375 
L 14.5 44.484375 
Q 20.21875 53.03125 31 53.03125 
Q 35.6875 53.03125 39.625 51.34375 
Q 43.5625 49.65625 45.515625 46.921875 
Q 47.46875 44.1875 48.25 40.4375 
Q 48.734375 37.984375 48.734375 31.890625 
L 48.734375 0 
L 39.9375 0 
L 39.9375 31.546875 
Q 39.9375 36.921875 38.90625 39.578125 
Q 37.890625 42.234375 35.28125 43.8125 
Q 32.671875 45.40625 29.15625 45.40625 
Q 23.53125 45.40625 19.453125 41.84375 
Q 15.375 38.28125 15.375 28.328125 
L 15.375 0 
z
" id="ArialMT-110"/>
       <path d="M 42.09375 16.703125 
L 51.171875 15.578125 
Q 49.03125 7.625 43.21875 3.21875 
Q 37.40625 -1.171875 28.375 -1.171875 
Q 17 -1.171875 10.328125 5.828125 
Q 3.65625 12.84375 3.65625 25.484375 
Q 3.65625 38.578125 10.390625 45.796875 
Q 17.140625 53.03125 27.875 53.03125 
Q 38.28125 53.03125 44.875 45.953125 
Q 51.46875 38.875 51.46875 26.03125 
Q 51.46875 25.25 51.421875 23.6875 
L 12.75 23.6875 
Q 13.234375 15.140625 17.578125 10.59375 
Q 21.921875 6.0625 28.421875 6.0625 
Q 33.25 6.0625 36.671875 8.59375 
Q 40.09375 11.140625 42.09375 16.703125 
z
M 13.234375 30.90625 
L 42.1875 30.90625 
Q 41.609375 37.453125 38.875 40.71875 
Q 34.671875 45.796875 27.984375 45.796875 
Q 21.921875 45.796875 17.796875 41.75 
Q 13.671875 37.703125 13.234375 30.90625 
z
" id="ArialMT-101"/>
       <path d="M 6.5 0 
L 6.5 51.859375 
L 14.40625 51.859375 
L 14.40625 44 
Q 17.4375 49.515625 20 51.265625 
Q 22.5625 53.03125 25.640625 53.03125 
Q 30.078125 53.03125 34.671875 50.203125 
L 31.640625 42.046875 
Q 28.421875 43.953125 25.203125 43.953125 
Q 22.3125 43.953125 20.015625 42.21875 
Q 17.71875 40.484375 16.75 37.40625 
Q 15.28125 32.71875 15.28125 27.15625 
L 15.28125 0 
z
" id="ArialMT-114"/>
       <path id="ArialMT-32"/>
       <path d="M -0.140625 0 
L 27.34375 71.578125 
L 37.546875 71.578125 
L 66.84375 0 
L 56.0625 0 
L 47.703125 21.6875 
L 17.78125 21.6875 
L 9.90625 0 
z
M 20.515625 29.390625 
L 44.78125 29.390625 
L 37.3125 49.21875 
Q 33.890625 58.25 32.234375 64.0625 
Q 30.859375 57.171875 28.375 50.390625 
z
" id="ArialMT-65"/>
       <path d="M 4.984375 -4.296875 
L 13.53125 -5.5625 
Q 14.0625 -9.515625 16.5 -11.328125 
Q 19.78125 -13.765625 25.4375 -13.765625 
Q 31.546875 -13.765625 34.859375 -11.328125 
Q 38.1875 -8.890625 39.359375 -4.5 
Q 40.046875 -1.8125 39.984375 6.78125 
Q 34.234375 0 25.640625 0 
Q 14.9375 0 9.078125 7.71875 
Q 3.21875 15.4375 3.21875 26.21875 
Q 3.21875 33.640625 5.90625 39.90625 
Q 8.59375 46.1875 13.6875 49.609375 
Q 18.796875 53.03125 25.6875 53.03125 
Q 34.859375 53.03125 40.828125 45.609375 
L 40.828125 51.859375 
L 48.921875 51.859375 
L 48.921875 7.03125 
Q 48.921875 -5.078125 46.453125 -10.125 
Q 44 -15.1875 38.640625 -18.109375 
Q 33.296875 -21.046875 25.484375 -21.046875 
Q 16.21875 -21.046875 10.5 -16.875 
Q 4.78125 -12.703125 4.984375 -4.296875 
z
M 12.25 26.859375 
Q 12.25 16.65625 16.296875 11.96875 
Q 20.359375 7.28125 26.46875 7.28125 
Q 32.515625 7.28125 36.609375 11.9375 
Q 40.71875 16.609375 40.71875 26.5625 
Q 40.71875 36.078125 36.5 40.90625 
Q 32.28125 45.75 26.3125 45.75 
Q 20.453125 45.75 16.34375 40.984375 
Q 12.25 36.234375 12.25 26.859375 
z
" id="ArialMT-103"/>
       <path d="M 23.390625 -21.046875 
Q 16.109375 -11.859375 11.078125 0.4375 
Q 6.0625 12.75 6.0625 25.921875 
Q 6.0625 37.546875 9.8125 48.1875 
Q 14.203125 60.546875 23.390625 72.796875 
L 29.6875 72.796875 
Q 23.78125 62.640625 21.875 58.296875 
Q 18.890625 51.5625 17.1875 44.234375 
Q 15.09375 35.109375 15.09375 25.875 
Q 15.09375 2.390625 29.6875 -21.046875 
z
" id="ArialMT-40"/>
       <path d="M 6.203125 -19.96875 
L 5.21875 -11.71875 
Q 8.109375 -12.5 10.25 -12.5 
Q 13.1875 -12.5 14.9375 -11.515625 
Q 16.703125 -10.546875 17.828125 -8.796875 
Q 18.65625 -7.46875 20.515625 -2.25 
Q 20.75 -1.515625 21.296875 -0.09375 
L 1.609375 51.859375 
L 11.078125 51.859375 
L 21.875 21.828125 
Q 23.96875 16.109375 25.640625 9.8125 
Q 27.15625 15.875 29.25 21.625 
L 40.328125 51.859375 
L 49.125 51.859375 
L 29.390625 -0.875 
Q 26.21875 -9.421875 24.46875 -12.640625 
Q 22.125 -17 19.09375 -19.015625 
Q 16.0625 -21.046875 11.859375 -21.046875 
Q 9.328125 -21.046875 6.203125 -19.96875 
z
" id="ArialMT-121"/>
       <path d="M 12.359375 -21.046875 
L 6.0625 -21.046875 
Q 20.65625 2.390625 20.65625 25.875 
Q 20.65625 35.0625 18.5625 44.09375 
Q 16.890625 51.421875 13.921875 58.15625 
Q 12.015625 62.546875 6.0625 72.796875 
L 12.359375 72.796875 
Q 21.53125 60.546875 25.921875 48.1875 
Q 29.6875 37.546875 29.6875 25.921875 
Q 29.6875 12.75 24.625 0.4375 
Q 19.578125 -11.859375 12.359375 -21.046875 
z
" id="ArialMT-41"/>
      </defs>
      <use xlink:href="#ArialMT-82"/>
      <use x="72.216797" xlink:href="#ArialMT-117"/>
      <use x="127.832031" xlink:href="#ArialMT-110"/>
      <use x="183.447266" xlink:href="#ArialMT-110"/>
      <use x="239.0625" xlink:href="#ArialMT-101"/>
      <use x="294.677734" xlink:href="#ArialMT-114"/>
      <use x="327.978516" xlink:href="#ArialMT-32"/>
      <use x="350.261719" xlink:href="#ArialMT-65"/>
      <use x="416.960938" xlink:href="#ArialMT-103"/>
      <use x="472.576172" xlink:href="#ArialMT-101"/>
      <use x="528.191406" xlink:href="#ArialMT-32"/>
      <use x="555.974609" xlink:href="#ArialMT-40"/>
      <use x="589.275391" xlink:href="#ArialMT-121"/>
      <use x="639.275391" xlink:href="#ArialMT-114"/>
      <use x="672.576172" xlink:href="#ArialMT-41"/>
     </g>
    </g>
   </g>
   <g id="matplotlib.axis_2">
    <g id="ytick_1">
     <g id="line2d_9">
      <path clip-path="url(#pcd721543c7)" d="M 55.389063 137.356121 
L 334.389063 137.356121 
" style="fill:none;stroke:#cccccc;stroke-linecap:round;stroke-width:0.8;"/>
     </g>
     <g id="text_10">
      <!-- 4000 -->
      <g style="fill:#262626;" transform="translate(26.145312 140.935028)scale(0.1 -0.1)">
       <use xlink:href="#ArialMT-52"/>
       <use x="55.615234" xlink:href="#ArialMT-48"/>
       <use x="111.230469" xlink:href="#ArialMT-48"/>
       <use x="166.845703" xlink:href="#ArialMT-48"/>
      </g>
     </g>
    </g>
    <g id="ytick_2">
     <g id="line2d_10">
      <path clip-path="url(#pcd721543c7)" d="M 55.389063 100.322321 
L 334.389063 100.322321 
" style="fill:none;stroke:#cccccc;stroke-linecap:round;stroke-width:0.8;"/>
     </g>
     <g id="text_11">
      <!-- 6000 -->
      <g style="fill:#262626;" transform="translate(26.145312 103.901227)scale(0.1 -0.1)">
       <use xlink:href="#ArialMT-54"/>
       <use x="55.615234" xlink:href="#ArialMT-48"/>
       <use x="111.230469" xlink:href="#ArialMT-48"/>
       <use x="166.845703" xlink:href="#ArialMT-48"/>
      </g>
     </g>
    </g>
    <g id="ytick_3">
     <g id="line2d_11">
      <path clip-path="url(#pcd721543c7)" d="M 55.389063 63.288521 
L 334.389063 63.288521 
" style="fill:none;stroke:#cccccc;stroke-linecap:round;stroke-width:0.8;"/>
     </g>
     <g id="text_12">
      <!-- 8000 -->
      <g style="fill:#262626;" transform="translate(26.145312 66.867427)scale(0.1 -0.1)">
       <use xlink:href="#ArialMT-56"/>
       <use x="55.615234" xlink:href="#ArialMT-48"/>
       <use x="111.230469" xlink:href="#ArialMT-48"/>
       <use x="166.845703" xlink:href="#ArialMT-48"/>
      </g>
     </g>
    </g>
    <g id="ytick_4">
     <g id="line2d_12">
      <path clip-path="url(#pcd721543c7)" d="M 55.389063 26.25472 
L 334.389063 26.25472 
" style="fill:none;stroke:#cccccc;stroke-linecap:round;stroke-width:0.8;"/>
     </g>
     <g id="text_13">
      <!-- 10000 -->
      <g style="fill:#262626;" transform="translate(20.584375 29.833627)scale(0.1 -0.1)">
       <defs>
        <path d="M 37.25 0 
L 28.46875 0 
L 28.46875 56 
Q 25.296875 52.984375 20.140625 49.953125 
Q 14.984375 46.921875 10.890625 45.40625 
L 10.890625 53.90625 
Q 18.265625 57.375 23.78125 62.296875 
Q 29.296875 67.234375 31.59375 71.875 
L 37.25 71.875 
z
" id="ArialMT-49"/>
       </defs>
       <use xlink:href="#ArialMT-49"/>
       <use x="55.615234" xlink:href="#ArialMT-48"/>
       <use x="111.230469" xlink:href="#ArialMT-48"/>
       <use x="166.845703" xlink:href="#ArialMT-48"/>
       <use x="222.460938" xlink:href="#ArialMT-48"/>
      </g>
     </g>
    </g>
    <g id="text_14">
     <!-- Race Time (sec) -->
     <g style="fill:#262626;" transform="translate(14.479687 125.135312)rotate(-90)scale(0.1 -0.1)">
      <defs>
       <path d="M 40.4375 6.390625 
Q 35.546875 2.25 31.03125 0.53125 
Q 26.515625 -1.171875 21.34375 -1.171875 
Q 12.796875 -1.171875 8.203125 3 
Q 3.609375 7.171875 3.609375 13.671875 
Q 3.609375 17.484375 5.34375 20.625 
Q 7.078125 23.78125 9.890625 25.6875 
Q 12.703125 27.59375 16.21875 28.5625 
Q 18.796875 29.25 24.03125 29.890625 
Q 34.671875 31.15625 39.703125 32.90625 
Q 39.75 34.71875 39.75 35.203125 
Q 39.75 40.578125 37.25 42.78125 
Q 33.890625 45.75 27.25 45.75 
Q 21.046875 45.75 18.09375 43.578125 
Q 15.140625 41.40625 13.71875 35.890625 
L 5.125 37.0625 
Q 6.296875 42.578125 8.984375 45.96875 
Q 11.671875 49.359375 16.75 51.1875 
Q 21.828125 53.03125 28.515625 53.03125 
Q 35.15625 53.03125 39.296875 51.46875 
Q 43.453125 49.90625 45.40625 47.53125 
Q 47.359375 45.171875 48.140625 41.546875 
Q 48.578125 39.3125 48.578125 33.453125 
L 48.578125 21.734375 
Q 48.578125 9.46875 49.140625 6.21875 
Q 49.703125 2.984375 51.375 0 
L 42.1875 0 
Q 40.828125 2.734375 40.4375 6.390625 
z
M 39.703125 26.03125 
Q 34.90625 24.078125 25.34375 22.703125 
Q 19.921875 21.921875 17.671875 20.9375 
Q 15.4375 19.96875 14.203125 18.09375 
Q 12.984375 16.21875 12.984375 13.921875 
Q 12.984375 10.40625 15.640625 8.0625 
Q 18.3125 5.71875 23.4375 5.71875 
Q 28.515625 5.71875 32.46875 7.9375 
Q 36.421875 10.15625 38.28125 14.015625 
Q 39.703125 17 39.703125 22.796875 
z
" id="ArialMT-97"/>
       <path d="M 40.4375 19 
L 49.078125 17.875 
Q 47.65625 8.9375 41.8125 3.875 
Q 35.984375 -1.171875 27.484375 -1.171875 
Q 16.84375 -1.171875 10.375 5.78125 
Q 3.90625 12.75 3.90625 25.734375 
Q 3.90625 34.125 6.6875 40.421875 
Q 9.46875 46.734375 15.15625 49.875 
Q 20.84375 53.03125 27.546875 53.03125 
Q 35.984375 53.03125 41.359375 48.75 
Q 46.734375 44.484375 48.25 36.625 
L 39.703125 35.296875 
Q 38.484375 40.53125 35.375 43.15625 
Q 32.28125 45.796875 27.875 45.796875 
Q 21.234375 45.796875 17.078125 41.03125 
Q 12.9375 36.28125 12.9375 25.984375 
Q 12.9375 15.53125 16.9375 10.796875 
Q 20.953125 6.0625 27.390625 6.0625 
Q 32.5625 6.0625 36.03125 9.234375 
Q 39.5 12.40625 40.4375 19 
z
" id="ArialMT-99"/>
       <path d="M 25.921875 0 
L 25.921875 63.140625 
L 2.34375 63.140625 
L 2.34375 71.578125 
L 59.078125 71.578125 
L 59.078125 63.140625 
L 35.40625 63.140625 
L 35.40625 0 
z
" id="ArialMT-84"/>
       <path d="M 6.640625 61.46875 
L 6.640625 71.578125 
L 15.4375 71.578125 
L 15.4375 61.46875 
z
M 6.640625 0 
L 6.640625 51.859375 
L 15.4375 51.859375 
L 15.4375 0 
z
" id="ArialMT-105"/>
       <path d="M 6.59375 0 
L 6.59375 51.859375 
L 14.453125 51.859375 
L 14.453125 44.578125 
Q 16.890625 48.390625 20.9375 50.703125 
Q 25 53.03125 30.171875 53.03125 
Q 35.9375 53.03125 39.625 50.640625 
Q 43.3125 48.25 44.828125 43.953125 
Q 50.984375 53.03125 60.84375 53.03125 
Q 68.5625 53.03125 72.703125 48.75 
Q 76.859375 44.484375 76.859375 35.59375 
L 76.859375 0 
L 68.109375 0 
L 68.109375 32.671875 
Q 68.109375 37.9375 67.25 40.25 
Q 66.40625 42.578125 64.15625 43.984375 
Q 61.921875 45.40625 58.890625 45.40625 
Q 53.421875 45.40625 49.796875 41.765625 
Q 46.1875 38.140625 46.1875 30.125 
L 46.1875 0 
L 37.40625 0 
L 37.40625 33.6875 
Q 37.40625 39.546875 35.25 42.46875 
Q 33.109375 45.40625 28.21875 45.40625 
Q 24.515625 45.40625 21.359375 43.453125 
Q 18.21875 41.5 16.796875 37.734375 
Q 15.375 33.984375 15.375 26.90625 
L 15.375 0 
z
" id="ArialMT-109"/>
       <path d="M 3.078125 15.484375 
L 11.765625 16.84375 
Q 12.5 11.625 15.84375 8.84375 
Q 19.1875 6.0625 25.203125 6.0625 
Q 31.25 6.0625 34.171875 8.515625 
Q 37.109375 10.984375 37.109375 14.3125 
Q 37.109375 17.28125 34.515625 19 
Q 32.71875 20.171875 25.53125 21.96875 
Q 15.875 24.421875 12.140625 26.203125 
Q 8.40625 27.984375 6.46875 31.125 
Q 4.546875 34.28125 4.546875 38.09375 
Q 4.546875 41.546875 6.125 44.5 
Q 7.71875 47.46875 10.453125 49.421875 
Q 12.5 50.921875 16.03125 51.96875 
Q 19.578125 53.03125 23.640625 53.03125 
Q 29.734375 53.03125 34.34375 51.265625 
Q 38.96875 49.515625 41.15625 46.5 
Q 43.359375 43.5 44.1875 38.484375 
L 35.59375 37.3125 
Q 35.015625 41.3125 32.203125 43.546875 
Q 29.390625 45.796875 24.265625 45.796875 
Q 18.21875 45.796875 15.625 43.796875 
Q 13.03125 41.796875 13.03125 39.109375 
Q 13.03125 37.40625 14.109375 36.03125 
Q 15.1875 34.625 17.484375 33.6875 
Q 18.796875 33.203125 25.25 31.453125 
Q 34.578125 28.953125 38.25 27.359375 
Q 41.9375 25.78125 44.03125 22.75 
Q 46.140625 19.734375 46.140625 15.234375 
Q 46.140625 10.84375 43.578125 6.953125 
Q 41.015625 3.078125 36.171875 0.953125 
Q 31.34375 -1.171875 25.25 -1.171875 
Q 15.140625 -1.171875 9.84375 3.03125 
Q 4.546875 7.234375 3.078125 15.484375 
z
" id="ArialMT-115"/>
      </defs>
      <use xlink:href="#ArialMT-82"/>
      <use x="72.216797" xlink:href="#ArialMT-97"/>
      <use x="127.832031" xlink:href="#ArialMT-99"/>
      <use x="177.832031" xlink:href="#ArialMT-101"/>
      <use x="233.447266" xlink:href="#ArialMT-32"/>
      <use x="259.480469" xlink:href="#ArialMT-84"/>
      <use x="316.814453" xlink:href="#ArialMT-105"/>
      <use x="339.03125" xlink:href="#ArialMT-109"/>
      <use x="422.332031" xlink:href="#ArialMT-101"/>
      <use x="477.947266" xlink:href="#ArialMT-32"/>
      <use x="505.730469" xlink:href="#ArialMT-40"/>
      <use x="539.03125" xlink:href="#ArialMT-115"/>
      <use x="589.03125" xlink:href="#ArialMT-101"/>
      <use x="644.646484" xlink:href="#ArialMT-99"/>
      <use x="694.646484" xlink:href="#ArialMT-41"/>
     </g>
    </g>
   </g>
   <g id="LineCollection_1">
    <path clip-path="url(#pcd721543c7)" d="M 97.449364 158.264015 
L 100.253384 158.641165 
L 103.057404 158.728138 
L 105.861424 158.519757 
L 108.91062 157.987538 
L 111.808017 157.16804 
L 115.675495 155.685365 
L 118.479515 154.601868 
L 122.685545 153.277008 
L 126.455671 152.251055 
L 131.097605 151.237844 
L 135.303635 150.652234 
L 138.107655 150.442972 
L 143.715696 150.268103 
L 149.323736 150.084266 
L 153.529766 149.647733 
L 164.745846 147.964073 
L 168.951877 147.193644 
L 176.711876 145.695075 
L 182.971977 144.629965 
L 187.178007 143.693182 
L 192.786047 142.131688 
L 205.659813 138.319598 
L 209.610168 137.434946 
L 216.620218 136.151029 
L 218.022228 135.726664 
L 219.725394 135.041608 
L 221.278611 134.222111 
L 222.528927 133.402613 
L 224.494539 131.763618 
L 226.788026 129.305126 
L 228.052154 127.666131 
L 229.040076 126.027136 
L 231.045651 121.929648 
L 232.353559 120.290653 
L 235.351492 117.012663 
L 236.43059 115.373668 
L 237.082066 113.734673 
L 237.318785 112.095678 
L 237.39866 107.998191 
L 237.794784 106.359196 
L 238.916175 103.081206 
L 239.169676 101.442211 
L 239.113722 99.803216 
L 238.730538 98.164221 
L 237.908263 96.525226 
L 235.675204 93.247236 
L 234.846349 91.337974 
L 234.212967 89.149749 
L 233.926526 87.510754 
L 233.656364 84.232764 
L 233.437273 83.413266 
L 233.094154 82.593769 
L 232.034127 80.954774 
L 230.640319 79.473596 
L 230.458151 79.315779 
L 229.238309 78.455941 
L 227.645402 77.676784 
L 225.032279 76.760809 
L 222.228258 75.8165 
L 219.424238 74.640225 
L 215.218208 72.734461 
L 212.414188 71.781551 
L 209.610168 71.177657 
L 206.806148 70.858076 
L 204.002128 70.792914 
L 201.198108 70.984744 
L 194.188057 71.873664 
L 191.384037 71.939018 
L 188.580017 71.647592 
L 184.373987 70.745277 
L 181.569967 70.226951 
L 178.765947 69.904029 
L 174.052158 69.481809 
L 171.755897 69.003148 
L 170.353887 68.547647 
L 167.127861 67.023317 
L 164.745846 65.957186 
L 161.941826 65.144477 
L 158.427401 64.564824 
L 152.127756 63.681551 
L 143.715696 62.239419 
L 138.107655 61.806419 
L 132.499615 61.257129 
L 128.293585 60.932683 
L 118.479515 60.724691 
L 111.469465 60.018958 
L 110.067454 60.041136 
L 108.665444 60.222684 
L 107.263434 60.605505 
L 105.719651 61.286834 
L 101.655394 63.53824 
L 95.863546 67.023317 
L 93.91325 68.662312 
L 91.841324 70.868303 
L 90.321498 72.759799 
L 88.619729 75.218291 
L 87.246744 77.676784 
L 85.264521 81.774271 
L 83.944657 85.052261 
L 79.806927 98.164221 
L 79.365723 100.622714 
L 78.875271 103.900704 
L 77.622851 110.456683 
L 77.163316 115.373668 
L 76.721332 117.832161 
L 76.639421 119.471156 
L 76.783768 121.110151 
L 77.300865 125.207638 
L 77.559116 129.305126 
L 77.821223 135.717783 
L 78.034605 136.680603 
L 78.647907 138.319598 
L 79.559238 139.958593 
L 80.772598 141.597588 
L 82.254184 143.236583 
L 84.831274 146.003035 
L 86.233284 148.031332 
L 87.635294 150.701069 
L 89.037304 153.110698 
L 90.439314 154.97076 
L 91.841324 156.226074 
L 92.024216 156.348543 
L 93.572381 157.16804 
L 96.100907 157.987538 
L 97.449364 158.264015 
L 97.449364 158.264015 
" style="fill:none;stroke:#1f77b4;stroke-width:1.5;"/>
   </g>
   <g id="LineCollection_2">
    <path clip-path="url(#pcd721543c7)" d="M 107.263434 146.581075 
L 114.273485 146.867305 
L 117.077505 146.809252 
L 120.47713 146.514573 
L 124.087555 146.016726 
L 129.695595 145.229088 
L 135.303635 144.723002 
L 146.519716 143.906058 
L 152.127756 143.171045 
L 160.539816 141.902598 
L 166.147856 140.775092 
L 174.559917 138.8285 
L 183.476949 136.680603 
L 186.147593 135.861106 
L 188.580017 134.961146 
L 192.786047 133.119643 
L 198.394088 130.393702 
L 204.002128 127.535893 
L 209.610168 124.870902 
L 211.618316 123.568643 
L 213.581922 121.929648 
L 215.218208 120.245075 
L 216.455726 118.651658 
L 217.347682 117.012663 
L 218.022228 114.995803 
L 219.021604 112.095678 
L 220.202043 109.637186 
L 221.334246 107.178693 
L 221.742332 105.539698 
L 221.753502 103.900704 
L 221.588984 103.081206 
L 221.297449 102.261709 
L 220.826248 101.375013 
L 219.590209 99.803216 
L 218.750137 98.983719 
L 216.620218 97.197669 
L 209.447986 91.608241 
L 206.806148 90.103407 
L 204.002128 88.941488 
L 201.198108 88.144225 
L 189.982027 85.640362 
L 187.178007 85.247443 
L 184.373987 85.052261 
L 173.157907 84.639147 
L 170.353887 84.191295 
L 167.199175 83.413266 
L 161.941826 81.746871 
L 154.398089 79.315779 
L 147.921726 77.466056 
L 143.715696 76.622842 
L 136.705645 75.604647 
L 131.097605 74.971065 
L 125.250252 74.398794 
L 119.881525 73.574381 
L 114.273485 72.718847 
L 111.469465 72.473148 
L 110.067454 72.491094 
L 108.202028 72.759799 
L 107.263434 72.978336 
L 105.703882 73.579296 
L 104.151297 74.398794 
L 101.65257 76.037789 
L 97.161819 79.315779 
L 95.340289 80.954774 
L 93.922013 82.593769 
L 92.785865 84.232764 
L 91.371119 86.691256 
L 90.203148 89.149749 
L 89.037304 92.179973 
L 85.69273 101.442211 
L 85.120494 103.900704 
L 84.576469 107.178693 
L 84.308141 110.456683 
L 83.982037 114.554171 
L 83.441156 119.471156 
L 83.498056 121.929648 
L 83.776952 124.388141 
L 84.409179 127.666131 
L 85.524401 131.763618 
L 86.419196 134.222111 
L 87.201267 135.861106 
L 88.258097 137.500101 
L 89.677941 139.139095 
L 91.533414 140.77809 
L 93.243334 142.015467 
L 96.047354 143.67926 
L 98.851374 145.021223 
L 100.807298 145.695075 
L 101.655394 145.933576 
L 104.459414 146.374409 
L 107.263434 146.581075 
L 107.263434 146.581075 
" style="fill:none;stroke:#1f77b4;stroke-width:1.5;"/>
   </g>
   <g id="LineCollection_3">
    <path clip-path="url(#pcd721543c7)" d="M 111.469465 141.611798 
L 114.273485 141.845833 
L 117.077505 141.916375 
L 121.283535 141.77227 
L 131.097605 141.07654 
L 140.911676 140.183095 
L 149.323736 139.765715 
L 153.529766 139.245793 
L 159.137806 138.259605 
L 166.147856 136.753726 
L 171.755897 135.320433 
L 177.363937 133.66833 
L 180.376305 132.583116 
L 184.018662 130.944121 
L 194.044785 126.027136 
L 199.816495 122.749146 
L 202.600118 120.984242 
L 204.002128 119.825657 
L 204.374072 119.471156 
L 205.404138 118.137958 
L 206.036806 117.012663 
L 207.057383 114.554171 
L 207.837232 112.095678 
L 209.161911 106.359196 
L 209.249044 105.539698 
L 209.199689 104.720201 
L 208.965578 103.900704 
L 208.208158 102.686348 
L 207.869451 102.261709 
L 206.107034 100.622714 
L 203.999201 98.983719 
L 201.540361 97.344724 
L 199.917068 96.525226 
L 199.796098 96.471876 
L 197.265842 95.705729 
L 195.590068 95.411432 
L 188.580017 94.552494 
L 182.971977 93.501389 
L 178.765947 93.165927 
L 175.961927 92.887064 
L 173.157907 92.393666 
L 167.549867 91.086976 
L 163.343836 89.964878 
L 157.735796 88.274488 
L 154.931776 87.713825 
L 145.117706 86.217357 
L 140.911676 85.257205 
L 137.120671 84.232764 
L 135.303635 83.777947 
L 132.499615 83.270733 
L 126.408294 82.593769 
L 122.685545 82.1179 
L 118.479515 81.341133 
L 114.273485 80.49823 
L 111.469465 80.288681 
L 110.067454 80.359142 
L 108.665444 80.551886 
L 106.972641 80.954774 
L 104.647399 81.774271 
L 104.459414 81.849126 
L 102.952696 82.593769 
L 101.597066 83.413266 
L 99.494225 85.052261 
L 97.835761 86.691256 
L 96.49004 88.330251 
L 95.376058 89.969246 
L 93.243334 93.644471 
L 90.356283 98.983719 
L 89.656229 100.622714 
L 88.908194 103.081206 
L 88.414051 105.539698 
L 88.042957 108.817688 
L 87.334147 116.193166 
L 87.021742 119.471156 
L 87.084024 121.929648 
L 87.46036 124.388141 
L 88.070878 126.846633 
L 88.9532 129.305126 
L 90.135073 131.763618 
L 91.113039 133.402613 
L 92.318173 135.041608 
L 93.930431 136.680603 
L 94.987475 137.500101 
L 96.324456 138.319598 
L 98.138498 139.139095 
L 100.253384 139.819787 
L 103.057404 140.422441 
L 108.665444 141.274205 
L 111.469465 141.611798 
L 111.469465 141.611798 
" style="fill:none;stroke:#1f77b4;stroke-width:1.5;"/>
   </g>
   <g id="LineCollection_4">
    <path clip-path="url(#pcd721543c7)" d="M 112.871475 138.44101 
L 115.675495 138.616936 
L 118.479515 138.63451 
L 122.685545 138.425184 
L 129.695595 137.80135 
L 136.705645 137.157686 
L 140.911676 137.050863 
L 147.921726 137.016819 
L 151.459547 136.680603 
L 154.931776 136.094229 
L 159.571083 135.041608 
L 165.471128 133.402613 
L 170.473308 131.763618 
L 175.961927 129.734973 
L 180.851217 127.666131 
L 184.373987 125.931125 
L 188.580017 123.538962 
L 192.37792 121.110151 
L 194.188057 119.696416 
L 195.24904 118.651658 
L 195.890102 117.832161 
L 196.75547 116.193166 
L 197.503367 113.734673 
L 198.394088 110.312924 
L 198.509578 108.817688 
L 198.394088 107.940565 
L 198.170998 107.178693 
L 197.301746 105.539698 
L 196.674962 104.720201 
L 195.590068 103.636051 
L 194.188057 102.705015 
L 192.786047 102.108879 
L 189.982027 101.456578 
L 187.178007 101.083499 
L 180.167957 100.027761 
L 171.755897 98.649646 
L 168.951877 97.911891 
L 163.343836 96.044049 
L 157.735796 94.288716 
L 152.127756 92.681875 
L 147.921726 91.722361 
L 143.715696 91.026298 
L 126.891575 88.495536 
L 119.881525 87.079534 
L 115.675495 86.539579 
L 112.871475 86.312772 
L 110.067454 86.305305 
L 108.665444 86.44842 
L 107.263434 86.726367 
L 104.987134 87.510754 
L 104.459414 87.729757 
L 103.057404 88.484367 
L 100.98681 89.969246 
L 100.037106 90.788744 
L 97.449364 93.445598 
L 94.645344 96.881639 
L 93.243334 99.0438 
L 92.449708 100.622714 
L 91.841324 102.261709 
L 91.241389 104.720201 
L 90.775603 107.998191 
L 89.839071 117.012663 
L 89.671802 119.471156 
L 89.695574 121.110151 
L 89.87593 122.749146 
L 90.439314 125.224993 
L 90.995489 126.846633 
L 91.841324 128.632453 
L 92.800124 130.124623 
L 94.147834 131.763618 
L 94.946152 132.583116 
L 96.904319 134.222111 
L 98.167873 135.041608 
L 99.793138 135.861106 
L 101.655394 136.54971 
L 104.459414 137.248404 
L 108.665444 137.949727 
L 112.871475 138.44101 
L 112.871475 138.44101 
" style="fill:none;stroke:#1f77b4;stroke-width:1.5;"/>
   </g>
   <g id="LineCollection_5">
    <path clip-path="url(#pcd721543c7)" d="M 108.665444 135.194299 
L 111.469465 135.569515 
L 114.273485 135.769799 
L 117.077505 135.795852 
L 119.881525 135.643027 
L 124.087555 135.127031 
L 131.097605 134.132472 
L 135.303635 133.853083 
L 139.509666 133.820066 
L 147.921726 133.952649 
L 150.725746 133.705936 
L 153.529766 133.222071 
L 156.333786 132.532822 
L 161.50295 130.944121 
L 166.2056 129.305126 
L 170.353887 127.659901 
L 174.559917 125.801858 
L 177.363937 124.371925 
L 180.167957 122.61104 
L 185.935873 118.651658 
L 186.781663 117.832161 
L 187.363759 117.012663 
L 187.696885 116.193166 
L 187.970137 114.554171 
L 188.060116 112.095678 
L 187.916526 111.276181 
L 187.523318 110.456683 
L 186.644212 109.637186 
L 185.775997 109.180442 
L 184.373987 108.681123 
L 180.167957 107.776532 
L 177.363937 107.077377 
L 174.559917 105.978229 
L 169.901359 103.900704 
L 150.720193 96.525226 
L 147.51081 95.705729 
L 145.117706 95.279561 
L 138.107655 94.30583 
L 126.891575 92.097241 
L 115.675495 90.388465 
L 112.871475 90.252543 
L 110.067454 90.405565 
L 107.263434 90.960227 
L 105.421182 91.608241 
L 103.661656 92.427739 
L 102.233464 93.247236 
L 101.001573 94.066734 
L 99.902071 94.886231 
L 98.040573 96.525226 
L 96.550593 98.164221 
L 95.409513 99.803216 
L 94.577424 101.442211 
L 94.014233 103.081206 
L 93.468568 105.539698 
L 92.583535 111.276181 
L 92.254212 114.554171 
L 91.988345 119.471156 
L 92.049799 121.110151 
L 92.278003 122.749146 
L 92.687445 124.388141 
L 93.298046 126.027136 
L 94.217367 127.666131 
L 94.82661 128.485628 
L 96.047354 129.756592 
L 97.571658 130.944121 
L 100.253384 132.530611 
L 103.057404 133.751152 
L 105.861424 134.611857 
L 108.665444 135.194299 
L 108.665444 135.194299 
" style="fill:none;stroke:#1f77b4;stroke-width:1.5;"/>
   </g>
   <g id="LineCollection_6">
    <path clip-path="url(#pcd721543c7)" d="M 111.469465 132.748835 
L 114.273485 132.941023 
L 117.077505 132.867749 
L 119.881525 132.557448 
L 124.277922 131.763618 
L 128.293585 131.081003 
L 131.097605 130.796702 
L 135.303635 130.644658 
L 147.921726 130.486735 
L 151.226409 130.124623 
L 153.529766 129.722808 
L 156.333786 129.062188 
L 159.137806 128.238933 
L 161.941826 127.20413 
L 164.441524 126.027136 
L 167.161428 124.388141 
L 171.601132 121.110151 
L 173.157907 119.471156 
L 173.668562 118.651658 
L 173.998822 117.832161 
L 174.139885 117.012663 
L 174.083756 116.193166 
L 173.821755 115.373668 
L 173.157907 114.337985 
L 172.641964 113.734673 
L 170.758799 112.095678 
L 168.658537 110.456683 
L 165.314311 107.998191 
L 162.54364 106.359196 
L 159.137806 104.706121 
L 148.464164 99.803216 
L 146.519716 99.183837 
L 143.715696 98.586516 
L 133.901625 97.118592 
L 126.891575 95.452395 
L 122.685545 94.792275 
L 116.459378 94.066734 
L 114.273485 93.904014 
L 111.469465 93.883892 
L 108.665444 94.167743 
L 107.263434 94.449933 
L 105.755256 94.886231 
L 103.723837 95.705729 
L 102.185887 96.525226 
L 100.961916 97.344724 
L 99.9494 98.164221 
L 98.440138 99.803216 
L 97.410254 101.442211 
L 96.754188 103.081206 
L 96.047354 105.681094 
L 94.913387 111.276181 
L 94.626857 113.734673 
L 94.494315 117.012663 
L 94.559363 120.290653 
L 94.782188 121.929648 
L 95.216888 123.568643 
L 95.91028 125.207638 
L 96.416424 126.027136 
L 97.449364 127.266982 
L 98.851374 128.41324 
L 100.368769 129.305126 
L 103.057404 130.507951 
L 106.738224 131.763618 
L 108.665444 132.269233 
L 111.469465 132.748835 
L 111.469465 132.748835 
" style="fill:none;stroke:#1f77b4;stroke-width:1.5;"/>
   </g>
   <g id="LineCollection_7">
    <path clip-path="url(#pcd721543c7)" d="M 108.665444 129.317422 
L 111.469465 129.866289 
L 114.273485 130.083284 
L 117.077505 129.946313 
L 119.881525 129.510594 
L 126.891575 128.102507 
L 129.695595 127.794664 
L 133.901625 127.624162 
L 143.715696 127.463293 
L 147.921726 127.114229 
L 150.725746 126.693636 
L 153.668875 126.027136 
L 156.333786 125.091495 
L 157.735796 124.385206 
L 159.137806 123.343682 
L 159.745567 122.749146 
L 160.539816 121.648564 
L 160.846606 121.110151 
L 161.176914 120.290653 
L 161.491724 118.651658 
L 161.505484 117.012663 
L 161.33866 114.554171 
L 161.012503 112.915176 
L 160.539816 111.848586 
L 160.19894 111.276181 
L 159.137806 110.147571 
L 157.735796 109.147997 
L 156.333786 108.405381 
L 153.446176 107.178693 
L 149.323736 105.456015 
L 143.715696 102.8833 
L 140.911676 102.005752 
L 136.705645 101.163541 
L 132.499615 100.321732 
L 125.489565 98.692538 
L 121.283535 98.059037 
L 114.273485 97.384821 
L 111.469465 97.306599 
L 108.665444 97.526061 
L 107.263434 97.798246 
L 105.861424 98.203801 
L 104.14606 98.983719 
L 102.883164 99.803216 
L 101.655394 100.95586 
L 100.726863 102.261709 
L 99.902815 103.900704 
L 98.684893 107.178693 
L 97.743188 110.456683 
L 97.320332 112.915176 
L 97.185601 115.373668 
L 97.257356 117.832161 
L 97.550534 120.290653 
L 97.958147 121.929648 
L 98.625388 123.568643 
L 99.125217 124.388141 
L 100.253384 125.664254 
L 101.655394 126.700251 
L 103.057404 127.435827 
L 104.459414 128.019609 
L 107.263434 128.944028 
L 108.665444 129.317422 
L 108.665444 129.317422 
" style="fill:none;stroke:#1f77b4;stroke-width:1.5;"/>
   </g>
   <g id="LineCollection_8">
    <path clip-path="url(#pcd721543c7)" d="M 111.469465 127.033937 
L 114.273485 127.217834 
L 117.077505 127.003094 
L 119.881525 126.450881 
L 125.515956 125.207638 
L 128.293585 124.874207 
L 133.901625 124.607609 
L 138.107655 124.372267 
L 142.313686 123.896713 
L 145.117706 123.369383 
L 147.921726 122.519164 
L 149.323736 121.887431 
L 150.725746 120.990166 
L 152.127756 119.620718 
L 152.780569 118.651658 
L 153.492573 117.012663 
L 153.685429 116.193166 
L 153.771905 115.373668 
L 153.732454 114.554171 
L 153.529766 113.734673 
L 153.069243 112.915176 
L 152.127756 111.966201 
L 150.725746 111.116537 
L 149.181489 110.456683 
L 145.117706 109.176321 
L 141.533591 107.998191 
L 137.622806 106.359196 
L 135.303635 105.492869 
L 132.499615 104.703741 
L 122.685545 102.549098 
L 119.881525 102.137595 
L 115.675495 101.727233 
L 112.871475 101.604329 
L 110.067454 101.777328 
L 108.054133 102.261709 
L 107.263434 102.548439 
L 105.861424 103.333737 
L 104.297785 104.720201 
L 102.982068 106.359196 
L 101.57738 108.817688 
L 100.959213 110.456683 
L 100.512414 112.095678 
L 100.244075 113.734673 
L 100.16954 115.373668 
L 100.275831 117.012663 
L 100.594501 118.651658 
L 101.099275 120.290653 
L 101.8307 121.929648 
L 102.362388 122.749146 
L 103.057404 123.597862 
L 104.459414 124.716464 
L 105.861424 125.477466 
L 107.263434 126.043882 
L 110.067454 126.799222 
L 111.469465 127.033937 
L 111.469465 127.033937 
" style="fill:none;stroke:#1f77b4;stroke-width:1.5;"/>
   </g>
   <g id="LineCollection_9">
    <path clip-path="url(#pcd721543c7)" d="M 110.067454 123.789834 
L 111.469465 124.101065 
L 112.871475 124.258014 
L 114.273485 124.265971 
L 115.675495 124.136175 
L 117.077505 123.891698 
L 118.479515 123.569349 
L 118.48223 123.568643 
L 119.881525 123.166641 
L 121.283535 122.787016 
L 121.443074 122.749146 
L 122.685545 122.435414 
L 124.087555 122.173982 
L 125.489565 122.004543 
L 126.562283 121.929648 
L 126.891575 121.90499 
L 128.293585 121.847525 
L 129.695595 121.810749 
L 131.097605 121.76624 
L 132.499615 121.690304 
L 133.901625 121.564621 
L 135.303635 121.376352 
L 136.705645 121.11799 
L 136.740383 121.110151 
L 138.107655 120.727356 
L 139.42348 120.290653 
L 139.509666 120.25331 
L 140.911676 119.603876 
L 141.186057 119.471156 
L 142.313686 118.749424 
L 142.465999 118.651658 
L 143.358058 117.832161 
L 143.715696 117.250796 
L 143.864636 117.012663 
L 143.9035 116.193166 
L 143.715696 115.894895 
L 143.285425 115.373668 
L 142.313686 114.855564 
L 141.589508 114.554171 
L 140.911676 114.354512 
L 139.509666 113.970851 
L 138.664889 113.734673 
L 138.107655 113.593028 
L 136.705645 113.180589 
L 135.943286 112.915176 
L 135.303635 112.687777 
L 133.901625 112.095678 
L 132.499615 111.414452 
L 132.233379 111.276181 
L 131.097605 110.724451 
L 130.525635 110.456683 
L 129.695595 110.108403 
L 128.402945 109.637186 
L 128.293585 109.600901 
L 126.891575 109.189834 
L 125.489565 108.857049 
L 125.298856 108.817688 
L 124.087555 108.561407 
L 122.685545 108.297344 
L 121.283535 108.052003 
L 120.964303 107.998191 
L 119.881525 107.790511 
L 118.479515 107.526927 
L 117.077505 107.273088 
L 116.494898 107.178693 
L 115.675495 107.037426 
L 114.273485 106.856351 
L 112.871475 106.765737 
L 111.469465 106.799335 
L 110.067454 106.996285 
L 109.437466 107.178693 
L 108.665444 107.411415 
L 107.493114 107.998191 
L 107.263434 108.122375 
L 106.391869 108.817688 
L 105.861424 109.291852 
L 105.577542 109.637186 
L 104.981007 110.456683 
L 104.468465 111.276181 
L 104.459414 111.292798 
L 104.113618 112.095678 
L 103.822261 112.915176 
L 103.601802 113.734673 
L 103.463786 114.554171 
L 103.419567 115.373668 
L 103.477563 116.193166 
L 103.64019 117.012663 
L 103.901132 117.832161 
L 104.245211 118.651658 
L 104.459414 119.086214 
L 104.689104 119.471156 
L 105.228941 120.290653 
L 105.826137 121.110151 
L 105.861424 121.153064 
L 106.64145 121.929648 
L 107.263434 122.45294 
L 107.712301 122.749146 
L 108.665444 123.270072 
L 109.409627 123.568643 
L 110.067454 123.789834 
" style="fill:none;stroke:#1f77b4;stroke-width:1.5;"/>
   </g>
   <g id="LineCollection_10"/>
   <g id="patch_3">
    <path d="M 55.389063 170.28 
L 55.389063 7.2 
" style="fill:none;stroke:#cccccc;stroke-linecap:square;stroke-linejoin:miter;stroke-width:0.8;"/>
   </g>
   <g id="patch_4">
    <path d="M 334.389063 170.28 
L 334.389063 7.2 
" style="fill:none;stroke:#cccccc;stroke-linecap:square;stroke-linejoin:miter;stroke-width:0.8;"/>
   </g>
   <g id="patch_5">
    <path d="M 55.389063 170.28 
L 334.389062 170.28 
" style="fill:none;stroke:#cccccc;stroke-linecap:square;stroke-linejoin:miter;stroke-width:0.8;"/>
   </g>
   <g id="patch_6">
    <path d="M 55.389063 7.2 
L 334.389062 7.2 
" style="fill:none;stroke:#cccccc;stroke-linecap:square;stroke-linejoin:miter;stroke-width:0.8;"/>
   </g>
  </g>
 </g>
 <defs>
  <clipPath id="pcd721543c7">
   <rect height="163.08" width="279" x="55.389063" y="7.2"/>
  </clipPath>
 </defs>
</svg>