<svg width="414" height="145" viewBox="0 0 414 145" fill="none" xmlns="http://www.w3.org/2000/svg">
<rect width="414" height="145" fill="white"/>
<circle cx="61" cy="61" r="59.5" stroke="#E99D42" stroke-width="3"/>
<circle cx="118.5" cy="38.5" r="34" stroke="#2C7CF6" stroke-width="3"/>
<circle cx="118.5" cy="38.5" r="32" stroke="#8FC34F" stroke-width="3"/>
<path d="M167.562 47H170.039L170.875 44.2656H174.852L175.688 47H178.172L174.25 35.7266H171.477L167.562 47ZM172.797 37.9766H172.938L174.312 42.5H171.414L172.797 37.9766ZM182.461 47.1328C183.672 47.1328 184.586 46.5938 185.031 45.6641H185.172V47H187.453V35.1094H185.172V39.7734H185.031C184.602 38.8359 183.641 38.2578 182.461 38.2578C180.281 38.2578 178.969 39.9219 178.969 42.6875V42.7031C178.969 45.4531 180.312 47.1328 182.461 47.1328ZM183.234 45.2422C182.031 45.2422 181.289 44.2891 181.289 42.7031V42.6875C181.289 41.1172 182.031 40.1484 183.234 40.1484C184.438 40.1484 185.195 41.1172 185.195 42.6953V42.7109C185.195 44.2891 184.445 45.2422 183.234 45.2422ZM189.812 47H192.094V41.8125C192.094 40.8281 192.719 40.1016 193.609 40.1016C194.5 40.1016 195.023 40.6406 195.023 41.5625V47H197.305V41.7109C197.305 40.7812 197.898 40.1016 198.82 40.1016C199.773 40.1016 200.242 40.625 200.242 41.6641V47H202.523V41.0938C202.523 39.3203 201.453 38.2109 199.742 38.2109C198.539 38.2109 197.539 38.8438 197.148 39.7969H197.008C196.656 38.8047 195.789 38.2109 194.617 38.2109C193.492 38.2109 192.602 38.7734 192.234 39.7422H192.094V38.3984H189.812V47ZM205.898 37.0781C206.602 37.0781 207.18 36.5156 207.18 35.8125C207.18 35.1016 206.602 34.5391 205.898 34.5391C205.195 34.5391 204.609 35.1016 204.609 35.8125C204.609 36.5156 205.195 37.0781 205.898 37.0781ZM204.75 47H207.031V38.3984H204.75V47ZM209.328 47H211.609V42.0234C211.609 40.8594 212.25 40.1016 213.305 40.1016C214.383 40.1016 214.883 40.7422 214.883 41.9531V47H217.164V41.4375C217.164 39.3828 216.133 38.2109 214.219 38.2109C212.992 38.2109 212.141 38.7969 211.75 39.7266H211.609V38.3984H209.328V47ZM220.539 37.0781C221.242 37.0781 221.82 36.5156 221.82 35.8125C221.82 35.1016 221.242 34.5391 220.539 34.5391C219.836 34.5391 219.25 35.1016 219.25 35.8125C219.25 36.5156 219.836 37.0781 220.539 37.0781ZM219.391 47H221.672V38.3984H219.391V47ZM227.391 47.1797C229.594 47.1797 231.164 46.0703 231.164 44.3672V44.3594C231.164 43.0859 230.359 42.3672 228.641 42L227.211 41.6953C226.32 41.5 226 41.2344 226 40.7734V40.7656C226 40.1875 226.562 39.8203 227.352 39.8203C228.203 39.8203 228.711 40.25 228.836 40.7109L228.844 40.75H230.961V40.7188C230.867 39.3359 229.617 38.2109 227.359 38.2109C225.211 38.2109 223.773 39.2891 223.773 40.9062V40.9141C223.773 42.2031 224.586 43.0078 226.227 43.3594L227.664 43.6641C228.539 43.8594 228.883 44.1484 228.883 44.6094V44.625C228.883 45.1953 228.289 45.5703 227.414 45.5703C226.516 45.5703 225.992 45.1875 225.812 44.6562L225.797 44.625H223.555L223.562 44.6562C223.727 46.1328 225.055 47.1797 227.391 47.1797ZM236.555 47.0312C236.992 47.0312 237.414 46.9844 237.695 46.9297V45.2344C237.477 45.2578 237.32 45.2734 237.023 45.2734C236.25 45.2734 235.922 44.9297 235.922 44.1562V40.1172H237.695V38.3984H235.922V36.3438H233.617V38.3984H232.289V40.1172H233.617V44.6797C233.617 46.3516 234.461 47.0312 236.555 47.0312ZM239.594 47H241.875V42.1875C241.875 40.9688 242.695 40.2266 243.992 40.2266C244.344 40.2266 244.695 40.2812 245.039 40.3594V38.3672C244.812 38.3047 244.492 38.2578 244.188 38.2578C243.07 38.2578 242.289 38.8047 242.016 39.7344H241.875V38.3984H239.594V47ZM248.75 47.1328C249.875 47.1328 250.781 46.6562 251.219 45.8594H251.359V47H253.609V41.125C253.609 39.2891 252.32 38.2109 250.039 38.2109C247.875 38.2109 246.453 39.2109 246.273 40.7188L246.266 40.7891H248.375L248.391 40.7578C248.57 40.25 249.094 39.9609 249.914 39.9609C250.852 39.9609 251.359 40.3828 251.359 41.125V41.8359L249.281 41.9609C247.141 42.0859 245.945 42.9922 245.945 44.5391V44.5547C245.945 46.1172 247.109 47.1328 248.75 47.1328ZM248.172 44.4141V44.3984C248.172 43.7734 248.648 43.4062 249.625 43.3438L251.359 43.2344V43.8672C251.359 44.7734 250.57 45.4688 249.516 45.4688C248.727 45.4688 248.172 45.0703 248.172 44.4141ZM259.414 47.0312C259.852 47.0312 260.273 46.9844 260.555 46.9297V45.2344C260.336 45.2578 260.18 45.2734 259.883 45.2734C259.109 45.2734 258.781 44.9297 258.781 44.1562V40.1172H260.555V38.3984H258.781V36.3438H256.477V38.3984H255.148V40.1172H256.477V44.6797C256.477 46.3516 257.32 47.0312 259.414 47.0312ZM263.617 37.0781C264.32 37.0781 264.898 36.5156 264.898 35.8125C264.898 35.1016 264.32 34.5391 263.617 34.5391C262.914 34.5391 262.328 35.1016 262.328 35.8125C262.328 36.5156 262.914 37.0781 263.617 37.0781ZM262.469 47H264.75V38.3984H262.469V47ZM269.297 47H271.859L274.836 38.3984H272.438L270.672 44.8672H270.531L268.75 38.3984H266.305L269.297 47ZM279.797 47.1797C282.312 47.1797 283.422 45.7266 283.688 44.6484L283.703 44.5703H281.578L281.555 44.6172C281.398 44.9453 280.844 45.4766 279.844 45.4766C278.633 45.4766 277.875 44.6562 277.852 43.2422H283.773V42.5312C283.773 39.9297 282.211 38.2109 279.703 38.2109C277.195 38.2109 275.594 39.9688 275.594 42.7031V42.7109C275.594 45.4688 277.18 47.1797 279.797 47.1797ZM279.742 39.9219C280.734 39.9219 281.445 40.5625 281.586 41.8125H277.875C278.016 40.5938 278.75 39.9219 279.742 39.9219ZM292.836 47.1328C294.047 47.1328 294.961 46.5938 295.406 45.6641H295.547V47H297.828V35.1094H295.547V39.7734H295.406C294.977 38.8359 294.016 38.2578 292.836 38.2578C290.656 38.2578 289.344 39.9219 289.344 42.6875V42.7031C289.344 45.4531 290.688 47.1328 292.836 47.1328ZM293.609 45.2422C292.406 45.2422 291.664 44.2891 291.664 42.7031V42.6875C291.664 41.1172 292.406 40.1484 293.609 40.1484C294.812 40.1484 295.57 41.1172 295.57 42.6953V42.7109C295.57 44.2891 294.82 45.2422 293.609 45.2422ZM302.531 47.1328C303.656 47.1328 304.562 46.6562 305 45.8594H305.141V47H307.391V41.125C307.391 39.2891 306.102 38.2109 303.82 38.2109C301.656 38.2109 300.234 39.2109 300.055 40.7188L300.047 40.7891H302.156L302.172 40.7578C302.352 40.25 302.875 39.9609 303.695 39.9609C304.633 39.9609 305.141 40.3828 305.141 41.125V41.8359L303.062 41.9609C300.922 42.0859 299.727 42.9922 299.727 44.5391V44.5547C299.727 46.1172 300.891 47.1328 302.531 47.1328ZM301.953 44.4141V44.3984C301.953 43.7734 302.43 43.4062 303.406 43.3438L305.141 43.2344V43.8672C305.141 44.7734 304.352 45.4688 303.297 45.4688C302.508 45.4688 301.953 45.0703 301.953 44.4141ZM313.195 47.0312C313.633 47.0312 314.055 46.9844 314.336 46.9297V45.2344C314.117 45.2578 313.961 45.2734 313.664 45.2734C312.891 45.2734 312.562 44.9297 312.562 44.1562V40.1172H314.336V38.3984H312.562V36.3438H310.258V38.3984H308.93V40.1172H310.258V44.6797C310.258 46.3516 311.102 47.0312 313.195 47.0312ZM318.578 47.1328C319.703 47.1328 320.609 46.6562 321.047 45.8594H321.188V47H323.438V41.125C323.438 39.2891 322.148 38.2109 319.867 38.2109C317.703 38.2109 316.281 39.2109 316.102 40.7188L316.094 40.7891H318.203L318.219 40.7578C318.398 40.25 318.922 39.9609 319.742 39.9609C320.68 39.9609 321.188 40.3828 321.188 41.125V41.8359L319.109 41.9609C316.969 42.0859 315.773 42.9922 315.773 44.5391V44.5547C315.773 46.1172 316.938 47.1328 318.578 47.1328ZM318 44.4141V44.3984C318 43.7734 318.477 43.4062 319.453 43.3438L321.188 43.2344V43.8672C321.188 44.7734 320.398 45.4688 319.344 45.4688C318.555 45.4688 318 45.0703 318 44.4141ZM327.312 41.5391C328.117 41.5391 328.688 40.9531 328.688 40.1797C328.688 39.4062 328.117 38.8281 327.312 38.8281C326.516 38.8281 325.938 39.4062 325.938 40.1797C325.938 40.9531 326.516 41.5391 327.312 41.5391ZM327.312 47.1953C328.117 47.1953 328.688 46.6094 328.688 45.8359C328.688 45.0625 328.117 44.4844 327.312 44.4844C326.516 44.4844 325.938 45.0625 325.938 45.8359C325.938 46.6094 326.516 47.1953 327.312 47.1953ZM338.766 47.1484C340.68 47.1484 342.141 46.1094 342.141 44.6094V44.5938C342.141 43.3906 341.375 42.7031 339.789 42.3203L338.492 42.0078C337.5 41.7656 337.078 41.4062 337.078 40.8359V40.8203C337.078 40.0781 337.812 39.5625 338.812 39.5625C339.828 39.5625 340.484 40.0234 340.664 40.6875H342C341.812 39.3125 340.586 38.4297 338.82 38.4297C337.031 38.4297 335.688 39.4844 335.688 40.8828V40.8906C335.688 42.1016 336.398 42.7891 337.977 43.1641L339.281 43.4766C340.32 43.7266 340.75 44.125 340.75 44.6953V44.7109C340.75 45.4766 339.945 46.0156 338.812 46.0156C337.734 46.0156 337.062 45.5547 336.836 44.8516H335.445C335.602 46.2422 336.891 47.1484 338.766 47.1484ZM346.562 47.1484C347.695 47.1484 348.578 46.6562 349.109 45.7578H349.234V47H350.594V41.2344C350.594 39.4844 349.445 38.4297 347.391 38.4297C345.594 38.4297 344.312 39.3203 344.094 40.6406L344.086 40.6875H345.445L345.453 40.6641C345.672 40.0078 346.336 39.6328 347.344 39.6328C348.602 39.6328 349.234 40.1953 349.234 41.2344V42L346.82 42.1484C344.859 42.2656 343.75 43.1328 343.75 44.6328V44.6484C343.75 46.1797 344.961 47.1484 346.562 47.1484ZM345.141 44.6172V44.6016C345.141 43.7656 345.703 43.3125 346.984 43.2344L349.234 43.0938V43.8594C349.234 45.0625 348.227 45.9688 346.844 45.9688C345.867 45.9688 345.141 45.4688 345.141 44.6172ZM353.078 47H354.438V41.7812C354.438 40.5938 355.273 39.6328 356.375 39.6328C357.438 39.6328 358.125 40.2812 358.125 41.2812V47H359.484V41.5859C359.484 40.5156 360.258 39.6328 361.43 39.6328C362.617 39.6328 363.188 40.25 363.188 41.4922V47H364.547V41.1797C364.547 39.4141 363.586 38.4297 361.867 38.4297C360.703 38.4297 359.742 39.0156 359.289 39.9062H359.164C358.773 39.0312 357.977 38.4297 356.836 38.4297C355.734 38.4297 354.938 38.9531 354.562 39.8594H354.438V38.5781H353.078V47ZM367 49.8125H368.359V45.6719H368.484C368.945 46.5703 369.953 47.1484 371.109 47.1484C373.25 47.1484 374.641 45.4375 374.641 42.7969V42.7812C374.641 40.1562 373.242 38.4297 371.109 38.4297C369.938 38.4297 369 38.9844 368.484 39.9219H368.359V38.5781H367V49.8125ZM370.797 45.9453C369.266 45.9453 368.328 44.7422 368.328 42.7969V42.7812C368.328 40.8359 369.266 39.6328 370.797 39.6328C372.336 39.6328 373.25 40.8203 373.25 42.7812V42.7969C373.25 44.7578 372.336 45.9453 370.797 45.9453ZM376.844 47H378.203V35.2344H376.844V47ZM384.25 47.1484C386.234 47.1484 387.438 46.0234 387.727 44.8828L387.742 44.8203H386.383L386.352 44.8906C386.125 45.3984 385.422 45.9375 384.281 45.9375C382.781 45.9375 381.82 44.9219 381.781 43.1797H387.844V42.6484C387.844 40.1328 386.453 38.4297 384.164 38.4297C381.875 38.4297 380.391 40.2109 380.391 42.8125V42.8203C380.391 45.4609 381.844 47.1484 384.25 47.1484ZM384.156 39.6406C385.398 39.6406 386.32 40.4297 386.461 42.0938H381.805C381.953 40.4922 382.906 39.6406 384.156 39.6406ZM171.711 66.1484C173.734 66.1484 174.867 65.0625 175.211 63.5391L175.227 63.4531L173.883 63.4609L173.867 63.5078C173.555 64.4453 172.836 64.9453 171.703 64.9453C170.203 64.9453 169.234 63.7031 169.234 61.7656V61.75C169.234 59.8516 170.188 58.6328 171.703 58.6328C172.914 58.6328 173.664 59.3047 173.875 60.1328L173.883 60.1562H175.234L175.227 60.1094C174.977 58.6094 173.75 57.4297 171.703 57.4297C169.344 57.4297 167.844 59.1328 167.844 61.75V61.7656C167.844 64.4375 169.352 66.1484 171.711 66.1484ZM180.68 66.1484C183.078 66.1484 184.562 64.4922 184.562 61.7969V61.7812C184.562 59.0781 183.078 57.4297 180.68 57.4297C178.281 57.4297 176.797 59.0781 176.797 61.7812V61.7969C176.797 64.4922 178.281 66.1484 180.68 66.1484ZM180.68 64.9453C179.086 64.9453 178.188 63.7812 178.188 61.7969V61.7812C178.188 59.7891 179.086 58.6328 180.68 58.6328C182.273 58.6328 183.172 59.7891 183.172 61.7812V61.7969C183.172 63.7812 182.273 64.9453 180.68 64.9453ZM188.742 66H190.117L193.234 57.5781H191.797L189.492 64.5156H189.367L187.062 57.5781H185.625L188.742 66ZM198.156 66.1484C200.141 66.1484 201.344 65.0234 201.633 63.8828L201.648 63.8203H200.289L200.258 63.8906C200.031 64.3984 199.328 64.9375 198.188 64.9375C196.688 64.9375 195.727 63.9219 195.688 62.1797H201.75V61.6484C201.75 59.1328 200.359 57.4297 198.07 57.4297C195.781 57.4297 194.297 59.2109 194.297 61.8125V61.8203C194.297 64.4609 195.75 66.1484 198.156 66.1484ZM198.062 58.6406C199.305 58.6406 200.227 59.4297 200.367 61.0938H195.711C195.859 59.4922 196.812 58.6406 198.062 58.6406ZM203.859 66H205.219V60.7812C205.219 59.5469 206.141 58.7266 207.438 58.7266C207.734 58.7266 207.992 58.7578 208.273 58.8047V57.4844C208.141 57.4609 207.852 57.4297 207.594 57.4297C206.453 57.4297 205.664 57.9453 205.344 58.8281H205.219V57.5781H203.859V66ZM212.688 66.1484C214.602 66.1484 216.062 65.1094 216.062 63.6094V63.5938C216.062 62.3906 215.297 61.7031 213.711 61.3203L212.414 61.0078C211.422 60.7656 211 60.4062 211 59.8359V59.8203C211 59.0781 211.734 58.5625 212.734 58.5625C213.75 58.5625 214.406 59.0234 214.586 59.6875H215.922C215.734 58.3125 214.508 57.4297 212.742 57.4297C210.953 57.4297 209.609 58.4844 209.609 59.8828V59.8906C209.609 61.1016 210.32 61.7891 211.898 62.1641L213.203 62.4766C214.242 62.7266 214.672 63.125 214.672 63.6953V63.7109C214.672 64.4766 213.867 65.0156 212.734 65.0156C211.656 65.0156 210.984 64.5547 210.758 63.8516H209.367C209.523 65.2422 210.812 66.1484 212.688 66.1484ZM226.125 66.1484C228.109 66.1484 229.312 65.0234 229.602 63.8828L229.617 63.8203H228.258L228.227 63.8906C228 64.3984 227.297 64.9375 226.156 64.9375C224.656 64.9375 223.695 63.9219 223.656 62.1797H229.719V61.6484C229.719 59.1328 228.328 57.4297 226.039 57.4297C223.75 57.4297 222.266 59.2109 222.266 61.8125V61.8203C222.266 64.4609 223.719 66.1484 226.125 66.1484ZM226.031 58.6406C227.273 58.6406 228.195 59.4297 228.336 61.0938H223.68C223.828 59.4922 224.781 58.6406 226.031 58.6406ZM231.828 66H233.188V61.0156C233.188 59.5391 234.039 58.6328 235.383 58.6328C236.727 58.6328 237.352 59.3594 237.352 60.875V66H238.711V60.5469C238.711 58.5469 237.656 57.4297 235.766 57.4297C234.523 57.4297 233.734 57.9531 233.312 58.8438H233.188V57.5781H231.828V66ZM244.164 66.0625C244.43 66.0625 244.688 66.0312 244.953 65.9844V64.8281C244.703 64.8516 244.57 64.8594 244.328 64.8594C243.453 64.8594 243.109 64.4609 243.109 63.4688V58.7031H244.953V57.5781H243.109V55.3984H241.703V57.5781H240.375V58.7031H241.703V63.8125C241.703 65.4219 242.43 66.0625 244.164 66.0625ZM247.703 55.9531C248.219 55.9531 248.641 55.5312 248.641 55.0156C248.641 54.5 248.219 54.0781 247.703 54.0781C247.188 54.0781 246.766 54.5 246.766 55.0156C246.766 55.5312 247.188 55.9531 247.703 55.9531ZM247.016 66H248.375V57.5781H247.016V66ZM250.938 66H252.297V60.7812C252.297 59.5469 253.219 58.7266 254.516 58.7266C254.812 58.7266 255.07 58.7578 255.352 58.8047V57.4844C255.219 57.4609 254.93 57.4297 254.672 57.4297C253.531 57.4297 252.742 57.9453 252.422 58.8281H252.297V57.5781H250.938V66ZM260.234 66.1484C262.219 66.1484 263.422 65.0234 263.711 63.8828L263.727 63.8203H262.367L262.336 63.8906C262.109 64.3984 261.406 64.9375 260.266 64.9375C258.766 64.9375 257.805 63.9219 257.766 62.1797H263.828V61.6484C263.828 59.1328 262.438 57.4297 260.148 57.4297C257.859 57.4297 256.375 59.2109 256.375 61.8125V61.8203C256.375 64.4609 257.828 66.1484 260.234 66.1484ZM260.141 58.6406C261.383 58.6406 262.305 59.4297 262.445 61.0938H257.789C257.938 59.4922 258.891 58.6406 260.141 58.6406ZM273.344 66.1484C275.258 66.1484 276.719 65.1094 276.719 63.6094V63.5938C276.719 62.3906 275.953 61.7031 274.367 61.3203L273.07 61.0078C272.078 60.7656 271.656 60.4062 271.656 59.8359V59.8203C271.656 59.0781 272.391 58.5625 273.391 58.5625C274.406 58.5625 275.062 59.0234 275.242 59.6875H276.578C276.391 58.3125 275.164 57.4297 273.398 57.4297C271.609 57.4297 270.266 58.4844 270.266 59.8828V59.8906C270.266 61.1016 270.977 61.7891 272.555 62.1641L273.859 62.4766C274.898 62.7266 275.328 63.125 275.328 63.6953V63.7109C275.328 64.4766 274.523 65.0156 273.391 65.0156C272.312 65.0156 271.641 64.5547 271.414 63.8516H270.023C270.18 65.2422 271.469 66.1484 273.344 66.1484ZM281.141 66.1484C282.273 66.1484 283.156 65.6562 283.688 64.7578H283.812V66H285.172V60.2344C285.172 58.4844 284.023 57.4297 281.969 57.4297C280.172 57.4297 278.891 58.3203 278.672 59.6406L278.664 59.6875H280.023L280.031 59.6641C280.25 59.0078 280.914 58.6328 281.922 58.6328C283.18 58.6328 283.812 59.1953 283.812 60.2344V61L281.398 61.1484C279.438 61.2656 278.328 62.1328 278.328 63.6328V63.6484C278.328 65.1797 279.539 66.1484 281.141 66.1484ZM279.719 63.6172V63.6016C279.719 62.7656 280.281 62.3125 281.562 62.2344L283.812 62.0938V62.8594C283.812 64.0625 282.805 64.9688 281.422 64.9688C280.445 64.9688 279.719 64.4688 279.719 63.6172ZM287.656 66H289.016V60.7812C289.016 59.5938 289.852 58.6328 290.953 58.6328C292.016 58.6328 292.703 59.2812 292.703 60.2812V66H294.062V60.5859C294.062 59.5156 294.836 58.6328 296.008 58.6328C297.195 58.6328 297.766 59.25 297.766 60.4922V66H299.125V60.1797C299.125 58.4141 298.164 57.4297 296.445 57.4297C295.281 57.4297 294.32 58.0156 293.867 58.9062H293.742C293.352 58.0312 292.555 57.4297 291.414 57.4297C290.312 57.4297 289.516 57.9531 289.141 58.8594H289.016V57.5781H287.656V66ZM301.578 68.8125H302.938V64.6719H303.062C303.523 65.5703 304.531 66.1484 305.688 66.1484C307.828 66.1484 309.219 64.4375 309.219 61.7969V61.7812C309.219 59.1562 307.82 57.4297 305.688 57.4297C304.516 57.4297 303.578 57.9844 303.062 58.9219H302.938V57.5781H301.578V68.8125ZM305.375 64.9453C303.844 64.9453 302.906 63.7422 302.906 61.7969V61.7812C302.906 59.8359 303.844 58.6328 305.375 58.6328C306.914 58.6328 307.828 59.8203 307.828 61.7812V61.7969C307.828 63.7578 306.914 64.9453 305.375 64.9453ZM311.422 66H312.781V54.2344H311.422V66ZM316.109 55.9531C316.625 55.9531 317.047 55.5312 317.047 55.0156C317.047 54.5 316.625 54.0781 316.109 54.0781C315.594 54.0781 315.172 54.5 315.172 55.0156C315.172 55.5312 315.594 55.9531 316.109 55.9531ZM315.422 66H316.781V57.5781H315.422V66ZM319.344 66H320.703V61.0156C320.703 59.5391 321.555 58.6328 322.898 58.6328C324.242 58.6328 324.867 59.3594 324.867 60.875V66H326.227V60.5469C326.227 58.5469 325.172 57.4297 323.281 57.4297C322.039 57.4297 321.25 57.9531 320.828 58.8438H320.703V57.5781H319.344V66ZM332.156 68.9688C334.453 68.9688 335.906 67.7656 335.906 65.8828V57.5781H334.547V58.9688H334.453C333.938 58.0156 333.016 57.4297 331.828 57.4297C329.625 57.4297 328.266 59.1406 328.266 61.5V61.5156C328.266 63.875 329.617 65.5625 331.797 65.5625C332.953 65.5625 333.906 65.0391 334.438 64.1094H334.562V65.8125C334.562 67.0547 333.664 67.7656 332.156 67.7656C330.945 67.7656 330.195 67.3125 330.047 66.6719L330.039 66.6641H328.633L328.617 66.6719C328.828 68.0547 330.125 68.9688 332.156 68.9688ZM332.094 64.3594C330.531 64.3594 329.656 63.1875 329.656 61.5156V61.5C329.656 59.8281 330.531 58.6328 332.094 58.6328C333.648 58.6328 334.594 59.8281 334.594 61.5V61.5156C334.594 63.1875 333.656 64.3594 332.094 64.3594ZM343.516 66H344.875V58.7031H346.789V57.5781H344.875V56.6797C344.875 55.7578 345.266 55.2812 346.234 55.2812C346.477 55.2812 346.703 55.2891 346.867 55.3203V54.2344C346.586 54.1797 346.289 54.1562 345.961 54.1562C344.359 54.1562 343.516 54.9609 343.516 56.6406V57.5781H342.117V58.7031H343.516V66ZM348.75 66H350.109V60.7812C350.109 59.5469 351.031 58.7266 352.328 58.7266C352.625 58.7266 352.883 58.7578 353.164 58.8047V57.4844C353.031 57.4609 352.742 57.4297 352.484 57.4297C351.344 57.4297 350.555 57.9453 350.234 58.8281H350.109V57.5781H348.75V66ZM357.156 66.1484C358.289 66.1484 359.172 65.6562 359.703 64.7578H359.828V66H361.188V60.2344C361.188 58.4844 360.039 57.4297 357.984 57.4297C356.188 57.4297 354.906 58.3203 354.688 59.6406L354.68 59.6875H356.039L356.047 59.6641C356.266 59.0078 356.93 58.6328 357.938 58.6328C359.195 58.6328 359.828 59.1953 359.828 60.2344V61L357.414 61.1484C355.453 61.2656 354.344 62.1328 354.344 63.6328V63.6484C354.344 65.1797 355.555 66.1484 357.156 66.1484ZM355.734 63.6172V63.6016C355.734 62.7656 356.297 62.3125 357.578 62.2344L359.828 62.0938V62.8594C359.828 64.0625 358.82 64.9688 357.438 64.9688C356.461 64.9688 355.734 64.4688 355.734 63.6172ZM363.672 66H365.031V60.7812C365.031 59.5938 365.867 58.6328 366.969 58.6328C368.031 58.6328 368.719 59.2812 368.719 60.2812V66H370.078V60.5859C370.078 59.5156 370.852 58.6328 372.023 58.6328C373.211 58.6328 373.781 59.25 373.781 60.4922V66H375.141V60.1797C375.141 58.4141 374.18 57.4297 372.461 57.4297C371.297 57.4297 370.336 58.0156 369.883 58.9062H369.758C369.367 58.0312 368.57 57.4297 367.43 57.4297C366.328 57.4297 365.531 57.9531 365.156 58.8594H365.031V57.5781H363.672V66ZM381.031 66.1484C383.016 66.1484 384.219 65.0234 384.508 63.8828L384.523 63.8203H383.164L383.133 63.8906C382.906 64.3984 382.203 64.9375 381.062 64.9375C379.562 64.9375 378.602 63.9219 378.562 62.1797H384.625V61.6484C384.625 59.1328 383.234 57.4297 380.945 57.4297C378.656 57.4297 377.172 59.2109 377.172 61.8125V61.8203C377.172 64.4609 378.625 66.1484 381.031 66.1484ZM380.938 58.6406C382.18 58.6406 383.102 59.4297 383.242 61.0938H378.586C378.734 59.4922 379.688 58.6406 380.938 58.6406ZM386.391 68.8672H387.398L388.625 64.4219H387.07L386.391 68.8672ZM172.453 85.1484C174.586 85.1484 175.984 83.4219 175.984 80.7969V80.7812C175.984 78.1406 174.594 76.4297 172.453 76.4297C171.297 76.4297 170.289 77.0078 169.828 77.9062H169.703V73.2344H168.344V85H169.703V83.6562H169.828C170.344 84.5938 171.281 85.1484 172.453 85.1484ZM172.141 83.9453C170.609 83.9453 169.672 82.7422 169.672 80.7969V80.7812C169.672 78.8359 170.609 77.6328 172.141 77.6328C173.68 77.6328 174.594 78.8203 174.594 80.7812V80.7969C174.594 82.7578 173.68 83.9453 172.141 83.9453ZM180.914 85.1484C182.148 85.1484 183 84.6406 183.414 83.7422H183.539V85H184.898V76.5781H183.539V81.5625C183.539 83.0391 182.75 83.9453 181.266 83.9453C179.922 83.9453 179.375 83.2188 179.375 81.7031V76.5781H178.016V82.0312C178.016 84.0234 179 85.1484 180.914 85.1484ZM190.43 85.0625C190.695 85.0625 190.953 85.0312 191.219 84.9844V83.8281C190.969 83.8516 190.836 83.8594 190.594 83.8594C189.719 83.8594 189.375 83.4609 189.375 82.4688V77.7031H191.219V76.5781H189.375V74.3984H187.969V76.5781H186.641V77.7031H187.969V82.8125C187.969 84.4219 188.695 85.0625 190.43 85.0625ZM200.656 85.1484C202.57 85.1484 204.031 84.1094 204.031 82.6094V82.5938C204.031 81.3906 203.266 80.7031 201.68 80.3203L200.383 80.0078C199.391 79.7656 198.969 79.4062 198.969 78.8359V78.8203C198.969 78.0781 199.703 77.5625 200.703 77.5625C201.719 77.5625 202.375 78.0234 202.555 78.6875H203.891C203.703 77.3125 202.477 76.4297 200.711 76.4297C198.922 76.4297 197.578 77.4844 197.578 78.8828V78.8906C197.578 80.1016 198.289 80.7891 199.867 81.1641L201.172 81.4766C202.211 81.7266 202.641 82.125 202.641 82.6953V82.7109C202.641 83.4766 201.836 84.0156 200.703 84.0156C199.625 84.0156 198.953 83.5547 198.727 82.8516H197.336C197.492 84.2422 198.781 85.1484 200.656 85.1484ZM208.453 85.1484C209.586 85.1484 210.469 84.6562 211 83.7578H211.125V85H212.484V79.2344C212.484 77.4844 211.336 76.4297 209.281 76.4297C207.484 76.4297 206.203 77.3203 205.984 78.6406L205.977 78.6875H207.336L207.344 78.6641C207.562 78.0078 208.227 77.6328 209.234 77.6328C210.492 77.6328 211.125 78.1953 211.125 79.2344V80L208.711 80.1484C206.75 80.2656 205.641 81.1328 205.641 82.6328V82.6484C205.641 84.1797 206.852 85.1484 208.453 85.1484ZM207.031 82.6172V82.6016C207.031 81.7656 207.594 81.3125 208.875 81.2344L211.125 81.0938V81.8594C211.125 83.0625 210.117 83.9688 208.734 83.9688C207.758 83.9688 207.031 83.4688 207.031 82.6172ZM214.969 85H216.328V79.7812C216.328 78.5938 217.164 77.6328 218.266 77.6328C219.328 77.6328 220.016 78.2812 220.016 79.2812V85H221.375V79.5859C221.375 78.5156 222.148 77.6328 223.32 77.6328C224.508 77.6328 225.078 78.25 225.078 79.4922V85H226.438V79.1797C226.438 77.4141 225.477 76.4297 223.758 76.4297C222.594 76.4297 221.633 77.0156 221.18 77.9062H221.055C220.664 77.0312 219.867 76.4297 218.727 76.4297C217.625 76.4297 216.828 76.9531 216.453 77.8594H216.328V76.5781H214.969V85ZM228.891 87.8125H230.25V83.6719H230.375C230.836 84.5703 231.844 85.1484 233 85.1484C235.141 85.1484 236.531 83.4375 236.531 80.7969V80.7812C236.531 78.1562 235.133 76.4297 233 76.4297C231.828 76.4297 230.891 76.9844 230.375 77.9219H230.25V76.5781H228.891V87.8125ZM232.688 83.9453C231.156 83.9453 230.219 82.7422 230.219 80.7969V80.7812C230.219 78.8359 231.156 77.6328 232.688 77.6328C234.227 77.6328 235.141 78.8203 235.141 80.7812V80.7969C235.141 82.7578 234.227 83.9453 232.688 83.9453ZM238.734 85H240.094V73.2344H238.734V85ZM243.422 74.9531C243.938 74.9531 244.359 74.5312 244.359 74.0156C244.359 73.5 243.938 73.0781 243.422 73.0781C242.906 73.0781 242.484 73.5 242.484 74.0156C242.484 74.5312 242.906 74.9531 243.422 74.9531ZM242.734 85H244.094V76.5781H242.734V85ZM246.656 85H248.016V80.0156C248.016 78.5391 248.867 77.6328 250.211 77.6328C251.555 77.6328 252.18 78.3594 252.18 79.875V85H253.539V79.5469C253.539 77.5469 252.484 76.4297 250.594 76.4297C249.352 76.4297 248.562 76.9531 248.141 77.8438H248.016V76.5781H246.656V85ZM259.469 87.9688C261.766 87.9688 263.219 86.7656 263.219 84.8828V76.5781H261.859V77.9688H261.766C261.25 77.0156 260.328 76.4297 259.141 76.4297C256.938 76.4297 255.578 78.1406 255.578 80.5V80.5156C255.578 82.875 256.93 84.5625 259.109 84.5625C260.266 84.5625 261.219 84.0391 261.75 83.1094H261.875V84.8125C261.875 86.0547 260.977 86.7656 259.469 86.7656C258.258 86.7656 257.508 86.3125 257.359 85.6719L257.352 85.6641H255.945L255.93 85.6719C256.141 87.0547 257.438 87.9688 259.469 87.9688ZM259.406 83.3594C257.844 83.3594 256.969 82.1875 256.969 80.5156V80.5C256.969 78.8281 257.844 77.6328 259.406 77.6328C260.961 77.6328 261.906 78.8281 261.906 80.5V80.5156C261.906 82.1875 260.969 83.3594 259.406 83.3594ZM270.828 85H272.188V77.7031H274.102V76.5781H272.188V75.6797C272.188 74.7578 272.578 74.2812 273.547 74.2812C273.789 74.2812 274.016 74.2891 274.18 74.3203V73.2344C273.898 73.1797 273.602 73.1562 273.273 73.1562C271.672 73.1562 270.828 73.9609 270.828 75.6406V76.5781H269.43V77.7031H270.828V85ZM276.062 85H277.422V79.7812C277.422 78.5469 278.344 77.7266 279.641 77.7266C279.938 77.7266 280.195 77.7578 280.477 77.8047V76.4844C280.344 76.4609 280.055 76.4297 279.797 76.4297C278.656 76.4297 277.867 76.9453 277.547 77.8281H277.422V76.5781H276.062V85ZM284.469 85.1484C285.602 85.1484 286.484 84.6562 287.016 83.7578H287.141V85H288.5V79.2344C288.5 77.4844 287.352 76.4297 285.297 76.4297C283.5 76.4297 282.219 77.3203 282 78.6406L281.992 78.6875H283.352L283.359 78.6641C283.578 78.0078 284.242 77.6328 285.25 77.6328C286.508 77.6328 287.141 78.1953 287.141 79.2344V80L284.727 80.1484C282.766 80.2656 281.656 81.1328 281.656 82.6328V82.6484C281.656 84.1797 282.867 85.1484 284.469 85.1484ZM283.047 82.6172V82.6016C283.047 81.7656 283.609 81.3125 284.891 81.2344L287.141 81.0938V81.8594C287.141 83.0625 286.133 83.9688 284.75 83.9688C283.773 83.9688 283.047 83.4688 283.047 82.6172ZM290.984 85H292.344V79.7812C292.344 78.5938 293.18 77.6328 294.281 77.6328C295.344 77.6328 296.031 78.2812 296.031 79.2812V85H297.391V79.5859C297.391 78.5156 298.164 77.6328 299.336 77.6328C300.523 77.6328 301.094 78.25 301.094 79.4922V85H302.453V79.1797C302.453 77.4141 301.492 76.4297 299.773 76.4297C298.609 76.4297 297.648 77.0156 297.195 77.9062H297.07C296.68 77.0312 295.883 76.4297 294.742 76.4297C293.641 76.4297 292.844 76.9531 292.469 77.8594H292.344V76.5781H290.984V85ZM308.344 85.1484C310.328 85.1484 311.531 84.0234 311.82 82.8828L311.836 82.8203H310.477L310.445 82.8906C310.219 83.3984 309.516 83.9375 308.375 83.9375C306.875 83.9375 305.914 82.9219 305.875 81.1797H311.938V80.6484C311.938 78.1328 310.547 76.4297 308.258 76.4297C305.969 76.4297 304.484 78.2109 304.484 80.8125V80.8203C304.484 83.4609 305.938 85.1484 308.344 85.1484ZM308.25 77.6406C309.492 77.6406 310.414 78.4297 310.555 80.0938H305.898C306.047 78.4922 307 77.6406 308.25 77.6406ZM321.672 85.1484C322.844 85.1484 323.781 84.5938 324.297 83.6562H324.422V85H325.781V73.2344H324.422V77.9062H324.297C323.836 77.0078 322.828 76.4297 321.672 76.4297C319.531 76.4297 318.141 78.1406 318.141 80.7812V80.7969C318.141 83.4219 319.539 85.1484 321.672 85.1484ZM321.984 83.9453C320.445 83.9453 319.531 82.7578 319.531 80.7969V80.7812C319.531 78.8203 320.445 77.6328 321.984 77.6328C323.516 77.6328 324.453 78.8359 324.453 80.7812V80.7969C324.453 82.7422 323.516 83.9453 321.984 83.9453ZM331.852 85.1484C334.25 85.1484 335.734 83.4922 335.734 80.7969V80.7812C335.734 78.0781 334.25 76.4297 331.852 76.4297C329.453 76.4297 327.969 78.0781 327.969 80.7812V80.7969C327.969 83.4922 329.453 85.1484 331.852 85.1484ZM331.852 83.9453C330.258 83.9453 329.359 82.7812 329.359 80.7969V80.7812C329.359 78.7891 330.258 77.6328 331.852 77.6328C333.445 77.6328 334.344 78.7891 334.344 80.7812V80.7969C334.344 82.7812 333.445 83.9453 331.852 83.9453ZM341.281 85.1484C343.266 85.1484 344.469 84.0234 344.758 82.8828L344.773 82.8203H343.414L343.383 82.8906C343.156 83.3984 342.453 83.9375 341.312 83.9375C339.812 83.9375 338.852 82.9219 338.812 81.1797H344.875V80.6484C344.875 78.1328 343.484 76.4297 341.195 76.4297C338.906 76.4297 337.422 78.2109 337.422 80.8125V80.8203C337.422 83.4609 338.875 85.1484 341.281 85.1484ZM341.188 77.6406C342.43 77.6406 343.352 78.4297 343.492 80.0938H338.836C338.984 78.4922 339.938 77.6406 341.188 77.6406ZM349.875 85.1484C351.789 85.1484 353.25 84.1094 353.25 82.6094V82.5938C353.25 81.3906 352.484 80.7031 350.898 80.3203L349.602 80.0078C348.609 79.7656 348.188 79.4062 348.188 78.8359V78.8203C348.188 78.0781 348.922 77.5625 349.922 77.5625C350.938 77.5625 351.594 78.0234 351.773 78.6875H353.109C352.922 77.3125 351.695 76.4297 349.93 76.4297C348.141 76.4297 346.797 77.4844 346.797 78.8828V78.8906C346.797 80.1016 347.508 80.7891 349.086 81.1641L350.391 81.4766C351.43 81.7266 351.859 82.125 351.859 82.6953V82.7109C351.859 83.4766 351.055 84.0156 349.922 84.0156C348.844 84.0156 348.172 83.5547 347.945 82.8516H346.555C346.711 84.2422 348 85.1484 349.875 85.1484ZM359.875 85H361.234V80.0156C361.234 78.5391 362.086 77.6328 363.43 77.6328C364.773 77.6328 365.398 78.3594 365.398 79.875V85H366.758V79.5469C366.758 77.5469 365.703 76.4297 363.812 76.4297C362.57 76.4297 361.781 76.9531 361.359 77.8438H361.234V76.5781H359.875V85ZM372.68 85.1484C375.078 85.1484 376.562 83.4922 376.562 80.7969V80.7812C376.562 78.0781 375.078 76.4297 372.68 76.4297C370.281 76.4297 368.797 78.0781 368.797 80.7812V80.7969C368.797 83.4922 370.281 85.1484 372.68 85.1484ZM372.68 83.9453C371.086 83.9453 370.188 82.7812 370.188 80.7969V80.7812C370.188 78.7891 371.086 77.6328 372.68 77.6328C374.273 77.6328 375.172 78.7891 375.172 80.7812V80.7969C375.172 82.7812 374.273 83.9453 372.68 83.9453ZM381.664 85.0625C381.93 85.0625 382.188 85.0312 382.453 84.9844V83.8281C382.203 83.8516 382.07 83.8594 381.828 83.8594C380.953 83.8594 380.609 83.4609 380.609 82.4688V77.7031H382.453V76.5781H380.609V74.3984H379.203V76.5781H377.875V77.7031H379.203V82.8125C379.203 84.4219 379.93 85.0625 381.664 85.0625ZM171.711 104.148C173.734 104.148 174.867 103.062 175.211 101.539L175.227 101.453L173.883 101.461L173.867 101.508C173.555 102.445 172.836 102.945 171.703 102.945C170.203 102.945 169.234 101.703 169.234 99.7656V99.75C169.234 97.8516 170.188 96.6328 171.703 96.6328C172.914 96.6328 173.664 97.3047 173.875 98.1328L173.883 98.1562H175.234L175.227 98.1094C174.977 96.6094 173.75 95.4297 171.703 95.4297C169.344 95.4297 167.844 97.1328 167.844 99.75V99.7656C167.844 102.438 169.352 104.148 171.711 104.148ZM180.68 104.148C183.078 104.148 184.562 102.492 184.562 99.7969V99.7812C184.562 97.0781 183.078 95.4297 180.68 95.4297C178.281 95.4297 176.797 97.0781 176.797 99.7812V99.7969C176.797 102.492 178.281 104.148 180.68 104.148ZM180.68 102.945C179.086 102.945 178.188 101.781 178.188 99.7969V99.7812C178.188 97.7891 179.086 96.6328 180.68 96.6328C182.273 96.6328 183.172 97.7891 183.172 99.7812V99.7969C183.172 101.781 182.273 102.945 180.68 102.945ZM188.742 104H190.117L193.234 95.5781H191.797L189.492 102.516H189.367L187.062 95.5781H185.625L188.742 104ZM198.156 104.148C200.141 104.148 201.344 103.023 201.633 101.883L201.648 101.82H200.289L200.258 101.891C200.031 102.398 199.328 102.938 198.188 102.938C196.688 102.938 195.727 101.922 195.688 100.18H201.75V99.6484C201.75 97.1328 200.359 95.4297 198.07 95.4297C195.781 95.4297 194.297 97.2109 194.297 99.8125V99.8203C194.297 102.461 195.75 104.148 198.156 104.148ZM198.062 96.6406C199.305 96.6406 200.227 97.4297 200.367 99.0938H195.711C195.859 97.4922 196.812 96.6406 198.062 96.6406ZM203.859 104H205.219V98.7812C205.219 97.5469 206.141 96.7266 207.438 96.7266C207.734 96.7266 207.992 96.7578 208.273 96.8047V95.4844C208.141 95.4609 207.852 95.4297 207.594 95.4297C206.453 95.4297 205.664 95.9453 205.344 96.8281H205.219V95.5781H203.859V104ZM214.469 106.812H215.828V102.672H215.953C216.414 103.57 217.422 104.148 218.578 104.148C220.719 104.148 222.109 102.438 222.109 99.7969V99.7812C222.109 97.1562 220.711 95.4297 218.578 95.4297C217.406 95.4297 216.469 95.9844 215.953 96.9219H215.828V95.5781H214.469V106.812ZM218.266 102.945C216.734 102.945 215.797 101.742 215.797 99.7969V99.7812C215.797 97.8359 216.734 96.6328 218.266 96.6328C219.805 96.6328 220.719 97.8203 220.719 99.7812V99.7969C220.719 101.758 219.805 102.945 218.266 102.945ZM227.695 104.148C230.094 104.148 231.578 102.492 231.578 99.7969V99.7812C231.578 97.0781 230.094 95.4297 227.695 95.4297C225.297 95.4297 223.812 97.0781 223.812 99.7812V99.7969C223.812 102.492 225.297 104.148 227.695 104.148ZM227.695 102.945C226.102 102.945 225.203 101.781 225.203 99.7969V99.7812C225.203 97.7891 226.102 96.6328 227.695 96.6328C229.289 96.6328 230.188 97.7891 230.188 99.7812V99.7969C230.188 101.781 229.289 102.945 227.695 102.945ZM233.688 106.812H235.047V102.672H235.172C235.633 103.57 236.641 104.148 237.797 104.148C239.938 104.148 241.328 102.438 241.328 99.7969V99.7812C241.328 97.1562 239.93 95.4297 237.797 95.4297C236.625 95.4297 235.688 95.9844 235.172 96.9219H235.047V95.5781H233.688V106.812ZM237.484 102.945C235.953 102.945 235.016 101.742 235.016 99.7969V99.7812C235.016 97.8359 235.953 96.6328 237.484 96.6328C239.023 96.6328 239.938 97.8203 239.938 99.7812V99.7969C239.938 101.758 239.023 102.945 237.484 102.945ZM246.273 104.148C247.508 104.148 248.359 103.641 248.773 102.742H248.898V104H250.258V95.5781H248.898V100.562C248.898 102.039 248.109 102.945 246.625 102.945C245.281 102.945 244.734 102.219 244.734 100.703V95.5781H243.375V101.031C243.375 103.023 244.359 104.148 246.273 104.148ZM252.875 104H254.234V92.2344H252.875V104ZM259.156 104.148C260.289 104.148 261.172 103.656 261.703 102.758H261.828V104H263.188V98.2344C263.188 96.4844 262.039 95.4297 259.984 95.4297C258.188 95.4297 256.906 96.3203 256.688 97.6406L256.68 97.6875H258.039L258.047 97.6641C258.266 97.0078 258.93 96.6328 259.938 96.6328C261.195 96.6328 261.828 97.1953 261.828 98.2344V99L259.414 99.1484C257.453 99.2656 256.344 100.133 256.344 101.633V101.648C256.344 103.18 257.555 104.148 259.156 104.148ZM257.734 101.617V101.602C257.734 100.766 258.297 100.312 259.578 100.234L261.828 100.094V100.859C261.828 102.062 260.82 102.969 259.438 102.969C258.461 102.969 257.734 102.469 257.734 101.617ZM268.664 104.062C268.93 104.062 269.188 104.031 269.453 103.984V102.828C269.203 102.852 269.07 102.859 268.828 102.859C267.953 102.859 267.609 102.461 267.609 101.469V96.7031H269.453V95.5781H267.609V93.3984H266.203V95.5781H264.875V96.7031H266.203V101.812C266.203 103.422 266.93 104.062 268.664 104.062ZM272.203 93.9531C272.719 93.9531 273.141 93.5312 273.141 93.0156C273.141 92.5 272.719 92.0781 272.203 92.0781C271.688 92.0781 271.266 92.5 271.266 93.0156C271.266 93.5312 271.688 93.9531 272.203 93.9531ZM271.516 104H272.875V95.5781H271.516V104ZM278.898 104.148C281.297 104.148 282.781 102.492 282.781 99.7969V99.7812C282.781 97.0781 281.297 95.4297 278.898 95.4297C276.5 95.4297 275.016 97.0781 275.016 99.7812V99.7969C275.016 102.492 276.5 104.148 278.898 104.148ZM278.898 102.945C277.305 102.945 276.406 101.781 276.406 99.7969V99.7812C276.406 97.7891 277.305 96.6328 278.898 96.6328C280.492 96.6328 281.391 97.7891 281.391 99.7812V99.7969C281.391 101.781 280.492 102.945 278.898 102.945ZM284.891 104H286.25V99.0156C286.25 97.5391 287.102 96.6328 288.445 96.6328C289.789 96.6328 290.414 97.3594 290.414 98.875V104H291.773V98.5469C291.773 96.5469 290.719 95.4297 288.828 95.4297C287.586 95.4297 286.797 95.9531 286.375 96.8438H286.25V95.5781H284.891V104Z" fill="black"/>
</svg>
