<svg class="main-svg" xmlns="http://www.w3.org/2000/svg" xmlns:xlink="http://www.w3.org/1999/xlink" width="550" height="300" style="" viewBox="0 0 550 300"><rect x="0" y="0" width="550" height="300" style="fill: rgb(255, 255, 255); fill-opacity: 1;"/><defs id="defs-52a52d"><g class="clips"><clipPath id="clip52a52dxyplot" class="plotclip"><rect width="483" height="231"/></clipPath><clipPath class="axesclip" id="clip52a52dx"><rect x="57" y="0" width="483" height="300"/></clipPath><clipPath class="axesclip" id="clip52a52dy"><rect x="0" y="10" width="550" height="231"/></clipPath><clipPath class="axesclip" id="clip52a52dxy"><rect x="57" y="10" width="483" height="231"/></clipPath></g><g class="gradients"/><g class="patterns"/></defs><g class="bglayer"/><g class="layer-below"><g class="imagelayer"/><g class="shapelayer"/></g><g class="cartesianlayer"><g class="subplot xy"><g class="layer-subplot"><g class="shapelayer"/><g class="imagelayer"/></g><g class="gridlayer"><g class="x"><path class="xgrid crisp" transform="translate(162.1,0)" d="M0,10v231" style="stroke: rgb(232, 232, 232); stroke-opacity: 1; stroke-width: 1px;"/><path class="xgrid crisp" transform="translate(273.9,0)" d="M0,10v231" style="stroke: rgb(232, 232, 232); stroke-opacity: 1; stroke-width: 1px;"/><path class="xgrid crisp" transform="translate(385.71,0)" d="M0,10v231" style="stroke: rgb(232, 232, 232); stroke-opacity: 1; stroke-width: 1px;"/><path class="xgrid crisp" transform="translate(497.51,0)" d="M0,10v231" style="stroke: rgb(232, 232, 232); stroke-opacity: 1; stroke-width: 1px;"/></g><g class="y"><path class="ygrid crisp" transform="translate(0,199.52)" d="M57,0h483" style="stroke: rgb(232, 232, 232); stroke-opacity: 1; stroke-width: 1px;"/><path class="ygrid crisp" transform="translate(0,157.91)" d="M57,0h483" style="stroke: rgb(232, 232, 232); stroke-opacity: 1; stroke-width: 1px;"/><path class="ygrid crisp" transform="translate(0,116.31)" d="M57,0h483" style="stroke: rgb(232, 232, 232); stroke-opacity: 1; stroke-width: 1px;"/><path class="ygrid crisp" transform="translate(0,74.7)" d="M57,0h483" style="stroke: rgb(232, 232, 232); stroke-opacity: 1; stroke-width: 1px;"/><path class="ygrid crisp" transform="translate(0,33.1)" d="M57,0h483" style="stroke: rgb(232, 232, 232); stroke-opacity: 1; stroke-width: 1px;"/></g></g><g class="zerolinelayer"/><path class="xlines-below"/><path class="ylines-below"/><g class="overlines-below"/><g class="xaxislayer-below"/><g class="yaxislayer-below"/><g class="overaxes-below"/><g class="plot" transform="translate(57,10)" clip-path="url(#clip52a52dxyplot)"><g class="scatterlayer mlayer"><g class="trace scatter trace1f4a43" style="stroke-miterlimit: 2; opacity: 1;"><g class="fills"/><g class="errorbars"/><g class="lines"><path class="js-line" d="M0,204.54L2.24,204.97L4.47,203.58L6.71,204.58L8.94,204.04L11.18,200.31L13.42,191.29L15.65,179.16L17.89,161.21L22.36,142.63L24.6,128.65L29.07,105.54L31.31,83.17L33.54,95.22L35.78,112.09L40.25,156.5L42.49,175.89L44.72,177.87L46.96,185.57L49.19,188.85L51.43,188.37L53.67,185.38L55.9,186L58.14,191.27L60.38,192.43L62.61,192.41L64.85,191.39L69.32,189.52L71.56,190.18L76.03,193.82L78.26,197.44L80.5,199.69L82.74,203.04L87.21,207.76L89.44,208.03L91.68,207.22L93.92,208.49L102.86,211.05L105.1,213.27L109.57,214.77L111.81,215.21L125.22,215.44L127.46,214.4L131.93,211.9L134.17,209.7L138.64,203.77L140.88,203.35L143.11,201.38L145.35,201.56L147.58,198.55L149.82,197.92L156.53,192.35L158.76,196.57L161,190.35L163.24,190.7L165.47,187.17L167.71,178.87L169.94,170.44L172.18,169.17L174.42,174.41L176.65,166.86L178.89,157.19L181.13,156.21L183.36,152.41L185.6,146.31L194.54,187.94L196.78,194.18L203.49,205.58L205.72,207.7L210.19,210.05L212.43,211.05L219.14,213.25L221.38,214.25L228.08,217.58L230.32,217.83L239.26,218.7L241.5,218.31L243.74,217.93L245.97,216.21L250.44,211.34L252.68,207.68L257.15,199.48L259.39,198.11L261.63,197.01L263.86,197.67L266.1,197.05L268.33,193.93L270.57,193.74L272.81,192.01L275.04,193.99L277.28,188.83L279.51,189.91L281.75,187.56L286.22,174.1L288.46,171.63L290.69,179.12L292.93,180.97L297.4,178.97L299.64,182.28L304.11,174.75L306.35,178.72L308.58,177.33L310.82,177.95L313.06,186.15L315.29,190.85L317.53,193.66L319.76,193.7L322,193.99L324.24,195.16L326.47,197.32L328.71,196.78L330.94,197.34L333.18,199.15L337.65,203.48L339.89,204.81L344.36,211.03L346.6,212.17L348.83,211.59L351.07,212.46L355.54,213.05L357.78,212.63L364.49,206.18L366.72,202.54L375.67,189.14L377.9,182.76L380.14,181.38L382.38,181.84L384.61,182.26L386.85,179.28L389.08,170.52L391.32,167.88L395.79,139.03L398.03,124.36L402.5,66.7L404.74,51.84L406.97,20.77L409.21,11.55L411.44,35.41L413.68,81.16L415.92,115.86L418.15,136.37L420.39,142.92L422.63,152.41L431.57,175.52L433.81,179.49L438.28,194.78L440.51,196.15L447.22,204.37L449.46,206.89L451.69,207.22L453.93,209.01L462.88,211.88L465.11,211.55L467.35,212.26L469.58,211.24L478.53,208.57L480.76,207.28L483,206.58" style="vector-effect: non-scaling-stroke; fill: none; stroke: rgb(31, 119, 180); stroke-opacity: 1; stroke-width: 2px; opacity: 1;"/></g><g class="points"/><g class="text"/></g><g class="trace scatter trace6d84e0" style="stroke-miterlimit: 2; opacity: 1;"><g class="fills"/><g class="errorbars"/><g class="lines"><path class="js-line" d="M0,206.75L2.24,208.07L4.47,207.6L6.71,212.32L8.94,208.34L11.18,208.42L13.42,205.17L17.89,173.28L20.13,152.69L22.36,148.23L24.6,150.83L26.83,155.97L29.07,135.54L31.31,98.07L33.54,75.86L35.78,73.46L38.01,93.25L40.25,118.8L42.49,163.12L44.72,177.17L46.96,166.55L49.19,187.59L51.43,183.82L53.67,201.46L55.9,188.6L58.14,169.86L60.38,183.36L62.61,176.06L64.85,179.9L67.08,178.91L69.32,187.61L71.56,201.91L73.79,196.14L76.03,189.12L78.26,196.92L80.5,195.53L82.74,203.31L84.97,205.98L87.21,201.06L89.44,212.92L91.68,201.86L93.92,206.21L96.15,213.96L98.39,210.25L100.63,204.08L102.86,210.62L105.1,212.7L107.33,205.85L109.57,215.57L114.04,210.43L116.28,214.98L118.51,212.22L120.75,214.55L122.99,214.77L125.22,213.36L127.46,212.95L129.69,209.06L131.93,204.5L134.17,212.06L140.88,204.16L143.11,194.82L145.35,200.21L147.58,201.71L149.82,196.63L152.06,202.33L154.29,204.79L156.53,191.67L158.76,191.2L161,189.76L163.24,178.78L165.47,187.15L167.71,183.75L169.94,189.84L172.18,172.41L174.42,161.03L176.65,171.83L178.89,153.02L181.13,144.41L183.36,131.06L185.6,141.72L187.83,161.46L190.07,146.92L192.31,163.54L194.54,185.23L196.78,186.56L201.25,202.54L203.49,200.41L205.72,205.61L207.96,201.41L210.19,202.75L212.43,214.52L216.9,206.14L219.14,209.89L221.38,213.8L223.61,207.05L225.85,214.24L228.08,215.51L230.32,214.47L232.56,215.11L234.79,214.81L237.03,219.31L241.5,217.12L243.74,219.45L245.97,211.81L248.21,209.19L250.44,209.74L252.68,211.7L254.92,208.86L257.15,202.96L259.39,199.2L261.63,200.89L263.86,199.41L266.1,199.9L268.33,200.8L270.57,203.08L272.81,193.42L275.04,195.49L277.28,193.98L279.51,187.48L281.75,194.73L283.99,189.13L286.22,204.03L288.46,203.44L290.69,177.87L292.93,178.31L295.17,183.87L297.4,182.99L299.64,183.44L301.88,190.12L304.11,200.92L306.35,187.72L308.58,183.97L310.82,190.07L313.06,192.46L315.29,185.82L317.53,200.55L319.76,198.74L322,202.18L324.24,199.28L326.47,203.69L328.71,211.27L330.94,202.83L333.18,203.49L337.65,210.27L339.89,206.87L342.13,211.71L344.36,210.83L346.6,208.67L348.83,209.94L351.07,210.51L353.31,213.04L355.54,214.25L357.78,211.92L360.01,209.23L362.25,210.23L364.49,209.05L366.72,201.98L368.96,206.91L371.19,203.57L375.67,198.07L377.9,197.63L380.14,201.63L382.38,196.73L384.61,201.24L386.85,201.3L391.32,188.4L393.56,188.32L395.79,169.02L398.03,178.77L400.26,157.69L402.5,163.28L404.74,148.04L406.97,86.1L409.21,141.93L411.44,145.45L413.68,135.24L415.92,149.59L420.39,187.22L422.63,181.79L427.1,189.44L429.33,186.15L433.81,197.53L436.04,198.59L438.28,204.05L440.51,203.01L442.75,205.46L444.99,211.74L447.22,211.82L449.46,207.94L451.69,208.08L453.93,214.47L456.17,211.34L458.4,213.65L460.64,213.67L462.88,212.39L465.11,215.82L467.35,214.85L469.58,217.38L471.82,215.86L476.29,215.28L478.53,210.98L480.76,208.01L483,210.07" style="vector-effect: non-scaling-stroke; fill: none; stroke: rgb(0, 128, 0); stroke-opacity: 1; stroke-width: 2px; opacity: 1; stroke-dasharray: 9px, 9px;"/></g><g class="points"/><g class="text"/></g><g class="trace scatter trace951508" style="stroke-miterlimit: 2; opacity: 1;"><g class="fills"/><g class="errorbars"/><g class="lines"><path class="js-line" d="M0,205.38L2.24,205.54L4.47,204.44L6.71,208.02L8.94,207.63L11.18,204.04L13.42,194.64L17.89,160.92L20.13,144.22L22.36,139.35L24.6,128.71L26.83,128.68L29.07,114.82L31.31,77.47L33.54,80.2L35.78,103.72L38.01,118.7L40.25,134.02L42.49,161.88L44.72,170.6L46.96,173.14L49.19,188.73L51.43,180.05L53.67,182.14L55.9,181.65L58.14,180.16L60.38,186.96L62.61,184.02L64.85,186.52L67.08,184.38L69.32,188.13L71.56,193.32L73.79,191.72L76.03,190.66L78.26,196.58L84.97,205.42L87.21,206.4L89.44,210.17L91.68,203.93L93.92,206.41L96.15,210L98.39,210.1L100.63,207L102.86,209.59L105.1,213.57L107.33,212.24L109.57,213.72L114.04,212.32L116.28,213.76L118.51,213.73L120.75,214.84L127.46,213.97L129.69,210.9L131.93,207.99L134.17,211.64L138.64,207.23L140.88,207.53L143.11,202.76L145.35,203.19L147.58,203.53L149.82,198.67L154.29,198.36L156.53,190.65L158.76,196.25L161,193.73L163.24,189.22L165.47,190.6L167.71,175.31L169.94,169.31L172.18,167.29L174.42,168.19L176.65,164.88L178.89,146.55L181.13,146.99L183.36,139.63L185.6,135.17L187.83,152.46L192.31,169.07L194.54,181.46L196.78,188L199.01,192.08L203.49,202.73L205.72,205.91L207.96,204.6L210.19,204.9L212.43,209.2L214.67,210.16L216.9,208.26L219.14,209.8L221.38,213.26L223.61,212.32L228.08,215.61L230.32,215.89L234.79,216.37L237.03,218.68L239.26,219.09L241.5,218.48L243.74,219.37L245.97,215.08L248.21,211.44L250.44,211.88L252.68,210.73L254.92,207.26L257.15,202.99L259.39,202.07L261.63,202.18L263.86,204.08L266.1,202.42L268.33,196.86L270.57,197.75L272.81,192.83L275.04,195.6L277.28,194.87L279.51,194.91L281.75,196.43L283.99,183.64L286.22,182.74L288.46,187.03L290.69,185.52L292.93,188.03L295.17,185.96L297.4,185.69L299.64,189.55L301.88,191.24L304.11,186.5L308.58,182.51L310.82,182.25L313.06,194.5L315.29,195.43L317.53,197.6L319.76,196.34L324.24,198L326.47,202.02L328.71,203.87L330.94,201.55L333.18,202.45L335.42,205.86L337.65,209.66L339.89,208.51L344.36,213.62L346.6,212.14L348.83,209.59L351.07,210.2L353.31,212.77L355.54,213.46L357.78,211.98L360.01,209.24L362.25,207.38L364.49,206.5L366.72,203.72L368.96,203.51L375.67,197.12L377.9,191.62L382.38,196.88L384.61,197.98L386.85,194.99L389.08,181.81L393.56,176.89L395.79,156.38L398.03,151.83L400.26,127.1L402.5,108.3L404.74,105.57L406.97,67.73L409.21,103.08L411.44,171.51L413.68,207.23L415.92,199.9L418.15,182.75L420.39,178.89L422.63,173.06L424.86,184.01L427.1,186.64L429.33,188.97L431.57,193.05L433.81,195.7L436.04,201.49L438.28,209.42L440.51,205L442.75,204.06L444.99,210.14L447.22,212.4L449.46,210.31L451.69,207.99L453.93,213.43L456.17,212.55L458.4,212.84L462.88,212.91L465.11,215.12L467.35,214.55L469.58,216.49L471.82,214.46L474.06,215.34L476.29,215.32L478.53,211.77L480.76,209.59L483,211.91" style="vector-effect: non-scaling-stroke; fill: none; stroke: rgb(128, 0, 128); stroke-opacity: 1; stroke-width: 2px; opacity: 1; stroke-dasharray: 3px, 3px;"/></g><g class="points"/><g class="text"/></g></g></g><g class="overplot"/><path class="xlines-above crisp" d="M56,241.5H540" style="fill: none; stroke-width: 1px; stroke: rgb(36, 36, 36); stroke-opacity: 1;"/><path class="ylines-above crisp" d="M56.5,10V241" style="fill: none; stroke-width: 1px; stroke: rgb(36, 36, 36); stroke-opacity: 1;"/><g class="overlines-above"/><g class="xaxislayer-above"><path class="xtick ticks crisp" d="M0,242v5" transform="translate(162.1,0)" style="stroke: rgb(68, 68, 68); stroke-opacity: 1; stroke-width: 1px;"/><path class="xtick ticks crisp" d="M0,242v5" transform="translate(273.9,0)" style="stroke: rgb(68, 68, 68); stroke-opacity: 1; stroke-width: 1px;"/><path class="xtick ticks crisp" d="M0,242v5" transform="translate(385.71,0)" style="stroke: rgb(68, 68, 68); stroke-opacity: 1; stroke-width: 1px;"/><path class="xtick ticks crisp" d="M0,242v5" transform="translate(497.51,0)" style="stroke: rgb(68, 68, 68); stroke-opacity: 1; stroke-width: 1px;"/><g class="xtick"><text text-anchor="middle" x="0" y="261.4" transform="translate(162.1,0)" style="font-family: 'Open Sans', verdana, arial, sans-serif; font-size: 12px; fill: rgb(36, 36, 36); fill-opacity: 1; white-space: pre; opacity: 1;">350</text></g><g class="xtick"><text text-anchor="middle" x="0" y="261.4" style="font-family: 'Open Sans', verdana, arial, sans-serif; font-size: 12px; fill: rgb(36, 36, 36); fill-opacity: 1; white-space: pre; opacity: 1;" transform="translate(273.9,0)">400</text></g><g class="xtick"><text text-anchor="middle" x="0" y="261.4" style="font-family: 'Open Sans', verdana, arial, sans-serif; font-size: 12px; fill: rgb(36, 36, 36); fill-opacity: 1; white-space: pre; opacity: 1;" transform="translate(385.71,0)">450</text></g><g class="xtick"><text text-anchor="middle" x="0" y="261.4" style="font-family: 'Open Sans', verdana, arial, sans-serif; font-size: 12px; fill: rgb(36, 36, 36); fill-opacity: 1; white-space: pre; opacity: 1;" transform="translate(497.51,0)">500</text></g></g><g class="yaxislayer-above"><path class="ytick ticks crisp" d="M56,0h-5" transform="translate(0,199.52)" style="stroke: rgb(68, 68, 68); stroke-opacity: 1; stroke-width: 1px;"/><path class="ytick ticks crisp" d="M56,0h-5" transform="translate(0,157.91)" style="stroke: rgb(68, 68, 68); stroke-opacity: 1; stroke-width: 1px;"/><path class="ytick ticks crisp" d="M56,0h-5" transform="translate(0,116.31)" style="stroke: rgb(68, 68, 68); stroke-opacity: 1; stroke-width: 1px;"/><path class="ytick ticks crisp" d="M56,0h-5" transform="translate(0,74.7)" style="stroke: rgb(68, 68, 68); stroke-opacity: 1; stroke-width: 1px;"/><path class="ytick ticks crisp" d="M56,0h-5" transform="translate(0,33.1)" style="stroke: rgb(68, 68, 68); stroke-opacity: 1; stroke-width: 1px;"/><g class="ytick"><text text-anchor="end" x="48.6" y="4.199999999999999" transform="translate(0,199.52)" style="font-family: 'Open Sans', verdana, arial, sans-serif; font-size: 12px; fill: rgb(36, 36, 36); fill-opacity: 1; white-space: pre; opacity: 1;">2</text></g><g class="ytick"><text text-anchor="end" x="48.6" y="4.199999999999999" style="font-family: 'Open Sans', verdana, arial, sans-serif; font-size: 12px; fill: rgb(36, 36, 36); fill-opacity: 1; white-space: pre; opacity: 1;" transform="translate(0,157.91)">4</text></g><g class="ytick"><text text-anchor="end" x="48.6" y="4.199999999999999" style="font-family: 'Open Sans', verdana, arial, sans-serif; font-size: 12px; fill: rgb(36, 36, 36); fill-opacity: 1; white-space: pre; opacity: 1;" transform="translate(0,116.31)">6</text></g><g class="ytick"><text text-anchor="end" x="48.6" y="4.199999999999999" style="font-family: 'Open Sans', verdana, arial, sans-serif; font-size: 12px; fill: rgb(36, 36, 36); fill-opacity: 1; white-space: pre; opacity: 1;" transform="translate(0,74.7)">8</text></g><g class="ytick"><text text-anchor="end" x="48.6" y="4.199999999999999" style="font-family: 'Open Sans', verdana, arial, sans-serif; font-size: 12px; fill: rgb(36, 36, 36); fill-opacity: 1; white-space: pre; opacity: 1;" transform="translate(0,33.1)">10</text></g></g><g class="overaxes-above"/></g></g><g class="polarlayer"/><g class="smithlayer"/><g class="ternarylayer"/><g class="geolayer"/><g class="funnelarealayer"/><g class="pielayer"/><g class="iciclelayer"/><g class="treemaplayer"/><g class="sunburstlayer"/><g class="glimages"/><defs id="topdefs-52a52d"><g class="clips"/></defs><g class="layer-above"><g class="imagelayer"/><g class="shapelayer"/></g><g class="infolayer"><g class="g-gtitle"/><g class="g-xtitle"><text class="xtitle" x="298.5" y="289.70625" text-anchor="middle" style="font-family: 'Open Sans', verdana, arial, sans-serif; font-size: 14px; fill: rgb(36, 36, 36); opacity: 1; font-weight: normal; white-space: pre;">week</text></g><g class="g-ytitle" transform="translate(4.9248046875,0)"><text class="ytitle" transform="rotate(-90,10.075000000000003,125.5)" x="10.075000000000003" y="125.5" text-anchor="middle" style="font-family: 'Open Sans', verdana, arial, sans-serif; font-size: 14px; fill: rgb(36, 36, 36); opacity: 1; font-weight: normal; white-space: pre;">Percent Influenza</text></g></g></svg>