<svg class="main-svg" xmlns="http://www.w3.org/2000/svg" xmlns:xlink="http://www.w3.org/1999/xlink" width="400" height="250" style="" viewBox="0 0 400 250"><rect x="0" y="0" width="400" height="250" style="fill: rgb(255, 255, 255); fill-opacity: 1;"/><defs id="defs-db7305"><g class="clips"><clipPath id="clipdb7305xyplot" class="plotclip"><rect width="333" height="181"/></clipPath><clipPath class="axesclip" id="clipdb7305x"><rect x="57" y="0" width="333" height="250"/></clipPath><clipPath class="axesclip" id="clipdb7305y"><rect x="0" y="10" width="400" height="181"/></clipPath><clipPath class="axesclip" id="clipdb7305xy"><rect x="57" y="10" width="333" height="181"/></clipPath></g><g class="gradients"/><g class="patterns"/></defs><g class="bglayer"/><g class="layer-below"><g class="imagelayer"/><g class="shapelayer"/></g><g class="cartesianlayer"><g class="subplot xy"><g class="layer-subplot"><g class="shapelayer"/><g class="imagelayer"/></g><g class="gridlayer"><g class="x"><path class="xgrid crisp" transform="translate(129.45999999999998,0)" d="M0,10v181" style="stroke: rgb(232, 232, 232); stroke-opacity: 1; stroke-width: 1px;"/><path class="xgrid crisp" transform="translate(206.54,0)" d="M0,10v181" style="stroke: rgb(232, 232, 232); stroke-opacity: 1; stroke-width: 1px;"/><path class="xgrid crisp" transform="translate(283.63,0)" d="M0,10v181" style="stroke: rgb(232, 232, 232); stroke-opacity: 1; stroke-width: 1px;"/><path class="xgrid crisp" transform="translate(360.71,0)" d="M0,10v181" style="stroke: rgb(232, 232, 232); stroke-opacity: 1; stroke-width: 1px;"/></g><g class="y"><path class="ygrid crisp" transform="translate(0,109.6)" d="M57,0h333" style="stroke: rgb(232, 232, 232); stroke-opacity: 1; stroke-width: 1px;"/><path class="ygrid crisp" transform="translate(0,28.1)" d="M57,0h333" style="stroke: rgb(232, 232, 232); stroke-opacity: 1; stroke-width: 1px;"/></g></g><g class="zerolinelayer"/><path class="xlines-below"/><path class="ylines-below"/><g class="overlines-below"/><g class="xaxislayer-below"/><g class="yaxislayer-below"/><g class="overaxes-below"/><g class="plot" transform="translate(57,10)" clip-path="url(#clipdb7305xyplot)"><g class="scatterlayer mlayer"><g class="trace scatter tracefb9b13" style="stroke-miterlimit: 2; opacity: 1;"><g class="fills"/><g class="errorbars"/><g class="lines"><path class="js-line" d="M0,160.27L1.54,160.61L3.08,159.52L4.63,160.3L6.17,159.87L7.71,156.96L9.25,149.88L20.04,82.69L21.58,65.17L24.67,87.83L26.21,108.27L29.29,137.82L30.83,139.37L32.38,145.4L33.92,147.97L35.46,147.6L37,145.25L38.54,145.74L40.08,149.87L41.63,150.78L43.17,150.76L47.79,148.5L49.33,149.02L52.42,151.87L53.96,154.71L60.13,162.79L61.67,163L63.21,162.37L64.75,163.36L70.92,165.37L72.46,167.11L75.54,168.28L77.08,168.63L86.33,168.81L87.88,167.99L90.96,166.04L92.5,164.31L95.58,159.66L97.13,159.34L98.67,157.79L100.21,157.93L101.75,155.57L103.29,155.08L107.92,150.71L109.46,154.02L111,149.15L112.54,149.43L114.08,146.65L115.63,140.15L117.17,133.55L118.71,132.56L120.25,136.66L121.79,130.75L123.33,123.17L124.88,122.4L126.42,119.42L127.96,114.64L134.13,147.26L135.67,152.15L141.83,162.74L143.38,163.9L158.79,170.68L160.33,170.89L164.96,171.37L166.5,171.06L168.04,170.76L169.58,169.41L172.67,165.6L174.21,162.73L177.29,156.3L178.83,155.23L180.38,154.36L181.92,154.89L183.46,154.4L185,151.95L186.54,151.81L188.08,150.45L189.63,152L191.17,147.96L192.71,148.81L194.25,146.96L197.33,136.42L198.88,134.48L200.42,140.35L201.96,141.8L205.04,140.23L206.58,142.82L209.67,136.92L211.21,140.04L212.75,138.94L214.29,139.43L217.38,149.54L218.92,151.74L222,152L223.54,152.91L225.08,154.61L226.63,154.19L228.17,154.63L229.71,156.04L235.88,162.58L237.42,165.35L238.96,166.25L240.5,165.79L243.58,166.93L245.13,166.93L246.67,166.61L248.21,165.17L252.83,158.7L254.38,155.95L257.46,150.21L259,148.2L260.54,143.2L262.08,142.12L265.17,142.81L266.71,140.48L268.25,133.61L269.79,131.54L274.42,97.44L275.96,77.44L277.5,52.26L279.04,40.62L280.58,16.27L282.13,9.05L283.67,27.75L285.21,63.59L288.29,106.85L289.83,111.98L292.92,123.98L294.46,128.25L297.54,137.53L299.08,140.64L302.17,152.62L303.71,153.7L309.88,162.11L311.42,162.37L314.5,164.41L316.04,164.85L322.21,166.31L323.75,165.51L329.92,163.43L331.46,162.42L333,161.86" style="vector-effect: non-scaling-stroke; fill: none; stroke: rgb(31, 119, 180); stroke-opacity: 1; stroke-width: 2px; opacity: 1;"/></g><g class="points"/><g class="text"/></g><g class="trace scatter trace2ac4a7" style="stroke-miterlimit: 2; opacity: 1;"><g class="fills"/><g class="errorbars"/><g class="lines"><path class="js-line" d="M0,162L1.54,163.03L3.08,162.66L4.63,166.37L6.17,163.24L7.71,163.3L9.25,160.76L12.33,135.77L13.88,119.64L15.42,116.15L16.96,118.19L18.5,122.21L20.04,106.2L23.13,59.44L24.67,57.56L27.75,93.09L29.29,127.82L30.83,138.82L32.38,130.5L33.92,146.99L35.46,144.03L37,157.86L38.54,147.78L40.08,133.09L41.63,143.67L43.17,137.95L44.71,140.96L46.25,140.19L47.79,147L49.33,158.21L50.88,153.68L52.42,148.18L53.96,154.29L55.5,153.21L57.04,159.31L58.58,161.4L60.13,157.54L61.67,166.83L63.21,158.17L64.75,161.58L66.29,167.64L67.83,164.74L69.38,159.91L70.92,165.03L72.46,166.66L74,161.29L75.54,168.91L78.63,164.88L80.17,168.45L81.71,166.29L83.25,168.11L84.79,168.28L86.33,167.18L87.88,166.86L89.42,163.81L90.96,160.23L92.5,166.16L97.13,159.97L98.67,152.65L100.21,156.87L101.75,158.05L103.29,154.07L104.83,158.54L106.38,160.46L107.92,150.19L111,148.69L112.54,140.09L114.08,146.64L115.63,143.98L117.17,148.75L118.71,135.1L120.25,126.17L121.79,134.64L123.33,119.9L124.88,113.16L126.42,102.69L127.96,111.04L129.5,126.51L131.04,115.12L134.13,145.14L135.67,146.18L138.75,158.7L140.29,157.03L141.83,161.11L143.38,157.81L144.92,158.86L146.46,168.09L149.54,161.52L151.08,164.46L152.63,167.53L154.17,162.24L155.71,167.87L157.25,168.86L158.79,168.05L160.33,168.55L161.88,168.32L163.42,171.84L166.5,170.12L168.04,171.95L169.58,165.97L171.13,163.91L172.67,164.34L174.21,165.88L175.75,163.65L177.29,159.03L178.83,156.08L180.38,157.41L181.92,156.24L183.46,156.63L185,157.34L186.54,159.13L188.08,151.56L189.63,153.17L191.17,152L192.71,146.9L194.25,152.58L195.79,148.19L197.33,159.87L198.88,159.41L200.42,139.37L201.96,139.72L203.5,144.07L205.04,143.39L206.58,143.74L208.13,148.97L209.67,157.43L211.21,147.09L212.75,144.15L214.29,148.93L215.83,150.8L217.38,145.6L218.92,157.14L220.46,155.72L222,158.42L223.54,156.14L225.08,159.6L226.63,165.54L228.17,158.93L229.71,159.44L232.79,164.76L234.33,162.09L235.88,165.89L237.42,165.19L238.96,163.51L240.5,164.5L242.04,164.95L243.58,166.93L245.13,167.88L246.67,166.05L248.21,163.95L249.75,164.73L251.29,163.8L252.83,158.26L254.38,162.13L255.92,159.51L259,155.19L260.54,154.85L262.08,157.99L263.63,154.15L265.17,157.68L266.71,157.73L269.79,147.62L271.33,147.56L272.88,132.44L274.42,140.08L275.96,123.56L277.5,127.94L279.04,116L280.58,67.46L282.13,111.21L283.67,113.97L285.21,105.96L286.75,117.21L289.83,146.69L291.38,142.44L294.46,148.44L296,145.86L299.08,154.77L300.63,155.61L302.17,159.89L303.71,159.06L305.25,160.99L306.79,165.91L308.33,165.97L309.88,162.93L311.42,163.04L312.96,168.05L314.5,165.6L316.04,167.4L317.58,167.42L319.13,166.42L320.67,169.1L322.21,168.34L323.75,170.33L325.29,169.14L328.38,168.69L329.92,165.32L331.46,162.98L333,164.6" style="vector-effect: non-scaling-stroke; fill: none; stroke: rgb(0, 128, 0); stroke-opacity: 1; stroke-width: 2px; opacity: 1; stroke-dasharray: 9px, 9px;"/></g><g class="points"/><g class="text"/></g><g class="trace scatter tracecdb3e5" style="stroke-miterlimit: 2; opacity: 1;"><g class="fills"/><g class="errorbars"/><g class="lines"><path class="js-line" d="M0,160.92L1.54,161.05L3.08,160.19L4.63,162.99L6.17,162.69L7.71,159.88L9.25,152.51L13.88,113L15.42,109.19L16.96,100.85L18.5,100.83L20.04,89.97L21.58,60.7L23.13,62.84L24.67,81.27L27.75,105.01L29.29,126.84L30.83,133.67L32.38,135.66L33.92,147.88L35.46,141.08L37,142.72L38.54,142.33L40.08,141.16L41.63,146.49L43.17,144.19L44.71,146.15L46.25,144.47L47.79,147.41L49.33,151.47L50.88,150.23L52.42,149.4L53.96,154.03L58.58,160.96L60.13,161.73L61.67,164.68L63.21,159.79L66.29,164.54L67.83,164.62L69.38,162.19L70.92,164.23L72.46,167.35L74,166.3L75.54,167.46L77.08,166.76L78.63,166.36L80.17,167.49L81.71,167.47L83.25,168.34L87.88,167.66L89.42,165.25L90.96,162.97L92.5,165.83L95.58,162.38L97.13,162.61L98.67,158.88L100.21,159.21L101.75,159.47L103.29,155.67L106.38,155.43L107.92,149.39L109.46,153.77L111,151.8L112.54,148.27L114.08,149.35L115.63,137.37L117.17,132.66L118.71,131.08L120.25,131.78L121.79,129.19L123.33,114.83L124.88,115.17L126.42,109.41L127.96,105.91L129.5,119.46L132.58,132.48L134.13,142.19L138.75,155.33L140.29,158.85L141.83,161.34L143.38,160.31L144.92,160.55L146.46,163.92L148,164.67L149.54,163.18L151.08,164.39L152.63,167.1L154.17,166.37L155.71,167.8L158.79,169.16L160.33,169.06L161.88,169.53L163.42,171.35L164.96,171.67L166.5,171.19L168.04,171.89L169.58,168.52L171.13,165.67L172.67,166.02L174.21,165.12L175.75,162.4L177.29,159.05L178.83,158.33L180.38,158.42L181.92,159.91L183.46,158.61L185,154.25L186.54,154.95L188.08,151.09L189.63,153.26L191.17,152.69L192.71,152.72L194.25,153.91L195.79,143.89L197.33,143.18L198.88,146.55L200.42,145.37L201.96,147.33L203.5,145.71L205.04,145.5L206.58,148.52L208.13,149.85L209.67,146.14L212.75,143.01L214.29,142.81L215.83,152.4L217.38,153.13L218.92,154.83L220.46,153.84L223.54,155.14L225.08,158.3L226.63,159.74L228.17,157.93L229.71,158.63L231.25,161.31L232.79,164.28L234.33,163.38L237.42,167.38L238.96,166.22L240.5,164.23L242.04,164.7L243.58,166.72L245.13,167.26L246.67,166.1L248.21,163.95L252.83,159.62L254.38,159.46L259,154.45L260.54,150.14L263.63,154.27L265.17,155.13L266.71,152.79L268.25,142.45L271.33,138.6L272.88,122.53L274.42,118.97L275.96,99.59L277.5,84.86L279.04,82.72L280.58,53.07L282.13,80.77L285.21,162.37L286.75,156.63L288.29,143.19L289.83,140.17L291.38,135.6L292.92,144.18L299.08,153.34L300.63,157.87L302.17,164.09L303.71,160.63L305.25,159.89L306.79,164.66L308.33,166.43L309.88,164.79L311.42,162.97L312.96,167.24L314.5,166.54L316.04,166.77L319.13,166.82L320.67,168.55L322.21,168.11L323.75,169.63L325.29,168.04L326.83,168.73L328.38,168.72L329.92,165.93L331.46,164.23L333,166.05" style="vector-effect: non-scaling-stroke; fill: none; stroke: rgb(128, 0, 128); stroke-opacity: 1; stroke-width: 2px; opacity: 1; stroke-dasharray: 3px, 3px;"/></g><g class="points"/><g class="text"/></g></g></g><g class="overplot"/><path class="xlines-above crisp" d="M56,191.5H390" style="fill: none; stroke-width: 1px; stroke: rgb(36, 36, 36); stroke-opacity: 1;"/><path class="ylines-above crisp" d="M56.5,10V191" style="fill: none; stroke-width: 1px; stroke: rgb(36, 36, 36); stroke-opacity: 1;"/><g class="overlines-above"/><g class="xaxislayer-above"><path class="xtick ticks crisp" d="M0,192v5" transform="translate(129.45999999999998,0)" style="stroke: rgb(68, 68, 68); stroke-opacity: 1; stroke-width: 1px;"/><path class="xtick ticks crisp" d="M0,192v5" transform="translate(206.54,0)" style="stroke: rgb(68, 68, 68); stroke-opacity: 1; stroke-width: 1px;"/><path class="xtick ticks crisp" d="M0,192v5" transform="translate(283.63,0)" style="stroke: rgb(68, 68, 68); stroke-opacity: 1; stroke-width: 1px;"/><path class="xtick ticks crisp" d="M0,192v5" transform="translate(360.71,0)" style="stroke: rgb(68, 68, 68); stroke-opacity: 1; stroke-width: 1px;"/><g class="xtick"><text text-anchor="middle" x="0" y="211.4" transform="translate(129.45999999999998,0)" style="font-family: 'Open Sans', verdana, arial, sans-serif; font-size: 12px; fill: rgb(36, 36, 36); fill-opacity: 1; white-space: pre; opacity: 1;">350</text></g><g class="xtick"><text text-anchor="middle" x="0" y="211.4" style="font-family: 'Open Sans', verdana, arial, sans-serif; font-size: 12px; fill: rgb(36, 36, 36); fill-opacity: 1; white-space: pre; opacity: 1;" transform="translate(206.54,0)">400</text></g><g class="xtick"><text text-anchor="middle" x="0" y="211.4" style="font-family: 'Open Sans', verdana, arial, sans-serif; font-size: 12px; fill: rgb(36, 36, 36); fill-opacity: 1; white-space: pre; opacity: 1;" transform="translate(283.63,0)">450</text></g><g class="xtick"><text text-anchor="middle" x="0" y="211.4" style="font-family: 'Open Sans', verdana, arial, sans-serif; font-size: 12px; fill: rgb(36, 36, 36); fill-opacity: 1; white-space: pre; opacity: 1;" transform="translate(360.71,0)">500</text></g></g><g class="yaxislayer-above"><path class="ytick ticks crisp" d="M56,0h-5" transform="translate(0,109.6)" style="stroke: rgb(68, 68, 68); stroke-opacity: 1; stroke-width: 1px;"/><path class="ytick ticks crisp" d="M56,0h-5" transform="translate(0,28.1)" style="stroke: rgb(68, 68, 68); stroke-opacity: 1; stroke-width: 1px;"/><g class="ytick"><text text-anchor="end" x="48.6" y="4.199999999999999" transform="translate(0,109.6)" style="font-family: 'Open Sans', verdana, arial, sans-serif; font-size: 12px; fill: rgb(36, 36, 36); fill-opacity: 1; white-space: pre; opacity: 1;">5</text></g><g class="ytick"><text text-anchor="end" x="48.6" y="4.199999999999999" style="font-family: 'Open Sans', verdana, arial, sans-serif; font-size: 12px; fill: rgb(36, 36, 36); fill-opacity: 1; white-space: pre; opacity: 1;" transform="translate(0,28.1)">10</text></g></g><g class="overaxes-above"/></g></g><g class="polarlayer"/><g class="smithlayer"/><g class="ternarylayer"/><g class="geolayer"/><g class="funnelarealayer"/><g class="pielayer"/><g class="iciclelayer"/><g class="treemaplayer"/><g class="sunburstlayer"/><g class="glimages"/><defs id="topdefs-db7305"><g class="clips"/></defs><g class="layer-above"><g class="imagelayer"/><g class="shapelayer"/></g><g class="infolayer"><g class="g-gtitle"/><g class="g-xtitle"><text class="xtitle" x="223.5" y="239.70625" text-anchor="middle" style="font-family: 'Open Sans', verdana, arial, sans-serif; font-size: 14px; fill: rgb(36, 36, 36); opacity: 1; font-weight: normal; white-space: pre;">week</text></g><g class="g-ytitle" transform="translate(4.9248046875,0)"><text class="ytitle" transform="rotate(-90,10.075000000000003,100.5)" x="10.075000000000003" y="100.5" text-anchor="middle" style="font-family: 'Open Sans', verdana, arial, sans-serif; font-size: 14px; fill: rgb(36, 36, 36); opacity: 1; font-weight: normal; white-space: pre;">Percent Influenza</text></g></g></svg>