<svg width="315" height="143" viewBox="0 0 315 143" fill="none" xmlns="http://www.w3.org/2000/svg">
<path d="M0.281678 56.5059H0.246468C0.082156 56.5059 0 56.4413 0 56.3122C0 56.2653 0.0176049 56.1714 0.0528146 56.0305C0.0997609 55.8662 0.140839 55.7723 0.176049 55.7489C0.211258 55.7254 0.322756 55.7078 0.510541 55.696C1.51989 55.6608 2.3121 55.3557 2.8872 54.7806C3.00456 54.6632 3.68528 53.9238 4.92936 52.5624C6.17344 51.2009 6.78961 50.5085 6.77787 50.485C5.49858 47.2222 4.8296 45.5615 4.77092 45.5028C4.66529 45.3737 4.29559 45.3033 3.66181 45.2916H3.16887C3.09846 45.2211 3.06325 45.1742 3.06325 45.1507C3.06325 45.1273 3.07498 45.0158 3.09846 44.8162C3.1454 44.6637 3.20408 44.5522 3.2745 44.4817H3.52097C3.92002 44.5052 4.63008 44.517 5.65116 44.517C6.03847 44.517 6.39643 44.517 6.72506 44.517C7.05368 44.517 7.31775 44.5111 7.51727 44.4993C7.7168 44.4876 7.83416 44.4876 7.86937 44.4993C8.06889 44.4993 8.16865 44.5639 8.16865 44.693C8.16865 44.7047 8.15692 44.781 8.13344 44.9219C8.0865 45.0979 8.04542 45.2035 8.01021 45.2388C7.975 45.274 7.88111 45.2916 7.72853 45.2916C7.3647 45.3268 7.04781 45.4265 6.77787 45.5908L8.13344 49.0062L9.0665 47.9675C10.2988 46.6413 10.915 45.9077 10.915 45.7669C10.915 45.5556 10.7742 45.4089 10.4925 45.3268C10.4338 45.3268 10.3575 45.315 10.2636 45.2916C10.0876 45.2916 9.99956 45.227 9.99956 45.0979C9.99956 45.0744 10.0113 44.9805 10.0348 44.8162C10.0817 44.6637 10.1404 44.5522 10.2108 44.4817H10.4221C10.4338 44.4817 10.5805 44.4817 10.8622 44.4817C11.1439 44.4817 11.4608 44.4935 11.8129 44.517C12.165 44.5404 12.4056 44.5463 12.5347 44.5346C13.591 44.5346 14.1719 44.517 14.2775 44.4817H14.4184C14.5005 44.5639 14.5416 44.6284 14.5416 44.6754C14.5181 44.9688 14.4477 45.1742 14.3304 45.2916H14.0487C13.6496 45.3033 13.2917 45.3561 12.9748 45.45C12.6579 45.5439 12.4173 45.6437 12.253 45.7493C12.0887 45.8549 11.9478 45.9605 11.8305 46.0662L11.6368 46.2246C11.6368 46.2129 11.0793 46.8232 9.96435 48.0555L8.43273 49.7456C8.43273 49.7573 8.61465 50.2268 8.97848 51.154C9.34231 52.0812 9.72375 53.0318 10.1228 54.006C10.5218 54.9801 10.739 55.4848 10.7742 55.52C10.8915 55.6256 11.2495 55.6843 11.8481 55.696C12.2589 55.696 12.4642 55.7489 12.4642 55.8545C12.4642 55.878 12.4525 55.9601 12.429 56.1009C12.3821 56.2887 12.341 56.4002 12.3058 56.4354C12.2706 56.4706 12.1884 56.4883 12.0593 56.4883C12.0241 56.4883 11.8305 56.4883 11.4784 56.4883C11.1263 56.4883 10.604 56.4824 9.91154 56.4706C9.19561 56.4706 8.64985 56.4706 8.27428 56.4706C7.89871 56.4706 7.69332 56.4765 7.65811 56.4883C7.45859 56.4883 7.35883 56.4354 7.35883 56.3298C7.35883 56.3181 7.37057 56.23 7.39404 56.0657C7.41751 55.9484 7.44099 55.8662 7.46446 55.8193C7.48793 55.7723 7.51727 55.743 7.55248 55.7312C7.58769 55.7195 7.64051 55.7078 7.71093 55.696C7.78135 55.6843 7.87524 55.6784 7.99261 55.6784C8.10997 55.6784 8.26255 55.6374 8.45033 55.5552C8.64985 55.4613 8.74962 55.4026 8.74962 55.3791C8.73788 55.3791 8.46207 54.6926 7.92219 53.3194L7.09476 51.242C4.88828 53.6363 3.7557 54.8979 3.69702 55.0271C3.65007 55.1209 3.6266 55.1914 3.6266 55.2383C3.6266 55.4613 3.79678 55.608 4.13714 55.6784C4.14888 55.6784 4.18409 55.6784 4.24277 55.6784C4.30145 55.6784 4.33666 55.6843 4.3484 55.696C4.38361 55.696 4.40708 55.696 4.41882 55.696C4.43056 55.696 4.44816 55.7019 4.47163 55.7136C4.49511 55.7254 4.51271 55.743 4.52445 55.7665C4.53619 55.7899 4.54205 55.831 4.54205 55.8897C4.54205 55.9953 4.53032 56.0892 4.50684 56.1714C4.47163 56.3239 4.43642 56.412 4.40122 56.4354C4.366 56.4589 4.27798 56.4765 4.13714 56.4883C4.10193 56.4883 3.9963 56.4883 3.82025 56.4883C3.64421 56.4883 3.39774 56.4824 3.08085 56.4706C2.76396 56.4589 2.41773 56.4589 2.04216 56.4706C1.12671 56.4706 0.539882 56.4824 0.281678 56.5059Z" fill="black"/>
<path d="M20.4181 50.3971C20.4181 50.2445 20.5003 50.1272 20.6646 50.045H31.8789C32.0549 50.1389 32.143 50.2563 32.143 50.3971C32.143 50.5262 32.0608 50.6377 31.8965 50.7316L26.2981 50.7492H20.6998C20.512 50.6905 20.4181 50.5732 20.4181 50.3971ZM20.4181 53.8125C20.4181 53.6364 20.512 53.519 20.6998 53.4604H31.8965C32.0608 53.5777 32.143 53.6951 32.143 53.8125C32.143 53.965 32.0549 54.0824 31.8789 54.1646H20.6646C20.5003 54.0824 20.4181 53.965 20.4181 53.8125Z" fill="black"/>
<path d="M43.6354 37.021V5.34985H49.7443V6.82866H45.1142V37.021H43.6354Z" fill="black"/>
<path d="M43.6354 98.8599V55.8599H45.1142V96.8521H49.7443V98.8599H43.6354Z" fill="black"/>
<g clip-path="url(#clip0_1125_629)">
<path d="M43.6354 64.9282V14.3964H45.1142V64.9282H43.6354Z" fill="black"/>
</g>
<path d="M53.5117 8.37786L53.2829 8.46588C53.1186 8.52456 52.8838 8.58325 52.5787 8.64193C52.2735 8.70061 51.9332 8.74169 51.5576 8.76517H51.2231V7.95534H51.5576C52.1092 7.93187 52.6198 7.84384 53.0892 7.69127C53.5587 7.53869 53.8873 7.39785 54.0751 7.26875C54.2629 7.13965 54.4272 7.01055 54.568 6.88144C54.5915 6.84624 54.6619 6.82863 54.7793 6.82863C54.8849 6.82863 54.9847 6.86384 55.0786 6.93426V12.1981L55.0962 17.4796C55.1783 17.5617 55.2488 17.6145 55.3074 17.638C55.3661 17.6615 55.507 17.685 55.73 17.7084C55.953 17.7319 56.3168 17.7436 56.8215 17.7436H57.2792V18.5535H57.0855C56.8391 18.5183 55.906 18.5007 54.2864 18.5007C52.6902 18.5007 51.7689 18.5183 51.5224 18.5535H51.3111V17.7436H51.7689C52.0271 17.7436 52.2501 17.7436 52.4378 17.7436C52.6256 17.7436 52.7723 17.7378 52.878 17.726C52.9836 17.7143 53.0775 17.6967 53.1596 17.6732C53.2418 17.6498 53.2888 17.638 53.3005 17.638C53.3122 17.638 53.3474 17.6087 53.4061 17.55C53.4648 17.4913 53.5 17.4678 53.5117 17.4796V8.37786Z" fill="black"/>
<path d="M77.7079 13.4656C77.79 12.9727 78.1069 12.4035 78.6585 11.7579C79.2101 11.1124 79.8909 10.7838 80.7007 10.7721C81.1115 10.7721 81.487 10.8777 81.8274 11.089C82.1677 11.3002 82.4201 11.5643 82.5844 11.8812C83.0773 11.1418 83.67 10.7721 84.3625 10.7721C84.7967 10.7721 85.1723 10.9012 85.4892 11.1594C85.8061 11.4176 85.9704 11.7638 85.9821 12.1981C85.9821 12.5384 85.9 12.8142 85.7357 13.0255C85.5714 13.2367 85.4129 13.3659 85.2603 13.4128C85.1078 13.4597 84.9728 13.4832 84.8554 13.4832C84.6324 13.4832 84.4505 13.4187 84.3097 13.2896C84.1688 13.1605 84.0984 12.9903 84.0984 12.779C84.0984 12.2391 84.3918 11.8694 84.9787 11.6699C84.8496 11.5173 84.6148 11.4411 84.2745 11.4411C84.1219 11.4411 84.0104 11.4528 83.94 11.4763C83.494 11.664 83.1654 12.0514 82.9541 12.6382C82.2499 15.232 81.8978 16.746 81.8978 17.1802C81.8978 17.5089 81.9917 17.7436 82.1795 17.8844C82.3673 18.0253 82.5727 18.0957 82.7957 18.0957C83.2299 18.0957 83.6583 17.902 84.0808 17.5147C84.5033 17.1274 84.7909 16.6521 84.9434 16.0887C84.9787 15.9714 85.0139 15.9068 85.0491 15.8951C85.0843 15.8833 85.1782 15.8716 85.3308 15.8599H85.4012C85.5772 15.8599 85.6652 15.9068 85.6652 16.0007C85.6652 16.0124 85.6535 16.077 85.63 16.1944C85.4423 16.8634 85.0784 17.456 84.5385 17.9725C83.9987 18.4889 83.3707 18.7471 82.6548 18.7471C81.8333 18.7471 81.2112 18.3774 80.7887 17.638C80.3075 18.3656 79.7559 18.7295 79.1338 18.7295H79.0282C78.4531 18.7295 78.0423 18.5769 77.7959 18.2717C77.5494 17.9666 77.4203 17.6438 77.4086 17.3035C77.4086 16.9279 77.5201 16.6228 77.7431 16.388C77.9661 16.1533 78.2301 16.0359 78.5353 16.0359C79.04 16.0359 79.2923 16.2824 79.2923 16.7753C79.2923 17.0101 79.2219 17.2154 79.081 17.3915C78.9402 17.5675 78.8052 17.6849 78.6761 17.7436C78.547 17.8023 78.4707 17.8316 78.4473 17.8316L78.3944 17.8492C78.3944 17.861 78.4297 17.8844 78.5001 17.9196C78.5705 17.9549 78.6644 17.9959 78.7817 18.0429C78.8991 18.0898 79.0106 18.1074 79.1162 18.0957C79.5388 18.0957 79.9026 17.8316 80.2077 17.3035C80.3134 17.1157 80.4483 16.7166 80.6127 16.1063C80.777 15.496 80.9413 14.8623 81.1056 14.205C81.2699 13.5478 81.3638 13.1605 81.3873 13.0431C81.446 12.7262 81.4753 12.4973 81.4753 12.3565C81.4753 12.0279 81.3873 11.7932 81.2112 11.6523C81.0352 11.5115 80.8356 11.4411 80.6127 11.4411C80.1432 11.4411 79.7031 11.6288 79.2923 12.0044C78.8815 12.38 78.594 12.8612 78.4297 13.448C78.4062 13.5536 78.3768 13.6123 78.3416 13.6241C78.3064 13.6358 78.2125 13.6475 78.0599 13.6593H77.8135C77.7431 13.5888 77.7079 13.5243 77.7079 13.4656Z" fill="black"/>
<path d="M89.5135 13.9999L89.3517 14.0622C89.2355 14.1037 89.0696 14.1451 88.8538 14.1866C88.6381 14.2281 88.3975 14.2572 88.1319 14.2738H87.8954V13.7012H88.1319C88.5219 13.6846 88.8829 13.6224 89.2148 13.5145C89.5467 13.4066 89.779 13.3071 89.9118 13.2158C90.0446 13.1245 90.1607 13.0332 90.2603 12.942C90.2769 12.9171 90.3267 12.9046 90.4097 12.9046C90.4843 12.9046 90.5549 12.9295 90.6213 12.9793V16.7009L90.6337 20.4348C90.6918 20.4929 90.7416 20.5303 90.7831 20.5469C90.8246 20.5635 90.9241 20.5801 91.0818 20.5967C91.2394 20.6132 91.4967 20.6215 91.8535 20.6215H92.1771V21.1941H92.0402C91.8659 21.1692 91.2063 21.1568 90.0612 21.1568C88.9327 21.1568 88.2813 21.1692 88.107 21.1941H87.9577V20.6215H88.2813C88.4638 20.6215 88.6215 20.6215 88.7543 20.6215C88.887 20.6215 88.9908 20.6174 89.0654 20.6091C89.1401 20.6008 89.2065 20.5884 89.2646 20.5718C89.3227 20.5552 89.3559 20.5469 89.3641 20.5469C89.3724 20.5469 89.3973 20.5261 89.4388 20.4846C89.4803 20.4431 89.5052 20.4265 89.5135 20.4348V13.9999Z" fill="black"/>
<path d="M94.0565 20.7585C94.0565 20.7585 94.0565 20.6547 94.0565 20.4473C94.0565 20.2398 94.1229 20.0614 94.2557 19.9121C94.3884 19.7627 94.5668 19.688 94.7909 19.688C95.0232 19.688 95.2307 19.7918 95.4132 19.9992C95.5958 20.2067 95.6912 20.5718 95.6995 21.0945C95.6995 21.3849 95.6621 21.6671 95.5875 21.9409C95.5128 22.2147 95.4256 22.4512 95.3261 22.6503C95.2265 22.8495 95.1186 23.0196 95.0025 23.1607C94.8863 23.3017 94.7867 23.4137 94.7037 23.4967C94.6208 23.5797 94.5668 23.617 94.5419 23.6087C94.5087 23.6087 94.4548 23.5714 94.3801 23.4967C94.3055 23.422 94.2681 23.3681 94.2681 23.3349C94.2681 23.3017 94.3137 23.2353 94.405 23.1358C94.4963 23.0362 94.6 22.9117 94.7162 22.7624C94.8324 22.613 94.9402 22.4056 95.0398 22.14C95.1394 21.8745 95.2058 21.5716 95.2389 21.2314V21.0821L95.2265 21.0945C95.2099 21.1028 95.1892 21.1111 95.1643 21.1194C95.1394 21.1277 95.1145 21.1401 95.0896 21.1567C95.0647 21.1733 95.0274 21.1816 94.9776 21.1816C94.9278 21.1816 94.878 21.1858 94.8282 21.1941C94.6042 21.1941 94.4216 21.1236 94.2806 20.9825L94.0565 20.7585Z" fill="black"/>
<path d="M99.197 13.9999L99.0352 14.0622C98.919 14.1037 98.7531 14.1451 98.5373 14.1866C98.3216 14.2281 98.0809 14.2572 97.8154 14.2738H97.5789V13.7012H97.8154C98.2054 13.6846 98.5664 13.6224 98.8983 13.5145C99.2302 13.4066 99.4625 13.3071 99.5953 13.2158C99.728 13.1245 99.8442 13.0332 99.9438 12.942C99.9604 12.9171 100.01 12.9046 100.093 12.9046C100.168 12.9046 100.238 12.9295 100.305 12.9793V16.7009L100.317 20.4348C100.375 20.4929 100.425 20.5303 100.467 20.5469C100.508 20.5635 100.608 20.5801 100.765 20.5967C100.923 20.6132 101.18 20.6215 101.537 20.6215H101.861V21.1941H101.724C101.549 21.1692 100.89 21.1568 99.7446 21.1568C98.6161 21.1568 97.9648 21.1692 97.7905 21.1941H97.6412V20.6215H97.9648C98.1473 20.6215 98.305 20.6215 98.4377 20.6215C98.5705 20.6215 98.6742 20.6174 98.7489 20.6091C98.8236 20.6008 98.89 20.5884 98.948 20.5718C99.0061 20.5552 99.0393 20.5469 99.0476 20.5469C99.0559 20.5469 99.0808 20.5261 99.1223 20.4846C99.1638 20.4431 99.1887 20.4265 99.197 20.4348V13.9999Z" fill="black"/>
<path d="M123.252 14.1522C123.252 13.8705 123.351 13.6241 123.551 13.4128C123.75 13.2015 124.003 13.0959 124.308 13.0959C124.59 13.0959 124.836 13.1898 125.047 13.3776C125.259 13.5654 125.37 13.8177 125.382 14.1346C125.382 14.428 125.282 14.6804 125.083 14.8916C124.883 15.1029 124.631 15.2085 124.326 15.2085C124.02 15.2085 123.768 15.1087 123.569 14.9092C123.369 14.7097 123.263 14.4574 123.252 14.1522ZM131.121 14.1522C131.121 13.8705 131.221 13.6241 131.42 13.4128C131.62 13.2015 131.872 13.0959 132.177 13.0959C132.459 13.0959 132.705 13.1898 132.917 13.3776C133.128 13.5654 133.239 13.8177 133.251 14.1346C133.251 14.428 133.151 14.6804 132.952 14.8916C132.752 15.1029 132.5 15.2085 132.195 15.2085C131.89 15.2085 131.637 15.1087 131.438 14.9092C131.238 14.7097 131.133 14.4574 131.121 14.1522ZM138.99 14.1522C138.99 13.8705 139.09 13.6241 139.29 13.4128C139.489 13.2015 139.742 13.0959 140.047 13.0959C140.328 13.0959 140.575 13.1898 140.786 13.3776C140.997 13.5654 141.109 13.8177 141.121 14.1346C141.121 14.428 141.021 14.6804 140.821 14.8916C140.622 15.1029 140.369 15.2085 140.064 15.2085C139.759 15.2085 139.507 15.1087 139.307 14.9092C139.108 14.7097 139.002 14.4574 138.99 14.1522Z" fill="black"/>
<path d="M161.653 13.4656C161.735 12.9727 162.052 12.4035 162.604 11.7579C163.155 11.1124 163.836 10.7838 164.646 10.7721C165.057 10.7721 165.432 10.8777 165.773 11.089C166.113 11.3002 166.365 11.5643 166.53 11.8812C167.023 11.1418 167.615 10.7721 168.308 10.7721C168.742 10.7721 169.118 10.9012 169.434 11.1594C169.751 11.4176 169.916 11.7638 169.927 12.1981C169.927 12.5384 169.845 12.8142 169.681 13.0255C169.517 13.2367 169.358 13.3659 169.206 13.4128C169.053 13.4597 168.918 13.4832 168.801 13.4832C168.578 13.4832 168.396 13.4187 168.255 13.2896C168.114 13.1605 168.044 12.9903 168.044 12.779C168.044 12.2391 168.337 11.8694 168.924 11.6699C168.795 11.5173 168.56 11.4411 168.22 11.4411C168.067 11.4411 167.956 11.4528 167.885 11.4763C167.439 11.664 167.111 12.0514 166.899 12.6382C166.195 15.232 165.843 16.746 165.843 17.1802C165.843 17.5089 165.937 17.7436 166.125 17.8844C166.313 18.0253 166.518 18.0957 166.741 18.0957C167.175 18.0957 167.604 17.902 168.026 17.5147C168.449 17.1274 168.736 16.6521 168.889 16.0887C168.924 15.9714 168.959 15.9068 168.994 15.8951C169.03 15.8833 169.123 15.8716 169.276 15.8599H169.346C169.523 15.8599 169.611 15.9068 169.611 16.0007C169.611 16.0124 169.599 16.077 169.575 16.1944C169.388 16.8634 169.024 17.456 168.484 17.9725C167.944 18.4889 167.316 18.7471 166.6 18.7471C165.779 18.7471 165.157 18.3774 164.734 17.638C164.253 18.3656 163.701 18.7295 163.079 18.7295H162.973C162.398 18.7295 161.988 18.5769 161.741 18.2717C161.495 17.9666 161.366 17.6438 161.354 17.3035C161.354 16.9279 161.465 16.6228 161.688 16.388C161.911 16.1533 162.175 16.0359 162.481 16.0359C162.985 16.0359 163.238 16.2824 163.238 16.7753C163.238 17.0101 163.167 17.2154 163.026 17.3915C162.885 17.5675 162.751 17.6849 162.621 17.7436C162.492 17.8023 162.416 17.8316 162.393 17.8316L162.34 17.8492C162.34 17.861 162.375 17.8844 162.445 17.9196C162.516 17.9549 162.61 17.9959 162.727 18.0429C162.844 18.0898 162.956 18.1074 163.062 18.0957C163.484 18.0957 163.848 17.8316 164.153 17.3035C164.259 17.1157 164.394 16.7166 164.558 16.1063C164.722 15.496 164.887 14.8623 165.051 14.205C165.215 13.5478 165.309 13.1605 165.333 13.0431C165.391 12.7262 165.421 12.4973 165.421 12.3565C165.421 12.0279 165.333 11.7932 165.157 11.6523C164.98 11.5115 164.781 11.4411 164.558 11.4411C164.088 11.4411 163.648 11.6288 163.238 12.0044C162.827 12.38 162.539 12.8612 162.375 13.448C162.351 13.5536 162.322 13.6123 162.287 13.6241C162.252 13.6358 162.158 13.6475 162.005 13.6593H161.759C161.688 13.5888 161.653 13.5243 161.653 13.4656Z" fill="black"/>
<path d="M173.459 13.9999L173.297 14.0622C173.181 14.1037 173.015 14.1451 172.799 14.1866C172.583 14.2281 172.343 14.2572 172.077 14.2738H171.841V13.7012H172.077C172.467 13.6846 172.828 13.6224 173.16 13.5145C173.492 13.4066 173.724 13.3071 173.857 13.2158C173.99 13.1245 174.106 13.0332 174.206 12.942C174.222 12.9171 174.272 12.9046 174.355 12.9046C174.43 12.9046 174.5 12.9295 174.567 12.9793V16.7009L174.579 20.4348C174.637 20.4929 174.687 20.5303 174.728 20.5469C174.77 20.5635 174.869 20.5801 175.027 20.5967C175.185 20.6132 175.442 20.6215 175.799 20.6215H176.122V21.1941H175.985C175.811 21.1692 175.152 21.1568 174.006 21.1568C172.878 21.1568 172.227 21.1692 172.052 21.1941H171.903V20.6215H172.227C172.409 20.6215 172.567 20.6215 172.7 20.6215C172.832 20.6215 172.936 20.6174 173.011 20.6091C173.085 20.6008 173.152 20.5884 173.21 20.5718C173.268 20.5552 173.301 20.5469 173.309 20.5469C173.318 20.5469 173.343 20.5261 173.384 20.4846C173.426 20.4431 173.45 20.4265 173.459 20.4348V13.9999Z" fill="black"/>
<path d="M178.002 20.7585C178.002 20.7585 178.002 20.6547 178.002 20.4473C178.002 20.2398 178.068 20.0614 178.201 19.9121C178.334 19.7627 178.512 19.688 178.736 19.688C178.969 19.688 179.176 19.7918 179.359 19.9992C179.541 20.2067 179.636 20.5718 179.645 21.0945C179.645 21.3849 179.607 21.6671 179.533 21.9409C179.458 22.2147 179.371 22.4512 179.271 22.6503C179.172 22.8495 179.064 23.0196 178.948 23.1607C178.832 23.3017 178.732 23.4137 178.649 23.4967C178.566 23.5797 178.512 23.617 178.487 23.6087C178.454 23.6087 178.4 23.5714 178.325 23.4967C178.251 23.422 178.213 23.3681 178.213 23.3349C178.213 23.3017 178.259 23.2353 178.35 23.1358C178.442 23.0362 178.545 22.9117 178.662 22.7624C178.778 22.613 178.886 22.4056 178.985 22.14C179.085 21.8745 179.151 21.5716 179.184 21.2314V21.0821L179.172 21.0945C179.155 21.1028 179.134 21.1111 179.11 21.1194C179.085 21.1277 179.06 21.1401 179.035 21.1567C179.01 21.1733 178.973 21.1816 178.923 21.1816C178.873 21.1816 178.823 21.1858 178.774 21.1941C178.549 21.1941 178.367 21.1236 178.226 20.9825L178.002 20.7585Z" fill="black"/>
<path d="M180.777 17.6218C180.786 17.5969 180.794 17.5637 180.802 17.5222C180.811 17.4807 180.831 17.3895 180.865 17.2484C180.898 17.1073 180.939 16.9787 180.989 16.8626C181.039 16.7464 181.101 16.6095 181.176 16.4518C181.25 16.2942 181.333 16.1697 181.425 16.0784C181.516 15.9872 181.624 15.8959 181.748 15.8046C181.873 15.7133 182.01 15.676 182.159 15.6926C182.781 15.6926 183.18 15.9581 183.354 16.4892L183.478 16.3771C183.993 15.9208 184.482 15.6926 184.947 15.6926C185.486 15.6926 185.91 15.8876 186.217 16.2776C186.524 16.6676 186.677 17.1405 186.677 17.6965C186.677 18.5926 186.362 19.4183 185.731 20.1734C185.101 20.9285 184.387 21.3102 183.59 21.3185C183.408 21.3185 183.246 21.2936 183.105 21.2438C183.014 21.2023 182.918 21.1401 182.819 21.0571C182.719 20.9741 182.64 20.9036 182.582 20.8455L182.495 20.7459C182.487 20.7542 182.395 21.1152 182.221 21.8288C182.047 22.5424 181.96 22.9033 181.96 22.9116C181.96 22.9614 181.993 22.9905 182.059 22.9988C182.126 23.0071 182.279 23.0195 182.52 23.0361H182.831C182.881 23.0942 182.906 23.1315 182.906 23.1481C182.906 23.1647 182.893 23.2394 182.868 23.3722C182.844 23.4717 182.819 23.534 182.794 23.5589C182.769 23.5837 182.715 23.6003 182.632 23.6086C182.615 23.6086 182.57 23.6086 182.495 23.6086C182.42 23.6086 182.279 23.6045 182.072 23.5962C181.864 23.5879 181.607 23.5837 181.3 23.5837C180.719 23.5837 180.35 23.592 180.192 23.6086H180.093C180.035 23.5506 180.006 23.5049 180.006 23.4717C180.022 23.2477 180.076 23.1025 180.168 23.0361H180.416C180.699 23.0278 180.86 22.978 180.902 22.8867C180.927 22.837 181.18 21.8454 181.661 19.912C182.142 17.9786 182.395 16.9538 182.42 16.8377C182.429 16.7962 182.433 16.7381 182.433 16.6634C182.433 16.3232 182.329 16.1531 182.122 16.1531C181.939 16.1531 181.786 16.2693 181.661 16.5016C181.537 16.734 181.441 16.987 181.375 17.2609C181.308 17.5347 181.259 17.684 181.225 17.7089C181.209 17.7255 181.143 17.7338 181.026 17.7338H180.852C180.802 17.684 180.777 17.6467 180.777 17.6218ZM182.707 19.9244C182.889 20.5551 183.196 20.8704 183.628 20.8704C183.877 20.8704 184.117 20.775 184.35 20.5841C184.582 20.3933 184.773 20.1526 184.922 19.8622C185.072 19.5801 185.221 19.132 185.37 18.518C185.52 17.9039 185.598 17.4476 185.607 17.1488V17.0742C185.607 16.4601 185.354 16.1531 184.847 16.1531C184.756 16.1531 184.665 16.1656 184.574 16.1904C184.482 16.2153 184.391 16.2527 184.3 16.3025C184.209 16.3523 184.126 16.4062 184.051 16.4643C183.976 16.5224 183.906 16.5846 183.839 16.651C183.773 16.7174 183.711 16.7796 183.653 16.8377C183.595 16.8958 183.549 16.9538 183.516 17.0119C183.482 17.07 183.449 17.1115 183.416 17.1364L183.379 17.1862C183.379 17.1945 183.366 17.2526 183.341 17.3604C183.317 17.4683 183.271 17.6509 183.205 17.9081C183.138 18.1653 183.08 18.3811 183.03 18.5553C182.815 19.4349 182.707 19.8912 182.707 19.9244Z" fill="black"/>
<path d="M53.5117 33.6796L53.2829 33.7676C53.1186 33.8263 52.8838 33.885 52.5787 33.9437C52.2735 34.0024 51.9332 34.0434 51.5576 34.0669H51.2231V33.2571H51.5576C52.1092 33.2336 52.6198 33.1456 53.0892 32.993C53.5587 32.8405 53.8873 32.6996 54.0751 32.5705C54.2629 32.4414 54.4272 32.3123 54.568 32.1832C54.5915 32.148 54.6619 32.1304 54.7793 32.1304C54.8849 32.1304 54.9847 32.1656 55.0786 32.236V37.4999L55.0962 42.7813C55.1783 42.8635 55.2488 42.9163 55.3074 42.9398C55.3661 42.9632 55.507 42.9867 55.73 43.0102C55.953 43.0337 56.3168 43.0454 56.8215 43.0454H57.2792V43.8552H57.0855C56.8391 43.82 55.906 43.8024 54.2864 43.8024C52.6902 43.8024 51.7689 43.82 51.5224 43.8552H51.3111V43.0454H51.7689C52.0271 43.0454 52.2501 43.0454 52.4378 43.0454C52.6256 43.0454 52.7723 43.0395 52.878 43.0278C52.9836 43.0161 53.0775 42.9985 53.1596 42.975C53.2418 42.9515 53.2888 42.9398 53.3005 42.9398C53.3122 42.9398 53.3474 42.9104 53.4061 42.8517C53.4648 42.7931 53.5 42.7696 53.5117 42.7813V33.6796Z" fill="black"/>
<path d="M77.7079 38.7674C77.79 38.2744 78.1069 37.7052 78.6585 37.0597C79.2101 36.4142 79.8909 36.0856 80.7007 36.0738C81.1115 36.0738 81.487 36.1795 81.8274 36.3907C82.1677 36.602 82.4201 36.866 82.5844 37.1829C83.0773 36.4435 83.67 36.0738 84.3625 36.0738C84.7967 36.0738 85.1723 36.2029 85.4892 36.4611C85.8061 36.7193 85.9704 37.0656 85.9821 37.4998C85.9821 37.8402 85.9 38.116 85.7357 38.3272C85.5714 38.5385 85.4129 38.6676 85.2603 38.7146C85.1078 38.7615 84.9728 38.785 84.8554 38.785C84.6324 38.785 84.4505 38.7204 84.3097 38.5913C84.1688 38.4622 84.0984 38.292 84.0984 38.0808C84.0984 37.5409 84.3918 37.1712 84.9787 36.9717C84.8496 36.8191 84.6148 36.7428 84.2745 36.7428C84.1219 36.7428 84.0104 36.7545 83.94 36.778C83.494 36.9658 83.1654 37.3531 82.9541 37.9399C82.2499 40.5337 81.8978 42.0477 81.8978 42.482C81.8978 42.8106 81.9917 43.0454 82.1795 43.1862C82.3673 43.327 82.5727 43.3974 82.7957 43.3974C83.2299 43.3974 83.6583 43.2038 84.0808 42.8165C84.5033 42.4292 84.7909 41.9538 84.9434 41.3905C84.9787 41.2731 85.0139 41.2086 85.0491 41.1968C85.0843 41.1851 85.1782 41.1734 85.3308 41.1616H85.4012C85.5772 41.1616 85.6652 41.2086 85.6652 41.3025C85.6652 41.3142 85.6535 41.3788 85.63 41.4961C85.4423 42.1651 85.0784 42.7578 84.5385 43.2742C83.9987 43.7906 83.3707 44.0488 82.6548 44.0488C81.8333 44.0488 81.2112 43.6791 80.7887 42.9397C80.3075 43.6674 79.7559 44.0312 79.1338 44.0312H79.0282C78.4531 44.0312 78.0423 43.8786 77.7959 43.5735C77.5494 43.2683 77.4203 42.9456 77.4086 42.6052C77.4086 42.2297 77.5201 41.9245 77.7431 41.6898C77.9661 41.455 78.2301 41.3377 78.5353 41.3377C79.04 41.3377 79.2923 41.5841 79.2923 42.0771C79.2923 42.3118 79.2219 42.5172 79.081 42.6933C78.9402 42.8693 78.8052 42.9867 78.6761 43.0454C78.547 43.104 78.4707 43.1334 78.4473 43.1334L78.3944 43.151C78.3944 43.1627 78.4297 43.1862 78.5001 43.2214C78.5705 43.2566 78.6644 43.2977 78.7817 43.3446C78.8991 43.3916 79.0106 43.4092 79.1162 43.3974C79.5388 43.3974 79.9026 43.1334 80.2077 42.6052C80.3134 42.4174 80.4483 42.0184 80.6127 41.4081C80.777 40.7978 80.9413 40.164 81.1056 39.5068C81.2699 38.8495 81.3638 38.4622 81.3873 38.3449C81.446 38.028 81.4753 37.7991 81.4753 37.6583C81.4753 37.3296 81.3873 37.0949 81.2112 36.9541C81.0352 36.8132 80.8356 36.7428 80.6127 36.7428C80.1432 36.7428 79.7031 36.9306 79.2923 37.3062C78.8815 37.6817 78.594 38.1629 78.4297 38.7498C78.4062 38.8554 78.3768 38.9141 78.3416 38.9258C78.3064 38.9376 78.2125 38.9493 78.0599 38.961H77.8135C77.7431 38.8906 77.7079 38.8261 77.7079 38.7674Z" fill="black"/>
<path d="M88.2191 41.1562C87.995 41.1562 87.8166 41.0816 87.6839 40.9322C87.5511 40.7828 87.4847 40.6003 87.4847 40.3846C87.4847 39.7954 87.7046 39.2851 88.1444 38.8536C88.5842 38.4221 89.1318 38.2064 89.7873 38.2064C90.5424 38.2064 91.1731 38.4387 91.6792 38.9034C92.1854 39.3681 92.4426 39.9697 92.4509 40.7082C92.4509 41.065 92.3679 41.4052 92.202 41.7288C92.036 42.0524 91.8369 42.3345 91.6045 42.5752C91.3722 42.8158 91.0403 43.1228 90.6088 43.4962C90.3101 43.7534 89.8952 44.1351 89.3642 44.6413L88.6298 45.3383L89.5757 45.3508C90.8785 45.3508 91.5714 45.33 91.6543 45.2885C91.7124 45.2719 91.812 44.9027 91.9531 44.1808V44.1434H92.4509V44.1808C92.4426 44.2057 92.3887 44.5832 92.2891 45.3134C92.1895 46.0436 92.1273 46.4253 92.1024 46.4585V46.4958H87.4847V46.2594V46.11C87.4847 46.0519 87.5096 45.9897 87.5594 45.9233C87.6092 45.8569 87.7336 45.7117 87.9328 45.4877C88.1734 45.2221 88.3809 44.9898 88.5551 44.7907C88.6298 44.7077 88.7709 44.5542 88.9783 44.3301C89.1858 44.1061 89.3268 43.9526 89.4015 43.8696C89.4762 43.7866 89.5965 43.6497 89.7624 43.4589C89.9284 43.268 90.0446 43.127 90.111 43.0357C90.1773 42.9444 90.2728 42.8199 90.3972 42.6623C90.5217 42.5046 90.6088 42.3719 90.6586 42.264C90.7084 42.1561 90.7706 42.0358 90.8453 41.903C90.92 41.7703 90.9739 41.6375 91.0071 41.5047C91.0403 41.372 91.0693 41.2475 91.0942 41.1313C91.1191 41.0152 91.1316 40.8783 91.1316 40.7206C91.1316 40.1979 90.9905 39.7456 90.7084 39.3639C90.4263 38.9822 90.0238 38.7914 89.5011 38.7914C89.2272 38.7914 88.9866 38.8619 88.7792 39.003C88.5717 39.144 88.4265 39.281 88.3435 39.4137C88.2606 39.5465 88.2191 39.6253 88.2191 39.6502C88.2191 39.6585 88.2398 39.6626 88.2813 39.6626C88.4307 39.6626 88.5842 39.7207 88.7418 39.8369C88.8995 39.9531 88.9783 40.1439 88.9783 40.4094C88.9783 40.6169 88.9119 40.7911 88.7792 40.9322C88.6464 41.0733 88.4597 41.1479 88.2191 41.1562Z" fill="black"/>
<path d="M94.0565 46.0602C94.0565 46.0602 94.0565 45.9565 94.0565 45.749C94.0565 45.5416 94.1229 45.3632 94.2557 45.2138C94.3885 45.0645 94.5669 44.9898 94.7909 44.9898C95.0232 44.9898 95.2307 45.0935 95.4132 45.301C95.5958 45.5084 95.6912 45.8735 95.6995 46.3963C95.6995 46.6867 95.6622 46.9688 95.5875 47.2426C95.5128 47.5165 95.4257 47.753 95.3261 47.9521C95.2265 48.1512 95.1187 48.3213 95.0025 48.4624C94.8863 48.6035 94.7868 48.7155 94.7038 48.7985C94.6208 48.8814 94.5669 48.9188 94.542 48.9105C94.5088 48.9105 94.4548 48.8731 94.3802 48.7985C94.3055 48.7238 94.2681 48.6699 94.2681 48.6367C94.2681 48.6035 94.3138 48.5371 94.4051 48.4375C94.4963 48.3379 94.6001 48.2135 94.7162 48.0641C94.8324 47.9148 94.9403 47.7073 95.0398 47.4418C95.1394 47.1763 95.2058 46.8734 95.239 46.5332V46.3838L95.2265 46.3963C95.2099 46.4046 95.1892 46.4129 95.1643 46.4212C95.1394 46.4295 95.1145 46.4419 95.0896 46.4585C95.0647 46.4751 95.0274 46.4834 94.9776 46.4834C94.9278 46.4834 94.878 46.4875 94.8282 46.4958C94.6042 46.4958 94.4217 46.4253 94.2806 46.2842L94.0565 46.0602Z" fill="black"/>
<path d="M99.197 39.3017L99.0352 39.3639C98.919 39.4054 98.7531 39.4469 98.5373 39.4884C98.3216 39.5299 98.0809 39.5589 97.8154 39.5755H97.5789V39.003H97.8154C98.2054 38.9864 98.5664 38.9241 98.8983 38.8163C99.2302 38.7084 99.4625 38.6088 99.5953 38.5176C99.728 38.4263 99.8442 38.335 99.9438 38.2437C99.9604 38.2188 100.01 38.2064 100.093 38.2064C100.168 38.2064 100.238 38.2313 100.305 38.2811V42.0026L100.317 45.7366C100.375 45.7947 100.425 45.832 100.467 45.8486C100.508 45.8652 100.608 45.8818 100.765 45.8984C100.923 45.915 101.18 45.9233 101.537 45.9233H101.861V46.4958H101.724C101.549 46.471 100.89 46.4585 99.7446 46.4585C98.6161 46.4585 97.9648 46.471 97.7905 46.4958H97.6412V45.9233H97.9648C98.1473 45.9233 98.305 45.9233 98.4377 45.9233C98.5705 45.9233 98.6742 45.9192 98.7489 45.9109C98.8236 45.9026 98.89 45.8901 98.948 45.8735C99.0061 45.8569 99.0393 45.8486 99.0476 45.8486C99.0559 45.8486 99.0808 45.8279 99.1223 45.7864C99.1638 45.7449 99.1887 45.7283 99.197 45.7366V39.3017Z" fill="black"/>
<path d="M123.252 39.454C123.252 39.1723 123.351 38.9258 123.551 38.7146C123.75 38.5033 124.003 38.3977 124.308 38.3977C124.59 38.3977 124.836 38.4916 125.047 38.6793C125.259 38.8671 125.37 39.1195 125.382 39.4364C125.382 39.7298 125.282 39.9821 125.083 40.1934C124.883 40.4046 124.631 40.5103 124.326 40.5103C124.02 40.5103 123.768 40.4105 123.569 40.211C123.369 40.0114 123.263 39.7591 123.252 39.454ZM131.121 39.454C131.121 39.1723 131.221 38.9258 131.42 38.7146C131.62 38.5033 131.872 38.3977 132.177 38.3977C132.459 38.3977 132.705 38.4916 132.917 38.6793C133.128 38.8671 133.239 39.1195 133.251 39.4364C133.251 39.7298 133.151 39.9821 132.952 40.1934C132.752 40.4046 132.5 40.5103 132.195 40.5103C131.89 40.5103 131.637 40.4105 131.438 40.211C131.238 40.0114 131.133 39.7591 131.121 39.454ZM138.99 39.454C138.99 39.1723 139.09 38.9258 139.29 38.7146C139.489 38.5033 139.742 38.3977 140.047 38.3977C140.328 38.3977 140.575 38.4916 140.786 38.6793C140.997 38.8671 141.109 39.1195 141.121 39.4364C141.121 39.7298 141.021 39.9821 140.821 40.1934C140.622 40.4046 140.369 40.5103 140.064 40.5103C139.759 40.5103 139.507 40.4105 139.307 40.211C139.108 40.0114 139.002 39.7591 138.99 39.454Z" fill="black"/>
<path d="M161.653 38.7674C161.735 38.2744 162.052 37.7052 162.604 37.0597C163.155 36.4142 163.836 36.0856 164.646 36.0738C165.057 36.0738 165.432 36.1795 165.773 36.3907C166.113 36.602 166.365 36.866 166.53 37.1829C167.023 36.4435 167.615 36.0738 168.308 36.0738C168.742 36.0738 169.118 36.2029 169.434 36.4611C169.751 36.7193 169.916 37.0656 169.927 37.4998C169.927 37.8402 169.845 38.116 169.681 38.3272C169.517 38.5385 169.358 38.6676 169.206 38.7146C169.053 38.7615 168.918 38.785 168.801 38.785C168.578 38.785 168.396 38.7204 168.255 38.5913C168.114 38.4622 168.044 38.292 168.044 38.0808C168.044 37.5409 168.337 37.1712 168.924 36.9717C168.795 36.8191 168.56 36.7428 168.22 36.7428C168.067 36.7428 167.956 36.7545 167.885 36.778C167.439 36.9658 167.111 37.3531 166.899 37.9399C166.195 40.5337 165.843 42.0477 165.843 42.482C165.843 42.8106 165.937 43.0454 166.125 43.1862C166.313 43.327 166.518 43.3974 166.741 43.3974C167.175 43.3974 167.604 43.2038 168.026 42.8165C168.449 42.4292 168.736 41.9538 168.889 41.3905C168.924 41.2731 168.959 41.2086 168.994 41.1968C169.03 41.1851 169.123 41.1734 169.276 41.1616H169.346C169.523 41.1616 169.611 41.2086 169.611 41.3025C169.611 41.3142 169.599 41.3788 169.575 41.4961C169.388 42.1651 169.024 42.7578 168.484 43.2742C167.944 43.7906 167.316 44.0488 166.6 44.0488C165.779 44.0488 165.157 43.6791 164.734 42.9397C164.253 43.6674 163.701 44.0312 163.079 44.0312H162.973C162.398 44.0312 161.988 43.8786 161.741 43.5735C161.495 43.2683 161.366 42.9456 161.354 42.6052C161.354 42.2297 161.465 41.9245 161.688 41.6898C161.911 41.455 162.175 41.3377 162.481 41.3377C162.985 41.3377 163.238 41.5841 163.238 42.0771C163.238 42.3118 163.167 42.5172 163.026 42.6933C162.885 42.8693 162.751 42.9867 162.621 43.0454C162.492 43.104 162.416 43.1334 162.393 43.1334L162.34 43.151C162.34 43.1627 162.375 43.1862 162.445 43.2214C162.516 43.2566 162.61 43.2977 162.727 43.3446C162.844 43.3916 162.956 43.4092 163.062 43.3974C163.484 43.3974 163.848 43.1334 164.153 42.6052C164.259 42.4174 164.394 42.0184 164.558 41.4081C164.722 40.7978 164.887 40.164 165.051 39.5068C165.215 38.8495 165.309 38.4622 165.333 38.3449C165.391 38.028 165.421 37.7991 165.421 37.6583C165.421 37.3296 165.333 37.0949 165.157 36.9541C164.98 36.8132 164.781 36.7428 164.558 36.7428C164.088 36.7428 163.648 36.9306 163.238 37.3062C162.827 37.6817 162.539 38.1629 162.375 38.7498C162.351 38.8554 162.322 38.9141 162.287 38.9258C162.252 38.9376 162.158 38.9493 162.005 38.961H161.759C161.688 38.8906 161.653 38.8261 161.653 38.7674Z" fill="black"/>
<path d="M172.164 41.1562C171.94 41.1562 171.762 41.0816 171.629 40.9322C171.496 40.7828 171.43 40.6003 171.43 40.3846C171.43 39.7954 171.65 39.2851 172.09 38.8536C172.529 38.4221 173.077 38.2064 173.733 38.2064C174.488 38.2064 175.118 38.4387 175.625 38.9034C176.131 39.3681 176.388 39.9697 176.396 40.7082C176.396 41.065 176.313 41.4052 176.147 41.7288C175.981 42.0524 175.782 42.3345 175.55 42.5752C175.318 42.8158 174.986 43.1228 174.554 43.4962C174.255 43.7534 173.841 44.1351 173.309 44.6413L172.575 45.3383L173.521 45.3508C174.824 45.3508 175.517 45.33 175.6 45.2885C175.658 45.2719 175.757 44.9027 175.898 44.1808V44.1434H176.396V44.1808C176.388 44.2057 176.334 44.5832 176.234 45.3134C176.135 46.0436 176.073 46.4253 176.048 46.4585V46.4958H171.43V46.2594V46.11C171.43 46.0519 171.455 45.9897 171.505 45.9233C171.554 45.8569 171.679 45.7117 171.878 45.4877C172.119 45.2221 172.326 44.9898 172.5 44.7907C172.575 44.7077 172.716 44.5542 172.924 44.3301C173.131 44.1061 173.272 43.9526 173.347 43.8696C173.421 43.7866 173.542 43.6497 173.708 43.4589C173.874 43.268 173.99 43.127 174.056 43.0357C174.123 42.9444 174.218 42.8199 174.343 42.6623C174.467 42.5046 174.554 42.3719 174.604 42.264C174.654 42.1561 174.716 42.0358 174.791 41.903C174.865 41.7703 174.919 41.6375 174.952 41.5047C174.986 41.372 175.015 41.2475 175.04 41.1313C175.064 41.0152 175.077 40.8783 175.077 40.7206C175.077 40.1979 174.936 39.7456 174.654 39.3639C174.372 38.9822 173.969 38.7914 173.446 38.7914C173.173 38.7914 172.932 38.8619 172.724 39.003C172.517 39.144 172.372 39.281 172.289 39.4137C172.206 39.5465 172.164 39.6253 172.164 39.6502C172.164 39.6585 172.185 39.6626 172.227 39.6626C172.376 39.6626 172.529 39.7207 172.687 39.8369C172.845 39.9531 172.924 40.1439 172.924 40.4094C172.924 40.6169 172.857 40.7911 172.724 40.9322C172.592 41.0733 172.405 41.1479 172.164 41.1562Z" fill="black"/>
<path d="M178.002 46.0602C178.002 46.0602 178.002 45.9565 178.002 45.749C178.002 45.5416 178.068 45.3632 178.201 45.2138C178.334 45.0645 178.512 44.9898 178.736 44.9898C178.969 44.9898 179.176 45.0935 179.359 45.301C179.541 45.5084 179.637 45.8735 179.645 46.3963C179.645 46.6867 179.607 46.9688 179.533 47.2426C179.458 47.5165 179.371 47.753 179.271 47.9521C179.172 48.1512 179.064 48.3213 178.948 48.4624C178.832 48.6035 178.732 48.7155 178.649 48.7985C178.566 48.8814 178.512 48.9188 178.487 48.9105C178.454 48.9105 178.4 48.8731 178.325 48.7985C178.251 48.7238 178.213 48.6699 178.213 48.6367C178.213 48.6035 178.259 48.5371 178.35 48.4375C178.442 48.3379 178.545 48.2135 178.662 48.0641C178.778 47.9148 178.886 47.7073 178.985 47.4418C179.085 47.1763 179.151 46.8734 179.184 46.5332V46.3838L179.172 46.3963C179.155 46.4046 179.134 46.4129 179.11 46.4212C179.085 46.4295 179.06 46.4419 179.035 46.4585C179.01 46.4751 178.973 46.4834 178.923 46.4834C178.873 46.4834 178.823 46.4875 178.774 46.4958C178.549 46.4958 178.367 46.4253 178.226 46.2842L178.002 46.0602Z" fill="black"/>
<path d="M180.777 42.9236C180.786 42.8987 180.794 42.8655 180.802 42.824C180.811 42.7825 180.831 42.6912 180.865 42.5502C180.898 42.4091 180.939 42.2805 180.989 42.1643C181.039 42.0482 181.101 41.9112 181.176 41.7536C181.25 41.5959 181.333 41.4715 181.425 41.3802C181.516 41.2889 181.624 41.1976 181.748 41.1064C181.873 41.0151 182.01 40.9777 182.159 40.9943C182.781 40.9943 183.18 41.2599 183.354 41.7909L183.478 41.6789C183.993 41.2225 184.482 40.9943 184.947 40.9943C185.486 40.9943 185.91 41.1893 186.217 41.5793C186.524 41.9693 186.677 42.4423 186.677 42.9982C186.677 43.8944 186.362 44.72 185.731 45.4751C185.101 46.2302 184.387 46.6119 183.59 46.6202C183.408 46.6202 183.246 46.5953 183.105 46.5455C183.014 46.5041 182.918 46.4418 182.819 46.3588C182.719 46.2759 182.64 46.2053 182.582 46.1472L182.495 46.0477C182.487 46.056 182.395 46.4169 182.221 47.1305C182.047 47.8441 181.96 48.2051 181.96 48.2134C181.96 48.2632 181.993 48.2922 182.059 48.3005C182.126 48.3088 182.279 48.3213 182.52 48.3379H182.831C182.881 48.3959 182.906 48.4333 182.906 48.4499C182.906 48.4665 182.893 48.5412 182.868 48.6739C182.844 48.7735 182.819 48.8357 182.794 48.8606C182.769 48.8855 182.715 48.9021 182.632 48.9104C182.615 48.9104 182.57 48.9104 182.495 48.9104C182.42 48.9104 182.279 48.9063 182.072 48.898C181.864 48.8897 181.607 48.8855 181.3 48.8855C180.719 48.8855 180.35 48.8938 180.192 48.9104H180.093C180.035 48.8523 180.006 48.8067 180.006 48.7735C180.022 48.5494 180.076 48.4042 180.168 48.3379H180.416C180.699 48.3296 180.86 48.2798 180.902 48.1885C180.927 48.1387 181.18 47.1471 181.661 45.2137C182.142 43.2804 182.395 42.2556 182.42 42.1394C182.429 42.0979 182.433 42.0399 182.433 41.9652C182.433 41.625 182.329 41.4549 182.122 41.4549C181.939 41.4549 181.786 41.571 181.661 41.8034C181.537 42.0357 181.441 42.2888 181.375 42.5626C181.308 42.8364 181.259 42.9858 181.225 43.0107C181.209 43.0273 181.143 43.0356 181.026 43.0356H180.852C180.802 42.9858 180.777 42.9485 180.777 42.9236ZM182.707 45.2262C182.889 45.8568 183.196 46.1721 183.628 46.1721C183.877 46.1721 184.117 46.0767 184.35 45.8859C184.582 45.695 184.773 45.4544 184.922 45.164C185.072 44.8818 185.221 44.4338 185.37 43.8197C185.52 43.2057 185.598 42.7493 185.607 42.4506V42.3759C185.607 41.7619 185.354 41.4549 184.847 41.4549C184.756 41.4549 184.665 41.4673 184.574 41.4922C184.482 41.5171 184.391 41.5544 184.3 41.6042C184.209 41.654 184.126 41.7079 184.051 41.766C183.976 41.8241 183.906 41.8863 183.839 41.9527C183.773 42.0191 183.711 42.0813 183.653 42.1394C183.595 42.1975 183.549 42.2556 183.516 42.3137C183.482 42.3718 183.449 42.4133 183.416 42.4381L183.379 42.4879C183.379 42.4962 183.366 42.5543 183.341 42.6622C183.317 42.7701 183.271 42.9526 183.205 43.2098C183.138 43.4671 183.08 43.6828 183.03 43.8571C182.815 44.7366 182.707 45.193 182.707 45.2262Z" fill="black"/>
<path d="M123.252 64.7555C123.252 64.4738 123.351 64.2273 123.551 64.0161C123.75 63.8048 124.003 63.6992 124.308 63.6992C124.59 63.6992 124.836 63.7931 125.047 63.9809C125.259 64.1686 125.37 64.421 125.382 64.7379C125.382 65.0313 125.282 65.2836 125.083 65.4949C124.883 65.7061 124.631 65.8118 124.326 65.8118C124.02 65.8118 123.768 65.712 123.569 65.5125C123.369 65.313 123.263 65.0606 123.252 64.7555ZM131.121 64.7555C131.121 64.4738 131.221 64.2273 131.42 64.0161C131.62 63.8048 131.872 63.6992 132.177 63.6992C132.459 63.6992 132.705 63.7931 132.917 63.9809C133.128 64.1686 133.239 64.421 133.251 64.7379C133.251 65.0313 133.151 65.2836 132.952 65.4949C132.752 65.7061 132.5 65.8118 132.195 65.8118C131.89 65.8118 131.637 65.712 131.438 65.5125C131.238 65.313 131.133 65.0606 131.121 64.7555ZM138.99 64.7555C138.99 64.4738 139.09 64.2273 139.29 64.0161C139.489 63.8048 139.742 63.6992 140.047 63.6992C140.328 63.6992 140.575 63.7931 140.786 63.9809C140.997 64.1686 141.109 64.421 141.121 64.7379C141.121 65.0313 141.021 65.2836 140.821 65.4949C140.622 65.7061 140.369 65.8118 140.064 65.8118C139.759 65.8118 139.507 65.712 139.307 65.5125C139.108 65.313 139.002 65.0606 138.99 64.7555Z" fill="black"/>
<path d="M53.5117 83.6281L53.2829 83.7161C53.1186 83.7748 52.8838 83.8335 52.5787 83.8922C52.2735 83.9509 51.9332 83.9919 51.5576 84.0154H51.2231V83.2056H51.5576C52.1092 83.1821 52.6198 83.0941 53.0892 82.9415C53.5587 82.7889 53.8873 82.6481 54.0751 82.519C54.2629 82.3899 54.4272 82.2608 54.568 82.1317C54.5915 82.0965 54.6619 82.0789 54.7793 82.0789C54.8849 82.0789 54.9847 82.1141 55.0786 82.1845V87.4484L55.0962 92.7298C55.1783 92.812 55.2488 92.8648 55.3074 92.8883C55.3661 92.9117 55.507 92.9352 55.73 92.9587C55.953 92.9822 56.3168 92.9939 56.8215 92.9939H57.2792V93.8037H57.0855C56.8391 93.7685 55.906 93.7509 54.2864 93.7509C52.6902 93.7509 51.7689 93.7685 51.5224 93.8037H51.3111V92.9939H51.7689C52.0271 92.9939 52.2501 92.9939 52.4378 92.9939C52.6256 92.9939 52.7723 92.988 52.878 92.9763C52.9836 92.9645 53.0775 92.9469 53.1596 92.9235C53.2418 92.9 53.2888 92.8883 53.3005 92.8883C53.3122 92.8883 53.3474 92.8589 53.4061 92.8002C53.4648 92.7416 53.5 92.7181 53.5117 92.7298V83.6281Z" fill="black"/>
<path d="M77.0847 88.7159C77.1668 88.2229 77.4837 87.6537 78.0353 87.0082C78.5869 86.3627 79.2677 86.034 80.0775 86.0223C80.4883 86.0223 80.8638 86.1279 81.2042 86.3392C81.5446 86.5505 81.7969 86.8145 81.9612 87.1314C82.4541 86.392 83.0468 86.0223 83.7393 86.0223C84.1735 86.0223 84.5491 86.1514 84.866 86.4096C85.1829 86.6678 85.3472 87.0141 85.3589 87.4483C85.3589 87.7887 85.2768 88.0645 85.1125 88.2757C84.9482 88.487 84.7897 88.6161 84.6371 88.663C84.4846 88.71 84.3496 88.7335 84.2322 88.7335C84.0092 88.7335 83.8273 88.6689 83.6865 88.5398C83.5456 88.4107 83.4752 88.2405 83.4752 88.0293C83.4752 87.4894 83.7686 87.1197 84.3555 86.9202C84.2264 86.7676 83.9916 86.6913 83.6513 86.6913C83.4987 86.6913 83.3872 86.703 83.3168 86.7265C82.8708 86.9143 82.5422 87.3016 82.3309 87.8884C81.6267 90.4822 81.2746 91.9962 81.2746 92.4305C81.2746 92.7591 81.3685 92.9938 81.5563 93.1347C81.7441 93.2755 81.9495 93.3459 82.1725 93.3459C82.6067 93.3459 83.0351 93.1523 83.4576 92.765C83.8801 92.3777 84.1677 91.9023 84.3202 91.339C84.3555 91.2216 84.3907 91.1571 84.4259 91.1453C84.4611 91.1336 84.555 91.1219 84.7076 91.1101H84.778C84.954 91.1101 85.042 91.1571 85.042 91.251C85.042 91.2627 85.0303 91.3272 85.0068 91.4446C84.8191 92.1136 84.4552 92.7063 83.9153 93.2227C83.3755 93.7391 82.7475 93.9973 82.0316 93.9973C81.2101 93.9973 80.588 93.6276 80.1655 92.8882C79.6843 93.6159 79.1327 93.9797 78.5106 93.9797H78.405C77.8299 93.9797 77.4191 93.8271 77.1727 93.522C76.9262 93.2168 76.7971 92.8941 76.7854 92.5537C76.7854 92.1781 76.8969 91.873 77.1199 91.6383C77.3429 91.4035 77.6069 91.2862 77.9121 91.2862C78.4168 91.2862 78.6691 91.5326 78.6691 92.0256C78.6691 92.2603 78.5987 92.4657 78.4578 92.6417C78.317 92.8178 78.182 92.9352 78.0529 92.9938C77.9238 93.0525 77.8475 93.0819 77.8241 93.0819L77.7712 93.0995C77.7712 93.1112 77.8065 93.1347 77.8769 93.1699C77.9473 93.2051 78.0412 93.2462 78.1585 93.2931C78.2759 93.3401 78.3874 93.3577 78.493 93.3459C78.9156 93.3459 79.2794 93.0819 79.5845 92.5537C79.6902 92.3659 79.8251 91.9669 79.9895 91.3566C80.1538 90.7463 80.3181 90.1125 80.4824 89.4553C80.6467 88.798 80.7406 88.4107 80.7641 88.2933C80.8228 87.9765 80.8521 87.7476 80.8521 87.6068C80.8521 87.2781 80.7641 87.0434 80.588 86.9026C80.412 86.7617 80.2124 86.6913 79.9895 86.6913C79.52 86.6913 79.0799 86.8791 78.6691 87.2547C78.2583 87.6302 77.9708 88.1114 77.8065 88.6983C77.783 88.8039 77.7536 88.8626 77.7184 88.8743C77.6832 88.886 77.5893 88.8978 77.4367 88.9095H77.1903C77.1199 88.8391 77.0847 88.7745 77.0847 88.7159Z" fill="black"/>
<path d="M86.5005 92.8722C86.5088 92.8224 86.5213 92.756 86.5379 92.6731C86.5545 92.5901 86.6043 92.4324 86.6872 92.2001C86.7702 91.9677 86.8532 91.7727 86.9362 91.6151C87.0192 91.4574 87.1561 91.3039 87.3469 91.1546C87.5378 91.0052 87.7286 90.9347 87.9195 90.943C88.2182 90.943 88.4671 91.0177 88.6663 91.167C88.8654 91.3164 88.9899 91.4574 89.0397 91.5902C89.0894 91.723 89.1143 91.8101 89.1143 91.8516C89.1143 91.8682 89.1185 91.8765 89.1268 91.8765L89.2637 91.7396C89.7699 91.2085 90.3466 90.943 90.9938 90.943C91.4419 90.943 91.8028 91.055 92.0766 91.279C92.3505 91.5031 92.4915 91.8308 92.4998 92.2623C92.5081 92.6938 92.3505 93.3452 92.0269 94.2164C91.7032 95.0877 91.5456 95.6146 91.5539 95.7972C91.5539 96.0129 91.6244 96.1208 91.7655 96.1208C91.8153 96.1208 91.8526 96.1166 91.8775 96.1083C92.1181 96.0668 92.3339 95.9092 92.5247 95.6354C92.7156 95.3615 92.8608 95.0296 92.9604 94.6396C92.9769 94.5732 93.0599 94.5401 93.2093 94.5401C93.3752 94.5401 93.4582 94.5732 93.4582 94.6396C93.4582 94.6479 93.4416 94.7102 93.4084 94.8263C93.3421 95.067 93.2508 95.3034 93.1346 95.5358C93.0184 95.7681 92.8276 96.0005 92.5621 96.2328C92.2965 96.4651 92.0103 96.5771 91.7032 96.5689C91.3132 96.5689 91.0311 96.4568 90.8569 96.2328C90.6826 96.0088 90.5955 95.7764 90.5955 95.5358C90.5955 95.3781 90.7449 94.8803 91.0436 94.0422C91.3423 93.2041 91.4958 92.5735 91.5041 92.1503C91.5041 91.6607 91.3215 91.4159 90.9564 91.4159H90.8942C90.1806 91.4159 89.579 91.835 89.0894 92.6731L89.0023 92.8224L88.5916 94.4903C88.3178 95.5773 88.1601 96.1623 88.1186 96.2452C88.0107 96.4693 87.8323 96.5813 87.5834 96.5813C87.4755 96.5813 87.3884 96.5564 87.322 96.5066C87.2556 96.4568 87.21 96.407 87.1851 96.3573C87.1602 96.3075 87.1519 96.266 87.1602 96.2328C87.1602 96.1249 87.3179 95.4487 87.6332 94.204C87.9485 92.9593 88.1145 92.2831 88.1311 92.1752C88.1394 92.1337 88.1435 92.0383 88.1435 91.8889C88.1435 91.5653 88.0439 91.4035 87.8448 91.4035C87.5295 91.4035 87.2681 91.8184 87.0606 92.6482C87.0109 92.8141 86.986 92.9012 86.986 92.9095C86.9694 92.9593 86.8905 92.9842 86.7495 92.9842H86.5752C86.5254 92.9344 86.5005 92.8971 86.5005 92.8722Z" fill="black"/>
<path d="M94.678 96.0087C94.678 96.0087 94.678 95.905 94.678 95.6975C94.678 95.4901 94.7444 95.3117 94.8771 95.1623C95.0099 95.013 95.1883 94.9383 95.4123 94.9383C95.6447 94.9383 95.8521 95.042 96.0347 95.2495C96.2172 95.4569 96.3126 95.822 96.3209 96.3448C96.3209 96.6352 96.2836 96.9173 96.2089 97.1911C96.1342 97.465 96.0471 97.7014 95.9475 97.9006C95.848 98.0997 95.7401 98.2698 95.6239 98.4109C95.5078 98.552 95.4082 98.664 95.3252 98.747C95.2422 98.8299 95.1883 98.8673 95.1634 98.859C95.1302 98.859 95.0763 98.8216 95.0016 98.747C94.9269 98.6723 94.8896 98.6183 94.8896 98.5851C94.8896 98.552 94.9352 98.4856 95.0265 98.386C95.1178 98.2864 95.2215 98.162 95.3377 98.0126C95.4538 97.8632 95.5617 97.6558 95.6613 97.3903C95.7608 97.1247 95.8272 96.8219 95.8604 96.4817V96.3323L95.848 96.3448C95.8314 96.3531 95.8106 96.3614 95.7857 96.3696C95.7608 96.3779 95.7359 96.3904 95.711 96.407C95.6862 96.4236 95.6488 96.4319 95.599 96.4319C95.5492 96.4319 95.4995 96.436 95.4497 96.4443C95.2256 96.4443 95.0431 96.3738 94.902 96.2327L94.678 96.0087Z" fill="black"/>
<path d="M99.8184 89.2502L99.6566 89.3124C99.5405 89.3539 99.3745 89.3954 99.1588 89.4369C98.943 89.4784 98.7024 89.5074 98.4369 89.524H98.2004V88.9515H98.4369C98.8269 88.9349 99.1878 88.8726 99.5197 88.7648C99.8516 88.6569 100.084 88.5573 100.217 88.466C100.349 88.3748 100.466 88.2835 100.565 88.1922C100.582 88.1673 100.632 88.1549 100.715 88.1549C100.789 88.1549 100.86 88.1798 100.926 88.2296V91.9511L100.939 95.6851C100.997 95.7432 101.047 95.7805 101.088 95.7971C101.129 95.8137 101.229 95.8303 101.387 95.8469C101.544 95.8635 101.802 95.8718 102.158 95.8718H102.482V96.4443H102.345C102.171 96.4194 101.511 96.407 100.366 96.407C99.2376 96.407 98.5862 96.4194 98.412 96.4443H98.2626V95.8718H98.5862C98.7688 95.8718 98.9264 95.8718 99.0592 95.8718C99.192 95.8718 99.2957 95.8676 99.3704 95.8593C99.445 95.851 99.5114 95.8386 99.5695 95.822C99.6276 95.8054 99.6608 95.7971 99.6691 95.7971C99.6774 95.7971 99.7023 95.7764 99.7438 95.7349C99.7852 95.6934 99.8101 95.6768 99.8184 95.6851V89.2502Z" fill="black"/>
<path d="M123.252 89.4024C123.252 89.1208 123.351 88.8743 123.551 88.663C123.75 88.4518 124.003 88.3462 124.308 88.3462C124.59 88.3462 124.836 88.44 125.047 88.6278C125.259 88.8156 125.37 89.068 125.382 89.3848C125.382 89.6783 125.282 89.9306 125.083 90.1419C124.883 90.3531 124.631 90.4587 124.326 90.4587C124.02 90.4587 123.768 90.359 123.569 90.1595C123.369 89.9599 123.263 89.7076 123.252 89.4024ZM131.121 89.4024C131.121 89.1208 131.221 88.8743 131.42 88.663C131.62 88.4518 131.872 88.3462 132.177 88.3462C132.459 88.3462 132.705 88.44 132.917 88.6278C133.128 88.8156 133.239 89.068 133.251 89.3848C133.251 89.6783 133.151 89.9306 132.952 90.1419C132.752 90.3531 132.5 90.4587 132.195 90.4587C131.89 90.4587 131.637 90.359 131.438 90.1595C131.238 89.9599 131.133 89.7076 131.121 89.4024ZM138.99 89.4024C138.99 89.1208 139.09 88.8743 139.29 88.663C139.489 88.4518 139.742 88.3462 140.047 88.3462C140.328 88.3462 140.575 88.44 140.786 88.6278C140.997 88.8156 141.109 89.068 141.121 89.3848C141.121 89.6783 141.021 89.9306 140.821 90.1419C140.622 90.3531 140.369 90.4587 140.064 90.4587C139.759 90.4587 139.507 90.359 139.307 90.1595C139.108 89.9599 139.002 89.7076 138.99 89.4024Z" fill="black"/>
<path d="M161.032 88.7159C161.114 88.2229 161.431 87.6537 161.982 87.0082C162.534 86.3627 163.215 86.034 164.025 86.0223C164.435 86.0223 164.811 86.1279 165.151 86.3392C165.492 86.5505 165.744 86.8145 165.908 87.1314C166.401 86.392 166.994 86.0223 167.686 86.0223C168.121 86.0223 168.496 86.1514 168.813 86.4096C169.13 86.6678 169.294 87.0141 169.306 87.4483C169.306 87.7887 169.224 88.0645 169.059 88.2757C168.895 88.487 168.737 88.6161 168.584 88.663C168.432 88.71 168.297 88.7335 168.179 88.7335C167.956 88.7335 167.774 88.6689 167.633 88.5398C167.493 88.4107 167.422 88.2405 167.422 88.0293C167.422 87.4894 167.716 87.1197 168.302 86.9202C168.173 86.7676 167.939 86.6913 167.598 86.6913C167.446 86.6913 167.334 86.703 167.264 86.7265C166.818 86.9143 166.489 87.3016 166.278 87.8884C165.574 90.4822 165.222 91.9962 165.222 92.4305C165.222 92.7591 165.316 92.9938 165.503 93.1347C165.691 93.2755 165.896 93.3459 166.119 93.3459C166.554 93.3459 166.982 93.1523 167.405 92.765C167.827 92.3777 168.115 91.9023 168.267 91.339C168.302 91.2216 168.338 91.1571 168.373 91.1453C168.408 91.1336 168.502 91.1219 168.655 91.1101H168.725C168.901 91.1101 168.989 91.1571 168.989 91.251C168.989 91.2627 168.977 91.3272 168.954 91.4446C168.766 92.1136 168.402 92.7063 167.862 93.2227C167.322 93.7391 166.695 93.9973 165.979 93.9973C165.157 93.9973 164.535 93.6276 164.113 92.8882C163.631 93.6159 163.08 93.9797 162.458 93.9797H162.352C161.777 93.9797 161.366 93.8271 161.12 93.522C160.873 93.2168 160.744 92.8941 160.732 92.5537C160.732 92.1781 160.844 91.873 161.067 91.6383C161.29 91.4035 161.554 91.2862 161.859 91.2862C162.364 91.2862 162.616 91.5326 162.616 92.0256C162.616 92.2603 162.546 92.4657 162.405 92.6417C162.264 92.8178 162.129 92.9352 162 92.9938C161.871 93.0525 161.795 93.0819 161.771 93.0819L161.718 93.0995C161.718 93.1112 161.753 93.1347 161.824 93.1699C161.894 93.2051 161.988 93.2462 162.106 93.2931C162.223 93.3401 162.334 93.3577 162.44 93.3459C162.863 93.3459 163.226 93.0819 163.532 92.5537C163.637 92.3659 163.772 91.9669 163.936 91.3566C164.101 90.7463 164.265 90.1125 164.429 89.4553C164.594 88.798 164.688 88.4107 164.711 88.2933C164.77 87.9765 164.799 87.7476 164.799 87.6068C164.799 87.2781 164.711 87.0434 164.535 86.9026C164.359 86.7617 164.159 86.6913 163.936 86.6913C163.467 86.6913 163.027 86.8791 162.616 87.2547C162.205 87.6302 161.918 88.1114 161.753 88.6983C161.73 88.8039 161.701 88.8626 161.665 88.8743C161.63 88.886 161.536 88.8978 161.384 88.9095H161.137C161.067 88.8391 161.032 88.7745 161.032 88.7159Z" fill="black"/>
<path d="M170.448 92.8722C170.456 92.8224 170.468 92.756 170.485 92.6731C170.502 92.5901 170.551 92.4324 170.634 92.2001C170.717 91.9677 170.8 91.7727 170.883 91.6151C170.966 91.4574 171.103 91.3039 171.294 91.1546C171.485 91.0052 171.676 90.9347 171.867 90.943C172.165 90.943 172.414 91.0177 172.613 91.167C172.812 91.3164 172.937 91.4574 172.987 91.5902C173.036 91.723 173.061 91.8101 173.061 91.8516C173.061 91.8682 173.066 91.8765 173.074 91.8765L173.211 91.7396C173.717 91.2085 174.294 90.943 174.941 90.943C175.389 90.943 175.75 91.055 176.024 91.279C176.298 91.5031 176.439 91.8308 176.447 92.2623C176.455 92.6938 176.298 93.3452 175.974 94.2164C175.65 95.0877 175.493 95.6146 175.501 95.7972C175.501 96.0129 175.571 96.1208 175.713 96.1208C175.762 96.1208 175.8 96.1166 175.825 96.1083C176.065 96.0668 176.281 95.9092 176.472 95.6354C176.663 95.3615 176.808 95.0296 176.907 94.6396C176.924 94.5732 177.007 94.5401 177.156 94.5401C177.322 94.5401 177.405 94.5732 177.405 94.6396C177.405 94.6479 177.389 94.7102 177.355 94.8263C177.289 95.067 177.198 95.3034 177.082 95.5358C176.965 95.7681 176.775 96.0005 176.509 96.2328C176.244 96.4651 175.957 96.5771 175.65 96.5689C175.26 96.5689 174.978 96.4568 174.804 96.2328C174.63 96.0088 174.543 95.7764 174.543 95.5358C174.543 95.3781 174.692 94.8803 174.991 94.0422C175.289 93.2041 175.443 92.5735 175.451 92.1503C175.451 91.6607 175.269 91.4159 174.903 91.4159H174.841C174.128 91.4159 173.526 91.835 173.036 92.6731L172.949 92.8224L172.539 94.4903C172.265 95.5773 172.107 96.1623 172.066 96.2452C171.958 96.4693 171.779 96.5813 171.53 96.5813C171.423 96.5813 171.335 96.5564 171.269 96.5066C171.203 96.4568 171.157 96.407 171.132 96.3573C171.107 96.3075 171.099 96.266 171.107 96.2328C171.107 96.1249 171.265 95.4487 171.58 94.204C171.896 92.9593 172.061 92.2831 172.078 92.1752C172.086 92.1337 172.091 92.0383 172.091 91.8889C172.091 91.5653 171.991 91.4035 171.792 91.4035C171.477 91.4035 171.215 91.8184 171.008 92.6482C170.958 92.8141 170.933 92.9012 170.933 92.9095C170.916 92.9593 170.838 92.9842 170.697 92.9842H170.522C170.472 92.9344 170.448 92.8971 170.448 92.8722Z" fill="black"/>
<path d="M178.625 96.0087C178.625 96.0087 178.625 95.905 178.625 95.6975C178.625 95.4901 178.691 95.3117 178.824 95.1623C178.957 95.013 179.135 94.9383 179.359 94.9383C179.592 94.9383 179.799 95.042 179.982 95.2495C180.164 95.4569 180.26 95.822 180.268 96.3448C180.268 96.6352 180.231 96.9173 180.156 97.1911C180.081 97.465 179.994 97.7014 179.895 97.9006C179.795 98.0997 179.687 98.2698 179.571 98.4109C179.455 98.552 179.355 98.664 179.272 98.747C179.189 98.8299 179.135 98.8673 179.11 98.859C179.077 98.859 179.023 98.8216 178.949 98.747C178.874 98.6723 178.837 98.6183 178.837 98.5851C178.837 98.552 178.882 98.4856 178.974 98.386C179.065 98.2864 179.169 98.162 179.285 98.0126C179.401 97.8632 179.509 97.6558 179.608 97.3903C179.708 97.1247 179.774 96.8219 179.807 96.4817V96.3323L179.795 96.3448C179.778 96.3531 179.758 96.3614 179.733 96.3696C179.708 96.3779 179.683 96.3904 179.658 96.407C179.633 96.4236 179.596 96.4319 179.546 96.4319C179.496 96.4319 179.447 96.436 179.397 96.4443C179.173 96.4443 178.99 96.3738 178.849 96.2327L178.625 96.0087Z" fill="black"/>
<path d="M181.401 92.8721C181.409 92.8472 181.417 92.814 181.426 92.7725C181.434 92.731 181.455 92.6397 181.488 92.4987C181.521 92.3576 181.562 92.229 181.612 92.1128C181.662 91.9966 181.724 91.8597 181.799 91.7021C181.874 91.5444 181.957 91.4199 182.048 91.3287C182.139 91.2374 182.247 91.1461 182.371 91.0548C182.496 90.9636 182.633 90.9262 182.782 90.9428C183.405 90.9428 183.803 91.2084 183.977 91.7394L184.102 91.6274C184.616 91.171 185.106 90.9428 185.57 90.9428C186.11 90.9428 186.533 91.1378 186.84 91.5278C187.147 91.9178 187.3 92.3908 187.3 92.9467C187.3 93.8429 186.985 94.6685 186.354 95.4236C185.724 96.1787 185.01 96.5604 184.214 96.5687C184.031 96.5687 183.869 96.5438 183.728 96.494C183.637 96.4525 183.541 96.3903 183.442 96.3073C183.342 96.2243 183.263 96.1538 183.205 96.0957L183.118 95.9962C183.11 96.0045 183.019 96.3654 182.844 97.079C182.67 97.7926 182.583 98.1536 182.583 98.1619C182.583 98.2117 182.616 98.2407 182.683 98.249C182.749 98.2573 182.903 98.2697 183.143 98.2863H183.454C183.504 98.3444 183.529 98.3818 183.529 98.3984C183.529 98.415 183.517 98.4896 183.492 98.6224C183.467 98.722 183.442 98.7842 183.417 98.8091C183.392 98.834 183.338 98.8506 183.255 98.8589C183.239 98.8589 183.193 98.8589 183.118 98.8589C183.044 98.8589 182.903 98.8547 182.695 98.8464C182.488 98.8381 182.23 98.834 181.923 98.834C181.343 98.834 180.973 98.8423 180.816 98.8589H180.716C180.658 98.8008 180.629 98.7552 180.629 98.722C180.646 98.4979 180.699 98.3527 180.791 98.2863H181.04C181.322 98.278 181.484 98.2283 181.525 98.137C181.55 98.0872 181.803 97.0956 182.284 95.1622C182.766 93.2289 183.019 92.2041 183.044 92.0879C183.052 92.0464 183.056 91.9883 183.056 91.9137C183.056 91.5735 182.952 91.4034 182.745 91.4034C182.562 91.4034 182.409 91.5195 182.284 91.7519C182.16 91.9842 182.064 92.2373 181.998 92.5111C181.932 92.7849 181.882 92.9343 181.849 92.9592C181.832 92.9758 181.766 92.9841 181.65 92.9841H181.475C181.426 92.9343 181.401 92.8969 181.401 92.8721ZM183.33 95.1747C183.512 95.8053 183.819 96.1206 184.251 96.1206C184.5 96.1206 184.74 96.0252 184.973 95.8344C185.205 95.6435 185.396 95.4029 185.545 95.1124C185.695 94.8303 185.844 94.3822 185.993 93.7682C186.143 93.1542 186.222 92.6978 186.23 92.3991V92.3244C186.23 91.7104 185.977 91.4034 185.471 91.4034C185.379 91.4034 185.288 91.4158 185.197 91.4407C185.106 91.4656 185.014 91.5029 184.923 91.5527C184.832 91.6025 184.749 91.6564 184.674 91.7145C184.599 91.7726 184.529 91.8348 184.462 91.9012C184.396 91.9676 184.334 92.0298 184.276 92.0879C184.218 92.146 184.172 92.2041 184.139 92.2622C184.106 92.3203 184.072 92.3617 184.039 92.3866L184.002 92.4364C184.002 92.4447 183.99 92.5028 183.965 92.6107C183.94 92.7185 183.894 92.9011 183.828 93.1583C183.761 93.4156 183.703 93.6313 183.653 93.8056C183.438 94.6851 183.33 95.1415 183.33 95.1747Z" fill="black"/>
<path d="M188.258 6.82842V5.34961H194.366V37.0208H192.888V6.82842H188.258Z" fill="black"/>
<path d="M192.888 96.8672V56.1885H194.366V98.8596H188.258V96.8672H192.888Z" fill="black"/>
<g clip-path="url(#clip1_1125_629)">
<path d="M192.888 64.928V14.3961H194.366V64.928H192.888Z" fill="black"/>
</g>
<rect x="46.5" y="28.5" width="144" height="23" stroke="#1F77B4"/>
<rect x="72.5" y="0.5" width="35" height="100" stroke="#E99D42"/>
<path d="M200.957 40H207.068V38.8926H202.188V35.502H206.815V34.4082H202.188V31.2432H207.068V30.1357H200.957V40ZM210.589 40.1367C211.539 40.1367 212.394 39.624 212.811 38.8447H212.838V40H214.027V35.085C214.027 33.6631 212.975 32.7539 211.293 32.7539C209.618 32.7539 208.6 33.6973 208.497 34.8662L208.49 34.9414H209.639L209.652 34.8799C209.789 34.2441 210.363 33.8066 211.279 33.8066C212.271 33.8066 212.838 34.333 212.838 35.2012V35.7959L210.801 35.9121C209.167 36.0078 208.224 36.7666 208.224 37.9766V37.9902C208.224 39.2822 209.174 40.1367 210.589 40.1367ZM209.44 37.9902V37.9766C209.44 37.3135 209.987 36.8896 210.938 36.835L212.838 36.7188V37.2998C212.838 38.332 211.977 39.1045 210.855 39.1045C210.001 39.1045 209.44 38.6738 209.44 37.9902ZM218.484 40.1367C220.091 40.1367 221.26 39.0908 221.451 37.7373L221.458 37.6895H220.289L220.275 37.7441C220.077 38.5371 219.455 39.084 218.484 39.084C217.254 39.084 216.406 38.1064 216.406 36.4521V36.4453C216.406 34.832 217.233 33.8066 218.471 33.8066C219.517 33.8066 220.091 34.4355 220.269 35.1465L220.282 35.2012H221.444L221.438 35.1465C221.287 33.9297 220.241 32.7539 218.471 32.7539C216.495 32.7539 215.189 34.1895 215.189 36.4316V36.4385C215.189 38.7012 216.468 40.1367 218.484 40.1367ZM222.613 40H223.803V35.8506C223.803 34.6406 224.534 33.8066 225.635 33.8066C226.742 33.8066 227.398 34.5654 227.398 35.8506V40H228.588V35.6455C228.588 33.9229 227.556 32.7539 226.045 32.7539C224.985 32.7539 224.213 33.2256 223.83 34.0254H223.803V30.1357H222.613V40ZM232.97 40H234.159V35.5566C234.159 34.5518 234.761 33.8887 235.684 33.8887C235.971 33.8887 236.224 33.9229 236.319 33.957V32.8018C236.224 32.7881 236.046 32.7539 235.841 32.7539C235.007 32.7539 234.351 33.2529 234.118 34.0391H234.091V32.8906H232.97V40ZM239.895 40.1367C241.856 40.1367 243.183 38.7148 243.183 36.4453V36.4316C243.183 34.1621 241.85 32.7539 239.888 32.7539C237.926 32.7539 236.6 34.1689 236.6 36.4316V36.4453C236.6 38.708 237.919 40.1367 239.895 40.1367ZM239.901 39.084C238.644 39.084 237.816 38.1201 237.816 36.4453V36.4316C237.816 34.7705 238.65 33.8066 239.888 33.8066C241.146 33.8066 241.966 34.7637 241.966 36.4316V36.4453C241.966 38.1133 241.152 39.084 239.901 39.084ZM245.794 40H247.004L248.604 34.4971H248.631L250.237 40H251.447L253.43 32.8906H252.254L250.832 38.6738H250.805L249.191 32.8906H248.043L246.437 38.6738H246.409L244.987 32.8906H243.805L245.794 40ZM257.948 31.6875C258.365 31.6875 258.693 31.3525 258.693 30.9424C258.693 30.5254 258.365 30.1973 257.948 30.1973C257.538 30.1973 257.203 30.5254 257.203 30.9424C257.203 31.3525 257.538 31.6875 257.948 31.6875ZM257.354 40H258.543V32.8906H257.354V40ZM262.686 40.1367C264.271 40.1367 265.447 39.2617 265.447 38.0176V38.0107C265.447 36.999 264.928 36.4316 263.492 36.083L262.364 35.8096C261.578 35.6182 261.257 35.2832 261.257 34.7979V34.791C261.257 34.1621 261.79 33.7451 262.651 33.7451C263.533 33.7451 264.06 34.2031 264.155 34.8936L264.162 34.9414H265.297L265.29 34.8525C265.201 33.6631 264.21 32.7539 262.651 32.7539C261.113 32.7539 260.04 33.6221 260.04 34.8457V34.8525C260.04 35.8779 260.689 36.5 262.029 36.8213L263.157 37.0947C263.964 37.293 264.23 37.5801 264.23 38.0928V38.0996C264.23 38.7422 263.656 39.1455 262.692 39.1455C261.722 39.1455 261.195 38.7285 261.052 38.0176L261.038 37.9492H259.849L259.855 38.0107C259.999 39.2822 261.011 40.1367 262.686 40.1367ZM272.502 40.1367C274.464 40.1367 275.79 38.7148 275.79 36.4453V36.4316C275.79 34.1621 274.457 32.7539 272.495 32.7539C270.533 32.7539 269.207 34.1689 269.207 36.4316V36.4453C269.207 38.708 270.526 40.1367 272.502 40.1367ZM272.509 39.084C271.251 39.084 270.424 38.1201 270.424 36.4453V36.4316C270.424 34.7705 271.258 33.8066 272.495 33.8066C273.753 33.8066 274.573 34.7637 274.573 36.4316V36.4453C274.573 38.1133 273.76 39.084 272.509 39.084ZM276.993 40H278.183V35.8164C278.183 34.6064 278.914 33.8066 280.035 33.8066C281.129 33.8066 281.669 34.4424 281.669 35.5977V40H282.858V35.3857C282.858 33.7656 281.956 32.7539 280.397 32.7539C279.317 32.7539 278.593 33.2393 278.21 33.9023H278.183V32.8906H276.993V40ZM287.302 40.1367C288.854 40.1367 290.016 39.207 290.248 38.0312L290.262 37.9629H289.093L289.072 38.0244C288.867 38.6328 288.231 39.084 287.329 39.084C286.064 39.084 285.258 38.2295 285.23 36.7666H290.351V36.3291C290.351 34.1963 289.168 32.7539 287.227 32.7539C285.285 32.7539 284.027 34.2646 284.027 36.4658V36.4727C284.027 38.708 285.258 40.1367 287.302 40.1367ZM287.22 33.8066C288.259 33.8066 289.024 34.4561 289.141 35.8369H285.251C285.381 34.5107 286.188 33.8066 287.22 33.8066ZM203.719 57.1367C205.681 57.1367 207.007 55.7148 207.007 53.4453V53.4316C207.007 51.1621 205.674 49.7539 203.712 49.7539C201.75 49.7539 200.424 51.1689 200.424 53.4316V53.4453C200.424 55.708 201.743 57.1367 203.719 57.1367ZM203.726 56.084C202.468 56.084 201.641 55.1201 201.641 53.4453V53.4316C201.641 51.7705 202.475 50.8066 203.712 50.8066C204.97 50.8066 205.79 51.7637 205.79 53.4316V53.4453C205.79 55.1133 204.977 56.084 203.726 56.084ZM211.744 57.1367C213.562 57.1367 214.766 55.6875 214.766 53.4453V53.4385C214.766 51.1963 213.549 49.7539 211.765 49.7539C210.76 49.7539 209.933 50.2598 209.488 51.0801H209.461V47.1357H208.271V57H209.461V55.7969H209.488C209.933 56.624 210.726 57.1367 211.744 57.1367ZM211.512 56.084C210.309 56.084 209.454 55.0381 209.454 53.4453V53.4385C209.454 51.8525 210.315 50.8066 211.512 50.8066C212.77 50.8066 213.549 51.8184 213.549 53.4385V53.4453C213.549 55.0791 212.77 56.084 211.512 56.084ZM218.484 57.1367C220.07 57.1367 221.246 56.2617 221.246 55.0176V55.0107C221.246 53.999 220.727 53.4316 219.291 53.083L218.163 52.8096C217.377 52.6182 217.056 52.2832 217.056 51.7979V51.791C217.056 51.1621 217.589 50.7451 218.45 50.7451C219.332 50.7451 219.858 51.2031 219.954 51.8936L219.961 51.9414H221.096L221.089 51.8525C221 50.6631 220.009 49.7539 218.45 49.7539C216.912 49.7539 215.839 50.6221 215.839 51.8457V51.8525C215.839 52.8779 216.488 53.5 217.828 53.8213L218.956 54.0947C219.763 54.293 220.029 54.5801 220.029 55.0928V55.0996C220.029 55.7422 219.455 56.1455 218.491 56.1455C217.521 56.1455 216.994 55.7285 216.851 55.0176L216.837 54.9492H215.647L215.654 55.0107C215.798 56.2822 216.81 57.1367 218.484 57.1367ZM225.409 57.1367C226.961 57.1367 228.123 56.207 228.355 55.0312L228.369 54.9629H227.2L227.18 55.0244C226.975 55.6328 226.339 56.084 225.437 56.084C224.172 56.084 223.365 55.2295 223.338 53.7666H228.458V53.3291C228.458 51.1963 227.275 49.7539 225.334 49.7539C223.393 49.7539 222.135 51.2646 222.135 53.4658V53.4727C222.135 55.708 223.365 57.1367 225.409 57.1367ZM225.327 50.8066C226.366 50.8066 227.132 51.4561 227.248 52.8369H223.358C223.488 51.5107 224.295 50.8066 225.327 50.8066ZM229.661 57H230.851V52.5566C230.851 51.5518 231.452 50.8887 232.375 50.8887C232.662 50.8887 232.915 50.9229 233.011 50.957V49.8018C232.915 49.7881 232.737 49.7539 232.532 49.7539C231.698 49.7539 231.042 50.2529 230.81 51.0391H230.782V49.8906H229.661V57ZM235.984 57H237.201L239.812 49.8906H238.575L236.606 55.7354H236.579L234.617 49.8906H233.366L235.984 57ZM242.69 57.1367C243.641 57.1367 244.495 56.624 244.912 55.8447H244.939V57H246.129V52.085C246.129 50.6631 245.076 49.7539 243.395 49.7539C241.72 49.7539 240.701 50.6973 240.599 51.8662L240.592 51.9414H241.74L241.754 51.8799C241.891 51.2441 242.465 50.8066 243.381 50.8066C244.372 50.8066 244.939 51.333 244.939 52.2012V52.7959L242.902 52.9121C241.269 53.0078 240.325 53.7666 240.325 54.9766V54.9902C240.325 56.2822 241.275 57.1367 242.69 57.1367ZM241.542 54.9902V54.9766C241.542 54.3135 242.089 53.8896 243.039 53.835L244.939 53.7188V54.2998C244.939 55.332 244.078 56.1045 242.957 56.1045C242.103 56.1045 241.542 55.6738 241.542 54.9902ZM249.95 57.1367C250.183 57.1367 250.436 57.1094 250.586 57.0889V56.125C250.483 56.1318 250.347 56.1523 250.203 56.1523C249.567 56.1523 249.232 55.9404 249.232 55.1816V50.875H250.586V49.8906H249.232V47.9697H248.002V49.8906H246.963V50.875H248.002V55.1885C248.002 56.5488 248.645 57.1367 249.95 57.1367ZM252.534 48.6875C252.951 48.6875 253.279 48.3525 253.279 47.9424C253.279 47.5254 252.951 47.1973 252.534 47.1973C252.124 47.1973 251.789 47.5254 251.789 47.9424C251.789 48.3525 252.124 48.6875 252.534 48.6875ZM251.939 57H253.129V49.8906H251.939V57ZM257.695 57.1367C259.657 57.1367 260.983 55.7148 260.983 53.4453V53.4316C260.983 51.1621 259.65 49.7539 257.688 49.7539C255.727 49.7539 254.4 51.1689 254.4 53.4316V53.4453C254.4 55.708 255.72 57.1367 257.695 57.1367ZM257.702 56.084C256.444 56.084 255.617 55.1201 255.617 53.4453V53.4316C255.617 51.7705 256.451 50.8066 257.688 50.8066C258.946 50.8066 259.767 51.7637 259.767 53.4316V53.4453C259.767 55.1133 258.953 56.084 257.702 56.084ZM262.187 57H263.376V52.8164C263.376 51.6064 264.107 50.8066 265.229 50.8066C266.322 50.8066 266.862 51.4424 266.862 52.5977V57H268.052V52.3857C268.052 50.7656 267.149 49.7539 265.591 49.7539C264.511 49.7539 263.786 50.2393 263.403 50.9023H263.376V49.8906H262.187V57ZM270.301 57.0957C270.738 57.0957 271.08 56.7539 271.08 56.3164C271.08 55.8789 270.738 55.5371 270.301 55.5371C269.863 55.5371 269.521 55.8789 269.521 56.3164C269.521 56.7539 269.863 57.0957 270.301 57.0957Z" fill="black"/>
<path d="M9.0459 122H15.1572V120.893H10.2764V117.502H14.9043V116.408H10.2764V113.243H15.1572V112.136H9.0459V122ZM18.6777 122.137C19.6279 122.137 20.4824 121.624 20.8994 120.845H20.9268V122H22.1162V117.085C22.1162 115.663 21.0635 114.754 19.3818 114.754C17.707 114.754 16.6885 115.697 16.5859 116.866L16.5791 116.941H17.7275L17.7412 116.88C17.8779 116.244 18.4521 115.807 19.3682 115.807C20.3594 115.807 20.9268 116.333 20.9268 117.201V117.796L18.8896 117.912C17.2559 118.008 16.3125 118.767 16.3125 119.977V119.99C16.3125 121.282 17.2627 122.137 18.6777 122.137ZM17.5293 119.99V119.977C17.5293 119.313 18.0762 118.89 19.0264 118.835L20.9268 118.719V119.3C20.9268 120.332 20.0654 121.104 18.9443 121.104C18.0898 121.104 17.5293 120.674 17.5293 119.99ZM26.5732 122.137C28.1797 122.137 29.3486 121.091 29.54 119.737L29.5469 119.689H28.3779L28.3643 119.744C28.166 120.537 27.5439 121.084 26.5732 121.084C25.3428 121.084 24.4951 120.106 24.4951 118.452V118.445C24.4951 116.832 25.3223 115.807 26.5596 115.807C27.6055 115.807 28.1797 116.436 28.3574 117.146L28.3711 117.201H29.5332L29.5264 117.146C29.376 115.93 28.3301 114.754 26.5596 114.754C24.584 114.754 23.2783 116.189 23.2783 118.432V118.438C23.2783 120.701 24.5566 122.137 26.5732 122.137ZM30.7021 122H31.8916V117.851C31.8916 116.641 32.623 115.807 33.7236 115.807C34.8311 115.807 35.4873 116.565 35.4873 117.851V122H36.6768V117.646C36.6768 115.923 35.6445 114.754 34.1338 114.754C33.0742 114.754 32.3018 115.226 31.9189 116.025H31.8916V112.136H30.7021V122ZM44.0049 122.137C45.6113 122.137 46.7803 121.091 46.9717 119.737L46.9785 119.689H45.8096L45.7959 119.744C45.5977 120.537 44.9756 121.084 44.0049 121.084C42.7744 121.084 41.9268 120.106 41.9268 118.452V118.445C41.9268 116.832 42.7539 115.807 43.9912 115.807C45.0371 115.807 45.6113 116.436 45.7891 117.146L45.8027 117.201H46.9648L46.958 117.146C46.8076 115.93 45.7617 114.754 43.9912 114.754C42.0156 114.754 40.71 116.189 40.71 118.432V118.438C40.71 120.701 41.9883 122.137 44.0049 122.137ZM51.0186 122.137C52.9805 122.137 54.3066 120.715 54.3066 118.445V118.432C54.3066 116.162 52.9736 114.754 51.0117 114.754C49.0498 114.754 47.7236 116.169 47.7236 118.432V118.445C47.7236 120.708 49.043 122.137 51.0186 122.137ZM51.0254 121.084C49.7676 121.084 48.9404 120.12 48.9404 118.445V118.432C48.9404 116.771 49.7744 115.807 51.0117 115.807C52.2695 115.807 53.0898 116.764 53.0898 118.432V118.445C53.0898 120.113 52.2764 121.084 51.0254 121.084ZM55.5713 122H56.7607V112.136H55.5713V122ZM60.7939 122.137C61.874 122.137 62.5986 121.651 62.9814 120.988H63.0088V122H64.1982V114.891H63.0088V119.074C63.0088 120.284 62.2773 121.084 61.1562 121.084C60.0625 121.084 59.5225 120.448 59.5225 119.293V114.891H58.333V119.505C58.333 121.125 59.2354 122.137 60.7939 122.137ZM65.75 122H66.9395V117.543C66.9395 116.552 67.623 115.807 68.5664 115.807C69.4482 115.807 70.0225 116.374 70.0225 117.235V122H71.2119V117.481C71.2119 116.511 71.875 115.807 72.8184 115.807C73.7549 115.807 74.2949 116.388 74.2949 117.365V122H75.4844V117.092C75.4844 115.677 74.5752 114.754 73.167 114.754C72.1689 114.754 71.335 115.267 70.9385 116.121H70.9111C70.6035 115.253 69.8857 114.754 68.915 114.754C67.999 114.754 67.2881 115.226 66.9668 115.93H66.9395V114.891H65.75V122ZM77.002 122H78.1914V117.816C78.1914 116.606 78.9229 115.807 80.0439 115.807C81.1377 115.807 81.6777 116.442 81.6777 117.598V122H82.8672V117.386C82.8672 115.766 81.9648 114.754 80.4062 114.754C79.3262 114.754 78.6016 115.239 78.2188 115.902H78.1914V114.891H77.002V122ZM87.9258 113.688C88.3428 113.688 88.6709 113.353 88.6709 112.942C88.6709 112.525 88.3428 112.197 87.9258 112.197C87.5156 112.197 87.1807 112.525 87.1807 112.942C87.1807 113.353 87.5156 113.688 87.9258 113.688ZM87.3311 122H88.5205V114.891H87.3311V122ZM92.6631 122.137C94.249 122.137 95.4248 121.262 95.4248 120.018V120.011C95.4248 118.999 94.9053 118.432 93.4697 118.083L92.3418 117.81C91.5557 117.618 91.2344 117.283 91.2344 116.798V116.791C91.2344 116.162 91.7676 115.745 92.6289 115.745C93.5107 115.745 94.0371 116.203 94.1328 116.894L94.1396 116.941H95.2744L95.2676 116.853C95.1787 115.663 94.1875 114.754 92.6289 114.754C91.0908 114.754 90.0176 115.622 90.0176 116.846V116.853C90.0176 117.878 90.667 118.5 92.0068 118.821L93.1348 119.095C93.9414 119.293 94.208 119.58 94.208 120.093V120.1C94.208 120.742 93.6338 121.146 92.6699 121.146C91.6992 121.146 91.1729 120.729 91.0293 120.018L91.0156 119.949H89.8262L89.833 120.011C89.9766 121.282 90.9883 122.137 92.6631 122.137ZM102.479 122.137C104.441 122.137 105.768 120.715 105.768 118.445V118.432C105.768 116.162 104.435 114.754 102.473 114.754C100.511 114.754 99.1846 116.169 99.1846 118.432V118.445C99.1846 120.708 100.504 122.137 102.479 122.137ZM102.486 121.084C101.229 121.084 100.401 120.12 100.401 118.445V118.432C100.401 116.771 101.235 115.807 102.473 115.807C103.73 115.807 104.551 116.764 104.551 118.432V118.445C104.551 120.113 103.737 121.084 102.486 121.084ZM106.971 122H108.16V117.816C108.16 116.606 108.892 115.807 110.013 115.807C111.106 115.807 111.646 116.442 111.646 117.598V122H112.836V117.386C112.836 115.766 111.934 114.754 110.375 114.754C109.295 114.754 108.57 115.239 108.188 115.902H108.16V114.891H106.971V122ZM117.279 122.137C118.831 122.137 119.993 121.207 120.226 120.031L120.239 119.963H119.07L119.05 120.024C118.845 120.633 118.209 121.084 117.307 121.084C116.042 121.084 115.235 120.229 115.208 118.767H120.328V118.329C120.328 116.196 119.146 114.754 117.204 114.754C115.263 114.754 114.005 116.265 114.005 118.466V118.473C114.005 120.708 115.235 122.137 117.279 122.137ZM117.197 115.807C118.236 115.807 119.002 116.456 119.118 117.837H115.229C115.358 116.511 116.165 115.807 117.197 115.807ZM124.402 124.393H125.592V120.811H125.619C126.063 121.631 126.891 122.137 127.896 122.137C129.68 122.137 130.896 120.694 130.896 118.452V118.445C130.896 116.203 129.693 114.754 127.875 114.754C126.856 114.754 126.063 115.267 125.619 116.094H125.592V114.891H124.402V124.393ZM127.643 121.084C126.446 121.084 125.585 120.038 125.585 118.452V118.445C125.585 116.853 126.439 115.807 127.643 115.807C128.9 115.807 129.68 116.812 129.68 118.445V118.452C129.68 120.072 128.9 121.084 127.643 121.084ZM132.1 122H133.289V117.557C133.289 116.552 133.891 115.889 134.813 115.889C135.101 115.889 135.354 115.923 135.449 115.957V114.802C135.354 114.788 135.176 114.754 134.971 114.754C134.137 114.754 133.48 115.253 133.248 116.039H133.221V114.891H132.1V122ZM139.004 122.137C140.556 122.137 141.718 121.207 141.95 120.031L141.964 119.963H140.795L140.774 120.024C140.569 120.633 139.934 121.084 139.031 121.084C137.767 121.084 136.96 120.229 136.933 118.767H142.053V118.329C142.053 116.196 140.87 114.754 138.929 114.754C136.987 114.754 135.729 116.265 135.729 118.466V118.473C135.729 120.708 136.96 122.137 139.004 122.137ZM138.922 115.807C139.961 115.807 140.727 116.456 140.843 117.837H136.953C137.083 116.511 137.89 115.807 138.922 115.807ZM145.929 122.137C146.947 122.137 147.74 121.624 148.185 120.797H148.212V122H149.401V112.136H148.212V116.08H148.185C147.74 115.26 146.913 114.754 145.908 114.754C144.124 114.754 142.907 116.196 142.907 118.438V118.445C142.907 120.688 144.11 122.137 145.929 122.137ZM146.161 121.084C144.903 121.084 144.124 120.079 144.124 118.445V118.438C144.124 116.818 144.903 115.807 146.161 115.807C147.357 115.807 148.219 116.853 148.219 118.438V118.445C148.219 120.038 147.364 121.084 146.161 121.084ZM151.678 113.688C152.095 113.688 152.423 113.353 152.423 112.942C152.423 112.525 152.095 112.197 151.678 112.197C151.268 112.197 150.933 112.525 150.933 112.942C150.933 113.353 151.268 113.688 151.678 113.688ZM151.083 122H152.272V114.891H151.083V122ZM156.839 122.137C158.445 122.137 159.614 121.091 159.806 119.737L159.812 119.689H158.644L158.63 119.744C158.432 120.537 157.81 121.084 156.839 121.084C155.608 121.084 154.761 120.106 154.761 118.452V118.445C154.761 116.832 155.588 115.807 156.825 115.807C157.871 115.807 158.445 116.436 158.623 117.146L158.637 117.201H159.799L159.792 117.146C159.642 115.93 158.596 114.754 156.825 114.754C154.85 114.754 153.544 116.189 153.544 118.432V118.438C153.544 120.701 154.822 122.137 156.839 122.137ZM163.217 122.137C163.449 122.137 163.702 122.109 163.853 122.089V121.125C163.75 121.132 163.613 121.152 163.47 121.152C162.834 121.152 162.499 120.94 162.499 120.182V115.875H163.853V114.891H162.499V112.97H161.269V114.891H160.229V115.875H161.269V120.188C161.269 121.549 161.911 122.137 163.217 122.137ZM167.872 122.137C169.834 122.137 171.16 120.715 171.16 118.445V118.432C171.16 116.162 169.827 114.754 167.865 114.754C165.903 114.754 164.577 116.169 164.577 118.432V118.445C164.577 120.708 165.896 122.137 167.872 122.137ZM167.879 121.084C166.621 121.084 165.794 120.12 165.794 118.445V118.432C165.794 116.771 166.628 115.807 167.865 115.807C169.123 115.807 169.943 116.764 169.943 118.432V118.445C169.943 120.113 169.13 121.084 167.879 121.084ZM172.363 122H173.553V117.557C173.553 116.552 174.154 115.889 175.077 115.889C175.364 115.889 175.617 115.923 175.713 115.957V114.802C175.617 114.788 175.439 114.754 175.234 114.754C174.4 114.754 173.744 115.253 173.512 116.039H173.484V114.891H172.363V122ZM31.7822 139H32.999L35.6104 131.891H34.373L32.4043 137.735H32.377L30.415 131.891H29.1641L31.7822 139ZM38.4883 139.137C39.4385 139.137 40.293 138.624 40.71 137.845H40.7373V139H41.9268V134.085C41.9268 132.663 40.874 131.754 39.1924 131.754C37.5176 131.754 36.499 132.697 36.3965 133.866L36.3896 133.941H37.5381L37.5518 133.88C37.6885 133.244 38.2627 132.807 39.1787 132.807C40.1699 132.807 40.7373 133.333 40.7373 134.201V134.796L38.7002 134.912C37.0664 135.008 36.123 135.767 36.123 136.977V136.99C36.123 138.282 37.0732 139.137 38.4883 139.137ZM37.3398 136.99V136.977C37.3398 136.313 37.8867 135.89 38.8369 135.835L40.7373 135.719V136.3C40.7373 137.332 39.876 138.104 38.7549 138.104C37.9004 138.104 37.3398 137.674 37.3398 136.99ZM43.4375 139H44.627V134.557C44.627 133.552 45.2285 132.889 46.1514 132.889C46.4385 132.889 46.6914 132.923 46.7871 132.957V131.802C46.6914 131.788 46.5137 131.754 46.3086 131.754C45.4746 131.754 44.8184 132.253 44.5859 133.039H44.5586V131.891H43.4375V139ZM48.4277 130.688C48.8447 130.688 49.1729 130.353 49.1729 129.942C49.1729 129.525 48.8447 129.197 48.4277 129.197C48.0176 129.197 47.6826 129.525 47.6826 129.942C47.6826 130.353 48.0176 130.688 48.4277 130.688ZM47.833 139H49.0225V131.891H47.833V139ZM52.7207 139.137C53.6709 139.137 54.5254 138.624 54.9424 137.845H54.9697V139H56.1592V134.085C56.1592 132.663 55.1064 131.754 53.4248 131.754C51.75 131.754 50.7314 132.697 50.6289 133.866L50.6221 133.941H51.7705L51.7842 133.88C51.9209 133.244 52.4951 132.807 53.4111 132.807C54.4023 132.807 54.9697 133.333 54.9697 134.201V134.796L52.9326 134.912C51.2988 135.008 50.3555 135.767 50.3555 136.977V136.99C50.3555 138.282 51.3057 139.137 52.7207 139.137ZM51.5723 136.99V136.977C51.5723 136.313 52.1191 135.89 53.0693 135.835L54.9697 135.719V136.3C54.9697 137.332 54.1084 138.104 52.9873 138.104C52.1328 138.104 51.5723 137.674 51.5723 136.99ZM61.2041 139.137C63.0225 139.137 64.2256 137.688 64.2256 135.445V135.438C64.2256 133.196 63.0088 131.754 61.2246 131.754C60.2197 131.754 59.3926 132.26 58.9482 133.08H58.9209V129.136H57.7314V139H58.9209V137.797H58.9482C59.3926 138.624 60.1855 139.137 61.2041 139.137ZM60.9717 138.084C59.7686 138.084 58.9141 137.038 58.9141 135.445V135.438C58.9141 133.853 59.7754 132.807 60.9717 132.807C62.2295 132.807 63.0088 133.818 63.0088 135.438V135.445C63.0088 137.079 62.2295 138.084 60.9717 138.084ZM65.4834 139H66.6729V129.136H65.4834V139ZM71.2051 139.137C72.7568 139.137 73.9189 138.207 74.1514 137.031L74.165 136.963H72.9961L72.9756 137.024C72.7705 137.633 72.1348 138.084 71.2324 138.084C69.9678 138.084 69.1611 137.229 69.1338 135.767H74.2539V135.329C74.2539 133.196 73.0713 131.754 71.1299 131.754C69.1885 131.754 67.9307 133.265 67.9307 135.466V135.473C67.9307 137.708 69.1611 139.137 71.2051 139.137ZM71.123 132.807C72.1621 132.807 72.9277 133.456 73.0439 134.837H69.1543C69.2842 133.511 70.0908 132.807 71.123 132.807ZM80.7959 141.393H81.7939C80.8096 140.251 80.0645 137.544 80.0645 135.261C80.0645 132.978 80.8096 130.277 81.7939 129.136H80.7959C79.4629 130.831 78.8545 132.827 78.8545 135.261C78.8545 137.694 79.4629 139.704 80.7959 141.393ZM85.7861 139.137C87.748 139.137 89.0742 137.715 89.0742 135.445V135.432C89.0742 133.162 87.7412 131.754 85.7793 131.754C83.8174 131.754 82.4912 133.169 82.4912 135.432V135.445C82.4912 137.708 83.8105 139.137 85.7861 139.137ZM85.793 138.084C84.5352 138.084 83.708 137.12 83.708 135.445V135.432C83.708 133.771 84.542 132.807 85.7793 132.807C87.0371 132.807 87.8574 133.764 87.8574 135.432V135.445C87.8574 137.113 87.0439 138.084 85.793 138.084ZM90.2773 139H91.4668V134.816C91.4668 133.606 92.1982 132.807 93.3193 132.807C94.4131 132.807 94.9531 133.442 94.9531 134.598V139H96.1426V134.386C96.1426 132.766 95.2402 131.754 93.6816 131.754C92.6016 131.754 91.877 132.239 91.4941 132.902H91.4668V131.891H90.2773V139ZM100.586 139.137C102.138 139.137 103.3 138.207 103.532 137.031L103.546 136.963H102.377L102.356 137.024C102.151 137.633 101.516 138.084 100.613 138.084C99.3486 138.084 98.542 137.229 98.5146 135.767H103.635V135.329C103.635 133.196 102.452 131.754 100.511 131.754C98.5693 131.754 97.3115 133.265 97.3115 135.466V135.473C97.3115 137.708 98.542 139.137 100.586 139.137ZM100.504 132.807C101.543 132.807 102.309 133.456 102.425 134.837H98.5352C98.665 133.511 99.4717 132.807 100.504 132.807ZM108.092 139H109.281V132.875H110.73V131.891H109.268V131.022C109.268 130.318 109.596 129.983 110.252 129.983C110.437 129.983 110.621 129.99 110.765 130.011V129.047C110.587 129.02 110.307 128.999 110.04 128.999C108.728 128.999 108.092 129.648 108.092 131.016V131.891H107.101V132.875H108.092V139ZM114.203 139.137C115.755 139.137 116.917 138.207 117.149 137.031L117.163 136.963H115.994L115.974 137.024C115.769 137.633 115.133 138.084 114.23 138.084C112.966 138.084 112.159 137.229 112.132 135.767H117.252V135.329C117.252 133.196 116.069 131.754 114.128 131.754C112.187 131.754 110.929 133.265 110.929 135.466V135.473C110.929 137.708 112.159 139.137 114.203 139.137ZM114.121 132.807C115.16 132.807 115.926 133.456 116.042 134.837H112.152C112.282 133.511 113.089 132.807 114.121 132.807ZM120.533 139.137C121.483 139.137 122.338 138.624 122.755 137.845H122.782V139H123.972V134.085C123.972 132.663 122.919 131.754 121.237 131.754C119.562 131.754 118.544 132.697 118.441 133.866L118.435 133.941H119.583L119.597 133.88C119.733 133.244 120.308 132.807 121.224 132.807C122.215 132.807 122.782 133.333 122.782 134.201V134.796L120.745 134.912C119.111 135.008 118.168 135.767 118.168 136.977V136.99C118.168 138.282 119.118 139.137 120.533 139.137ZM119.385 136.99V136.977C119.385 136.313 119.932 135.89 120.882 135.835L122.782 135.719V136.3C122.782 137.332 121.921 138.104 120.8 138.104C119.945 138.104 119.385 137.674 119.385 136.99ZM127.793 139.137C128.025 139.137 128.278 139.109 128.429 139.089V138.125C128.326 138.132 128.189 138.152 128.046 138.152C127.41 138.152 127.075 137.94 127.075 137.182V132.875H128.429V131.891H127.075V129.97H125.845V131.891H124.806V132.875H125.845V137.188C125.845 138.549 126.487 139.137 127.793 139.137ZM132.134 139.137C133.214 139.137 133.938 138.651 134.321 137.988H134.349V139H135.538V131.891H134.349V136.074C134.349 137.284 133.617 138.084 132.496 138.084C131.402 138.084 130.862 137.448 130.862 136.293V131.891H129.673V136.505C129.673 138.125 130.575 139.137 132.134 139.137ZM137.09 139H138.279V134.557C138.279 133.552 138.881 132.889 139.804 132.889C140.091 132.889 140.344 132.923 140.439 132.957V131.802C140.344 131.788 140.166 131.754 139.961 131.754C139.127 131.754 138.471 132.253 138.238 133.039H138.211V131.891H137.09V139ZM143.994 139.137C145.546 139.137 146.708 138.207 146.94 137.031L146.954 136.963H145.785L145.765 137.024C145.56 137.633 144.924 138.084 144.021 138.084C142.757 138.084 141.95 137.229 141.923 135.767H147.043V135.329C147.043 133.196 145.86 131.754 143.919 131.754C141.978 131.754 140.72 133.265 140.72 135.466V135.473C140.72 137.708 141.95 139.137 143.994 139.137ZM143.912 132.807C144.951 132.807 145.717 133.456 145.833 134.837H141.943C142.073 133.511 142.88 132.807 143.912 132.807ZM148.745 141.393C150.078 139.704 150.687 137.694 150.687 135.261C150.687 132.827 150.078 130.831 148.745 129.136H147.747C148.731 130.277 149.477 132.978 149.477 135.261C149.477 137.544 148.731 140.251 147.747 141.393H148.745ZM153.489 139.096C153.927 139.096 154.269 138.754 154.269 138.316C154.269 137.879 153.927 137.537 153.489 137.537C153.052 137.537 152.71 137.879 152.71 138.316C152.71 138.754 153.052 139.096 153.489 139.096Z" fill="black"/>
<defs>
<clipPath id="clip0_1125_629">
<rect width="11.7424" height="33.6869" fill="white" transform="matrix(1 0 0 -1 38.0195 56.5061)"/>
</clipPath>
<clipPath id="clip1_1125_629">
<rect width="11.7424" height="33.6869" fill="white" transform="matrix(1 0 0 -1 188.258 56.5059)"/>
</clipPath>
</defs>
</svg>
