<?xml version="1.0" encoding="utf-8" standalone="no"?>
<!DOCTYPE svg PUBLIC "-//W3C//DTD SVG 1.1//EN"
  "http://www.w3.org/Graphics/SVG/1.1/DTD/svg11.dtd">
<!-- Created with matplotlib (https://matplotlib.org/) -->
<svg height="221.477187pt" version="1.1" viewBox="0 0 274.946875 221.477187" width="274.946875pt" xmlns="http://www.w3.org/2000/svg" xmlns:xlink="http://www.w3.org/1999/xlink">
 <metadata>
  <rdf:RDF xmlns:cc="http://creativecommons.org/ns#" xmlns:dc="http://purl.org/dc/elements/1.1/" xmlns:rdf="http://www.w3.org/1999/02/22-rdf-syntax-ns#">
   <cc:Work>
    <dc:type rdf:resource="http://purl.org/dc/dcmitype/StillImage"/>
    <dc:date>2022-05-26T19:27:47.394353</dc:date>
    <dc:format>image/svg+xml</dc:format>
    <dc:creator>
     <cc:Agent>
      <dc:title>Matplotlib v3.3.4, https://matplotlib.org/</dc:title>
     </cc:Agent>
    </dc:creator>
   </cc:Work>
  </rdf:RDF>
 </metadata>
 <defs>
  <style type="text/css">*{stroke-linecap:butt;stroke-linejoin:round;}</style>
 </defs>
 <g id="figure_1">
  <g id="patch_1">
   <path d="M 0 221.477187 
L 274.946875 221.477187 
L 274.946875 0 
L 0 0 
z
" style="fill:#ffffff;"/>
  </g>
  <g id="axes_1">
   <g id="patch_2">
    <path d="M 44.546875 184.869375 
L 267.746875 184.869375 
L 267.746875 21.789375 
L 44.546875 21.789375 
z
" style="fill:#ffffff;"/>
   </g>
   <g id="matplotlib.axis_1">
    <g id="xtick_1">
     <g id="line2d_1">
      <path clip-path="url(#p66fbde2862)" d="M 70.212273 184.869375 
L 70.212273 21.789375 
" style="fill:none;stroke:#cccccc;stroke-linecap:round;stroke-width:0.8;"/>
     </g>
     <g id="text_1">
      <!-- 75 -->
      <g style="fill:#262626;" transform="translate(64.651336 199.027187)scale(0.1 -0.1)">
       <defs>
        <path d="M 4.734375 62.203125 
L 4.734375 70.65625 
L 51.078125 70.65625 
L 51.078125 63.8125 
Q 44.234375 56.546875 37.515625 44.484375 
Q 30.8125 32.421875 27.15625 19.671875 
Q 24.515625 10.6875 23.78125 0 
L 14.75 0 
Q 14.890625 8.453125 18.0625 20.40625 
Q 21.234375 32.375 27.171875 43.484375 
Q 33.109375 54.59375 39.796875 62.203125 
z
" id="ArialMT-55"/>
        <path d="M 4.15625 18.75 
L 13.375 19.53125 
Q 14.40625 12.796875 18.140625 9.390625 
Q 21.875 6 27.15625 6 
Q 33.5 6 37.890625 10.78125 
Q 42.28125 15.578125 42.28125 23.484375 
Q 42.28125 31 38.0625 35.34375 
Q 33.84375 39.703125 27 39.703125 
Q 22.75 39.703125 19.328125 37.765625 
Q 15.921875 35.84375 13.96875 32.765625 
L 5.71875 33.84375 
L 12.640625 70.609375 
L 48.25 70.609375 
L 48.25 62.203125 
L 19.671875 62.203125 
L 15.828125 42.96875 
Q 22.265625 47.46875 29.34375 47.46875 
Q 38.71875 47.46875 45.15625 40.96875 
Q 51.609375 34.46875 51.609375 24.265625 
Q 51.609375 14.546875 45.953125 7.46875 
Q 39.0625 -1.21875 27.15625 -1.21875 
Q 17.390625 -1.21875 11.203125 4.25 
Q 5.03125 9.71875 4.15625 18.75 
z
" id="ArialMT-53"/>
       </defs>
       <use xlink:href="#ArialMT-55"/>
       <use x="55.615234" xlink:href="#ArialMT-53"/>
      </g>
     </g>
    </g>
    <g id="xtick_2">
     <g id="line2d_2">
      <path clip-path="url(#p66fbde2862)" d="M 107.4172 184.869375 
L 107.4172 21.789375 
" style="fill:none;stroke:#cccccc;stroke-linecap:round;stroke-width:0.8;"/>
     </g>
     <g id="text_2">
      <!-- 100 -->
      <g style="fill:#262626;" transform="translate(99.075794 199.027187)scale(0.1 -0.1)">
       <defs>
        <path d="M 37.25 0 
L 28.46875 0 
L 28.46875 56 
Q 25.296875 52.984375 20.140625 49.953125 
Q 14.984375 46.921875 10.890625 45.40625 
L 10.890625 53.90625 
Q 18.265625 57.375 23.78125 62.296875 
Q 29.296875 67.234375 31.59375 71.875 
L 37.25 71.875 
z
" id="ArialMT-49"/>
        <path d="M 4.15625 35.296875 
Q 4.15625 48 6.765625 55.734375 
Q 9.375 63.484375 14.515625 67.671875 
Q 19.671875 71.875 27.484375 71.875 
Q 33.25 71.875 37.59375 69.546875 
Q 41.9375 67.234375 44.765625 62.859375 
Q 47.609375 58.5 49.21875 52.21875 
Q 50.828125 45.953125 50.828125 35.296875 
Q 50.828125 22.703125 48.234375 14.96875 
Q 45.65625 7.234375 40.5 3 
Q 35.359375 -1.21875 27.484375 -1.21875 
Q 17.140625 -1.21875 11.234375 6.203125 
Q 4.15625 15.140625 4.15625 35.296875 
z
M 13.1875 35.296875 
Q 13.1875 17.671875 17.3125 11.828125 
Q 21.4375 6 27.484375 6 
Q 33.546875 6 37.671875 11.859375 
Q 41.796875 17.71875 41.796875 35.296875 
Q 41.796875 52.984375 37.671875 58.78125 
Q 33.546875 64.59375 27.390625 64.59375 
Q 21.34375 64.59375 17.71875 59.46875 
Q 13.1875 52.9375 13.1875 35.296875 
z
" id="ArialMT-48"/>
       </defs>
       <use xlink:href="#ArialMT-49"/>
       <use x="55.615234" xlink:href="#ArialMT-48"/>
       <use x="111.230469" xlink:href="#ArialMT-48"/>
      </g>
     </g>
    </g>
    <g id="xtick_3">
     <g id="line2d_3">
      <path clip-path="url(#p66fbde2862)" d="M 144.622127 184.869375 
L 144.622127 21.789375 
" style="fill:none;stroke:#cccccc;stroke-linecap:round;stroke-width:0.8;"/>
     </g>
     <g id="text_3">
      <!-- 125 -->
      <g style="fill:#262626;" transform="translate(136.280721 199.027187)scale(0.1 -0.1)">
       <defs>
        <path d="M 50.34375 8.453125 
L 50.34375 0 
L 3.03125 0 
Q 2.9375 3.171875 4.046875 6.109375 
Q 5.859375 10.9375 9.828125 15.625 
Q 13.8125 20.3125 21.34375 26.46875 
Q 33.015625 36.03125 37.109375 41.625 
Q 41.21875 47.21875 41.21875 52.203125 
Q 41.21875 57.421875 37.46875 61 
Q 33.734375 64.59375 27.734375 64.59375 
Q 21.390625 64.59375 17.578125 60.78125 
Q 13.765625 56.984375 13.71875 50.25 
L 4.6875 51.171875 
Q 5.609375 61.28125 11.65625 66.578125 
Q 17.71875 71.875 27.9375 71.875 
Q 38.234375 71.875 44.234375 66.15625 
Q 50.25 60.453125 50.25 52 
Q 50.25 47.703125 48.484375 43.546875 
Q 46.734375 39.40625 42.65625 34.8125 
Q 38.578125 30.21875 29.109375 22.21875 
Q 21.1875 15.578125 18.9375 13.203125 
Q 16.703125 10.84375 15.234375 8.453125 
z
" id="ArialMT-50"/>
       </defs>
       <use xlink:href="#ArialMT-49"/>
       <use x="55.615234" xlink:href="#ArialMT-50"/>
       <use x="111.230469" xlink:href="#ArialMT-53"/>
      </g>
     </g>
    </g>
    <g id="xtick_4">
     <g id="line2d_4">
      <path clip-path="url(#p66fbde2862)" d="M 181.827054 184.869375 
L 181.827054 21.789375 
" style="fill:none;stroke:#cccccc;stroke-linecap:round;stroke-width:0.8;"/>
     </g>
     <g id="text_4">
      <!-- 150 -->
      <g style="fill:#262626;" transform="translate(173.485648 199.027187)scale(0.1 -0.1)">
       <use xlink:href="#ArialMT-49"/>
       <use x="55.615234" xlink:href="#ArialMT-53"/>
       <use x="111.230469" xlink:href="#ArialMT-48"/>
      </g>
     </g>
    </g>
    <g id="xtick_5">
     <g id="line2d_5">
      <path clip-path="url(#p66fbde2862)" d="M 219.031981 184.869375 
L 219.031981 21.789375 
" style="fill:none;stroke:#cccccc;stroke-linecap:round;stroke-width:0.8;"/>
     </g>
     <g id="text_5">
      <!-- 175 -->
      <g style="fill:#262626;" transform="translate(210.690574 199.027187)scale(0.1 -0.1)">
       <use xlink:href="#ArialMT-49"/>
       <use x="55.615234" xlink:href="#ArialMT-55"/>
       <use x="111.230469" xlink:href="#ArialMT-53"/>
      </g>
     </g>
    </g>
    <g id="xtick_6">
     <g id="line2d_6">
      <path clip-path="url(#p66fbde2862)" d="M 256.236908 184.869375 
L 256.236908 21.789375 
" style="fill:none;stroke:#cccccc;stroke-linecap:round;stroke-width:0.8;"/>
     </g>
     <g id="text_6">
      <!-- 200 -->
      <g style="fill:#262626;" transform="translate(247.895501 199.027187)scale(0.1 -0.1)">
       <use xlink:href="#ArialMT-50"/>
       <use x="55.615234" xlink:href="#ArialMT-48"/>
       <use x="111.230469" xlink:href="#ArialMT-48"/>
      </g>
     </g>
    </g>
    <g id="text_7">
     <!-- Predicted Weight -->
     <g style="fill:#262626;" transform="translate(118.1625 212.1725)scale(0.1 -0.1)">
      <defs>
       <path d="M 7.71875 0 
L 7.71875 71.578125 
L 34.71875 71.578125 
Q 41.84375 71.578125 45.609375 70.90625 
Q 50.875 70.015625 54.4375 67.546875 
Q 58.015625 65.09375 60.1875 60.640625 
Q 62.359375 56.203125 62.359375 50.875 
Q 62.359375 41.75 56.546875 35.421875 
Q 50.734375 29.109375 35.546875 29.109375 
L 17.1875 29.109375 
L 17.1875 0 
z
M 17.1875 37.546875 
L 35.6875 37.546875 
Q 44.875 37.546875 48.734375 40.96875 
Q 52.59375 44.390625 52.59375 50.59375 
Q 52.59375 55.078125 50.3125 58.265625 
Q 48.046875 61.46875 44.34375 62.5 
Q 41.9375 63.140625 35.5 63.140625 
L 17.1875 63.140625 
z
" id="ArialMT-80"/>
       <path d="M 6.5 0 
L 6.5 51.859375 
L 14.40625 51.859375 
L 14.40625 44 
Q 17.4375 49.515625 20 51.265625 
Q 22.5625 53.03125 25.640625 53.03125 
Q 30.078125 53.03125 34.671875 50.203125 
L 31.640625 42.046875 
Q 28.421875 43.953125 25.203125 43.953125 
Q 22.3125 43.953125 20.015625 42.21875 
Q 17.71875 40.484375 16.75 37.40625 
Q 15.28125 32.71875 15.28125 27.15625 
L 15.28125 0 
z
" id="ArialMT-114"/>
       <path d="M 42.09375 16.703125 
L 51.171875 15.578125 
Q 49.03125 7.625 43.21875 3.21875 
Q 37.40625 -1.171875 28.375 -1.171875 
Q 17 -1.171875 10.328125 5.828125 
Q 3.65625 12.84375 3.65625 25.484375 
Q 3.65625 38.578125 10.390625 45.796875 
Q 17.140625 53.03125 27.875 53.03125 
Q 38.28125 53.03125 44.875 45.953125 
Q 51.46875 38.875 51.46875 26.03125 
Q 51.46875 25.25 51.421875 23.6875 
L 12.75 23.6875 
Q 13.234375 15.140625 17.578125 10.59375 
Q 21.921875 6.0625 28.421875 6.0625 
Q 33.25 6.0625 36.671875 8.59375 
Q 40.09375 11.140625 42.09375 16.703125 
z
M 13.234375 30.90625 
L 42.1875 30.90625 
Q 41.609375 37.453125 38.875 40.71875 
Q 34.671875 45.796875 27.984375 45.796875 
Q 21.921875 45.796875 17.796875 41.75 
Q 13.671875 37.703125 13.234375 30.90625 
z
" id="ArialMT-101"/>
       <path d="M 40.234375 0 
L 40.234375 6.546875 
Q 35.296875 -1.171875 25.734375 -1.171875 
Q 19.53125 -1.171875 14.328125 2.25 
Q 9.125 5.671875 6.265625 11.796875 
Q 3.421875 17.921875 3.421875 25.875 
Q 3.421875 33.640625 6 39.96875 
Q 8.59375 46.296875 13.765625 49.65625 
Q 18.953125 53.03125 25.34375 53.03125 
Q 30.03125 53.03125 33.6875 51.046875 
Q 37.359375 49.078125 39.65625 45.90625 
L 39.65625 71.578125 
L 48.390625 71.578125 
L 48.390625 0 
z
M 12.453125 25.875 
Q 12.453125 15.921875 16.640625 10.984375 
Q 20.84375 6.0625 26.5625 6.0625 
Q 32.328125 6.0625 36.34375 10.765625 
Q 40.375 15.484375 40.375 25.140625 
Q 40.375 35.796875 36.265625 40.765625 
Q 32.171875 45.75 26.171875 45.75 
Q 20.3125 45.75 16.375 40.96875 
Q 12.453125 36.1875 12.453125 25.875 
z
" id="ArialMT-100"/>
       <path d="M 6.640625 61.46875 
L 6.640625 71.578125 
L 15.4375 71.578125 
L 15.4375 61.46875 
z
M 6.640625 0 
L 6.640625 51.859375 
L 15.4375 51.859375 
L 15.4375 0 
z
" id="ArialMT-105"/>
       <path d="M 40.4375 19 
L 49.078125 17.875 
Q 47.65625 8.9375 41.8125 3.875 
Q 35.984375 -1.171875 27.484375 -1.171875 
Q 16.84375 -1.171875 10.375 5.78125 
Q 3.90625 12.75 3.90625 25.734375 
Q 3.90625 34.125 6.6875 40.421875 
Q 9.46875 46.734375 15.15625 49.875 
Q 20.84375 53.03125 27.546875 53.03125 
Q 35.984375 53.03125 41.359375 48.75 
Q 46.734375 44.484375 48.25 36.625 
L 39.703125 35.296875 
Q 38.484375 40.53125 35.375 43.15625 
Q 32.28125 45.796875 27.875 45.796875 
Q 21.234375 45.796875 17.078125 41.03125 
Q 12.9375 36.28125 12.9375 25.984375 
Q 12.9375 15.53125 16.9375 10.796875 
Q 20.953125 6.0625 27.390625 6.0625 
Q 32.5625 6.0625 36.03125 9.234375 
Q 39.5 12.40625 40.4375 19 
z
" id="ArialMT-99"/>
       <path d="M 25.78125 7.859375 
L 27.046875 0.09375 
Q 23.34375 -0.6875 20.40625 -0.6875 
Q 15.625 -0.6875 12.984375 0.828125 
Q 10.359375 2.34375 9.28125 4.8125 
Q 8.203125 7.28125 8.203125 15.1875 
L 8.203125 45.015625 
L 1.765625 45.015625 
L 1.765625 51.859375 
L 8.203125 51.859375 
L 8.203125 64.703125 
L 16.9375 69.96875 
L 16.9375 51.859375 
L 25.78125 51.859375 
L 25.78125 45.015625 
L 16.9375 45.015625 
L 16.9375 14.703125 
Q 16.9375 10.9375 17.40625 9.859375 
Q 17.875 8.796875 18.921875 8.15625 
Q 19.96875 7.515625 21.921875 7.515625 
Q 23.390625 7.515625 25.78125 7.859375 
z
" id="ArialMT-116"/>
       <path id="ArialMT-32"/>
       <path d="M 20.21875 0 
L 1.21875 71.578125 
L 10.9375 71.578125 
L 21.828125 24.65625 
Q 23.578125 17.28125 24.859375 10.015625 
Q 27.59375 21.484375 28.078125 23.25 
L 41.703125 71.578125 
L 53.125 71.578125 
L 63.375 35.359375 
Q 67.234375 21.875 68.953125 10.015625 
Q 70.3125 16.796875 72.515625 25.59375 
L 83.734375 71.578125 
L 93.265625 71.578125 
L 73.640625 0 
L 64.5 0 
L 49.421875 54.546875 
Q 47.515625 61.375 47.171875 62.9375 
Q 46.046875 58.015625 45.0625 54.546875 
L 29.890625 0 
z
" id="ArialMT-87"/>
       <path d="M 4.984375 -4.296875 
L 13.53125 -5.5625 
Q 14.0625 -9.515625 16.5 -11.328125 
Q 19.78125 -13.765625 25.4375 -13.765625 
Q 31.546875 -13.765625 34.859375 -11.328125 
Q 38.1875 -8.890625 39.359375 -4.5 
Q 40.046875 -1.8125 39.984375 6.78125 
Q 34.234375 0 25.640625 0 
Q 14.9375 0 9.078125 7.71875 
Q 3.21875 15.4375 3.21875 26.21875 
Q 3.21875 33.640625 5.90625 39.90625 
Q 8.59375 46.1875 13.6875 49.609375 
Q 18.796875 53.03125 25.6875 53.03125 
Q 34.859375 53.03125 40.828125 45.609375 
L 40.828125 51.859375 
L 48.921875 51.859375 
L 48.921875 7.03125 
Q 48.921875 -5.078125 46.453125 -10.125 
Q 44 -15.1875 38.640625 -18.109375 
Q 33.296875 -21.046875 25.484375 -21.046875 
Q 16.21875 -21.046875 10.5 -16.875 
Q 4.78125 -12.703125 4.984375 -4.296875 
z
M 12.25 26.859375 
Q 12.25 16.65625 16.296875 11.96875 
Q 20.359375 7.28125 26.46875 7.28125 
Q 32.515625 7.28125 36.609375 11.9375 
Q 40.71875 16.609375 40.71875 26.5625 
Q 40.71875 36.078125 36.5 40.90625 
Q 32.28125 45.75 26.3125 45.75 
Q 20.453125 45.75 16.34375 40.984375 
Q 12.25 36.234375 12.25 26.859375 
z
" id="ArialMT-103"/>
       <path d="M 6.59375 0 
L 6.59375 71.578125 
L 15.375 71.578125 
L 15.375 45.90625 
Q 21.53125 53.03125 30.90625 53.03125 
Q 36.671875 53.03125 40.921875 50.75 
Q 45.171875 48.484375 47 44.484375 
Q 48.828125 40.484375 48.828125 32.859375 
L 48.828125 0 
L 40.046875 0 
L 40.046875 32.859375 
Q 40.046875 39.453125 37.1875 42.453125 
Q 34.328125 45.453125 29.109375 45.453125 
Q 25.203125 45.453125 21.75 43.421875 
Q 18.3125 41.40625 16.84375 37.9375 
Q 15.375 34.46875 15.375 28.375 
L 15.375 0 
z
" id="ArialMT-104"/>
      </defs>
      <use xlink:href="#ArialMT-80"/>
      <use x="66.699219" xlink:href="#ArialMT-114"/>
      <use x="100" xlink:href="#ArialMT-101"/>
      <use x="155.615234" xlink:href="#ArialMT-100"/>
      <use x="211.230469" xlink:href="#ArialMT-105"/>
      <use x="233.447266" xlink:href="#ArialMT-99"/>
      <use x="283.447266" xlink:href="#ArialMT-116"/>
      <use x="311.230469" xlink:href="#ArialMT-101"/>
      <use x="366.845703" xlink:href="#ArialMT-100"/>
      <use x="422.460938" xlink:href="#ArialMT-32"/>
      <use x="450.244141" xlink:href="#ArialMT-87"/>
      <use x="542.878906" xlink:href="#ArialMT-101"/>
      <use x="598.494141" xlink:href="#ArialMT-105"/>
      <use x="620.710938" xlink:href="#ArialMT-103"/>
      <use x="676.326172" xlink:href="#ArialMT-104"/>
      <use x="731.941406" xlink:href="#ArialMT-116"/>
     </g>
    </g>
   </g>
   <g id="matplotlib.axis_2">
    <g id="ytick_1">
     <g id="line2d_7">
      <path clip-path="url(#p66fbde2862)" d="M 44.546875 170.936932 
L 267.746875 170.936932 
" style="fill:none;stroke:#cccccc;stroke-linecap:round;stroke-width:0.8;"/>
     </g>
     <g id="text_8">
      <!-- −10 -->
      <g style="fill:#262626;" transform="translate(20.584375 174.515839)scale(0.1 -0.1)">
       <defs>
        <path d="M 52.828125 31.203125 
L 5.5625 31.203125 
L 5.5625 39.40625 
L 52.828125 39.40625 
z
" id="ArialMT-8722"/>
       </defs>
       <use xlink:href="#ArialMT-8722"/>
       <use x="58.398438" xlink:href="#ArialMT-49"/>
       <use x="114.013672" xlink:href="#ArialMT-48"/>
      </g>
     </g>
    </g>
    <g id="ytick_2">
     <g id="line2d_8">
      <path clip-path="url(#p66fbde2862)" d="M 44.546875 130.976045 
L 267.746875 130.976045 
" style="fill:none;stroke:#cccccc;stroke-linecap:round;stroke-width:0.8;"/>
     </g>
     <g id="text_9">
      <!-- 0 -->
      <g style="fill:#262626;" transform="translate(31.985938 134.554951)scale(0.1 -0.1)">
       <use xlink:href="#ArialMT-48"/>
      </g>
     </g>
    </g>
    <g id="ytick_3">
     <g id="line2d_9">
      <path clip-path="url(#p66fbde2862)" d="M 44.546875 91.015157 
L 267.746875 91.015157 
" style="fill:none;stroke:#cccccc;stroke-linecap:round;stroke-width:0.8;"/>
     </g>
     <g id="text_10">
      <!-- 10 -->
      <g style="fill:#262626;" transform="translate(26.425 94.594063)scale(0.1 -0.1)">
       <use xlink:href="#ArialMT-49"/>
       <use x="55.615234" xlink:href="#ArialMT-48"/>
      </g>
     </g>
    </g>
    <g id="ytick_4">
     <g id="line2d_10">
      <path clip-path="url(#p66fbde2862)" d="M 44.546875 51.054269 
L 267.746875 51.054269 
" style="fill:none;stroke:#cccccc;stroke-linecap:round;stroke-width:0.8;"/>
     </g>
     <g id="text_11">
      <!-- 20 -->
      <g style="fill:#262626;" transform="translate(26.425 54.633175)scale(0.1 -0.1)">
       <use xlink:href="#ArialMT-50"/>
       <use x="55.615234" xlink:href="#ArialMT-48"/>
      </g>
     </g>
    </g>
    <g id="text_12">
     <!-- Relative Error (%) -->
     <g style="fill:#262626;" transform="translate(14.479688 143.056719)rotate(-90)scale(0.1 -0.1)">
      <defs>
       <path d="M 7.859375 0 
L 7.859375 71.578125 
L 39.59375 71.578125 
Q 49.171875 71.578125 54.140625 69.640625 
Q 59.125 67.71875 62.109375 62.828125 
Q 65.09375 57.953125 65.09375 52.046875 
Q 65.09375 44.4375 60.15625 39.203125 
Q 55.21875 33.984375 44.921875 32.5625 
Q 48.6875 30.765625 50.640625 29 
Q 54.78125 25.203125 58.5 19.484375 
L 70.953125 0 
L 59.03125 0 
L 49.5625 14.890625 
Q 45.40625 21.34375 42.71875 24.75 
Q 40.046875 28.171875 37.921875 29.53125 
Q 35.796875 30.90625 33.59375 31.453125 
Q 31.984375 31.78125 28.328125 31.78125 
L 17.328125 31.78125 
L 17.328125 0 
z
M 17.328125 39.984375 
L 37.703125 39.984375 
Q 44.1875 39.984375 47.84375 41.328125 
Q 51.515625 42.671875 53.421875 45.625 
Q 55.328125 48.578125 55.328125 52.046875 
Q 55.328125 57.125 51.640625 60.390625 
Q 47.953125 63.671875 39.984375 63.671875 
L 17.328125 63.671875 
z
" id="ArialMT-82"/>
       <path d="M 6.390625 0 
L 6.390625 71.578125 
L 15.1875 71.578125 
L 15.1875 0 
z
" id="ArialMT-108"/>
       <path d="M 40.4375 6.390625 
Q 35.546875 2.25 31.03125 0.53125 
Q 26.515625 -1.171875 21.34375 -1.171875 
Q 12.796875 -1.171875 8.203125 3 
Q 3.609375 7.171875 3.609375 13.671875 
Q 3.609375 17.484375 5.34375 20.625 
Q 7.078125 23.78125 9.890625 25.6875 
Q 12.703125 27.59375 16.21875 28.5625 
Q 18.796875 29.25 24.03125 29.890625 
Q 34.671875 31.15625 39.703125 32.90625 
Q 39.75 34.71875 39.75 35.203125 
Q 39.75 40.578125 37.25 42.78125 
Q 33.890625 45.75 27.25 45.75 
Q 21.046875 45.75 18.09375 43.578125 
Q 15.140625 41.40625 13.71875 35.890625 
L 5.125 37.0625 
Q 6.296875 42.578125 8.984375 45.96875 
Q 11.671875 49.359375 16.75 51.1875 
Q 21.828125 53.03125 28.515625 53.03125 
Q 35.15625 53.03125 39.296875 51.46875 
Q 43.453125 49.90625 45.40625 47.53125 
Q 47.359375 45.171875 48.140625 41.546875 
Q 48.578125 39.3125 48.578125 33.453125 
L 48.578125 21.734375 
Q 48.578125 9.46875 49.140625 6.21875 
Q 49.703125 2.984375 51.375 0 
L 42.1875 0 
Q 40.828125 2.734375 40.4375 6.390625 
z
M 39.703125 26.03125 
Q 34.90625 24.078125 25.34375 22.703125 
Q 19.921875 21.921875 17.671875 20.9375 
Q 15.4375 19.96875 14.203125 18.09375 
Q 12.984375 16.21875 12.984375 13.921875 
Q 12.984375 10.40625 15.640625 8.0625 
Q 18.3125 5.71875 23.4375 5.71875 
Q 28.515625 5.71875 32.46875 7.9375 
Q 36.421875 10.15625 38.28125 14.015625 
Q 39.703125 17 39.703125 22.796875 
z
" id="ArialMT-97"/>
       <path d="M 21 0 
L 1.265625 51.859375 
L 10.546875 51.859375 
L 21.6875 20.796875 
Q 23.484375 15.765625 25 10.359375 
Q 26.171875 14.453125 28.265625 20.21875 
L 39.796875 51.859375 
L 48.828125 51.859375 
L 29.203125 0 
z
" id="ArialMT-118"/>
       <path d="M 7.90625 0 
L 7.90625 71.578125 
L 59.671875 71.578125 
L 59.671875 63.140625 
L 17.390625 63.140625 
L 17.390625 41.21875 
L 56.984375 41.21875 
L 56.984375 32.8125 
L 17.390625 32.8125 
L 17.390625 8.453125 
L 61.328125 8.453125 
L 61.328125 0 
z
" id="ArialMT-69"/>
       <path d="M 3.328125 25.921875 
Q 3.328125 40.328125 11.328125 47.265625 
Q 18.015625 53.03125 27.640625 53.03125 
Q 38.328125 53.03125 45.109375 46.015625 
Q 51.90625 39.015625 51.90625 26.65625 
Q 51.90625 16.65625 48.90625 10.90625 
Q 45.90625 5.171875 40.15625 2 
Q 34.421875 -1.171875 27.640625 -1.171875 
Q 16.75 -1.171875 10.03125 5.8125 
Q 3.328125 12.796875 3.328125 25.921875 
z
M 12.359375 25.921875 
Q 12.359375 15.96875 16.703125 11.015625 
Q 21.046875 6.0625 27.640625 6.0625 
Q 34.1875 6.0625 38.53125 11.03125 
Q 42.875 16.015625 42.875 26.21875 
Q 42.875 35.84375 38.5 40.796875 
Q 34.125 45.75 27.640625 45.75 
Q 21.046875 45.75 16.703125 40.8125 
Q 12.359375 35.890625 12.359375 25.921875 
z
" id="ArialMT-111"/>
       <path d="M 23.390625 -21.046875 
Q 16.109375 -11.859375 11.078125 0.4375 
Q 6.0625 12.75 6.0625 25.921875 
Q 6.0625 37.546875 9.8125 48.1875 
Q 14.203125 60.546875 23.390625 72.796875 
L 29.6875 72.796875 
Q 23.78125 62.640625 21.875 58.296875 
Q 18.890625 51.5625 17.1875 44.234375 
Q 15.09375 35.109375 15.09375 25.875 
Q 15.09375 2.390625 29.6875 -21.046875 
z
" id="ArialMT-40"/>
       <path d="M 5.8125 54.390625 
Q 5.8125 62.0625 9.671875 67.421875 
Q 13.53125 72.796875 20.84375 72.796875 
Q 27.59375 72.796875 32 67.984375 
Q 36.421875 63.1875 36.421875 53.859375 
Q 36.421875 44.78125 31.953125 39.875 
Q 27.484375 34.96875 20.953125 34.96875 
Q 14.453125 34.96875 10.125 39.796875 
Q 5.8125 44.625 5.8125 54.390625 
z
M 21.09375 66.75 
Q 17.828125 66.75 15.65625 63.90625 
Q 13.484375 61.078125 13.484375 53.515625 
Q 13.484375 46.625 15.671875 43.8125 
Q 17.875 41.015625 21.09375 41.015625 
Q 24.421875 41.015625 26.59375 43.84375 
Q 28.765625 46.6875 28.765625 54.203125 
Q 28.765625 61.140625 26.5625 63.9375 
Q 24.359375 66.75 21.09375 66.75 
z
M 21.140625 -2.640625 
L 60.296875 72.796875 
L 67.4375 72.796875 
L 28.421875 -2.640625 
z
M 52.09375 16.796875 
Q 52.09375 24.515625 55.953125 29.859375 
Q 59.8125 35.203125 67.1875 35.203125 
Q 73.921875 35.203125 78.34375 30.390625 
Q 82.765625 25.59375 82.765625 16.265625 
Q 82.765625 7.171875 78.296875 2.265625 
Q 73.828125 -2.640625 67.234375 -2.640625 
Q 60.75 -2.640625 56.421875 2.21875 
Q 52.09375 7.078125 52.09375 16.796875 
z
M 67.4375 29.15625 
Q 64.109375 29.15625 61.9375 26.3125 
Q 59.765625 23.484375 59.765625 15.921875 
Q 59.765625 9.078125 61.953125 6.25 
Q 64.15625 3.421875 67.390625 3.421875 
Q 70.75 3.421875 72.921875 6.25 
Q 75.09375 9.078125 75.09375 16.609375 
Q 75.09375 23.53125 72.890625 26.34375 
Q 70.703125 29.15625 67.4375 29.15625 
z
" id="ArialMT-37"/>
       <path d="M 12.359375 -21.046875 
L 6.0625 -21.046875 
Q 20.65625 2.390625 20.65625 25.875 
Q 20.65625 35.0625 18.5625 44.09375 
Q 16.890625 51.421875 13.921875 58.15625 
Q 12.015625 62.546875 6.0625 72.796875 
L 12.359375 72.796875 
Q 21.53125 60.546875 25.921875 48.1875 
Q 29.6875 37.546875 29.6875 25.921875 
Q 29.6875 12.75 24.625 0.4375 
Q 19.578125 -11.859375 12.359375 -21.046875 
z
" id="ArialMT-41"/>
      </defs>
      <use xlink:href="#ArialMT-82"/>
      <use x="72.216797" xlink:href="#ArialMT-101"/>
      <use x="127.832031" xlink:href="#ArialMT-108"/>
      <use x="150.048828" xlink:href="#ArialMT-97"/>
      <use x="205.664062" xlink:href="#ArialMT-116"/>
      <use x="233.447266" xlink:href="#ArialMT-105"/>
      <use x="255.664062" xlink:href="#ArialMT-118"/>
      <use x="305.664062" xlink:href="#ArialMT-101"/>
      <use x="361.279297" xlink:href="#ArialMT-32"/>
      <use x="389.0625" xlink:href="#ArialMT-69"/>
      <use x="455.761719" xlink:href="#ArialMT-114"/>
      <use x="489.0625" xlink:href="#ArialMT-114"/>
      <use x="522.363281" xlink:href="#ArialMT-111"/>
      <use x="577.978516" xlink:href="#ArialMT-114"/>
      <use x="611.279297" xlink:href="#ArialMT-32"/>
      <use x="639.0625" xlink:href="#ArialMT-40"/>
      <use x="672.363281" xlink:href="#ArialMT-37"/>
      <use x="761.279297" xlink:href="#ArialMT-41"/>
     </g>
    </g>
   </g>
   <g id="PathCollection_1">
    <defs>
     <path d="M 0 3 
C 0.795609 3 1.55874 2.683901 2.12132 2.12132 
C 2.683901 1.55874 3 0.795609 3 0 
C 3 -0.795609 2.683901 -1.55874 2.12132 -2.12132 
C 1.55874 -2.683901 0.795609 -3 0 -3 
C -0.795609 -3 -1.55874 -2.683901 -2.12132 -2.12132 
C -2.683901 -1.55874 -3 -0.795609 -3 0 
C -3 0.795609 -2.683901 1.55874 -2.12132 2.12132 
C -1.55874 2.683901 -0.795609 3 0 3 
z
" id="me4163e13d0" style="stroke:#1f77b4;"/>
    </defs>
    <g clip-path="url(#p66fbde2862)">
     <use style="fill:#1f77b4;stroke:#1f77b4;" x="205.542101" xlink:href="#me4163e13d0" y="89.880797"/>
     <use style="fill:#1f77b4;stroke:#1f77b4;" x="192.205872" xlink:href="#me4163e13d0" y="143.638581"/>
     <use style="fill:#1f77b4;stroke:#1f77b4;" x="167.378653" xlink:href="#me4163e13d0" y="109.018529"/>
     <use style="fill:#1f77b4;stroke:#1f77b4;" x="186.404232" xlink:href="#me4163e13d0" y="123.341945"/>
     <use style="fill:#1f77b4;stroke:#1f77b4;" x="211.494428" xlink:href="#me4163e13d0" y="149.635761"/>
     <use style="fill:#1f77b4;stroke:#1f77b4;" x="240.081072" xlink:href="#me4163e13d0" y="120.716708"/>
     <use style="fill:#1f77b4;stroke:#1f77b4;" x="163.382114" xlink:href="#me4163e13d0" y="118.21538"/>
     <use style="fill:#1f77b4;stroke:#1f77b4;" x="199.442278" xlink:href="#me4163e13d0" y="110.818933"/>
     <use style="fill:#1f77b4;stroke:#1f77b4;" x="213.559302" xlink:href="#me4163e13d0" y="127.063547"/>
     <use style="fill:#1f77b4;stroke:#1f77b4;" x="209.98751" xlink:href="#me4163e13d0" y="140.255319"/>
     <use style="fill:#1f77b4;stroke:#1f77b4;" x="185.955363" xlink:href="#me4163e13d0" y="117.306558"/>
     <use style="fill:#1f77b4;stroke:#1f77b4;" x="204.110527" xlink:href="#me4163e13d0" y="138.178564"/>
     <use style="fill:#1f77b4;stroke:#1f77b4;" x="243.094907" xlink:href="#me4163e13d0" y="122.968323"/>
     <use style="fill:#1f77b4;stroke:#1f77b4;" x="241.030033" xlink:href="#me4163e13d0" y="155.783833"/>
     <use style="fill:#1f77b4;stroke:#1f77b4;" x="181.958823" xlink:href="#me4163e13d0" y="125.886813"/>
     <use style="fill:#1f77b4;stroke:#1f77b4;" x="187.685119" xlink:href="#me4163e13d0" y="107.447393"/>
     <use style="fill:#1f77b4;stroke:#1f77b4;" x="175.780465" xlink:href="#me4163e13d0" y="100.682933"/>
     <use style="fill:#1f77b4;stroke:#1f77b4;" x="174.424234" xlink:href="#me4163e13d0" y="131.04671"/>
     <use style="fill:#1f77b4;stroke:#1f77b4;" x="155.70003" xlink:href="#me4163e13d0" y="108.177641"/>
     <use style="fill:#1f77b4;stroke:#1f77b4;" x="213.001346" xlink:href="#me4163e13d0" y="88.776802"/>
     <use style="fill:#1f77b4;stroke:#1f77b4;" x="213.408615" xlink:href="#me4163e13d0" y="91.816824"/>
     <use style="fill:#1f77b4;stroke:#1f77b4;" x="166.440013" xlink:href="#me4163e13d0" y="89.946975"/>
     <use style="fill:#1f77b4;stroke:#1f77b4;" x="84.903598" xlink:href="#me4163e13d0" y="177.456648"/>
     <use style="fill:#1f77b4;stroke:#1f77b4;" x="196.575938" xlink:href="#me4163e13d0" y="125.754664"/>
     <use style="fill:#1f77b4;stroke:#1f77b4;" x="130.760521" xlink:href="#me4163e13d0" y="136.798687"/>
     <use style="fill:#1f77b4;stroke:#1f77b4;" x="135.39749" xlink:href="#me4163e13d0" y="147.126597"/>
     <use style="fill:#1f77b4;stroke:#1f77b4;" x="188.890662" xlink:href="#me4163e13d0" y="156.144679"/>
     <use style="fill:#1f77b4;stroke:#1f77b4;" x="214.583607" xlink:href="#me4163e13d0" y="147.263483"/>
     <use style="fill:#1f77b4;stroke:#1f77b4;" x="147.528939" xlink:href="#me4163e13d0" y="137.124241"/>
     <use style="fill:#1f77b4;stroke:#1f77b4;" x="190.472924" xlink:href="#me4163e13d0" y="115.099439"/>
     <use style="fill:#1f77b4;stroke:#1f77b4;" x="161.727701" xlink:href="#me4163e13d0" y="132.422775"/>
     <use style="fill:#1f77b4;stroke:#1f77b4;" x="102.688428" xlink:href="#me4163e13d0" y="117.861693"/>
     <use style="fill:#1f77b4;stroke:#1f77b4;" x="202.603609" xlink:href="#me4163e13d0" y="94.322413"/>
     <use style="fill:#1f77b4;stroke:#1f77b4;" x="146.018829" xlink:href="#me4163e13d0" y="130.780964"/>
     <use style="fill:#1f77b4;stroke:#1f77b4;" x="54.69233" xlink:href="#me4163e13d0" y="91.191178"/>
     <use style="fill:#1f77b4;stroke:#1f77b4;" x="254.436898" xlink:href="#me4163e13d0" y="162.718081"/>
     <use style="fill:#1f77b4;stroke:#1f77b4;" x="181.732792" xlink:href="#me4163e13d0" y="128.142048"/>
     <use style="fill:#1f77b4;stroke:#1f77b4;" x="194.270747" xlink:href="#me4163e13d0" y="131.888477"/>
     <use style="fill:#1f77b4;stroke:#1f77b4;" x="89.050825" xlink:href="#me4163e13d0" y="133.978586"/>
     <use style="fill:#1f77b4;stroke:#1f77b4;" x="232.697171" xlink:href="#me4163e13d0" y="146.559199"/>
     <use style="fill:#1f77b4;stroke:#1f77b4;" x="132.192096" xlink:href="#me4163e13d0" y="116.065651"/>
     <use style="fill:#1f77b4;stroke:#1f77b4;" x="181.582105" xlink:href="#me4163e13d0" y="66.529417"/>
     <use style="fill:#1f77b4;stroke:#1f77b4;" x="193.562103" xlink:href="#me4163e13d0" y="143.341053"/>
     <use style="fill:#1f77b4;stroke:#1f77b4;" x="195.931554" xlink:href="#me4163e13d0" y="162.241569"/>
     <use style="fill:#1f77b4;stroke:#1f77b4;" x="254.28621" xlink:href="#me4163e13d0" y="160.519385"/>
     <use style="fill:#1f77b4;stroke:#1f77b4;" x="199.589774" xlink:href="#me4163e13d0" y="113.543544"/>
     <use style="fill:#1f77b4;stroke:#1f77b4;" x="214.583607" xlink:href="#me4163e13d0" y="147.263483"/>
     <use style="fill:#1f77b4;stroke:#1f77b4;" x="173.553819" xlink:href="#me4163e13d0" y="129.428874"/>
     <use style="fill:#1f77b4;stroke:#1f77b4;" x="119.608585" xlink:href="#me4163e13d0" y="139.072413"/>
     <use style="fill:#1f77b4;stroke:#1f77b4;" x="150.240636" xlink:href="#me4163e13d0" y="139.588455"/>
     <use style="fill:#1f77b4;stroke:#1f77b4;" x="257.60142" xlink:href="#me4163e13d0" y="132.799671"/>
     <use style="fill:#1f77b4;stroke:#1f77b4;" x="171.18756" xlink:href="#me4163e13d0" y="147.342857"/>
     <use style="fill:#1f77b4;stroke:#1f77b4;" x="134.861151" xlink:href="#me4163e13d0" y="152.70761"/>
     <use style="fill:#1f77b4;stroke:#1f77b4;" x="201.729991" xlink:href="#me4163e13d0" y="139.228429"/>
     <use style="fill:#1f77b4;stroke:#1f77b4;" x="196.349907" xlink:href="#me4163e13d0" y="97.855185"/>
     <use style="fill:#1f77b4;stroke:#1f77b4;" x="227.046218" xlink:href="#me4163e13d0" y="125.183453"/>
     <use style="fill:#1f77b4;stroke:#1f77b4;" x="194.996869" xlink:href="#me4163e13d0" y="163.300843"/>
     <use style="fill:#1f77b4;stroke:#1f77b4;" x="85.702914" xlink:href="#me4163e13d0" y="100.138278"/>
     <use style="fill:#1f77b4;stroke:#1f77b4;" x="165.608759" xlink:href="#me4163e13d0" y="99.668692"/>
     <use style="fill:#1f77b4;stroke:#1f77b4;" x="218.641214" xlink:href="#me4163e13d0" y="98.358805"/>
     <use style="fill:#1f77b4;stroke:#1f77b4;" x="221.967508" xlink:href="#me4163e13d0" y="144.462204"/>
     <use style="fill:#1f77b4;stroke:#1f77b4;" x="160.594309" xlink:href="#me4163e13d0" y="159.62961"/>
     <use style="fill:#1f77b4;stroke:#1f77b4;" x="163.234618" xlink:href="#me4163e13d0" y="117.918159"/>
     <use style="fill:#1f77b4;stroke:#1f77b4;" x="182.293951" xlink:href="#me4163e13d0" y="129.151606"/>
     <use style="fill:#1f77b4;stroke:#1f77b4;" x="170.841358" xlink:href="#me4163e13d0" y="166.331384"/>
     <use style="fill:#1f77b4;stroke:#1f77b4;" x="247.615661" xlink:href="#me4163e13d0" y="94.364201"/>
     <use style="fill:#1f77b4;stroke:#1f77b4;" x="192.055185" xlink:href="#me4163e13d0" y="112.820709"/>
     <use style="fill:#1f77b4;stroke:#1f77b4;" x="196.651282" xlink:href="#me4163e13d0" y="110.893824"/>
     <use style="fill:#1f77b4;stroke:#1f77b4;" x="157.386381" xlink:href="#me4163e13d0" y="105.777776"/>
     <use style="fill:#1f77b4;stroke:#1f77b4;" x="257.526077" xlink:href="#me4163e13d0" y="150.604259"/>
     <use style="fill:#1f77b4;stroke:#1f77b4;" x="227.839784" xlink:href="#me4163e13d0" y="137.422232"/>
     <use style="fill:#1f77b4;stroke:#1f77b4;" x="198.082856" xlink:href="#me4163e13d0" y="138.234896"/>
     <use style="fill:#1f77b4;stroke:#1f77b4;" x="174.126052" xlink:href="#me4163e13d0" y="91.864478"/>
     <use style="fill:#1f77b4;stroke:#1f77b4;" x="192.133721" xlink:href="#me4163e13d0" y="87.496338"/>
     <use style="fill:#1f77b4;stroke:#1f77b4;" x="198.308887" xlink:href="#me4163e13d0" y="106.35333"/>
     <use style="fill:#1f77b4;stroke:#1f77b4;" x="193.863477" xlink:href="#me4163e13d0" y="166.586982"/>
     <use style="fill:#1f77b4;stroke:#1f77b4;" x="134.9799" xlink:href="#me4163e13d0" y="129.360583"/>
     <use style="fill:#1f77b4;stroke:#1f77b4;" x="217.597443" xlink:href="#me4163e13d0" y="112.689819"/>
     <use style="fill:#1f77b4;stroke:#1f77b4;" x="242.908962" xlink:href="#me4163e13d0" y="143.618819"/>
     <use style="fill:#1f77b4;stroke:#1f77b4;" x="112.90354" xlink:href="#me4163e13d0" y="106.644026"/>
     <use style="fill:#1f77b4;stroke:#1f77b4;" x="203.887688" xlink:href="#me4163e13d0" y="82.059448"/>
     <use style="fill:#1f77b4;stroke:#1f77b4;" x="212.926002" xlink:href="#me4163e13d0" y="90.98422"/>
     <use style="fill:#1f77b4;stroke:#1f77b4;" x="60.943602" xlink:href="#me4163e13d0" y="112.218586"/>
     <use style="fill:#1f77b4;stroke:#1f77b4;" x="149.895198" xlink:href="#me4163e13d0" y="138.882408"/>
     <use style="fill:#1f77b4;stroke:#1f77b4;" x="205.617445" xlink:href="#me4163e13d0" y="114.090063"/>
     <use style="fill:#1f77b4;stroke:#1f77b4;" x="159.282906" xlink:href="#me4163e13d0" y="112.755633"/>
     <use style="fill:#1f77b4;stroke:#1f77b4;" x="184.897315" xlink:href="#me4163e13d0" y="149.537205"/>
     <use style="fill:#1f77b4;stroke:#1f77b4;" x="170.204856" xlink:href="#me4163e13d0" y="131.511189"/>
     <use style="fill:#1f77b4;stroke:#1f77b4;" x="155.138871" xlink:href="#me4163e13d0" y="128.152263"/>
     <use style="fill:#1f77b4;stroke:#1f77b4;" x="216.497794" xlink:href="#me4163e13d0" y="120.131645"/>
     <use style="fill:#1f77b4;stroke:#1f77b4;" x="194.84299" xlink:href="#me4163e13d0" y="120.2678"/>
     <use style="fill:#1f77b4;stroke:#1f77b4;" x="164.81688" xlink:href="#me4163e13d0" y="100.897787"/>
     <use style="fill:#1f77b4;stroke:#1f77b4;" x="189.044542" xlink:href="#me4163e13d0" y="128.007865"/>
     <use style="fill:#1f77b4;stroke:#1f77b4;" x="198.082856" xlink:href="#me4163e13d0" y="125.818756"/>
     <use style="fill:#1f77b4;stroke:#1f77b4;" x="217.435671" xlink:href="#me4163e13d0" y="151.487193"/>
     <use style="fill:#1f77b4;stroke:#1f77b4;" x="211.419084" xlink:href="#me4163e13d0" y="97.772979"/>
     <use style="fill:#1f77b4;stroke:#1f77b4;" x="120.212097" xlink:href="#me4163e13d0" y="136.854704"/>
     <use style="fill:#1f77b4;stroke:#1f77b4;" x="193.788134" xlink:href="#me4163e13d0" y="75.441738"/>
     <use style="fill:#1f77b4;stroke:#1f77b4;" x="186.317805" xlink:href="#me4163e13d0" y="128.410427"/>
     <use style="fill:#1f77b4;stroke:#1f77b4;" x="160.142247" xlink:href="#me4163e13d0" y="135.192016"/>
     <use style="fill:#1f77b4;stroke:#1f77b4;" x="191.075673" xlink:href="#me4163e13d0" y="29.202102"/>
     <use style="fill:#1f77b4;stroke:#1f77b4;" x="184.821971" xlink:href="#me4163e13d0" y="125.751183"/>
     <use style="fill:#1f77b4;stroke:#1f77b4;" x="114.213173" xlink:href="#me4163e13d0" y="117.854981"/>
     <use style="fill:#1f77b4;stroke:#1f77b4;" x="186.253545" xlink:href="#me4163e13d0" y="128.296907"/>
     <use style="fill:#1f77b4;stroke:#1f77b4;" x="183.164366" xlink:href="#me4163e13d0" y="112.170189"/>
     <use style="fill:#1f77b4;stroke:#1f77b4;" x="178.7943" xlink:href="#me4163e13d0" y="128.173013"/>
     <use style="fill:#1f77b4;stroke:#1f77b4;" x="213.001346" xlink:href="#me4163e13d0" y="149.554639"/>
     <use style="fill:#1f77b4;stroke:#1f77b4;" x="220.943204" xlink:href="#me4163e13d0" y="129.35356"/>
    </g>
   </g>
   <g id="line2d_11">
    <path clip-path="url(#p66fbde2862)" d="M 44.546875 91.015157 
L 267.746875 91.015157 
" style="fill:none;stroke:#008000;stroke-linecap:round;stroke-width:1.5;"/>
   </g>
   <g id="line2d_12">
    <path clip-path="url(#p66fbde2862)" d="M 44.546875 170.936932 
L 267.746875 170.936932 
" style="fill:none;stroke:#008000;stroke-linecap:round;stroke-width:1.5;"/>
   </g>
   <g id="patch_3">
    <path d="M 44.546875 184.869375 
L 44.546875 21.789375 
" style="fill:none;stroke:#cccccc;stroke-linecap:square;stroke-linejoin:miter;stroke-width:0.8;"/>
   </g>
   <g id="patch_4">
    <path d="M 267.746875 184.869375 
L 267.746875 21.789375 
" style="fill:none;stroke:#cccccc;stroke-linecap:square;stroke-linejoin:miter;stroke-width:0.8;"/>
   </g>
   <g id="patch_5">
    <path d="M 44.546875 184.869375 
L 267.746875 184.869375 
" style="fill:none;stroke:#cccccc;stroke-linecap:square;stroke-linejoin:miter;stroke-width:0.8;"/>
   </g>
   <g id="patch_6">
    <path d="M 44.546875 21.789375 
L 267.746875 21.789375 
" style="fill:none;stroke:#cccccc;stroke-linecap:square;stroke-linejoin:miter;stroke-width:0.8;"/>
   </g>
   <g id="text_13">
    <!-- Test Set Predictions -->
    <g style="fill:#262626;" transform="translate(103.1275 15.789375)scale(0.12 -0.12)">
     <defs>
      <path d="M 25.921875 0 
L 25.921875 63.140625 
L 2.34375 63.140625 
L 2.34375 71.578125 
L 59.078125 71.578125 
L 59.078125 63.140625 
L 35.40625 63.140625 
L 35.40625 0 
z
" id="ArialMT-84"/>
      <path d="M 3.078125 15.484375 
L 11.765625 16.84375 
Q 12.5 11.625 15.84375 8.84375 
Q 19.1875 6.0625 25.203125 6.0625 
Q 31.25 6.0625 34.171875 8.515625 
Q 37.109375 10.984375 37.109375 14.3125 
Q 37.109375 17.28125 34.515625 19 
Q 32.71875 20.171875 25.53125 21.96875 
Q 15.875 24.421875 12.140625 26.203125 
Q 8.40625 27.984375 6.46875 31.125 
Q 4.546875 34.28125 4.546875 38.09375 
Q 4.546875 41.546875 6.125 44.5 
Q 7.71875 47.46875 10.453125 49.421875 
Q 12.5 50.921875 16.03125 51.96875 
Q 19.578125 53.03125 23.640625 53.03125 
Q 29.734375 53.03125 34.34375 51.265625 
Q 38.96875 49.515625 41.15625 46.5 
Q 43.359375 43.5 44.1875 38.484375 
L 35.59375 37.3125 
Q 35.015625 41.3125 32.203125 43.546875 
Q 29.390625 45.796875 24.265625 45.796875 
Q 18.21875 45.796875 15.625 43.796875 
Q 13.03125 41.796875 13.03125 39.109375 
Q 13.03125 37.40625 14.109375 36.03125 
Q 15.1875 34.625 17.484375 33.6875 
Q 18.796875 33.203125 25.25 31.453125 
Q 34.578125 28.953125 38.25 27.359375 
Q 41.9375 25.78125 44.03125 22.75 
Q 46.140625 19.734375 46.140625 15.234375 
Q 46.140625 10.84375 43.578125 6.953125 
Q 41.015625 3.078125 36.171875 0.953125 
Q 31.34375 -1.171875 25.25 -1.171875 
Q 15.140625 -1.171875 9.84375 3.03125 
Q 4.546875 7.234375 3.078125 15.484375 
z
" id="ArialMT-115"/>
      <path d="M 4.5 23 
L 13.421875 23.78125 
Q 14.0625 18.40625 16.375 14.96875 
Q 18.703125 11.53125 23.578125 9.40625 
Q 28.46875 7.28125 34.578125 7.28125 
Q 39.984375 7.28125 44.140625 8.890625 
Q 48.296875 10.5 50.3125 13.296875 
Q 52.34375 16.109375 52.34375 19.4375 
Q 52.34375 22.796875 50.390625 25.3125 
Q 48.4375 27.828125 43.953125 29.546875 
Q 41.0625 30.671875 31.203125 33.03125 
Q 21.34375 35.40625 17.390625 37.5 
Q 12.25 40.1875 9.734375 44.15625 
Q 7.234375 48.140625 7.234375 53.078125 
Q 7.234375 58.5 10.296875 63.203125 
Q 13.375 67.921875 19.28125 70.359375 
Q 25.203125 72.796875 32.421875 72.796875 
Q 40.375 72.796875 46.453125 70.234375 
Q 52.546875 67.671875 55.8125 62.6875 
Q 59.078125 57.71875 59.328125 51.421875 
L 50.25 50.734375 
Q 49.515625 57.515625 45.28125 60.984375 
Q 41.0625 64.453125 32.8125 64.453125 
Q 24.21875 64.453125 20.28125 61.296875 
Q 16.359375 58.15625 16.359375 53.71875 
Q 16.359375 49.859375 19.140625 47.359375 
Q 21.875 44.875 33.421875 42.265625 
Q 44.96875 39.65625 49.265625 37.703125 
Q 55.515625 34.8125 58.484375 30.390625 
Q 61.46875 25.984375 61.46875 20.21875 
Q 61.46875 14.5 58.203125 9.4375 
Q 54.9375 4.390625 48.796875 1.578125 
Q 42.671875 -1.21875 35.015625 -1.21875 
Q 25.296875 -1.21875 18.71875 1.609375 
Q 12.15625 4.4375 8.421875 10.125 
Q 4.6875 15.828125 4.5 23 
z
" id="ArialMT-83"/>
      <path d="M 6.59375 0 
L 6.59375 51.859375 
L 14.5 51.859375 
L 14.5 44.484375 
Q 20.21875 53.03125 31 53.03125 
Q 35.6875 53.03125 39.625 51.34375 
Q 43.5625 49.65625 45.515625 46.921875 
Q 47.46875 44.1875 48.25 40.4375 
Q 48.734375 37.984375 48.734375 31.890625 
L 48.734375 0 
L 39.9375 0 
L 39.9375 31.546875 
Q 39.9375 36.921875 38.90625 39.578125 
Q 37.890625 42.234375 35.28125 43.8125 
Q 32.671875 45.40625 29.15625 45.40625 
Q 23.53125 45.40625 19.453125 41.84375 
Q 15.375 38.28125 15.375 28.328125 
L 15.375 0 
z
" id="ArialMT-110"/>
     </defs>
     <use xlink:href="#ArialMT-84"/>
     <use x="49.958984" xlink:href="#ArialMT-101"/>
     <use x="105.574219" xlink:href="#ArialMT-115"/>
     <use x="155.574219" xlink:href="#ArialMT-116"/>
     <use x="183.357422" xlink:href="#ArialMT-32"/>
     <use x="211.140625" xlink:href="#ArialMT-83"/>
     <use x="277.839844" xlink:href="#ArialMT-101"/>
     <use x="333.455078" xlink:href="#ArialMT-116"/>
     <use x="361.238281" xlink:href="#ArialMT-32"/>
     <use x="389.021484" xlink:href="#ArialMT-80"/>
     <use x="455.720703" xlink:href="#ArialMT-114"/>
     <use x="489.021484" xlink:href="#ArialMT-101"/>
     <use x="544.636719" xlink:href="#ArialMT-100"/>
     <use x="600.251953" xlink:href="#ArialMT-105"/>
     <use x="622.46875" xlink:href="#ArialMT-99"/>
     <use x="672.46875" xlink:href="#ArialMT-116"/>
     <use x="700.251953" xlink:href="#ArialMT-105"/>
     <use x="722.46875" xlink:href="#ArialMT-111"/>
     <use x="778.083984" xlink:href="#ArialMT-110"/>
     <use x="833.699219" xlink:href="#ArialMT-115"/>
    </g>
   </g>
  </g>
 </g>
 <defs>
  <clipPath id="p66fbde2862">
   <rect height="163.08" width="223.2" x="44.546875" y="21.789375"/>
  </clipPath>
 </defs>
</svg>
