<svg class="main-svg" xmlns="http://www.w3.org/2000/svg" xmlns:xlink="http://www.w3.org/1999/xlink" width="450" height="250" style="" viewBox="0 0 450 250"><rect x="0" y="0" width="450" height="250" style="fill: rgb(255, 255, 255); fill-opacity: 1;"/><defs id="defs-32ec87"><g class="clips"><clipPath id="clip32ec87xyplot" class="plotclip"><rect width="304" height="161"/></clipPath><clipPath class="axesclip" id="clip32ec87x"><rect x="60" y="0" width="304" height="250"/></clipPath><clipPath class="axesclip" id="clip32ec87y"><rect x="0" y="30" width="450" height="161"/></clipPath><clipPath class="axesclip" id="clip32ec87xy"><rect x="60" y="30" width="304" height="161"/></clipPath></g><g class="gradients"/><g class="patterns"/></defs><g class="bglayer"/><g class="layer-below"><g class="imagelayer"/><g class="shapelayer"/></g><g class="cartesianlayer"><g class="subplot xy"><g class="layer-subplot"><g class="shapelayer"/><g class="imagelayer"/></g><g class="gridlayer"><g class="x"><path class="xgrid crisp" transform="translate(96.64,0)" d="M0,30v161" style="stroke: rgb(232, 232, 232); stroke-opacity: 1; stroke-width: 1px;"/><path class="xgrid crisp" transform="translate(205.52,0)" d="M0,30v161" style="stroke: rgb(232, 232, 232); stroke-opacity: 1; stroke-width: 1px;"/><path class="xgrid crisp" transform="translate(314.25,0)" d="M0,30v161" style="stroke: rgb(232, 232, 232); stroke-opacity: 1; stroke-width: 1px;"/></g><g class="y"><path class="ygrid crisp" transform="translate(0,134.69)" d="M60,0h304" style="stroke: rgb(232, 232, 232); stroke-opacity: 1; stroke-width: 1px;"/><path class="ygrid crisp" transform="translate(0,60.56)" d="M60,0h304" style="stroke: rgb(232, 232, 232); stroke-opacity: 1; stroke-width: 1px;"/></g></g><g class="zerolinelayer"/><path class="xlines-below"/><path class="ylines-below"/><g class="overlines-below"/><g class="xaxislayer-below"/><g class="yaxislayer-below"/><g class="overaxes-below"/><g class="plot" transform="translate(60,30)" clip-path="url(#clip32ec87xyplot)"><g class="scatterlayer mlayer"><g class="trace scatter trace4a500b" style="stroke-miterlimit: 2; opacity: 1;"><g class="fills"/><g class="errorbars"/><g class="lines"><path class="js-line" d="M0,104.69L9.09,98.88L13.7,100.33L18.32,93.65L22.79,93.65L27.41,93.94L31.87,90.16L36.49,90.16L41.11,87.25L45.43,92.48L50.05,90.16L54.51,86.67L59.13,78.53L63.6,74.46L68.22,72.71L72.83,71.26L77.3,68.06L81.92,66.9L86.39,63.99L91.01,61.09L95.62,61.09L99.79,63.99L104.41,58.18L108.88,52.37L113.5,43.64L117.97,37.83L122.58,34.92L127.2,32.02L131.67,22.13L136.29,23.29L140.75,23.29L145.37,29.11L149.99,27.95L154.16,29.11L158.78,29.4L163.25,32.02L167.86,25.33L172.33,25.62L176.95,26.78L181.57,23.29L186.03,26.2L195.12,26.78L199.74,24.75L204.35,20.97L208.53,34.92L213.14,34.92L217.61,29.11L226.7,29.11L231.31,23.29L235.93,29.11L240.4,38.99L245.02,50.33L249.49,49.46L258.72,67.48L263.04,78.53L267.66,95.97L272.13,107.6L276.74,113.41L281.21,122.14L285.83,125.62L290.45,137.25L294.91,148.3L299.53,152.95L304,152.66" style="vector-effect: non-scaling-stroke; fill: none; stroke: rgb(0, 0, 4); stroke-opacity: 1; stroke-width: 2px; opacity: 1;"/></g><g class="points"/><g class="text"/></g><g class="trace scatter trace59b5f2" style="stroke-miterlimit: 2; opacity: 1;"><g class="fills"/><g class="errorbars"/><g class="lines"><path class="js-line" d="M0,104.69L9.09,95.97L13.7,95.97L18.32,91.61L22.79,91.61L27.41,91.61L31.87,89.43L36.49,87.25L41.11,86.16L45.43,87.25L50.05,85.07L54.51,80.71L59.13,74.17L63.6,69.37L68.22,67.63L72.83,65.45L77.3,65.45L81.92,65.45L86.39,61.09L91.01,61.09L95.62,58.91L99.79,61.96L104.41,53.24L117.97,34.92L122.58,32.31L127.2,26.64L131.67,22.71L136.29,27.07L140.75,24.02L145.37,25.33L149.99,28.38L154.16,29.69L158.78,28.38L163.25,28.38L167.86,20.97L172.33,21.84L176.95,21.84L181.57,20.53L186.03,24.02L195.12,28.38L199.74,26.2L204.35,24.02L208.53,30.56L213.14,34.92L217.61,21.84L222.23,18.35L226.7,17.48L231.31,15.74L235.93,15.3L240.4,23.15L245.02,34.92L254.1,43.64L258.72,58.91L276.74,95.97L281.21,100.77L285.83,106.87L290.45,119.95L294.91,126.5L299.53,135.22L304,136.09" style="vector-effect: non-scaling-stroke; fill: none; stroke: rgb(27, 12, 65); stroke-opacity: 1; stroke-width: 2px; opacity: 1; stroke-dasharray: 3px, 3px;"/></g><g class="points"/><g class="text"/></g><g class="trace scatter trace8924c0" style="stroke-miterlimit: 2; opacity: 1;"><g class="fills"/><g class="errorbars"/><g class="lines"><path class="js-line" d="M0,104.69L4.62,99.76L9.09,96.24L13.7,94.48L18.32,91.31L22.79,92.54L27.41,91.31L31.87,91.84L36.49,89.2L41.11,87.79L45.43,90.25L50.05,87.44L54.51,82.15L59.13,76.87L63.6,69.83L72.83,66.31L77.3,68.07L81.92,69.83L86.39,62.79L91.01,62.79L95.62,59.97L99.79,62.08L104.41,52.57L108.88,49.05L113.5,41.66L117.97,36.73L122.58,33.73L131.67,27.57L136.29,32.85L140.75,29.15L145.37,29.33L149.99,32.85L154.16,34.61L158.78,31.09L163.25,29.33L167.86,25.81L172.33,24.05L176.95,25.1L181.57,24.05L190.65,31.09L195.12,30.74L204.35,30.74L208.53,32.85L213.14,33.2L217.61,22.29L222.23,15.95L226.7,14.19L231.31,13.48L235.93,14.36L240.4,20.53L245.02,30.56L249.49,25.98L254.1,32.85L263.04,59.26L267.66,62.79L272.13,75.82L276.74,80.39L281.21,87.44L285.83,92.72L299.53,122.65L304,124.41" style="vector-effect: non-scaling-stroke; fill: none; stroke: rgb(74, 12, 107); stroke-opacity: 1; stroke-width: 2px; opacity: 1; stroke-dasharray: 9px, 9px;"/></g><g class="points"/><g class="text"/></g><g class="trace scatter trace735352" style="stroke-miterlimit: 2; opacity: 1;"><g class="fills"/><g class="errorbars"/><g class="lines"><path class="js-line" d="M0,104.69L4.62,101.09L9.09,100.54L13.7,96.38L18.32,93.61L27.41,94.99L31.87,96.66L36.49,93.61L41.11,92.22L45.43,93.61L50.05,91.11L54.51,86.68L59.13,79.75L63.6,74.76L68.22,72.82L72.83,72.82L77.3,74.21L81.92,77.53L86.39,71.44L95.62,69.36L99.79,71.02L104.41,59.8L108.88,53.98L113.5,47.88L117.97,47.88L127.2,41.92L131.67,41.79L136.29,46.36L140.75,45.11L145.37,43.17L149.99,45.94L154.16,46.5L158.78,43.86L163.25,43.03L167.86,38.18L172.33,35.69L176.95,36.8L181.57,36.8L186.03,41.65L190.65,43.73L195.12,43.73L199.74,45.11L204.35,47.33L208.53,47.88L213.14,45.11L217.61,32.78L222.23,24.33L226.7,23.36L231.31,17.4L235.93,17.4L240.4,24.33L245.02,32.64L249.49,28.48L254.1,31.26L258.72,45.11L263.04,53.42L267.66,52.04L272.13,65.9L276.74,68.67L281.21,68.67L285.83,72.82L290.45,85.29L294.91,92.78L299.53,108.16L304,110.24" style="vector-effect: non-scaling-stroke; fill: none; stroke: rgb(120, 28, 109); stroke-opacity: 1; stroke-width: 2px; opacity: 1; stroke-dasharray: 15px, 15px;"/></g><g class="points"/><g class="text"/></g><g class="trace scatter trace475981" style="stroke-miterlimit: 2; opacity: 1;"><g class="fills"/><g class="errorbars"/><g class="lines"><path class="js-line" d="M0,104.69L4.62,102.24L9.09,102.24L13.7,100.55L18.32,92.82L22.79,99.42L27.41,100.36L31.87,103.19L36.49,98.85L45.43,98.48L50.05,96.59L54.51,91.88L59.13,85.29L63.6,77.75L68.22,79.83L72.83,80.01L77.3,83.4L81.92,87.08L86.39,79.83L91.01,80.01L95.62,77.75L99.79,79.64L104.41,62.78L108.88,55.9L113.5,50.44L117.97,52.32L122.58,49.97L127.2,41.02L131.67,45.73L136.29,57.97L140.75,45.92L145.37,48.84L149.99,55.71L154.16,57.97L158.78,55.34L167.86,36.31L172.33,34.42L176.95,30.84L181.57,36.31L186.03,48.55L190.65,54.86L195.12,45.73L199.74,55.05L204.35,64.57L208.53,53.26L213.14,46.67L217.61,25.95L222.23,17.66L226.7,12.76L231.31,8.05L235.93,12.76L245.02,26.89L249.49,17.47L254.1,20.3L258.72,34.42L263.04,40.08L267.66,29.15L272.13,45.73L276.74,42.9L281.21,34.8L285.83,52.32L290.45,69.28L294.91,73.99L299.53,88.11L304,94.43" style="vector-effect: non-scaling-stroke; fill: none; stroke: rgb(165, 44, 96); stroke-opacity: 1; stroke-width: 2px; opacity: 1; stroke-dasharray: 9px, 3px, 3px, 3px;"/></g><g class="points"/><g class="text"/></g></g></g><g class="overplot"/><path class="xlines-above crisp" d="M59,191.5H364" style="fill: none; stroke-width: 1px; stroke: rgb(36, 36, 36); stroke-opacity: 1;"/><path class="ylines-above crisp" d="M59.5,30V191" style="fill: none; stroke-width: 1px; stroke: rgb(36, 36, 36); stroke-opacity: 1;"/><g class="overlines-above"/><g class="xaxislayer-above"><path class="xtick ticks crisp" d="M0,192v5" transform="translate(96.64,0)" style="stroke: rgb(68, 68, 68); stroke-opacity: 1; stroke-width: 1px;"/><path class="xtick ticks crisp" d="M0,192v5" transform="translate(205.52,0)" style="stroke: rgb(68, 68, 68); stroke-opacity: 1; stroke-width: 1px;"/><path class="xtick ticks crisp" d="M0,192v5" transform="translate(314.25,0)" style="stroke: rgb(68, 68, 68); stroke-opacity: 1; stroke-width: 1px;"/><g class="xtick"><text text-anchor="middle" x="0" y="211.4" transform="translate(96.64,0)" style="font-family: 'Open Sans', verdana, arial, sans-serif; font-size: 12px; fill: rgb(36, 36, 36); fill-opacity: 1; white-space: pre; opacity: 1;">2004</text></g><g class="xtick"><text text-anchor="middle" x="0" y="211.4" style="font-family: 'Open Sans', verdana, arial, sans-serif; font-size: 12px; fill: rgb(36, 36, 36); fill-opacity: 1; white-space: pre; opacity: 1;" transform="translate(205.52,0)">2006</text></g><g class="xtick"><text text-anchor="middle" x="0" y="211.4" style="font-family: 'Open Sans', verdana, arial, sans-serif; font-size: 12px; fill: rgb(36, 36, 36); fill-opacity: 1; white-space: pre; opacity: 1;" transform="translate(314.25,0)">2008</text></g></g><g class="yaxislayer-above"><path class="ytick ticks crisp" d="M59,0h-5" transform="translate(0,134.69)" style="stroke: rgb(68, 68, 68); stroke-opacity: 1; stroke-width: 1px;"/><path class="ytick ticks crisp" d="M59,0h-5" transform="translate(0,60.56)" style="stroke: rgb(68, 68, 68); stroke-opacity: 1; stroke-width: 1px;"/><g class="ytick"><text text-anchor="end" x="51.6" y="4.199999999999999" transform="translate(0,134.69)" style="font-family: 'Open Sans', verdana, arial, sans-serif; font-size: 12px; fill: rgb(36, 36, 36); fill-opacity: 1; white-space: pre; opacity: 1;">1</text></g><g class="ytick"><text text-anchor="end" x="51.6" y="4.199999999999999" style="font-family: 'Open Sans', verdana, arial, sans-serif; font-size: 12px; fill: rgb(36, 36, 36); fill-opacity: 1; white-space: pre; opacity: 1;" transform="translate(0,60.56)">1.5</text></g></g><g class="overaxes-above"/></g></g><g class="polarlayer"/><g class="smithlayer"/><g class="ternarylayer"/><g class="geolayer"/><g class="funnelarealayer"/><g class="pielayer"/><g class="iciclelayer"/><g class="treemaplayer"/><g class="sunburstlayer"/><g class="glimages"/><defs id="topdefs-32ec87"><g class="clips"/><clipPath id="legend32ec87"><rect width="70" height="124" x="0" y="0"/></clipPath></defs><g class="layer-above"><g class="imagelayer"/><g class="shapelayer"/></g><g class="infolayer"><g class="legend" pointer-events="all" transform="translate(370.08,30)"><rect class="bg" shape-rendering="crispEdges" width="70" height="124" x="0" y="0" style="stroke: rgb(68, 68, 68); stroke-opacity: 1; fill: rgb(255, 255, 255); fill-opacity: 1; stroke-width: 0px;"/><g class="scrollbox" transform="" clip-path="url(#legend32ec87)"><text class="legendtitletext" text-anchor="start" x="2" y="18.2" style="font-family: 'Open Sans', verdana, arial, sans-serif; font-size: 14px; fill: rgb(36, 36, 36); fill-opacity: 1; white-space: pre;">percentile</text><g class="groups" transform=""><g class="traces" transform="translate(0,32.7)" style="opacity: 1;"><text class="legendtext" text-anchor="start" x="40" y="4.680000000000001" style="font-family: 'Open Sans', verdana, arial, sans-serif; font-size: 12px; fill: rgb(36, 36, 36); fill-opacity: 1; white-space: pre;">10</text><g class="layers" style="opacity: 1;"><g class="legendfill"/><g class="legendlines"><path class="js-line" d="M5,0h30" style="fill: none; stroke: rgb(0, 0, 4); stroke-opacity: 1; stroke-width: 2px;"/></g><g class="legendsymbols"><g class="legendpoints"/></g></g><rect class="legendtoggle" x="0" y="-9.5" width="53.734375" height="19" style="fill: rgb(0, 0, 0); fill-opacity: 0;"/></g></g><g class="groups" transform=""><g class="traces" transform="translate(0,51.7)" style="opacity: 1;"><text class="legendtext" text-anchor="start" x="40" y="4.680000000000001" style="font-family: 'Open Sans', verdana, arial, sans-serif; font-size: 12px; fill: rgb(36, 36, 36); fill-opacity: 1; white-space: pre;">30</text><g class="layers" style="opacity: 1;"><g class="legendfill"/><g class="legendlines"><path class="js-line" d="M5,0h30" style="fill: none; stroke: rgb(27, 12, 65); stroke-opacity: 1; stroke-dasharray: 3px, 3px; stroke-width: 2px;"/></g><g class="legendsymbols"><g class="legendpoints"/></g></g><rect class="legendtoggle" x="0" y="-9.5" width="53.734375" height="19" style="fill: rgb(0, 0, 0); fill-opacity: 0;"/></g></g><g class="groups" transform=""><g class="traces" transform="translate(0,70.7)" style="opacity: 1;"><text class="legendtext" text-anchor="start" x="40" y="4.680000000000001" style="font-family: 'Open Sans', verdana, arial, sans-serif; font-size: 12px; fill: rgb(36, 36, 36); fill-opacity: 1; white-space: pre;">50</text><g class="layers" style="opacity: 1;"><g class="legendfill"/><g class="legendlines"><path class="js-line" d="M5,0h30" style="fill: none; stroke: rgb(74, 12, 107); stroke-opacity: 1; stroke-dasharray: 9px, 9px; stroke-width: 2px;"/></g><g class="legendsymbols"><g class="legendpoints"/></g></g><rect class="legendtoggle" x="0" y="-9.5" width="53.734375" height="19" style="fill: rgb(0, 0, 0); fill-opacity: 0;"/></g></g><g class="groups" transform=""><g class="traces" transform="translate(0,89.7)" style="opacity: 1;"><text class="legendtext" text-anchor="start" x="40" y="4.680000000000001" style="font-family: 'Open Sans', verdana, arial, sans-serif; font-size: 12px; fill: rgb(36, 36, 36); fill-opacity: 1; white-space: pre;">70</text><g class="layers" style="opacity: 1;"><g class="legendfill"/><g class="legendlines"><path class="js-line" d="M5,0h30" style="fill: none; stroke: rgb(120, 28, 109); stroke-opacity: 1; stroke-dasharray: 15px, 15px; stroke-width: 2px;"/></g><g class="legendsymbols"><g class="legendpoints"/></g></g><rect class="legendtoggle" x="0" y="-9.5" width="53.734375" height="19" style="fill: rgb(0, 0, 0); fill-opacity: 0;"/></g></g><g class="groups" transform=""><g class="traces" transform="translate(0,108.7)" style="opacity: 1;"><text class="legendtext" text-anchor="start" x="40" y="4.680000000000001" style="font-family: 'Open Sans', verdana, arial, sans-serif; font-size: 12px; fill: rgb(36, 36, 36); fill-opacity: 1; white-space: pre;">90</text><g class="layers" style="opacity: 1;"><g class="legendfill"/><g class="legendlines"><path class="js-line" d="M5,0h30" style="fill: none; stroke: rgb(165, 44, 96); stroke-opacity: 1; stroke-dasharray: 9px, 3px, 3px, 3px; stroke-width: 2px;"/></g><g class="legendsymbols"><g class="legendpoints"/></g></g><rect class="legendtoggle" x="0" y="-9.5" width="53.734375" height="19" style="fill: rgb(0, 0, 0); fill-opacity: 0;"/></g></g></g><rect class="scrollbar" rx="20" ry="3" width="0" height="0" x="0" y="0" style="fill: rgb(128, 139, 164); fill-opacity: 1;"/></g><g class="g-gtitle"><text class="gtitle" x="225" y="15" text-anchor="middle" dy="0em" style="font-family: 'Open Sans', verdana, arial, sans-serif; font-size: 17px; fill: rgb(36, 36, 36); opacity: 1; font-weight: normal; white-space: pre;">House Sale Prices, Relative to April 2003</text></g><g class="g-xtitle"><text class="xtitle" x="212" y="239.70625" text-anchor="middle" style="font-family: 'Open Sans', verdana, arial, sans-serif; font-size: 14px; fill: rgb(36, 36, 36); opacity: 1; font-weight: normal; white-space: pre;">date</text></g><g class="g-ytitle" transform="translate(5.1279296875,0)"><text class="ytitle" transform="rotate(-90,9.871875000000003,110.5)" x="9.871875000000003" y="110.5" text-anchor="middle" style="font-family: 'Open Sans', verdana, arial, sans-serif; font-size: 14px; fill: rgb(36, 36, 36); opacity: 1; font-weight: normal; white-space: pre;">rel_price</text></g></g></svg>