<?xml version="1.0" encoding="utf-8" standalone="no"?>
<!DOCTYPE svg PUBLIC "-//W3C//DTD SVG 1.1//EN"
  "http://www.w3.org/Graphics/SVG/1.1/DTD/svg11.dtd">
<svg xmlns:xlink="http://www.w3.org/1999/xlink" width="425.27pt" height="198.920937pt" viewBox="0 0 425.27 198.920937" xmlns="http://www.w3.org/2000/svg" version="1.1">
 <metadata>
  <rdf:RDF xmlns:dc="http://purl.org/dc/elements/1.1/" xmlns:cc="http://creativecommons.org/ns#" xmlns:rdf="http://www.w3.org/1999/02/22-rdf-syntax-ns#">
   <cc:Work>
    <dc:type rdf:resource="http://purl.org/dc/dcmitype/StillImage"/>
    <dc:date>2023-05-29T21:08:18.032483</dc:date>
    <dc:format>image/svg+xml</dc:format>
    <dc:creator>
     <cc:Agent>
      <dc:title>Matplotlib v3.7.0, https://matplotlib.org/</dc:title>
     </cc:Agent>
    </dc:creator>
   </cc:Work>
  </rdf:RDF>
 </metadata>
 <defs>
  <style type="text/css">*{stroke-linejoin: round; stroke-linecap: butt}</style>
 </defs>
 <g id="figure_1">
  <g id="patch_1">
   <path d="M 0 198.920937 
L 425.27 198.920937 
L 425.27 0 
L 0 0 
z
" style="fill: #ffffff"/>
  </g>
  <g id="axes_1">
   <g id="patch_2">
    <path d="M 70.15 175.575625 
L 237.892557 175.575625 
L 237.892557 21.935625 
L 70.15 21.935625 
z
" style="fill: #ffffff"/>
   </g>
   <g id="matplotlib.axis_1">
    <g id="xtick_1">
     <g id="line2d_1">
      <path d="M 77.774662 175.575625 
L 77.774662 21.935625 
" clip-path="url(#pa955b430c9)" style="fill: none; stroke: #cccccc; stroke-width: 0.8; stroke-linecap: round"/>
     </g>
     <g id="text_1">
      <!-- 0.00 -->
      <g style="fill: #262626" transform="translate(68.044193 189.733437) scale(0.1 -0.1)">
       <defs>
        <path id="ArialMT-30" d="M 266 2259 
Q 266 3072 433 3567 
Q 600 4063 929 4331 
Q 1259 4600 1759 4600 
Q 2128 4600 2406 4451 
Q 2684 4303 2865 4023 
Q 3047 3744 3150 3342 
Q 3253 2941 3253 2259 
Q 3253 1453 3087 958 
Q 2922 463 2592 192 
Q 2263 -78 1759 -78 
Q 1097 -78 719 397 
Q 266 969 266 2259 
z
M 844 2259 
Q 844 1131 1108 757 
Q 1372 384 1759 384 
Q 2147 384 2411 759 
Q 2675 1134 2675 2259 
Q 2675 3391 2411 3762 
Q 2147 4134 1753 4134 
Q 1366 4134 1134 3806 
Q 844 3388 844 2259 
z
" transform="scale(0.015625)"/>
        <path id="ArialMT-2e" d="M 581 0 
L 581 641 
L 1222 641 
L 1222 0 
L 581 0 
z
" transform="scale(0.015625)"/>
       </defs>
       <use xlink:href="#ArialMT-30"/>
       <use xlink:href="#ArialMT-2e" x="55.615234"/>
       <use xlink:href="#ArialMT-30" x="83.398438"/>
       <use xlink:href="#ArialMT-30" x="139.013672"/>
      </g>
     </g>
    </g>
    <g id="xtick_2">
     <g id="line2d_2">
      <path d="M 115.89797 175.575625 
L 115.89797 21.935625 
" clip-path="url(#pa955b430c9)" style="fill: none; stroke: #cccccc; stroke-width: 0.8; stroke-linecap: round"/>
     </g>
     <g id="text_2">
      <!-- 0.25 -->
      <g style="fill: #262626" transform="translate(106.167501 189.733437) scale(0.1 -0.1)">
       <defs>
        <path id="ArialMT-32" d="M 3222 541 
L 3222 0 
L 194 0 
Q 188 203 259 391 
Q 375 700 629 1000 
Q 884 1300 1366 1694 
Q 2113 2306 2375 2664 
Q 2638 3022 2638 3341 
Q 2638 3675 2398 3904 
Q 2159 4134 1775 4134 
Q 1369 4134 1125 3890 
Q 881 3647 878 3216 
L 300 3275 
Q 359 3922 746 4261 
Q 1134 4600 1788 4600 
Q 2447 4600 2831 4234 
Q 3216 3869 3216 3328 
Q 3216 3053 3103 2787 
Q 2991 2522 2730 2228 
Q 2469 1934 1863 1422 
Q 1356 997 1212 845 
Q 1069 694 975 541 
L 3222 541 
z
" transform="scale(0.015625)"/>
        <path id="ArialMT-35" d="M 266 1200 
L 856 1250 
Q 922 819 1161 601 
Q 1400 384 1738 384 
Q 2144 384 2425 690 
Q 2706 997 2706 1503 
Q 2706 1984 2436 2262 
Q 2166 2541 1728 2541 
Q 1456 2541 1237 2417 
Q 1019 2294 894 2097 
L 366 2166 
L 809 4519 
L 3088 4519 
L 3088 3981 
L 1259 3981 
L 1013 2750 
Q 1425 3038 1878 3038 
Q 2478 3038 2890 2622 
Q 3303 2206 3303 1553 
Q 3303 931 2941 478 
Q 2500 -78 1738 -78 
Q 1113 -78 717 272 
Q 322 622 266 1200 
z
" transform="scale(0.015625)"/>
       </defs>
       <use xlink:href="#ArialMT-30"/>
       <use xlink:href="#ArialMT-2e" x="55.615234"/>
       <use xlink:href="#ArialMT-32" x="83.398438"/>
       <use xlink:href="#ArialMT-35" x="139.013672"/>
      </g>
     </g>
    </g>
    <g id="xtick_3">
     <g id="line2d_3">
      <path d="M 154.021278 175.575625 
L 154.021278 21.935625 
" clip-path="url(#pa955b430c9)" style="fill: none; stroke: #cccccc; stroke-width: 0.8; stroke-linecap: round"/>
     </g>
     <g id="text_3">
      <!-- 0.50 -->
      <g style="fill: #262626" transform="translate(144.29081 189.733437) scale(0.1 -0.1)">
       <use xlink:href="#ArialMT-30"/>
       <use xlink:href="#ArialMT-2e" x="55.615234"/>
       <use xlink:href="#ArialMT-35" x="83.398438"/>
       <use xlink:href="#ArialMT-30" x="139.013672"/>
      </g>
     </g>
    </g>
    <g id="xtick_4">
     <g id="line2d_4">
      <path d="M 192.144587 175.575625 
L 192.144587 21.935625 
" clip-path="url(#pa955b430c9)" style="fill: none; stroke: #cccccc; stroke-width: 0.8; stroke-linecap: round"/>
     </g>
     <g id="text_4">
      <!-- 0.75 -->
      <g style="fill: #262626" transform="translate(182.414118 189.733437) scale(0.1 -0.1)">
       <defs>
        <path id="ArialMT-37" d="M 303 3981 
L 303 4522 
L 3269 4522 
L 3269 4084 
Q 2831 3619 2401 2847 
Q 1972 2075 1738 1259 
Q 1569 684 1522 0 
L 944 0 
Q 953 541 1156 1306 
Q 1359 2072 1739 2783 
Q 2119 3494 2547 3981 
L 303 3981 
z
" transform="scale(0.015625)"/>
       </defs>
       <use xlink:href="#ArialMT-30"/>
       <use xlink:href="#ArialMT-2e" x="55.615234"/>
       <use xlink:href="#ArialMT-37" x="83.398438"/>
       <use xlink:href="#ArialMT-35" x="139.013672"/>
      </g>
     </g>
    </g>
    <g id="xtick_5">
     <g id="line2d_5">
      <path d="M 230.267895 175.575625 
L 230.267895 21.935625 
" clip-path="url(#pa955b430c9)" style="fill: none; stroke: #cccccc; stroke-width: 0.8; stroke-linecap: round"/>
     </g>
     <g id="text_5">
      <!-- 1.00 -->
      <g style="fill: #262626" transform="translate(220.537426 189.733437) scale(0.1 -0.1)">
       <defs>
        <path id="ArialMT-31" d="M 2384 0 
L 1822 0 
L 1822 3584 
Q 1619 3391 1289 3197 
Q 959 3003 697 2906 
L 697 3450 
Q 1169 3672 1522 3987 
Q 1875 4303 2022 4600 
L 2384 4600 
L 2384 0 
z
" transform="scale(0.015625)"/>
       </defs>
       <use xlink:href="#ArialMT-31"/>
       <use xlink:href="#ArialMT-2e" x="55.615234"/>
       <use xlink:href="#ArialMT-30" x="83.398438"/>
       <use xlink:href="#ArialMT-30" x="139.013672"/>
      </g>
     </g>
    </g>
   </g>
   <g id="matplotlib.axis_2">
    <g id="ytick_1">
     <g id="line2d_6">
      <path d="M 70.15 27.056958 
L 237.892557 27.056958 
" clip-path="url(#pa955b430c9)" style="fill: none; stroke: #cccccc; stroke-width: 0.8; stroke-linecap: round"/>
     </g>
     <g id="text_6">
      <!-- antifa -->
      <g style="fill: #262626" transform="translate(38.689063 30.635865) scale(0.1 -0.1)">
       <defs>
        <path id="ArialMT-61" d="M 2588 409 
Q 2275 144 1986 34 
Q 1697 -75 1366 -75 
Q 819 -75 525 192 
Q 231 459 231 875 
Q 231 1119 342 1320 
Q 453 1522 633 1644 
Q 813 1766 1038 1828 
Q 1203 1872 1538 1913 
Q 2219 1994 2541 2106 
Q 2544 2222 2544 2253 
Q 2544 2597 2384 2738 
Q 2169 2928 1744 2928 
Q 1347 2928 1158 2789 
Q 969 2650 878 2297 
L 328 2372 
Q 403 2725 575 2942 
Q 747 3159 1072 3276 
Q 1397 3394 1825 3394 
Q 2250 3394 2515 3294 
Q 2781 3194 2906 3042 
Q 3031 2891 3081 2659 
Q 3109 2516 3109 2141 
L 3109 1391 
Q 3109 606 3145 398 
Q 3181 191 3288 0 
L 2700 0 
Q 2613 175 2588 409 
z
M 2541 1666 
Q 2234 1541 1622 1453 
Q 1275 1403 1131 1340 
Q 988 1278 909 1158 
Q 831 1038 831 891 
Q 831 666 1001 516 
Q 1172 366 1500 366 
Q 1825 366 2078 508 
Q 2331 650 2450 897 
Q 2541 1088 2541 1459 
L 2541 1666 
z
" transform="scale(0.015625)"/>
        <path id="ArialMT-6e" d="M 422 0 
L 422 3319 
L 928 3319 
L 928 2847 
Q 1294 3394 1984 3394 
Q 2284 3394 2536 3286 
Q 2788 3178 2913 3003 
Q 3038 2828 3088 2588 
Q 3119 2431 3119 2041 
L 3119 0 
L 2556 0 
L 2556 2019 
Q 2556 2363 2490 2533 
Q 2425 2703 2258 2804 
Q 2091 2906 1866 2906 
Q 1506 2906 1245 2678 
Q 984 2450 984 1813 
L 984 0 
L 422 0 
z
" transform="scale(0.015625)"/>
        <path id="ArialMT-74" d="M 1650 503 
L 1731 6 
Q 1494 -44 1306 -44 
Q 1000 -44 831 53 
Q 663 150 594 308 
Q 525 466 525 972 
L 525 2881 
L 113 2881 
L 113 3319 
L 525 3319 
L 525 4141 
L 1084 4478 
L 1084 3319 
L 1650 3319 
L 1650 2881 
L 1084 2881 
L 1084 941 
Q 1084 700 1114 631 
Q 1144 563 1211 522 
Q 1278 481 1403 481 
Q 1497 481 1650 503 
z
" transform="scale(0.015625)"/>
        <path id="ArialMT-69" d="M 425 3934 
L 425 4581 
L 988 4581 
L 988 3934 
L 425 3934 
z
M 425 0 
L 425 3319 
L 988 3319 
L 988 0 
L 425 0 
z
" transform="scale(0.015625)"/>
        <path id="ArialMT-66" d="M 556 0 
L 556 2881 
L 59 2881 
L 59 3319 
L 556 3319 
L 556 3672 
Q 556 4006 616 4169 
Q 697 4388 901 4523 
Q 1106 4659 1475 4659 
Q 1713 4659 2000 4603 
L 1916 4113 
Q 1741 4144 1584 4144 
Q 1328 4144 1222 4034 
Q 1116 3925 1116 3625 
L 1116 3319 
L 1763 3319 
L 1763 2881 
L 1116 2881 
L 1116 0 
L 556 0 
z
" transform="scale(0.015625)"/>
       </defs>
       <use xlink:href="#ArialMT-61"/>
       <use xlink:href="#ArialMT-6e" x="55.615234"/>
       <use xlink:href="#ArialMT-74" x="111.230469"/>
       <use xlink:href="#ArialMT-69" x="139.013672"/>
       <use xlink:href="#ArialMT-66" x="161.230469"/>
       <use xlink:href="#ArialMT-61" x="189.013672"/>
      </g>
     </g>
    </g>
    <g id="ytick_2">
     <g id="line2d_7">
      <path d="M 70.15 37.299625 
L 237.892557 37.299625 
" clip-path="url(#pa955b430c9)" style="fill: none; stroke: #cccccc; stroke-width: 0.8; stroke-linecap: round"/>
     </g>
     <g id="text_7">
      <!-- joke -->
      <g style="fill: #262626" transform="translate(44.80625 40.878531) scale(0.1 -0.1)">
       <defs>
        <path id="ArialMT-6a" d="M 419 3928 
L 419 4581 
L 981 4581 
L 981 3928 
L 419 3928 
z
M -294 -1288 
L -188 -809 
Q -19 -853 78 -853 
Q 250 -853 334 -739 
Q 419 -625 419 -169 
L 419 3319 
L 981 3319 
L 981 -181 
Q 981 -794 822 -1034 
Q 619 -1347 147 -1347 
Q -81 -1347 -294 -1288 
z
" transform="scale(0.015625)"/>
        <path id="ArialMT-6f" d="M 213 1659 
Q 213 2581 725 3025 
Q 1153 3394 1769 3394 
Q 2453 3394 2887 2945 
Q 3322 2497 3322 1706 
Q 3322 1066 3130 698 
Q 2938 331 2570 128 
Q 2203 -75 1769 -75 
Q 1072 -75 642 372 
Q 213 819 213 1659 
z
M 791 1659 
Q 791 1022 1069 705 
Q 1347 388 1769 388 
Q 2188 388 2466 706 
Q 2744 1025 2744 1678 
Q 2744 2294 2464 2611 
Q 2184 2928 1769 2928 
Q 1347 2928 1069 2612 
Q 791 2297 791 1659 
z
" transform="scale(0.015625)"/>
        <path id="ArialMT-6b" d="M 425 0 
L 425 4581 
L 988 4581 
L 988 1969 
L 2319 3319 
L 3047 3319 
L 1778 2088 
L 3175 0 
L 2481 0 
L 1384 1697 
L 988 1316 
L 988 0 
L 425 0 
z
" transform="scale(0.015625)"/>
        <path id="ArialMT-65" d="M 2694 1069 
L 3275 997 
Q 3138 488 2766 206 
Q 2394 -75 1816 -75 
Q 1088 -75 661 373 
Q 234 822 234 1631 
Q 234 2469 665 2931 
Q 1097 3394 1784 3394 
Q 2450 3394 2872 2941 
Q 3294 2488 3294 1666 
Q 3294 1616 3291 1516 
L 816 1516 
Q 847 969 1125 678 
Q 1403 388 1819 388 
Q 2128 388 2347 550 
Q 2566 713 2694 1069 
z
M 847 1978 
L 2700 1978 
Q 2663 2397 2488 2606 
Q 2219 2931 1791 2931 
Q 1403 2931 1139 2672 
Q 875 2413 847 1978 
z
" transform="scale(0.015625)"/>
       </defs>
       <use xlink:href="#ArialMT-6a"/>
       <use xlink:href="#ArialMT-6f" x="22.216797"/>
       <use xlink:href="#ArialMT-6b" x="77.832031"/>
       <use xlink:href="#ArialMT-65" x="127.832031"/>
      </g>
     </g>
    </g>
    <g id="ytick_3">
     <g id="line2d_8">
      <path d="M 70.15 47.542292 
L 237.892557 47.542292 
" clip-path="url(#pa955b430c9)" style="fill: none; stroke: #cccccc; stroke-width: 0.8; stroke-linecap: round"/>
     </g>
     <g id="text_8">
      <!-- investig -->
      <g style="fill: #262626" transform="translate(29.245313 51.121198) scale(0.1 -0.1)">
       <defs>
        <path id="ArialMT-76" d="M 1344 0 
L 81 3319 
L 675 3319 
L 1388 1331 
Q 1503 1009 1600 663 
Q 1675 925 1809 1294 
L 2547 3319 
L 3125 3319 
L 1869 0 
L 1344 0 
z
" transform="scale(0.015625)"/>
        <path id="ArialMT-73" d="M 197 991 
L 753 1078 
Q 800 744 1014 566 
Q 1228 388 1613 388 
Q 2000 388 2187 545 
Q 2375 703 2375 916 
Q 2375 1106 2209 1216 
Q 2094 1291 1634 1406 
Q 1016 1563 777 1677 
Q 538 1791 414 1992 
Q 291 2194 291 2438 
Q 291 2659 392 2848 
Q 494 3038 669 3163 
Q 800 3259 1026 3326 
Q 1253 3394 1513 3394 
Q 1903 3394 2198 3281 
Q 2494 3169 2634 2976 
Q 2775 2784 2828 2463 
L 2278 2388 
Q 2241 2644 2061 2787 
Q 1881 2931 1553 2931 
Q 1166 2931 1000 2803 
Q 834 2675 834 2503 
Q 834 2394 903 2306 
Q 972 2216 1119 2156 
Q 1203 2125 1616 2013 
Q 2213 1853 2448 1751 
Q 2684 1650 2818 1456 
Q 2953 1263 2953 975 
Q 2953 694 2789 445 
Q 2625 197 2315 61 
Q 2006 -75 1616 -75 
Q 969 -75 630 194 
Q 291 463 197 991 
z
" transform="scale(0.015625)"/>
        <path id="ArialMT-67" d="M 319 -275 
L 866 -356 
Q 900 -609 1056 -725 
Q 1266 -881 1628 -881 
Q 2019 -881 2231 -725 
Q 2444 -569 2519 -288 
Q 2563 -116 2559 434 
Q 2191 0 1641 0 
Q 956 0 581 494 
Q 206 988 206 1678 
Q 206 2153 378 2554 
Q 550 2956 876 3175 
Q 1203 3394 1644 3394 
Q 2231 3394 2613 2919 
L 2613 3319 
L 3131 3319 
L 3131 450 
Q 3131 -325 2973 -648 
Q 2816 -972 2473 -1159 
Q 2131 -1347 1631 -1347 
Q 1038 -1347 672 -1080 
Q 306 -813 319 -275 
z
M 784 1719 
Q 784 1066 1043 766 
Q 1303 466 1694 466 
Q 2081 466 2343 764 
Q 2606 1063 2606 1700 
Q 2606 2309 2336 2618 
Q 2066 2928 1684 2928 
Q 1309 2928 1046 2623 
Q 784 2319 784 1719 
z
" transform="scale(0.015625)"/>
       </defs>
       <use xlink:href="#ArialMT-69"/>
       <use xlink:href="#ArialMT-6e" x="22.216797"/>
       <use xlink:href="#ArialMT-76" x="77.832031"/>
       <use xlink:href="#ArialMT-65" x="127.832031"/>
       <use xlink:href="#ArialMT-73" x="183.447266"/>
       <use xlink:href="#ArialMT-74" x="233.447266"/>
       <use xlink:href="#ArialMT-69" x="261.230469"/>
       <use xlink:href="#ArialMT-67" x="283.447266"/>
      </g>
     </g>
    </g>
    <g id="ytick_4">
     <g id="line2d_9">
      <path d="M 70.15 57.784958 
L 237.892557 57.784958 
" clip-path="url(#pa955b430c9)" style="fill: none; stroke: #cccccc; stroke-width: 0.8; stroke-linecap: round"/>
     </g>
     <g id="text_9">
      <!-- the -->
      <g style="fill: #262626" transform="translate(49.25 61.363865) scale(0.1 -0.1)">
       <defs>
        <path id="ArialMT-68" d="M 422 0 
L 422 4581 
L 984 4581 
L 984 2938 
Q 1378 3394 1978 3394 
Q 2347 3394 2619 3248 
Q 2891 3103 3008 2847 
Q 3125 2591 3125 2103 
L 3125 0 
L 2563 0 
L 2563 2103 
Q 2563 2525 2380 2717 
Q 2197 2909 1863 2909 
Q 1613 2909 1392 2779 
Q 1172 2650 1078 2428 
Q 984 2206 984 1816 
L 984 0 
L 422 0 
z
" transform="scale(0.015625)"/>
       </defs>
       <use xlink:href="#ArialMT-74"/>
       <use xlink:href="#ArialMT-68" x="27.783203"/>
       <use xlink:href="#ArialMT-65" x="83.398438"/>
      </g>
     </g>
    </g>
    <g id="ytick_5">
     <g id="line2d_10">
      <path d="M 70.15 68.027625 
L 237.892557 68.027625 
" clip-path="url(#pa955b430c9)" style="fill: none; stroke: #cccccc; stroke-width: 0.8; stroke-linecap: round"/>
     </g>
     <g id="text_10">
      <!-- trump -->
      <g style="fill: #262626" transform="translate(37.590625 71.606531) scale(0.1 -0.1)">
       <defs>
        <path id="ArialMT-72" d="M 416 0 
L 416 3319 
L 922 3319 
L 922 2816 
Q 1116 3169 1280 3281 
Q 1444 3394 1641 3394 
Q 1925 3394 2219 3213 
L 2025 2691 
Q 1819 2813 1613 2813 
Q 1428 2813 1281 2702 
Q 1134 2591 1072 2394 
Q 978 2094 978 1738 
L 978 0 
L 416 0 
z
" transform="scale(0.015625)"/>
        <path id="ArialMT-75" d="M 2597 0 
L 2597 488 
Q 2209 -75 1544 -75 
Q 1250 -75 995 37 
Q 741 150 617 320 
Q 494 491 444 738 
Q 409 903 409 1263 
L 409 3319 
L 972 3319 
L 972 1478 
Q 972 1038 1006 884 
Q 1059 663 1231 536 
Q 1403 409 1656 409 
Q 1909 409 2131 539 
Q 2353 669 2445 892 
Q 2538 1116 2538 1541 
L 2538 3319 
L 3100 3319 
L 3100 0 
L 2597 0 
z
" transform="scale(0.015625)"/>
        <path id="ArialMT-6d" d="M 422 0 
L 422 3319 
L 925 3319 
L 925 2853 
Q 1081 3097 1340 3245 
Q 1600 3394 1931 3394 
Q 2300 3394 2536 3241 
Q 2772 3088 2869 2813 
Q 3263 3394 3894 3394 
Q 4388 3394 4653 3120 
Q 4919 2847 4919 2278 
L 4919 0 
L 4359 0 
L 4359 2091 
Q 4359 2428 4304 2576 
Q 4250 2725 4106 2815 
Q 3963 2906 3769 2906 
Q 3419 2906 3187 2673 
Q 2956 2441 2956 1928 
L 2956 0 
L 2394 0 
L 2394 2156 
Q 2394 2531 2256 2718 
Q 2119 2906 1806 2906 
Q 1569 2906 1367 2781 
Q 1166 2656 1075 2415 
Q 984 2175 984 1722 
L 984 0 
L 422 0 
z
" transform="scale(0.015625)"/>
        <path id="ArialMT-70" d="M 422 -1272 
L 422 3319 
L 934 3319 
L 934 2888 
Q 1116 3141 1344 3267 
Q 1572 3394 1897 3394 
Q 2322 3394 2647 3175 
Q 2972 2956 3137 2557 
Q 3303 2159 3303 1684 
Q 3303 1175 3120 767 
Q 2938 359 2589 142 
Q 2241 -75 1856 -75 
Q 1575 -75 1351 44 
Q 1128 163 984 344 
L 984 -1272 
L 422 -1272 
z
M 931 1641 
Q 931 1000 1190 694 
Q 1450 388 1819 388 
Q 2194 388 2461 705 
Q 2728 1022 2728 1688 
Q 2728 2322 2467 2637 
Q 2206 2953 1844 2953 
Q 1484 2953 1207 2617 
Q 931 2281 931 1641 
z
" transform="scale(0.015625)"/>
       </defs>
       <use xlink:href="#ArialMT-74"/>
       <use xlink:href="#ArialMT-72" x="27.783203"/>
       <use xlink:href="#ArialMT-75" x="61.083984"/>
       <use xlink:href="#ArialMT-6d" x="116.699219"/>
       <use xlink:href="#ArialMT-70" x="200"/>
      </g>
     </g>
    </g>
    <g id="ytick_6">
     <g id="line2d_11">
      <path d="M 70.15 78.270292 
L 237.892557 78.270292 
" clip-path="url(#pa955b430c9)" style="fill: none; stroke: #cccccc; stroke-width: 0.8; stroke-linecap: round"/>
     </g>
     <g id="text_11">
      <!-- state -->
      <g style="fill: #262626" transform="translate(41.471875 81.849198) scale(0.1 -0.1)">
       <use xlink:href="#ArialMT-73"/>
       <use xlink:href="#ArialMT-74" x="50"/>
       <use xlink:href="#ArialMT-61" x="77.783203"/>
       <use xlink:href="#ArialMT-74" x="133.398438"/>
       <use xlink:href="#ArialMT-65" x="161.181641"/>
      </g>
     </g>
    </g>
    <g id="ytick_7">
     <g id="line2d_12">
      <path d="M 70.15 88.512958 
L 237.892557 88.512958 
" clip-path="url(#pa955b430c9)" style="fill: none; stroke: #cccccc; stroke-width: 0.8; stroke-linecap: round"/>
     </g>
     <g id="text_12">
      <!-- homeless -->
      <g style="fill: #262626" transform="translate(20.354688 92.091865) scale(0.1 -0.1)">
       <defs>
        <path id="ArialMT-6c" d="M 409 0 
L 409 4581 
L 972 4581 
L 972 0 
L 409 0 
z
" transform="scale(0.015625)"/>
       </defs>
       <use xlink:href="#ArialMT-68"/>
       <use xlink:href="#ArialMT-6f" x="55.615234"/>
       <use xlink:href="#ArialMT-6d" x="111.230469"/>
       <use xlink:href="#ArialMT-65" x="194.53125"/>
       <use xlink:href="#ArialMT-6c" x="250.146484"/>
       <use xlink:href="#ArialMT-65" x="272.363281"/>
       <use xlink:href="#ArialMT-73" x="327.978516"/>
       <use xlink:href="#ArialMT-73" x="377.978516"/>
      </g>
     </g>
    </g>
    <g id="ytick_8">
     <g id="line2d_13">
      <path d="M 70.15 98.755625 
L 237.892557 98.755625 
" clip-path="url(#pa955b430c9)" style="fill: none; stroke: #cccccc; stroke-width: 0.8; stroke-linecap: round"/>
     </g>
     <g id="text_13">
      <!-- congress -->
      <g style="fill: #262626" transform="translate(22.576563 102.275937) scale(0.1 -0.1)">
       <defs>
        <path id="ArialMT-63" d="M 2588 1216 
L 3141 1144 
Q 3050 572 2676 248 
Q 2303 -75 1759 -75 
Q 1078 -75 664 370 
Q 250 816 250 1647 
Q 250 2184 428 2587 
Q 606 2991 970 3192 
Q 1334 3394 1763 3394 
Q 2303 3394 2647 3120 
Q 2991 2847 3088 2344 
L 2541 2259 
Q 2463 2594 2264 2762 
Q 2066 2931 1784 2931 
Q 1359 2931 1093 2626 
Q 828 2322 828 1663 
Q 828 994 1084 691 
Q 1341 388 1753 388 
Q 2084 388 2306 591 
Q 2528 794 2588 1216 
z
" transform="scale(0.015625)"/>
       </defs>
       <use xlink:href="#ArialMT-63"/>
       <use xlink:href="#ArialMT-6f" x="50"/>
       <use xlink:href="#ArialMT-6e" x="105.615234"/>
       <use xlink:href="#ArialMT-67" x="161.230469"/>
       <use xlink:href="#ArialMT-72" x="216.845703"/>
       <use xlink:href="#ArialMT-65" x="250.146484"/>
       <use xlink:href="#ArialMT-73" x="305.761719"/>
       <use xlink:href="#ArialMT-73" x="355.761719"/>
      </g>
     </g>
    </g>
    <g id="ytick_9">
     <g id="line2d_14">
      <path d="M 70.15 108.998292 
L 237.892557 108.998292 
" clip-path="url(#pa955b430c9)" style="fill: none; stroke: #cccccc; stroke-width: 0.8; stroke-linecap: round"/>
     </g>
     <g id="text_14">
      <!-- military -->
      <g style="fill: #262626" transform="translate(31.485938 112.577198) scale(0.1 -0.1)">
       <defs>
        <path id="ArialMT-79" d="M 397 -1278 
L 334 -750 
Q 519 -800 656 -800 
Q 844 -800 956 -737 
Q 1069 -675 1141 -563 
Q 1194 -478 1313 -144 
Q 1328 -97 1363 -6 
L 103 3319 
L 709 3319 
L 1400 1397 
Q 1534 1031 1641 628 
Q 1738 1016 1872 1384 
L 2581 3319 
L 3144 3319 
L 1881 -56 
Q 1678 -603 1566 -809 
Q 1416 -1088 1222 -1217 
Q 1028 -1347 759 -1347 
Q 597 -1347 397 -1278 
z
" transform="scale(0.015625)"/>
       </defs>
       <use xlink:href="#ArialMT-6d"/>
       <use xlink:href="#ArialMT-69" x="83.300781"/>
       <use xlink:href="#ArialMT-6c" x="105.517578"/>
       <use xlink:href="#ArialMT-69" x="127.734375"/>
       <use xlink:href="#ArialMT-74" x="149.951172"/>
       <use xlink:href="#ArialMT-61" x="177.734375"/>
       <use xlink:href="#ArialMT-72" x="233.349609"/>
       <use xlink:href="#ArialMT-79" x="266.650391"/>
      </g>
     </g>
    </g>
    <g id="ytick_10">
     <g id="line2d_15">
      <path d="M 70.15 119.240958 
L 237.892557 119.240958 
" clip-path="url(#pa955b430c9)" style="fill: none; stroke: #cccccc; stroke-width: 0.8; stroke-linecap: round"/>
     </g>
     <g id="text_15">
      <!-- princ -->
      <g style="fill: #262626" transform="translate(41.476562 122.819865) scale(0.1 -0.1)">
       <use xlink:href="#ArialMT-70"/>
       <use xlink:href="#ArialMT-72" x="55.615234"/>
       <use xlink:href="#ArialMT-69" x="88.916016"/>
       <use xlink:href="#ArialMT-6e" x="111.132812"/>
       <use xlink:href="#ArialMT-63" x="166.748047"/>
      </g>
     </g>
    </g>
    <g id="ytick_11">
     <g id="line2d_16">
      <path d="M 70.15 129.483625 
L 237.892557 129.483625 
" clip-path="url(#pa955b430c9)" style="fill: none; stroke: #cccccc; stroke-width: 0.8; stroke-linecap: round"/>
     </g>
     <g id="text_16">
      <!-- vote -->
      <g style="fill: #262626" transform="translate(44.25 133.062531) scale(0.1 -0.1)">
       <use xlink:href="#ArialMT-76"/>
       <use xlink:href="#ArialMT-6f" x="50"/>
       <use xlink:href="#ArialMT-74" x="105.615234"/>
       <use xlink:href="#ArialMT-65" x="133.398438"/>
      </g>
     </g>
    </g>
    <g id="ytick_12">
     <g id="line2d_17">
      <path d="M 70.15 139.726292 
L 237.892557 139.726292 
" clip-path="url(#pa955b430c9)" style="fill: none; stroke: #cccccc; stroke-width: 0.8; stroke-linecap: round"/>
     </g>
     <g id="text_17">
      <!-- shutdown -->
      <g style="fill: #262626" transform="translate(20.345313 143.305198) scale(0.1 -0.1)">
       <defs>
        <path id="ArialMT-64" d="M 2575 0 
L 2575 419 
Q 2259 -75 1647 -75 
Q 1250 -75 917 144 
Q 584 363 401 755 
Q 219 1147 219 1656 
Q 219 2153 384 2558 
Q 550 2963 881 3178 
Q 1213 3394 1622 3394 
Q 1922 3394 2156 3267 
Q 2391 3141 2538 2938 
L 2538 4581 
L 3097 4581 
L 3097 0 
L 2575 0 
z
M 797 1656 
Q 797 1019 1065 703 
Q 1334 388 1700 388 
Q 2069 388 2326 689 
Q 2584 991 2584 1609 
Q 2584 2291 2321 2609 
Q 2059 2928 1675 2928 
Q 1300 2928 1048 2622 
Q 797 2316 797 1656 
z
" transform="scale(0.015625)"/>
        <path id="ArialMT-77" d="M 1034 0 
L 19 3319 
L 600 3319 
L 1128 1403 
L 1325 691 
Q 1338 744 1497 1375 
L 2025 3319 
L 2603 3319 
L 3100 1394 
L 3266 759 
L 3456 1400 
L 4025 3319 
L 4572 3319 
L 3534 0 
L 2950 0 
L 2422 1988 
L 2294 2553 
L 1622 0 
L 1034 0 
z
" transform="scale(0.015625)"/>
       </defs>
       <use xlink:href="#ArialMT-73"/>
       <use xlink:href="#ArialMT-68" x="50"/>
       <use xlink:href="#ArialMT-75" x="105.615234"/>
       <use xlink:href="#ArialMT-74" x="161.230469"/>
       <use xlink:href="#ArialMT-64" x="189.013672"/>
       <use xlink:href="#ArialMT-6f" x="244.628906"/>
       <use xlink:href="#ArialMT-77" x="300.244141"/>
       <use xlink:href="#ArialMT-6e" x="372.460938"/>
      </g>
     </g>
    </g>
    <g id="ytick_13">
     <g id="line2d_18">
      <path d="M 70.15 149.968958 
L 237.892557 149.968958 
" clip-path="url(#pa955b430c9)" style="fill: none; stroke: #cccccc; stroke-width: 0.8; stroke-linecap: round"/>
     </g>
     <g id="text_18">
      <!-- clinton -->
      <g style="fill: #262626" transform="translate(34.245313 153.547865) scale(0.1 -0.1)">
       <use xlink:href="#ArialMT-63"/>
       <use xlink:href="#ArialMT-6c" x="50"/>
       <use xlink:href="#ArialMT-69" x="72.216797"/>
       <use xlink:href="#ArialMT-6e" x="94.433594"/>
       <use xlink:href="#ArialMT-74" x="150.048828"/>
       <use xlink:href="#ArialMT-6f" x="177.832031"/>
       <use xlink:href="#ArialMT-6e" x="233.447266"/>
      </g>
     </g>
    </g>
    <g id="ytick_14">
     <g id="line2d_19">
      <path d="M 70.15 160.211625 
L 237.892557 160.211625 
" clip-path="url(#pa955b430c9)" style="fill: none; stroke: #cccccc; stroke-width: 0.8; stroke-linecap: round"/>
     </g>
     <g id="text_19">
      <!-- cnn -->
      <g style="fill: #262626" transform="translate(47.028125 163.790531) scale(0.1 -0.1)">
       <use xlink:href="#ArialMT-63"/>
       <use xlink:href="#ArialMT-6e" x="50"/>
       <use xlink:href="#ArialMT-6e" x="105.615234"/>
      </g>
     </g>
    </g>
    <g id="ytick_15">
     <g id="line2d_20">
      <path d="M 70.15 170.454292 
L 237.892557 170.454292 
" clip-path="url(#pa955b430c9)" style="fill: none; stroke: #cccccc; stroke-width: 0.8; stroke-linecap: round"/>
     </g>
     <g id="text_20">
      <!-- swamp -->
      <g style="fill: #262626" transform="translate(31.476563 174.033198) scale(0.1 -0.1)">
       <use xlink:href="#ArialMT-73"/>
       <use xlink:href="#ArialMT-77" x="50"/>
       <use xlink:href="#ArialMT-61" x="122.216797"/>
       <use xlink:href="#ArialMT-6d" x="177.832031"/>
       <use xlink:href="#ArialMT-70" x="261.132812"/>
      </g>
     </g>
    </g>
    <g id="text_21">
     <!-- word -->
     <g style="fill: #262626" transform="translate(14.357813 109.592344) rotate(-90) scale(0.1 -0.1)">
      <use xlink:href="#ArialMT-77"/>
      <use xlink:href="#ArialMT-6f" x="72.216797"/>
      <use xlink:href="#ArialMT-72" x="127.832031"/>
      <use xlink:href="#ArialMT-64" x="161.132812"/>
     </g>
    </g>
   </g>
   <g id="line2d_21">
    <path d="M 146.396617 175.575625 
L 146.396617 21.935625 
" clip-path="url(#pa955b430c9)" style="fill: none; stroke-dasharray: 5.55,2.4; stroke-dashoffset: 0; stroke: #1f77b4; stroke-width: 1.5"/>
   </g>
   <g id="patch_3">
    <path d="M 70.15 175.575625 
L 70.15 21.935625 
" style="fill: none; stroke: #cccccc; stroke-width: 0.8; stroke-linejoin: miter; stroke-linecap: square"/>
   </g>
   <g id="patch_4">
    <path d="M 70.15 175.575625 
L 237.892557 175.575625 
" style="fill: none; stroke: #cccccc; stroke-width: 0.8; stroke-linejoin: miter; stroke-linecap: square"/>
   </g>
   <g id="PathCollection_1">
    <defs>
     <path id="mcc1dcb427c" d="M 0 2.236068 
C 0.593012 2.236068 1.161816 2.000462 1.581139 1.581139 
C 2.000462 1.161816 2.236068 0.593012 2.236068 0 
C 2.236068 -0.593012 2.000462 -1.161816 1.581139 -1.581139 
C 1.161816 -2.000462 0.593012 -2.236068 0 -2.236068 
C -0.593012 -2.236068 -1.161816 -2.000462 -1.581139 -1.581139 
C -2.000462 -1.161816 -2.236068 -0.593012 -2.236068 0 
C -2.236068 0.593012 -2.000462 1.161816 -1.581139 1.581139 
C -1.161816 2.000462 -0.593012 2.236068 0 2.236068 
z
"/>
    </defs>
    <g clip-path="url(#pa955b430c9)">
     <use xlink:href="#mcc1dcb427c" x="230.267895" y="27.056958" style="fill: #1f77b4"/>
    </g>
   </g>
   <g id="PathCollection_2">
    <g clip-path="url(#pa955b430c9)">
     <use xlink:href="#mcc1dcb427c" x="166.060218" y="37.299625" style="fill: #1f77b4"/>
    </g>
   </g>
   <g id="PathCollection_3">
    <g clip-path="url(#pa955b430c9)">
     <use xlink:href="#mcc1dcb427c" x="157.071143" y="47.542292" style="fill: #1f77b4"/>
    </g>
   </g>
   <g id="PathCollection_4">
    <g clip-path="url(#pa955b430c9)">
     <use xlink:href="#mcc1dcb427c" x="144.667604" y="57.784958" style="fill: #1f77b4"/>
    </g>
   </g>
   <g id="PathCollection_5">
    <g clip-path="url(#pa955b430c9)">
     <use xlink:href="#mcc1dcb427c" x="134.959624" y="68.027625" style="fill: #1f77b4"/>
    </g>
   </g>
   <g id="PathCollection_6">
    <g clip-path="url(#pa955b430c9)">
     <use xlink:href="#mcc1dcb427c" x="131.418526" y="78.270292" style="fill: #1f77b4"/>
    </g>
   </g>
   <g id="PathCollection_7">
    <g clip-path="url(#pa955b430c9)">
     <use xlink:href="#mcc1dcb427c" x="118.439524" y="88.512958" style="fill: #1f77b4"/>
    </g>
   </g>
   <g id="PathCollection_8">
    <g clip-path="url(#pa955b430c9)">
     <use xlink:href="#mcc1dcb427c" x="104.066598" y="98.755625" style="fill: #1f77b4"/>
    </g>
   </g>
   <g id="PathCollection_9">
    <g clip-path="url(#pa955b430c9)">
     <use xlink:href="#mcc1dcb427c" x="102.108688" y="108.998292" style="fill: #1f77b4"/>
    </g>
   </g>
   <g id="PathCollection_10">
    <g clip-path="url(#pa955b430c9)">
     <use xlink:href="#mcc1dcb427c" x="101.235159" y="119.240958" style="fill: #1f77b4"/>
    </g>
   </g>
   <g id="PathCollection_11">
    <g clip-path="url(#pa955b430c9)">
     <use xlink:href="#mcc1dcb427c" x="100.114435" y="129.483625" style="fill: #1f77b4"/>
    </g>
   </g>
   <g id="PathCollection_12">
    <g clip-path="url(#pa955b430c9)">
     <use xlink:href="#mcc1dcb427c" x="94.718354" y="139.726292" style="fill: #1f77b4"/>
    </g>
   </g>
   <g id="PathCollection_13">
    <g clip-path="url(#pa955b430c9)">
     <use xlink:href="#mcc1dcb427c" x="77.774662" y="149.968958" style="fill: #1f77b4"/>
    </g>
   </g>
   <g id="PathCollection_14">
    <g clip-path="url(#pa955b430c9)">
     <use xlink:href="#mcc1dcb427c" x="77.774662" y="160.211625" style="fill: #1f77b4"/>
    </g>
   </g>
   <g id="PathCollection_15">
    <g clip-path="url(#pa955b430c9)">
     <use xlink:href="#mcc1dcb427c" x="77.774662" y="170.454292" style="fill: #1f77b4"/>
    </g>
   </g>
   <g id="text_22">
    <!-- Proportion articles marked fake -->
    <g style="fill: #262626" transform="translate(70.990653 15.935625) scale(0.12 -0.12)">
     <defs>
      <path id="ArialMT-50" d="M 494 0 
L 494 4581 
L 2222 4581 
Q 2678 4581 2919 4538 
Q 3256 4481 3484 4323 
Q 3713 4166 3852 3881 
Q 3991 3597 3991 3256 
Q 3991 2672 3619 2267 
Q 3247 1863 2275 1863 
L 1100 1863 
L 1100 0 
L 494 0 
z
M 1100 2403 
L 2284 2403 
Q 2872 2403 3119 2622 
Q 3366 2841 3366 3238 
Q 3366 3525 3220 3729 
Q 3075 3934 2838 4000 
Q 2684 4041 2272 4041 
L 1100 4041 
L 1100 2403 
z
" transform="scale(0.015625)"/>
      <path id="ArialMT-20" transform="scale(0.015625)"/>
     </defs>
     <use xlink:href="#ArialMT-50"/>
     <use xlink:href="#ArialMT-72" x="66.699219"/>
     <use xlink:href="#ArialMT-6f" x="100"/>
     <use xlink:href="#ArialMT-70" x="155.615234"/>
     <use xlink:href="#ArialMT-6f" x="211.230469"/>
     <use xlink:href="#ArialMT-72" x="266.845703"/>
     <use xlink:href="#ArialMT-74" x="300.146484"/>
     <use xlink:href="#ArialMT-69" x="327.929688"/>
     <use xlink:href="#ArialMT-6f" x="350.146484"/>
     <use xlink:href="#ArialMT-6e" x="405.761719"/>
     <use xlink:href="#ArialMT-20" x="461.376953"/>
     <use xlink:href="#ArialMT-61" x="489.160156"/>
     <use xlink:href="#ArialMT-72" x="544.775391"/>
     <use xlink:href="#ArialMT-74" x="578.076172"/>
     <use xlink:href="#ArialMT-69" x="605.859375"/>
     <use xlink:href="#ArialMT-63" x="628.076172"/>
     <use xlink:href="#ArialMT-6c" x="678.076172"/>
     <use xlink:href="#ArialMT-65" x="700.292969"/>
     <use xlink:href="#ArialMT-73" x="755.908203"/>
     <use xlink:href="#ArialMT-20" x="805.908203"/>
     <use xlink:href="#ArialMT-6d" x="833.691406"/>
     <use xlink:href="#ArialMT-61" x="916.992188"/>
     <use xlink:href="#ArialMT-72" x="972.607422"/>
     <use xlink:href="#ArialMT-6b" x="1005.908203"/>
     <use xlink:href="#ArialMT-65" x="1055.908203"/>
     <use xlink:href="#ArialMT-64" x="1111.523438"/>
     <use xlink:href="#ArialMT-20" x="1167.138672"/>
     <use xlink:href="#ArialMT-66" x="1194.921875"/>
     <use xlink:href="#ArialMT-61" x="1222.705078"/>
     <use xlink:href="#ArialMT-6b" x="1278.320312"/>
     <use xlink:href="#ArialMT-65" x="1328.320312"/>
    </g>
   </g>
  </g>
  <g id="axes_2">
   <g id="patch_5">
    <path d="M 250.327443 175.575625 
L 418.07 175.575625 
L 418.07 21.935625 
L 250.327443 21.935625 
z
" style="fill: #ffffff"/>
   </g>
   <g id="matplotlib.axis_3">
    <g id="xtick_6">
     <g id="line2d_22">
      <path d="M 257.3831 175.575625 
L 257.3831 21.935625 
" clip-path="url(#p866616bbfa)" style="fill: none; stroke: #cccccc; stroke-width: 0.8; stroke-linecap: round"/>
     </g>
     <g id="text_23">
      <!-- 0 -->
      <g style="fill: #262626" transform="translate(254.602632 189.733437) scale(0.1 -0.1)">
       <use xlink:href="#ArialMT-30"/>
      </g>
     </g>
    </g>
    <g id="xtick_7">
     <g id="line2d_23">
      <path d="M 314.283561 175.575625 
L 314.283561 21.935625 
" clip-path="url(#p866616bbfa)" style="fill: none; stroke: #cccccc; stroke-width: 0.8; stroke-linecap: round"/>
     </g>
     <g id="text_24">
      <!-- 200 -->
      <g style="fill: #262626" transform="translate(305.942154 189.733437) scale(0.1 -0.1)">
       <use xlink:href="#ArialMT-32"/>
       <use xlink:href="#ArialMT-30" x="55.615234"/>
       <use xlink:href="#ArialMT-30" x="111.230469"/>
      </g>
     </g>
    </g>
    <g id="xtick_8">
     <g id="line2d_24">
      <path d="M 371.184021 175.575625 
L 371.184021 21.935625 
" clip-path="url(#p866616bbfa)" style="fill: none; stroke: #cccccc; stroke-width: 0.8; stroke-linecap: round"/>
     </g>
     <g id="text_25">
      <!-- 400 -->
      <g style="fill: #262626" transform="translate(362.842615 189.733437) scale(0.1 -0.1)">
       <defs>
        <path id="ArialMT-34" d="M 2069 0 
L 2069 1097 
L 81 1097 
L 81 1613 
L 2172 4581 
L 2631 4581 
L 2631 1613 
L 3250 1613 
L 3250 1097 
L 2631 1097 
L 2631 0 
L 2069 0 
z
M 2069 1613 
L 2069 3678 
L 634 1613 
L 2069 1613 
z
" transform="scale(0.015625)"/>
       </defs>
       <use xlink:href="#ArialMT-34"/>
       <use xlink:href="#ArialMT-30" x="55.615234"/>
       <use xlink:href="#ArialMT-30" x="111.230469"/>
      </g>
     </g>
    </g>
   </g>
   <g id="matplotlib.axis_4">
    <g id="ytick_16">
     <g id="line2d_25">
      <path d="M 250.327443 27.056958 
L 418.07 27.056958 
" clip-path="url(#p866616bbfa)" style="fill: none; stroke: #cccccc; stroke-width: 0.8; stroke-linecap: round"/>
     </g>
    </g>
    <g id="ytick_17">
     <g id="line2d_26">
      <path d="M 250.327443 37.299625 
L 418.07 37.299625 
" clip-path="url(#p866616bbfa)" style="fill: none; stroke: #cccccc; stroke-width: 0.8; stroke-linecap: round"/>
     </g>
    </g>
    <g id="ytick_18">
     <g id="line2d_27">
      <path d="M 250.327443 47.542292 
L 418.07 47.542292 
" clip-path="url(#p866616bbfa)" style="fill: none; stroke: #cccccc; stroke-width: 0.8; stroke-linecap: round"/>
     </g>
    </g>
    <g id="ytick_19">
     <g id="line2d_28">
      <path d="M 250.327443 57.784958 
L 418.07 57.784958 
" clip-path="url(#p866616bbfa)" style="fill: none; stroke: #cccccc; stroke-width: 0.8; stroke-linecap: round"/>
     </g>
    </g>
    <g id="ytick_20">
     <g id="line2d_29">
      <path d="M 250.327443 68.027625 
L 418.07 68.027625 
" clip-path="url(#p866616bbfa)" style="fill: none; stroke: #cccccc; stroke-width: 0.8; stroke-linecap: round"/>
     </g>
    </g>
    <g id="ytick_21">
     <g id="line2d_30">
      <path d="M 250.327443 78.270292 
L 418.07 78.270292 
" clip-path="url(#p866616bbfa)" style="fill: none; stroke: #cccccc; stroke-width: 0.8; stroke-linecap: round"/>
     </g>
    </g>
    <g id="ytick_22">
     <g id="line2d_31">
      <path d="M 250.327443 88.512958 
L 418.07 88.512958 
" clip-path="url(#p866616bbfa)" style="fill: none; stroke: #cccccc; stroke-width: 0.8; stroke-linecap: round"/>
     </g>
    </g>
    <g id="ytick_23">
     <g id="line2d_32">
      <path d="M 250.327443 98.755625 
L 418.07 98.755625 
" clip-path="url(#p866616bbfa)" style="fill: none; stroke: #cccccc; stroke-width: 0.8; stroke-linecap: round"/>
     </g>
    </g>
    <g id="ytick_24">
     <g id="line2d_33">
      <path d="M 250.327443 108.998292 
L 418.07 108.998292 
" clip-path="url(#p866616bbfa)" style="fill: none; stroke: #cccccc; stroke-width: 0.8; stroke-linecap: round"/>
     </g>
    </g>
    <g id="ytick_25">
     <g id="line2d_34">
      <path d="M 250.327443 119.240958 
L 418.07 119.240958 
" clip-path="url(#p866616bbfa)" style="fill: none; stroke: #cccccc; stroke-width: 0.8; stroke-linecap: round"/>
     </g>
    </g>
    <g id="ytick_26">
     <g id="line2d_35">
      <path d="M 250.327443 129.483625 
L 418.07 129.483625 
" clip-path="url(#p866616bbfa)" style="fill: none; stroke: #cccccc; stroke-width: 0.8; stroke-linecap: round"/>
     </g>
    </g>
    <g id="ytick_27">
     <g id="line2d_36">
      <path d="M 250.327443 139.726292 
L 418.07 139.726292 
" clip-path="url(#p866616bbfa)" style="fill: none; stroke: #cccccc; stroke-width: 0.8; stroke-linecap: round"/>
     </g>
    </g>
    <g id="ytick_28">
     <g id="line2d_37">
      <path d="M 250.327443 149.968958 
L 418.07 149.968958 
" clip-path="url(#p866616bbfa)" style="fill: none; stroke: #cccccc; stroke-width: 0.8; stroke-linecap: round"/>
     </g>
    </g>
    <g id="ytick_29">
     <g id="line2d_38">
      <path d="M 250.327443 160.211625 
L 418.07 160.211625 
" clip-path="url(#p866616bbfa)" style="fill: none; stroke: #cccccc; stroke-width: 0.8; stroke-linecap: round"/>
     </g>
    </g>
    <g id="ytick_30">
     <g id="line2d_39">
      <path d="M 250.327443 170.454292 
L 418.07 170.454292 
" clip-path="url(#p866616bbfa)" style="fill: none; stroke: #cccccc; stroke-width: 0.8; stroke-linecap: round"/>
     </g>
    </g>
   </g>
   <g id="patch_6">
    <path d="M 250.327443 175.575625 
L 250.327443 21.935625 
" style="fill: none; stroke: #cccccc; stroke-width: 0.8; stroke-linejoin: miter; stroke-linecap: square"/>
   </g>
   <g id="patch_7">
    <path d="M 250.327443 175.575625 
L 418.07 175.575625 
" style="fill: none; stroke: #cccccc; stroke-width: 0.8; stroke-linejoin: miter; stroke-linecap: square"/>
   </g>
   <g id="PathCollection_16">
    <g clip-path="url(#p866616bbfa)">
     <use xlink:href="#mcc1dcb427c" x="257.952105" y="27.056958" style="fill: #1f77b4"/>
    </g>
   </g>
   <g id="PathCollection_17">
    <g clip-path="url(#p866616bbfa)">
     <use xlink:href="#mcc1dcb427c" x="262.788644" y="37.299625" style="fill: #1f77b4"/>
    </g>
   </g>
   <g id="PathCollection_18">
    <g clip-path="url(#p866616bbfa)">
     <use xlink:href="#mcc1dcb427c" x="278.720773" y="47.542292" style="fill: #1f77b4"/>
    </g>
   </g>
   <g id="PathCollection_19">
    <g clip-path="url(#p866616bbfa)">
     <use xlink:href="#mcc1dcb427c" x="410.445338" y="57.784958" style="fill: #1f77b4"/>
    </g>
   </g>
   <g id="PathCollection_20">
    <g clip-path="url(#p866616bbfa)">
     <use xlink:href="#mcc1dcb427c" x="259.659119" y="68.027625" style="fill: #1f77b4"/>
    </g>
   </g>
   <g id="PathCollection_21">
    <g clip-path="url(#p866616bbfa)">
     <use xlink:href="#mcc1dcb427c" x="329.362182" y="78.270292" style="fill: #1f77b4"/>
    </g>
   </g>
   <g id="PathCollection_22">
    <g clip-path="url(#p866616bbfa)">
     <use xlink:href="#mcc1dcb427c" x="261.650635" y="88.512958" style="fill: #1f77b4"/>
    </g>
   </g>
   <g id="PathCollection_23">
    <g clip-path="url(#p866616bbfa)">
     <use xlink:href="#mcc1dcb427c" x="273.884234" y="98.755625" style="fill: #1f77b4"/>
    </g>
   </g>
   <g id="PathCollection_24">
    <g clip-path="url(#p866616bbfa)">
     <use xlink:href="#mcc1dcb427c" x="284.126317" y="108.998292" style="fill: #1f77b4"/>
    </g>
   </g>
   <g id="PathCollection_25">
    <g clip-path="url(#p866616bbfa)">
     <use xlink:href="#mcc1dcb427c" x="275.87575" y="119.240958" style="fill: #1f77b4"/>
    </g>
   </g>
   <g id="PathCollection_26">
    <g clip-path="url(#p866616bbfa)">
     <use xlink:href="#mcc1dcb427c" x="302.049962" y="129.483625" style="fill: #1f77b4"/>
    </g>
   </g>
   <g id="PathCollection_27">
    <g clip-path="url(#p866616bbfa)">
     <use xlink:href="#mcc1dcb427c" x="259.943621" y="139.726292" style="fill: #1f77b4"/>
    </g>
   </g>
   <g id="PathCollection_28">
    <g clip-path="url(#p866616bbfa)">
     <use xlink:href="#mcc1dcb427c" x="258.805612" y="149.968958" style="fill: #1f77b4"/>
    </g>
   </g>
   <g id="PathCollection_29">
    <g clip-path="url(#p866616bbfa)">
     <use xlink:href="#mcc1dcb427c" x="258.521109" y="160.211625" style="fill: #1f77b4"/>
    </g>
   </g>
   <g id="PathCollection_30">
    <g clip-path="url(#p866616bbfa)">
     <use xlink:href="#mcc1dcb427c" x="258.521109" y="170.454292" style="fill: #1f77b4"/>
    </g>
   </g>
   <g id="text_26">
    <!-- Number of articles with word -->
    <g style="fill: #262626" transform="translate(258.511534 15.935625) scale(0.12 -0.12)">
     <defs>
      <path id="ArialMT-4e" d="M 488 0 
L 488 4581 
L 1109 4581 
L 3516 984 
L 3516 4581 
L 4097 4581 
L 4097 0 
L 3475 0 
L 1069 3600 
L 1069 0 
L 488 0 
z
" transform="scale(0.015625)"/>
      <path id="ArialMT-62" d="M 941 0 
L 419 0 
L 419 4581 
L 981 4581 
L 981 2947 
Q 1338 3394 1891 3394 
Q 2197 3394 2470 3270 
Q 2744 3147 2920 2923 
Q 3097 2700 3197 2384 
Q 3297 2069 3297 1709 
Q 3297 856 2875 390 
Q 2453 -75 1863 -75 
Q 1275 -75 941 416 
L 941 0 
z
M 934 1684 
Q 934 1088 1097 822 
Q 1363 388 1816 388 
Q 2184 388 2453 708 
Q 2722 1028 2722 1663 
Q 2722 2313 2464 2622 
Q 2206 2931 1841 2931 
Q 1472 2931 1203 2611 
Q 934 2291 934 1684 
z
" transform="scale(0.015625)"/>
     </defs>
     <use xlink:href="#ArialMT-4e"/>
     <use xlink:href="#ArialMT-75" x="72.216797"/>
     <use xlink:href="#ArialMT-6d" x="127.832031"/>
     <use xlink:href="#ArialMT-62" x="211.132812"/>
     <use xlink:href="#ArialMT-65" x="266.748047"/>
     <use xlink:href="#ArialMT-72" x="322.363281"/>
     <use xlink:href="#ArialMT-20" x="355.664062"/>
     <use xlink:href="#ArialMT-6f" x="383.447266"/>
     <use xlink:href="#ArialMT-66" x="439.0625"/>
     <use xlink:href="#ArialMT-20" x="466.845703"/>
     <use xlink:href="#ArialMT-61" x="494.628906"/>
     <use xlink:href="#ArialMT-72" x="550.244141"/>
     <use xlink:href="#ArialMT-74" x="583.544922"/>
     <use xlink:href="#ArialMT-69" x="611.328125"/>
     <use xlink:href="#ArialMT-63" x="633.544922"/>
     <use xlink:href="#ArialMT-6c" x="683.544922"/>
     <use xlink:href="#ArialMT-65" x="705.761719"/>
     <use xlink:href="#ArialMT-73" x="761.376953"/>
     <use xlink:href="#ArialMT-20" x="811.376953"/>
     <use xlink:href="#ArialMT-77" x="839.160156"/>
     <use xlink:href="#ArialMT-69" x="911.376953"/>
     <use xlink:href="#ArialMT-74" x="933.59375"/>
     <use xlink:href="#ArialMT-68" x="961.376953"/>
     <use xlink:href="#ArialMT-20" x="1016.992188"/>
     <use xlink:href="#ArialMT-77" x="1044.775391"/>
     <use xlink:href="#ArialMT-6f" x="1116.992188"/>
     <use xlink:href="#ArialMT-72" x="1172.607422"/>
     <use xlink:href="#ArialMT-64" x="1205.908203"/>
    </g>
   </g>
  </g>
 </g>
 <defs>
  <clipPath id="pa955b430c9">
   <rect x="70.15" y="21.935625" width="167.742557" height="153.64"/>
  </clipPath>
  <clipPath id="p866616bbfa">
   <rect x="250.327443" y="21.935625" width="167.742557" height="153.64"/>
  </clipPath>
 </defs>
</svg>
