<?xml version="1.0" encoding="utf-8" standalone="no"?>
<!DOCTYPE svg PUBLIC "-//W3C//DTD SVG 1.1//EN"
  "http://www.w3.org/Graphics/SVG/1.1/DTD/svg11.dtd">
<!-- Created with matplotlib (https://matplotlib.org/) -->
<svg height="210.349531pt" version="1.1" viewBox="0 0 283.046875 210.349531" width="283.046875pt" xmlns="http://www.w3.org/2000/svg" xmlns:xlink="http://www.w3.org/1999/xlink">
 <metadata>
  <rdf:RDF xmlns:cc="http://creativecommons.org/ns#" xmlns:dc="http://purl.org/dc/elements/1.1/" xmlns:rdf="http://www.w3.org/1999/02/22-rdf-syntax-ns#">
   <cc:Work>
    <dc:type rdf:resource="http://purl.org/dc/dcmitype/StillImage"/>
    <dc:date>2022-08-06T15:07:03.838971</dc:date>
    <dc:format>image/svg+xml</dc:format>
    <dc:creator>
     <cc:Agent>
      <dc:title>Matplotlib v3.3.4, https://matplotlib.org/</dc:title>
     </cc:Agent>
    </dc:creator>
   </cc:Work>
  </rdf:RDF>
 </metadata>
 <defs>
  <style type="text/css">*{stroke-linecap:butt;stroke-linejoin:round;}</style>
 </defs>
 <g id="figure_1">
  <g id="patch_1">
   <path d="M 0 210.349531 
L 283.046875 210.349531 
L 283.046875 0 
L 0 0 
z
" style="fill:#ffffff;"/>
  </g>
  <g id="axes_1">
   <g id="patch_2">
    <path d="M 52.646875 173.858906 
L 275.846875 173.858906 
L 275.846875 10.778906 
L 52.646875 10.778906 
z
" style="fill:#ffffff;"/>
   </g>
   <g id="matplotlib.axis_1">
    <g id="xtick_1">
     <g id="line2d_1">
      <path clip-path="url(#p80cfb95789)" d="M 70.486201 173.858906 
L 70.486201 10.778906 
" style="fill:none;stroke:#cccccc;stroke-linecap:round;stroke-width:0.8;"/>
     </g>
     <g id="text_1">
      <!-- 5 -->
      <g style="fill:#262626;" transform="translate(67.705732 188.016719)scale(0.1 -0.1)">
       <defs>
        <path d="M 4.15625 18.75 
L 13.375 19.53125 
Q 14.40625 12.796875 18.140625 9.390625 
Q 21.875 6 27.15625 6 
Q 33.5 6 37.890625 10.78125 
Q 42.28125 15.578125 42.28125 23.484375 
Q 42.28125 31 38.0625 35.34375 
Q 33.84375 39.703125 27 39.703125 
Q 22.75 39.703125 19.328125 37.765625 
Q 15.921875 35.84375 13.96875 32.765625 
L 5.71875 33.84375 
L 12.640625 70.609375 
L 48.25 70.609375 
L 48.25 62.203125 
L 19.671875 62.203125 
L 15.828125 42.96875 
Q 22.265625 47.46875 29.34375 47.46875 
Q 38.71875 47.46875 45.15625 40.96875 
Q 51.609375 34.46875 51.609375 24.265625 
Q 51.609375 14.546875 45.953125 7.46875 
Q 39.0625 -1.21875 27.15625 -1.21875 
Q 17.390625 -1.21875 11.203125 4.25 
Q 5.03125 9.71875 4.15625 18.75 
z
" id="ArialMT-53"/>
       </defs>
       <use xlink:href="#ArialMT-53"/>
      </g>
     </g>
    </g>
    <g id="xtick_2">
     <g id="line2d_2">
      <path clip-path="url(#p80cfb95789)" d="M 102.933868 173.858906 
L 102.933868 10.778906 
" style="fill:none;stroke:#cccccc;stroke-linecap:round;stroke-width:0.8;"/>
     </g>
     <g id="text_2">
      <!-- 10 -->
      <g style="fill:#262626;" transform="translate(97.37293 188.016719)scale(0.1 -0.1)">
       <defs>
        <path d="M 37.25 0 
L 28.46875 0 
L 28.46875 56 
Q 25.296875 52.984375 20.140625 49.953125 
Q 14.984375 46.921875 10.890625 45.40625 
L 10.890625 53.90625 
Q 18.265625 57.375 23.78125 62.296875 
Q 29.296875 67.234375 31.59375 71.875 
L 37.25 71.875 
z
" id="ArialMT-49"/>
        <path d="M 4.15625 35.296875 
Q 4.15625 48 6.765625 55.734375 
Q 9.375 63.484375 14.515625 67.671875 
Q 19.671875 71.875 27.484375 71.875 
Q 33.25 71.875 37.59375 69.546875 
Q 41.9375 67.234375 44.765625 62.859375 
Q 47.609375 58.5 49.21875 52.21875 
Q 50.828125 45.953125 50.828125 35.296875 
Q 50.828125 22.703125 48.234375 14.96875 
Q 45.65625 7.234375 40.5 3 
Q 35.359375 -1.21875 27.484375 -1.21875 
Q 17.140625 -1.21875 11.234375 6.203125 
Q 4.15625 15.140625 4.15625 35.296875 
z
M 13.1875 35.296875 
Q 13.1875 17.671875 17.3125 11.828125 
Q 21.4375 6 27.484375 6 
Q 33.546875 6 37.671875 11.859375 
Q 41.796875 17.71875 41.796875 35.296875 
Q 41.796875 52.984375 37.671875 58.78125 
Q 33.546875 64.59375 27.390625 64.59375 
Q 21.34375 64.59375 17.71875 59.46875 
Q 13.1875 52.9375 13.1875 35.296875 
z
" id="ArialMT-48"/>
       </defs>
       <use xlink:href="#ArialMT-49"/>
       <use x="55.615234" xlink:href="#ArialMT-48"/>
      </g>
     </g>
    </g>
    <g id="xtick_3">
     <g id="line2d_3">
      <path clip-path="url(#p80cfb95789)" d="M 135.381535 173.858906 
L 135.381535 10.778906 
" style="fill:none;stroke:#cccccc;stroke-linecap:round;stroke-width:0.8;"/>
     </g>
     <g id="text_3">
      <!-- 15 -->
      <g style="fill:#262626;" transform="translate(129.820597 188.016719)scale(0.1 -0.1)">
       <use xlink:href="#ArialMT-49"/>
       <use x="55.615234" xlink:href="#ArialMT-53"/>
      </g>
     </g>
    </g>
    <g id="xtick_4">
     <g id="line2d_4">
      <path clip-path="url(#p80cfb95789)" d="M 167.829202 173.858906 
L 167.829202 10.778906 
" style="fill:none;stroke:#cccccc;stroke-linecap:round;stroke-width:0.8;"/>
     </g>
     <g id="text_4">
      <!-- 20 -->
      <g style="fill:#262626;" transform="translate(162.268264 188.016719)scale(0.1 -0.1)">
       <defs>
        <path d="M 50.34375 8.453125 
L 50.34375 0 
L 3.03125 0 
Q 2.9375 3.171875 4.046875 6.109375 
Q 5.859375 10.9375 9.828125 15.625 
Q 13.8125 20.3125 21.34375 26.46875 
Q 33.015625 36.03125 37.109375 41.625 
Q 41.21875 47.21875 41.21875 52.203125 
Q 41.21875 57.421875 37.46875 61 
Q 33.734375 64.59375 27.734375 64.59375 
Q 21.390625 64.59375 17.578125 60.78125 
Q 13.765625 56.984375 13.71875 50.25 
L 4.6875 51.171875 
Q 5.609375 61.28125 11.65625 66.578125 
Q 17.71875 71.875 27.9375 71.875 
Q 38.234375 71.875 44.234375 66.15625 
Q 50.25 60.453125 50.25 52 
Q 50.25 47.703125 48.484375 43.546875 
Q 46.734375 39.40625 42.65625 34.8125 
Q 38.578125 30.21875 29.109375 22.21875 
Q 21.1875 15.578125 18.9375 13.203125 
Q 16.703125 10.84375 15.234375 8.453125 
z
" id="ArialMT-50"/>
       </defs>
       <use xlink:href="#ArialMT-50"/>
       <use x="55.615234" xlink:href="#ArialMT-48"/>
      </g>
     </g>
    </g>
    <g id="xtick_5">
     <g id="line2d_5">
      <path clip-path="url(#p80cfb95789)" d="M 200.276868 173.858906 
L 200.276868 10.778906 
" style="fill:none;stroke:#cccccc;stroke-linecap:round;stroke-width:0.8;"/>
     </g>
     <g id="text_5">
      <!-- 25 -->
      <g style="fill:#262626;" transform="translate(194.715931 188.016719)scale(0.1 -0.1)">
       <use xlink:href="#ArialMT-50"/>
       <use x="55.615234" xlink:href="#ArialMT-53"/>
      </g>
     </g>
    </g>
    <g id="xtick_6">
     <g id="line2d_6">
      <path clip-path="url(#p80cfb95789)" d="M 232.724535 173.858906 
L 232.724535 10.778906 
" style="fill:none;stroke:#cccccc;stroke-linecap:round;stroke-width:0.8;"/>
     </g>
     <g id="text_6">
      <!-- 30 -->
      <g style="fill:#262626;" transform="translate(227.163598 188.016719)scale(0.1 -0.1)">
       <defs>
        <path d="M 4.203125 18.890625 
L 12.984375 20.0625 
Q 14.5 12.59375 18.140625 9.296875 
Q 21.78125 6 27 6 
Q 33.203125 6 37.46875 10.296875 
Q 41.75 14.59375 41.75 20.953125 
Q 41.75 27 37.796875 30.921875 
Q 33.84375 34.859375 27.734375 34.859375 
Q 25.25 34.859375 21.53125 33.890625 
L 22.515625 41.609375 
Q 23.390625 41.5 23.921875 41.5 
Q 29.546875 41.5 34.03125 44.421875 
Q 38.53125 47.359375 38.53125 53.46875 
Q 38.53125 58.296875 35.25 61.46875 
Q 31.984375 64.65625 26.8125 64.65625 
Q 21.6875 64.65625 18.265625 61.421875 
Q 14.84375 58.203125 13.875 51.765625 
L 5.078125 53.328125 
Q 6.6875 62.15625 12.390625 67.015625 
Q 18.109375 71.875 26.609375 71.875 
Q 32.46875 71.875 37.390625 69.359375 
Q 42.328125 66.84375 44.9375 62.5 
Q 47.5625 58.15625 47.5625 53.265625 
Q 47.5625 48.640625 45.0625 44.828125 
Q 42.578125 41.015625 37.703125 38.765625 
Q 44.046875 37.3125 47.5625 32.6875 
Q 51.078125 28.078125 51.078125 21.140625 
Q 51.078125 11.765625 44.234375 5.25 
Q 37.40625 -1.265625 26.953125 -1.265625 
Q 17.53125 -1.265625 11.296875 4.34375 
Q 5.078125 9.96875 4.203125 18.890625 
z
" id="ArialMT-51"/>
       </defs>
       <use xlink:href="#ArialMT-51"/>
       <use x="55.615234" xlink:href="#ArialMT-48"/>
      </g>
     </g>
    </g>
    <g id="xtick_7">
     <g id="line2d_7">
      <path clip-path="url(#p80cfb95789)" d="M 265.172202 173.858906 
L 265.172202 10.778906 
" style="fill:none;stroke:#cccccc;stroke-linecap:round;stroke-width:0.8;"/>
     </g>
     <g id="text_7">
      <!-- 35 -->
      <g style="fill:#262626;" transform="translate(259.611265 188.016719)scale(0.1 -0.1)">
       <use xlink:href="#ArialMT-51"/>
       <use x="55.615234" xlink:href="#ArialMT-53"/>
      </g>
     </g>
    </g>
    <g id="text_8">
     <!-- predicted -->
     <g style="fill:#262626;" transform="translate(143.679688 201.162031)scale(0.1 -0.1)">
      <defs>
       <path d="M 6.59375 -19.875 
L 6.59375 51.859375 
L 14.59375 51.859375 
L 14.59375 45.125 
Q 17.4375 49.078125 21 51.046875 
Q 24.5625 53.03125 29.640625 53.03125 
Q 36.28125 53.03125 41.359375 49.609375 
Q 46.4375 46.1875 49.015625 39.953125 
Q 51.609375 33.734375 51.609375 26.3125 
Q 51.609375 18.359375 48.75 11.984375 
Q 45.90625 5.609375 40.453125 2.21875 
Q 35.015625 -1.171875 29 -1.171875 
Q 24.609375 -1.171875 21.109375 0.6875 
Q 17.625 2.546875 15.375 5.375 
L 15.375 -19.875 
z
M 14.546875 25.640625 
Q 14.546875 15.625 18.59375 10.84375 
Q 22.65625 6.0625 28.421875 6.0625 
Q 34.28125 6.0625 38.453125 11.015625 
Q 42.625 15.96875 42.625 26.375 
Q 42.625 36.28125 38.546875 41.203125 
Q 34.46875 46.140625 28.8125 46.140625 
Q 23.1875 46.140625 18.859375 40.890625 
Q 14.546875 35.640625 14.546875 25.640625 
z
" id="ArialMT-112"/>
       <path d="M 6.5 0 
L 6.5 51.859375 
L 14.40625 51.859375 
L 14.40625 44 
Q 17.4375 49.515625 20 51.265625 
Q 22.5625 53.03125 25.640625 53.03125 
Q 30.078125 53.03125 34.671875 50.203125 
L 31.640625 42.046875 
Q 28.421875 43.953125 25.203125 43.953125 
Q 22.3125 43.953125 20.015625 42.21875 
Q 17.71875 40.484375 16.75 37.40625 
Q 15.28125 32.71875 15.28125 27.15625 
L 15.28125 0 
z
" id="ArialMT-114"/>
       <path d="M 42.09375 16.703125 
L 51.171875 15.578125 
Q 49.03125 7.625 43.21875 3.21875 
Q 37.40625 -1.171875 28.375 -1.171875 
Q 17 -1.171875 10.328125 5.828125 
Q 3.65625 12.84375 3.65625 25.484375 
Q 3.65625 38.578125 10.390625 45.796875 
Q 17.140625 53.03125 27.875 53.03125 
Q 38.28125 53.03125 44.875 45.953125 
Q 51.46875 38.875 51.46875 26.03125 
Q 51.46875 25.25 51.421875 23.6875 
L 12.75 23.6875 
Q 13.234375 15.140625 17.578125 10.59375 
Q 21.921875 6.0625 28.421875 6.0625 
Q 33.25 6.0625 36.671875 8.59375 
Q 40.09375 11.140625 42.09375 16.703125 
z
M 13.234375 30.90625 
L 42.1875 30.90625 
Q 41.609375 37.453125 38.875 40.71875 
Q 34.671875 45.796875 27.984375 45.796875 
Q 21.921875 45.796875 17.796875 41.75 
Q 13.671875 37.703125 13.234375 30.90625 
z
" id="ArialMT-101"/>
       <path d="M 40.234375 0 
L 40.234375 6.546875 
Q 35.296875 -1.171875 25.734375 -1.171875 
Q 19.53125 -1.171875 14.328125 2.25 
Q 9.125 5.671875 6.265625 11.796875 
Q 3.421875 17.921875 3.421875 25.875 
Q 3.421875 33.640625 6 39.96875 
Q 8.59375 46.296875 13.765625 49.65625 
Q 18.953125 53.03125 25.34375 53.03125 
Q 30.03125 53.03125 33.6875 51.046875 
Q 37.359375 49.078125 39.65625 45.90625 
L 39.65625 71.578125 
L 48.390625 71.578125 
L 48.390625 0 
z
M 12.453125 25.875 
Q 12.453125 15.921875 16.640625 10.984375 
Q 20.84375 6.0625 26.5625 6.0625 
Q 32.328125 6.0625 36.34375 10.765625 
Q 40.375 15.484375 40.375 25.140625 
Q 40.375 35.796875 36.265625 40.765625 
Q 32.171875 45.75 26.171875 45.75 
Q 20.3125 45.75 16.375 40.96875 
Q 12.453125 36.1875 12.453125 25.875 
z
" id="ArialMT-100"/>
       <path d="M 6.640625 61.46875 
L 6.640625 71.578125 
L 15.4375 71.578125 
L 15.4375 61.46875 
z
M 6.640625 0 
L 6.640625 51.859375 
L 15.4375 51.859375 
L 15.4375 0 
z
" id="ArialMT-105"/>
       <path d="M 40.4375 19 
L 49.078125 17.875 
Q 47.65625 8.9375 41.8125 3.875 
Q 35.984375 -1.171875 27.484375 -1.171875 
Q 16.84375 -1.171875 10.375 5.78125 
Q 3.90625 12.75 3.90625 25.734375 
Q 3.90625 34.125 6.6875 40.421875 
Q 9.46875 46.734375 15.15625 49.875 
Q 20.84375 53.03125 27.546875 53.03125 
Q 35.984375 53.03125 41.359375 48.75 
Q 46.734375 44.484375 48.25 36.625 
L 39.703125 35.296875 
Q 38.484375 40.53125 35.375 43.15625 
Q 32.28125 45.796875 27.875 45.796875 
Q 21.234375 45.796875 17.078125 41.03125 
Q 12.9375 36.28125 12.9375 25.984375 
Q 12.9375 15.53125 16.9375 10.796875 
Q 20.953125 6.0625 27.390625 6.0625 
Q 32.5625 6.0625 36.03125 9.234375 
Q 39.5 12.40625 40.4375 19 
z
" id="ArialMT-99"/>
       <path d="M 25.78125 7.859375 
L 27.046875 0.09375 
Q 23.34375 -0.6875 20.40625 -0.6875 
Q 15.625 -0.6875 12.984375 0.828125 
Q 10.359375 2.34375 9.28125 4.8125 
Q 8.203125 7.28125 8.203125 15.1875 
L 8.203125 45.015625 
L 1.765625 45.015625 
L 1.765625 51.859375 
L 8.203125 51.859375 
L 8.203125 64.703125 
L 16.9375 69.96875 
L 16.9375 51.859375 
L 25.78125 51.859375 
L 25.78125 45.015625 
L 16.9375 45.015625 
L 16.9375 14.703125 
Q 16.9375 10.9375 17.40625 9.859375 
Q 17.875 8.796875 18.921875 8.15625 
Q 19.96875 7.515625 21.921875 7.515625 
Q 23.390625 7.515625 25.78125 7.859375 
z
" id="ArialMT-116"/>
      </defs>
      <use xlink:href="#ArialMT-112"/>
      <use x="55.615234" xlink:href="#ArialMT-114"/>
      <use x="88.916016" xlink:href="#ArialMT-101"/>
      <use x="144.53125" xlink:href="#ArialMT-100"/>
      <use x="200.146484" xlink:href="#ArialMT-105"/>
      <use x="222.363281" xlink:href="#ArialMT-99"/>
      <use x="272.363281" xlink:href="#ArialMT-116"/>
      <use x="300.146484" xlink:href="#ArialMT-101"/>
      <use x="355.761719" xlink:href="#ArialMT-100"/>
     </g>
    </g>
   </g>
   <g id="matplotlib.axis_2">
    <g id="ytick_1">
     <g id="line2d_8">
      <path clip-path="url(#p80cfb95789)" d="M 52.646875 173.858906 
L 275.846875 173.858906 
" style="fill:none;stroke:#cccccc;stroke-linecap:round;stroke-width:0.8;"/>
     </g>
     <g id="text_9">
      <!-- −10.0 -->
      <g style="fill:#262626;" transform="translate(20.345313 177.437813)scale(0.1 -0.1)">
       <defs>
        <path d="M 52.828125 31.203125 
L 5.5625 31.203125 
L 5.5625 39.40625 
L 52.828125 39.40625 
z
" id="ArialMT-8722"/>
        <path d="M 9.078125 0 
L 9.078125 10.015625 
L 19.09375 10.015625 
L 19.09375 0 
z
" id="ArialMT-46"/>
       </defs>
       <use xlink:href="#ArialMT-8722"/>
       <use x="58.398438" xlink:href="#ArialMT-49"/>
       <use x="114.013672" xlink:href="#ArialMT-48"/>
       <use x="169.628906" xlink:href="#ArialMT-46"/>
       <use x="197.412109" xlink:href="#ArialMT-48"/>
      </g>
     </g>
    </g>
    <g id="ytick_2">
     <g id="line2d_9">
      <path clip-path="url(#p80cfb95789)" d="M 52.646875 153.473906 
L 275.846875 153.473906 
" style="fill:none;stroke:#cccccc;stroke-linecap:round;stroke-width:0.8;"/>
     </g>
     <g id="text_10">
      <!-- −7.5 -->
      <g style="fill:#262626;" transform="translate(25.90625 157.052813)scale(0.1 -0.1)">
       <defs>
        <path d="M 4.734375 62.203125 
L 4.734375 70.65625 
L 51.078125 70.65625 
L 51.078125 63.8125 
Q 44.234375 56.546875 37.515625 44.484375 
Q 30.8125 32.421875 27.15625 19.671875 
Q 24.515625 10.6875 23.78125 0 
L 14.75 0 
Q 14.890625 8.453125 18.0625 20.40625 
Q 21.234375 32.375 27.171875 43.484375 
Q 33.109375 54.59375 39.796875 62.203125 
z
" id="ArialMT-55"/>
       </defs>
       <use xlink:href="#ArialMT-8722"/>
       <use x="58.398438" xlink:href="#ArialMT-55"/>
       <use x="114.013672" xlink:href="#ArialMT-46"/>
       <use x="141.796875" xlink:href="#ArialMT-53"/>
      </g>
     </g>
    </g>
    <g id="ytick_3">
     <g id="line2d_10">
      <path clip-path="url(#p80cfb95789)" d="M 52.646875 133.088906 
L 275.846875 133.088906 
" style="fill:none;stroke:#cccccc;stroke-linecap:round;stroke-width:0.8;"/>
     </g>
     <g id="text_11">
      <!-- −5.0 -->
      <g style="fill:#262626;" transform="translate(25.90625 136.667813)scale(0.1 -0.1)">
       <use xlink:href="#ArialMT-8722"/>
       <use x="58.398438" xlink:href="#ArialMT-53"/>
       <use x="114.013672" xlink:href="#ArialMT-46"/>
       <use x="141.796875" xlink:href="#ArialMT-48"/>
      </g>
     </g>
    </g>
    <g id="ytick_4">
     <g id="line2d_11">
      <path clip-path="url(#p80cfb95789)" d="M 52.646875 112.703906 
L 275.846875 112.703906 
" style="fill:none;stroke:#cccccc;stroke-linecap:round;stroke-width:0.8;"/>
     </g>
     <g id="text_12">
      <!-- −2.5 -->
      <g style="fill:#262626;" transform="translate(25.90625 116.282813)scale(0.1 -0.1)">
       <use xlink:href="#ArialMT-8722"/>
       <use x="58.398438" xlink:href="#ArialMT-50"/>
       <use x="114.013672" xlink:href="#ArialMT-46"/>
       <use x="141.796875" xlink:href="#ArialMT-53"/>
      </g>
     </g>
    </g>
    <g id="ytick_5">
     <g id="line2d_12">
      <path clip-path="url(#p80cfb95789)" d="M 52.646875 92.318906 
L 275.846875 92.318906 
" style="fill:none;stroke:#cccccc;stroke-linecap:round;stroke-width:0.8;"/>
     </g>
     <g id="text_13">
      <!-- 0.0 -->
      <g style="fill:#262626;" transform="translate(31.746875 95.897813)scale(0.1 -0.1)">
       <use xlink:href="#ArialMT-48"/>
       <use x="55.615234" xlink:href="#ArialMT-46"/>
       <use x="83.398438" xlink:href="#ArialMT-48"/>
      </g>
     </g>
    </g>
    <g id="ytick_6">
     <g id="line2d_13">
      <path clip-path="url(#p80cfb95789)" d="M 52.646875 71.933906 
L 275.846875 71.933906 
" style="fill:none;stroke:#cccccc;stroke-linecap:round;stroke-width:0.8;"/>
     </g>
     <g id="text_14">
      <!-- 2.5 -->
      <g style="fill:#262626;" transform="translate(31.746875 75.512812)scale(0.1 -0.1)">
       <use xlink:href="#ArialMT-50"/>
       <use x="55.615234" xlink:href="#ArialMT-46"/>
       <use x="83.398438" xlink:href="#ArialMT-53"/>
      </g>
     </g>
    </g>
    <g id="ytick_7">
     <g id="line2d_14">
      <path clip-path="url(#p80cfb95789)" d="M 52.646875 51.548906 
L 275.846875 51.548906 
" style="fill:none;stroke:#cccccc;stroke-linecap:round;stroke-width:0.8;"/>
     </g>
     <g id="text_15">
      <!-- 5.0 -->
      <g style="fill:#262626;" transform="translate(31.746875 55.127812)scale(0.1 -0.1)">
       <use xlink:href="#ArialMT-53"/>
       <use x="55.615234" xlink:href="#ArialMT-46"/>
       <use x="83.398438" xlink:href="#ArialMT-48"/>
      </g>
     </g>
    </g>
    <g id="ytick_8">
     <g id="line2d_15">
      <path clip-path="url(#p80cfb95789)" d="M 52.646875 31.163906 
L 275.846875 31.163906 
" style="fill:none;stroke:#cccccc;stroke-linecap:round;stroke-width:0.8;"/>
     </g>
     <g id="text_16">
      <!-- 7.5 -->
      <g style="fill:#262626;" transform="translate(31.746875 34.742812)scale(0.1 -0.1)">
       <use xlink:href="#ArialMT-55"/>
       <use x="55.615234" xlink:href="#ArialMT-46"/>
       <use x="83.398438" xlink:href="#ArialMT-53"/>
      </g>
     </g>
    </g>
    <g id="ytick_9">
     <g id="line2d_16">
      <path clip-path="url(#p80cfb95789)" d="M 52.646875 10.778906 
L 275.846875 10.778906 
" style="fill:none;stroke:#cccccc;stroke-linecap:round;stroke-width:0.8;"/>
     </g>
     <g id="text_17">
      <!-- 10.0 -->
      <g style="fill:#262626;" transform="translate(26.185938 14.357812)scale(0.1 -0.1)">
       <use xlink:href="#ArialMT-49"/>
       <use x="55.615234" xlink:href="#ArialMT-48"/>
       <use x="111.230469" xlink:href="#ArialMT-46"/>
       <use x="139.013672" xlink:href="#ArialMT-48"/>
      </g>
     </g>
    </g>
    <g id="text_18">
     <!-- error -->
     <g style="fill:#262626;" transform="translate(14.357813 102.874375)rotate(-90)scale(0.1 -0.1)">
      <defs>
       <path d="M 3.328125 25.921875 
Q 3.328125 40.328125 11.328125 47.265625 
Q 18.015625 53.03125 27.640625 53.03125 
Q 38.328125 53.03125 45.109375 46.015625 
Q 51.90625 39.015625 51.90625 26.65625 
Q 51.90625 16.65625 48.90625 10.90625 
Q 45.90625 5.171875 40.15625 2 
Q 34.421875 -1.171875 27.640625 -1.171875 
Q 16.75 -1.171875 10.03125 5.8125 
Q 3.328125 12.796875 3.328125 25.921875 
z
M 12.359375 25.921875 
Q 12.359375 15.96875 16.703125 11.015625 
Q 21.046875 6.0625 27.640625 6.0625 
Q 34.1875 6.0625 38.53125 11.03125 
Q 42.875 16.015625 42.875 26.21875 
Q 42.875 35.84375 38.5 40.796875 
Q 34.125 45.75 27.640625 45.75 
Q 21.046875 45.75 16.703125 40.8125 
Q 12.359375 35.890625 12.359375 25.921875 
z
" id="ArialMT-111"/>
      </defs>
      <use xlink:href="#ArialMT-101"/>
      <use x="55.615234" xlink:href="#ArialMT-114"/>
      <use x="88.916016" xlink:href="#ArialMT-114"/>
      <use x="122.216797" xlink:href="#ArialMT-111"/>
      <use x="177.832031" xlink:href="#ArialMT-114"/>
     </g>
    </g>
   </g>
   <g id="line2d_17">
    <defs>
     <path d="M 0 3 
C 0.795609 3 1.55874 2.683901 2.12132 2.12132 
C 2.683901 1.55874 3 0.795609 3 0 
C 3 -0.795609 2.683901 -1.55874 2.12132 -2.12132 
C 1.55874 -2.683901 0.795609 -3 0 -3 
C -0.795609 -3 -1.55874 -2.683901 -2.12132 -2.12132 
C -2.683901 -1.55874 -3 -0.795609 -3 0 
C -3 0.795609 -2.683901 1.55874 -2.12132 2.12132 
C -1.55874 2.683901 -0.795609 3 0 3 
z
" id="md7a30f0a1a" style="stroke:#1f77b4;"/>
    </defs>
    <g clip-path="url(#p80cfb95789)">
     <use style="fill:#1f77b4;stroke:#1f77b4;" x="141.505598" xlink:href="#md7a30f0a1a" y="90.315535"/>
     <use style="fill:#1f77b4;stroke:#1f77b4;" x="123.525306" xlink:href="#md7a30f0a1a" y="88.898094"/>
     <use style="fill:#1f77b4;stroke:#1f77b4;" x="106.506226" xlink:href="#md7a30f0a1a" y="94.356665"/>
     <use style="fill:#1f77b4;stroke:#1f77b4;" x="135.788286" xlink:href="#md7a30f0a1a" y="94.539829"/>
     <use style="fill:#1f77b4;stroke:#1f77b4;" x="150.026531" xlink:href="#md7a30f0a1a" y="89.961339"/>
     <use style="fill:#1f77b4;stroke:#1f77b4;" x="179.041247" xlink:href="#md7a30f0a1a" y="87.323027"/>
     <use style="fill:#1f77b4;stroke:#1f77b4;" x="134.240711" xlink:href="#md7a30f0a1a" y="94.40575"/>
     <use style="fill:#1f77b4;stroke:#1f77b4;" x="156.61904" xlink:href="#md7a30f0a1a" y="84.666798"/>
     <use style="fill:#1f77b4;stroke:#1f77b4;" x="172.528928" xlink:href="#md7a30f0a1a" y="84.634834"/>
     <use style="fill:#1f77b4;stroke:#1f77b4;" x="179.847434" xlink:href="#md7a30f0a1a" y="61.132489"/>
     <use style="fill:#1f77b4;stroke:#1f77b4;" x="178.640436" xlink:href="#md7a30f0a1a" y="64.469341"/>
     <use style="fill:#1f77b4;stroke:#1f77b4;" x="107.916506" xlink:href="#md7a30f0a1a" y="87.326643"/>
     <use style="fill:#1f77b4;stroke:#1f77b4;" x="127.943259" xlink:href="#md7a30f0a1a" y="79.07159"/>
     <use style="fill:#1f77b4;stroke:#1f77b4;" x="150.484921" xlink:href="#md7a30f0a1a" y="86.417322"/>
     <use style="fill:#1f77b4;stroke:#1f77b4;" x="157.230119" xlink:href="#md7a30f0a1a" y="83.645703"/>
     <use style="fill:#1f77b4;stroke:#1f77b4;" x="120.406806" xlink:href="#md7a30f0a1a" y="93.397675"/>
     <use style="fill:#1f77b4;stroke:#1f77b4;" x="85.972425" xlink:href="#md7a30f0a1a" y="87.815053"/>
     <use style="fill:#1f77b4;stroke:#1f77b4;" x="88.445899" xlink:href="#md7a30f0a1a" y="94.174286"/>
     <use style="fill:#1f77b4;stroke:#1f77b4;" x="120.350474" xlink:href="#md7a30f0a1a" y="99.573991"/>
     <use style="fill:#1f77b4;stroke:#1f77b4;" x="101.003315" xlink:href="#md7a30f0a1a" y="107.075316"/>
     <use style="fill:#1f77b4;stroke:#1f77b4;" x="111.622947" xlink:href="#md7a30f0a1a" y="101.255237"/>
     <use style="fill:#1f77b4;stroke:#1f77b4;" x="118.795625" xlink:href="#md7a30f0a1a" y="102.45816"/>
     <use style="fill:#1f77b4;stroke:#1f77b4;" x="115.475502" xlink:href="#md7a30f0a1a" y="109.268309"/>
     <use style="fill:#1f77b4;stroke:#1f77b4;" x="103.813221" xlink:href="#md7a30f0a1a" y="93.45064"/>
     <use style="fill:#1f77b4;stroke:#1f77b4;" x="118.709538" xlink:href="#md7a30f0a1a" y="98.550569"/>
     <use style="fill:#1f77b4;stroke:#1f77b4;" x="148.682343" xlink:href="#md7a30f0a1a" y="101.546817"/>
     <use style="fill:#1f77b4;stroke:#1f77b4;" x="155.379962" xlink:href="#md7a30f0a1a" y="103.289357"/>
     <use style="fill:#1f77b4;stroke:#1f77b4;" x="137.026394" xlink:href="#md7a30f0a1a" y="93.199353"/>
     <use style="fill:#1f77b4;stroke:#1f77b4;" x="229.904502" xlink:href="#md7a30f0a1a" y="95.383149"/>
     <use style="fill:#1f77b4;stroke:#1f77b4;" x="224.059289" xlink:href="#md7a30f0a1a" y="104.228891"/>
     <use style="fill:#1f77b4;stroke:#1f77b4;" x="164.82181" xlink:href="#md7a30f0a1a" y="86.120521"/>
     <use style="fill:#1f77b4;stroke:#1f77b4;" x="154.771789" xlink:href="#md7a30f0a1a" y="94.800244"/>
     <use style="fill:#1f77b4;stroke:#1f77b4;" x="171.836981" xlink:href="#md7a30f0a1a" y="91.332324"/>
     <use style="fill:#1f77b4;stroke:#1f77b4;" x="187.725987" xlink:href="#md7a30f0a1a" y="97.163302"/>
     <use style="fill:#1f77b4;stroke:#1f77b4;" x="175.555255" xlink:href="#md7a30f0a1a" y="96.560783"/>
     <use style="fill:#1f77b4;stroke:#1f77b4;" x="93.777207" xlink:href="#md7a30f0a1a" y="91.830944"/>
     <use style="fill:#1f77b4;stroke:#1f77b4;" x="112.641976" xlink:href="#md7a30f0a1a" y="97.474941"/>
     <use style="fill:#1f77b4;stroke:#1f77b4;" x="117.155465" xlink:href="#md7a30f0a1a" y="106.567071"/>
     <use style="fill:#1f77b4;stroke:#1f77b4;" x="111.710019" xlink:href="#md7a30f0a1a" y="110.25267"/>
     <use style="fill:#1f77b4;stroke:#1f77b4;" x="127.521788" xlink:href="#md7a30f0a1a" y="108.012386"/>
     <use style="fill:#1f77b4;stroke:#1f77b4;" x="141.668479" xlink:href="#md7a30f0a1a" y="103.508648"/>
     <use style="fill:#1f77b4;stroke:#1f77b4;" x="156.766703" xlink:href="#md7a30f0a1a" y="100.844017"/>
     <use style="fill:#1f77b4;stroke:#1f77b4;" x="167.007196" xlink:href="#md7a30f0a1a" y="94.473999"/>
     <use style="fill:#1f77b4;stroke:#1f77b4;" x="215.028791" xlink:href="#md7a30f0a1a" y="80.453832"/>
     <use style="fill:#1f77b4;stroke:#1f77b4;" x="185.282773" xlink:href="#md7a30f0a1a" y="88.54623"/>
     <use style="fill:#1f77b4;stroke:#1f77b4;" x="196.820391" xlink:href="#md7a30f0a1a" y="101.882825"/>
     <use style="fill:#1f77b4;stroke:#1f77b4;" x="239.044868" xlink:href="#md7a30f0a1a" y="90.46843"/>
     <use style="fill:#1f77b4;stroke:#1f77b4;" x="255.879962" xlink:href="#md7a30f0a1a" y="86.760862"/>
     <use style="fill:#1f77b4;stroke:#1f77b4;" x="261.678853" xlink:href="#md7a30f0a1a" y="88.574412"/>
     <use style="fill:#1f77b4;stroke:#1f77b4;" x="199.786866" xlink:href="#md7a30f0a1a" y="102.791703"/>
     <use style="fill:#1f77b4;stroke:#1f77b4;" x="168.691008" xlink:href="#md7a30f0a1a" y="111.088799"/>
     <use style="fill:#1f77b4;stroke:#1f77b4;" x="125.568625" xlink:href="#md7a30f0a1a" y="136.680386"/>
     <use style="fill:#1f77b4;stroke:#1f77b4;" x="116.71132" xlink:href="#md7a30f0a1a" y="121.70076"/>
     <use style="fill:#1f77b4;stroke:#1f77b4;" x="95.668568" xlink:href="#md7a30f0a1a" y="104.157329"/>
     <use style="fill:#1f77b4;stroke:#1f77b4;" x="100.259351" xlink:href="#md7a30f0a1a" y="88.4698"/>
     <use style="fill:#1f77b4;stroke:#1f77b4;" x="125.541156" xlink:href="#md7a30f0a1a" y="104.490798"/>
     <use style="fill:#1f77b4;stroke:#1f77b4;" x="130.715343" xlink:href="#md7a30f0a1a" y="99.08866"/>
     <use style="fill:#1f77b4;stroke:#1f77b4;" x="134.843623" xlink:href="#md7a30f0a1a" y="104.24764"/>
     <use style="fill:#1f77b4;stroke:#1f77b4;" x="101.335474" xlink:href="#md7a30f0a1a" y="92.118851"/>
     <use style="fill:#1f77b4;stroke:#1f77b4;" x="151.362927" xlink:href="#md7a30f0a1a" y="68.448769"/>
     <use style="fill:#1f77b4;stroke:#1f77b4;" x="75.042875" xlink:href="#md7a30f0a1a" y="86.711654"/>
     <use style="fill:#1f77b4;stroke:#1f77b4;" x="107.463531" xlink:href="#md7a30f0a1a" y="74.002038"/>
     <use style="fill:#1f77b4;stroke:#1f77b4;" x="140.065406" xlink:href="#md7a30f0a1a" y="109.470625"/>
     <use style="fill:#1f77b4;stroke:#1f77b4;" x="87.762247" xlink:href="#md7a30f0a1a" y="93.093827"/>
     <use style="fill:#1f77b4;stroke:#1f77b4;" x="66.301918" xlink:href="#md7a30f0a1a" y="90.778339"/>
     <use style="fill:#1f77b4;stroke:#1f77b4;" x="124.889923" xlink:href="#md7a30f0a1a" y="90.965714"/>
     <use style="fill:#1f77b4;stroke:#1f77b4;" x="135.870793" xlink:href="#md7a30f0a1a" y="108.514127"/>
     <use style="fill:#1f77b4;stroke:#1f77b4;" x="192.877377" xlink:href="#md7a30f0a1a" y="79.187989"/>
     <use style="fill:#1f77b4;stroke:#1f77b4;" x="131.790582" xlink:href="#md7a30f0a1a" y="91.49236"/>
     <use style="fill:#1f77b4;stroke:#1f77b4;" x="99.832765" xlink:href="#md7a30f0a1a" y="107.677652"/>
     <use style="fill:#1f77b4;stroke:#1f77b4;" x="111.4053" xlink:href="#md7a30f0a1a" y="85.9104"/>
     <use style="fill:#1f77b4;stroke:#1f77b4;" x="163.577874" xlink:href="#md7a30f0a1a" y="101.419094"/>
     <use style="fill:#1f77b4;stroke:#1f77b4;" x="114.094813" xlink:href="#md7a30f0a1a" y="87.474326"/>
     <use style="fill:#1f77b4;stroke:#1f77b4;" x="148.449718" xlink:href="#md7a30f0a1a" y="109.838254"/>
     <use style="fill:#1f77b4;stroke:#1f77b4;" x="169.306533" xlink:href="#md7a30f0a1a" y="104.774954"/>
     <use style="fill:#1f77b4;stroke:#1f77b4;" x="216.291317" xlink:href="#md7a30f0a1a" y="115.484391"/>
     <use style="fill:#1f77b4;stroke:#1f77b4;" x="228.790596" xlink:href="#md7a30f0a1a" y="112.299579"/>
     <use style="fill:#1f77b4;stroke:#1f77b4;" x="132.736329" xlink:href="#md7a30f0a1a" y="105.003425"/>
     <use style="fill:#1f77b4;stroke:#1f77b4;" x="144.563697" xlink:href="#md7a30f0a1a" y="115.66258"/>
     <use style="fill:#1f77b4;stroke:#1f77b4;" x="208.44217" xlink:href="#md7a30f0a1a" y="116.139378"/>
     <use style="fill:#1f77b4;stroke:#1f77b4;" x="215.411939" xlink:href="#md7a30f0a1a" y="104.682398"/>
     <use style="fill:#1f77b4;stroke:#1f77b4;" x="105.615501" xlink:href="#md7a30f0a1a" y="92.999386"/>
     <use style="fill:#1f77b4;stroke:#1f77b4;" x="86.836989" xlink:href="#md7a30f0a1a" y="84.382633"/>
     <use style="fill:#1f77b4;stroke:#1f77b4;" x="158.880642" xlink:href="#md7a30f0a1a" y="108.548325"/>
     <use style="fill:#1f77b4;stroke:#1f77b4;" x="207.867702" xlink:href="#md7a30f0a1a" y="131.51234"/>
     <use style="fill:#1f77b4;stroke:#1f77b4;" x="162.833618" xlink:href="#md7a30f0a1a" y="87.293048"/>
     <use style="fill:#1f77b4;stroke:#1f77b4;" x="134.005005" xlink:href="#md7a30f0a1a" y="106.056436"/>
     <use style="fill:#1f77b4;stroke:#1f77b4;" x="145.669823" xlink:href="#md7a30f0a1a" y="75.290453"/>
     <use style="fill:#1f77b4;stroke:#1f77b4;" x="171.057066" xlink:href="#md7a30f0a1a" y="77.291024"/>
     <use style="fill:#1f77b4;stroke:#1f77b4;" x="128.20686" xlink:href="#md7a30f0a1a" y="86.824308"/>
     <use style="fill:#1f77b4;stroke:#1f77b4;" x="174.842484" xlink:href="#md7a30f0a1a" y="107.564278"/>
     <use style="fill:#1f77b4;stroke:#1f77b4;" x="179.537951" xlink:href="#md7a30f0a1a" y="93.441565"/>
     <use style="fill:#1f77b4;stroke:#1f77b4;" x="197.70519" xlink:href="#md7a30f0a1a" y="83.570488"/>
     <use style="fill:#1f77b4;stroke:#1f77b4;" x="188.757807" xlink:href="#md7a30f0a1a" y="77.181663"/>
     <use style="fill:#1f77b4;stroke:#1f77b4;" x="112.495548" xlink:href="#md7a30f0a1a" y="93.080139"/>
     <use style="fill:#1f77b4;stroke:#1f77b4;" x="141.047072" xlink:href="#md7a30f0a1a" y="95.536331"/>
     <use style="fill:#1f77b4;stroke:#1f77b4;" x="154.507488" xlink:href="#md7a30f0a1a" y="91.471616"/>
     <use style="fill:#1f77b4;stroke:#1f77b4;" x="157.291072" xlink:href="#md7a30f0a1a" y="83.722289"/>
     <use style="fill:#1f77b4;stroke:#1f77b4;" x="126.575801" xlink:href="#md7a30f0a1a" y="101.148923"/>
     <use style="fill:#1f77b4;stroke:#1f77b4;" x="81.096591" xlink:href="#md7a30f0a1a" y="81.688642"/>
     <use style="fill:#1f77b4;stroke:#1f77b4;" x="103.012463" xlink:href="#md7a30f0a1a" y="112.476953"/>
     <use style="fill:#1f77b4;stroke:#1f77b4;" x="128.212764" xlink:href="#md7a30f0a1a" y="109.452839"/>
     <use style="fill:#1f77b4;stroke:#1f77b4;" x="88.874661" xlink:href="#md7a30f0a1a" y="91.835846"/>
     <use style="fill:#1f77b4;stroke:#1f77b4;" x="112.354323" xlink:href="#md7a30f0a1a" y="102.1742"/>
     <use style="fill:#1f77b4;stroke:#1f77b4;" x="104.655687" xlink:href="#md7a30f0a1a" y="84.691543"/>
     <use style="fill:#1f77b4;stroke:#1f77b4;" x="95.314966" xlink:href="#md7a30f0a1a" y="83.936901"/>
     <use style="fill:#1f77b4;stroke:#1f77b4;" x="98.327902" xlink:href="#md7a30f0a1a" y="86.55842"/>
     <use style="fill:#1f77b4;stroke:#1f77b4;" x="109.445449" xlink:href="#md7a30f0a1a" y="86.910382"/>
     <use style="fill:#1f77b4;stroke:#1f77b4;" x="139.418254" xlink:href="#md7a30f0a1a" y="89.90663"/>
     <use style="fill:#1f77b4;stroke:#1f77b4;" x="148.664601" xlink:href="#md7a30f0a1a" y="94.851608"/>
     <use style="fill:#1f77b4;stroke:#1f77b4;" x="128.432727" xlink:href="#md7a30f0a1a" y="82.401542"/>
     <use style="fill:#1f77b4;stroke:#1f77b4;" x="218.872912" xlink:href="#md7a30f0a1a" y="81.522123"/>
     <use style="fill:#1f77b4;stroke:#1f77b4;" x="214.612356" xlink:href="#md7a30f0a1a" y="92.358963"/>
     <use style="fill:#1f77b4;stroke:#1f77b4;" x="160.433555" xlink:href="#md7a30f0a1a" y="80.606745"/>
     <use style="fill:#1f77b4;stroke:#1f77b4;" x="146.665701" xlink:href="#md7a30f0a1a" y="84.615068"/>
     <use style="fill:#1f77b4;stroke:#1f77b4;" x="181.283914" xlink:href="#md7a30f0a1a" y="103.202252"/>
     <use style="fill:#1f77b4;stroke:#1f77b4;" x="192.358039" xlink:href="#md7a30f0a1a" y="102.983405"/>
     <use style="fill:#1f77b4;stroke:#1f77b4;" x="173.787768" xlink:href="#md7a30f0a1a" y="94.339962"/>
     <use style="fill:#1f77b4;stroke:#1f77b4;" x="94.508583" xlink:href="#md7a30f0a1a" y="92.749907"/>
     <use style="fill:#1f77b4;stroke:#1f77b4;" x="107.82708" xlink:href="#md7a30f0a1a" y="91.425097"/>
     <use style="fill:#1f77b4;stroke:#1f77b4;" x="116.180292" xlink:href="#md7a30f0a1a" y="105.341782"/>
     <use style="fill:#1f77b4;stroke:#1f77b4;" x="107.199872" xlink:href="#md7a30f0a1a" y="104.58574"/>
     <use style="fill:#1f77b4;stroke:#1f77b4;" x="138.065785" xlink:href="#md7a30f0a1a" y="121.260758"/>
     <use style="fill:#1f77b4;stroke:#1f77b4;" x="127.223806" xlink:href="#md7a30f0a1a" y="85.359136"/>
     <use style="fill:#1f77b4;stroke:#1f77b4;" x="149.818632" xlink:href="#md7a30f0a1a" y="92.113872"/>
     <use style="fill:#1f77b4;stroke:#1f77b4;" x="149.819863" xlink:href="#md7a30f0a1a" y="72.878377"/>
     <use style="fill:#1f77b4;stroke:#1f77b4;" x="187.297461" xlink:href="#md7a30f0a1a" y="45.609837"/>
     <use style="fill:#1f77b4;stroke:#1f77b4;" x="152.614657" xlink:href="#md7a30f0a1a" y="47.499238"/>
     <use style="fill:#1f77b4;stroke:#1f77b4;" x="184.546003" xlink:href="#md7a30f0a1a" y="86.460243"/>
     <use style="fill:#1f77b4;stroke:#1f77b4;" x="205.706313" xlink:href="#md7a30f0a1a" y="48.579043"/>
     <use style="fill:#1f77b4;stroke:#1f77b4;" x="238.387894" xlink:href="#md7a30f0a1a" y="64.782345"/>
     <use style="fill:#1f77b4;stroke:#1f77b4;" x="242.297393" xlink:href="#md7a30f0a1a" y="64.221902"/>
     <use style="fill:#1f77b4;stroke:#1f77b4;" x="178.455075" xlink:href="#md7a30f0a1a" y="75.988632"/>
     <use style="fill:#1f77b4;stroke:#1f77b4;" x="149.929623" xlink:href="#md7a30f0a1a" y="87.515403"/>
     <use style="fill:#1f77b4;stroke:#1f77b4;" x="92.656712" xlink:href="#md7a30f0a1a" y="95.327067"/>
     <use style="fill:#1f77b4;stroke:#1f77b4;" x="97.207969" xlink:href="#md7a30f0a1a" y="97.195096"/>
     <use style="fill:#1f77b4;stroke:#1f77b4;" x="95.059083" xlink:href="#md7a30f0a1a" y="103.391521"/>
     <use style="fill:#1f77b4;stroke:#1f77b4;" x="73.92982" xlink:href="#md7a30f0a1a" y="55.387144"/>
     <use style="fill:#1f77b4;stroke:#1f77b4;" x="113.900095" xlink:href="#md7a30f0a1a" y="89.863982"/>
     <use style="fill:#1f77b4;stroke:#1f77b4;" x="126.388041" xlink:href="#md7a30f0a1a" y="93.651471"/>
     <use style="fill:#1f77b4;stroke:#1f77b4;" x="130.942947" xlink:href="#md7a30f0a1a" y="99.3465"/>
     <use style="fill:#1f77b4;stroke:#1f77b4;" x="95.484467" xlink:href="#md7a30f0a1a" y="84.76715"/>
     <use style="fill:#1f77b4;stroke:#1f77b4;" x="160.627016" xlink:href="#md7a30f0a1a" y="80.088956"/>
     <use style="fill:#1f77b4;stroke:#1f77b4;" x="62.79233" xlink:href="#md7a30f0a1a" y="71.319029"/>
     <use style="fill:#1f77b4;stroke:#1f77b4;" x="100.088819" xlink:href="#md7a30f0a1a" y="64.735825"/>
     <use style="fill:#1f77b4;stroke:#1f77b4;" x="121.781009" xlink:href="#md7a30f0a1a" y="86.496559"/>
     <use style="fill:#1f77b4;stroke:#1f77b4;" x="71.976713" xlink:href="#md7a30f0a1a" y="73.259544"/>
     <use style="fill:#1f77b4;stroke:#1f77b4;" x="66.240965" xlink:href="#md7a30f0a1a" y="90.701753"/>
     <use style="fill:#1f77b4;stroke:#1f77b4;" x="125.986986" xlink:href="#md7a30f0a1a" y="92.344158"/>
     <use style="fill:#1f77b4;stroke:#1f77b4;" x="118.866305" xlink:href="#md7a30f0a1a" y="87.148246"/>
     <use style="fill:#1f77b4;stroke:#1f77b4;" x="199.520713" xlink:href="#md7a30f0a1a" y="87.535239"/>
     <use style="fill:#1f77b4;stroke:#1f77b4;" x="111.433949" xlink:href="#md7a30f0a1a" y="65.91456"/>
     <use style="fill:#1f77b4;stroke:#1f77b4;" x="74.905033" xlink:href="#md7a30f0a1a" y="76.356336"/>
     <use style="fill:#1f77b4;stroke:#1f77b4;" x="100.655219" xlink:href="#md7a30f0a1a" y="87.004963"/>
     <use style="fill:#1f77b4;stroke:#1f77b4;" x="172.519818" xlink:href="#md7a30f0a1a" y="79.12895"/>
     <use style="fill:#1f77b4;stroke:#1f77b4;" x="182.156242" xlink:href="#md7a30f0a1a" y="116.753905"/>
     <use style="fill:#1f77b4;stroke:#1f77b4;" x="185.832304" xlink:href="#md7a30f0a1a" y="73.505813"/>
     <use style="fill:#1f77b4;stroke:#1f77b4;" x="141.047072" xlink:href="#md7a30f0a1a" y="95.536331"/>
     <use style="fill:#1f77b4;stroke:#1f77b4;" x="123.650297" xlink:href="#md7a30f0a1a" y="97.473072"/>
     <use style="fill:#1f77b4;stroke:#1f77b4;" x="91.800164" xlink:href="#md7a30f0a1a" y="95.511697"/>
     <use style="fill:#1f77b4;stroke:#1f77b4;" x="95.314966" xlink:href="#md7a30f0a1a" y="83.936901"/>
     <use style="fill:#1f77b4;stroke:#1f77b4;" x="142.343757" xlink:href="#md7a30f0a1a" y="93.58248"/>
     <use style="fill:#1f77b4;stroke:#1f77b4;" x="218.872912" xlink:href="#md7a30f0a1a" y="81.522123"/>
     <use style="fill:#1f77b4;stroke:#1f77b4;" x="181.101527" xlink:href="#md7a30f0a1a" y="103.529589"/>
     <use style="fill:#1f77b4;stroke:#1f77b4;" x="120.568548" xlink:href="#md7a30f0a1a" y="110.855558"/>
     <use style="fill:#1f77b4;stroke:#1f77b4;" x="117.439134" xlink:href="#md7a30f0a1a" y="117.451217"/>
     <use style="fill:#1f77b4;stroke:#1f77b4;" x="168.835636" xlink:href="#md7a30f0a1a" y="96.771406"/>
     <use style="fill:#1f77b4;stroke:#1f77b4;" x="203.561775" xlink:href="#md7a30f0a1a" y="110.353272"/>
     <use style="fill:#1f77b4;stroke:#1f77b4;" x="265.70142" xlink:href="#md7a30f0a1a" y="93.628706"/>
     <use style="fill:#1f77b4;stroke:#1f77b4;" x="113.135236" xlink:href="#md7a30f0a1a" y="121.058021"/>
     <use style="fill:#1f77b4;stroke:#1f77b4;" x="78.318075" xlink:href="#md7a30f0a1a" y="60.90092"/>
     <use style="fill:#1f77b4;stroke:#1f77b4;" x="135.331202" xlink:href="#md7a30f0a1a" y="104.860276"/>
     <use style="fill:#1f77b4;stroke:#1f77b4;" x="170.866278" xlink:href="#md7a30f0a1a" y="92.954433"/>
     <use style="fill:#1f77b4;stroke:#1f77b4;" x="100.088819" xlink:href="#md7a30f0a1a" y="64.735825"/>
     <use style="fill:#1f77b4;stroke:#1f77b4;" x="130.55752" xlink:href="#md7a30f0a1a" y="97.524111"/>
     <use style="fill:#1f77b4;stroke:#1f77b4;" x="114.359452" xlink:href="#md7a30f0a1a" y="69.590411"/>
    </g>
   </g>
   <g id="line2d_18">
    <path clip-path="url(#p80cfb95789)" d="M 52.646875 92.318906 
L 275.846875 92.318906 
" style="fill:none;stroke:#1f77b4;stroke-dasharray:5.55,2.4;stroke-dashoffset:0;stroke-width:1.5;"/>
   </g>
   <g id="patch_3">
    <path d="M 52.646875 173.858906 
L 52.646875 10.778906 
" style="fill:none;stroke:#cccccc;stroke-linecap:square;stroke-linejoin:miter;stroke-width:0.8;"/>
   </g>
   <g id="patch_4">
    <path d="M 275.846875 173.858906 
L 275.846875 10.778906 
" style="fill:none;stroke:#cccccc;stroke-linecap:square;stroke-linejoin:miter;stroke-width:0.8;"/>
   </g>
   <g id="patch_5">
    <path d="M 52.646875 173.858906 
L 275.846875 173.858906 
" style="fill:none;stroke:#cccccc;stroke-linecap:square;stroke-linejoin:miter;stroke-width:0.8;"/>
   </g>
   <g id="patch_6">
    <path d="M 52.646875 10.778906 
L 275.846875 10.778906 
" style="fill:none;stroke:#cccccc;stroke-linecap:square;stroke-linejoin:miter;stroke-width:0.8;"/>
   </g>
  </g>
 </g>
 <defs>
  <clipPath id="p80cfb95789">
   <rect height="163.08" width="223.2" x="52.646875" y="10.778906"/>
  </clipPath>
 </defs>
</svg>
