<svg class="main-svg" xmlns="http://www.w3.org/2000/svg" xmlns:xlink="http://www.w3.org/1999/xlink" width="450" height="250" style="" viewBox="0 0 450 250"><rect x="0" y="0" width="450" height="250" style="fill: rgb(255, 255, 255); fill-opacity: 1;"/><defs id="defs-761bfa"><g class="clips"><clipPath id="clip761bfaxyplot" class="plotclip"><rect width="292" height="181"/></clipPath><clipPath class="axesclip" id="clip761bfax"><rect x="57" y="0" width="292" height="250"/></clipPath><clipPath class="axesclip" id="clip761bfay"><rect x="0" y="10" width="450" height="181"/></clipPath><clipPath class="axesclip" id="clip761bfaxy"><rect x="57" y="10" width="292" height="181"/></clipPath></g><g class="gradients"/><g class="patterns"/></defs><g class="bglayer"/><g class="layer-below"><g class="imagelayer"/><g class="shapelayer"/></g><g class="cartesianlayer"><g class="subplot xy"><g class="layer-subplot"><g class="shapelayer"/><g class="imagelayer"/></g><g class="gridlayer"><g class="x"><path class="xgrid crisp" transform="translate(130,0)" d="M0,10v181" style="stroke: rgb(232, 232, 232); stroke-opacity: 1; stroke-width: 1px;"/><path class="xgrid crisp" transform="translate(203,0)" d="M0,10v181" style="stroke: rgb(232, 232, 232); stroke-opacity: 1; stroke-width: 1px;"/><path class="xgrid crisp" transform="translate(276,0)" d="M0,10v181" style="stroke: rgb(232, 232, 232); stroke-opacity: 1; stroke-width: 1px;"/></g><g class="y"><path class="ygrid crisp" transform="translate(0,172.9)" d="M57,0h292" style="stroke: rgb(232, 232, 232); stroke-opacity: 1; stroke-width: 1px;"/><path class="ygrid crisp" transform="translate(0,136.7)" d="M57,0h292" style="stroke: rgb(232, 232, 232); stroke-opacity: 1; stroke-width: 1px;"/><path class="ygrid crisp" transform="translate(0,100.5)" d="M57,0h292" style="stroke: rgb(232, 232, 232); stroke-opacity: 1; stroke-width: 1px;"/><path class="ygrid crisp" transform="translate(0,64.3)" d="M57,0h292" style="stroke: rgb(232, 232, 232); stroke-opacity: 1; stroke-width: 1px;"/><path class="ygrid crisp" transform="translate(0,28.1)" d="M57,0h292" style="stroke: rgb(232, 232, 232); stroke-opacity: 1; stroke-width: 1px;"/></g></g><g class="zerolinelayer"/><path class="xlines-below"/><path class="ylines-below"/><g class="overlines-below"/><g class="xaxislayer-below"/><g class="yaxislayer-below"/><g class="overaxes-below"/><g class="plot" transform="translate(57,10)" clip-path="url(#clip761bfaxyplot)"><g class="scatterlayer mlayer"><g class="trace scatter tracec7548b" style="stroke-miterlimit: 2; opacity: 1;"><g class="fills"/><g class="errorbars"/><g class="lines"/><g class="points"><path class="point" transform="translate(97.82,131.71)" d="M3,0A3,3 0 1,1 0,-3A3,3 0 0,1 3,0Z" style="opacity: 1; stroke-width: 0px; fill: rgb(31, 119, 180); fill-opacity: 1;"/><path class="point" transform="translate(55.48,150.25)" d="M3,0A3,3 0 1,1 0,-3A3,3 0 0,1 3,0Z" style="opacity: 1; stroke-width: 0px; fill: rgb(31, 119, 180); fill-opacity: 1;"/><path class="point" transform="translate(58.4,149.15)" d="M3,0A3,3 0 1,1 0,-3A3,3 0 0,1 3,0Z" style="opacity: 1; stroke-width: 0px; fill: rgb(31, 119, 180); fill-opacity: 1;"/><path class="point" transform="translate(68.62,147.08)" d="M3,0A3,3 0 1,1 0,-3A3,3 0 0,1 3,0Z" style="opacity: 1; stroke-width: 0px; fill: rgb(31, 119, 180); fill-opacity: 1;"/><path class="point" transform="translate(46.72,151.35)" d="M3,0A3,3 0 1,1 0,-3A3,3 0 0,1 3,0Z" style="opacity: 1; stroke-width: 0px; fill: rgb(31, 119, 180); fill-opacity: 1;"/><path class="point" transform="translate(61.32,151.06)" d="M3,0A3,3 0 1,1 0,-3A3,3 0 0,1 3,0Z" style="opacity: 1; stroke-width: 0px; fill: rgb(31, 119, 180); fill-opacity: 1;"/><path class="point" transform="translate(58.4,144.58)" d="M3,0A3,3 0 1,1 0,-3A3,3 0 0,1 3,0Z" style="opacity: 1; stroke-width: 0px; fill: rgb(31, 119, 180); fill-opacity: 1;"/><path class="point" transform="translate(256.96,32.85)" d="M3,0A3,3 0 1,1 0,-3A3,3 0 0,1 3,0Z" style="opacity: 1; stroke-width: 0px; fill: rgb(31, 119, 180); fill-opacity: 1;"/><path class="point" transform="translate(65.7,145.42)" d="M3,0A3,3 0 1,1 0,-3A3,3 0 0,1 3,0Z" style="opacity: 1; stroke-width: 0px; fill: rgb(31, 119, 180); fill-opacity: 1;"/><path class="point" transform="translate(39.42,153.14)" d="M3,0A3,3 0 1,1 0,-3A3,3 0 0,1 3,0Z" style="opacity: 1; stroke-width: 0px; fill: rgb(31, 119, 180); fill-opacity: 1;"/><path class="point" transform="translate(42.34,159.31)" d="M3,0A3,3 0 1,1 0,-3A3,3 0 0,1 3,0Z" style="opacity: 1; stroke-width: 0px; fill: rgb(31, 119, 180); fill-opacity: 1;"/><path class="point" transform="translate(182.5,83.75)" d="M3,0A3,3 0 1,1 0,-3A3,3 0 0,1 3,0Z" style="opacity: 1; stroke-width: 0px; fill: rgb(31, 119, 180); fill-opacity: 1;"/><path class="point" transform="translate(21.9,159.28)" d="M3,0A3,3 0 1,1 0,-3A3,3 0 0,1 3,0Z" style="opacity: 1; stroke-width: 0px; fill: rgb(31, 119, 180); fill-opacity: 1;"/><path class="point" transform="translate(64.24,152.3)" d="M3,0A3,3 0 1,1 0,-3A3,3 0 0,1 3,0Z" style="opacity: 1; stroke-width: 0px; fill: rgb(31, 119, 180); fill-opacity: 1;"/><path class="point" transform="translate(36.5,158.43)" d="M3,0A3,3 0 1,1 0,-3A3,3 0 0,1 3,0Z" style="opacity: 1; stroke-width: 0px; fill: rgb(31, 119, 180); fill-opacity: 1;"/><path class="point" transform="translate(42.34,154.92)" d="M3,0A3,3 0 1,1 0,-3A3,3 0 0,1 3,0Z" style="opacity: 1; stroke-width: 0px; fill: rgb(31, 119, 180); fill-opacity: 1;"/><path class="point" transform="translate(46.72,153.43)" d="M3,0A3,3 0 1,1 0,-3A3,3 0 0,1 3,0Z" style="opacity: 1; stroke-width: 0px; fill: rgb(31, 119, 180); fill-opacity: 1;"/><path class="point" transform="translate(46.72,153.74)" d="M3,0A3,3 0 1,1 0,-3A3,3 0 0,1 3,0Z" style="opacity: 1; stroke-width: 0px; fill: rgb(31, 119, 180); fill-opacity: 1;"/><path class="point" transform="translate(45.26,152.82)" d="M3,0A3,3 0 1,1 0,-3A3,3 0 0,1 3,0Z" style="opacity: 1; stroke-width: 0px; fill: rgb(31, 119, 180); fill-opacity: 1;"/><path class="point" transform="translate(51.1,152.68)" d="M3,0A3,3 0 1,1 0,-3A3,3 0 0,1 3,0Z" style="opacity: 1; stroke-width: 0px; fill: rgb(31, 119, 180); fill-opacity: 1;"/><path class="point" transform="translate(46.72,153.14)" d="M3,0A3,3 0 1,1 0,-3A3,3 0 0,1 3,0Z" style="opacity: 1; stroke-width: 0px; fill: rgb(31, 119, 180); fill-opacity: 1;"/><path class="point" transform="translate(29.2,161.54)" d="M3,0A3,3 0 1,1 0,-3A3,3 0 0,1 3,0Z" style="opacity: 1; stroke-width: 0px; fill: rgb(31, 119, 180); fill-opacity: 1;"/><path class="point" transform="translate(33.58,159.22)" d="M3,0A3,3 0 1,1 0,-3A3,3 0 0,1 3,0Z" style="opacity: 1; stroke-width: 0px; fill: rgb(31, 119, 180); fill-opacity: 1;"/><path class="point" transform="translate(56.94,153.64)" d="M3,0A3,3 0 1,1 0,-3A3,3 0 0,1 3,0Z" style="opacity: 1; stroke-width: 0px; fill: rgb(31, 119, 180); fill-opacity: 1;"/><path class="point" transform="translate(54.02,145.33)" d="M3,0A3,3 0 1,1 0,-3A3,3 0 0,1 3,0Z" style="opacity: 1; stroke-width: 0px; fill: rgb(31, 119, 180); fill-opacity: 1;"/><path class="point" transform="translate(70.08,136.47)" d="M3,0A3,3 0 1,1 0,-3A3,3 0 0,1 3,0Z" style="opacity: 1; stroke-width: 0px; fill: rgb(31, 119, 180); fill-opacity: 1;"/><path class="point" transform="translate(62.78,139.06)" d="M3,0A3,3 0 1,1 0,-3A3,3 0 0,1 3,0Z" style="opacity: 1; stroke-width: 0px; fill: rgb(31, 119, 180); fill-opacity: 1;"/><path class="point" transform="translate(42.34,148.45)" d="M3,0A3,3 0 1,1 0,-3A3,3 0 0,1 3,0Z" style="opacity: 1; stroke-width: 0px; fill: rgb(31, 119, 180); fill-opacity: 1;"/><path class="point" transform="translate(51.1,149.81)" d="M3,0A3,3 0 1,1 0,-3A3,3 0 0,1 3,0Z" style="opacity: 1; stroke-width: 0px; fill: rgb(31, 119, 180); fill-opacity: 1;"/><path class="point" transform="translate(46.72,153.4)" d="M3,0A3,3 0 1,1 0,-3A3,3 0 0,1 3,0Z" style="opacity: 1; stroke-width: 0px; fill: rgb(31, 119, 180); fill-opacity: 1;"/><path class="point" transform="translate(58.4,143.1)" d="M3,0A3,3 0 1,1 0,-3A3,3 0 0,1 3,0Z" style="opacity: 1; stroke-width: 0px; fill: rgb(31, 119, 180); fill-opacity: 1;"/><path class="point" transform="translate(65.7,139.04)" d="M3,0A3,3 0 1,1 0,-3A3,3 0 0,1 3,0Z" style="opacity: 1; stroke-width: 0px; fill: rgb(31, 119, 180); fill-opacity: 1;"/><path class="point" transform="translate(109.5,113.13)" d="M3,0A3,3 0 1,1 0,-3A3,3 0 0,1 3,0Z" style="opacity: 1; stroke-width: 0px; fill: rgb(31, 119, 180); fill-opacity: 1;"/><path class="point" transform="translate(236.52,23.26)" d="M3,0A3,3 0 1,1 0,-3A3,3 0 0,1 3,0Z" style="opacity: 1; stroke-width: 0px; fill: rgb(31, 119, 180); fill-opacity: 1;"/><path class="point" transform="translate(35.04,155.16)" d="M3,0A3,3 0 1,1 0,-3A3,3 0 0,1 3,0Z" style="opacity: 1; stroke-width: 0px; fill: rgb(31, 119, 180); fill-opacity: 1;"/><path class="point" transform="translate(29.2,158.54)" d="M3,0A3,3 0 1,1 0,-3A3,3 0 0,1 3,0Z" style="opacity: 1; stroke-width: 0px; fill: rgb(31, 119, 180); fill-opacity: 1;"/><path class="point" transform="translate(40.88,154)" d="M3,0A3,3 0 1,1 0,-3A3,3 0 0,1 3,0Z" style="opacity: 1; stroke-width: 0px; fill: rgb(31, 119, 180); fill-opacity: 1;"/><path class="point" transform="translate(58.4,152.91)" d="M3,0A3,3 0 1,1 0,-3A3,3 0 0,1 3,0Z" style="opacity: 1; stroke-width: 0px; fill: rgb(31, 119, 180); fill-opacity: 1;"/><path class="point" transform="translate(83.22,117.59)" d="M3,0A3,3 0 1,1 0,-3A3,3 0 0,1 3,0Z" style="opacity: 1; stroke-width: 0px; fill: rgb(31, 119, 180); fill-opacity: 1;"/><path class="point" transform="translate(862.86,-321.29)" d="M3,0A3,3 0 1,1 0,-3A3,3 0 0,1 3,0Z" style="opacity: 1; stroke-width: 0px; fill: rgb(31, 119, 180); fill-opacity: 1;"/><path class="point" transform="translate(576.7,-160.3)" d="M3,0A3,3 0 1,1 0,-3A3,3 0 0,1 3,0Z" style="opacity: 1; stroke-width: 0px; fill: rgb(31, 119, 180); fill-opacity: 1;"/><path class="point" transform="translate(769.42,-250.63)" d="M3,0A3,3 0 1,1 0,-3A3,3 0 0,1 3,0Z" style="opacity: 1; stroke-width: 0px; fill: rgb(31, 119, 180); fill-opacity: 1;"/><path class="point" transform="translate(876,-284.04)" d="M3,0A3,3 0 1,1 0,-3A3,3 0 0,1 3,0Z" style="opacity: 1; stroke-width: 0px; fill: rgb(31, 119, 180); fill-opacity: 1;"/><path class="point" transform="translate(121.18,97.41)" d="M3,0A3,3 0 1,1 0,-3A3,3 0 0,1 3,0Z" style="opacity: 1; stroke-width: 0px; fill: rgb(31, 119, 180); fill-opacity: 1;"/><path class="point" transform="translate(70.08,134.29)" d="M3,0A3,3 0 1,1 0,-3A3,3 0 0,1 3,0Z" style="opacity: 1; stroke-width: 0px; fill: rgb(31, 119, 180); fill-opacity: 1;"/><path class="point" transform="translate(65.7,137.62)" d="M3,0A3,3 0 1,1 0,-3A3,3 0 0,1 3,0Z" style="opacity: 1; stroke-width: 0px; fill: rgb(31, 119, 180); fill-opacity: 1;"/><path class="point" transform="translate(83.22,134.53)" d="M3,0A3,3 0 1,1 0,-3A3,3 0 0,1 3,0Z" style="opacity: 1; stroke-width: 0px; fill: rgb(31, 119, 180); fill-opacity: 1;"/><path class="point" transform="translate(32.12,154.31)" d="M3,0A3,3 0 1,1 0,-3A3,3 0 0,1 3,0Z" style="opacity: 1; stroke-width: 0px; fill: rgb(31, 119, 180); fill-opacity: 1;"/><path class="point" transform="translate(40.88,151.12)" d="M3,0A3,3 0 1,1 0,-3A3,3 0 0,1 3,0Z" style="opacity: 1; stroke-width: 0px; fill: rgb(31, 119, 180); fill-opacity: 1;"/><path class="point" transform="translate(33.58,150.28)" d="M3,0A3,3 0 1,1 0,-3A3,3 0 0,1 3,0Z" style="opacity: 1; stroke-width: 0px; fill: rgb(31, 119, 180); fill-opacity: 1;"/><path class="point" transform="translate(11.68,161.71)" d="M3,0A3,3 0 1,1 0,-3A3,3 0 0,1 3,0Z" style="opacity: 1; stroke-width: 0px; fill: rgb(31, 119, 180); fill-opacity: 1;"/><path class="point" transform="translate(23.36,158.93)" d="M3,0A3,3 0 1,1 0,-3A3,3 0 0,1 3,0Z" style="opacity: 1; stroke-width: 0px; fill: rgb(31, 119, 180); fill-opacity: 1;"/><path class="point" transform="translate(23.36,158.54)" d="M3,0A3,3 0 1,1 0,-3A3,3 0 0,1 3,0Z" style="opacity: 1; stroke-width: 0px; fill: rgb(31, 119, 180); fill-opacity: 1;"/><path class="point" transform="translate(39.42,154.46)" d="M3,0A3,3 0 1,1 0,-3A3,3 0 0,1 3,0Z" style="opacity: 1; stroke-width: 0px; fill: rgb(31, 119, 180); fill-opacity: 1;"/><path class="point" transform="translate(61.32,148.36)" d="M3,0A3,3 0 1,1 0,-3A3,3 0 0,1 3,0Z" style="opacity: 1; stroke-width: 0px; fill: rgb(31, 119, 180); fill-opacity: 1;"/><path class="point" transform="translate(52.56,146.9)" d="M3,0A3,3 0 1,1 0,-3A3,3 0 0,1 3,0Z" style="opacity: 1; stroke-width: 0px; fill: rgb(31, 119, 180); fill-opacity: 1;"/><path class="point" transform="translate(91.98,130.98)" d="M3,0A3,3 0 1,1 0,-3A3,3 0 0,1 3,0Z" style="opacity: 1; stroke-width: 0px; fill: rgb(31, 119, 180); fill-opacity: 1;"/><path class="point" transform="translate(110.96,120.07)" d="M3,0A3,3 0 1,1 0,-3A3,3 0 0,1 3,0Z" style="opacity: 1; stroke-width: 0px; fill: rgb(31, 119, 180); fill-opacity: 1;"/><path class="point" transform="translate(74.46,136.84)" d="M3,0A3,3 0 1,1 0,-3A3,3 0 0,1 3,0Z" style="opacity: 1; stroke-width: 0px; fill: rgb(31, 119, 180); fill-opacity: 1;"/><path class="point" transform="translate(54.02,150)" d="M3,0A3,3 0 1,1 0,-3A3,3 0 0,1 3,0Z" style="opacity: 1; stroke-width: 0px; fill: rgb(31, 119, 180); fill-opacity: 1;"/><path class="point" transform="translate(56.94,150.23)" d="M3,0A3,3 0 1,1 0,-3A3,3 0 0,1 3,0Z" style="opacity: 1; stroke-width: 0px; fill: rgb(31, 119, 180); fill-opacity: 1;"/><path class="point" transform="translate(54.02,147.3)" d="M3,0A3,3 0 1,1 0,-3A3,3 0 0,1 3,0Z" style="opacity: 1; stroke-width: 0px; fill: rgb(31, 119, 180); fill-opacity: 1;"/><path class="point" transform="translate(43.8,151.49)" d="M3,0A3,3 0 1,1 0,-3A3,3 0 0,1 3,0Z" style="opacity: 1; stroke-width: 0px; fill: rgb(31, 119, 180); fill-opacity: 1;"/><path class="point" transform="translate(61.32,148.98)" d="M3,0A3,3 0 1,1 0,-3A3,3 0 0,1 3,0Z" style="opacity: 1; stroke-width: 0px; fill: rgb(31, 119, 180); fill-opacity: 1;"/><path class="point" transform="translate(80.3,138.79)" d="M3,0A3,3 0 1,1 0,-3A3,3 0 0,1 3,0Z" style="opacity: 1; stroke-width: 0px; fill: rgb(31, 119, 180); fill-opacity: 1;"/><path class="point" transform="translate(172.28,84.61)" d="M3,0A3,3 0 1,1 0,-3A3,3 0 0,1 3,0Z" style="opacity: 1; stroke-width: 0px; fill: rgb(31, 119, 180); fill-opacity: 1;"/><path class="point" transform="translate(97.82,129.37)" d="M3,0A3,3 0 1,1 0,-3A3,3 0 0,1 3,0Z" style="opacity: 1; stroke-width: 0px; fill: rgb(31, 119, 180); fill-opacity: 1;"/><path class="point" transform="translate(73,148.08)" d="M3,0A3,3 0 1,1 0,-3A3,3 0 0,1 3,0Z" style="opacity: 1; stroke-width: 0px; fill: rgb(31, 119, 180); fill-opacity: 1;"/><path class="point" transform="translate(52.56,154.54)" d="M3,0A3,3 0 1,1 0,-3A3,3 0 0,1 3,0Z" style="opacity: 1; stroke-width: 0px; fill: rgb(31, 119, 180); fill-opacity: 1;"/><path class="point" transform="translate(43.8,154.84)" d="M3,0A3,3 0 1,1 0,-3A3,3 0 0,1 3,0Z" style="opacity: 1; stroke-width: 0px; fill: rgb(31, 119, 180); fill-opacity: 1;"/><path class="point" transform="translate(67.16,147.66)" d="M3,0A3,3 0 1,1 0,-3A3,3 0 0,1 3,0Z" style="opacity: 1; stroke-width: 0px; fill: rgb(31, 119, 180); fill-opacity: 1;"/><path class="point" transform="translate(94.9,134.56)" d="M3,0A3,3 0 1,1 0,-3A3,3 0 0,1 3,0Z" style="opacity: 1; stroke-width: 0px; fill: rgb(31, 119, 180); fill-opacity: 1;"/><path class="point" transform="translate(100.74,133.47)" d="M3,0A3,3 0 1,1 0,-3A3,3 0 0,1 3,0Z" style="opacity: 1; stroke-width: 0px; fill: rgb(31, 119, 180); fill-opacity: 1;"/><path class="point" transform="translate(58.4,151.25)" d="M3,0A3,3 0 1,1 0,-3A3,3 0 0,1 3,0Z" style="opacity: 1; stroke-width: 0px; fill: rgb(31, 119, 180); fill-opacity: 1;"/><path class="point" transform="translate(97.82,136.39)" d="M3,0A3,3 0 1,1 0,-3A3,3 0 0,1 3,0Z" style="opacity: 1; stroke-width: 0px; fill: rgb(31, 119, 180); fill-opacity: 1;"/><path class="point" transform="translate(61.32,143.79)" d="M3,0A3,3 0 1,1 0,-3A3,3 0 0,1 3,0Z" style="opacity: 1; stroke-width: 0px; fill: rgb(31, 119, 180); fill-opacity: 1;"/><path class="point" transform="translate(46.72,151.8)" d="M3,0A3,3 0 1,1 0,-3A3,3 0 0,1 3,0Z" style="opacity: 1; stroke-width: 0px; fill: rgb(31, 119, 180); fill-opacity: 1;"/><path class="point" transform="translate(65.7,153.33)" d="M3,0A3,3 0 1,1 0,-3A3,3 0 0,1 3,0Z" style="opacity: 1; stroke-width: 0px; fill: rgb(31, 119, 180); fill-opacity: 1;"/><path class="point" transform="translate(182.5,92.22)" d="M3,0A3,3 0 1,1 0,-3A3,3 0 0,1 3,0Z" style="opacity: 1; stroke-width: 0px; fill: rgb(31, 119, 180); fill-opacity: 1;"/><path class="point" transform="translate(227.76,46.16)" d="M3,0A3,3 0 1,1 0,-3A3,3 0 0,1 3,0Z" style="opacity: 1; stroke-width: 0px; fill: rgb(31, 119, 180); fill-opacity: 1;"/><path class="point" transform="translate(175.2,71.9)" d="M3,0A3,3 0 1,1 0,-3A3,3 0 0,1 3,0Z" style="opacity: 1; stroke-width: 0px; fill: rgb(31, 119, 180); fill-opacity: 1;"/><path class="point" transform="translate(80.3,137.47)" d="M3,0A3,3 0 1,1 0,-3A3,3 0 0,1 3,0Z" style="opacity: 1; stroke-width: 0px; fill: rgb(31, 119, 180); fill-opacity: 1;"/><path class="point" transform="translate(39.42,154.46)" d="M3,0A3,3 0 1,1 0,-3A3,3 0 0,1 3,0Z" style="opacity: 1; stroke-width: 0px; fill: rgb(31, 119, 180); fill-opacity: 1;"/><path class="point" transform="translate(23.36,153.82)" d="M3,0A3,3 0 1,1 0,-3A3,3 0 0,1 3,0Z" style="opacity: 1; stroke-width: 0px; fill: rgb(31, 119, 180); fill-opacity: 1;"/><path class="point" transform="translate(37.96,156.68)" d="M3,0A3,3 0 1,1 0,-3A3,3 0 0,1 3,0Z" style="opacity: 1; stroke-width: 0px; fill: rgb(31, 119, 180); fill-opacity: 1;"/><path class="point" transform="translate(10.22,162.24)" d="M3,0A3,3 0 1,1 0,-3A3,3 0 0,1 3,0Z" style="opacity: 1; stroke-width: 0px; fill: rgb(31, 119, 180); fill-opacity: 1;"/><path class="point" transform="translate(33.58,154.3)" d="M3,0A3,3 0 1,1 0,-3A3,3 0 0,1 3,0Z" style="opacity: 1; stroke-width: 0px; fill: rgb(31, 119, 180); fill-opacity: 1;"/><path class="point" transform="translate(67.16,147.52)" d="M3,0A3,3 0 1,1 0,-3A3,3 0 0,1 3,0Z" style="opacity: 1; stroke-width: 0px; fill: rgb(31, 119, 180); fill-opacity: 1;"/><path class="point" transform="translate(51.1,152.16)" d="M3,0A3,3 0 1,1 0,-3A3,3 0 0,1 3,0Z" style="opacity: 1; stroke-width: 0px; fill: rgb(31, 119, 180); fill-opacity: 1;"/><path class="point" transform="translate(17.52,157.97)" d="M3,0A3,3 0 1,1 0,-3A3,3 0 0,1 3,0Z" style="opacity: 1; stroke-width: 0px; fill: rgb(31, 119, 180); fill-opacity: 1;"/><path class="point" transform="translate(24.82,158.39)" d="M3,0A3,3 0 1,1 0,-3A3,3 0 0,1 3,0Z" style="opacity: 1; stroke-width: 0px; fill: rgb(31, 119, 180); fill-opacity: 1;"/><path class="point" transform="translate(67.16,147.02)" d="M3,0A3,3 0 1,1 0,-3A3,3 0 0,1 3,0Z" style="opacity: 1; stroke-width: 0px; fill: rgb(31, 119, 180); fill-opacity: 1;"/><path class="point" transform="translate(70.08,148.28)" d="M3,0A3,3 0 1,1 0,-3A3,3 0 0,1 3,0Z" style="opacity: 1; stroke-width: 0px; fill: rgb(31, 119, 180); fill-opacity: 1;"/><path class="point" transform="translate(62.78,149.01)" d="M3,0A3,3 0 1,1 0,-3A3,3 0 0,1 3,0Z" style="opacity: 1; stroke-width: 0px; fill: rgb(31, 119, 180); fill-opacity: 1;"/><path class="point" transform="translate(35.04,155.14)" d="M3,0A3,3 0 1,1 0,-3A3,3 0 0,1 3,0Z" style="opacity: 1; stroke-width: 0px; fill: rgb(31, 119, 180); fill-opacity: 1;"/><path class="point" transform="translate(64.24,152.91)" d="M3,0A3,3 0 1,1 0,-3A3,3 0 0,1 3,0Z" style="opacity: 1; stroke-width: 0px; fill: rgb(31, 119, 180); fill-opacity: 1;"/><path class="point" transform="translate(58.4,150.25)" d="M3,0A3,3 0 1,1 0,-3A3,3 0 0,1 3,0Z" style="opacity: 1; stroke-width: 0px; fill: rgb(31, 119, 180); fill-opacity: 1;"/><path class="point" transform="translate(64.24,149.15)" d="M3,0A3,3 0 1,1 0,-3A3,3 0 0,1 3,0Z" style="opacity: 1; stroke-width: 0px; fill: rgb(31, 119, 180); fill-opacity: 1;"/><path class="point" transform="translate(37.96,153.14)" d="M3,0A3,3 0 1,1 0,-3A3,3 0 0,1 3,0Z" style="opacity: 1; stroke-width: 0px; fill: rgb(31, 119, 180); fill-opacity: 1;"/><path class="point" transform="translate(32.12,160.36)" d="M3,0A3,3 0 1,1 0,-3A3,3 0 0,1 3,0Z" style="opacity: 1; stroke-width: 0px; fill: rgb(31, 119, 180); fill-opacity: 1;"/><path class="point" transform="translate(54.02,153.64)" d="M3,0A3,3 0 1,1 0,-3A3,3 0 0,1 3,0Z" style="opacity: 1; stroke-width: 0px; fill: rgb(31, 119, 180); fill-opacity: 1;"/><path class="point" transform="translate(33.58,152.3)" d="M3,0A3,3 0 1,1 0,-3A3,3 0 0,1 3,0Z" style="opacity: 1; stroke-width: 0px; fill: rgb(31, 119, 180); fill-opacity: 1;"/><path class="point" transform="translate(49.64,153.43)" d="M3,0A3,3 0 1,1 0,-3A3,3 0 0,1 3,0Z" style="opacity: 1; stroke-width: 0px; fill: rgb(31, 119, 180); fill-opacity: 1;"/><path class="point" transform="translate(5.84,152.68)" d="M3,0A3,3 0 1,1 0,-3A3,3 0 0,1 3,0Z" style="opacity: 1; stroke-width: 0px; fill: rgb(31, 119, 180); fill-opacity: 1;"/><path class="point" transform="translate(33.58,158.54)" d="M3,0A3,3 0 1,1 0,-3A3,3 0 0,1 3,0Z" style="opacity: 1; stroke-width: 0px; fill: rgb(31, 119, 180); fill-opacity: 1;"/><path class="point" transform="translate(87.6,136.47)" d="M3,0A3,3 0 1,1 0,-3A3,3 0 0,1 3,0Z" style="opacity: 1; stroke-width: 0px; fill: rgb(31, 119, 180); fill-opacity: 1;"/><path class="point" transform="translate(43.8,157.03)" d="M3,0A3,3 0 1,1 0,-3A3,3 0 0,1 3,0Z" style="opacity: 1; stroke-width: 0px; fill: rgb(31, 119, 180); fill-opacity: 1;"/><path class="point" transform="translate(58.4,143.1)" d="M3,0A3,3 0 1,1 0,-3A3,3 0 0,1 3,0Z" style="opacity: 1; stroke-width: 0px; fill: rgb(31, 119, 180); fill-opacity: 1;"/><path class="point" transform="translate(236.52,23.26)" d="M3,0A3,3 0 1,1 0,-3A3,3 0 0,1 3,0Z" style="opacity: 1; stroke-width: 0px; fill: rgb(31, 119, 180); fill-opacity: 1;"/><path class="point" transform="translate(779.64,-250.63)" d="M3,0A3,3 0 1,1 0,-3A3,3 0 0,1 3,0Z" style="opacity: 1; stroke-width: 0px; fill: rgb(31, 119, 180); fill-opacity: 1;"/><path class="point" transform="translate(74.46,134.29)" d="M3,0A3,3 0 1,1 0,-3A3,3 0 0,1 3,0Z" style="opacity: 1; stroke-width: 0px; fill: rgb(31, 119, 180); fill-opacity: 1;"/><path class="point" transform="translate(30.66,154.31)" d="M3,0A3,3 0 1,1 0,-3A3,3 0 0,1 3,0Z" style="opacity: 1; stroke-width: 0px; fill: rgb(31, 119, 180); fill-opacity: 1;"/><path class="point" transform="translate(20.44,161.71)" d="M3,0A3,3 0 1,1 0,-3A3,3 0 0,1 3,0Z" style="opacity: 1; stroke-width: 0px; fill: rgb(31, 119, 180); fill-opacity: 1;"/><path class="point" transform="translate(62.78,148.36)" d="M3,0A3,3 0 1,1 0,-3A3,3 0 0,1 3,0Z" style="opacity: 1; stroke-width: 0px; fill: rgb(31, 119, 180); fill-opacity: 1;"/><path class="point" transform="translate(99.28,130.98)" d="M3,0A3,3 0 1,1 0,-3A3,3 0 0,1 3,0Z" style="opacity: 1; stroke-width: 0px; fill: rgb(31, 119, 180); fill-opacity: 1;"/><path class="point" transform="translate(58.4,150)" d="M3,0A3,3 0 1,1 0,-3A3,3 0 0,1 3,0Z" style="opacity: 1; stroke-width: 0px; fill: rgb(31, 119, 180); fill-opacity: 1;"/><path class="point" transform="translate(40.88,151.49)" d="M3,0A3,3 0 1,1 0,-3A3,3 0 0,1 3,0Z" style="opacity: 1; stroke-width: 0px; fill: rgb(31, 119, 180); fill-opacity: 1;"/><path class="point" transform="translate(175.2,84.61)" d="M3,0A3,3 0 1,1 0,-3A3,3 0 0,1 3,0Z" style="opacity: 1; stroke-width: 0px; fill: rgb(31, 119, 180); fill-opacity: 1;"/><path class="point" transform="translate(45.26,154.84)" d="M3,0A3,3 0 1,1 0,-3A3,3 0 0,1 3,0Z" style="opacity: 1; stroke-width: 0px; fill: rgb(31, 119, 180); fill-opacity: 1;"/><path class="point" transform="translate(100.74,133.47)" d="M3,0A3,3 0 1,1 0,-3A3,3 0 0,1 3,0Z" style="opacity: 1; stroke-width: 0px; fill: rgb(31, 119, 180); fill-opacity: 1;"/><path class="point" transform="translate(93.44,136.39)" d="M3,0A3,3 0 1,1 0,-3A3,3 0 0,1 3,0Z" style="opacity: 1; stroke-width: 0px; fill: rgb(31, 119, 180); fill-opacity: 1;"/><path class="point" transform="translate(179.58,71.9)" d="M3,0A3,3 0 1,1 0,-3A3,3 0 0,1 3,0Z" style="opacity: 1; stroke-width: 0px; fill: rgb(31, 119, 180); fill-opacity: 1;"/><path class="point" transform="translate(7.3,162.24)" d="M3,0A3,3 0 1,1 0,-3A3,3 0 0,1 3,0Z" style="opacity: 1; stroke-width: 0px; fill: rgb(31, 119, 180); fill-opacity: 1;"/><path class="point" transform="translate(21.9,157.97)" d="M3,0A3,3 0 1,1 0,-3A3,3 0 0,1 3,0Z" style="opacity: 1; stroke-width: 0px; fill: rgb(31, 119, 180); fill-opacity: 1;"/><path class="point" transform="translate(58.4,147.02)" d="M3,0A3,3 0 1,1 0,-3A3,3 0 0,1 3,0Z" style="opacity: 1; stroke-width: 0px; fill: rgb(31, 119, 180); fill-opacity: 1;"/><path class="point" transform="translate(27.74,155.14)" d="M3,0A3,3 0 1,1 0,-3A3,3 0 0,1 3,0Z" style="opacity: 1; stroke-width: 0px; fill: rgb(31, 119, 180); fill-opacity: 1;"/></g><g class="text"/></g><g class="trace scatter trace179b20" style="stroke-miterlimit: 2; opacity: 1;"><g class="fills"/><g class="errorbars"/><g class="lines"><path class="js-line" d="M5.84,174.77L876,-309" style="vector-effect: non-scaling-stroke; fill: none; stroke: rgb(255, 127, 14); stroke-opacity: 1; stroke-width: 2px; opacity: 1;"/></g><g class="points"/><g class="text"/></g></g></g><g class="overplot"/><path class="xlines-above crisp" d="M56,191.5H349" style="fill: none; stroke-width: 1px; stroke: rgb(36, 36, 36); stroke-opacity: 1;"/><path class="ylines-above crisp" d="M56.5,10V191" style="fill: none; stroke-width: 1px; stroke: rgb(36, 36, 36); stroke-opacity: 1;"/><g class="overlines-above"/><g class="xaxislayer-above"><path class="xtick ticks crisp" d="M0,192v5" transform="translate(57,0)" style="stroke: rgb(68, 68, 68); stroke-opacity: 1; stroke-width: 1px;"/><path class="xtick ticks crisp" d="M0,192v5" transform="translate(130,0)" style="stroke: rgb(68, 68, 68); stroke-opacity: 1; stroke-width: 1px;"/><path class="xtick ticks crisp" d="M0,192v5" transform="translate(203,0)" style="stroke: rgb(68, 68, 68); stroke-opacity: 1; stroke-width: 1px;"/><path class="xtick ticks crisp" d="M0,192v5" transform="translate(276,0)" style="stroke: rgb(68, 68, 68); stroke-opacity: 1; stroke-width: 1px;"/><path class="xtick ticks crisp" d="M0,192v5" transform="translate(349,0)" style="stroke: rgb(68, 68, 68); stroke-opacity: 1; stroke-width: 1px;"/><g class="xtick"><text text-anchor="middle" x="0" y="211.4" transform="translate(57,0)" style="font-family: 'Open Sans', verdana, arial, sans-serif; font-size: 12px; fill: rgb(36, 36, 36); fill-opacity: 1; white-space: pre; opacity: 1;">0</text></g><g class="xtick"><text text-anchor="middle" x="0" y="211.4" style="font-family: 'Open Sans', verdana, arial, sans-serif; font-size: 12px; fill: rgb(36, 36, 36); fill-opacity: 1; white-space: pre; opacity: 1;" transform="translate(130,0)">5</text></g><g class="xtick"><text text-anchor="middle" x="0" y="211.4" style="font-family: 'Open Sans', verdana, arial, sans-serif; font-size: 12px; fill: rgb(36, 36, 36); fill-opacity: 1; white-space: pre; opacity: 1;" transform="translate(203,0)">10</text></g><g class="xtick"><text text-anchor="middle" x="0" y="211.4" style="font-family: 'Open Sans', verdana, arial, sans-serif; font-size: 12px; fill: rgb(36, 36, 36); fill-opacity: 1; white-space: pre; opacity: 1;" transform="translate(276,0)">15</text></g><g class="xtick"><text text-anchor="middle" x="0" y="211.4" style="font-family: 'Open Sans', verdana, arial, sans-serif; font-size: 12px; fill: rgb(36, 36, 36); fill-opacity: 1; white-space: pre; opacity: 1;" transform="translate(349,0)">20</text></g></g><g class="yaxislayer-above"><path class="ytick ticks crisp" d="M56,0h-5" transform="translate(0,172.9)" style="stroke: rgb(68, 68, 68); stroke-opacity: 1; stroke-width: 1px;"/><path class="ytick ticks crisp" d="M56,0h-5" transform="translate(0,136.7)" style="stroke: rgb(68, 68, 68); stroke-opacity: 1; stroke-width: 1px;"/><path class="ytick ticks crisp" d="M56,0h-5" transform="translate(0,100.5)" style="stroke: rgb(68, 68, 68); stroke-opacity: 1; stroke-width: 1px;"/><path class="ytick ticks crisp" d="M56,0h-5" transform="translate(0,64.3)" style="stroke: rgb(68, 68, 68); stroke-opacity: 1; stroke-width: 1px;"/><path class="ytick ticks crisp" d="M56,0h-5" transform="translate(0,28.1)" style="stroke: rgb(68, 68, 68); stroke-opacity: 1; stroke-width: 1px;"/><g class="ytick"><text text-anchor="end" x="48.6" y="4.199999999999999" transform="translate(0,172.9)" style="font-family: 'Open Sans', verdana, arial, sans-serif; font-size: 12px; fill: rgb(36, 36, 36); fill-opacity: 1; white-space: pre; opacity: 1;">0</text></g><g class="ytick"><text text-anchor="end" x="48.6" y="4.199999999999999" style="font-family: 'Open Sans', verdana, arial, sans-serif; font-size: 12px; fill: rgb(36, 36, 36); fill-opacity: 1; white-space: pre; opacity: 1;" transform="translate(0,136.7)">10</text></g><g class="ytick"><text text-anchor="end" x="48.6" y="4.199999999999999" style="font-family: 'Open Sans', verdana, arial, sans-serif; font-size: 12px; fill: rgb(36, 36, 36); fill-opacity: 1; white-space: pre; opacity: 1;" transform="translate(0,100.5)">20</text></g><g class="ytick"><text text-anchor="end" x="48.6" y="4.199999999999999" style="font-family: 'Open Sans', verdana, arial, sans-serif; font-size: 12px; fill: rgb(36, 36, 36); fill-opacity: 1; white-space: pre; opacity: 1;" transform="translate(0,64.3)">30</text></g><g class="ytick"><text text-anchor="end" x="48.6" y="4.199999999999999" style="font-family: 'Open Sans', verdana, arial, sans-serif; font-size: 12px; fill: rgb(36, 36, 36); fill-opacity: 1; white-space: pre; opacity: 1;" transform="translate(0,28.1)">40</text></g></g><g class="overaxes-above"/></g></g><g class="polarlayer"/><g class="smithlayer"/><g class="ternarylayer"/><g class="geolayer"/><g class="funnelarealayer"/><g class="pielayer"/><g class="iciclelayer"/><g class="treemaplayer"/><g class="sunburstlayer"/><g class="glimages"/><defs id="topdefs-761bfa"><g class="clips"/><clipPath id="legend761bfa"><rect width="85" height="29" x="0" y="0"/></clipPath></defs><g class="layer-above"><g class="imagelayer"/><g class="shapelayer"/></g><g class="infolayer"><g class="legend" pointer-events="all" transform="translate(354.84000000000003,10)"><rect class="bg" shape-rendering="crispEdges" width="85" height="29" x="0" y="0" style="stroke: rgb(68, 68, 68); stroke-opacity: 1; fill: rgb(255, 255, 255); fill-opacity: 1; stroke-width: 0px;"/><g class="scrollbox" transform="" clip-path="url(#legend761bfa)"><g class="groups"><g class="traces" transform="translate(0,14.5)" style="opacity: 1;"><text class="legendtext" text-anchor="start" x="40" y="4.680000000000001" style="font-family: 'Open Sans', verdana, arial, sans-serif; font-size: 12px; fill: rgb(36, 36, 36); fill-opacity: 1; white-space: pre;">Predict</text><g class="layers" style="opacity: 1;"><g class="legendfill"/><g class="legendlines"><path class="js-line" d="M5,0h30" style="fill: none; stroke: rgb(255, 127, 14); stroke-opacity: 1; stroke-width: 2px;"/></g><g class="legendsymbols"><g class="legendpoints"/></g></g><rect class="legendtoggle" x="0" y="-9.5" width="79.203125" height="19" style="fill: rgb(0, 0, 0); fill-opacity: 0;"/></g></g></g><rect class="scrollbar" rx="20" ry="3" width="0" height="0" x="0" y="0" style="fill: rgb(128, 139, 164); fill-opacity: 1;"/></g><g class="g-gtitle"/><g class="g-xtitle"><text class="xtitle" x="203" y="239.70625" text-anchor="middle" style="font-family: 'Open Sans', verdana, arial, sans-serif; font-size: 14px; fill: rgb(36, 36, 36); opacity: 1; font-weight: normal; white-space: pre;">pm25aqs</text></g><g class="g-ytitle" transform="translate(4.9248046875,0)"><text class="ytitle" transform="rotate(-90,10.075000000000003,100.5)" x="10.075000000000003" y="100.5" text-anchor="middle" style="font-family: 'Open Sans', verdana, arial, sans-serif; font-size: 14px; fill: rgb(36, 36, 36); opacity: 1; font-weight: normal; white-space: pre;">pm25pa</text></g></g></svg>