<svg class="main-svg" xmlns="http://www.w3.org/2000/svg" xmlns:xlink="http://www.w3.org/1999/xlink" width="400" height="250" style="" viewBox="0 0 400 250"><rect x="0" y="0" width="400" height="250" style="fill: rgb(255, 255, 255); fill-opacity: 1;"/><defs id="defs-c5042d"><g class="clips"><clipPath id="clipc5042dxyplot" class="plotclip"><rect width="358" height="206"/></clipPath><clipPath class="axesclip" id="clipc5042dx"><rect x="25" y="0" width="358" height="250"/></clipPath><clipPath class="axesclip" id="clipc5042dy"><rect x="0" y="10" width="400" height="206"/></clipPath><clipPath class="axesclip" id="clipc5042dxy"><rect x="25" y="10" width="358" height="206"/></clipPath></g><g class="gradients"/><g class="patterns"/></defs><g class="bglayer"/><g class="layer-below"><g class="imagelayer"/><g class="shapelayer"/></g><g class="cartesianlayer"><g class="subplot xy"><g class="layer-subplot"><g class="shapelayer"/><g class="imagelayer"/></g><g class="gridlayer"><g class="x"><path class="xgrid crisp" transform="translate(96.6,0)" d="M0,10v206" style="stroke: rgb(232, 232, 232); stroke-opacity: 1; stroke-width: 1px;"/><path class="xgrid crisp" transform="translate(168.2,0)" d="M0,10v206" style="stroke: rgb(232, 232, 232); stroke-opacity: 1; stroke-width: 1px;"/><path class="xgrid crisp" transform="translate(239.8,0)" d="M0,10v206" style="stroke: rgb(232, 232, 232); stroke-opacity: 1; stroke-width: 1px;"/><path class="xgrid crisp" transform="translate(311.4,0)" d="M0,10v206" style="stroke: rgb(232, 232, 232); stroke-opacity: 1; stroke-width: 1px;"/></g><g class="y"><path class="ygrid crisp" transform="translate(0,205.7)" d="M25,0h358" style="stroke: rgb(232, 232, 232); stroke-opacity: 1; stroke-width: 1px;"/><path class="ygrid crisp" transform="translate(0,168.56)" d="M25,0h358" style="stroke: rgb(232, 232, 232); stroke-opacity: 1; stroke-width: 1px;"/><path class="ygrid crisp" transform="translate(0,131.41)" d="M25,0h358" style="stroke: rgb(232, 232, 232); stroke-opacity: 1; stroke-width: 1px;"/><path class="ygrid crisp" transform="translate(0,94.27)" d="M25,0h358" style="stroke: rgb(232, 232, 232); stroke-opacity: 1; stroke-width: 1px;"/><path class="ygrid crisp" transform="translate(0,57.13)" d="M25,0h358" style="stroke: rgb(232, 232, 232); stroke-opacity: 1; stroke-width: 1px;"/><path class="ygrid crisp" transform="translate(0,19.990000000000002)" d="M25,0h358" style="stroke: rgb(232, 232, 232); stroke-opacity: 1; stroke-width: 1px;"/></g></g><g class="zerolinelayer"/><path class="xlines-below"/><path class="ylines-below"/><g class="overlines-below"/><g class="xaxislayer-below"/><g class="yaxislayer-below"/><g class="overaxes-below"/><g class="plot" transform="translate(25,10)" clip-path="url(#clipc5042dxyplot)"><g class="scatterlayer mlayer"><g class="trace scatter trace0b6baf" style="stroke-miterlimit: 2; opacity: 1;"><g class="fills"/><g class="errorbars"/><g class="lines"><path class="js-line" d="M0,195.7L18.08,172.1L21.7,167.79L32.55,156.27L36.16,152.99L43.39,147.41L47.01,145.15L54.24,141.73L57.86,140.59L65.09,139.43L68.71,139.4L75.94,140.41L79.56,141.4L90.4,146.09L94.02,148.13L108.48,157.81L112.1,160.43L130.18,172.82L133.8,174.9L144.65,179.75L148.26,180.8L155.49,181.95L159.11,181.99L166.34,180.99L169.96,179.92L177.19,176.65L180.81,174.46L188.04,169.03L191.66,165.81L202.51,154.45L206.12,150.18L220.59,131.55L224.2,126.68L245.9,98.64L249.52,94.5L260.36,83.62L263.98,80.59L271.21,75.57L274.83,73.6L282.06,70.78L285.68,69.93L292.91,69.37L296.53,69.63L303.76,71.16L307.37,72.4L318.22,77.69L321.84,79.88L339.92,92.5L343.54,95.1L358,104.48" style="vector-effect: non-scaling-stroke; fill: none; stroke: rgb(34, 32, 33); stroke-opacity: 1; stroke-width: 2px; opacity: 1; stroke-dasharray: 9px, 9px;"/></g><g class="points"/><g class="text"/></g><g class="trace scatter trace7882d5" style="stroke-miterlimit: 2; opacity: 1;"><g class="fills"/><g class="errorbars"/><g class="lines"><path class="js-line" d="M0,152.51L25.31,156.8L28.93,157.27L54.24,159.6L57.86,159.79L79.56,160.21L83.17,160.16L108.48,158.82L112.1,158.49L137.41,155.19L141.03,154.58L166.34,149.32L169.96,148.43L191.66,142.36L195.27,141.22L220.59,132.3L224.2,130.88L249.52,120L253.13,118.31L278.44,105.47L282.06,103.5L307.37,88.7L310.99,86.45L336.3,69.7L339.92,67.17L358,53.98" style="vector-effect: non-scaling-stroke; fill: none; stroke: rgb(153, 157, 160); stroke-opacity: 0.5; stroke-width: 2px; opacity: 1;"/></g><g class="points"/><g class="text"/></g><g class="trace scatter trace77303b" style="stroke-miterlimit: 2; opacity: 1;"><g class="fills"/><g class="errorbars"/><g class="lines"><path class="js-line" d="M0,175.48L28.93,174.38L32.55,174.13L61.47,171.31L65.09,170.85L94.02,166.3L97.64,165.62L126.57,159.35L130.18,158.46L159.11,150.46L162.73,149.36L191.66,139.64L195.27,138.32L224.2,126.87L227.82,125.34L260.36,110.42L263.98,108.64L292.91,93.56L296.53,91.56L325.45,74.76L329.07,72.55L358,54.02" style="vector-effect: non-scaling-stroke; fill: none; stroke: rgb(153, 157, 160); stroke-opacity: 0.5; stroke-width: 2px; opacity: 1;"/></g><g class="points"/><g class="text"/></g><g class="trace scatter tracef5aae7" style="stroke-miterlimit: 2; opacity: 1;"><g class="fills"/><g class="errorbars"/><g class="lines"><path class="js-line" d="M0,161.8L25.31,164.26L28.93,164.49L54.24,165.27L57.86,165.26L83.17,164.34L86.79,164.08L112.1,161.47L115.72,160.98L141.03,156.67L144.65,155.94L169.96,149.94L173.58,148.96L198.89,141.27L202.51,140.05L227.82,130.67L231.43,129.21L256.75,118.14L260.36,116.43L285.68,103.67L289.29,101.72L314.61,87.26L318.22,85.07L343.54,68.92L347.15,66.49L358,59.03" style="vector-effect: non-scaling-stroke; fill: none; stroke: rgb(153, 157, 160); stroke-opacity: 0.5; stroke-width: 2px; opacity: 1;"/></g><g class="points"/><g class="text"/></g><g class="trace scatter trace177dd7" style="stroke-miterlimit: 2; opacity: 1;"><g class="fills"/><g class="errorbars"/><g class="lines"><path class="js-line" d="M0,147.33L21.7,154.77L25.31,155.83L47.01,161.15L50.63,161.87L72.32,165.09L75.94,165.45L97.64,166.57L101.25,166.58L119.33,165.88L122.95,165.59L141.03,163.38L144.65,162.79L166.34,158.2L169.96,157.25L191.66,150.55L195.27,149.26L216.97,140.45L220.59,138.81L242.28,127.89L245.9,125.9L267.6,112.88L271.21,110.53L292.91,95.41L296.53,92.71L318.22,75.48L321.84,72.44L343.54,53.1L347.15,49.7L358,39.21" style="vector-effect: non-scaling-stroke; fill: none; stroke: rgb(153, 157, 160); stroke-opacity: 0.5; stroke-width: 2px; opacity: 1;"/></g><g class="points"/><g class="text"/></g><g class="trace scatter traceea4442" style="stroke-miterlimit: 2; opacity: 1;"><g class="fills"/><g class="errorbars"/><g class="lines"><path class="js-line" d="M0,171.11L32.55,167.81L36.16,167.36L72.32,162.07L75.94,161.45L112.1,154.46L115.72,153.68L151.88,145L155.49,144.04L191.66,133.66L195.27,132.54L231.43,120.46L235.05,119.17L271.21,105.4L274.83,103.94L314.61,86.84L318.22,85.19L354.38,67.88L358,66.06" style="vector-effect: non-scaling-stroke; fill: none; stroke: rgb(153, 157, 160); stroke-opacity: 0.5; stroke-width: 2px; opacity: 1;"/></g><g class="points"/><g class="text"/></g><g class="trace scatter trace2b9756" style="stroke-miterlimit: 2; opacity: 1;"><g class="fills"/><g class="errorbars"/><g class="lines"><path class="js-line" d="M0,159.23L25.31,163.47L28.93,163.93L50.63,165.89L54.24,166.09L75.94,166.49L79.56,166.43L101.25,165.27L104.87,164.95L126.57,162.23L130.18,161.65L151.88,157.37L155.49,156.52L177.19,150.68L180.81,149.58L206.12,140.81L209.74,139.4L231.43,130.21L235.05,128.55L260.36,115.88L263.98,113.92L289.29,99.16L292.91,96.91L318.22,80.07L321.84,77.52L347.15,58.6L350.77,55.74L358,49.93" style="vector-effect: non-scaling-stroke; fill: none; stroke: rgb(153, 157, 160); stroke-opacity: 0.5; stroke-width: 2px; opacity: 1;"/></g><g class="points"/><g class="text"/></g><g class="trace scatter trace831b56" style="stroke-miterlimit: 2; opacity: 1;"><g class="fills"/><g class="errorbars"/><g class="lines"><path class="js-line" d="M0,160.52L25.31,163.71L28.93,164.02L54.24,165.23L57.86,165.27L83.17,164.5L86.79,164.24L108.48,161.99L112.1,161.49L133.8,157.76L137.41,157.01L162.73,150.79L166.34,149.76L191.66,141.57L195.27,140.25L216.97,131.64L220.59,130.07L245.9,118.16L249.52,116.32L274.83,102.43L278.44,100.3L303.76,84.43L307.37,82.02L332.69,64.16L336.3,61.47L358,44.58" style="vector-effect: non-scaling-stroke; fill: none; stroke: rgb(153, 157, 160); stroke-opacity: 0.5; stroke-width: 2px; opacity: 1;"/></g><g class="points"/><g class="text"/></g><g class="trace scatter trace746ad0" style="stroke-miterlimit: 2; opacity: 1;"><g class="fills"/><g class="errorbars"/><g class="lines"><path class="js-line" d="M0,159.97L25.31,162.88L28.93,163.16L54.24,164.09L57.86,164.08L83.17,163.02L86.79,162.73L112.1,159.69L115.72,159.11L141.03,154.08L144.65,153.22L169.96,146.21L173.58,145.06L198.89,136.07L202.51,134.64L227.82,123.65L231.43,121.94L256.75,108.97L260.36,106.98L285.68,92.02L289.29,89.75L314.61,72.81L318.22,70.24L343.54,51.32L347.15,48.47L358,39.72" style="vector-effect: non-scaling-stroke; fill: none; stroke: rgb(153, 157, 160); stroke-opacity: 0.5; stroke-width: 2px; opacity: 1;"/></g><g class="points"/><g class="text"/></g><g class="trace scatter tracea198de" style="stroke-miterlimit: 2; opacity: 1;"><g class="fills"/><g class="errorbars"/><g class="lines"><path class="js-line" d="M0,157.42L25.31,161.62L28.93,162.06L50.63,163.95L54.24,164.13L75.94,164.43L79.56,164.35L101.25,163.06L104.87,162.71L126.57,159.83L130.18,159.21L151.88,154.74L155.49,153.86L177.19,147.79L180.81,146.65L202.51,138.99L206.12,137.58L227.82,128.33L231.43,126.66L256.75,113.88L260.36,111.9L285.68,97L289.29,94.72L314.61,77.7L318.22,75.12L343.54,55.97L347.15,53.09L358,44.2" style="vector-effect: non-scaling-stroke; fill: none; stroke: rgb(153, 157, 160); stroke-opacity: 0.5; stroke-width: 2px; opacity: 1;"/></g><g class="points"/><g class="text"/></g><g class="trace scatter trace631a2f" style="stroke-miterlimit: 2; opacity: 1;"><g class="fills"/><g class="errorbars"/><g class="lines"><path class="js-line" d="M0,136.97L21.7,144.12L25.31,145.15L47.01,150.43L50.63,151.15L72.32,154.56L75.94,154.97L97.64,156.51L101.25,156.61L122.95,156.28L126.57,156.07L148.26,153.87L151.88,153.34L173.58,149.28L177.19,148.44L198.89,142.51L202.51,141.36L224.2,133.56L227.82,132.1L249.52,122.43L253.13,120.66L274.83,109.12L278.44,107.04L300.14,93.63L303.76,91.24L329.07,73.26L332.69,70.51L358,50.04" style="vector-effect: non-scaling-stroke; fill: none; stroke: rgb(153, 157, 160); stroke-opacity: 0.5; stroke-width: 2px; opacity: 1;"/></g><g class="points"/><g class="text"/></g><g class="trace scatter trace08c24f" style="stroke-miterlimit: 2; opacity: 1;"><g class="fills"/><g class="errorbars"/><g class="lines"><path class="js-line" d="M0,179.77L47.01,170.15L50.63,169.35L97.64,158.12L101.25,157.2L151.88,143.31L155.49,142.25L198.89,128.87L202.51,127.69L249.52,111.63L253.13,110.34L303.76,91.25L307.37,89.82L354.38,70.42L358,68.87" style="vector-effect: non-scaling-stroke; fill: none; stroke: rgb(153, 157, 160); stroke-opacity: 0.5; stroke-width: 2px; opacity: 1;"/></g><g class="points"/><g class="text"/></g><g class="trace scatter traceb3a906" style="stroke-miterlimit: 2; opacity: 1;"><g class="fills"/><g class="errorbars"/><g class="lines"><path class="js-line" d="M0,158.34L28.93,159.4L32.55,159.44L61.47,158.9L65.09,158.73L94.02,156.59L97.64,156.22L126.57,152.47L130.18,151.9L159.11,146.55L162.73,145.78L191.66,138.82L195.27,137.85L224.2,129.28L227.82,128.11L256.75,117.94L260.36,116.57L289.29,104.8L292.91,103.22L321.84,89.84L325.45,88.07L354.38,73.09L358,71.11" style="vector-effect: non-scaling-stroke; fill: none; stroke: rgb(153, 157, 160); stroke-opacity: 0.5; stroke-width: 2px; opacity: 1;"/></g><g class="points"/><g class="text"/></g><g class="trace scatter traceadba8d" style="stroke-miterlimit: 2; opacity: 1;"><g class="fills"/><g class="errorbars"/><g class="lines"><path class="js-line" d="M0,160.42L21.7,164.78L25.31,165.35L47.01,167.84L50.63,168.1L72.32,168.72L75.94,168.66L97.64,167.41L101.25,167.04L122.95,163.91L126.57,163.24L148.26,158.23L151.88,157.24L173.58,150.37L177.19,149.07L198.89,140.32L202.51,138.71L224.2,128.09L227.82,126.16L249.52,113.67L253.13,111.43L274.83,97.07L278.44,94.52L303.76,75.42L307.37,72.51L332.69,50.91L336.3,47.65L358,27.13" style="vector-effect: non-scaling-stroke; fill: none; stroke: rgb(153, 157, 160); stroke-opacity: 0.5; stroke-width: 2px; opacity: 1;"/></g><g class="points"/><g class="text"/></g><g class="trace scatter trace84e504" style="stroke-miterlimit: 2; opacity: 1;"><g class="fills"/><g class="errorbars"/><g class="lines"><path class="js-line" d="M0,162.3L25.31,164.61L28.93,164.81L54.24,165.34L57.86,165.29L83.17,164.06L86.79,163.76L112.1,160.76L115.72,160.21L141.03,155.45L144.65,154.64L169.96,148.11L173.58,147.05L198.89,138.76L202.51,137.45L227.82,127.39L231.43,125.83L256.75,114L260.36,112.18L285.68,98.59L289.29,96.53L314.61,81.17L318.22,78.85L343.54,61.73L347.15,59.15L358,51.25" style="vector-effect: non-scaling-stroke; fill: none; stroke: rgb(153, 157, 160); stroke-opacity: 0.5; stroke-width: 2px; opacity: 1;"/></g><g class="points"/><g class="text"/></g><g class="trace scatter trace35aa12" style="stroke-miterlimit: 2; opacity: 1;"><g class="fills"/><g class="errorbars"/><g class="lines"><path class="js-line" d="M0,169.73L28.93,170.13L32.55,170.08L61.47,168.81L65.09,168.54L94.02,165.59L97.64,165.12L126.57,160.49L130.18,159.81L159.11,153.5L162.73,152.61L191.66,144.63L195.27,143.53L224.2,133.86L227.82,132.55L256.75,121.21L260.36,119.69L289.29,106.67L292.91,104.94L321.84,90.25L325.45,88.31L358,69.78" style="vector-effect: non-scaling-stroke; fill: none; stroke: rgb(153, 157, 160); stroke-opacity: 0.5; stroke-width: 2px; opacity: 1;"/></g><g class="points"/><g class="text"/></g><g class="trace scatter trace7319d9" style="stroke-miterlimit: 2; opacity: 1;"><g class="fills"/><g class="errorbars"/><g class="lines"><path class="js-line" d="M0,165.22L21.7,167.59L25.31,167.85L47.01,168.65L50.63,168.65L72.32,167.88L75.94,167.62L97.64,165.28L101.25,164.76L122.95,160.84L126.57,160.06L148.26,154.57L151.88,153.53L173.58,146.48L177.19,145.17L202.51,134.97L206.12,133.37L227.82,122.95L231.43,121.08L256.75,106.96L260.36,104.79L285.68,88.58L289.29,86.11L314.61,67.8L318.22,65.04L343.54,44.64L347.15,41.57L358,32.16" style="vector-effect: non-scaling-stroke; fill: none; stroke: rgb(153, 157, 160); stroke-opacity: 0.5; stroke-width: 2px; opacity: 1;"/></g><g class="points"/><g class="text"/></g><g class="trace scatter trace2f1443" style="stroke-miterlimit: 2; opacity: 1;"><g class="fills"/><g class="errorbars"/><g class="lines"><path class="js-line" d="M0,168.6L28.93,168.69L32.55,168.58L57.86,167.1L61.47,166.78L90.4,163.31L94.02,162.76L122.95,157.4L126.57,156.61L155.49,149.37L159.11,148.35L188.04,139.22L191.66,137.96L220.59,126.95L224.2,125.46L253.13,112.56L256.75,110.83L285.68,96.05L289.29,94.08L318.22,77.42L321.84,75.22L350.77,56.67L354.38,54.23L358,51.77" style="vector-effect: non-scaling-stroke; fill: none; stroke: rgb(153, 157, 160); stroke-opacity: 0.5; stroke-width: 2px; opacity: 1;"/></g><g class="points"/><g class="text"/></g><g class="trace scatter trace309e25" style="stroke-miterlimit: 2; opacity: 1;"><g class="fills"/><g class="errorbars"/><g class="lines"><path class="js-line" d="M0,154.96L28.93,156.09L32.55,156.12L61.47,155.54L65.09,155.36L94.02,153.08L97.64,152.68L126.57,148.68L130.18,148.08L159.11,142.37L162.73,141.55L191.66,134.13L195.27,133.09L224.2,123.97L227.82,122.72L256.75,111.88L260.36,110.42L289.29,97.87L292.91,96.19L321.84,81.94L325.45,80.05L354.38,64.08L358,61.98" style="vector-effect: non-scaling-stroke; fill: none; stroke: rgb(153, 157, 160); stroke-opacity: 0.5; stroke-width: 2px; opacity: 1;"/></g><g class="points"/><g class="text"/></g><g class="trace scatter trace098651" style="stroke-miterlimit: 2; opacity: 1;"><g class="fills"/><g class="errorbars"/><g class="lines"><path class="js-line" d="M0,162.74L25.31,164.74L28.93,164.91L54.24,165.22L57.86,165.14L83.17,163.76L86.79,163.44L112.1,160.36L115.72,159.8L141.03,155.03L144.65,154.23L169.96,147.77L173.58,146.72L198.89,138.57L202.51,137.28L231.43,125.91L235.05,124.35L260.36,112.6L263.98,110.8L289.29,97.35L292.91,95.31L318.22,80.18L321.84,77.89L350.77,58.54L354.38,55.99L358,53.4" style="vector-effect: non-scaling-stroke; fill: none; stroke: rgb(153, 157, 160); stroke-opacity: 0.5; stroke-width: 2px; opacity: 1;"/></g><g class="points"/><g class="text"/></g><g class="trace scatter tracebf4ebf" style="stroke-miterlimit: 2; opacity: 1;"><g class="fills"/><g class="errorbars"/><g class="lines"><path class="js-line" d="M0,167.67L28.93,167.95L32.55,167.88L61.47,166.47L65.09,166.19L94.02,163.09L97.64,162.6L126.57,157.82L130.18,157.12L159.11,150.65L162.73,149.74L191.66,141.59L195.27,140.47L224.2,130.63L227.82,129.29L256.75,117.77L260.36,116.23L289.29,103.02L292.91,101.26L321.84,86.37L325.45,84.4L354.38,67.82L358,65.64" style="vector-effect: non-scaling-stroke; fill: none; stroke: rgb(153, 157, 160); stroke-opacity: 0.5; stroke-width: 2px; opacity: 1;"/></g><g class="points"/><g class="text"/></g><g class="trace scatter traceee2645" style="stroke-miterlimit: 2; opacity: 1;"><g class="fills"/><g class="errorbars"/><g class="lines"><path class="js-line" d="M0,160.13L21.7,164.27L25.31,164.82L47.01,167.24L50.63,167.5L72.32,168.22L75.94,168.2L97.64,167.2L101.25,166.89L122.95,164.18L126.57,163.59L148.26,159.17L151.88,158.29L173.58,152.16L177.19,150.99L198.89,143.15L202.51,141.7L224.2,132.14L227.82,130.41L253.13,117.12L256.75,115.06L282.06,99.49L285.68,97.1L310.99,79.24L314.61,76.53L339.92,56.4L343.54,53.36L358,40.79" style="vector-effect: non-scaling-stroke; fill: none; stroke: rgb(153, 157, 160); stroke-opacity: 0.5; stroke-width: 2px; opacity: 1;"/></g><g class="points"/><g class="text"/></g><g class="trace scatter trace45f8fd" style="stroke-miterlimit: 2; opacity: 1;"><g class="fills"/><g class="errorbars"/><g class="lines"><path class="js-line" d="M0,150.51L21.7,155.35L25.31,156.01L47.01,159.1L50.63,159.47L72.32,160.82L75.94,160.89L97.64,160.5L101.25,160.29L122.95,158.15L126.57,157.64L148.26,153.76L151.88,152.97L173.58,147.34L177.19,146.26L198.89,138.89L202.51,137.51L224.2,128.4L227.82,126.74L249.52,115.88L253.13,113.92L274.83,101.32L278.44,99.08L303.76,82.2L307.37,79.62L332.69,60.42L336.3,57.51L358,39.18" style="vector-effect: non-scaling-stroke; fill: none; stroke: rgb(153, 157, 160); stroke-opacity: 0.5; stroke-width: 2px; opacity: 1;"/></g><g class="points"/><g class="text"/></g><g class="trace scatter tracebd2276" style="stroke-miterlimit: 2; opacity: 1;"><g class="fills"/><g class="errorbars"/><g class="lines"><path class="js-line" d="M0,160.34L25.31,162.11L28.93,162.25L54.24,162.43L57.86,162.35L83.17,160.94L86.79,160.62L112.1,157.62L115.72,157.08L141.03,152.48L144.65,151.71L169.96,145.53L173.58,144.53L198.89,136.76L202.51,135.53L227.82,126.17L231.43,124.72L256.75,113.76L260.36,112.08L289.29,97.62L292.91,95.69L321.84,79.19L325.45,77L354.38,58.45L358,56" style="vector-effect: non-scaling-stroke; fill: none; stroke: rgb(153, 157, 160); stroke-opacity: 0.5; stroke-width: 2px; opacity: 1;"/></g><g class="points"/><g class="text"/></g><g class="trace scatter trace7a5508" style="stroke-miterlimit: 2; opacity: 1;"><g class="fills"/><g class="errorbars"/><g class="lines"><path class="js-line" d="M0,172.69L28.93,171.07L32.55,170.77L61.47,167.68L65.09,167.2L97.64,161.96L101.25,161.28L133.8,154.2L137.41,153.31L169.96,144.39L173.58,143.3L206.12,132.54L209.74,131.24L242.28,118.64L245.9,117.14L278.44,102.7L282.06,100.99L314.61,84.71L318.22,82.8L350.77,64.67L354.38,62.56L358,60.42" style="vector-effect: non-scaling-stroke; fill: none; stroke: rgb(153, 157, 160); stroke-opacity: 0.5; stroke-width: 2px; opacity: 1;"/></g><g class="points"/><g class="text"/></g><g class="trace scatter trace59d2ea" style="stroke-miterlimit: 2; opacity: 1;"><g class="fills"/><g class="errorbars"/><g class="lines"><path class="js-line" d="M0,148.48L18.08,155.71L21.7,156.98L39.78,162.4L43.39,163.3L61.47,166.91L65.09,167.45L83.17,169.24L86.79,169.41L104.87,169.39L108.48,169.2L126.57,167.36L130.18,166.81L148.26,163.16L151.88,162.25L169.96,156.78L173.58,155.51L191.66,148.23L195.27,146.59L213.35,137.49L216.97,135.49L235.05,124.58L238.67,122.22L256.75,109.5L260.36,106.77L282.06,89.14L285.68,85.99L307.37,65.82L310.99,62.25L332.69,39.54L336.3,35.55L358,10.3" style="vector-effect: non-scaling-stroke; fill: none; stroke: rgb(153, 157, 160); stroke-opacity: 0.5; stroke-width: 2px; opacity: 1;"/></g><g class="points"/><g class="text"/></g><g class="trace scatter trace396459" style="stroke-miterlimit: 2; opacity: 1;"><g class="fills"/><g class="errorbars"/><g class="lines"><path class="js-line" d="M0,160.97L25.31,163.56L28.93,163.8L54.24,164.59L57.86,164.57L83.17,163.54L86.79,163.26L112.1,160.43L115.72,159.89L141.03,155.24L144.65,154.45L169.96,147.99L173.58,146.94L198.89,138.67L202.51,137.36L227.82,127.28L231.43,125.71L256.75,113.82L260.36,111.99L285.68,98.29L289.29,96.21L314.61,80.7L318.22,78.35L343.54,61.03L347.15,58.43L358,50.42" style="vector-effect: non-scaling-stroke; fill: none; stroke: rgb(34, 32, 33); stroke-opacity: 1; stroke-width: 2px; opacity: 1;"/></g><g class="points"/><g class="text"/></g></g></g><g class="overplot"/><path class="xlines-above crisp" d="M24,216.5H383" style="fill: none; stroke-width: 1px; stroke: rgb(36, 36, 36); stroke-opacity: 1;"/><path class="ylines-above crisp" d="M24.5,10V216" style="fill: none; stroke-width: 1px; stroke: rgb(36, 36, 36); stroke-opacity: 1;"/><g class="overlines-above"/><g class="xaxislayer-above"><path class="xtick ticks crisp" d="M0,217v5" transform="translate(25,0)" style="stroke: rgb(68, 68, 68); stroke-opacity: 1; stroke-width: 1px;"/><path class="xtick ticks crisp" d="M0,217v5" transform="translate(96.6,0)" style="stroke: rgb(68, 68, 68); stroke-opacity: 1; stroke-width: 1px;"/><path class="xtick ticks crisp" d="M0,217v5" transform="translate(168.2,0)" style="stroke: rgb(68, 68, 68); stroke-opacity: 1; stroke-width: 1px;"/><path class="xtick ticks crisp" d="M0,217v5" transform="translate(239.8,0)" style="stroke: rgb(68, 68, 68); stroke-opacity: 1; stroke-width: 1px;"/><path class="xtick ticks crisp" d="M0,217v5" transform="translate(311.4,0)" style="stroke: rgb(68, 68, 68); stroke-opacity: 1; stroke-width: 1px;"/><path class="xtick ticks crisp" d="M0,217v5" transform="translate(383,0)" style="stroke: rgb(68, 68, 68); stroke-opacity: 1; stroke-width: 1px;"/><g class="xtick"><text text-anchor="middle" x="0" y="236.4" transform="translate(25,0)" style="font-family: 'Open Sans', verdana, arial, sans-serif; font-size: 12px; fill: rgb(36, 36, 36); fill-opacity: 1; white-space: pre; opacity: 1;">0</text></g><g class="xtick"><text text-anchor="middle" x="0" y="236.4" style="font-family: 'Open Sans', verdana, arial, sans-serif; font-size: 12px; fill: rgb(36, 36, 36); fill-opacity: 1; white-space: pre; opacity: 1;" transform="translate(96.6,0)">2</text></g><g class="xtick"><text text-anchor="middle" x="0" y="236.4" style="font-family: 'Open Sans', verdana, arial, sans-serif; font-size: 12px; fill: rgb(36, 36, 36); fill-opacity: 1; white-space: pre; opacity: 1;" transform="translate(168.2,0)">4</text></g><g class="xtick"><text text-anchor="middle" x="0" y="236.4" style="font-family: 'Open Sans', verdana, arial, sans-serif; font-size: 12px; fill: rgb(36, 36, 36); fill-opacity: 1; white-space: pre; opacity: 1;" transform="translate(239.8,0)">6</text></g><g class="xtick"><text text-anchor="middle" x="0" y="236.4" style="font-family: 'Open Sans', verdana, arial, sans-serif; font-size: 12px; fill: rgb(36, 36, 36); fill-opacity: 1; white-space: pre; opacity: 1;" transform="translate(311.4,0)">8</text></g><g class="xtick"><text text-anchor="middle" x="0" y="236.4" style="font-family: 'Open Sans', verdana, arial, sans-serif; font-size: 12px; fill: rgb(36, 36, 36); fill-opacity: 1; white-space: pre; opacity: 1;" transform="translate(383,0)">10</text></g></g><g class="yaxislayer-above"><path class="ytick ticks crisp" d="M24,0h-5" transform="translate(0,205.7)" style="stroke: rgb(68, 68, 68); stroke-opacity: 1; stroke-width: 1px;"/><path class="ytick ticks crisp" d="M24,0h-5" transform="translate(0,168.56)" style="stroke: rgb(68, 68, 68); stroke-opacity: 1; stroke-width: 1px;"/><path class="ytick ticks crisp" d="M24,0h-5" transform="translate(0,131.41)" style="stroke: rgb(68, 68, 68); stroke-opacity: 1; stroke-width: 1px;"/><path class="ytick ticks crisp" d="M24,0h-5" transform="translate(0,94.27)" style="stroke: rgb(68, 68, 68); stroke-opacity: 1; stroke-width: 1px;"/><path class="ytick ticks crisp" d="M24,0h-5" transform="translate(0,57.13)" style="stroke: rgb(68, 68, 68); stroke-opacity: 1; stroke-width: 1px;"/><path class="ytick ticks crisp" d="M24,0h-5" transform="translate(0,19.990000000000002)" style="stroke: rgb(68, 68, 68); stroke-opacity: 1; stroke-width: 1px;"/><g class="ytick"><text text-anchor="end" x="16.6" y="4.199999999999999" transform="translate(0,205.7)" style="font-family: 'Open Sans', verdana, arial, sans-serif; font-size: 12px; fill: rgb(36, 36, 36); fill-opacity: 1; white-space: pre; opacity: 1;">0</text></g><g class="ytick"><text text-anchor="end" x="16.6" y="4.199999999999999" style="font-family: 'Open Sans', verdana, arial, sans-serif; font-size: 12px; fill: rgb(36, 36, 36); fill-opacity: 1; white-space: pre; opacity: 1;" transform="translate(0,168.56)">1</text></g><g class="ytick"><text text-anchor="end" x="16.6" y="4.199999999999999" style="font-family: 'Open Sans', verdana, arial, sans-serif; font-size: 12px; fill: rgb(36, 36, 36); fill-opacity: 1; white-space: pre; opacity: 1;" transform="translate(0,131.41)">2</text></g><g class="ytick"><text text-anchor="end" x="16.6" y="4.199999999999999" style="font-family: 'Open Sans', verdana, arial, sans-serif; font-size: 12px; fill: rgb(36, 36, 36); fill-opacity: 1; white-space: pre; opacity: 1;" transform="translate(0,94.27)">3</text></g><g class="ytick"><text text-anchor="end" x="16.6" y="4.199999999999999" style="font-family: 'Open Sans', verdana, arial, sans-serif; font-size: 12px; fill: rgb(36, 36, 36); fill-opacity: 1; white-space: pre; opacity: 1;" transform="translate(0,57.13)">4</text></g><g class="ytick"><text text-anchor="end" x="16.6" y="4.199999999999999" style="font-family: 'Open Sans', verdana, arial, sans-serif; font-size: 12px; fill: rgb(36, 36, 36); fill-opacity: 1; white-space: pre; opacity: 1;" transform="translate(0,19.990000000000002)">5</text></g></g><g class="overaxes-above"/></g></g><g class="polarlayer"/><g class="smithlayer"/><g class="ternarylayer"/><g class="geolayer"/><g class="funnelarealayer"/><g class="pielayer"/><g class="iciclelayer"/><g class="treemaplayer"/><g class="sunburstlayer"/><g class="glimages"/><defs id="topdefs-c5042d"><g class="clips"/></defs><g class="layer-above"><g class="imagelayer"/><g class="shapelayer"/></g><g class="infolayer"><g class="g-gtitle"/><g class="g-xtitle"/><g class="g-ytitle"/><g class="annotation" data-index="0" style="opacity: 1;"><g class="annotation-text-g" transform="rotate(0,87.32,119.61000000000001)"><g class="cursor-pointer" transform="translate(68,109)"><rect class="bg" x="0.5" y="0.5" width="38" height="20" style="stroke-width: 1px; stroke: rgb(0, 0, 0); stroke-opacity: 0; fill: rgb(0, 0, 0); fill-opacity: 0;"/><text class="annotation-text" text-anchor="middle" x="19.671875" y="15" style="font-family: 'Open Sans', verdana, arial, sans-serif; font-size: 12px; fill: rgb(36, 36, 36); fill-opacity: 1; white-space: pre;">True g</text></g></g><g class="annotation-arrow-g" style="opacity: 1;"><path d="M90.65333333333332,129.61L97.32,149.61" style="stroke-width: 1px; stroke: rgb(68, 68, 68); stroke-opacity: 1; stroke-dasharray: 0px, 0px, 21.0819px, 21.0819px;"/></g></g><g class="annotation" data-index="1" style="opacity: 1;"><g class="annotation-text-g" transform="rotate(0,337.2,27.130000000000003)"><g class="cursor-pointer" transform="translate(320,17)"><rect class="bg" x="0.5" y="0.5" width="34" height="20" style="stroke-width: 1px; stroke: rgb(0, 0, 0); stroke-opacity: 0; fill: rgb(0, 0, 0); fill-opacity: 0;"/><text class="annotation-text" text-anchor="middle" x="17.328125" y="15" style="font-family: 'Open Sans', verdana, arial, sans-serif; font-size: 12px; fill: rgb(36, 36, 36); fill-opacity: 1; white-space: pre;">One f</text></g></g><g class="annotation-arrow-g" style="opacity: 1;"><path d="M340.5333333333333,37.13L347.2,57.13" style="stroke-width: 1px; stroke: rgb(68, 68, 68); stroke-opacity: 1; stroke-dasharray: 0px, 0px, 21.0819px, 21.0819px;"/></g></g><g class="annotation" data-index="2" style="opacity: 1;"><g class="annotation-text-g" transform="rotate(0,217.63,117.38999999999999)"><g class="cursor-pointer" transform="translate(189,107)"><rect class="bg" x="0.5" y="0.5" width="56" height="20" style="stroke-width: 1px; stroke: rgb(0, 0, 0); stroke-opacity: 0; fill: rgb(0, 0, 0); fill-opacity: 0;"/><text class="annotation-text" text-anchor="middle" x="28.203125" y="15" style="font-family: 'Open Sans', verdana, arial, sans-serif; font-size: 12px; fill: rgb(36, 36, 36); fill-opacity: 1; white-space: pre;">Average f</text></g></g><g class="annotation-arrow-g" style="opacity: 1;"><path d="M220.96333333333334,127.38999999999999L227.63,147.39" style="stroke-width: 1px; stroke: rgb(68, 68, 68); stroke-opacity: 1; stroke-dasharray: 0px, 0px, 21.0819px, 21.0819px;"/></g></g></g></svg>