<svg class="main-svg" xmlns="http://www.w3.org/2000/svg" xmlns:xlink="http://www.w3.org/1999/xlink" width="450" height="250" style="" viewBox="0 0 450 250"><rect x="0" y="0" width="450" height="250" style="fill: rgb(255, 255, 255); fill-opacity: 1;"/><defs id="defs-9c48ea"><g class="clips"><clipPath id="clip9c48eaxyplot" class="plotclip"><rect width="185.4" height="207"/></clipPath><clipPath id="clip9c48eax2y2plot" class="plotclip"><rect width="185.39999999999998" height="207"/></clipPath><clipPath class="axesclip" id="clip9c48eax"><rect x="26" y="0" width="185.4" height="250"/></clipPath><clipPath class="axesclip" id="clip9c48eay"><rect x="0" y="10" width="450" height="207"/></clipPath><clipPath class="axesclip" id="clip9c48eaxy"><rect x="26" y="10" width="185.4" height="207"/></clipPath><clipPath class="axesclip" id="clip9c48eay2"><rect x="0" y="10" width="450" height="207"/></clipPath><clipPath class="axesclip" id="clip9c48eaxy2"><rect x="26" y="10" width="185.4" height="207"/></clipPath><clipPath class="axesclip" id="clip9c48eax2"><rect x="252.60000000000002" y="0" width="185.39999999999998" height="250"/></clipPath><clipPath class="axesclip" id="clip9c48eax2y"><rect x="252.60000000000002" y="10" width="185.39999999999998" height="207"/></clipPath><clipPath class="axesclip" id="clip9c48eax2y2"><rect x="252.60000000000002" y="10" width="185.39999999999998" height="207"/></clipPath></g><g class="gradients"/><g class="patterns"/></defs><g class="bglayer"/><g class="layer-below"><g class="imagelayer"/><g class="shapelayer"/></g><g class="cartesianlayer"><g class="subplot xy"><g class="layer-subplot"><g class="shapelayer"/><g class="imagelayer"/></g><g class="minor-gridlayer"><g class="x"/><g class="y"/></g><g class="gridlayer"><g class="x"><path class="xgrid crisp" transform="translate(38.18,0)" d="M0,10v207" style="stroke: rgb(232, 232, 232); stroke-opacity: 1; stroke-width: 1px;"/><path class="xgrid crisp" transform="translate(122.05,0)" d="M0,10v207" style="stroke: rgb(232, 232, 232); stroke-opacity: 1; stroke-width: 1px;"/><path class="xgrid crisp" transform="translate(205.93,0)" d="M0,10v207" style="stroke: rgb(232, 232, 232); stroke-opacity: 1; stroke-width: 1px;"/></g><g class="y"><path class="ygrid crisp" transform="translate(0,206.65)" d="M26,0h185.4" style="stroke: rgb(232, 232, 232); stroke-opacity: 1; stroke-width: 1px;"/><path class="ygrid crisp" transform="translate(0,159.68)" d="M26,0h185.4" style="stroke: rgb(232, 232, 232); stroke-opacity: 1; stroke-width: 1px;"/><path class="ygrid crisp" transform="translate(0,112.7)" d="M26,0h185.4" style="stroke: rgb(232, 232, 232); stroke-opacity: 1; stroke-width: 1px;"/><path class="ygrid crisp" transform="translate(0,65.72999999999999)" d="M26,0h185.4" style="stroke: rgb(232, 232, 232); stroke-opacity: 1; stroke-width: 1px;"/><path class="ygrid crisp" transform="translate(0,18.75)" d="M26,0h185.4" style="stroke: rgb(232, 232, 232); stroke-opacity: 1; stroke-width: 1px;"/></g></g><g class="zerolinelayer"/><path class="xlines-below"/><path class="ylines-below"/><g class="overlines-below"/><g class="xaxislayer-below"/><g class="yaxislayer-below"/><g class="overaxes-below"/><g class="plot" transform="translate(26,10)" clip-path="url(#clip9c48eaxyplot)"><g class="scatterlayer mlayer"><g class="trace scatter trace3a88f6" style="stroke-miterlimit: 2; opacity: 1;"><g class="fills"/><g class="errorbars"/><g class="lines"/><g class="points"><path class="point" transform="translate(97.73,187.31)" d="M3,0A3,3 0 1,1 0,-3A3,3 0 0,1 3,0Z" style="opacity: 1; stroke-width: 0px; fill: rgb(153, 157, 160); fill-opacity: 1;"/><path class="point" transform="translate(162.32,38.53)" d="M3,0A3,3 0 1,1 0,-3A3,3 0 0,1 3,0Z" style="opacity: 1; stroke-width: 0px; fill: rgb(153, 157, 160); fill-opacity: 1;"/><path class="point" transform="translate(89.35,171.18)" d="M3,0A3,3 0 1,1 0,-3A3,3 0 0,1 3,0Z" style="opacity: 1; stroke-width: 0px; fill: rgb(153, 157, 160); fill-opacity: 1;"/><path class="point" transform="translate(23.92,166.87)" d="M3,0A3,3 0 1,1 0,-3A3,3 0 0,1 3,0Z" style="opacity: 1; stroke-width: 0px; fill: rgb(153, 157, 160); fill-opacity: 1;"/><path class="point" transform="translate(101.09,150.44)" d="M3,0A3,3 0 1,1 0,-3A3,3 0 0,1 3,0Z" style="opacity: 1; stroke-width: 0px; fill: rgb(153, 157, 160); fill-opacity: 1;"/><path class="point" transform="translate(71.73,161.77)" d="M3,0A3,3 0 1,1 0,-3A3,3 0 0,1 3,0Z" style="opacity: 1; stroke-width: 0px; fill: rgb(153, 157, 160); fill-opacity: 1;"/><path class="point" transform="translate(169.86,66.65)" d="M3,0A3,3 0 1,1 0,-3A3,3 0 0,1 3,0Z" style="opacity: 1; stroke-width: 0px; fill: rgb(153, 157, 160); fill-opacity: 1;"/><path class="point" transform="translate(28.96,153.92)" d="M3,0A3,3 0 1,1 0,-3A3,3 0 0,1 3,0Z" style="opacity: 1; stroke-width: 0px; fill: rgb(153, 157, 160); fill-opacity: 1;"/><path class="point" transform="translate(97.73,162.95)" d="M3,0A3,3 0 1,1 0,-3A3,3 0 0,1 3,0Z" style="opacity: 1; stroke-width: 0px; fill: rgb(153, 157, 160); fill-opacity: 1;"/><path class="point" transform="translate(113.67,128.87)" d="M3,0A3,3 0 1,1 0,-3A3,3 0 0,1 3,0Z" style="opacity: 1; stroke-width: 0px; fill: rgb(153, 157, 160); fill-opacity: 1;"/><path class="point" transform="translate(74.25,182.34)" d="M3,0A3,3 0 1,1 0,-3A3,3 0 0,1 3,0Z" style="opacity: 1; stroke-width: 0px; fill: rgb(153, 157, 160); fill-opacity: 1;"/><path class="point" transform="translate(85.15,182.59)" d="M3,0A3,3 0 1,1 0,-3A3,3 0 0,1 3,0Z" style="opacity: 1; stroke-width: 0px; fill: rgb(153, 157, 160); fill-opacity: 1;"/><path class="point" transform="translate(109.47,141.07)" d="M3,0A3,3 0 1,1 0,-3A3,3 0 0,1 3,0Z" style="opacity: 1; stroke-width: 0px; fill: rgb(153, 157, 160); fill-opacity: 1;"/><path class="point" transform="translate(95.22,171.92)" d="M3,0A3,3 0 1,1 0,-3A3,3 0 0,1 3,0Z" style="opacity: 1; stroke-width: 0px; fill: rgb(153, 157, 160); fill-opacity: 1;"/><path class="point" transform="translate(98.57,168.28)" d="M3,0A3,3 0 1,1 0,-3A3,3 0 0,1 3,0Z" style="opacity: 1; stroke-width: 0px; fill: rgb(153, 157, 160); fill-opacity: 1;"/><path class="point" transform="translate(138.83,34.15)" d="M3,0A3,3 0 1,1 0,-3A3,3 0 0,1 3,0Z" style="opacity: 1; stroke-width: 0px; fill: rgb(153, 157, 160); fill-opacity: 1;"/><path class="point" transform="translate(121.22,88.38)" d="M3,0A3,3 0 1,1 0,-3A3,3 0 0,1 3,0Z" style="opacity: 1; stroke-width: 0px; fill: rgb(153, 157, 160); fill-opacity: 1;"/><path class="point" transform="translate(137.15,50.08)" d="M3,0A3,3 0 1,1 0,-3A3,3 0 0,1 3,0Z" style="opacity: 1; stroke-width: 0px; fill: rgb(153, 157, 160); fill-opacity: 1;"/><path class="point" transform="translate(55.8,144.32)" d="M3,0A3,3 0 1,1 0,-3A3,3 0 0,1 3,0Z" style="opacity: 1; stroke-width: 0px; fill: rgb(153, 157, 160); fill-opacity: 1;"/><path class="point" transform="translate(13.02,182.43)" d="M3,0A3,3 0 1,1 0,-3A3,3 0 0,1 3,0Z" style="opacity: 1; stroke-width: 0px; fill: rgb(153, 157, 160); fill-opacity: 1;"/><path class="point" transform="translate(85.15,171.89)" d="M3,0A3,3 0 1,1 0,-3A3,3 0 0,1 3,0Z" style="opacity: 1; stroke-width: 0px; fill: rgb(153, 157, 160); fill-opacity: 1;"/><path class="point" transform="translate(143.86,14.1)" d="M3,0A3,3 0 1,1 0,-3A3,3 0 0,1 3,0Z" style="opacity: 1; stroke-width: 0px; fill: rgb(153, 157, 160); fill-opacity: 1;"/><path class="point" transform="translate(43.21,122.95)" d="M3,0A3,3 0 1,1 0,-3A3,3 0 0,1 3,0Z" style="opacity: 1; stroke-width: 0px; fill: rgb(153, 157, 160); fill-opacity: 1;"/><path class="point" transform="translate(120.38,82.53)" d="M3,0A3,3 0 1,1 0,-3A3,3 0 0,1 3,0Z" style="opacity: 1; stroke-width: 0px; fill: rgb(153, 157, 160); fill-opacity: 1;"/><path class="point" transform="translate(172.38,63.61)" d="M3,0A3,3 0 1,1 0,-3A3,3 0 0,1 3,0Z" style="opacity: 1; stroke-width: 0px; fill: rgb(153, 157, 160); fill-opacity: 1;"/><path class="point" transform="translate(169.03,60.57)" d="M3,0A3,3 0 1,1 0,-3A3,3 0 0,1 3,0Z" style="opacity: 1; stroke-width: 0px; fill: rgb(153, 157, 160); fill-opacity: 1;"/><path class="point" transform="translate(28.96,157.22)" d="M3,0A3,3 0 1,1 0,-3A3,3 0 0,1 3,0Z" style="opacity: 1; stroke-width: 0px; fill: rgb(153, 157, 160); fill-opacity: 1;"/><path class="point" transform="translate(146.38,30.66)" d="M3,0A3,3 0 1,1 0,-3A3,3 0 0,1 3,0Z" style="opacity: 1; stroke-width: 0px; fill: rgb(153, 157, 160); fill-opacity: 1;"/><path class="point" transform="translate(59.99,150.91)" d="M3,0A3,3 0 1,1 0,-3A3,3 0 0,1 3,0Z" style="opacity: 1; stroke-width: 0px; fill: rgb(153, 157, 160); fill-opacity: 1;"/><path class="point" transform="translate(29.79,145.93)" d="M3,0A3,3 0 1,1 0,-3A3,3 0 0,1 3,0Z" style="opacity: 1; stroke-width: 0px; fill: rgb(153, 157, 160); fill-opacity: 1;"/><path class="point" transform="translate(85.99,179.75)" d="M3,0A3,3 0 1,1 0,-3A3,3 0 0,1 3,0Z" style="opacity: 1; stroke-width: 0px; fill: rgb(153, 157, 160); fill-opacity: 1;"/><path class="point" transform="translate(52.44,133.69)" d="M3,0A3,3 0 1,1 0,-3A3,3 0 0,1 3,0Z" style="opacity: 1; stroke-width: 0px; fill: rgb(153, 157, 160); fill-opacity: 1;"/><path class="point" transform="translate(60.83,159.23)" d="M3,0A3,3 0 1,1 0,-3A3,3 0 0,1 3,0Z" style="opacity: 1; stroke-width: 0px; fill: rgb(153, 157, 160); fill-opacity: 1;"/><path class="point" transform="translate(153.93,46.17)" d="M3,0A3,3 0 1,1 0,-3A3,3 0 0,1 3,0Z" style="opacity: 1; stroke-width: 0px; fill: rgb(153, 157, 160); fill-opacity: 1;"/><path class="point" transform="translate(169.03,52.64)" d="M3,0A3,3 0 1,1 0,-3A3,3 0 0,1 3,0Z" style="opacity: 1; stroke-width: 0px; fill: rgb(153, 157, 160); fill-opacity: 1;"/><path class="point" transform="translate(23.92,150.16)" d="M3,0A3,3 0 1,1 0,-3A3,3 0 0,1 3,0Z" style="opacity: 1; stroke-width: 0px; fill: rgb(153, 157, 160); fill-opacity: 1;"/><path class="point" transform="translate(170.7,58.1)" d="M3,0A3,3 0 1,1 0,-3A3,3 0 0,1 3,0Z" style="opacity: 1; stroke-width: 0px; fill: rgb(153, 157, 160); fill-opacity: 1;"/><path class="point" transform="translate(170.7,63.03)" d="M3,0A3,3 0 1,1 0,-3A3,3 0 0,1 3,0Z" style="opacity: 1; stroke-width: 0px; fill: rgb(153, 157, 160); fill-opacity: 1;"/><path class="point" transform="translate(158.12,36.68)" d="M3,0A3,3 0 1,1 0,-3A3,3 0 0,1 3,0Z" style="opacity: 1; stroke-width: 0px; fill: rgb(153, 157, 160); fill-opacity: 1;"/><path class="point" transform="translate(170.7,62.4)" d="M3,0A3,3 0 1,1 0,-3A3,3 0 0,1 3,0Z" style="opacity: 1; stroke-width: 0px; fill: rgb(153, 157, 160); fill-opacity: 1;"/><path class="point" transform="translate(54.12,134.89)" d="M3,0A3,3 0 1,1 0,-3A3,3 0 0,1 3,0Z" style="opacity: 1; stroke-width: 0px; fill: rgb(153, 157, 160); fill-opacity: 1;"/><path class="point" transform="translate(101.93,148.06)" d="M3,0A3,3 0 1,1 0,-3A3,3 0 0,1 3,0Z" style="opacity: 1; stroke-width: 0px; fill: rgb(153, 157, 160); fill-opacity: 1;"/><path class="point" transform="translate(57.47,140.83)" d="M3,0A3,3 0 1,1 0,-3A3,3 0 0,1 3,0Z" style="opacity: 1; stroke-width: 0px; fill: rgb(153, 157, 160); fill-opacity: 1;"/><path class="point" transform="translate(65.02,159.89)" d="M3,0A3,3 0 1,1 0,-3A3,3 0 0,1 3,0Z" style="opacity: 1; stroke-width: 0px; fill: rgb(153, 157, 160); fill-opacity: 1;"/><path class="point" transform="translate(121.22,83.56)" d="M3,0A3,3 0 1,1 0,-3A3,3 0 0,1 3,0Z" style="opacity: 1; stroke-width: 0px; fill: rgb(153, 157, 160); fill-opacity: 1;"/><path class="point" transform="translate(54.12,121.72)" d="M3,0A3,3 0 1,1 0,-3A3,3 0 0,1 3,0Z" style="opacity: 1; stroke-width: 0px; fill: rgb(153, 157, 160); fill-opacity: 1;"/><path class="point" transform="translate(124.57,98)" d="M3,0A3,3 0 1,1 0,-3A3,3 0 0,1 3,0Z" style="opacity: 1; stroke-width: 0px; fill: rgb(153, 157, 160); fill-opacity: 1;"/><path class="point" transform="translate(28.96,137.04)" d="M3,0A3,3 0 1,1 0,-3A3,3 0 0,1 3,0Z" style="opacity: 1; stroke-width: 0px; fill: rgb(153, 157, 160); fill-opacity: 1;"/><path class="point" transform="translate(72.57,185.91)" d="M3,0A3,3 0 1,1 0,-3A3,3 0 0,1 3,0Z" style="opacity: 1; stroke-width: 0px; fill: rgb(153, 157, 160); fill-opacity: 1;"/><path class="point" transform="translate(151.41,27.26)" d="M3,0A3,3 0 1,1 0,-3A3,3 0 0,1 3,0Z" style="opacity: 1; stroke-width: 0px; fill: rgb(153, 157, 160); fill-opacity: 1;"/></g><g class="text"/></g><g class="trace scatter trace68d09a" style="stroke-miterlimit: 2; opacity: 1;"><g class="fills"/><g class="errorbars"/><g class="lines"><path class="js-line" d="M12.18,196.65L24.04,156.17L25.74,151.3L30.82,138.89L32.51,135.58L37.6,128.4L39.29,126.95L42.68,125.48L44.38,125.45L47.76,126.72L49.46,127.98L54.54,133.91L56.24,136.49L64.71,152.04L66.4,155.36L74.87,170.34L76.57,172.7L81.65,177.81L83.35,178.75L86.74,179.32L88.43,178.92L91.82,176.69L93.51,174.86L96.9,169.79L98.6,166.57L103.68,154.4L105.37,149.6L112.15,127.6L113.85,121.61L129.1,68.66L130.79,63.72L135.87,51.08L137.57,47.68L142.65,40.21L144.35,38.66L147.73,37L149.43,36.88L152.82,37.97L154.51,39.15L157.9,42.63L159.6,44.87L166.37,56.28L168.07,59.52L179.93,81.28" style="vector-effect: none; fill: none; stroke: rgb(34, 32, 33); stroke-opacity: 1; stroke-dasharray: 9px, 9px; stroke-width: 2px; opacity: 1;"/></g><g class="points"/><g class="text"/></g></g></g><g class="overplot"/><path class="xlines-above crisp" d="M25,217.5H211.4" style="fill: none; stroke-width: 1px; stroke: rgb(36, 36, 36); stroke-opacity: 1;"/><path class="ylines-above crisp" d="M25.5,10V217" style="fill: none; stroke-width: 1px; stroke: rgb(36, 36, 36); stroke-opacity: 1;"/><g class="overlines-above"/><g class="xaxislayer-above"><path class="xtick ticks crisp" d="M0,218v5" transform="translate(38.18,0)" style="stroke: rgb(68, 68, 68); stroke-opacity: 1; stroke-width: 1px;"/><path class="xtick ticks crisp" d="M0,218v5" transform="translate(122.05,0)" style="stroke: rgb(68, 68, 68); stroke-opacity: 1; stroke-width: 1px;"/><path class="xtick ticks crisp" d="M0,218v5" transform="translate(205.93,0)" style="stroke: rgb(68, 68, 68); stroke-opacity: 1; stroke-width: 1px;"/><g class="xtick"><text text-anchor="middle" x="0" y="237.4" transform="translate(38.18,0)" style="font-family: 'Open Sans', verdana, arial, sans-serif; font-size: 12px; fill: rgb(36, 36, 36); fill-opacity: 1; white-space: pre; opacity: 1;">0</text></g><g class="xtick"><text text-anchor="middle" x="0" y="237.4" style="font-family: 'Open Sans', verdana, arial, sans-serif; font-size: 12px; fill: rgb(36, 36, 36); fill-opacity: 1; white-space: pre; opacity: 1;" transform="translate(122.05,0)">5</text></g><g class="xtick"><text text-anchor="middle" x="0" y="237.4" style="font-family: 'Open Sans', verdana, arial, sans-serif; font-size: 12px; fill: rgb(36, 36, 36); fill-opacity: 1; white-space: pre; opacity: 1;" transform="translate(205.93,0)">10</text></g></g><g class="yaxislayer-above"><path class="ytick ticks crisp" d="M25,0h-5" transform="translate(0,206.65)" style="stroke: rgb(68, 68, 68); stroke-opacity: 1; stroke-width: 1px;"/><path class="ytick ticks crisp" d="M25,0h-5" transform="translate(0,159.68)" style="stroke: rgb(68, 68, 68); stroke-opacity: 1; stroke-width: 1px;"/><path class="ytick ticks crisp" d="M25,0h-5" transform="translate(0,112.7)" style="stroke: rgb(68, 68, 68); stroke-opacity: 1; stroke-width: 1px;"/><path class="ytick ticks crisp" d="M25,0h-5" transform="translate(0,65.72999999999999)" style="stroke: rgb(68, 68, 68); stroke-opacity: 1; stroke-width: 1px;"/><path class="ytick ticks crisp" d="M25,0h-5" transform="translate(0,18.75)" style="stroke: rgb(68, 68, 68); stroke-opacity: 1; stroke-width: 1px;"/><g class="ytick"><text text-anchor="end" x="17.6" y="4.199999999999999" transform="translate(0,206.65)" style="font-family: 'Open Sans', verdana, arial, sans-serif; font-size: 12px; fill: rgb(36, 36, 36); fill-opacity: 1; white-space: pre; opacity: 1;">0</text></g><g class="ytick"><text text-anchor="end" x="17.6" y="4.199999999999999" style="font-family: 'Open Sans', verdana, arial, sans-serif; font-size: 12px; fill: rgb(36, 36, 36); fill-opacity: 1; white-space: pre; opacity: 1;" transform="translate(0,159.68)">1</text></g><g class="ytick"><text text-anchor="end" x="17.6" y="4.199999999999999" style="font-family: 'Open Sans', verdana, arial, sans-serif; font-size: 12px; fill: rgb(36, 36, 36); fill-opacity: 1; white-space: pre; opacity: 1;" transform="translate(0,112.7)">2</text></g><g class="ytick"><text text-anchor="end" x="17.6" y="4.199999999999999" style="font-family: 'Open Sans', verdana, arial, sans-serif; font-size: 12px; fill: rgb(36, 36, 36); fill-opacity: 1; white-space: pre; opacity: 1;" transform="translate(0,65.72999999999999)">3</text></g><g class="ytick"><text text-anchor="end" x="17.6" y="4.199999999999999" style="font-family: 'Open Sans', verdana, arial, sans-serif; font-size: 12px; fill: rgb(36, 36, 36); fill-opacity: 1; white-space: pre; opacity: 1;" transform="translate(0,18.75)">4</text></g></g><g class="overaxes-above"/></g><g class="subplot x2y2"><g class="layer-subplot"><g class="shapelayer"/><g class="imagelayer"/></g><g class="minor-gridlayer"><g class="x2"/><g class="y2"/></g><g class="gridlayer"><g class="x2"><path class="x2grid crisp" transform="translate(264.78000000000003,0)" d="M0,10v207" style="stroke: rgb(232, 232, 232); stroke-opacity: 1; stroke-width: 1px;"/><path class="x2grid crisp" transform="translate(348.65000000000003,0)" d="M0,10v207" style="stroke: rgb(232, 232, 232); stroke-opacity: 1; stroke-width: 1px;"/><path class="x2grid crisp" transform="translate(432.53000000000003,0)" d="M0,10v207" style="stroke: rgb(232, 232, 232); stroke-opacity: 1; stroke-width: 1px;"/></g><g class="y2"><path class="y2grid crisp" transform="translate(0,182.5)" d="M252.60000000000002,0h185.39999999999998" style="stroke: rgb(232, 232, 232); stroke-opacity: 1; stroke-width: 1px;"/><path class="y2grid crisp" transform="translate(0,148)" d="M252.60000000000002,0h185.39999999999998" style="stroke: rgb(232, 232, 232); stroke-opacity: 1; stroke-width: 1px;"/><path class="y2grid crisp" transform="translate(0,113.5)" d="M252.60000000000002,0h185.39999999999998" style="stroke: rgb(232, 232, 232); stroke-opacity: 1; stroke-width: 1px;"/><path class="y2grid crisp" transform="translate(0,79)" d="M252.60000000000002,0h185.39999999999998" style="stroke: rgb(232, 232, 232); stroke-opacity: 1; stroke-width: 1px;"/><path class="y2grid crisp" transform="translate(0,44.5)" d="M252.60000000000002,0h185.39999999999998" style="stroke: rgb(232, 232, 232); stroke-opacity: 1; stroke-width: 1px;"/></g></g><g class="zerolinelayer"/><path class="xlines-below"/><path class="ylines-below"/><g class="overlines-below"/><g class="xaxislayer-below"/><g class="yaxislayer-below"/><g class="overaxes-below"/><g class="plot" transform="translate(252.60000000000002,10)" clip-path="url(#clip9c48eax2y2plot)"><g class="scatterlayer mlayer"><g class="trace scatter trace3fcf58" style="stroke-miterlimit: 2; opacity: 1;"><g class="fills"/><g class="errorbars"/><g class="lines"/><g class="points"><path class="point" transform="translate(97.73,173.42)" d="M3,0A3,3 0 1,1 0,-3A3,3 0 0,1 3,0Z" style="opacity: 1; stroke-width: 0px; fill: rgb(153, 157, 160); fill-opacity: 1;"/><path class="point" transform="translate(162.32,64.88)" d="M3,0A3,3 0 1,1 0,-3A3,3 0 0,1 3,0Z" style="opacity: 1; stroke-width: 0px; fill: rgb(153, 157, 160); fill-opacity: 1;"/><path class="point" transform="translate(89.35,76.62)" d="M3,0A3,3 0 1,1 0,-3A3,3 0 0,1 3,0Z" style="opacity: 1; stroke-width: 0px; fill: rgb(153, 157, 160); fill-opacity: 1;"/><path class="point" transform="translate(23.92,141.49)" d="M3,0A3,3 0 1,1 0,-3A3,3 0 0,1 3,0Z" style="opacity: 1; stroke-width: 0px; fill: rgb(153, 157, 160); fill-opacity: 1;"/><path class="point" transform="translate(101.09,64.51)" d="M3,0A3,3 0 1,1 0,-3A3,3 0 0,1 3,0Z" style="opacity: 1; stroke-width: 0px; fill: rgb(153, 157, 160); fill-opacity: 1;"/><path class="point" transform="translate(71.73,90.63)" d="M3,0A3,3 0 1,1 0,-3A3,3 0 0,1 3,0Z" style="opacity: 1; stroke-width: 0px; fill: rgb(153, 157, 160); fill-opacity: 1;"/><path class="point" transform="translate(169.86,116.83)" d="M3,0A3,3 0 1,1 0,-3A3,3 0 0,1 3,0Z" style="opacity: 1; stroke-width: 0px; fill: rgb(153, 157, 160); fill-opacity: 1;"/><path class="point" transform="translate(28.96,143.48)" d="M3,0A3,3 0 1,1 0,-3A3,3 0 0,1 3,0Z" style="opacity: 1; stroke-width: 0px; fill: rgb(153, 157, 160); fill-opacity: 1;"/><path class="point" transform="translate(97.73,83.97)" d="M3,0A3,3 0 1,1 0,-3A3,3 0 0,1 3,0Z" style="opacity: 1; stroke-width: 0px; fill: rgb(153, 157, 160); fill-opacity: 1;"/><path class="point" transform="translate(113.67,127.8)" d="M3,0A3,3 0 1,1 0,-3A3,3 0 0,1 3,0Z" style="opacity: 1; stroke-width: 0px; fill: rgb(153, 157, 160); fill-opacity: 1;"/><path class="point" transform="translate(74.25,151.04)" d="M3,0A3,3 0 1,1 0,-3A3,3 0 0,1 3,0Z" style="opacity: 1; stroke-width: 0px; fill: rgb(153, 157, 160); fill-opacity: 1;"/><path class="point" transform="translate(85.15,115.68)" d="M3,0A3,3 0 1,1 0,-3A3,3 0 0,1 3,0Z" style="opacity: 1; stroke-width: 0px; fill: rgb(153, 157, 160); fill-opacity: 1;"/><path class="point" transform="translate(109.47,119.42)" d="M3,0A3,3 0 1,1 0,-3A3,3 0 0,1 3,0Z" style="opacity: 1; stroke-width: 0px; fill: rgb(153, 157, 160); fill-opacity: 1;"/><path class="point" transform="translate(95.22,101.2)" d="M3,0A3,3 0 1,1 0,-3A3,3 0 0,1 3,0Z" style="opacity: 1; stroke-width: 0px; fill: rgb(153, 157, 160); fill-opacity: 1;"/><path class="point" transform="translate(98.57,109.58)" d="M3,0A3,3 0 1,1 0,-3A3,3 0 0,1 3,0Z" style="opacity: 1; stroke-width: 0px; fill: rgb(153, 157, 160); fill-opacity: 1;"/><path class="point" transform="translate(138.83,62.07)" d="M3,0A3,3 0 1,1 0,-3A3,3 0 0,1 3,0Z" style="opacity: 1; stroke-width: 0px; fill: rgb(153, 157, 160); fill-opacity: 1;"/><path class="point" transform="translate(121.22,79.41)" d="M3,0A3,3 0 1,1 0,-3A3,3 0 0,1 3,0Z" style="opacity: 1; stroke-width: 0px; fill: rgb(153, 157, 160); fill-opacity: 1;"/><path class="point" transform="translate(137.15,109.42)" d="M3,0A3,3 0 1,1 0,-3A3,3 0 0,1 3,0Z" style="opacity: 1; stroke-width: 0px; fill: rgb(153, 157, 160); fill-opacity: 1;"/><path class="point" transform="translate(55.8,134.8)" d="M3,0A3,3 0 1,1 0,-3A3,3 0 0,1 3,0Z" style="opacity: 1; stroke-width: 0px; fill: rgb(153, 157, 160); fill-opacity: 1;"/><path class="point" transform="translate(13.02,62.49)" d="M3,0A3,3 0 1,1 0,-3A3,3 0 0,1 3,0Z" style="opacity: 1; stroke-width: 0px; fill: rgb(153, 157, 160); fill-opacity: 1;"/><path class="point" transform="translate(85.15,76.4)" d="M3,0A3,3 0 1,1 0,-3A3,3 0 0,1 3,0Z" style="opacity: 1; stroke-width: 0px; fill: rgb(153, 157, 160); fill-opacity: 1;"/><path class="point" transform="translate(143.86,11.87)" d="M3,0A3,3 0 1,1 0,-3A3,3 0 0,1 3,0Z" style="opacity: 1; stroke-width: 0px; fill: rgb(153, 157, 160); fill-opacity: 1;"/><path class="point" transform="translate(43.21,94.41)" d="M3,0A3,3 0 1,1 0,-3A3,3 0 0,1 3,0Z" style="opacity: 1; stroke-width: 0px; fill: rgb(153, 157, 160); fill-opacity: 1;"/><path class="point" transform="translate(120.38,46.86)" d="M3,0A3,3 0 1,1 0,-3A3,3 0 0,1 3,0Z" style="opacity: 1; stroke-width: 0px; fill: rgb(153, 157, 160); fill-opacity: 1;"/><path class="point" transform="translate(172.38,87.6)" d="M3,0A3,3 0 1,1 0,-3A3,3 0 0,1 3,0Z" style="opacity: 1; stroke-width: 0px; fill: rgb(153, 157, 160); fill-opacity: 1;"/><path class="point" transform="translate(169.03,100.54)" d="M3,0A3,3 0 1,1 0,-3A3,3 0 0,1 3,0Z" style="opacity: 1; stroke-width: 0px; fill: rgb(153, 157, 160); fill-opacity: 1;"/><path class="point" transform="translate(28.96,155.59)" d="M3,0A3,3 0 1,1 0,-3A3,3 0 0,1 3,0Z" style="opacity: 1; stroke-width: 0px; fill: rgb(153, 157, 160); fill-opacity: 1;"/><path class="point" transform="translate(146.38,78.61)" d="M3,0A3,3 0 1,1 0,-3A3,3 0 0,1 3,0Z" style="opacity: 1; stroke-width: 0px; fill: rgb(153, 157, 160); fill-opacity: 1;"/><path class="point" transform="translate(59.99,132.6)" d="M3,0A3,3 0 1,1 0,-3A3,3 0 0,1 3,0Z" style="opacity: 1; stroke-width: 0px; fill: rgb(153, 157, 160); fill-opacity: 1;"/><path class="point" transform="translate(29.79,121.21)" d="M3,0A3,3 0 1,1 0,-3A3,3 0 0,1 3,0Z" style="opacity: 1; stroke-width: 0px; fill: rgb(153, 157, 160); fill-opacity: 1;"/><path class="point" transform="translate(85.99,105)" d="M3,0A3,3 0 1,1 0,-3A3,3 0 0,1 3,0Z" style="opacity: 1; stroke-width: 0px; fill: rgb(153, 157, 160); fill-opacity: 1;"/><path class="point" transform="translate(52.44,113)" d="M3,0A3,3 0 1,1 0,-3A3,3 0 0,1 3,0Z" style="opacity: 1; stroke-width: 0px; fill: rgb(153, 157, 160); fill-opacity: 1;"/><path class="point" transform="translate(60.83,157.43)" d="M3,0A3,3 0 1,1 0,-3A3,3 0 0,1 3,0Z" style="opacity: 1; stroke-width: 0px; fill: rgb(153, 157, 160); fill-opacity: 1;"/><path class="point" transform="translate(153.93,130.95)" d="M3,0A3,3 0 1,1 0,-3A3,3 0 0,1 3,0Z" style="opacity: 1; stroke-width: 0px; fill: rgb(153, 157, 160); fill-opacity: 1;"/><path class="point" transform="translate(169.03,71.39)" d="M3,0A3,3 0 1,1 0,-3A3,3 0 0,1 3,0Z" style="opacity: 1; stroke-width: 0px; fill: rgb(153, 157, 160); fill-opacity: 1;"/><path class="point" transform="translate(23.92,80.12)" d="M3,0A3,3 0 1,1 0,-3A3,3 0 0,1 3,0Z" style="opacity: 1; stroke-width: 0px; fill: rgb(153, 157, 160); fill-opacity: 1;"/><path class="point" transform="translate(170.7,79.4)" d="M3,0A3,3 0 1,1 0,-3A3,3 0 0,1 3,0Z" style="opacity: 1; stroke-width: 0px; fill: rgb(153, 157, 160); fill-opacity: 1;"/><path class="point" transform="translate(170.7,97.51)" d="M3,0A3,3 0 1,1 0,-3A3,3 0 0,1 3,0Z" style="opacity: 1; stroke-width: 0px; fill: rgb(153, 157, 160); fill-opacity: 1;"/><path class="point" transform="translate(158.12,80.65)" d="M3,0A3,3 0 1,1 0,-3A3,3 0 0,1 3,0Z" style="opacity: 1; stroke-width: 0px; fill: rgb(153, 157, 160); fill-opacity: 1;"/><path class="point" transform="translate(170.7,95.18)" d="M3,0A3,3 0 1,1 0,-3A3,3 0 0,1 3,0Z" style="opacity: 1; stroke-width: 0px; fill: rgb(153, 157, 160); fill-opacity: 1;"/><path class="point" transform="translate(54.12,109.3)" d="M3,0A3,3 0 1,1 0,-3A3,3 0 0,1 3,0Z" style="opacity: 1; stroke-width: 0px; fill: rgb(153, 157, 160); fill-opacity: 1;"/><path class="point" transform="translate(101.93,63.32)" d="M3,0A3,3 0 1,1 0,-3A3,3 0 0,1 3,0Z" style="opacity: 1; stroke-width: 0px; fill: rgb(153, 157, 160); fill-opacity: 1;"/><path class="point" transform="translate(57.47,111.98)" d="M3,0A3,3 0 1,1 0,-3A3,3 0 0,1 3,0Z" style="opacity: 1; stroke-width: 0px; fill: rgb(153, 157, 160); fill-opacity: 1;"/><path class="point" transform="translate(65.02,130.05)" d="M3,0A3,3 0 1,1 0,-3A3,3 0 0,1 3,0Z" style="opacity: 1; stroke-width: 0px; fill: rgb(153, 157, 160); fill-opacity: 1;"/><path class="point" transform="translate(121.22,61.68)" d="M3,0A3,3 0 1,1 0,-3A3,3 0 0,1 3,0Z" style="opacity: 1; stroke-width: 0px; fill: rgb(153, 157, 160); fill-opacity: 1;"/><path class="point" transform="translate(54.12,60.94)" d="M3,0A3,3 0 1,1 0,-3A3,3 0 0,1 3,0Z" style="opacity: 1; stroke-width: 0px; fill: rgb(153, 157, 160); fill-opacity: 1;"/><path class="point" transform="translate(124.57,157.81)" d="M3,0A3,3 0 1,1 0,-3A3,3 0 0,1 3,0Z" style="opacity: 1; stroke-width: 0px; fill: rgb(153, 157, 160); fill-opacity: 1;"/><path class="point" transform="translate(28.96,81.49)" d="M3,0A3,3 0 1,1 0,-3A3,3 0 0,1 3,0Z" style="opacity: 1; stroke-width: 0px; fill: rgb(153, 157, 160); fill-opacity: 1;"/><path class="point" transform="translate(72.57,174.03)" d="M3,0A3,3 0 1,1 0,-3A3,3 0 0,1 3,0Z" style="opacity: 1; stroke-width: 0px; fill: rgb(153, 157, 160); fill-opacity: 1;"/><path class="point" transform="translate(151.41,66.6)" d="M3,0A3,3 0 1,1 0,-3A3,3 0 0,1 3,0Z" style="opacity: 1; stroke-width: 0px; fill: rgb(153, 157, 160); fill-opacity: 1;"/></g><g class="text"/></g><g class="trace scatter trace739321" style="stroke-miterlimit: 2; opacity: 1;"><g class="fills"/><g class="errorbars"/><g class="lines"><path class="js-line" d="M12.18,103.5L179.93,103.5" style="vector-effect: none; fill: none; stroke: rgb(34, 32, 33); stroke-opacity: 1; stroke-width: 2px; opacity: 1;"/></g><g class="points"/><g class="text"/></g></g></g><g class="overplot"/><path class="xlines-above crisp" d="M251.60000000000002,217.5H438" style="fill: none; stroke-width: 1px; stroke: rgb(36, 36, 36); stroke-opacity: 1;"/><path class="ylines-above crisp" d="M252.10000000000002,10V217" style="fill: none; stroke-width: 1px; stroke: rgb(36, 36, 36); stroke-opacity: 1;"/><g class="overlines-above"/><g class="xaxislayer-above"><path class="x2tick ticks crisp" d="M0,218v5" transform="translate(264.78000000000003,0)" style="stroke: rgb(68, 68, 68); stroke-opacity: 1; stroke-width: 1px;"/><path class="x2tick ticks crisp" d="M0,218v5" transform="translate(348.65000000000003,0)" style="stroke: rgb(68, 68, 68); stroke-opacity: 1; stroke-width: 1px;"/><path class="x2tick ticks crisp" d="M0,218v5" transform="translate(432.53000000000003,0)" style="stroke: rgb(68, 68, 68); stroke-opacity: 1; stroke-width: 1px;"/><g class="x2tick"><text text-anchor="middle" x="0" y="237.4" transform="translate(264.78000000000003,0)" style="font-family: 'Open Sans', verdana, arial, sans-serif; font-size: 12px; fill: rgb(36, 36, 36); fill-opacity: 1; white-space: pre; opacity: 1;">0</text></g><g class="x2tick"><text text-anchor="middle" x="0" y="237.4" style="font-family: 'Open Sans', verdana, arial, sans-serif; font-size: 12px; fill: rgb(36, 36, 36); fill-opacity: 1; white-space: pre; opacity: 1;" transform="translate(348.65000000000003,0)">5</text></g><g class="x2tick"><text text-anchor="middle" x="0" y="237.4" style="font-family: 'Open Sans', verdana, arial, sans-serif; font-size: 12px; fill: rgb(36, 36, 36); fill-opacity: 1; white-space: pre; opacity: 1;" transform="translate(432.53000000000003,0)">10</text></g></g><g class="yaxislayer-above"><path class="y2tick ticks crisp" d="M251.60000000000002,0h-5" transform="translate(0,217)" style="stroke: rgb(68, 68, 68); stroke-opacity: 1; stroke-width: 1px;"/><path class="y2tick ticks crisp" d="M251.60000000000002,0h-5" transform="translate(0,182.5)" style="stroke: rgb(68, 68, 68); stroke-opacity: 1; stroke-width: 1px;"/><path class="y2tick ticks crisp" d="M251.60000000000002,0h-5" transform="translate(0,148)" style="stroke: rgb(68, 68, 68); stroke-opacity: 1; stroke-width: 1px;"/><path class="y2tick ticks crisp" d="M251.60000000000002,0h-5" transform="translate(0,113.5)" style="stroke: rgb(68, 68, 68); stroke-opacity: 1; stroke-width: 1px;"/><path class="y2tick ticks crisp" d="M251.60000000000002,0h-5" transform="translate(0,79)" style="stroke: rgb(68, 68, 68); stroke-opacity: 1; stroke-width: 1px;"/><path class="y2tick ticks crisp" d="M251.60000000000002,0h-5" transform="translate(0,44.5)" style="stroke: rgb(68, 68, 68); stroke-opacity: 1; stroke-width: 1px;"/><path class="y2tick ticks crisp" d="M251.60000000000002,0h-5" transform="translate(0,10)" style="stroke: rgb(68, 68, 68); stroke-opacity: 1; stroke-width: 1px;"/><g class="y2tick"><text text-anchor="end" x="244.20000000000002" y="4.199999999999999" transform="translate(0,217)" style="font-family: 'Open Sans', verdana, arial, sans-serif; font-size: 12px; fill: rgb(36, 36, 36); fill-opacity: 1; white-space: pre; opacity: 1;">−0.6</text></g><g class="y2tick"><text text-anchor="end" x="244.20000000000002" y="4.199999999999999" style="font-family: 'Open Sans', verdana, arial, sans-serif; font-size: 12px; fill: rgb(36, 36, 36); fill-opacity: 1; white-space: pre; opacity: 1;" transform="translate(0,182.5)">−0.4</text></g><g class="y2tick"><text text-anchor="end" x="244.20000000000002" y="4.199999999999999" style="font-family: 'Open Sans', verdana, arial, sans-serif; font-size: 12px; fill: rgb(36, 36, 36); fill-opacity: 1; white-space: pre; opacity: 1;" transform="translate(0,148)">−0.2</text></g><g class="y2tick"><text text-anchor="end" x="244.20000000000002" y="4.199999999999999" style="font-family: 'Open Sans', verdana, arial, sans-serif; font-size: 12px; fill: rgb(36, 36, 36); fill-opacity: 1; white-space: pre; opacity: 1;" transform="translate(0,113.5)">0</text></g><g class="y2tick"><text text-anchor="end" x="244.20000000000002" y="4.199999999999999" style="font-family: 'Open Sans', verdana, arial, sans-serif; font-size: 12px; fill: rgb(36, 36, 36); fill-opacity: 1; white-space: pre; opacity: 1;" transform="translate(0,79)">0.2</text></g><g class="y2tick"><text text-anchor="end" x="244.20000000000002" y="4.199999999999999" style="font-family: 'Open Sans', verdana, arial, sans-serif; font-size: 12px; fill: rgb(36, 36, 36); fill-opacity: 1; white-space: pre; opacity: 1;" transform="translate(0,44.5)">0.4</text></g><g class="y2tick"><text text-anchor="end" x="244.20000000000002" y="4.199999999999999" style="font-family: 'Open Sans', verdana, arial, sans-serif; font-size: 12px; fill: rgb(36, 36, 36); fill-opacity: 1; white-space: pre; opacity: 1;" transform="translate(0,10)">0.6</text></g></g><g class="overaxes-above"/></g></g><g class="polarlayer"/><g class="smithlayer"/><g class="ternarylayer"/><g class="geolayer"/><g class="funnelarealayer"/><g class="pielayer"/><g class="iciclelayer"/><g class="treemaplayer"/><g class="sunburstlayer"/><g class="glimages"/><defs id="topdefs-9c48ea"><g class="clips"/></defs><g class="layer-above"><g class="imagelayer"/><g class="shapelayer"/></g><g class="infolayer"><g class="g-gtitle"/><g class="g-xtitle"/><g class="g-x2title"/><g class="g-ytitle"/><g class="g-y2title"/><g class="annotation" data-index="0" style="opacity: 1;"><g class="annotation-text-g" transform="rotate(0,281.56,35.879999999999995)"><g class="cursor-pointer" transform="translate(264,26)"><rect class="bg" x="0.5" y="0.5" width="35" height="18" style="stroke-width: 1px; stroke: rgb(0, 0, 0); stroke-opacity: 0; fill: rgb(0, 0, 0); fill-opacity: 0;"/><text class="annotation-text" text-anchor="middle" x="17.796875" y="14" style="font-family: 'Open Sans', verdana, arial, sans-serif; font-size: 12px; fill: rgb(36, 36, 36); fill-opacity: 1; white-space: pre;">noise</text></g></g></g></g></svg>