<svg class="main-svg" xmlns="http://www.w3.org/2000/svg" xmlns:xlink="http://www.w3.org/1999/xlink" width="450" height="250" style="" viewBox="0 0 450 250"><rect x="0" y="0" width="450" height="250" style="fill: rgb(255, 255, 255); fill-opacity: 1;"/><defs id="defs-6675fd"><g class="clips"><clipPath id="clip6675fdxyplot" class="plotclip"><rect width="186.3" height="198"/></clipPath><clipPath id="clip6675fdx2y2plot" class="plotclip"><rect width="186.29999999999998" height="198"/></clipPath><clipPath class="axesclip" id="clip6675fdx"><rect x="25" y="0" width="186.3" height="250"/></clipPath><clipPath class="axesclip" id="clip6675fdy"><rect x="0" y="18" width="450" height="198"/></clipPath><clipPath class="axesclip" id="clip6675fdxy"><rect x="25" y="18" width="186.3" height="198"/></clipPath><clipPath class="axesclip" id="clip6675fdy2"><rect x="0" y="18" width="450" height="198"/></clipPath><clipPath class="axesclip" id="clip6675fdxy2"><rect x="25" y="18" width="186.3" height="198"/></clipPath><clipPath class="axesclip" id="clip6675fdx2"><rect x="252.70000000000002" y="0" width="186.29999999999998" height="250"/></clipPath><clipPath class="axesclip" id="clip6675fdx2y"><rect x="252.70000000000002" y="18" width="186.29999999999998" height="198"/></clipPath><clipPath class="axesclip" id="clip6675fdx2y2"><rect x="252.70000000000002" y="18" width="186.29999999999998" height="198"/></clipPath></g><g class="gradients"/><g class="patterns"/></defs><g class="bglayer"/><g class="layer-below"><g class="imagelayer"/><g class="shapelayer"/></g><g class="cartesianlayer"><g class="subplot xy"><g class="layer-subplot"><g class="shapelayer"/><g class="imagelayer"/></g><g class="gridlayer"><g class="x"><path class="xgrid crisp" transform="translate(37.22,0)" d="M0,18v198" style="stroke: rgb(232, 232, 232); stroke-opacity: 1; stroke-width: 1px;"/><path class="xgrid crisp" transform="translate(121.52,0)" d="M0,18v198" style="stroke: rgb(232, 232, 232); stroke-opacity: 1; stroke-width: 1px;"/><path class="xgrid crisp" transform="translate(205.82,0)" d="M0,18v198" style="stroke: rgb(232, 232, 232); stroke-opacity: 1; stroke-width: 1px;"/></g><g class="y"><path class="ygrid crisp" transform="translate(0,206.1)" d="M25,0h186.3" style="stroke: rgb(232, 232, 232); stroke-opacity: 1; stroke-width: 1px;"/><path class="ygrid crisp" transform="translate(0,161.21)" d="M25,0h186.3" style="stroke: rgb(232, 232, 232); stroke-opacity: 1; stroke-width: 1px;"/><path class="ygrid crisp" transform="translate(0,116.32)" d="M25,0h186.3" style="stroke: rgb(232, 232, 232); stroke-opacity: 1; stroke-width: 1px;"/><path class="ygrid crisp" transform="translate(0,71.43)" d="M25,0h186.3" style="stroke: rgb(232, 232, 232); stroke-opacity: 1; stroke-width: 1px;"/><path class="ygrid crisp" transform="translate(0,26.54)" d="M25,0h186.3" style="stroke: rgb(232, 232, 232); stroke-opacity: 1; stroke-width: 1px;"/></g></g><g class="zerolinelayer"/><path class="xlines-below"/><path class="ylines-below"/><g class="overlines-below"/><g class="xaxislayer-below"/><g class="yaxislayer-below"/><g class="overaxes-below"/><g class="plot" transform="translate(25,18)" clip-path="url(#clip6675fdxyplot)"><g class="scatterlayer mlayer"><g class="trace scatter trace27b9ee" style="stroke-miterlimit: 2; opacity: 1;"><g class="fills"/><g class="errorbars"/><g class="lines"/><g class="points"><path class="point" transform="translate(98.21,179.17)" d="M3,0A3,3 0 1,1 0,-3A3,3 0 0,1 3,0Z" style="opacity: 1; stroke-width: 0px; fill: rgb(153, 157, 160); fill-opacity: 1;"/><path class="point" transform="translate(163.12,37)" d="M3,0A3,3 0 1,1 0,-3A3,3 0 0,1 3,0Z" style="opacity: 1; stroke-width: 0px; fill: rgb(153, 157, 160); fill-opacity: 1;"/><path class="point" transform="translate(89.78,163.76)" d="M3,0A3,3 0 1,1 0,-3A3,3 0 0,1 3,0Z" style="opacity: 1; stroke-width: 0px; fill: rgb(153, 157, 160); fill-opacity: 1;"/><path class="point" transform="translate(24.02,159.64)" d="M3,0A3,3 0 1,1 0,-3A3,3 0 0,1 3,0Z" style="opacity: 1; stroke-width: 0px; fill: rgb(153, 157, 160); fill-opacity: 1;"/><path class="point" transform="translate(101.58,143.94)" d="M3,0A3,3 0 1,1 0,-3A3,3 0 0,1 3,0Z" style="opacity: 1; stroke-width: 0px; fill: rgb(153, 157, 160); fill-opacity: 1;"/><path class="point" transform="translate(72.08,154.77)" d="M3,0A3,3 0 1,1 0,-3A3,3 0 0,1 3,0Z" style="opacity: 1; stroke-width: 0px; fill: rgb(153, 157, 160); fill-opacity: 1;"/><path class="point" transform="translate(170.71,63.87)" d="M3,0A3,3 0 1,1 0,-3A3,3 0 0,1 3,0Z" style="opacity: 1; stroke-width: 0px; fill: rgb(153, 157, 160); fill-opacity: 1;"/><path class="point" transform="translate(29.08,147.26)" d="M3,0A3,3 0 1,1 0,-3A3,3 0 0,1 3,0Z" style="opacity: 1; stroke-width: 0px; fill: rgb(153, 157, 160); fill-opacity: 1;"/><path class="point" transform="translate(98.21,155.9)" d="M3,0A3,3 0 1,1 0,-3A3,3 0 0,1 3,0Z" style="opacity: 1; stroke-width: 0px; fill: rgb(153, 157, 160); fill-opacity: 1;"/><path class="point" transform="translate(114.23,123.32)" d="M3,0A3,3 0 1,1 0,-3A3,3 0 0,1 3,0Z" style="opacity: 1; stroke-width: 0px; fill: rgb(153, 157, 160); fill-opacity: 1;"/><path class="point" transform="translate(74.6,174.43)" d="M3,0A3,3 0 1,1 0,-3A3,3 0 0,1 3,0Z" style="opacity: 1; stroke-width: 0px; fill: rgb(153, 157, 160); fill-opacity: 1;"/><path class="point" transform="translate(85.56,174.66)" d="M3,0A3,3 0 1,1 0,-3A3,3 0 0,1 3,0Z" style="opacity: 1; stroke-width: 0px; fill: rgb(153, 157, 160); fill-opacity: 1;"/><path class="point" transform="translate(110.01,134.99)" d="M3,0A3,3 0 1,1 0,-3A3,3 0 0,1 3,0Z" style="opacity: 1; stroke-width: 0px; fill: rgb(153, 157, 160); fill-opacity: 1;"/><path class="point" transform="translate(95.68,164.47)" d="M3,0A3,3 0 1,1 0,-3A3,3 0 0,1 3,0Z" style="opacity: 1; stroke-width: 0px; fill: rgb(153, 157, 160); fill-opacity: 1;"/><path class="point" transform="translate(99.05,160.99)" d="M3,0A3,3 0 1,1 0,-3A3,3 0 0,1 3,0Z" style="opacity: 1; stroke-width: 0px; fill: rgb(153, 157, 160); fill-opacity: 1;"/><path class="point" transform="translate(139.52,32.81)" d="M3,0A3,3 0 1,1 0,-3A3,3 0 0,1 3,0Z" style="opacity: 1; stroke-width: 0px; fill: rgb(153, 157, 160); fill-opacity: 1;"/><path class="point" transform="translate(121.81,84.64)" d="M3,0A3,3 0 1,1 0,-3A3,3 0 0,1 3,0Z" style="opacity: 1; stroke-width: 0px; fill: rgb(153, 157, 160); fill-opacity: 1;"/><path class="point" transform="translate(137.83,48.04)" d="M3,0A3,3 0 1,1 0,-3A3,3 0 0,1 3,0Z" style="opacity: 1; stroke-width: 0px; fill: rgb(153, 157, 160); fill-opacity: 1;"/><path class="point" transform="translate(56.06,138.09)" d="M3,0A3,3 0 1,1 0,-3A3,3 0 0,1 3,0Z" style="opacity: 1; stroke-width: 0px; fill: rgb(153, 157, 160); fill-opacity: 1;"/><path class="point" transform="translate(13.07,174.51)" d="M3,0A3,3 0 1,1 0,-3A3,3 0 0,1 3,0Z" style="opacity: 1; stroke-width: 0px; fill: rgb(153, 157, 160); fill-opacity: 1;"/><path class="point" transform="translate(85.56,164.44)" d="M3,0A3,3 0 1,1 0,-3A3,3 0 0,1 3,0Z" style="opacity: 1; stroke-width: 0px; fill: rgb(153, 157, 160); fill-opacity: 1;"/><path class="point" transform="translate(144.57,13.65)" d="M3,0A3,3 0 1,1 0,-3A3,3 0 0,1 3,0Z" style="opacity: 1; stroke-width: 0px; fill: rgb(153, 157, 160); fill-opacity: 1;"/><path class="point" transform="translate(43.41,117.67)" d="M3,0A3,3 0 1,1 0,-3A3,3 0 0,1 3,0Z" style="opacity: 1; stroke-width: 0px; fill: rgb(153, 157, 160); fill-opacity: 1;"/><path class="point" transform="translate(120.97,79.05)" d="M3,0A3,3 0 1,1 0,-3A3,3 0 0,1 3,0Z" style="opacity: 1; stroke-width: 0px; fill: rgb(153, 157, 160); fill-opacity: 1;"/><path class="point" transform="translate(173.24,60.96)" d="M3,0A3,3 0 1,1 0,-3A3,3 0 0,1 3,0Z" style="opacity: 1; stroke-width: 0px; fill: rgb(153, 157, 160); fill-opacity: 1;"/><path class="point" transform="translate(169.86,58.06)" d="M3,0A3,3 0 1,1 0,-3A3,3 0 0,1 3,0Z" style="opacity: 1; stroke-width: 0px; fill: rgb(153, 157, 160); fill-opacity: 1;"/><path class="point" transform="translate(29.08,150.42)" d="M3,0A3,3 0 1,1 0,-3A3,3 0 0,1 3,0Z" style="opacity: 1; stroke-width: 0px; fill: rgb(153, 157, 160); fill-opacity: 1;"/><path class="point" transform="translate(147.1,29.48)" d="M3,0A3,3 0 1,1 0,-3A3,3 0 0,1 3,0Z" style="opacity: 1; stroke-width: 0px; fill: rgb(153, 157, 160); fill-opacity: 1;"/><path class="point" transform="translate(60.27,144.39)" d="M3,0A3,3 0 1,1 0,-3A3,3 0 0,1 3,0Z" style="opacity: 1; stroke-width: 0px; fill: rgb(153, 157, 160); fill-opacity: 1;"/><path class="point" transform="translate(29.92,139.63)" d="M3,0A3,3 0 1,1 0,-3A3,3 0 0,1 3,0Z" style="opacity: 1; stroke-width: 0px; fill: rgb(153, 157, 160); fill-opacity: 1;"/><path class="point" transform="translate(86.41,171.95)" d="M3,0A3,3 0 1,1 0,-3A3,3 0 0,1 3,0Z" style="opacity: 1; stroke-width: 0px; fill: rgb(153, 157, 160); fill-opacity: 1;"/><path class="point" transform="translate(52.69,127.93)" d="M3,0A3,3 0 1,1 0,-3A3,3 0 0,1 3,0Z" style="opacity: 1; stroke-width: 0px; fill: rgb(153, 157, 160); fill-opacity: 1;"/><path class="point" transform="translate(61.12,152.34)" d="M3,0A3,3 0 1,1 0,-3A3,3 0 0,1 3,0Z" style="opacity: 1; stroke-width: 0px; fill: rgb(153, 157, 160); fill-opacity: 1;"/><path class="point" transform="translate(154.69,44.3)" d="M3,0A3,3 0 1,1 0,-3A3,3 0 0,1 3,0Z" style="opacity: 1; stroke-width: 0px; fill: rgb(153, 157, 160); fill-opacity: 1;"/><path class="point" transform="translate(169.86,50.48)" d="M3,0A3,3 0 1,1 0,-3A3,3 0 0,1 3,0Z" style="opacity: 1; stroke-width: 0px; fill: rgb(153, 157, 160); fill-opacity: 1;"/><path class="point" transform="translate(24.02,143.67)" d="M3,0A3,3 0 1,1 0,-3A3,3 0 0,1 3,0Z" style="opacity: 1; stroke-width: 0px; fill: rgb(153, 157, 160); fill-opacity: 1;"/><path class="point" transform="translate(171.55,55.7)" d="M3,0A3,3 0 1,1 0,-3A3,3 0 0,1 3,0Z" style="opacity: 1; stroke-width: 0px; fill: rgb(153, 157, 160); fill-opacity: 1;"/><path class="point" transform="translate(171.55,60.41)" d="M3,0A3,3 0 1,1 0,-3A3,3 0 0,1 3,0Z" style="opacity: 1; stroke-width: 0px; fill: rgb(153, 157, 160); fill-opacity: 1;"/><path class="point" transform="translate(158.9,35.23)" d="M3,0A3,3 0 1,1 0,-3A3,3 0 0,1 3,0Z" style="opacity: 1; stroke-width: 0px; fill: rgb(153, 157, 160); fill-opacity: 1;"/><path class="point" transform="translate(171.55,59.81)" d="M3,0A3,3 0 1,1 0,-3A3,3 0 0,1 3,0Z" style="opacity: 1; stroke-width: 0px; fill: rgb(153, 157, 160); fill-opacity: 1;"/><path class="point" transform="translate(54.37,129.08)" d="M3,0A3,3 0 1,1 0,-3A3,3 0 0,1 3,0Z" style="opacity: 1; stroke-width: 0px; fill: rgb(153, 157, 160); fill-opacity: 1;"/><path class="point" transform="translate(102.42,141.66)" d="M3,0A3,3 0 1,1 0,-3A3,3 0 0,1 3,0Z" style="opacity: 1; stroke-width: 0px; fill: rgb(153, 157, 160); fill-opacity: 1;"/><path class="point" transform="translate(57.74,134.76)" d="M3,0A3,3 0 1,1 0,-3A3,3 0 0,1 3,0Z" style="opacity: 1; stroke-width: 0px; fill: rgb(153, 157, 160); fill-opacity: 1;"/><path class="point" transform="translate(65.33,152.97)" d="M3,0A3,3 0 1,1 0,-3A3,3 0 0,1 3,0Z" style="opacity: 1; stroke-width: 0px; fill: rgb(153, 157, 160); fill-opacity: 1;"/><path class="point" transform="translate(121.81,80.03)" d="M3,0A3,3 0 1,1 0,-3A3,3 0 0,1 3,0Z" style="opacity: 1; stroke-width: 0px; fill: rgb(153, 157, 160); fill-opacity: 1;"/><path class="point" transform="translate(54.37,116.49)" d="M3,0A3,3 0 1,1 0,-3A3,3 0 0,1 3,0Z" style="opacity: 1; stroke-width: 0px; fill: rgb(153, 157, 160); fill-opacity: 1;"/><path class="point" transform="translate(125.18,93.83)" d="M3,0A3,3 0 1,1 0,-3A3,3 0 0,1 3,0Z" style="opacity: 1; stroke-width: 0px; fill: rgb(153, 157, 160); fill-opacity: 1;"/><path class="point" transform="translate(29.08,131.13)" d="M3,0A3,3 0 1,1 0,-3A3,3 0 0,1 3,0Z" style="opacity: 1; stroke-width: 0px; fill: rgb(153, 157, 160); fill-opacity: 1;"/><path class="point" transform="translate(72.92,177.84)" d="M3,0A3,3 0 1,1 0,-3A3,3 0 0,1 3,0Z" style="opacity: 1; stroke-width: 0px; fill: rgb(153, 157, 160); fill-opacity: 1;"/><path class="point" transform="translate(152.16,26.22)" d="M3,0A3,3 0 1,1 0,-3A3,3 0 0,1 3,0Z" style="opacity: 1; stroke-width: 0px; fill: rgb(153, 157, 160); fill-opacity: 1;"/></g><g class="text"/></g><g class="trace scatter trace07690d" style="stroke-miterlimit: 2; opacity: 1;"><g class="fills"/><g class="errorbars"/><g class="lines"><path class="js-line" d="M12.22,188.1L24.14,149.42L25.85,144.76L30.96,132.91L32.66,129.74L37.77,122.88L39.47,121.49L42.88,120.09L44.58,120.06L47.99,121.27L49.69,122.48L54.8,128.14L56.5,130.61L65.02,145.47L66.72,148.64L75.23,162.96L76.94,165.22L82.05,170.1L83.75,170.99L87.16,171.53L88.86,171.15L92.26,169.03L93.97,167.28L97.37,162.43L99.08,159.36L104.19,147.73L105.89,143.14L114.4,116.39L116.11,110.57L129.73,65.79L131.43,61.07L136.54,48.99L138.25,45.74L143.36,38.6L145.06,37.12L148.46,35.54L150.17,35.42L153.57,36.46L155.28,37.59L160.39,43.06L162.09,45.47L168.9,57.05L170.6,60.21L180.82,77.85" style="vector-effect: non-scaling-stroke; fill: none; stroke: rgb(34, 32, 33); stroke-opacity: 1; stroke-width: 2px; opacity: 1; stroke-dasharray: 9px, 9px;"/></g><g class="points"/><g class="text"/></g></g></g><g class="overplot"/><path class="xlines-above crisp" d="M24,216.5H211.3" style="fill: none; stroke-width: 1px; stroke: rgb(36, 36, 36); stroke-opacity: 1;"/><path class="ylines-above crisp" d="M24.5,18V216" style="fill: none; stroke-width: 1px; stroke: rgb(36, 36, 36); stroke-opacity: 1;"/><g class="overlines-above"/><g class="xaxislayer-above"><path class="xtick ticks crisp" d="M0,217v5" transform="translate(37.22,0)" style="stroke: rgb(68, 68, 68); stroke-opacity: 1; stroke-width: 1px;"/><path class="xtick ticks crisp" d="M0,217v5" transform="translate(121.52,0)" style="stroke: rgb(68, 68, 68); stroke-opacity: 1; stroke-width: 1px;"/><path class="xtick ticks crisp" d="M0,217v5" transform="translate(205.82,0)" style="stroke: rgb(68, 68, 68); stroke-opacity: 1; stroke-width: 1px;"/><g class="xtick"><text text-anchor="middle" x="0" y="236.4" transform="translate(37.22,0)" style="font-family: 'Open Sans', verdana, arial, sans-serif; font-size: 12px; fill: rgb(36, 36, 36); fill-opacity: 1; white-space: pre; opacity: 1;">0</text></g><g class="xtick"><text text-anchor="middle" x="0" y="236.4" style="font-family: 'Open Sans', verdana, arial, sans-serif; font-size: 12px; fill: rgb(36, 36, 36); fill-opacity: 1; white-space: pre; opacity: 1;" transform="translate(121.52,0)">5</text></g><g class="xtick"><text text-anchor="middle" x="0" y="236.4" style="font-family: 'Open Sans', verdana, arial, sans-serif; font-size: 12px; fill: rgb(36, 36, 36); fill-opacity: 1; white-space: pre; opacity: 1;" transform="translate(205.82,0)">10</text></g></g><g class="yaxislayer-above"><path class="ytick ticks crisp" d="M24,0h-5" transform="translate(0,206.1)" style="stroke: rgb(68, 68, 68); stroke-opacity: 1; stroke-width: 1px;"/><path class="ytick ticks crisp" d="M24,0h-5" transform="translate(0,161.21)" style="stroke: rgb(68, 68, 68); stroke-opacity: 1; stroke-width: 1px;"/><path class="ytick ticks crisp" d="M24,0h-5" transform="translate(0,116.32)" style="stroke: rgb(68, 68, 68); stroke-opacity: 1; stroke-width: 1px;"/><path class="ytick ticks crisp" d="M24,0h-5" transform="translate(0,71.43)" style="stroke: rgb(68, 68, 68); stroke-opacity: 1; stroke-width: 1px;"/><path class="ytick ticks crisp" d="M24,0h-5" transform="translate(0,26.54)" style="stroke: rgb(68, 68, 68); stroke-opacity: 1; stroke-width: 1px;"/><g class="ytick"><text text-anchor="end" x="16.6" y="4.199999999999999" transform="translate(0,206.1)" style="font-family: 'Open Sans', verdana, arial, sans-serif; font-size: 12px; fill: rgb(36, 36, 36); fill-opacity: 1; white-space: pre; opacity: 1;">0</text></g><g class="ytick"><text text-anchor="end" x="16.6" y="4.199999999999999" style="font-family: 'Open Sans', verdana, arial, sans-serif; font-size: 12px; fill: rgb(36, 36, 36); fill-opacity: 1; white-space: pre; opacity: 1;" transform="translate(0,161.21)">1</text></g><g class="ytick"><text text-anchor="end" x="16.6" y="4.199999999999999" style="font-family: 'Open Sans', verdana, arial, sans-serif; font-size: 12px; fill: rgb(36, 36, 36); fill-opacity: 1; white-space: pre; opacity: 1;" transform="translate(0,116.32)">2</text></g><g class="ytick"><text text-anchor="end" x="16.6" y="4.199999999999999" style="font-family: 'Open Sans', verdana, arial, sans-serif; font-size: 12px; fill: rgb(36, 36, 36); fill-opacity: 1; white-space: pre; opacity: 1;" transform="translate(0,71.43)">3</text></g><g class="ytick"><text text-anchor="end" x="16.6" y="4.199999999999999" style="font-family: 'Open Sans', verdana, arial, sans-serif; font-size: 12px; fill: rgb(36, 36, 36); fill-opacity: 1; white-space: pre; opacity: 1;" transform="translate(0,26.54)">4</text></g></g><g class="overaxes-above"/></g><g class="subplot x2y2"><g class="layer-subplot"><g class="shapelayer"/><g class="imagelayer"/></g><g class="gridlayer"><g class="x2"><path class="x2grid crisp" transform="translate(264.92,0)" d="M0,18v198" style="stroke: rgb(232, 232, 232); stroke-opacity: 1; stroke-width: 1px;"/><path class="x2grid crisp" transform="translate(349.22,0)" d="M0,18v198" style="stroke: rgb(232, 232, 232); stroke-opacity: 1; stroke-width: 1px;"/><path class="x2grid crisp" transform="translate(433.52,0)" d="M0,18v198" style="stroke: rgb(232, 232, 232); stroke-opacity: 1; stroke-width: 1px;"/></g><g class="y2"><path class="y2grid crisp" transform="translate(0,200.74)" d="M252.70000000000002,0h186.29999999999998" style="stroke: rgb(232, 232, 232); stroke-opacity: 1; stroke-width: 1px;"/><path class="y2grid crisp" transform="translate(0,164.42)" d="M252.70000000000002,0h186.29999999999998" style="stroke: rgb(232, 232, 232); stroke-opacity: 1; stroke-width: 1px;"/><path class="y2grid crisp" transform="translate(0,128.11)" d="M252.70000000000002,0h186.29999999999998" style="stroke: rgb(232, 232, 232); stroke-opacity: 1; stroke-width: 1px;"/><path class="y2grid crisp" transform="translate(0,91.79)" d="M252.70000000000002,0h186.29999999999998" style="stroke: rgb(232, 232, 232); stroke-opacity: 1; stroke-width: 1px;"/><path class="y2grid crisp" transform="translate(0,55.47)" d="M252.70000000000002,0h186.29999999999998" style="stroke: rgb(232, 232, 232); stroke-opacity: 1; stroke-width: 1px;"/><path class="y2grid crisp" transform="translate(0,19.16)" d="M252.70000000000002,0h186.29999999999998" style="stroke: rgb(232, 232, 232); stroke-opacity: 1; stroke-width: 1px;"/></g></g><g class="zerolinelayer"/><path class="xlines-below"/><path class="ylines-below"/><g class="overlines-below"/><g class="xaxislayer-below"/><g class="yaxislayer-below"/><g class="overaxes-below"/><g class="plot" transform="translate(252.70000000000002,18)" clip-path="url(#clip6675fdx2y2plot)"><g class="scatterlayer mlayer"><g class="trace scatter trace242e68" style="stroke-miterlimit: 2; opacity: 1;"><g class="fills"/><g class="errorbars"/><g class="lines"/><g class="points"><path class="point" transform="translate(98.21,183.71)" d="M3,0A3,3 0 1,1 0,-3A3,3 0 0,1 3,0Z" style="opacity: 1; stroke-width: 0px; fill: rgb(153, 157, 160); fill-opacity: 1;"/><path class="point" transform="translate(163.12,69.45)" d="M3,0A3,3 0 1,1 0,-3A3,3 0 0,1 3,0Z" style="opacity: 1; stroke-width: 0px; fill: rgb(153, 157, 160); fill-opacity: 1;"/><path class="point" transform="translate(89.78,81.81)" d="M3,0A3,3 0 1,1 0,-3A3,3 0 0,1 3,0Z" style="opacity: 1; stroke-width: 0px; fill: rgb(153, 157, 160); fill-opacity: 1;"/><path class="point" transform="translate(24.02,150.09)" d="M3,0A3,3 0 1,1 0,-3A3,3 0 0,1 3,0Z" style="opacity: 1; stroke-width: 0px; fill: rgb(153, 157, 160); fill-opacity: 1;"/><path class="point" transform="translate(101.58,69.06)" d="M3,0A3,3 0 1,1 0,-3A3,3 0 0,1 3,0Z" style="opacity: 1; stroke-width: 0px; fill: rgb(153, 157, 160); fill-opacity: 1;"/><path class="point" transform="translate(72.08,96.56)" d="M3,0A3,3 0 1,1 0,-3A3,3 0 0,1 3,0Z" style="opacity: 1; stroke-width: 0px; fill: rgb(153, 157, 160); fill-opacity: 1;"/><path class="point" transform="translate(170.71,124.14)" d="M3,0A3,3 0 1,1 0,-3A3,3 0 0,1 3,0Z" style="opacity: 1; stroke-width: 0px; fill: rgb(153, 157, 160); fill-opacity: 1;"/><path class="point" transform="translate(29.08,152.19)" d="M3,0A3,3 0 1,1 0,-3A3,3 0 0,1 3,0Z" style="opacity: 1; stroke-width: 0px; fill: rgb(153, 157, 160); fill-opacity: 1;"/><path class="point" transform="translate(98.21,89.55)" d="M3,0A3,3 0 1,1 0,-3A3,3 0 0,1 3,0Z" style="opacity: 1; stroke-width: 0px; fill: rgb(153, 157, 160); fill-opacity: 1;"/><path class="point" transform="translate(114.23,135.69)" d="M3,0A3,3 0 1,1 0,-3A3,3 0 0,1 3,0Z" style="opacity: 1; stroke-width: 0px; fill: rgb(153, 157, 160); fill-opacity: 1;"/><path class="point" transform="translate(74.6,160.15)" d="M3,0A3,3 0 1,1 0,-3A3,3 0 0,1 3,0Z" style="opacity: 1; stroke-width: 0px; fill: rgb(153, 157, 160); fill-opacity: 1;"/><path class="point" transform="translate(85.56,122.93)" d="M3,0A3,3 0 1,1 0,-3A3,3 0 0,1 3,0Z" style="opacity: 1; stroke-width: 0px; fill: rgb(153, 157, 160); fill-opacity: 1;"/><path class="point" transform="translate(110.01,126.86)" d="M3,0A3,3 0 1,1 0,-3A3,3 0 0,1 3,0Z" style="opacity: 1; stroke-width: 0px; fill: rgb(153, 157, 160); fill-opacity: 1;"/><path class="point" transform="translate(95.68,107.68)" d="M3,0A3,3 0 1,1 0,-3A3,3 0 0,1 3,0Z" style="opacity: 1; stroke-width: 0px; fill: rgb(153, 157, 160); fill-opacity: 1;"/><path class="point" transform="translate(99.05,116.51)" d="M3,0A3,3 0 1,1 0,-3A3,3 0 0,1 3,0Z" style="opacity: 1; stroke-width: 0px; fill: rgb(153, 157, 160); fill-opacity: 1;"/><path class="point" transform="translate(139.52,66.49)" d="M3,0A3,3 0 1,1 0,-3A3,3 0 0,1 3,0Z" style="opacity: 1; stroke-width: 0px; fill: rgb(153, 157, 160); fill-opacity: 1;"/><path class="point" transform="translate(121.81,84.74)" d="M3,0A3,3 0 1,1 0,-3A3,3 0 0,1 3,0Z" style="opacity: 1; stroke-width: 0px; fill: rgb(153, 157, 160); fill-opacity: 1;"/><path class="point" transform="translate(137.83,116.34)" d="M3,0A3,3 0 1,1 0,-3A3,3 0 0,1 3,0Z" style="opacity: 1; stroke-width: 0px; fill: rgb(153, 157, 160); fill-opacity: 1;"/><path class="point" transform="translate(56.06,143.05)" d="M3,0A3,3 0 1,1 0,-3A3,3 0 0,1 3,0Z" style="opacity: 1; stroke-width: 0px; fill: rgb(153, 157, 160); fill-opacity: 1;"/><path class="point" transform="translate(13.07,66.94)" d="M3,0A3,3 0 1,1 0,-3A3,3 0 0,1 3,0Z" style="opacity: 1; stroke-width: 0px; fill: rgb(153, 157, 160); fill-opacity: 1;"/><path class="point" transform="translate(85.56,81.58)" d="M3,0A3,3 0 1,1 0,-3A3,3 0 0,1 3,0Z" style="opacity: 1; stroke-width: 0px; fill: rgb(153, 157, 160); fill-opacity: 1;"/><path class="point" transform="translate(144.57,13.65)" d="M3,0A3,3 0 1,1 0,-3A3,3 0 0,1 3,0Z" style="opacity: 1; stroke-width: 0px; fill: rgb(153, 157, 160); fill-opacity: 1;"/><path class="point" transform="translate(43.41,100.54)" d="M3,0A3,3 0 1,1 0,-3A3,3 0 0,1 3,0Z" style="opacity: 1; stroke-width: 0px; fill: rgb(153, 157, 160); fill-opacity: 1;"/><path class="point" transform="translate(120.97,50.48)" d="M3,0A3,3 0 1,1 0,-3A3,3 0 0,1 3,0Z" style="opacity: 1; stroke-width: 0px; fill: rgb(153, 157, 160); fill-opacity: 1;"/><path class="point" transform="translate(173.24,93.37)" d="M3,0A3,3 0 1,1 0,-3A3,3 0 0,1 3,0Z" style="opacity: 1; stroke-width: 0px; fill: rgb(153, 157, 160); fill-opacity: 1;"/><path class="point" transform="translate(169.86,106.98)" d="M3,0A3,3 0 1,1 0,-3A3,3 0 0,1 3,0Z" style="opacity: 1; stroke-width: 0px; fill: rgb(153, 157, 160); fill-opacity: 1;"/><path class="point" transform="translate(29.08,164.94)" d="M3,0A3,3 0 1,1 0,-3A3,3 0 0,1 3,0Z" style="opacity: 1; stroke-width: 0px; fill: rgb(153, 157, 160); fill-opacity: 1;"/><path class="point" transform="translate(147.1,83.9)" d="M3,0A3,3 0 1,1 0,-3A3,3 0 0,1 3,0Z" style="opacity: 1; stroke-width: 0px; fill: rgb(153, 157, 160); fill-opacity: 1;"/><path class="point" transform="translate(60.27,140.73)" d="M3,0A3,3 0 1,1 0,-3A3,3 0 0,1 3,0Z" style="opacity: 1; stroke-width: 0px; fill: rgb(153, 157, 160); fill-opacity: 1;"/><path class="point" transform="translate(29.92,128.75)" d="M3,0A3,3 0 1,1 0,-3A3,3 0 0,1 3,0Z" style="opacity: 1; stroke-width: 0px; fill: rgb(153, 157, 160); fill-opacity: 1;"/><path class="point" transform="translate(86.41,111.69)" d="M3,0A3,3 0 1,1 0,-3A3,3 0 0,1 3,0Z" style="opacity: 1; stroke-width: 0px; fill: rgb(153, 157, 160); fill-opacity: 1;"/><path class="point" transform="translate(52.69,120.1)" d="M3,0A3,3 0 1,1 0,-3A3,3 0 0,1 3,0Z" style="opacity: 1; stroke-width: 0px; fill: rgb(153, 157, 160); fill-opacity: 1;"/><path class="point" transform="translate(61.12,166.87)" d="M3,0A3,3 0 1,1 0,-3A3,3 0 0,1 3,0Z" style="opacity: 1; stroke-width: 0px; fill: rgb(153, 157, 160); fill-opacity: 1;"/><path class="point" transform="translate(154.69,139)" d="M3,0A3,3 0 1,1 0,-3A3,3 0 0,1 3,0Z" style="opacity: 1; stroke-width: 0px; fill: rgb(153, 157, 160); fill-opacity: 1;"/><path class="point" transform="translate(169.86,76.31)" d="M3,0A3,3 0 1,1 0,-3A3,3 0 0,1 3,0Z" style="opacity: 1; stroke-width: 0px; fill: rgb(153, 157, 160); fill-opacity: 1;"/><path class="point" transform="translate(24.02,85.49)" d="M3,0A3,3 0 1,1 0,-3A3,3 0 0,1 3,0Z" style="opacity: 1; stroke-width: 0px; fill: rgb(153, 157, 160); fill-opacity: 1;"/><path class="point" transform="translate(171.55,84.74)" d="M3,0A3,3 0 1,1 0,-3A3,3 0 0,1 3,0Z" style="opacity: 1; stroke-width: 0px; fill: rgb(153, 157, 160); fill-opacity: 1;"/><path class="point" transform="translate(171.55,103.8)" d="M3,0A3,3 0 1,1 0,-3A3,3 0 0,1 3,0Z" style="opacity: 1; stroke-width: 0px; fill: rgb(153, 157, 160); fill-opacity: 1;"/><path class="point" transform="translate(158.9,86.05)" d="M3,0A3,3 0 1,1 0,-3A3,3 0 0,1 3,0Z" style="opacity: 1; stroke-width: 0px; fill: rgb(153, 157, 160); fill-opacity: 1;"/><path class="point" transform="translate(171.55,101.35)" d="M3,0A3,3 0 1,1 0,-3A3,3 0 0,1 3,0Z" style="opacity: 1; stroke-width: 0px; fill: rgb(153, 157, 160); fill-opacity: 1;"/><path class="point" transform="translate(54.37,116.21)" d="M3,0A3,3 0 1,1 0,-3A3,3 0 0,1 3,0Z" style="opacity: 1; stroke-width: 0px; fill: rgb(153, 157, 160); fill-opacity: 1;"/><path class="point" transform="translate(102.42,67.81)" d="M3,0A3,3 0 1,1 0,-3A3,3 0 0,1 3,0Z" style="opacity: 1; stroke-width: 0px; fill: rgb(153, 157, 160); fill-opacity: 1;"/><path class="point" transform="translate(57.74,119.03)" d="M3,0A3,3 0 1,1 0,-3A3,3 0 0,1 3,0Z" style="opacity: 1; stroke-width: 0px; fill: rgb(153, 157, 160); fill-opacity: 1;"/><path class="point" transform="translate(65.33,138.06)" d="M3,0A3,3 0 1,1 0,-3A3,3 0 0,1 3,0Z" style="opacity: 1; stroke-width: 0px; fill: rgb(153, 157, 160); fill-opacity: 1;"/><path class="point" transform="translate(121.81,66.08)" d="M3,0A3,3 0 1,1 0,-3A3,3 0 0,1 3,0Z" style="opacity: 1; stroke-width: 0px; fill: rgb(153, 157, 160); fill-opacity: 1;"/><path class="point" transform="translate(54.37,65.31)" d="M3,0A3,3 0 1,1 0,-3A3,3 0 0,1 3,0Z" style="opacity: 1; stroke-width: 0px; fill: rgb(153, 157, 160); fill-opacity: 1;"/><path class="point" transform="translate(125.18,167.27)" d="M3,0A3,3 0 1,1 0,-3A3,3 0 0,1 3,0Z" style="opacity: 1; stroke-width: 0px; fill: rgb(153, 157, 160); fill-opacity: 1;"/><path class="point" transform="translate(29.08,86.94)" d="M3,0A3,3 0 1,1 0,-3A3,3 0 0,1 3,0Z" style="opacity: 1; stroke-width: 0px; fill: rgb(153, 157, 160); fill-opacity: 1;"/><path class="point" transform="translate(72.92,184.35)" d="M3,0A3,3 0 1,1 0,-3A3,3 0 0,1 3,0Z" style="opacity: 1; stroke-width: 0px; fill: rgb(153, 157, 160); fill-opacity: 1;"/><path class="point" transform="translate(152.16,71.27)" d="M3,0A3,3 0 1,1 0,-3A3,3 0 0,1 3,0Z" style="opacity: 1; stroke-width: 0px; fill: rgb(153, 157, 160); fill-opacity: 1;"/></g><g class="text"/></g><g class="trace scatter trace0f1b0f" style="stroke-miterlimit: 2; opacity: 1;"><g class="fills"/><g class="errorbars"/><g class="lines"><path class="js-line" d="M12.22,110.11L180.82,110.11" style="vector-effect: non-scaling-stroke; fill: none; stroke: rgb(34, 32, 33); stroke-opacity: 1; stroke-width: 2px; opacity: 1;"/></g><g class="points"/><g class="text"/></g></g></g><g class="overplot"/><path class="xlines-above crisp" d="M251.70000000000002,216.5H439" style="fill: none; stroke-width: 1px; stroke: rgb(36, 36, 36); stroke-opacity: 1;"/><path class="ylines-above crisp" d="M252.20000000000002,18V216" style="fill: none; stroke-width: 1px; stroke: rgb(36, 36, 36); stroke-opacity: 1;"/><g class="overlines-above"/><g class="xaxislayer-above"><path class="x2tick ticks crisp" d="M0,217v5" transform="translate(264.92,0)" style="stroke: rgb(68, 68, 68); stroke-opacity: 1; stroke-width: 1px;"/><path class="x2tick ticks crisp" d="M0,217v5" transform="translate(349.22,0)" style="stroke: rgb(68, 68, 68); stroke-opacity: 1; stroke-width: 1px;"/><path class="x2tick ticks crisp" d="M0,217v5" transform="translate(433.52,0)" style="stroke: rgb(68, 68, 68); stroke-opacity: 1; stroke-width: 1px;"/><g class="x2tick"><text text-anchor="middle" x="0" y="236.4" transform="translate(264.92,0)" style="font-family: 'Open Sans', verdana, arial, sans-serif; font-size: 12px; fill: rgb(36, 36, 36); fill-opacity: 1; white-space: pre; opacity: 1;">0</text></g><g class="x2tick"><text text-anchor="middle" x="0" y="236.4" style="font-family: 'Open Sans', verdana, arial, sans-serif; font-size: 12px; fill: rgb(36, 36, 36); fill-opacity: 1; white-space: pre; opacity: 1;" transform="translate(349.22,0)">5</text></g><g class="x2tick"><text text-anchor="middle" x="0" y="236.4" style="font-family: 'Open Sans', verdana, arial, sans-serif; font-size: 12px; fill: rgb(36, 36, 36); fill-opacity: 1; white-space: pre; opacity: 1;" transform="translate(433.52,0)">10</text></g></g><g class="yaxislayer-above"><path class="y2tick ticks crisp" d="M251.70000000000002,0h-5" transform="translate(0,200.74)" style="stroke: rgb(68, 68, 68); stroke-opacity: 1; stroke-width: 1px;"/><path class="y2tick ticks crisp" d="M251.70000000000002,0h-5" transform="translate(0,164.42)" style="stroke: rgb(68, 68, 68); stroke-opacity: 1; stroke-width: 1px;"/><path class="y2tick ticks crisp" d="M251.70000000000002,0h-5" transform="translate(0,128.11)" style="stroke: rgb(68, 68, 68); stroke-opacity: 1; stroke-width: 1px;"/><path class="y2tick ticks crisp" d="M251.70000000000002,0h-5" transform="translate(0,91.79)" style="stroke: rgb(68, 68, 68); stroke-opacity: 1; stroke-width: 1px;"/><path class="y2tick ticks crisp" d="M251.70000000000002,0h-5" transform="translate(0,55.47)" style="stroke: rgb(68, 68, 68); stroke-opacity: 1; stroke-width: 1px;"/><path class="y2tick ticks crisp" d="M251.70000000000002,0h-5" transform="translate(0,19.16)" style="stroke: rgb(68, 68, 68); stroke-opacity: 1; stroke-width: 1px;"/><g class="y2tick"><text text-anchor="end" x="244.3" y="4.199999999999999" transform="translate(0,200.74)" style="font-family: 'Open Sans', verdana, arial, sans-serif; font-size: 12px; fill: rgb(36, 36, 36); fill-opacity: 1; white-space: pre; opacity: 1;">−0.4</text></g><g class="y2tick"><text text-anchor="end" x="244.3" y="4.199999999999999" style="font-family: 'Open Sans', verdana, arial, sans-serif; font-size: 12px; fill: rgb(36, 36, 36); fill-opacity: 1; white-space: pre; opacity: 1;" transform="translate(0,164.42)">−0.2</text></g><g class="y2tick"><text text-anchor="end" x="244.3" y="4.199999999999999" style="font-family: 'Open Sans', verdana, arial, sans-serif; font-size: 12px; fill: rgb(36, 36, 36); fill-opacity: 1; white-space: pre; opacity: 1;" transform="translate(0,128.11)">0</text></g><g class="y2tick"><text text-anchor="end" x="244.3" y="4.199999999999999" style="font-family: 'Open Sans', verdana, arial, sans-serif; font-size: 12px; fill: rgb(36, 36, 36); fill-opacity: 1; white-space: pre; opacity: 1;" transform="translate(0,91.79)">0.2</text></g><g class="y2tick"><text text-anchor="end" x="244.3" y="4.199999999999999" style="font-family: 'Open Sans', verdana, arial, sans-serif; font-size: 12px; fill: rgb(36, 36, 36); fill-opacity: 1; white-space: pre; opacity: 1;" transform="translate(0,55.47)">0.4</text></g><g class="y2tick"><text text-anchor="end" x="244.3" y="4.199999999999999" style="font-family: 'Open Sans', verdana, arial, sans-serif; font-size: 12px; fill: rgb(36, 36, 36); fill-opacity: 1; white-space: pre; opacity: 1;" transform="translate(0,19.16)">0.6</text></g></g><g class="overaxes-above"/></g></g><g class="polarlayer"/><g class="smithlayer"/><g class="ternarylayer"/><g class="geolayer"/><g class="funnelarealayer"/><g class="pielayer"/><g class="iciclelayer"/><g class="treemaplayer"/><g class="sunburstlayer"/><g class="glimages"/><defs id="topdefs-6675fd"><g class="clips"/></defs><g class="layer-above"><g class="imagelayer"/><g class="shapelayer"/></g><g class="infolayer"><g class="g-gtitle"/><g class="g-xtitle"/><g class="g-x2title"/><g class="g-ytitle"/><g class="g-y2title"/><g class="annotation" data-index="0" style="opacity: 1;"><g class="annotation-text-g" transform="rotate(0,281.78000000000003,46.39)"><g class="cursor-pointer" transform="translate(265,36)"><rect class="bg" x="0.5" y="0.5" width="32" height="20" style="stroke-width: 1px; stroke: rgb(0, 0, 0); stroke-opacity: 0; fill: rgb(0, 0, 0); fill-opacity: 0;"/><text class="annotation-text" text-anchor="middle" x="16.34375" y="15" style="font-family: 'Open Sans', verdana, arial, sans-serif; font-size: 12px; fill: rgb(36, 36, 36); fill-opacity: 1; white-space: pre;">error</text></g></g></g></g></svg>