<svg class="main-svg" xmlns="http://www.w3.org/2000/svg" xmlns:xlink="http://www.w3.org/1999/xlink" width="500" height="300" style="" viewBox="0 0 500 300"><rect x="0" y="0" width="500" height="300" style="fill: rgb(255, 255, 255); fill-opacity: 1;"/><defs id="defs-bccc51"><g class="clips"><clipPath id="clipbccc51xyplot" class="plotclip"><rect width="206.1" height="252"/></clipPath><clipPath id="clipbccc51x2y2plot" class="plotclip"><rect width="206.09999999999997" height="252"/></clipPath><clipPath class="axesclip" id="clipbccc51x"><rect x="25" y="0" width="206.1" height="300"/></clipPath><clipPath class="axesclip" id="clipbccc51y"><rect x="0" y="14" width="500" height="252"/></clipPath><clipPath class="axesclip" id="clipbccc51xy"><rect x="25" y="14" width="206.1" height="252"/></clipPath><clipPath class="axesclip" id="clipbccc51y2"><rect x="0" y="14" width="500" height="252"/></clipPath><clipPath class="axesclip" id="clipbccc51xy2"><rect x="25" y="14" width="206.1" height="252"/></clipPath><clipPath class="axesclip" id="clipbccc51x2"><rect x="276.90000000000003" y="0" width="206.09999999999997" height="300"/></clipPath><clipPath class="axesclip" id="clipbccc51x2y"><rect x="276.90000000000003" y="14" width="206.09999999999997" height="252"/></clipPath><clipPath class="axesclip" id="clipbccc51x2y2"><rect x="276.90000000000003" y="14" width="206.09999999999997" height="252"/></clipPath></g><g class="gradients"/><g class="patterns"/></defs><g class="bglayer"/><g class="layer-below"><g class="imagelayer"/><g class="shapelayer"/></g><g class="cartesianlayer"><g class="subplot xy"><g class="layer-subplot"><g class="shapelayer"/><g class="imagelayer"/></g><g class="gridlayer"><g class="x"><path class="xgrid crisp" transform="translate(38.12,0)" d="M0,14v252" style="stroke: rgb(232, 232, 232); stroke-opacity: 1; stroke-width: 1px;"/><path class="xgrid crisp" transform="translate(131.8,0)" d="M0,14v252" style="stroke: rgb(232, 232, 232); stroke-opacity: 1; stroke-width: 1px;"/><path class="xgrid crisp" transform="translate(225.48,0)" d="M0,14v252" style="stroke: rgb(232, 232, 232); stroke-opacity: 1; stroke-width: 1px;"/></g><g class="y"><path class="ygrid crisp" transform="translate(0,261.48)" d="M25,0h206.1" style="stroke: rgb(232, 232, 232); stroke-opacity: 1; stroke-width: 1px;"/><path class="ygrid crisp" transform="translate(0,202)" d="M25,0h206.1" style="stroke: rgb(232, 232, 232); stroke-opacity: 1; stroke-width: 1px;"/><path class="ygrid crisp" transform="translate(0,142.53)" d="M25,0h206.1" style="stroke: rgb(232, 232, 232); stroke-opacity: 1; stroke-width: 1px;"/><path class="ygrid crisp" transform="translate(0,83.06)" d="M25,0h206.1" style="stroke: rgb(232, 232, 232); stroke-opacity: 1; stroke-width: 1px;"/><path class="ygrid crisp" transform="translate(0,23.58)" d="M25,0h206.1" style="stroke: rgb(232, 232, 232); stroke-opacity: 1; stroke-width: 1px;"/></g></g><g class="zerolinelayer"/><path class="xlines-below"/><path class="ylines-below"/><g class="overlines-below"/><g class="xaxislayer-below"/><g class="yaxislayer-below"/><g class="overaxes-below"/><g class="plot" transform="translate(25,14)" clip-path="url(#clipbccc51xyplot)"><g class="scatterlayer mlayer"><g class="trace scatter traceaac010" style="stroke-miterlimit: 2; opacity: 1;"><g class="fills"/><g class="errorbars"/><g class="lines"><path class="js-line" d="M13.12,189.35L22.58,194.3L24.47,195.12L33.94,198.33L35.83,198.8L45.29,200.27L47.18,200.39L56.65,200.12L58.54,199.89L68,197.89L69.89,197.31L79.36,193.56L81.25,192.64L90.71,187.15L92.6,185.88L103.96,177.03L105.85,175.36L117.21,164.07L119.1,161.99L130.45,148.27L132.35,145.78L145.59,126.73L147.49,123.78L160.73,101.48L162.63,98.06L175.87,72.52L177.77,68.64L192.91,35.5L194.8,31.1L200.48,17.54" style="vector-effect: non-scaling-stroke; fill: none; stroke: rgb(34, 32, 33); stroke-opacity: 1; stroke-width: 2px; opacity: 1;"/></g><g class="points"/><g class="text"/></g><g class="trace scatter trace76a3b0" style="stroke-miterlimit: 2; opacity: 1;"><g class="fills"/><g class="errorbars"/><g class="lines"/><g class="points"><path class="point" transform="translate(108.67,235.65)" d="M3,0A3,3 0 1,1 0,-3A3,3 0 0,1 3,0Z" style="opacity: 1; stroke-width: 0px; fill: rgb(153, 157, 160); fill-opacity: 1;"/><path class="point" transform="translate(180.8,47.29)" d="M3,0A3,3 0 1,1 0,-3A3,3 0 0,1 3,0Z" style="opacity: 1; stroke-width: 0px; fill: rgb(153, 157, 160); fill-opacity: 1;"/><path class="point" transform="translate(99.3,215.23)" d="M3,0A3,3 0 1,1 0,-3A3,3 0 0,1 3,0Z" style="opacity: 1; stroke-width: 0px; fill: rgb(153, 157, 160); fill-opacity: 1;"/><path class="point" transform="translate(26.23,209.77)" d="M3,0A3,3 0 1,1 0,-3A3,3 0 0,1 3,0Z" style="opacity: 1; stroke-width: 0px; fill: rgb(153, 157, 160); fill-opacity: 1;"/><path class="point" transform="translate(112.42,188.97)" d="M3,0A3,3 0 1,1 0,-3A3,3 0 0,1 3,0Z" style="opacity: 1; stroke-width: 0px; fill: rgb(153, 157, 160); fill-opacity: 1;"/><path class="point" transform="translate(79.63,203.32)" d="M3,0A3,3 0 1,1 0,-3A3,3 0 0,1 3,0Z" style="opacity: 1; stroke-width: 0px; fill: rgb(153, 157, 160); fill-opacity: 1;"/><path class="point" transform="translate(189.23,82.88)" d="M3,0A3,3 0 1,1 0,-3A3,3 0 0,1 3,0Z" style="opacity: 1; stroke-width: 0px; fill: rgb(153, 157, 160); fill-opacity: 1;"/><path class="point" transform="translate(31.85,193.37)" d="M3,0A3,3 0 1,1 0,-3A3,3 0 0,1 3,0Z" style="opacity: 1; stroke-width: 0px; fill: rgb(153, 157, 160); fill-opacity: 1;"/><path class="point" transform="translate(108.67,204.81)" d="M3,0A3,3 0 1,1 0,-3A3,3 0 0,1 3,0Z" style="opacity: 1; stroke-width: 0px; fill: rgb(153, 157, 160); fill-opacity: 1;"/><path class="point" transform="translate(126.47,161.65)" d="M3,0A3,3 0 1,1 0,-3A3,3 0 0,1 3,0Z" style="opacity: 1; stroke-width: 0px; fill: rgb(153, 157, 160); fill-opacity: 1;"/><path class="point" transform="translate(82.44,229.36)" d="M3,0A3,3 0 1,1 0,-3A3,3 0 0,1 3,0Z" style="opacity: 1; stroke-width: 0px; fill: rgb(153, 157, 160); fill-opacity: 1;"/><path class="point" transform="translate(94.62,229.67)" d="M3,0A3,3 0 1,1 0,-3A3,3 0 0,1 3,0Z" style="opacity: 1; stroke-width: 0px; fill: rgb(153, 157, 160); fill-opacity: 1;"/><path class="point" transform="translate(121.79,177.11)" d="M3,0A3,3 0 1,1 0,-3A3,3 0 0,1 3,0Z" style="opacity: 1; stroke-width: 0px; fill: rgb(153, 157, 160); fill-opacity: 1;"/><path class="point" transform="translate(105.86,216.17)" d="M3,0A3,3 0 1,1 0,-3A3,3 0 0,1 3,0Z" style="opacity: 1; stroke-width: 0px; fill: rgb(153, 157, 160); fill-opacity: 1;"/><path class="point" transform="translate(109.61,211.56)" d="M3,0A3,3 0 1,1 0,-3A3,3 0 0,1 3,0Z" style="opacity: 1; stroke-width: 0px; fill: rgb(153, 157, 160); fill-opacity: 1;"/><path class="point" transform="translate(154.57,41.74)" d="M3,0A3,3 0 1,1 0,-3A3,3 0 0,1 3,0Z" style="opacity: 1; stroke-width: 0px; fill: rgb(153, 157, 160); fill-opacity: 1;"/><path class="point" transform="translate(134.9,110.4)" d="M3,0A3,3 0 1,1 0,-3A3,3 0 0,1 3,0Z" style="opacity: 1; stroke-width: 0px; fill: rgb(153, 157, 160); fill-opacity: 1;"/><path class="point" transform="translate(152.7,61.91)" d="M3,0A3,3 0 1,1 0,-3A3,3 0 0,1 3,0Z" style="opacity: 1; stroke-width: 0px; fill: rgb(153, 157, 160); fill-opacity: 1;"/><path class="point" transform="translate(61.83,181.22)" d="M3,0A3,3 0 1,1 0,-3A3,3 0 0,1 3,0Z" style="opacity: 1; stroke-width: 0px; fill: rgb(153, 157, 160); fill-opacity: 1;"/><path class="point" transform="translate(14.06,229.47)" d="M3,0A3,3 0 1,1 0,-3A3,3 0 0,1 3,0Z" style="opacity: 1; stroke-width: 0px; fill: rgb(153, 157, 160); fill-opacity: 1;"/><path class="point" transform="translate(94.62,216.13)" d="M3,0A3,3 0 1,1 0,-3A3,3 0 0,1 3,0Z" style="opacity: 1; stroke-width: 0px; fill: rgb(153, 157, 160); fill-opacity: 1;"/><path class="point" transform="translate(160.19,16.35)" d="M3,0A3,3 0 1,1 0,-3A3,3 0 0,1 3,0Z" style="opacity: 1; stroke-width: 0px; fill: rgb(153, 157, 160); fill-opacity: 1;"/><path class="point" transform="translate(47.78,154.16)" d="M3,0A3,3 0 1,1 0,-3A3,3 0 0,1 3,0Z" style="opacity: 1; stroke-width: 0px; fill: rgb(153, 157, 160); fill-opacity: 1;"/><path class="point" transform="translate(133.96,102.99)" d="M3,0A3,3 0 1,1 0,-3A3,3 0 0,1 3,0Z" style="opacity: 1; stroke-width: 0px; fill: rgb(153, 157, 160); fill-opacity: 1;"/><path class="point" transform="translate(192.04,79.03)" d="M3,0A3,3 0 1,1 0,-3A3,3 0 0,1 3,0Z" style="opacity: 1; stroke-width: 0px; fill: rgb(153, 157, 160); fill-opacity: 1;"/><path class="point" transform="translate(188.3,75.19)" d="M3,0A3,3 0 1,1 0,-3A3,3 0 0,1 3,0Z" style="opacity: 1; stroke-width: 0px; fill: rgb(153, 157, 160); fill-opacity: 1;"/><path class="point" transform="translate(31.85,197.55)" d="M3,0A3,3 0 1,1 0,-3A3,3 0 0,1 3,0Z" style="opacity: 1; stroke-width: 0px; fill: rgb(153, 157, 160); fill-opacity: 1;"/><path class="point" transform="translate(163,37.32)" d="M3,0A3,3 0 1,1 0,-3A3,3 0 0,1 3,0Z" style="opacity: 1; stroke-width: 0px; fill: rgb(153, 157, 160); fill-opacity: 1;"/><path class="point" transform="translate(66.52,189.56)" d="M3,0A3,3 0 1,1 0,-3A3,3 0 0,1 3,0Z" style="opacity: 1; stroke-width: 0px; fill: rgb(153, 157, 160); fill-opacity: 1;"/><path class="point" transform="translate(32.79,183.26)" d="M3,0A3,3 0 1,1 0,-3A3,3 0 0,1 3,0Z" style="opacity: 1; stroke-width: 0px; fill: rgb(153, 157, 160); fill-opacity: 1;"/><path class="point" transform="translate(95.56,226.08)" d="M3,0A3,3 0 1,1 0,-3A3,3 0 0,1 3,0Z" style="opacity: 1; stroke-width: 0px; fill: rgb(153, 157, 160); fill-opacity: 1;"/><path class="point" transform="translate(58.08,167.76)" d="M3,0A3,3 0 1,1 0,-3A3,3 0 0,1 3,0Z" style="opacity: 1; stroke-width: 0px; fill: rgb(153, 157, 160); fill-opacity: 1;"/><path class="point" transform="translate(67.45,200.1)" d="M3,0A3,3 0 1,1 0,-3A3,3 0 0,1 3,0Z" style="opacity: 1; stroke-width: 0px; fill: rgb(153, 157, 160); fill-opacity: 1;"/><path class="point" transform="translate(171.44,56.96)" d="M3,0A3,3 0 1,1 0,-3A3,3 0 0,1 3,0Z" style="opacity: 1; stroke-width: 0px; fill: rgb(153, 157, 160); fill-opacity: 1;"/><path class="point" transform="translate(188.3,65.14)" d="M3,0A3,3 0 1,1 0,-3A3,3 0 0,1 3,0Z" style="opacity: 1; stroke-width: 0px; fill: rgb(153, 157, 160); fill-opacity: 1;"/><path class="point" transform="translate(26.23,188.61)" d="M3,0A3,3 0 1,1 0,-3A3,3 0 0,1 3,0Z" style="opacity: 1; stroke-width: 0px; fill: rgb(153, 157, 160); fill-opacity: 1;"/><path class="point" transform="translate(190.17,72.06)" d="M3,0A3,3 0 1,1 0,-3A3,3 0 0,1 3,0Z" style="opacity: 1; stroke-width: 0px; fill: rgb(153, 157, 160); fill-opacity: 1;"/><path class="point" transform="translate(190.17,78.3)" d="M3,0A3,3 0 1,1 0,-3A3,3 0 0,1 3,0Z" style="opacity: 1; stroke-width: 0px; fill: rgb(153, 157, 160); fill-opacity: 1;"/><path class="point" transform="translate(176.12,44.94)" d="M3,0A3,3 0 1,1 0,-3A3,3 0 0,1 3,0Z" style="opacity: 1; stroke-width: 0px; fill: rgb(153, 157, 160); fill-opacity: 1;"/><path class="point" transform="translate(190.17,77.5)" d="M3,0A3,3 0 1,1 0,-3A3,3 0 0,1 3,0Z" style="opacity: 1; stroke-width: 0px; fill: rgb(153, 157, 160); fill-opacity: 1;"/><path class="point" transform="translate(59.96,169.28)" d="M3,0A3,3 0 1,1 0,-3A3,3 0 0,1 3,0Z" style="opacity: 1; stroke-width: 0px; fill: rgb(153, 157, 160); fill-opacity: 1;"/><path class="point" transform="translate(113.35,185.95)" d="M3,0A3,3 0 1,1 0,-3A3,3 0 0,1 3,0Z" style="opacity: 1; stroke-width: 0px; fill: rgb(153, 157, 160); fill-opacity: 1;"/><path class="point" transform="translate(63.7,176.81)" d="M3,0A3,3 0 1,1 0,-3A3,3 0 0,1 3,0Z" style="opacity: 1; stroke-width: 0px; fill: rgb(153, 157, 160); fill-opacity: 1;"/><path class="point" transform="translate(72.14,200.93)" d="M3,0A3,3 0 1,1 0,-3A3,3 0 0,1 3,0Z" style="opacity: 1; stroke-width: 0px; fill: rgb(153, 157, 160); fill-opacity: 1;"/><path class="point" transform="translate(134.9,104.29)" d="M3,0A3,3 0 1,1 0,-3A3,3 0 0,1 3,0Z" style="opacity: 1; stroke-width: 0px; fill: rgb(153, 157, 160); fill-opacity: 1;"/><path class="point" transform="translate(59.96,152.61)" d="M3,0A3,3 0 1,1 0,-3A3,3 0 0,1 3,0Z" style="opacity: 1; stroke-width: 0px; fill: rgb(153, 157, 160); fill-opacity: 1;"/><path class="point" transform="translate(138.65,122.58)" d="M3,0A3,3 0 1,1 0,-3A3,3 0 0,1 3,0Z" style="opacity: 1; stroke-width: 0px; fill: rgb(153, 157, 160); fill-opacity: 1;"/><path class="point" transform="translate(31.85,172)" d="M3,0A3,3 0 1,1 0,-3A3,3 0 0,1 3,0Z" style="opacity: 1; stroke-width: 0px; fill: rgb(153, 157, 160); fill-opacity: 1;"/><path class="point" transform="translate(80.57,233.88)" d="M3,0A3,3 0 1,1 0,-3A3,3 0 0,1 3,0Z" style="opacity: 1; stroke-width: 0px; fill: rgb(153, 157, 160); fill-opacity: 1;"/><path class="point" transform="translate(168.63,33.01)" d="M3,0A3,3 0 1,1 0,-3A3,3 0 0,1 3,0Z" style="opacity: 1; stroke-width: 0px; fill: rgb(153, 157, 160); fill-opacity: 1;"/></g><g class="text"/></g></g></g><g class="overplot"/><path class="xlines-above crisp" d="M24,266.5H231.1" style="fill: none; stroke-width: 1px; stroke: rgb(36, 36, 36); stroke-opacity: 1;"/><path class="ylines-above crisp" d="M24.5,14V266" style="fill: none; stroke-width: 1px; stroke: rgb(36, 36, 36); stroke-opacity: 1;"/><g class="overlines-above"/><g class="xaxislayer-above"><path class="xtick ticks crisp" d="M0,267v5" transform="translate(38.12,0)" style="stroke: rgb(68, 68, 68); stroke-opacity: 1; stroke-width: 1px;"/><path class="xtick ticks crisp" d="M0,267v5" transform="translate(131.8,0)" style="stroke: rgb(68, 68, 68); stroke-opacity: 1; stroke-width: 1px;"/><path class="xtick ticks crisp" d="M0,267v5" transform="translate(225.48,0)" style="stroke: rgb(68, 68, 68); stroke-opacity: 1; stroke-width: 1px;"/><g class="xtick"><text text-anchor="middle" x="0" y="286.4" transform="translate(38.12,0)" style="font-family: 'Open Sans', verdana, arial, sans-serif; font-size: 12px; fill: rgb(36, 36, 36); fill-opacity: 1; white-space: pre; opacity: 1;">0</text></g><g class="xtick"><text text-anchor="middle" x="0" y="286.4" style="font-family: 'Open Sans', verdana, arial, sans-serif; font-size: 12px; fill: rgb(36, 36, 36); fill-opacity: 1; white-space: pre; opacity: 1;" transform="translate(131.8,0)">5</text></g><g class="xtick"><text text-anchor="middle" x="0" y="286.4" style="font-family: 'Open Sans', verdana, arial, sans-serif; font-size: 12px; fill: rgb(36, 36, 36); fill-opacity: 1; white-space: pre; opacity: 1;" transform="translate(225.48,0)">10</text></g></g><g class="yaxislayer-above"><path class="ytick ticks crisp" d="M24,0h-5" transform="translate(0,261.48)" style="stroke: rgb(68, 68, 68); stroke-opacity: 1; stroke-width: 1px;"/><path class="ytick ticks crisp" d="M24,0h-5" transform="translate(0,202)" style="stroke: rgb(68, 68, 68); stroke-opacity: 1; stroke-width: 1px;"/><path class="ytick ticks crisp" d="M24,0h-5" transform="translate(0,142.53)" style="stroke: rgb(68, 68, 68); stroke-opacity: 1; stroke-width: 1px;"/><path class="ytick ticks crisp" d="M24,0h-5" transform="translate(0,83.06)" style="stroke: rgb(68, 68, 68); stroke-opacity: 1; stroke-width: 1px;"/><path class="ytick ticks crisp" d="M24,0h-5" transform="translate(0,23.58)" style="stroke: rgb(68, 68, 68); stroke-opacity: 1; stroke-width: 1px;"/><g class="ytick"><text text-anchor="end" x="16.6" y="4.199999999999999" transform="translate(0,261.48)" style="font-family: 'Open Sans', verdana, arial, sans-serif; font-size: 12px; fill: rgb(36, 36, 36); fill-opacity: 1; white-space: pre; opacity: 1;">0</text></g><g class="ytick"><text text-anchor="end" x="16.6" y="4.199999999999999" style="font-family: 'Open Sans', verdana, arial, sans-serif; font-size: 12px; fill: rgb(36, 36, 36); fill-opacity: 1; white-space: pre; opacity: 1;" transform="translate(0,202)">1</text></g><g class="ytick"><text text-anchor="end" x="16.6" y="4.199999999999999" style="font-family: 'Open Sans', verdana, arial, sans-serif; font-size: 12px; fill: rgb(36, 36, 36); fill-opacity: 1; white-space: pre; opacity: 1;" transform="translate(0,142.53)">2</text></g><g class="ytick"><text text-anchor="end" x="16.6" y="4.199999999999999" style="font-family: 'Open Sans', verdana, arial, sans-serif; font-size: 12px; fill: rgb(36, 36, 36); fill-opacity: 1; white-space: pre; opacity: 1;" transform="translate(0,83.06)">3</text></g><g class="ytick"><text text-anchor="end" x="16.6" y="4.199999999999999" style="font-family: 'Open Sans', verdana, arial, sans-serif; font-size: 12px; fill: rgb(36, 36, 36); fill-opacity: 1; white-space: pre; opacity: 1;" transform="translate(0,23.58)">4</text></g></g><g class="overaxes-above"/></g><g class="subplot x2y2"><g class="layer-subplot"><g class="shapelayer"/><g class="imagelayer"/></g><g class="gridlayer"><g class="x2"><path class="x2grid crisp" transform="translate(379.95000000000005,0)" d="M0,14v252" style="stroke: rgb(232, 232, 232); stroke-opacity: 1; stroke-width: 1px;"/></g><g class="y2"><path class="y2grid crisp" transform="translate(0,253.4)" d="M276.90000000000003,0h206.09999999999997" style="stroke: rgb(232, 232, 232); stroke-opacity: 1; stroke-width: 1px;"/><path class="y2grid crisp" transform="translate(0,194.74)" d="M276.90000000000003,0h206.09999999999997" style="stroke: rgb(232, 232, 232); stroke-opacity: 1; stroke-width: 1px;"/><path class="y2grid crisp" transform="translate(0,136.07999999999998)" d="M276.90000000000003,0h206.09999999999997" style="stroke: rgb(232, 232, 232); stroke-opacity: 1; stroke-width: 1px;"/><path class="y2grid crisp" transform="translate(0,77.41)" d="M276.90000000000003,0h206.09999999999997" style="stroke: rgb(232, 232, 232); stroke-opacity: 1; stroke-width: 1px;"/><path class="y2grid crisp" transform="translate(0,18.75)" d="M276.90000000000003,0h206.09999999999997" style="stroke: rgb(232, 232, 232); stroke-opacity: 1; stroke-width: 1px;"/></g></g><g class="zerolinelayer"/><path class="xlines-below"/><path class="ylines-below"/><g class="overlines-below"/><g class="xaxislayer-below"/><g class="yaxislayer-below"/><g class="overaxes-below"/><g class="plot" transform="translate(276.90000000000003,14)" clip-path="url(#clipbccc51x2y2plot)"><g class="scatterlayer mlayer"><g class="trace scatter trace56bdf1" style="stroke-miterlimit: 2; opacity: 1;"><g class="fills"/><g class="errorbars"/><g class="lines"><path class="js-line" d="M0,182.07L10.41,186.95L12.49,187.76L22.9,190.92L24.98,191.39L35.39,192.84L37.47,192.96L47.88,192.69L49.96,192.47L60.37,190.49L62.45,189.92L72.86,186.22L74.95,185.31L85.35,179.9L87.44,178.64L99.93,169.92L102.01,168.26L114.5,157.13L116.58,155.08L129.07,141.55L131.15,139.09L143.65,123.16L145.73,120.3L160.3,98.71L162.38,95.4L176.95,70.6L179.04,66.83L193.61,38.83L195.69,34.6L206.1,12.6" style="vector-effect: non-scaling-stroke; fill: none; stroke: rgb(34, 32, 33); stroke-opacity: 1; stroke-width: 2px; opacity: 1;"/></g><g class="points"/><g class="text"/></g><g class="trace scatter trace7186d8" style="stroke-miterlimit: 2; opacity: 1;"><g class="fills"/><g class="errorbars"/><g class="lines"><path class="js-line" d="M0,239.4L12.49,195.32L14.57,188.85L20.82,171.94L22.9,167.27L27.06,159.56L29.15,156.57L33.31,152.36L35.39,151.14L39.55,150.49L41.64,151.01L45.8,153.64L47.88,155.69L54.13,164.27L56.21,167.79L66.62,187.83L68.7,191.92L77.03,206.55L79.11,209.5L83.27,214.2L85.35,215.87L89.52,217.68L91.6,217.75L95.76,216.16L97.85,214.48L102.01,209.32L104.09,205.86L110.34,192.2L112.42,186.64L120.75,160.46L122.83,153.17L143.65,79.56L145.73,73.4L151.97,57.6L154.05,53.36L158.22,46.55L160.3,44.03L164.46,40.77L166.55,40.03L170.71,40.28L172.79,41.24L176.95,44.66L179.04,47.06L185.28,56.47L187.36,60.19L206.1,95.33" style="vector-effect: non-scaling-stroke; fill: none; stroke: rgb(34, 32, 33); stroke-opacity: 1; stroke-width: 2px; opacity: 1; stroke-dasharray: 9px, 9px;"/></g><g class="points"/><g class="text"/></g></g></g><g class="overplot"/><path class="xlines-above crisp" d="M275.90000000000003,266.5H483" style="fill: none; stroke-width: 1px; stroke: rgb(36, 36, 36); stroke-opacity: 1;"/><path class="ylines-above crisp" d="M276.40000000000003,14V266" style="fill: none; stroke-width: 1px; stroke: rgb(36, 36, 36); stroke-opacity: 1;"/><g class="overlines-above"/><g class="xaxislayer-above"><path class="x2tick ticks crisp" d="M0,267v5" transform="translate(276.90000000000003,0)" style="stroke: rgb(68, 68, 68); stroke-opacity: 1; stroke-width: 1px;"/><path class="x2tick ticks crisp" d="M0,267v5" transform="translate(379.95000000000005,0)" style="stroke: rgb(68, 68, 68); stroke-opacity: 1; stroke-width: 1px;"/><path class="x2tick ticks crisp" d="M0,267v5" transform="translate(483,0)" style="stroke: rgb(68, 68, 68); stroke-opacity: 1; stroke-width: 1px;"/><g class="x2tick"><text text-anchor="middle" x="0" y="286.4" transform="translate(276.90000000000003,0)" style="font-family: 'Open Sans', verdana, arial, sans-serif; font-size: 12px; fill: rgb(36, 36, 36); fill-opacity: 1; white-space: pre; opacity: 1;">0</text></g><g class="x2tick"><text text-anchor="middle" x="0" y="286.4" style="font-family: 'Open Sans', verdana, arial, sans-serif; font-size: 12px; fill: rgb(36, 36, 36); fill-opacity: 1; white-space: pre; opacity: 1;" transform="translate(379.95000000000005,0)">5</text></g><g class="x2tick"><text text-anchor="middle" x="0" y="286.4" style="font-family: 'Open Sans', verdana, arial, sans-serif; font-size: 12px; fill: rgb(36, 36, 36); fill-opacity: 1; white-space: pre; opacity: 1;" transform="translate(483,0)">10</text></g></g><g class="yaxislayer-above"><path class="y2tick ticks crisp" d="M275.90000000000003,0h-5" transform="translate(0,253.4)" style="stroke: rgb(68, 68, 68); stroke-opacity: 1; stroke-width: 1px;"/><path class="y2tick ticks crisp" d="M275.90000000000003,0h-5" transform="translate(0,194.74)" style="stroke: rgb(68, 68, 68); stroke-opacity: 1; stroke-width: 1px;"/><path class="y2tick ticks crisp" d="M275.90000000000003,0h-5" transform="translate(0,136.07999999999998)" style="stroke: rgb(68, 68, 68); stroke-opacity: 1; stroke-width: 1px;"/><path class="y2tick ticks crisp" d="M275.90000000000003,0h-5" transform="translate(0,77.41)" style="stroke: rgb(68, 68, 68); stroke-opacity: 1; stroke-width: 1px;"/><path class="y2tick ticks crisp" d="M275.90000000000003,0h-5" transform="translate(0,18.75)" style="stroke: rgb(68, 68, 68); stroke-opacity: 1; stroke-width: 1px;"/><g class="y2tick"><text text-anchor="end" x="268.50000000000006" y="4.199999999999999" transform="translate(0,253.4)" style="font-family: 'Open Sans', verdana, arial, sans-serif; font-size: 12px; fill: rgb(36, 36, 36); fill-opacity: 1; white-space: pre; opacity: 1;">0</text></g><g class="y2tick"><text text-anchor="end" x="268.50000000000006" y="4.199999999999999" style="font-family: 'Open Sans', verdana, arial, sans-serif; font-size: 12px; fill: rgb(36, 36, 36); fill-opacity: 1; white-space: pre; opacity: 1;" transform="translate(0,194.74)">1</text></g><g class="y2tick"><text text-anchor="end" x="268.50000000000006" y="4.199999999999999" style="font-family: 'Open Sans', verdana, arial, sans-serif; font-size: 12px; fill: rgb(36, 36, 36); fill-opacity: 1; white-space: pre; opacity: 1;" transform="translate(0,136.07999999999998)">2</text></g><g class="y2tick"><text text-anchor="end" x="268.50000000000006" y="4.199999999999999" style="font-family: 'Open Sans', verdana, arial, sans-serif; font-size: 12px; fill: rgb(36, 36, 36); fill-opacity: 1; white-space: pre; opacity: 1;" transform="translate(0,77.41)">3</text></g><g class="y2tick"><text text-anchor="end" x="268.50000000000006" y="4.199999999999999" style="font-family: 'Open Sans', verdana, arial, sans-serif; font-size: 12px; fill: rgb(36, 36, 36); fill-opacity: 1; white-space: pre; opacity: 1;" transform="translate(0,18.75)">4</text></g></g><g class="overaxes-above"/></g></g><g class="polarlayer"/><g class="smithlayer"/><g class="ternarylayer"/><g class="geolayer"/><g class="funnelarealayer"/><g class="pielayer"/><g class="iciclelayer"/><g class="treemaplayer"/><g class="sunburstlayer"/><g class="glimages"/><defs id="topdefs-bccc51"><g class="clips"/></defs><g class="layer-above"><g class="imagelayer"/><g class="shapelayer"/></g><g class="infolayer"><g class="g-gtitle"/><g class="g-xtitle"/><g class="g-x2title"/><g class="g-ytitle"/><g class="g-y2title"/></g></svg>