<?xml version="1.0" encoding="utf-8" standalone="no"?>
<!DOCTYPE svg PUBLIC "-//W3C//DTD SVG 1.1//EN"
  "http://www.w3.org/Graphics/SVG/1.1/DTD/svg11.dtd">
<!-- Created with matplotlib (https://matplotlib.org/) -->
<svg height="258.562187pt" version="1.1" viewBox="0 0 503.428125 258.562187" width="503.428125pt" xmlns="http://www.w3.org/2000/svg" xmlns:xlink="http://www.w3.org/1999/xlink">
 <metadata>
  <rdf:RDF xmlns:cc="http://creativecommons.org/ns#" xmlns:dc="http://purl.org/dc/elements/1.1/" xmlns:rdf="http://www.w3.org/1999/02/22-rdf-syntax-ns#">
   <cc:Work>
    <dc:type rdf:resource="http://purl.org/dc/dcmitype/StillImage"/>
    <dc:date>2023-01-30T10:09:58.775277</dc:date>
    <dc:format>image/svg+xml</dc:format>
    <dc:creator>
     <cc:Agent>
      <dc:title>Matplotlib v3.3.4, https://matplotlib.org/</dc:title>
     </cc:Agent>
    </dc:creator>
   </cc:Work>
  </rdf:RDF>
 </metadata>
 <defs>
  <style type="text/css">*{stroke-linecap:butt;stroke-linejoin:round;}</style>
 </defs>
 <g id="figure_1">
  <g id="patch_1">
   <path d="M 0 258.562187 
L 503.428125 258.562187 
L 503.428125 0 
L 0 0 
z
" style="fill:#ffffff;"/>
  </g>
  <g id="axes_1">
   <g id="patch_2">
    <path d="M 49.828125 224.64 
L 496.228125 224.64 
L 496.228125 7.2 
L 49.828125 7.2 
z
" style="fill:#ffffff;"/>
   </g>
   <g id="matplotlib.axis_1">
    <g id="xtick_1">
     <g id="line2d_1">
      <path clip-path="url(#p1fb12109bc)" d="M 49.828125 224.64 
L 49.828125 7.2 
" style="fill:none;stroke:#cccccc;stroke-linecap:round;stroke-width:0.8;"/>
     </g>
    </g>
    <g id="xtick_2">
     <g id="line2d_2">
      <path clip-path="url(#p1fb12109bc)" d="M 82.417599 224.64 
L 82.417599 7.2 
" style="fill:none;stroke:#cccccc;stroke-linecap:round;stroke-width:0.8;"/>
     </g>
     <g id="text_1">
      <!-- Jul -->
      <g style="fill:#262626;" transform="translate(76.026192 238.797812)scale(0.1 -0.1)">
       <defs>
        <path d="M 2.875 20.3125 
L 11.421875 21.484375 
Q 11.765625 13.28125 14.5 10.25 
Q 17.234375 7.234375 22.078125 7.234375 
Q 25.640625 7.234375 28.21875 8.859375 
Q 30.8125 10.5 31.78125 13.296875 
Q 32.765625 16.109375 32.765625 22.265625 
L 32.765625 71.578125 
L 42.234375 71.578125 
L 42.234375 22.796875 
Q 42.234375 13.8125 40.0625 8.875 
Q 37.890625 3.953125 33.171875 1.359375 
Q 28.46875 -1.21875 22.125 -1.21875 
Q 12.703125 -1.21875 7.6875 4.203125 
Q 2.6875 9.625 2.875 20.3125 
z
" id="ArialMT-74"/>
        <path d="M 40.578125 0 
L 40.578125 7.625 
Q 34.515625 -1.171875 24.125 -1.171875 
Q 19.53125 -1.171875 15.546875 0.578125 
Q 11.578125 2.34375 9.640625 5 
Q 7.71875 7.671875 6.9375 11.53125 
Q 6.390625 14.109375 6.390625 19.734375 
L 6.390625 51.859375 
L 15.1875 51.859375 
L 15.1875 23.09375 
Q 15.1875 16.21875 15.71875 13.8125 
Q 16.546875 10.359375 19.234375 8.375 
Q 21.921875 6.390625 25.875 6.390625 
Q 29.828125 6.390625 33.296875 8.421875 
Q 36.765625 10.453125 38.203125 13.9375 
Q 39.65625 17.4375 39.65625 24.078125 
L 39.65625 51.859375 
L 48.4375 51.859375 
L 48.4375 0 
z
" id="ArialMT-117"/>
        <path d="M 6.390625 0 
L 6.390625 71.578125 
L 15.1875 71.578125 
L 15.1875 0 
z
" id="ArialMT-108"/>
       </defs>
       <use xlink:href="#ArialMT-74"/>
       <use x="50" xlink:href="#ArialMT-117"/>
       <use x="105.615234" xlink:href="#ArialMT-108"/>
      </g>
     </g>
    </g>
    <g id="xtick_3">
     <g id="line2d_3">
      <path clip-path="url(#p1fb12109bc)" d="M 152.143914 224.64 
L 152.143914 7.2 
" style="fill:none;stroke:#cccccc;stroke-linecap:round;stroke-width:0.8;"/>
     </g>
     <g id="text_2">
      <!-- Oct -->
      <g style="fill:#262626;" transform="translate(144.365789 238.797812)scale(0.1 -0.1)">
       <defs>
        <path d="M 4.828125 34.859375 
Q 4.828125 52.6875 14.390625 62.765625 
Q 23.96875 72.859375 39.109375 72.859375 
Q 49.03125 72.859375 56.984375 68.109375 
Q 64.9375 63.375 69.109375 54.90625 
Q 73.296875 46.4375 73.296875 35.6875 
Q 73.296875 24.8125 68.890625 16.21875 
Q 64.5 7.625 56.4375 3.203125 
Q 48.390625 -1.21875 39.0625 -1.21875 
Q 28.953125 -1.21875 20.984375 3.65625 
Q 13.03125 8.546875 8.921875 16.984375 
Q 4.828125 25.4375 4.828125 34.859375 
z
M 14.59375 34.71875 
Q 14.59375 21.78125 21.546875 14.328125 
Q 28.515625 6.890625 39.015625 6.890625 
Q 49.703125 6.890625 56.609375 14.40625 
Q 63.53125 21.921875 63.53125 35.75 
Q 63.53125 44.484375 60.578125 51 
Q 57.625 57.515625 51.921875 61.109375 
Q 46.234375 64.703125 39.15625 64.703125 
Q 29.109375 64.703125 21.84375 57.78125 
Q 14.59375 50.875 14.59375 34.71875 
z
" id="ArialMT-79"/>
        <path d="M 40.4375 19 
L 49.078125 17.875 
Q 47.65625 8.9375 41.8125 3.875 
Q 35.984375 -1.171875 27.484375 -1.171875 
Q 16.84375 -1.171875 10.375 5.78125 
Q 3.90625 12.75 3.90625 25.734375 
Q 3.90625 34.125 6.6875 40.421875 
Q 9.46875 46.734375 15.15625 49.875 
Q 20.84375 53.03125 27.546875 53.03125 
Q 35.984375 53.03125 41.359375 48.75 
Q 46.734375 44.484375 48.25 36.625 
L 39.703125 35.296875 
Q 38.484375 40.53125 35.375 43.15625 
Q 32.28125 45.796875 27.875 45.796875 
Q 21.234375 45.796875 17.078125 41.03125 
Q 12.9375 36.28125 12.9375 25.984375 
Q 12.9375 15.53125 16.9375 10.796875 
Q 20.953125 6.0625 27.390625 6.0625 
Q 32.5625 6.0625 36.03125 9.234375 
Q 39.5 12.40625 40.4375 19 
z
" id="ArialMT-99"/>
        <path d="M 25.78125 7.859375 
L 27.046875 0.09375 
Q 23.34375 -0.6875 20.40625 -0.6875 
Q 15.625 -0.6875 12.984375 0.828125 
Q 10.359375 2.34375 9.28125 4.8125 
Q 8.203125 7.28125 8.203125 15.1875 
L 8.203125 45.015625 
L 1.765625 45.015625 
L 1.765625 51.859375 
L 8.203125 51.859375 
L 8.203125 64.703125 
L 16.9375 69.96875 
L 16.9375 51.859375 
L 25.78125 51.859375 
L 25.78125 45.015625 
L 16.9375 45.015625 
L 16.9375 14.703125 
Q 16.9375 10.9375 17.40625 9.859375 
Q 17.875 8.796875 18.921875 8.15625 
Q 19.96875 7.515625 21.921875 7.515625 
Q 23.390625 7.515625 25.78125 7.859375 
z
" id="ArialMT-116"/>
       </defs>
       <use xlink:href="#ArialMT-79"/>
       <use x="77.783203" xlink:href="#ArialMT-99"/>
       <use x="127.783203" xlink:href="#ArialMT-116"/>
      </g>
     </g>
    </g>
    <g id="xtick_4">
     <g id="line2d_4">
      <path clip-path="url(#p1fb12109bc)" d="M 221.87023 224.64 
L 221.87023 7.2 
" style="fill:none;stroke:#cccccc;stroke-linecap:round;stroke-width:0.8;"/>
     </g>
     <g id="text_3">
      <!-- Jan -->
      <g style="fill:#262626;" transform="translate(213.809293 238.797812)scale(0.1 -0.1)">
       <defs>
        <path d="M 40.4375 6.390625 
Q 35.546875 2.25 31.03125 0.53125 
Q 26.515625 -1.171875 21.34375 -1.171875 
Q 12.796875 -1.171875 8.203125 3 
Q 3.609375 7.171875 3.609375 13.671875 
Q 3.609375 17.484375 5.34375 20.625 
Q 7.078125 23.78125 9.890625 25.6875 
Q 12.703125 27.59375 16.21875 28.5625 
Q 18.796875 29.25 24.03125 29.890625 
Q 34.671875 31.15625 39.703125 32.90625 
Q 39.75 34.71875 39.75 35.203125 
Q 39.75 40.578125 37.25 42.78125 
Q 33.890625 45.75 27.25 45.75 
Q 21.046875 45.75 18.09375 43.578125 
Q 15.140625 41.40625 13.71875 35.890625 
L 5.125 37.0625 
Q 6.296875 42.578125 8.984375 45.96875 
Q 11.671875 49.359375 16.75 51.1875 
Q 21.828125 53.03125 28.515625 53.03125 
Q 35.15625 53.03125 39.296875 51.46875 
Q 43.453125 49.90625 45.40625 47.53125 
Q 47.359375 45.171875 48.140625 41.546875 
Q 48.578125 39.3125 48.578125 33.453125 
L 48.578125 21.734375 
Q 48.578125 9.46875 49.140625 6.21875 
Q 49.703125 2.984375 51.375 0 
L 42.1875 0 
Q 40.828125 2.734375 40.4375 6.390625 
z
M 39.703125 26.03125 
Q 34.90625 24.078125 25.34375 22.703125 
Q 19.921875 21.921875 17.671875 20.9375 
Q 15.4375 19.96875 14.203125 18.09375 
Q 12.984375 16.21875 12.984375 13.921875 
Q 12.984375 10.40625 15.640625 8.0625 
Q 18.3125 5.71875 23.4375 5.71875 
Q 28.515625 5.71875 32.46875 7.9375 
Q 36.421875 10.15625 38.28125 14.015625 
Q 39.703125 17 39.703125 22.796875 
z
" id="ArialMT-97"/>
        <path d="M 6.59375 0 
L 6.59375 51.859375 
L 14.5 51.859375 
L 14.5 44.484375 
Q 20.21875 53.03125 31 53.03125 
Q 35.6875 53.03125 39.625 51.34375 
Q 43.5625 49.65625 45.515625 46.921875 
Q 47.46875 44.1875 48.25 40.4375 
Q 48.734375 37.984375 48.734375 31.890625 
L 48.734375 0 
L 39.9375 0 
L 39.9375 31.546875 
Q 39.9375 36.921875 38.90625 39.578125 
Q 37.890625 42.234375 35.28125 43.8125 
Q 32.671875 45.40625 29.15625 45.40625 
Q 23.53125 45.40625 19.453125 41.84375 
Q 15.375 38.28125 15.375 28.328125 
L 15.375 0 
z
" id="ArialMT-110"/>
       </defs>
       <use xlink:href="#ArialMT-74"/>
       <use x="50" xlink:href="#ArialMT-97"/>
       <use x="105.615234" xlink:href="#ArialMT-110"/>
      </g>
      <!-- 2019 -->
      <g style="fill:#262626;" transform="translate(210.748355 249.374687)scale(0.1 -0.1)">
       <defs>
        <path d="M 50.34375 8.453125 
L 50.34375 0 
L 3.03125 0 
Q 2.9375 3.171875 4.046875 6.109375 
Q 5.859375 10.9375 9.828125 15.625 
Q 13.8125 20.3125 21.34375 26.46875 
Q 33.015625 36.03125 37.109375 41.625 
Q 41.21875 47.21875 41.21875 52.203125 
Q 41.21875 57.421875 37.46875 61 
Q 33.734375 64.59375 27.734375 64.59375 
Q 21.390625 64.59375 17.578125 60.78125 
Q 13.765625 56.984375 13.71875 50.25 
L 4.6875 51.171875 
Q 5.609375 61.28125 11.65625 66.578125 
Q 17.71875 71.875 27.9375 71.875 
Q 38.234375 71.875 44.234375 66.15625 
Q 50.25 60.453125 50.25 52 
Q 50.25 47.703125 48.484375 43.546875 
Q 46.734375 39.40625 42.65625 34.8125 
Q 38.578125 30.21875 29.109375 22.21875 
Q 21.1875 15.578125 18.9375 13.203125 
Q 16.703125 10.84375 15.234375 8.453125 
z
" id="ArialMT-50"/>
        <path d="M 4.15625 35.296875 
Q 4.15625 48 6.765625 55.734375 
Q 9.375 63.484375 14.515625 67.671875 
Q 19.671875 71.875 27.484375 71.875 
Q 33.25 71.875 37.59375 69.546875 
Q 41.9375 67.234375 44.765625 62.859375 
Q 47.609375 58.5 49.21875 52.21875 
Q 50.828125 45.953125 50.828125 35.296875 
Q 50.828125 22.703125 48.234375 14.96875 
Q 45.65625 7.234375 40.5 3 
Q 35.359375 -1.21875 27.484375 -1.21875 
Q 17.140625 -1.21875 11.234375 6.203125 
Q 4.15625 15.140625 4.15625 35.296875 
z
M 13.1875 35.296875 
Q 13.1875 17.671875 17.3125 11.828125 
Q 21.4375 6 27.484375 6 
Q 33.546875 6 37.671875 11.859375 
Q 41.796875 17.71875 41.796875 35.296875 
Q 41.796875 52.984375 37.671875 58.78125 
Q 33.546875 64.59375 27.390625 64.59375 
Q 21.34375 64.59375 17.71875 59.46875 
Q 13.1875 52.9375 13.1875 35.296875 
z
" id="ArialMT-48"/>
        <path d="M 37.25 0 
L 28.46875 0 
L 28.46875 56 
Q 25.296875 52.984375 20.140625 49.953125 
Q 14.984375 46.921875 10.890625 45.40625 
L 10.890625 53.90625 
Q 18.265625 57.375 23.78125 62.296875 
Q 29.296875 67.234375 31.59375 71.875 
L 37.25 71.875 
z
" id="ArialMT-49"/>
        <path d="M 5.46875 16.546875 
L 13.921875 17.328125 
Q 14.984375 11.375 18.015625 8.6875 
Q 21.046875 6 25.78125 6 
Q 29.828125 6 32.875 7.859375 
Q 35.9375 9.71875 37.890625 12.8125 
Q 39.84375 15.921875 41.15625 21.1875 
Q 42.484375 26.46875 42.484375 31.9375 
Q 42.484375 32.515625 42.4375 33.6875 
Q 39.796875 29.5 35.234375 26.875 
Q 30.671875 24.265625 25.34375 24.265625 
Q 16.453125 24.265625 10.296875 30.703125 
Q 4.15625 37.15625 4.15625 47.703125 
Q 4.15625 58.59375 10.578125 65.234375 
Q 17 71.875 26.65625 71.875 
Q 33.640625 71.875 39.421875 68.109375 
Q 45.21875 64.359375 48.21875 57.390625 
Q 51.21875 50.4375 51.21875 37.25 
Q 51.21875 23.53125 48.234375 15.40625 
Q 45.265625 7.28125 39.375 3.03125 
Q 33.5 -1.21875 25.59375 -1.21875 
Q 17.1875 -1.21875 11.859375 3.4375 
Q 6.546875 8.109375 5.46875 16.546875 
z
M 41.453125 48.140625 
Q 41.453125 55.71875 37.421875 60.15625 
Q 33.40625 64.59375 27.734375 64.59375 
Q 21.875 64.59375 17.53125 59.8125 
Q 13.1875 55.03125 13.1875 47.40625 
Q 13.1875 40.578125 17.3125 36.296875 
Q 21.4375 32.03125 27.484375 32.03125 
Q 33.59375 32.03125 37.515625 36.296875 
Q 41.453125 40.578125 41.453125 48.140625 
z
" id="ArialMT-57"/>
       </defs>
       <use xlink:href="#ArialMT-50"/>
       <use x="55.615234" xlink:href="#ArialMT-48"/>
       <use x="111.230469" xlink:href="#ArialMT-49"/>
       <use x="166.845703" xlink:href="#ArialMT-57"/>
      </g>
     </g>
    </g>
    <g id="xtick_5">
     <g id="line2d_5">
      <path clip-path="url(#p1fb12109bc)" d="M 290.080757 224.64 
L 290.080757 7.2 
" style="fill:none;stroke:#cccccc;stroke-linecap:round;stroke-width:0.8;"/>
     </g>
     <g id="text_4">
      <!-- Apr -->
      <g style="fill:#262626;" transform="translate(282.300288 238.797812)scale(0.1 -0.1)">
       <defs>
        <path d="M -0.140625 0 
L 27.34375 71.578125 
L 37.546875 71.578125 
L 66.84375 0 
L 56.0625 0 
L 47.703125 21.6875 
L 17.78125 21.6875 
L 9.90625 0 
z
M 20.515625 29.390625 
L 44.78125 29.390625 
L 37.3125 49.21875 
Q 33.890625 58.25 32.234375 64.0625 
Q 30.859375 57.171875 28.375 50.390625 
z
" id="ArialMT-65"/>
        <path d="M 6.59375 -19.875 
L 6.59375 51.859375 
L 14.59375 51.859375 
L 14.59375 45.125 
Q 17.4375 49.078125 21 51.046875 
Q 24.5625 53.03125 29.640625 53.03125 
Q 36.28125 53.03125 41.359375 49.609375 
Q 46.4375 46.1875 49.015625 39.953125 
Q 51.609375 33.734375 51.609375 26.3125 
Q 51.609375 18.359375 48.75 11.984375 
Q 45.90625 5.609375 40.453125 2.21875 
Q 35.015625 -1.171875 29 -1.171875 
Q 24.609375 -1.171875 21.109375 0.6875 
Q 17.625 2.546875 15.375 5.375 
L 15.375 -19.875 
z
M 14.546875 25.640625 
Q 14.546875 15.625 18.59375 10.84375 
Q 22.65625 6.0625 28.421875 6.0625 
Q 34.28125 6.0625 38.453125 11.015625 
Q 42.625 15.96875 42.625 26.375 
Q 42.625 36.28125 38.546875 41.203125 
Q 34.46875 46.140625 28.8125 46.140625 
Q 23.1875 46.140625 18.859375 40.890625 
Q 14.546875 35.640625 14.546875 25.640625 
z
" id="ArialMT-112"/>
        <path d="M 6.5 0 
L 6.5 51.859375 
L 14.40625 51.859375 
L 14.40625 44 
Q 17.4375 49.515625 20 51.265625 
Q 22.5625 53.03125 25.640625 53.03125 
Q 30.078125 53.03125 34.671875 50.203125 
L 31.640625 42.046875 
Q 28.421875 43.953125 25.203125 43.953125 
Q 22.3125 43.953125 20.015625 42.21875 
Q 17.71875 40.484375 16.75 37.40625 
Q 15.28125 32.71875 15.28125 27.15625 
L 15.28125 0 
z
" id="ArialMT-114"/>
       </defs>
       <use xlink:href="#ArialMT-65"/>
       <use x="66.699219" xlink:href="#ArialMT-112"/>
       <use x="122.314453" xlink:href="#ArialMT-114"/>
      </g>
     </g>
    </g>
    <g id="xtick_6">
     <g id="line2d_6">
      <path clip-path="url(#p1fb12109bc)" d="M 359.049178 224.64 
L 359.049178 7.2 
" style="fill:none;stroke:#cccccc;stroke-linecap:round;stroke-width:0.8;"/>
     </g>
     <g id="text_5">
      <!-- Jul -->
      <g style="fill:#262626;" transform="translate(352.657771 238.797812)scale(0.1 -0.1)">
       <use xlink:href="#ArialMT-74"/>
       <use x="50" xlink:href="#ArialMT-117"/>
       <use x="105.615234" xlink:href="#ArialMT-108"/>
      </g>
     </g>
    </g>
    <g id="xtick_7">
     <g id="line2d_7">
      <path clip-path="url(#p1fb12109bc)" d="M 428.775493 224.64 
L 428.775493 7.2 
" style="fill:none;stroke:#cccccc;stroke-linecap:round;stroke-width:0.8;"/>
     </g>
     <g id="text_6">
      <!-- Oct -->
      <g style="fill:#262626;" transform="translate(420.997368 238.797812)scale(0.1 -0.1)">
       <use xlink:href="#ArialMT-79"/>
       <use x="77.783203" xlink:href="#ArialMT-99"/>
       <use x="127.783203" xlink:href="#ArialMT-116"/>
      </g>
     </g>
    </g>
    <g id="xtick_8">
     <g id="line2d_8">
      <path clip-path="url(#p1fb12109bc)" d="M 496.228125 224.64 
L 496.228125 7.2 
" style="fill:none;stroke:#cccccc;stroke-linecap:round;stroke-width:0.8;"/>
     </g>
    </g>
    <g id="xtick_9"/>
    <g id="xtick_10"/>
    <g id="xtick_11"/>
    <g id="xtick_12"/>
    <g id="xtick_13"/>
    <g id="xtick_14"/>
    <g id="xtick_15"/>
    <g id="xtick_16"/>
    <g id="xtick_17"/>
    <g id="xtick_18"/>
    <g id="xtick_19"/>
    <g id="xtick_20"/>
    <g id="xtick_21"/>
   </g>
   <g id="matplotlib.axis_2">
    <g id="ytick_1">
     <g id="line2d_9">
      <path clip-path="url(#p1fb12109bc)" d="M 49.828125 214.756364 
L 496.228125 214.756364 
" style="fill:none;stroke:#cccccc;stroke-linecap:round;stroke-width:0.8;"/>
     </g>
     <g id="text_7">
      <!-- 0 -->
      <g style="fill:#262626;" transform="translate(37.267188 218.33527)scale(0.1 -0.1)">
       <use xlink:href="#ArialMT-48"/>
      </g>
     </g>
    </g>
    <g id="ytick_2">
     <g id="line2d_10">
      <path clip-path="url(#p1fb12109bc)" d="M 49.828125 170.829091 
L 496.228125 170.829091 
" style="fill:none;stroke:#cccccc;stroke-linecap:round;stroke-width:0.8;"/>
     </g>
     <g id="text_8">
      <!-- 500 -->
      <g style="fill:#262626;" transform="translate(26.145313 174.407997)scale(0.1 -0.1)">
       <defs>
        <path d="M 4.15625 18.75 
L 13.375 19.53125 
Q 14.40625 12.796875 18.140625 9.390625 
Q 21.875 6 27.15625 6 
Q 33.5 6 37.890625 10.78125 
Q 42.28125 15.578125 42.28125 23.484375 
Q 42.28125 31 38.0625 35.34375 
Q 33.84375 39.703125 27 39.703125 
Q 22.75 39.703125 19.328125 37.765625 
Q 15.921875 35.84375 13.96875 32.765625 
L 5.71875 33.84375 
L 12.640625 70.609375 
L 48.25 70.609375 
L 48.25 62.203125 
L 19.671875 62.203125 
L 15.828125 42.96875 
Q 22.265625 47.46875 29.34375 47.46875 
Q 38.71875 47.46875 45.15625 40.96875 
Q 51.609375 34.46875 51.609375 24.265625 
Q 51.609375 14.546875 45.953125 7.46875 
Q 39.0625 -1.21875 27.15625 -1.21875 
Q 17.390625 -1.21875 11.203125 4.25 
Q 5.03125 9.71875 4.15625 18.75 
z
" id="ArialMT-53"/>
       </defs>
       <use xlink:href="#ArialMT-53"/>
       <use x="55.615234" xlink:href="#ArialMT-48"/>
       <use x="111.230469" xlink:href="#ArialMT-48"/>
      </g>
     </g>
    </g>
    <g id="ytick_3">
     <g id="line2d_11">
      <path clip-path="url(#p1fb12109bc)" d="M 49.828125 126.901818 
L 496.228125 126.901818 
" style="fill:none;stroke:#cccccc;stroke-linecap:round;stroke-width:0.8;"/>
     </g>
     <g id="text_9">
      <!-- 1000 -->
      <g style="fill:#262626;" transform="translate(20.584375 130.480724)scale(0.1 -0.1)">
       <use xlink:href="#ArialMT-49"/>
       <use x="55.615234" xlink:href="#ArialMT-48"/>
       <use x="111.230469" xlink:href="#ArialMT-48"/>
       <use x="166.845703" xlink:href="#ArialMT-48"/>
      </g>
     </g>
    </g>
    <g id="ytick_4">
     <g id="line2d_12">
      <path clip-path="url(#p1fb12109bc)" d="M 49.828125 82.974545 
L 496.228125 82.974545 
" style="fill:none;stroke:#cccccc;stroke-linecap:round;stroke-width:0.8;"/>
     </g>
     <g id="text_10">
      <!-- 1500 -->
      <g style="fill:#262626;" transform="translate(20.584375 86.553452)scale(0.1 -0.1)">
       <use xlink:href="#ArialMT-49"/>
       <use x="55.615234" xlink:href="#ArialMT-53"/>
       <use x="111.230469" xlink:href="#ArialMT-48"/>
       <use x="166.845703" xlink:href="#ArialMT-48"/>
      </g>
     </g>
    </g>
    <g id="ytick_5">
     <g id="line2d_13">
      <path clip-path="url(#p1fb12109bc)" d="M 49.828125 39.047273 
L 496.228125 39.047273 
" style="fill:none;stroke:#cccccc;stroke-linecap:round;stroke-width:0.8;"/>
     </g>
     <g id="text_11">
      <!-- 2000 -->
      <g style="fill:#262626;" transform="translate(20.584375 42.626179)scale(0.1 -0.1)">
       <use xlink:href="#ArialMT-50"/>
       <use x="55.615234" xlink:href="#ArialMT-48"/>
       <use x="111.230469" xlink:href="#ArialMT-48"/>
       <use x="166.845703" xlink:href="#ArialMT-48"/>
      </g>
     </g>
    </g>
    <g id="text_12">
     <!-- # measurements / day -->
     <g style="fill:#262626;" transform="translate(14.479688 165.384062)rotate(-90)scale(0.1 -0.1)">
      <defs>
       <path d="M 5.03125 -1.21875 
L 9.28125 19.578125 
L 1.03125 19.578125 
L 1.03125 26.859375 
L 10.75 26.859375 
L 14.359375 44.578125 
L 1.03125 44.578125 
L 1.03125 51.859375 
L 15.828125 51.859375 
L 20.0625 72.796875 
L 27.390625 72.796875 
L 23.140625 51.859375 
L 38.53125 51.859375 
L 42.78125 72.796875 
L 50.140625 72.796875 
L 45.90625 51.859375 
L 54.34375 51.859375 
L 54.34375 44.578125 
L 44.4375 44.578125 
L 40.765625 26.859375 
L 54.34375 26.859375 
L 54.34375 19.578125 
L 39.3125 19.578125 
L 35.0625 -1.21875 
L 27.734375 -1.21875 
L 31.9375 19.578125 
L 16.609375 19.578125 
L 12.359375 -1.21875 
z
M 18.0625 26.859375 
L 33.40625 26.859375 
L 37.0625 44.578125 
L 21.6875 44.578125 
z
" id="ArialMT-35"/>
       <path id="ArialMT-32"/>
       <path d="M 6.59375 0 
L 6.59375 51.859375 
L 14.453125 51.859375 
L 14.453125 44.578125 
Q 16.890625 48.390625 20.9375 50.703125 
Q 25 53.03125 30.171875 53.03125 
Q 35.9375 53.03125 39.625 50.640625 
Q 43.3125 48.25 44.828125 43.953125 
Q 50.984375 53.03125 60.84375 53.03125 
Q 68.5625 53.03125 72.703125 48.75 
Q 76.859375 44.484375 76.859375 35.59375 
L 76.859375 0 
L 68.109375 0 
L 68.109375 32.671875 
Q 68.109375 37.9375 67.25 40.25 
Q 66.40625 42.578125 64.15625 43.984375 
Q 61.921875 45.40625 58.890625 45.40625 
Q 53.421875 45.40625 49.796875 41.765625 
Q 46.1875 38.140625 46.1875 30.125 
L 46.1875 0 
L 37.40625 0 
L 37.40625 33.6875 
Q 37.40625 39.546875 35.25 42.46875 
Q 33.109375 45.40625 28.21875 45.40625 
Q 24.515625 45.40625 21.359375 43.453125 
Q 18.21875 41.5 16.796875 37.734375 
Q 15.375 33.984375 15.375 26.90625 
L 15.375 0 
z
" id="ArialMT-109"/>
       <path d="M 42.09375 16.703125 
L 51.171875 15.578125 
Q 49.03125 7.625 43.21875 3.21875 
Q 37.40625 -1.171875 28.375 -1.171875 
Q 17 -1.171875 10.328125 5.828125 
Q 3.65625 12.84375 3.65625 25.484375 
Q 3.65625 38.578125 10.390625 45.796875 
Q 17.140625 53.03125 27.875 53.03125 
Q 38.28125 53.03125 44.875 45.953125 
Q 51.46875 38.875 51.46875 26.03125 
Q 51.46875 25.25 51.421875 23.6875 
L 12.75 23.6875 
Q 13.234375 15.140625 17.578125 10.59375 
Q 21.921875 6.0625 28.421875 6.0625 
Q 33.25 6.0625 36.671875 8.59375 
Q 40.09375 11.140625 42.09375 16.703125 
z
M 13.234375 30.90625 
L 42.1875 30.90625 
Q 41.609375 37.453125 38.875 40.71875 
Q 34.671875 45.796875 27.984375 45.796875 
Q 21.921875 45.796875 17.796875 41.75 
Q 13.671875 37.703125 13.234375 30.90625 
z
" id="ArialMT-101"/>
       <path d="M 3.078125 15.484375 
L 11.765625 16.84375 
Q 12.5 11.625 15.84375 8.84375 
Q 19.1875 6.0625 25.203125 6.0625 
Q 31.25 6.0625 34.171875 8.515625 
Q 37.109375 10.984375 37.109375 14.3125 
Q 37.109375 17.28125 34.515625 19 
Q 32.71875 20.171875 25.53125 21.96875 
Q 15.875 24.421875 12.140625 26.203125 
Q 8.40625 27.984375 6.46875 31.125 
Q 4.546875 34.28125 4.546875 38.09375 
Q 4.546875 41.546875 6.125 44.5 
Q 7.71875 47.46875 10.453125 49.421875 
Q 12.5 50.921875 16.03125 51.96875 
Q 19.578125 53.03125 23.640625 53.03125 
Q 29.734375 53.03125 34.34375 51.265625 
Q 38.96875 49.515625 41.15625 46.5 
Q 43.359375 43.5 44.1875 38.484375 
L 35.59375 37.3125 
Q 35.015625 41.3125 32.203125 43.546875 
Q 29.390625 45.796875 24.265625 45.796875 
Q 18.21875 45.796875 15.625 43.796875 
Q 13.03125 41.796875 13.03125 39.109375 
Q 13.03125 37.40625 14.109375 36.03125 
Q 15.1875 34.625 17.484375 33.6875 
Q 18.796875 33.203125 25.25 31.453125 
Q 34.578125 28.953125 38.25 27.359375 
Q 41.9375 25.78125 44.03125 22.75 
Q 46.140625 19.734375 46.140625 15.234375 
Q 46.140625 10.84375 43.578125 6.953125 
Q 41.015625 3.078125 36.171875 0.953125 
Q 31.34375 -1.171875 25.25 -1.171875 
Q 15.140625 -1.171875 9.84375 3.03125 
Q 4.546875 7.234375 3.078125 15.484375 
z
" id="ArialMT-115"/>
       <path d="M 0 -1.21875 
L 20.75 72.796875 
L 27.78125 72.796875 
L 7.078125 -1.21875 
z
" id="ArialMT-47"/>
       <path d="M 40.234375 0 
L 40.234375 6.546875 
Q 35.296875 -1.171875 25.734375 -1.171875 
Q 19.53125 -1.171875 14.328125 2.25 
Q 9.125 5.671875 6.265625 11.796875 
Q 3.421875 17.921875 3.421875 25.875 
Q 3.421875 33.640625 6 39.96875 
Q 8.59375 46.296875 13.765625 49.65625 
Q 18.953125 53.03125 25.34375 53.03125 
Q 30.03125 53.03125 33.6875 51.046875 
Q 37.359375 49.078125 39.65625 45.90625 
L 39.65625 71.578125 
L 48.390625 71.578125 
L 48.390625 0 
z
M 12.453125 25.875 
Q 12.453125 15.921875 16.640625 10.984375 
Q 20.84375 6.0625 26.5625 6.0625 
Q 32.328125 6.0625 36.34375 10.765625 
Q 40.375 15.484375 40.375 25.140625 
Q 40.375 35.796875 36.265625 40.765625 
Q 32.171875 45.75 26.171875 45.75 
Q 20.3125 45.75 16.375 40.96875 
Q 12.453125 36.1875 12.453125 25.875 
z
" id="ArialMT-100"/>
       <path d="M 6.203125 -19.96875 
L 5.21875 -11.71875 
Q 8.109375 -12.5 10.25 -12.5 
Q 13.1875 -12.5 14.9375 -11.515625 
Q 16.703125 -10.546875 17.828125 -8.796875 
Q 18.65625 -7.46875 20.515625 -2.25 
Q 20.75 -1.515625 21.296875 -0.09375 
L 1.609375 51.859375 
L 11.078125 51.859375 
L 21.875 21.828125 
Q 23.96875 16.109375 25.640625 9.8125 
Q 27.15625 15.875 29.25 21.625 
L 40.328125 51.859375 
L 49.125 51.859375 
L 29.390625 -0.875 
Q 26.21875 -9.421875 24.46875 -12.640625 
Q 22.125 -17 19.09375 -19.015625 
Q 16.0625 -21.046875 11.859375 -21.046875 
Q 9.328125 -21.046875 6.203125 -19.96875 
z
" id="ArialMT-121"/>
      </defs>
      <use xlink:href="#ArialMT-35"/>
      <use x="55.615234" xlink:href="#ArialMT-32"/>
      <use x="83.398438" xlink:href="#ArialMT-109"/>
      <use x="166.699219" xlink:href="#ArialMT-101"/>
      <use x="222.314453" xlink:href="#ArialMT-97"/>
      <use x="277.929688" xlink:href="#ArialMT-115"/>
      <use x="327.929688" xlink:href="#ArialMT-117"/>
      <use x="383.544922" xlink:href="#ArialMT-114"/>
      <use x="416.845703" xlink:href="#ArialMT-101"/>
      <use x="472.460938" xlink:href="#ArialMT-109"/>
      <use x="555.761719" xlink:href="#ArialMT-101"/>
      <use x="611.376953" xlink:href="#ArialMT-110"/>
      <use x="666.992188" xlink:href="#ArialMT-116"/>
      <use x="694.775391" xlink:href="#ArialMT-115"/>
      <use x="744.775391" xlink:href="#ArialMT-32"/>
      <use x="772.558594" xlink:href="#ArialMT-47"/>
      <use x="800.341797" xlink:href="#ArialMT-32"/>
      <use x="828.125" xlink:href="#ArialMT-100"/>
      <use x="883.740234" xlink:href="#ArialMT-97"/>
      <use x="939.355469" xlink:href="#ArialMT-121"/>
     </g>
    </g>
   </g>
   <g id="line2d_14">
    <path clip-path="url(#p1fb12109bc)" d="M 49.828125 187.082182 
L 50.58602 119.961309 
L 51.343914 120.400582 
L 52.101809 119.961309 
L 52.859704 126.989673 
L 53.617599 126.286836 
L 54.375493 120.312727 
L 55.133388 119.961309 
L 55.891283 120.137018 
L 56.649178 120.049164 
L 57.407072 120.137018 
L 58.164967 120.839855 
L 58.922862 119.961309 
L 59.680757 120.049164 
L 60.438651 119.7856 
L 62.712336 120.224873 
L 63.47023 120.839855 
L 64.98602 120.049164 
L 65.743914 119.961309 
L 67.259704 120.224873 
L 68.017599 120.664145 
L 68.775493 119.961309 
L 69.533388 120.839855 
L 70.291283 120.312727 
L 71.049178 119.961309 
L 71.807072 120.664145 
L 72.564967 120.049164 
L 73.322862 119.873455 
L 74.080757 120.137018 
L 74.838651 127.253236 
L 75.596546 120.049164 
L 76.354441 120.312727 
L 77.112336 120.400582 
L 77.87023 120.664145 
L 78.628125 120.049164 
L 79.38602 121.191273 
L 81.659704 120.137018 
L 82.417599 120.312727 
L 83.175493 125.847564 
L 83.933388 177.330327 
L 84.691283 214.756364 
L 93.78602 214.756364 
L 94.543914 152.467491 
L 95.301809 120.664145 
L 96.059704 120.576291 
L 96.817599 120.312727 
L 97.575493 119.873455 
L 98.333388 120.400582 
L 99.849178 120.137018 
L 100.607072 120.664145 
L 101.364967 120.312727 
L 102.122862 121.103418 
L 102.880757 121.366982 
L 103.638651 121.981964 
L 104.396546 119.961309 
L 105.912336 119.961309 
L 106.67023 120.137018 
L 107.428125 120.049164 
L 108.18602 120.312727 
L 108.943914 122.509091 
L 109.701809 120.137018 
L 110.459704 120.752 
L 111.217599 120.224873 
L 111.975493 120.400582 
L 113.491283 120.137018 
L 114.249178 120.049164 
L 115.007072 121.630545 
L 115.764967 120.839855 
L 116.522862 121.015564 
L 117.280757 123.124073 
L 118.038651 124.002618 
L 118.796546 122.509091 
L 119.554441 120.312727 
L 120.312336 122.421236 
L 121.07023 120.927709 
L 121.828125 121.806255 
L 122.58602 122.421236 
L 123.343914 121.279127 
L 124.101809 122.948364 
L 124.859704 121.366982 
L 125.617599 122.509091 
L 126.375493 120.224873 
L 127.133388 121.542691 
L 127.891283 120.137018 
L 128.649178 119.961309 
L 130.922862 119.873455 
L 131.680757 121.981964 
L 132.438651 121.454836 
L 133.196546 120.576291 
L 133.954441 119.873455 
L 134.712336 119.7856 
L 136.228125 120.224873 
L 136.98602 119.961309 
L 137.743914 120.488436 
L 139.259704 120.049164 
L 140.017599 120.400582 
L 140.775493 119.961309 
L 141.533388 119.961309 
L 142.291283 120.137018 
L 143.049178 120.049164 
L 143.807072 124.6176 
L 144.564967 124.793309 
L 145.322862 130.064582 
L 146.080757 131.558109 
L 146.838651 128.571055 
L 147.596546 133.490909 
L 148.354441 125.496145 
L 149.112336 124.6176 
L 149.87023 120.224873 
L 150.628125 121.454836 
L 151.38602 120.488436 
L 152.143914 121.015564 
L 152.901809 122.421236 
L 153.659704 120.049164 
L 154.417599 122.157673 
L 155.175493 121.366982 
L 155.933388 129.010327 
L 156.691283 127.692509 
L 157.449178 126.726109 
L 158.207072 128.131782 
L 158.964967 129.801018 
L 160.480757 127.956073 
L 161.238651 128.395345 
L 161.996546 125.320436 
L 162.754441 120.839855 
L 163.512336 120.312727 
L 165.028125 120.137018 
L 165.78602 119.873455 
L 166.543914 120.400582 
L 168.059704 119.961309 
L 168.817599 120.488436 
L 169.575493 120.049164 
L 170.333388 119.873455 
L 171.091283 120.312727 
L 172.607072 119.873455 
L 173.364967 120.224873 
L 174.122862 120.049164 
L 175.638651 119.961309 
L 176.396546 120.927709 
L 177.154441 92.814255 
L 177.912336 17.083636 
L 178.67023 30.261818 
L 179.428125 30.086109 
L 180.18602 30.437527 
L 180.943914 27.450473 
L 181.701809 37.993018 
L 182.459704 102.653964 
L 183.217599 26.220509 
L 183.975493 25.166255 
L 184.733388 25.869091 
L 185.491283 35.533091 
L 186.249178 43.44 
L 187.007072 25.341964 
L 187.764967 24.990545 
L 188.522862 24.990545 
L 189.280757 26.220509 
L 190.038651 26.396218 
L 190.796546 25.693382 
L 191.554441 25.869091 
L 192.312336 26.571927 
L 193.07023 26.220509 
L 193.828125 27.801891 
L 194.58602 27.801891 
L 195.343914 26.396218 
L 196.101809 27.9776 
L 196.859704 26.923345 
L 197.617599 26.923345 
L 198.375493 26.571927 
L 199.133388 25.517673 
L 199.891283 33.424582 
L 200.649178 29.383273 
L 201.407072 27.626182 
L 202.164967 26.747636 
L 202.922862 26.220509 
L 203.680757 26.220509 
L 204.438651 26.0448 
L 205.196546 39.750109 
L 205.954441 27.274764 
L 206.712336 28.153309 
L 207.47023 29.383273 
L 208.98602 25.517673 
L 209.743914 103.532509 
L 210.501809 214.756364 
L 212.017599 214.756364 
L 212.775493 143.9456 
L 213.533388 25.517673 
L 214.291283 26.923345 
L 215.049178 26.0448 
L 215.807072 26.220509 
L 216.564967 28.504727 
L 218.080757 29.9104 
L 218.838651 28.680436 
L 219.596546 29.383273 
L 220.354441 26.220509 
L 221.112336 33.248873 
L 221.87023 25.517673 
L 222.628125 27.801891 
L 223.38602 25.517673 
L 224.143914 27.450473 
L 224.901809 25.693382 
L 225.659704 28.329018 
L 226.417599 28.329018 
L 227.175493 26.747636 
L 227.933388 26.0448 
L 228.691283 26.220509 
L 229.449178 26.0448 
L 230.207072 25.693382 
L 230.964967 25.517673 
L 231.722862 28.153309 
L 232.480757 28.329018 
L 233.238651 28.329018 
L 234.754441 26.220509 
L 235.512336 25.517673 
L 236.27023 29.9104 
L 237.028125 26.0448 
L 237.78602 27.274764 
L 238.543914 26.747636 
L 239.301809 29.031855 
L 240.059704 25.341964 
L 240.817599 26.396218 
L 241.575493 26.0448 
L 242.333388 27.450473 
L 243.091283 26.0448 
L 243.849178 25.341964 
L 244.607072 24.990545 
L 245.364967 24.814836 
L 246.122862 24.990545 
L 247.638651 24.990545 
L 248.396546 26.0448 
L 249.154441 25.166255 
L 250.67023 25.166255 
L 251.428125 24.814836 
L 252.943914 25.166255 
L 253.701809 24.990545 
L 254.459704 30.437527 
L 255.217599 25.341964 
L 255.975493 24.814836 
L 256.733388 24.990545 
L 257.491283 25.341964 
L 258.249178 24.990545 
L 259.007072 25.341964 
L 259.764967 25.341964 
L 260.522862 29.734691 
L 261.280757 25.341964 
L 262.038651 25.341964 
L 262.796546 24.639127 
L 263.554441 25.166255 
L 264.312336 25.341964 
L 265.07023 32.897455 
L 265.828125 25.341964 
L 266.58602 24.814836 
L 267.343914 25.341964 
L 268.101809 24.814836 
L 268.859704 24.990545 
L 269.617599 25.517673 
L 270.375493 24.814836 
L 271.133388 25.166255 
L 271.891283 25.166255 
L 272.649178 56.618182 
L 273.407072 123.826909 
L 274.164967 120.664145 
L 274.922862 120.224873 
L 275.680757 120.137018 
L 276.438651 120.224873 
L 277.196546 119.873455 
L 278.712336 119.7856 
L 279.47023 120.664145 
L 280.228125 120.576291 
L 280.98602 119.961309 
L 281.743914 120.400582 
L 283.259704 119.961309 
L 284.017599 120.312727 
L 284.775493 119.873455 
L 285.533388 120.224873 
L 286.291283 121.015564 
L 287.049178 120.400582 
L 287.807072 120.049164 
L 288.564967 119.961309 
L 289.322862 120.927709 
L 290.080757 119.873455 
L 291.596546 123.211927 
L 292.354441 119.873455 
L 293.112336 119.873455 
L 293.87023 120.049164 
L 294.628125 119.873455 
L 295.38602 119.873455 
L 296.143914 120.664145 
L 296.901809 121.894109 
L 297.659704 120.049164 
L 298.417599 120.049164 
L 299.175493 119.7856 
L 299.933388 120.664145 
L 300.691283 119.873455 
L 301.449178 119.873455 
L 302.207072 120.576291 
L 302.964967 119.873455 
L 303.722862 119.7856 
L 305.996546 119.961309 
L 306.754441 119.961309 
L 307.512336 124.354036 
L 308.27023 120.049164 
L 309.78602 119.961309 
L 311.301809 120.927709 
L 312.059704 121.366982 
L 312.817599 120.664145 
L 313.575493 120.137018 
L 314.333388 121.191273 
L 315.091283 120.049164 
L 315.849178 119.961309 
L 316.607072 121.894109 
L 317.364967 120.576291 
L 318.122862 120.927709 
L 318.880757 121.103418 
L 319.638651 120.224873 
L 320.396546 121.806255 
L 321.154441 119.961309 
L 321.912336 120.312727 
L 322.67023 120.049164 
L 323.428125 125.320436 
L 324.18602 120.664145 
L 324.943914 120.839855 
L 325.701809 122.421236 
L 326.459704 120.927709 
L 327.217599 121.806255 
L 327.975493 121.191273 
L 328.733388 121.630545 
L 329.491283 121.279127 
L 330.249178 123.914764 
L 331.007072 172.498327 
L 331.764967 120.927709 
L 333.280757 121.542691 
L 334.038651 121.454836 
L 334.796546 120.488436 
L 335.554441 141.573527 
L 336.312336 151.501091 
L 371.175493 151.501091 
L 371.933388 151.6768 
L 372.691283 151.501091 
L 373.449178 151.588945 
L 374.964967 151.501091 
L 381.028125 151.588945 
L 381.78602 151.6768 
L 382.543914 151.501091 
L 384.817599 151.501091 
L 385.575493 151.852509 
L 386.333388 151.501091 
L 411.343914 151.501091 
L 412.101809 151.6768 
L 412.859704 151.501091 
L 413.617599 151.6768 
L 414.375493 151.501091 
L 415.133388 151.6768 
L 415.891283 204.740945 
L 416.649178 214.756364 
L 440.143914 214.756364 
L 441.659704 173.552582 
L 442.417599 177.066764 
L 443.175493 189.014982 
L 443.933388 214.756364 
L 446.207072 214.756364 
L 446.964967 177.506036 
L 447.722862 151.588945 
L 448.480757 211.857164 
L 449.238651 214.756364 
L 450.754441 214.756364 
L 452.27023 151.501091 
L 453.028125 133.051636 
L 453.78602 82.974545 
L 454.543914 88.245818 
L 455.301809 88.421527 
L 456.817599 88.421527 
L 457.575493 88.245818 
L 460.607072 88.245818 
L 461.364967 88.421527 
L 462.122862 88.245818 
L 464.396546 88.245818 
L 465.154441 88.772945 
L 465.912336 88.421527 
L 466.67023 88.245818 
L 469.701809 88.245818 
L 470.459704 88.772945 
L 471.217599 88.421527 
L 471.975493 88.245818 
L 472.733388 88.421527 
L 473.491283 88.245818 
L 474.249178 94.922764 
L 475.007072 88.245818 
L 475.764967 88.772945 
L 476.522862 88.245818 
L 480.312336 88.245818 
L 481.07023 88.421527 
L 481.828125 88.245818 
L 482.58602 88.245818 
L 483.343914 88.421527 
L 484.101809 88.245818 
L 488.649178 88.245818 
L 489.407072 88.421527 
L 490.164967 88.245818 
L 490.922862 88.245818 
L 491.680757 88.597236 
L 492.438651 88.245818 
L 493.196546 88.245818 
L 493.954441 88.421527 
L 494.712336 88.245818 
L 495.47023 109.330909 
L 496.228125 172.586182 
L 496.228125 172.586182 
" style="fill:none;stroke:#1f77b4;stroke-linecap:round;stroke-width:1.5;"/>
   </g>
   <g id="patch_3">
    <path d="M 49.828125 224.64 
L 49.828125 7.2 
" style="fill:none;stroke:#cccccc;stroke-linecap:square;stroke-linejoin:miter;stroke-width:0.8;"/>
   </g>
   <g id="patch_4">
    <path d="M 496.228125 224.64 
L 496.228125 7.2 
" style="fill:none;stroke:#cccccc;stroke-linecap:square;stroke-linejoin:miter;stroke-width:0.8;"/>
   </g>
   <g id="patch_5">
    <path d="M 49.828125 224.64 
L 496.228125 224.64 
" style="fill:none;stroke:#cccccc;stroke-linecap:square;stroke-linejoin:miter;stroke-width:0.8;"/>
   </g>
   <g id="patch_6">
    <path d="M 49.828125 7.2 
L 496.228125 7.2 
" style="fill:none;stroke:#cccccc;stroke-linecap:square;stroke-linejoin:miter;stroke-width:0.8;"/>
   </g>
  </g>
 </g>
 <defs>
  <clipPath id="p1fb12109bc">
   <rect height="217.44" width="446.4" x="49.828125" y="7.2"/>
  </clipPath>
 </defs>
</svg>
