<svg class="main-svg" xmlns="http://www.w3.org/2000/svg" xmlns:xlink="http://www.w3.org/1999/xlink" width="550" height="250" style="" viewBox="0 0 550 250"><rect x="0" y="0" width="550" height="250" style="fill: rgb(255, 255, 255); fill-opacity: 1;"/><defs id="defs-223843"><g class="clips"><clipPath id="clip223843xyplot" class="plotclip"><rect width="469" height="181"/></clipPath><clipPath class="axesclip" id="clip223843x"><rect x="71" y="0" width="469" height="250"/></clipPath><clipPath class="axesclip" id="clip223843y"><rect x="0" y="10" width="550" height="181"/></clipPath><clipPath class="axesclip" id="clip223843xy"><rect x="71" y="10" width="469" height="181"/></clipPath></g><g class="gradients"/><g class="patterns"/></defs><g class="bglayer"/><g class="layer-below"><g class="imagelayer"/><g class="shapelayer"/></g><g class="cartesianlayer"><g class="subplot xy"><g class="layer-subplot"><g class="shapelayer"/><g class="imagelayer"/></g><g class="gridlayer"><g class="x"><path class="xgrid crisp" transform="translate(105.24000000000001,0)" d="M0,10v181" style="stroke: rgb(232, 232, 232); stroke-opacity: 1; stroke-width: 1px;"/><path class="xgrid crisp" transform="translate(178.5,0)" d="M0,10v181" style="stroke: rgb(232, 232, 232); stroke-opacity: 1; stroke-width: 1px;"/><path class="xgrid crisp" transform="translate(251.75,0)" d="M0,10v181" style="stroke: rgb(232, 232, 232); stroke-opacity: 1; stroke-width: 1px;"/><path class="xgrid crisp" transform="translate(323.41999999999996,0)" d="M0,10v181" style="stroke: rgb(232, 232, 232); stroke-opacity: 1; stroke-width: 1px;"/><path class="xgrid crisp" transform="translate(395.88,0)" d="M0,10v181" style="stroke: rgb(232, 232, 232); stroke-opacity: 1; stroke-width: 1px;"/><path class="xgrid crisp" transform="translate(469.13,0)" d="M0,10v181" style="stroke: rgb(232, 232, 232); stroke-opacity: 1; stroke-width: 1px;"/></g><g class="y"><path class="ygrid crisp" transform="translate(0,181.95)" d="M71,0h469" style="stroke: rgb(232, 232, 232); stroke-opacity: 1; stroke-width: 1px;"/><path class="ygrid crisp" transform="translate(0,145.75)" d="M71,0h469" style="stroke: rgb(232, 232, 232); stroke-opacity: 1; stroke-width: 1px;"/><path class="ygrid crisp" transform="translate(0,109.55)" d="M71,0h469" style="stroke: rgb(232, 232, 232); stroke-opacity: 1; stroke-width: 1px;"/><path class="ygrid crisp" transform="translate(0,73.35)" d="M71,0h469" style="stroke: rgb(232, 232, 232); stroke-opacity: 1; stroke-width: 1px;"/><path class="ygrid crisp" transform="translate(0,37.15)" d="M71,0h469" style="stroke: rgb(232, 232, 232); stroke-opacity: 1; stroke-width: 1px;"/></g></g><g class="zerolinelayer"/><path class="xlines-below"/><path class="ylines-below"/><g class="overlines-below"/><g class="xaxislayer-below"/><g class="yaxislayer-below"/><g class="overaxes-below"/><g class="plot" transform="translate(71,10)" clip-path="url(#clip223843xyplot)"><g class="scatterlayer mlayer"><g class="trace scatter trace9840b0" style="stroke-miterlimit: 2; opacity: 1;"><g class="fills"/><g class="errorbars"/><g class="lines"><path class="js-line" d="M0,149.14L0.8,93.83L1.59,94.19L2.39,93.83L3.19,99.62L3.98,99.04L4.78,94.12L7.17,93.9L7.96,93.98L8.76,94.55L9.56,93.83L15.13,94.19L15.93,93.9L18.31,94.05L19.11,94.41L19.91,93.83L20.7,94.55L22.3,93.83L23.09,94.41L24.68,93.76L25.48,93.98L26.28,99.84L27.07,93.9L29.46,94.41L30.26,93.9L31.05,94.84L31.85,94.55L34.24,94.12L35.04,98.68L36.63,171.95L37.42,171.95L46.18,171.95L46.98,120.62L47.78,94.41L48.57,94.34L50.96,94.19L51.76,94.12L54.15,94.12L54.94,94.77L56.53,95.5L57.33,93.83L61.31,94.12L62.11,95.93L62.9,93.98L63.7,94.48L65.29,94.19L66.09,94.05L67.68,93.9L68.48,95.21L70.07,94.7L70.87,96.44L71.66,97.16L72.46,95.93L73.26,94.12L74.05,95.86L74.85,94.63L75.65,95.35L76.44,95.86L77.24,94.92L78.03,96.29L78.83,94.99L79.63,95.93L80.42,94.05L81.22,95.13L82.02,93.98L85.2,93.76L86,95.5L89.18,93.69L89.98,93.9L94.76,94.19L95.55,93.83L97.94,93.9L98.74,97.67L99.53,97.81L100.33,102.16L101.13,103.39L101.92,100.93L102.72,104.98L103.51,98.39L104.31,97.67L105.11,94.05L105.9,95.06L106.7,94.26L108.29,95.86L109.09,93.9L109.88,95.64L110.68,94.99L111.48,101.29L112.27,100.2L113.07,99.41L113.87,100.56L114.66,101.94L115.46,101.14L116.25,100.42L117.05,100.78L119.44,94.12L120.24,94.05L124.22,93.83L125.01,94.26L126.61,93.76L127.4,94.12L130.59,93.9L131.38,93.9L132.18,93.83L132.98,94.63L133.77,71.46L134.57,9.05L135.37,19.91L136.16,19.77L136.96,20.05L137.75,17.59L138.55,26.28L139.35,79.57L140.14,16.58L140.94,15.71L141.74,16.29L142.53,24.25L143.33,30.77L144.12,15.86L145.72,15.57L146.51,16.58L150.49,16.58L151.29,17.88L152.09,17.88L152.88,16.72L153.68,18.03L154.48,17.16L156.07,16.87L156.86,16L157.66,22.52L158.46,19.19L160.05,17.01L160.85,16.58L162.44,16.43L163.23,27.73L164.03,17.45L164.83,18.17L165.62,19.19L166.42,17.59L167.22,16L168.01,80.29L168.81,171.95L169.6,171.95L170.4,171.95L171.2,113.6L171.99,16L172.79,17.16L174.38,16.58L175.18,18.46L176.77,19.62L177.57,18.61L178.36,19.19L179.16,16.58L179.96,22.37L180.75,16L181.55,17.88L182.34,16L183.14,17.59L183.94,16.15L184.73,18.32L185.53,18.32L187.12,16.43L187.92,16.58L190.31,16L191.1,18.17L192.7,18.32L193.49,17.45L195.08,16L195.88,19.62L196.68,16.43L197.47,17.45L198.27,17.01L199.07,18.9L199.86,15.86L200.66,16.72L201.46,16.43L202.25,17.59L203.84,15.86L204.64,15.57L207.83,15.57L208.62,16.43L210.21,15.71L211.01,15.71L212.6,15.57L213.4,15.71L214.2,15.57L214.99,20.05L216.58,15.42L217.38,15.57L219.77,15.86L220.57,15.86L221.36,19.48L222.16,15.86L225.34,15.86L226.14,22.08L227.73,15.42L228.53,15.86L230.12,15.57L230.92,16L232.51,15.71L233.31,15.71L234.1,41.63L234.9,97.02L236.49,94.05L237.29,93.98L244.45,94.05L245.25,93.83L248.43,94.7L249.23,94.19L250.82,93.83L251.62,94.63L252.42,93.76L253.21,95.13L254.01,96.51L254.8,93.76L258.79,94.41L259.58,95.42L261.17,93.9L261.97,93.69L262.77,94.41L263.56,93.76L269.93,93.83L270.73,97.45L271.53,93.9L272.32,93.83L273.92,94.26L274.71,94.63L275.51,94.99L276.3,94.41L277.1,93.98L277.9,94.84L279.49,93.83L280.29,95.42L281.08,94.34L281.88,94.63L282.67,94.77L283.47,94.05L284.27,95.35L285.06,93.83L286.66,93.9L287.45,98.25L288.25,94.41L289.04,94.55L289.84,95.86L290.64,94.63L291.43,95.35L292.23,94.84L293.82,94.92L294.62,97.09L295.41,137.13L296.21,94.63L298.6,95.06L299.4,94.26L300.99,119.82L301.78,119.82L383.8,119.97L384.6,163.7L385.39,171.95L386.19,171.95L410.08,171.95L410.87,153.63L411.67,137.99L412.47,140.89L413.26,150.74L414.06,171.95L416.45,171.95L417.24,141.25L418.04,119.89L418.84,169.56L419.63,171.95L420.43,171.95L421.22,171.95L422.02,145.31L424.41,63.35L425.21,67.69L429.19,67.69L429.98,67.69L445.11,67.69L445.91,73.2L446.7,67.69L447.5,68.13L449.09,67.69L449.89,67.69L467.41,67.69L468.2,85.07L469,137.2" style="vector-effect: non-scaling-stroke; fill: none; stroke: rgb(31, 119, 180); stroke-opacity: 1; stroke-width: 2px; opacity: 1;"/></g><g class="points"/><g class="text"/></g></g></g><g class="overplot"/><path class="xlines-above crisp" d="M70,191.5H540" style="fill: none; stroke-width: 1px; stroke: rgb(36, 36, 36); stroke-opacity: 1;"/><path class="ylines-above crisp" d="M70.5,10V191" style="fill: none; stroke-width: 1px; stroke: rgb(36, 36, 36); stroke-opacity: 1;"/><g class="overlines-above"/><g class="xaxislayer-above"><path class="xtick ticks crisp" d="M0,192v5" transform="translate(105.24000000000001,0)" style="stroke: rgb(68, 68, 68); stroke-opacity: 1; stroke-width: 1px;"/><path class="xtick ticks crisp" d="M0,192v5" transform="translate(178.5,0)" style="stroke: rgb(68, 68, 68); stroke-opacity: 1; stroke-width: 1px;"/><path class="xtick ticks crisp" d="M0,192v5" transform="translate(251.75,0)" style="stroke: rgb(68, 68, 68); stroke-opacity: 1; stroke-width: 1px;"/><path class="xtick ticks crisp" d="M0,192v5" transform="translate(323.41999999999996,0)" style="stroke: rgb(68, 68, 68); stroke-opacity: 1; stroke-width: 1px;"/><path class="xtick ticks crisp" d="M0,192v5" transform="translate(395.88,0)" style="stroke: rgb(68, 68, 68); stroke-opacity: 1; stroke-width: 1px;"/><path class="xtick ticks crisp" d="M0,192v5" transform="translate(469.13,0)" style="stroke: rgb(68, 68, 68); stroke-opacity: 1; stroke-width: 1px;"/><g class="xtick"><text text-anchor="middle" x="0" y="211.4" transform="translate(105.24000000000001,0)" style="font-family: 'Open Sans', verdana, arial, sans-serif; font-size: 12px; fill: rgb(36, 36, 36); fill-opacity: 1; white-space: pre; opacity: 1;">Jul 2018</text></g><g class="xtick"><text text-anchor="middle" x="0" y="211.4" style="font-family: 'Open Sans', verdana, arial, sans-serif; font-size: 12px; fill: rgb(36, 36, 36); fill-opacity: 1; white-space: pre; opacity: 1;" transform="translate(178.5,0)">Oct 2018</text></g><g class="xtick"><text text-anchor="middle" x="0" y="211.4" style="font-family: 'Open Sans', verdana, arial, sans-serif; font-size: 12px; fill: rgb(36, 36, 36); fill-opacity: 1; white-space: pre; opacity: 1;" transform="translate(251.75,0)">Jan 2019</text></g><g class="xtick"><text text-anchor="middle" x="0" y="211.4" style="font-family: 'Open Sans', verdana, arial, sans-serif; font-size: 12px; fill: rgb(36, 36, 36); fill-opacity: 1; white-space: pre; opacity: 1;" transform="translate(323.41999999999996,0)">Apr 2019</text></g><g class="xtick"><text text-anchor="middle" x="0" y="211.4" style="font-family: 'Open Sans', verdana, arial, sans-serif; font-size: 12px; fill: rgb(36, 36, 36); fill-opacity: 1; white-space: pre; opacity: 1;" transform="translate(395.88,0)">Jul 2019</text></g><g class="xtick"><text text-anchor="middle" x="0" y="211.4" style="font-family: 'Open Sans', verdana, arial, sans-serif; font-size: 12px; fill: rgb(36, 36, 36); fill-opacity: 1; white-space: pre; opacity: 1;" transform="translate(469.13,0)">Oct 2019</text></g></g><g class="yaxislayer-above"><path class="ytick ticks crisp" d="M70,0h-5" transform="translate(0,181.95)" style="stroke: rgb(68, 68, 68); stroke-opacity: 1; stroke-width: 1px;"/><path class="ytick ticks crisp" d="M70,0h-5" transform="translate(0,145.75)" style="stroke: rgb(68, 68, 68); stroke-opacity: 1; stroke-width: 1px;"/><path class="ytick ticks crisp" d="M70,0h-5" transform="translate(0,109.55)" style="stroke: rgb(68, 68, 68); stroke-opacity: 1; stroke-width: 1px;"/><path class="ytick ticks crisp" d="M70,0h-5" transform="translate(0,73.35)" style="stroke: rgb(68, 68, 68); stroke-opacity: 1; stroke-width: 1px;"/><path class="ytick ticks crisp" d="M70,0h-5" transform="translate(0,37.15)" style="stroke: rgb(68, 68, 68); stroke-opacity: 1; stroke-width: 1px;"/><g class="ytick"><text text-anchor="end" x="62.6" y="4.199999999999999" transform="translate(0,181.95)" style="font-family: 'Open Sans', verdana, arial, sans-serif; font-size: 12px; fill: rgb(36, 36, 36); fill-opacity: 1; white-space: pre; opacity: 1;">0</text></g><g class="ytick"><text text-anchor="end" x="62.6" y="4.199999999999999" style="font-family: 'Open Sans', verdana, arial, sans-serif; font-size: 12px; fill: rgb(36, 36, 36); fill-opacity: 1; white-space: pre; opacity: 1;" transform="translate(0,145.75)">500</text></g><g class="ytick"><text text-anchor="end" x="62.6" y="4.199999999999999" style="font-family: 'Open Sans', verdana, arial, sans-serif; font-size: 12px; fill: rgb(36, 36, 36); fill-opacity: 1; white-space: pre; opacity: 1;" transform="translate(0,109.55)">1000</text></g><g class="ytick"><text text-anchor="end" x="62.6" y="4.199999999999999" style="font-family: 'Open Sans', verdana, arial, sans-serif; font-size: 12px; fill: rgb(36, 36, 36); fill-opacity: 1; white-space: pre; opacity: 1;" transform="translate(0,73.35)">1500</text></g><g class="ytick"><text text-anchor="end" x="62.6" y="4.199999999999999" style="font-family: 'Open Sans', verdana, arial, sans-serif; font-size: 12px; fill: rgb(36, 36, 36); fill-opacity: 1; white-space: pre; opacity: 1;" transform="translate(0,37.15)">2000</text></g></g><g class="overaxes-above"/></g></g><g class="polarlayer"/><g class="smithlayer"/><g class="ternarylayer"/><g class="geolayer"/><g class="funnelarealayer"/><g class="pielayer"/><g class="iciclelayer"/><g class="treemaplayer"/><g class="sunburstlayer"/><g class="glimages"/><defs id="topdefs-223843"><g class="clips"/></defs><g class="layer-above"><g class="imagelayer"/><g class="shapelayer"/></g><g class="infolayer"><g class="g-gtitle"/><g class="g-xtitle"><text class="xtitle" x="305.5" y="239.70625" text-anchor="middle" style="font-family: 'Open Sans', verdana, arial, sans-serif; font-size: 14px; fill: rgb(36, 36, 36); opacity: 1; font-weight: normal; white-space: pre;">Date</text></g><g class="g-ytitle" transform="translate(4.6591796875,0)"><text class="ytitle" transform="rotate(-90,10.340625000000003,100.5)" x="10.340625000000003" y="100.5" text-anchor="middle" style="font-family: 'Open Sans', verdana, arial, sans-serif; font-size: 14px; fill: rgb(36, 36, 36); opacity: 1; font-weight: normal; white-space: pre;">Records per day</text></g></g></svg>