<svg class="main-svg" xmlns="http://www.w3.org/2000/svg" xmlns:xlink="http://www.w3.org/1999/xlink" width="500" height="250" style="" viewBox="0 0 500 250"><rect x="0" y="0" width="500" height="250" style="fill: rgb(255, 255, 255); fill-opacity: 1;"/><defs id="defs-4ddf37"><g class="clips"><clipPath id="clip4ddf37xyplot" class="plotclip"><rect width="427" height="172"/></clipPath><clipPath class="axesclip" id="clip4ddf37x"><rect x="57" y="0" width="427" height="250"/></clipPath><clipPath class="axesclip" id="clip4ddf37y"><rect x="0" y="19" width="500" height="172"/></clipPath><clipPath class="axesclip" id="clip4ddf37xy"><rect x="57" y="19" width="427" height="172"/></clipPath></g><g class="gradients"/><g class="patterns"/></defs><g class="bglayer"/><g class="layer-below"><g class="imagelayer"/><g class="shapelayer"/></g><g class="cartesianlayer"><g class="subplot xy"><g class="layer-subplot"><g class="shapelayer"/><g class="imagelayer"/></g><g class="gridlayer"><g class="x"><path class="xgrid crisp" transform="translate(129.01999999999998,0)" d="M0,19v172" style="stroke: rgb(232, 232, 232); stroke-opacity: 1; stroke-width: 1px;"/><path class="xgrid crisp" transform="translate(264.25,0)" d="M0,19v172" style="stroke: rgb(232, 232, 232); stroke-opacity: 1; stroke-width: 1px;"/><path class="xgrid crisp" transform="translate(397.28,0)" d="M0,19v172" style="stroke: rgb(232, 232, 232); stroke-opacity: 1; stroke-width: 1px;"/></g><g class="y"><path class="ygrid crisp" transform="translate(0,133.67000000000002)" d="M57,0h427" style="stroke: rgb(232, 232, 232); stroke-opacity: 1; stroke-width: 1px;"/><path class="ygrid crisp" transform="translate(0,76.33)" d="M57,0h427" style="stroke: rgb(232, 232, 232); stroke-opacity: 1; stroke-width: 1px;"/></g></g><g class="zerolinelayer"/><path class="xlines-below"/><path class="ylines-below"/><g class="overlines-below"/><g class="xaxislayer-below"/><g class="yaxislayer-below"/><g class="overaxes-below"/><g class="plot" transform="translate(57,19)" clip-path="url(#clip4ddf37xyplot)"><g class="scatterlayer mlayer"><g class="trace scatter trace84d51b" style="stroke-miterlimit: 2; opacity: 1;"><g class="fills"/><g class="errorbars"/><g class="lines"><path class="js-line" d="M0,142.31L5.14,129.3L10.29,130.1L15.43,111.45L20.58,140.49L25.72,149.55L30.87,92.52L36.01,100.97L41.16,115.37L46.3,134.14L51.45,138.82L56.59,112.64L61.73,114.45L66.88,111.14L72.02,131.06L77.17,125.97L82.31,104.63L87.46,126.4L92.6,133.43L97.75,141.91L102.89,128.04L108.04,114.51L113.18,127.58L118.33,111.53L123.47,132.13L128.61,147.44L133.76,131.1L138.9,141.46L144.05,123.33L149.19,142L154.34,138.66L159.48,140.26L164.63,138.91L169.77,141.91L174.92,127.02L180.06,102.39L185.2,119.87L190.35,122.36L195.49,120.38L200.64,129.3L205.78,127.23L210.93,140.18L216.07,120.18L221.22,109.65L226.36,132.28L231.51,112.95L236.65,127.79L241.8,133.48L246.94,147.55L252.08,133.81L257.23,130.09L262.37,141.7L267.52,135.88L272.66,115.41L277.81,127.34L282.95,133.63L288.1,145.1L293.24,126.58L298.39,117.12L303.53,137.79L308.67,126.41L313.82,111.19L318.96,114.48L324.11,128.12L329.25,137.78L334.4,129.48L339.54,118.92L344.69,113.78L349.83,127.82L354.98,124.04L360.12,123.88L365.27,115.82L370.41,116.45L375.55,120.28L380.7,132.28L385.84,130.27L390.99,121.07L396.13,96.05L401.28,121.04L411.57,102.97L416.71,140.24L427,144.19" style="vector-effect: non-scaling-stroke; fill: none; stroke: rgb(31, 119, 180); stroke-opacity: 1; stroke-width: 2px; opacity: 1;"/></g><g class="points"/><g class="text"/></g><g class="trace scatter trace41c05b" style="stroke-miterlimit: 2; opacity: 1;"><g class="fills"/><g class="errorbars"/><g class="lines"><path class="js-line" d="M0,131.61L10.29,117.48L15.43,82.98L20.58,137.81L25.72,144.83L30.87,85.41L36.01,73.91L41.16,67.1L46.3,110.76L51.45,105.02L56.59,54.24L61.73,46.42L66.88,67.07L72.02,90.25L77.17,80.77L82.31,26.48L87.46,79.87L92.6,98.64L97.75,122.13L102.89,87.62L108.04,58.9L113.18,90.65L118.33,52.5L123.47,98.62L128.61,137.36L133.76,83.87L138.9,124.89L144.05,69.22L149.19,126.94L154.34,121.81L159.48,130.23L164.63,125.95L169.77,136.05L180.06,45.22L185.2,79.5L190.35,80.6L195.49,77.37L200.64,112.76L205.78,92.29L210.93,119.39L216.07,88.03L221.22,56.3L226.36,109.18L231.51,63.1L236.65,92.04L241.8,84.93L246.94,129.42L252.08,99.78L257.23,88.92L262.37,133.22L267.52,114.84L272.66,77.53L277.81,91.51L282.95,109.76L288.1,139.39L298.39,77.54L303.53,123.84L308.67,101.43L313.82,57.45L318.96,66.2L324.11,71.06L329.25,122.38L334.4,85.3L344.69,42.34L349.83,86.54L354.98,103.76L360.12,83.47L365.27,52.55L370.41,55.62L375.55,58.53L380.7,103.65L385.84,106.68L390.99,83.02L396.13,20.39L401.28,92.41L406.42,55.03L411.57,28.73L416.71,132.57L421.86,132.73L427,139.41" style="vector-effect: non-scaling-stroke; fill: none; stroke: rgb(0, 0, 0); stroke-opacity: 1; stroke-width: 2px; opacity: 1; stroke-dasharray: 3px, 3px;"/></g><g class="points"/><g class="text"/></g></g></g><g class="overplot"/><path class="xlines-above crisp" d="M56,191.5H484" style="fill: none; stroke-width: 1px; stroke: rgb(36, 36, 36); stroke-opacity: 1;"/><path class="ylines-above crisp" d="M56.5,19V191" style="fill: none; stroke-width: 1px; stroke: rgb(36, 36, 36); stroke-opacity: 1;"/><g class="overlines-above"/><g class="xaxislayer-above"><path class="xtick ticks crisp" d="M0,192v5" transform="translate(129.01999999999998,0)" style="stroke: rgb(68, 68, 68); stroke-opacity: 1; stroke-width: 1px;"/><path class="xtick ticks crisp" d="M0,192v5" transform="translate(264.25,0)" style="stroke: rgb(68, 68, 68); stroke-opacity: 1; stroke-width: 1px;"/><path class="xtick ticks crisp" d="M0,192v5" transform="translate(397.28,0)" style="stroke: rgb(68, 68, 68); stroke-opacity: 1; stroke-width: 1px;"/><g class="xtick"><text text-anchor="middle" x="0" y="211.4" transform="translate(129.01999999999998,0)" style="font-family: 'Open Sans', verdana, arial, sans-serif; font-size: 12px; fill: rgb(36, 36, 36); fill-opacity: 1; white-space: pre; opacity: 1;">Jul 2018</text></g><g class="xtick"><text text-anchor="middle" x="0" y="211.4" style="font-family: 'Open Sans', verdana, arial, sans-serif; font-size: 12px; fill: rgb(36, 36, 36); fill-opacity: 1; white-space: pre; opacity: 1;" transform="translate(264.25,0)">Jan 2019</text></g><g class="xtick"><text text-anchor="middle" x="0" y="211.4" style="font-family: 'Open Sans', verdana, arial, sans-serif; font-size: 12px; fill: rgb(36, 36, 36); fill-opacity: 1; white-space: pre; opacity: 1;" transform="translate(397.28,0)">Jul 2019</text></g></g><g class="yaxislayer-above"><path class="ytick ticks crisp" d="M56,0h-5" transform="translate(0,191)" style="stroke: rgb(68, 68, 68); stroke-opacity: 1; stroke-width: 1px;"/><path class="ytick ticks crisp" d="M56,0h-5" transform="translate(0,133.67000000000002)" style="stroke: rgb(68, 68, 68); stroke-opacity: 1; stroke-width: 1px;"/><path class="ytick ticks crisp" d="M56,0h-5" transform="translate(0,76.33)" style="stroke: rgb(68, 68, 68); stroke-opacity: 1; stroke-width: 1px;"/><path class="ytick ticks crisp" d="M56,0h-5" transform="translate(0,19)" style="stroke: rgb(68, 68, 68); stroke-opacity: 1; stroke-width: 1px;"/><g class="ytick"><text text-anchor="end" x="48.6" y="4.199999999999999" transform="translate(0,191)" style="font-family: 'Open Sans', verdana, arial, sans-serif; font-size: 12px; fill: rgb(36, 36, 36); fill-opacity: 1; white-space: pre; opacity: 1;">0</text></g><g class="ytick"><text text-anchor="end" x="48.6" y="4.199999999999999" style="font-family: 'Open Sans', verdana, arial, sans-serif; font-size: 12px; fill: rgb(36, 36, 36); fill-opacity: 1; white-space: pre; opacity: 1;" transform="translate(0,133.67000000000002)">10</text></g><g class="ytick"><text text-anchor="end" x="48.6" y="4.199999999999999" style="font-family: 'Open Sans', verdana, arial, sans-serif; font-size: 12px; fill: rgb(36, 36, 36); fill-opacity: 1; white-space: pre; opacity: 1;" transform="translate(0,76.33)">20</text></g><g class="ytick"><text text-anchor="end" x="48.6" y="4.199999999999999" style="font-family: 'Open Sans', verdana, arial, sans-serif; font-size: 12px; fill: rgb(36, 36, 36); fill-opacity: 1; white-space: pre; opacity: 1;" transform="translate(0,19)">30</text></g></g><g class="overaxes-above"/></g></g><g class="polarlayer"/><g class="smithlayer"/><g class="ternarylayer"/><g class="geolayer"/><g class="funnelarealayer"/><g class="pielayer"/><g class="iciclelayer"/><g class="treemaplayer"/><g class="sunburstlayer"/><g class="glimages"/><defs id="topdefs-4ddf37"><g class="clips"/></defs><g class="layer-above"><g class="imagelayer"/><g class="shapelayer"/></g><g class="infolayer"><g class="g-gtitle"/><g class="g-xtitle"><text class="xtitle" x="270.5" y="239.70625" text-anchor="middle" style="font-family: 'Open Sans', verdana, arial, sans-serif; font-size: 14px; fill: rgb(36, 36, 36); opacity: 1; font-weight: normal; white-space: pre;">Date</text></g><g class="g-ytitle" transform="translate(4.9248046875,0)"><text class="ytitle" transform="rotate(-90,10.075000000000003,105)" x="10.075000000000003" y="105" text-anchor="middle" style="font-family: 'Open Sans', verdana, arial, sans-serif; font-size: 14px; fill: rgb(36, 36, 36); opacity: 1; font-weight: normal; white-space: pre;">PM 2.5 weekly avg</text></g></g></svg>