<?xml version="1.0" encoding="utf-8" standalone="no"?>
<!DOCTYPE svg PUBLIC "-//W3C//DTD SVG 1.1//EN"
  "http://www.w3.org/Graphics/SVG/1.1/DTD/svg11.dtd">
<!-- Created with matplotlib (https://matplotlib.org/) -->
<svg height="570.955391pt" version="1.1" viewBox="0 0 860.284844 570.955391" width="860.284844pt" xmlns="http://www.w3.org/2000/svg" xmlns:xlink="http://www.w3.org/1999/xlink">
 <metadata>
  <rdf:RDF xmlns:cc="http://creativecommons.org/ns#" xmlns:dc="http://purl.org/dc/elements/1.1/" xmlns:rdf="http://www.w3.org/1999/02/22-rdf-syntax-ns#">
   <cc:Work>
    <dc:type rdf:resource="http://purl.org/dc/dcmitype/StillImage"/>
    <dc:date>2021-08-26T14:33:59.959212</dc:date>
    <dc:format>image/svg+xml</dc:format>
    <dc:creator>
     <cc:Agent>
      <dc:title>Matplotlib v3.3.4, https://matplotlib.org/</dc:title>
     </cc:Agent>
    </dc:creator>
   </cc:Work>
  </rdf:RDF>
 </metadata>
 <defs>
  <style type="text/css">*{stroke-linecap:butt;stroke-linejoin:round;}</style>
 </defs>
 <g id="figure_1">
  <g id="patch_1">
   <path d="M 0 570.955391 
L 860.284844 570.955391 
L 860.284844 0 
L 0 0 
z
" style="fill:#ffffff;"/>
  </g>
  <g id="axes_1">
   <g id="patch_2">
    <path d="M 95.214844 251.174063 
L 302.21151 251.174063 
L 302.21151 26.084062 
L 95.214844 26.084062 
z
" style="fill:#eaeaf2;"/>
   </g>
   <g id="matplotlib.axis_1">
    <g id="xtick_1">
     <g id="line2d_1">
      <path clip-path="url(#pf5a4ec8ea6)" d="M 131.506467 251.174063 
L 131.506467 26.084062 
" style="fill:none;stroke:#ffffff;stroke-linecap:round;stroke-width:1.5;"/>
     </g>
    </g>
    <g id="xtick_2">
     <g id="line2d_2">
      <path clip-path="url(#pf5a4ec8ea6)" d="M 198.713177 251.174063 
L 198.713177 26.084062 
" style="fill:none;stroke:#ffffff;stroke-linecap:round;stroke-width:1.5;"/>
     </g>
    </g>
    <g id="xtick_3">
     <g id="line2d_3">
      <path clip-path="url(#pf5a4ec8ea6)" d="M 265.919887 251.174063 
L 265.919887 26.084062 
" style="fill:none;stroke:#ffffff;stroke-linecap:round;stroke-width:1.5;"/>
     </g>
    </g>
   </g>
   <g id="matplotlib.axis_2">
    <g id="ytick_1">
     <g id="line2d_4">
      <path clip-path="url(#pf5a4ec8ea6)" d="M 95.214844 241.499923 
L 302.21151 241.499923 
" style="fill:none;stroke:#ffffff;stroke-linecap:round;stroke-width:1.5;"/>
     </g>
     <g id="text_1">
      <!-- 0 -->
      <g style="fill:#262626;" transform="translate(73.539297 247.405118)scale(0.165 -0.165)">
       <defs>
        <path d="M 4.15625 35.296875 
Q 4.15625 48 6.765625 55.734375 
Q 9.375 63.484375 14.515625 67.671875 
Q 19.671875 71.875 27.484375 71.875 
Q 33.25 71.875 37.59375 69.546875 
Q 41.9375 67.234375 44.765625 62.859375 
Q 47.609375 58.5 49.21875 52.21875 
Q 50.828125 45.953125 50.828125 35.296875 
Q 50.828125 22.703125 48.234375 14.96875 
Q 45.65625 7.234375 40.5 3 
Q 35.359375 -1.21875 27.484375 -1.21875 
Q 17.140625 -1.21875 11.234375 6.203125 
Q 4.15625 15.140625 4.15625 35.296875 
z
M 13.1875 35.296875 
Q 13.1875 17.671875 17.3125 11.828125 
Q 21.4375 6 27.484375 6 
Q 33.546875 6 37.671875 11.859375 
Q 41.796875 17.71875 41.796875 35.296875 
Q 41.796875 52.984375 37.671875 58.78125 
Q 33.546875 64.59375 27.390625 64.59375 
Q 21.34375 64.59375 17.71875 59.46875 
Q 13.1875 52.9375 13.1875 35.296875 
z
" id="ArialMT-48"/>
       </defs>
       <use xlink:href="#ArialMT-48"/>
      </g>
     </g>
    </g>
    <g id="ytick_2">
     <g id="line2d_5">
      <path clip-path="url(#pf5a4ec8ea6)" d="M 95.214844 203.333874 
L 302.21151 203.333874 
" style="fill:none;stroke:#ffffff;stroke-linecap:round;stroke-width:1.5;"/>
     </g>
     <g id="text_2">
      <!-- 20000 -->
      <g style="fill:#262626;" transform="translate(36.837109 209.239069)scale(0.165 -0.165)">
       <defs>
        <path d="M 50.34375 8.453125 
L 50.34375 0 
L 3.03125 0 
Q 2.9375 3.171875 4.046875 6.109375 
Q 5.859375 10.9375 9.828125 15.625 
Q 13.8125 20.3125 21.34375 26.46875 
Q 33.015625 36.03125 37.109375 41.625 
Q 41.21875 47.21875 41.21875 52.203125 
Q 41.21875 57.421875 37.46875 61 
Q 33.734375 64.59375 27.734375 64.59375 
Q 21.390625 64.59375 17.578125 60.78125 
Q 13.765625 56.984375 13.71875 50.25 
L 4.6875 51.171875 
Q 5.609375 61.28125 11.65625 66.578125 
Q 17.71875 71.875 27.9375 71.875 
Q 38.234375 71.875 44.234375 66.15625 
Q 50.25 60.453125 50.25 52 
Q 50.25 47.703125 48.484375 43.546875 
Q 46.734375 39.40625 42.65625 34.8125 
Q 38.578125 30.21875 29.109375 22.21875 
Q 21.1875 15.578125 18.9375 13.203125 
Q 16.703125 10.84375 15.234375 8.453125 
z
" id="ArialMT-50"/>
       </defs>
       <use xlink:href="#ArialMT-50"/>
       <use x="55.615234" xlink:href="#ArialMT-48"/>
       <use x="111.230469" xlink:href="#ArialMT-48"/>
       <use x="166.845703" xlink:href="#ArialMT-48"/>
       <use x="222.460938" xlink:href="#ArialMT-48"/>
      </g>
     </g>
    </g>
    <g id="ytick_3">
     <g id="line2d_6">
      <path clip-path="url(#pf5a4ec8ea6)" d="M 95.214844 165.167825 
L 302.21151 165.167825 
" style="fill:none;stroke:#ffffff;stroke-linecap:round;stroke-width:1.5;"/>
     </g>
     <g id="text_3">
      <!-- 40000 -->
      <g style="fill:#262626;" transform="translate(36.837109 171.07302)scale(0.165 -0.165)">
       <defs>
        <path d="M 32.328125 0 
L 32.328125 17.140625 
L 1.265625 17.140625 
L 1.265625 25.203125 
L 33.9375 71.578125 
L 41.109375 71.578125 
L 41.109375 25.203125 
L 50.78125 25.203125 
L 50.78125 17.140625 
L 41.109375 17.140625 
L 41.109375 0 
z
M 32.328125 25.203125 
L 32.328125 57.46875 
L 9.90625 25.203125 
z
" id="ArialMT-52"/>
       </defs>
       <use xlink:href="#ArialMT-52"/>
       <use x="55.615234" xlink:href="#ArialMT-48"/>
       <use x="111.230469" xlink:href="#ArialMT-48"/>
       <use x="166.845703" xlink:href="#ArialMT-48"/>
       <use x="222.460938" xlink:href="#ArialMT-48"/>
      </g>
     </g>
    </g>
    <g id="ytick_4">
     <g id="line2d_7">
      <path clip-path="url(#pf5a4ec8ea6)" d="M 95.214844 127.001776 
L 302.21151 127.001776 
" style="fill:none;stroke:#ffffff;stroke-linecap:round;stroke-width:1.5;"/>
     </g>
     <g id="text_4">
      <!-- 60000 -->
      <g style="fill:#262626;" transform="translate(36.837109 132.906971)scale(0.165 -0.165)">
       <defs>
        <path d="M 49.75 54.046875 
L 41.015625 53.375 
Q 39.84375 58.546875 37.703125 60.890625 
Q 34.125 64.65625 28.90625 64.65625 
Q 24.703125 64.65625 21.53125 62.3125 
Q 17.390625 59.28125 14.984375 53.46875 
Q 12.59375 47.65625 12.5 36.921875 
Q 15.671875 41.75 20.265625 44.09375 
Q 24.859375 46.4375 29.890625 46.4375 
Q 38.671875 46.4375 44.84375 39.96875 
Q 51.03125 33.5 51.03125 23.25 
Q 51.03125 16.5 48.125 10.71875 
Q 45.21875 4.9375 40.140625 1.859375 
Q 35.0625 -1.21875 28.609375 -1.21875 
Q 17.625 -1.21875 10.6875 6.859375 
Q 3.765625 14.9375 3.765625 33.5 
Q 3.765625 54.25 11.421875 63.671875 
Q 18.109375 71.875 29.4375 71.875 
Q 37.890625 71.875 43.28125 67.140625 
Q 48.6875 62.40625 49.75 54.046875 
z
M 13.875 23.1875 
Q 13.875 18.65625 15.796875 14.5 
Q 17.71875 10.359375 21.1875 8.171875 
Q 24.65625 6 28.46875 6 
Q 34.03125 6 38.03125 10.484375 
Q 42.046875 14.984375 42.046875 22.703125 
Q 42.046875 30.125 38.078125 34.390625 
Q 34.125 38.671875 28.125 38.671875 
Q 22.171875 38.671875 18.015625 34.390625 
Q 13.875 30.125 13.875 23.1875 
z
" id="ArialMT-54"/>
       </defs>
       <use xlink:href="#ArialMT-54"/>
       <use x="55.615234" xlink:href="#ArialMT-48"/>
       <use x="111.230469" xlink:href="#ArialMT-48"/>
       <use x="166.845703" xlink:href="#ArialMT-48"/>
       <use x="222.460938" xlink:href="#ArialMT-48"/>
      </g>
     </g>
    </g>
    <g id="ytick_5">
     <g id="line2d_8">
      <path clip-path="url(#pf5a4ec8ea6)" d="M 95.214844 88.835726 
L 302.21151 88.835726 
" style="fill:none;stroke:#ffffff;stroke-linecap:round;stroke-width:1.5;"/>
     </g>
     <g id="text_5">
      <!-- 80000 -->
      <g style="fill:#262626;" transform="translate(36.837109 94.740922)scale(0.165 -0.165)">
       <defs>
        <path d="M 17.671875 38.8125 
Q 12.203125 40.828125 9.5625 44.53125 
Q 6.9375 48.25 6.9375 53.421875 
Q 6.9375 61.234375 12.546875 66.546875 
Q 18.171875 71.875 27.484375 71.875 
Q 36.859375 71.875 42.578125 66.421875 
Q 48.296875 60.984375 48.296875 53.171875 
Q 48.296875 48.1875 45.671875 44.5 
Q 43.0625 40.828125 37.75 38.8125 
Q 44.34375 36.671875 47.78125 31.875 
Q 51.21875 27.09375 51.21875 20.453125 
Q 51.21875 11.28125 44.71875 5.03125 
Q 38.234375 -1.21875 27.640625 -1.21875 
Q 17.046875 -1.21875 10.546875 5.046875 
Q 4.046875 11.328125 4.046875 20.703125 
Q 4.046875 27.6875 7.59375 32.390625 
Q 11.140625 37.109375 17.671875 38.8125 
z
M 15.921875 53.71875 
Q 15.921875 48.640625 19.1875 45.40625 
Q 22.46875 42.1875 27.6875 42.1875 
Q 32.765625 42.1875 36.015625 45.375 
Q 39.265625 48.578125 39.265625 53.21875 
Q 39.265625 58.0625 35.90625 61.359375 
Q 32.5625 64.65625 27.59375 64.65625 
Q 22.5625 64.65625 19.234375 61.421875 
Q 15.921875 58.203125 15.921875 53.71875 
z
M 13.09375 20.65625 
Q 13.09375 16.890625 14.875 13.375 
Q 16.65625 9.859375 20.171875 7.921875 
Q 23.6875 6 27.734375 6 
Q 34.03125 6 38.125 10.046875 
Q 42.234375 14.109375 42.234375 20.359375 
Q 42.234375 26.703125 38.015625 30.859375 
Q 33.796875 35.015625 27.4375 35.015625 
Q 21.234375 35.015625 17.15625 30.90625 
Q 13.09375 26.8125 13.09375 20.65625 
z
" id="ArialMT-56"/>
       </defs>
       <use xlink:href="#ArialMT-56"/>
       <use x="55.615234" xlink:href="#ArialMT-48"/>
       <use x="111.230469" xlink:href="#ArialMT-48"/>
       <use x="166.845703" xlink:href="#ArialMT-48"/>
       <use x="222.460938" xlink:href="#ArialMT-48"/>
      </g>
     </g>
    </g>
    <g id="ytick_6">
     <g id="line2d_9">
      <path clip-path="url(#pf5a4ec8ea6)" d="M 95.214844 50.669677 
L 302.21151 50.669677 
" style="fill:none;stroke:#ffffff;stroke-linecap:round;stroke-width:1.5;"/>
     </g>
     <g id="text_6">
      <!-- 100000 -->
      <g style="fill:#262626;" transform="translate(27.661562 56.574873)scale(0.165 -0.165)">
       <defs>
        <path d="M 37.25 0 
L 28.46875 0 
L 28.46875 56 
Q 25.296875 52.984375 20.140625 49.953125 
Q 14.984375 46.921875 10.890625 45.40625 
L 10.890625 53.90625 
Q 18.265625 57.375 23.78125 62.296875 
Q 29.296875 67.234375 31.59375 71.875 
L 37.25 71.875 
z
" id="ArialMT-49"/>
       </defs>
       <use xlink:href="#ArialMT-49"/>
       <use x="55.615234" xlink:href="#ArialMT-48"/>
       <use x="111.230469" xlink:href="#ArialMT-48"/>
       <use x="166.845703" xlink:href="#ArialMT-48"/>
       <use x="222.460938" xlink:href="#ArialMT-48"/>
       <use x="278.076172" xlink:href="#ArialMT-48"/>
      </g>
     </g>
    </g>
    <g id="text_7">
     <!-- Count -->
     <g style="fill:#262626;" transform="translate(20.084062 162.643594)rotate(-90)scale(0.18 -0.18)">
      <defs>
       <path d="M 58.796875 25.09375 
L 68.265625 22.703125 
Q 65.28125 11.03125 57.546875 4.90625 
Q 49.8125 -1.21875 38.625 -1.21875 
Q 27.046875 -1.21875 19.796875 3.484375 
Q 12.546875 8.203125 8.765625 17.140625 
Q 4.984375 26.078125 4.984375 36.328125 
Q 4.984375 47.515625 9.25 55.828125 
Q 13.53125 64.15625 21.40625 68.46875 
Q 29.296875 72.796875 38.765625 72.796875 
Q 49.515625 72.796875 56.828125 67.328125 
Q 64.15625 61.859375 67.046875 51.953125 
L 57.71875 49.75 
Q 55.21875 57.5625 50.484375 61.125 
Q 45.75 64.703125 38.578125 64.703125 
Q 30.328125 64.703125 24.78125 60.734375 
Q 19.234375 56.78125 16.984375 50.109375 
Q 14.75 43.453125 14.75 36.375 
Q 14.75 27.25 17.40625 20.4375 
Q 20.0625 13.625 25.671875 10.25 
Q 31.296875 6.890625 37.84375 6.890625 
Q 45.796875 6.890625 51.3125 11.46875 
Q 56.84375 16.0625 58.796875 25.09375 
z
" id="ArialMT-67"/>
       <path d="M 3.328125 25.921875 
Q 3.328125 40.328125 11.328125 47.265625 
Q 18.015625 53.03125 27.640625 53.03125 
Q 38.328125 53.03125 45.109375 46.015625 
Q 51.90625 39.015625 51.90625 26.65625 
Q 51.90625 16.65625 48.90625 10.90625 
Q 45.90625 5.171875 40.15625 2 
Q 34.421875 -1.171875 27.640625 -1.171875 
Q 16.75 -1.171875 10.03125 5.8125 
Q 3.328125 12.796875 3.328125 25.921875 
z
M 12.359375 25.921875 
Q 12.359375 15.96875 16.703125 11.015625 
Q 21.046875 6.0625 27.640625 6.0625 
Q 34.1875 6.0625 38.53125 11.03125 
Q 42.875 16.015625 42.875 26.21875 
Q 42.875 35.84375 38.5 40.796875 
Q 34.125 45.75 27.640625 45.75 
Q 21.046875 45.75 16.703125 40.8125 
Q 12.359375 35.890625 12.359375 25.921875 
z
" id="ArialMT-111"/>
       <path d="M 40.578125 0 
L 40.578125 7.625 
Q 34.515625 -1.171875 24.125 -1.171875 
Q 19.53125 -1.171875 15.546875 0.578125 
Q 11.578125 2.34375 9.640625 5 
Q 7.71875 7.671875 6.9375 11.53125 
Q 6.390625 14.109375 6.390625 19.734375 
L 6.390625 51.859375 
L 15.1875 51.859375 
L 15.1875 23.09375 
Q 15.1875 16.21875 15.71875 13.8125 
Q 16.546875 10.359375 19.234375 8.375 
Q 21.921875 6.390625 25.875 6.390625 
Q 29.828125 6.390625 33.296875 8.421875 
Q 36.765625 10.453125 38.203125 13.9375 
Q 39.65625 17.4375 39.65625 24.078125 
L 39.65625 51.859375 
L 48.4375 51.859375 
L 48.4375 0 
z
" id="ArialMT-117"/>
       <path d="M 6.59375 0 
L 6.59375 51.859375 
L 14.5 51.859375 
L 14.5 44.484375 
Q 20.21875 53.03125 31 53.03125 
Q 35.6875 53.03125 39.625 51.34375 
Q 43.5625 49.65625 45.515625 46.921875 
Q 47.46875 44.1875 48.25 40.4375 
Q 48.734375 37.984375 48.734375 31.890625 
L 48.734375 0 
L 39.9375 0 
L 39.9375 31.546875 
Q 39.9375 36.921875 38.90625 39.578125 
Q 37.890625 42.234375 35.28125 43.8125 
Q 32.671875 45.40625 29.15625 45.40625 
Q 23.53125 45.40625 19.453125 41.84375 
Q 15.375 38.28125 15.375 28.328125 
L 15.375 0 
z
" id="ArialMT-110"/>
       <path d="M 25.78125 7.859375 
L 27.046875 0.09375 
Q 23.34375 -0.6875 20.40625 -0.6875 
Q 15.625 -0.6875 12.984375 0.828125 
Q 10.359375 2.34375 9.28125 4.8125 
Q 8.203125 7.28125 8.203125 15.1875 
L 8.203125 45.015625 
L 1.765625 45.015625 
L 1.765625 51.859375 
L 8.203125 51.859375 
L 8.203125 64.703125 
L 16.9375 69.96875 
L 16.9375 51.859375 
L 25.78125 51.859375 
L 25.78125 45.015625 
L 16.9375 45.015625 
L 16.9375 14.703125 
Q 16.9375 10.9375 17.40625 9.859375 
Q 17.875 8.796875 18.921875 8.15625 
Q 19.96875 7.515625 21.921875 7.515625 
Q 23.390625 7.515625 25.78125 7.859375 
z
" id="ArialMT-116"/>
      </defs>
      <use xlink:href="#ArialMT-67"/>
      <use x="72.216797" xlink:href="#ArialMT-111"/>
      <use x="127.832031" xlink:href="#ArialMT-117"/>
      <use x="183.447266" xlink:href="#ArialMT-110"/>
      <use x="239.0625" xlink:href="#ArialMT-116"/>
     </g>
    </g>
   </g>
   <g id="line2d_10">
    <path clip-path="url(#pf5a4ec8ea6)" d="M 104.623783 240.942699 
L 132.850601 240.807209 
L 136.883004 240.830109 
L 143.603675 240.725152 
L 146.291943 240.545772 
L 147.636078 240.35685 
L 148.980212 240.389291 
L 151.66848 239.711844 
L 155.700883 239.385524 
L 157.045017 239.604979 
L 159.733285 239.187061 
L 162.421554 238.799675 
L 163.765688 238.19856 
L 165.109822 237.460047 
L 166.453956 236.404756 
L 169.142225 233.73504 
L 170.486359 231.769489 
L 171.830493 228.981459 
L 173.174627 227.622748 
L 174.518761 225.460641 
L 175.862896 225.298435 
L 177.20703 222.62872 
L 181.239432 216.894271 
L 182.583567 211.274321 
L 183.927701 207.671445 
L 185.271835 201.055361 
L 186.615969 190.660837 
L 187.960103 176.640539 
L 189.304238 168.673376 
L 190.648372 168.812683 
L 191.992506 164.541902 
L 193.33664 138.018406 
L 194.680774 125.851069 
L 196.024909 118.168244 
L 197.369043 114.630251 
L 198.713177 110.681973 
L 200.057311 98.075727 
L 201.401445 92.764921 
L 202.74558 83.465763 
L 204.089714 69.645837 
L 205.433848 63.315998 
L 206.777982 46.654609 
L 208.122116 37.574906 
L 209.466251 36.315426 
L 210.810385 43.181498 
L 213.498653 64.367472 
L 214.842787 70.437782 
L 217.531056 97.354389 
L 218.87519 107.699296 
L 220.219324 130.1333 
L 221.563458 143.12884 
L 222.907593 153.863041 
L 224.251727 161.358853 
L 225.595861 167.740217 
L 226.939995 176.70733 
L 228.284129 190.494815 
L 229.628264 197.698657 
L 232.316532 204.469314 
L 233.660666 208.259203 
L 235.0048 209.652263 
L 236.348935 213.005151 
L 237.693069 214.562326 
L 239.037203 216.449637 
L 240.381337 218.560219 
L 241.725471 219.955188 
L 243.069606 222.468423 
L 244.41374 223.893925 
L 245.757874 225.662921 
L 248.446142 227.998683 
L 249.790277 228.769637 
L 251.134411 228.723838 
L 252.478545 229.246713 
L 253.822679 230.298188 
L 255.166813 230.506193 
L 256.510948 231.063417 
L 257.855082 232.225573 
L 259.199216 233.122475 
L 260.54335 232.981261 
L 261.887484 233.698783 
L 263.231619 234.276998 
L 268.608155 234.704458 
L 269.95229 234.736899 
L 271.296424 235.089935 
L 272.640558 235.580369 
L 275.328826 235.334198 
L 276.672961 236.135685 
L 278.017095 237.080295 
L 279.361229 237.385623 
L 280.705363 237.988647 
L 282.049497 238.452364 
L 284.737766 238.994322 
L 288.770168 239.274843 
L 290.114303 239.591621 
L 291.458437 239.656503 
L 292.802571 239.847333 
L 292.802571 239.847333 
" style="fill:none;stroke:#4c72b0;stroke-linecap:round;stroke-width:2.25;"/>
   </g>
   <g id="patch_3">
    <path d="M 95.214844 251.174063 
L 95.214844 26.084062 
" style="fill:none;stroke:#ffffff;stroke-linecap:square;stroke-linejoin:miter;stroke-width:1.875;"/>
   </g>
   <g id="patch_4">
    <path d="M 95.214844 251.174063 
L 302.21151 251.174063 
" style="fill:none;stroke:#ffffff;stroke-linecap:square;stroke-linejoin:miter;stroke-width:1.875;"/>
   </g>
   <g id="text_8">
    <!-- category = boomer -->
    <g style="fill:#262626;" transform="translate(123.426771 20.084062)scale(0.18 -0.18)">
     <defs>
      <path d="M 40.4375 19 
L 49.078125 17.875 
Q 47.65625 8.9375 41.8125 3.875 
Q 35.984375 -1.171875 27.484375 -1.171875 
Q 16.84375 -1.171875 10.375 5.78125 
Q 3.90625 12.75 3.90625 25.734375 
Q 3.90625 34.125 6.6875 40.421875 
Q 9.46875 46.734375 15.15625 49.875 
Q 20.84375 53.03125 27.546875 53.03125 
Q 35.984375 53.03125 41.359375 48.75 
Q 46.734375 44.484375 48.25 36.625 
L 39.703125 35.296875 
Q 38.484375 40.53125 35.375 43.15625 
Q 32.28125 45.796875 27.875 45.796875 
Q 21.234375 45.796875 17.078125 41.03125 
Q 12.9375 36.28125 12.9375 25.984375 
Q 12.9375 15.53125 16.9375 10.796875 
Q 20.953125 6.0625 27.390625 6.0625 
Q 32.5625 6.0625 36.03125 9.234375 
Q 39.5 12.40625 40.4375 19 
z
" id="ArialMT-99"/>
      <path d="M 40.4375 6.390625 
Q 35.546875 2.25 31.03125 0.53125 
Q 26.515625 -1.171875 21.34375 -1.171875 
Q 12.796875 -1.171875 8.203125 3 
Q 3.609375 7.171875 3.609375 13.671875 
Q 3.609375 17.484375 5.34375 20.625 
Q 7.078125 23.78125 9.890625 25.6875 
Q 12.703125 27.59375 16.21875 28.5625 
Q 18.796875 29.25 24.03125 29.890625 
Q 34.671875 31.15625 39.703125 32.90625 
Q 39.75 34.71875 39.75 35.203125 
Q 39.75 40.578125 37.25 42.78125 
Q 33.890625 45.75 27.25 45.75 
Q 21.046875 45.75 18.09375 43.578125 
Q 15.140625 41.40625 13.71875 35.890625 
L 5.125 37.0625 
Q 6.296875 42.578125 8.984375 45.96875 
Q 11.671875 49.359375 16.75 51.1875 
Q 21.828125 53.03125 28.515625 53.03125 
Q 35.15625 53.03125 39.296875 51.46875 
Q 43.453125 49.90625 45.40625 47.53125 
Q 47.359375 45.171875 48.140625 41.546875 
Q 48.578125 39.3125 48.578125 33.453125 
L 48.578125 21.734375 
Q 48.578125 9.46875 49.140625 6.21875 
Q 49.703125 2.984375 51.375 0 
L 42.1875 0 
Q 40.828125 2.734375 40.4375 6.390625 
z
M 39.703125 26.03125 
Q 34.90625 24.078125 25.34375 22.703125 
Q 19.921875 21.921875 17.671875 20.9375 
Q 15.4375 19.96875 14.203125 18.09375 
Q 12.984375 16.21875 12.984375 13.921875 
Q 12.984375 10.40625 15.640625 8.0625 
Q 18.3125 5.71875 23.4375 5.71875 
Q 28.515625 5.71875 32.46875 7.9375 
Q 36.421875 10.15625 38.28125 14.015625 
Q 39.703125 17 39.703125 22.796875 
z
" id="ArialMT-97"/>
      <path d="M 42.09375 16.703125 
L 51.171875 15.578125 
Q 49.03125 7.625 43.21875 3.21875 
Q 37.40625 -1.171875 28.375 -1.171875 
Q 17 -1.171875 10.328125 5.828125 
Q 3.65625 12.84375 3.65625 25.484375 
Q 3.65625 38.578125 10.390625 45.796875 
Q 17.140625 53.03125 27.875 53.03125 
Q 38.28125 53.03125 44.875 45.953125 
Q 51.46875 38.875 51.46875 26.03125 
Q 51.46875 25.25 51.421875 23.6875 
L 12.75 23.6875 
Q 13.234375 15.140625 17.578125 10.59375 
Q 21.921875 6.0625 28.421875 6.0625 
Q 33.25 6.0625 36.671875 8.59375 
Q 40.09375 11.140625 42.09375 16.703125 
z
M 13.234375 30.90625 
L 42.1875 30.90625 
Q 41.609375 37.453125 38.875 40.71875 
Q 34.671875 45.796875 27.984375 45.796875 
Q 21.921875 45.796875 17.796875 41.75 
Q 13.671875 37.703125 13.234375 30.90625 
z
" id="ArialMT-101"/>
      <path d="M 4.984375 -4.296875 
L 13.53125 -5.5625 
Q 14.0625 -9.515625 16.5 -11.328125 
Q 19.78125 -13.765625 25.4375 -13.765625 
Q 31.546875 -13.765625 34.859375 -11.328125 
Q 38.1875 -8.890625 39.359375 -4.5 
Q 40.046875 -1.8125 39.984375 6.78125 
Q 34.234375 0 25.640625 0 
Q 14.9375 0 9.078125 7.71875 
Q 3.21875 15.4375 3.21875 26.21875 
Q 3.21875 33.640625 5.90625 39.90625 
Q 8.59375 46.1875 13.6875 49.609375 
Q 18.796875 53.03125 25.6875 53.03125 
Q 34.859375 53.03125 40.828125 45.609375 
L 40.828125 51.859375 
L 48.921875 51.859375 
L 48.921875 7.03125 
Q 48.921875 -5.078125 46.453125 -10.125 
Q 44 -15.1875 38.640625 -18.109375 
Q 33.296875 -21.046875 25.484375 -21.046875 
Q 16.21875 -21.046875 10.5 -16.875 
Q 4.78125 -12.703125 4.984375 -4.296875 
z
M 12.25 26.859375 
Q 12.25 16.65625 16.296875 11.96875 
Q 20.359375 7.28125 26.46875 7.28125 
Q 32.515625 7.28125 36.609375 11.9375 
Q 40.71875 16.609375 40.71875 26.5625 
Q 40.71875 36.078125 36.5 40.90625 
Q 32.28125 45.75 26.3125 45.75 
Q 20.453125 45.75 16.34375 40.984375 
Q 12.25 36.234375 12.25 26.859375 
z
" id="ArialMT-103"/>
      <path d="M 6.5 0 
L 6.5 51.859375 
L 14.40625 51.859375 
L 14.40625 44 
Q 17.4375 49.515625 20 51.265625 
Q 22.5625 53.03125 25.640625 53.03125 
Q 30.078125 53.03125 34.671875 50.203125 
L 31.640625 42.046875 
Q 28.421875 43.953125 25.203125 43.953125 
Q 22.3125 43.953125 20.015625 42.21875 
Q 17.71875 40.484375 16.75 37.40625 
Q 15.28125 32.71875 15.28125 27.15625 
L 15.28125 0 
z
" id="ArialMT-114"/>
      <path d="M 6.203125 -19.96875 
L 5.21875 -11.71875 
Q 8.109375 -12.5 10.25 -12.5 
Q 13.1875 -12.5 14.9375 -11.515625 
Q 16.703125 -10.546875 17.828125 -8.796875 
Q 18.65625 -7.46875 20.515625 -2.25 
Q 20.75 -1.515625 21.296875 -0.09375 
L 1.609375 51.859375 
L 11.078125 51.859375 
L 21.875 21.828125 
Q 23.96875 16.109375 25.640625 9.8125 
Q 27.15625 15.875 29.25 21.625 
L 40.328125 51.859375 
L 49.125 51.859375 
L 29.390625 -0.875 
Q 26.21875 -9.421875 24.46875 -12.640625 
Q 22.125 -17 19.09375 -19.015625 
Q 16.0625 -21.046875 11.859375 -21.046875 
Q 9.328125 -21.046875 6.203125 -19.96875 
z
" id="ArialMT-121"/>
      <path id="ArialMT-32"/>
      <path d="M 52.828125 42.09375 
L 5.5625 42.09375 
L 5.5625 50.296875 
L 52.828125 50.296875 
z
M 52.828125 20.359375 
L 5.5625 20.359375 
L 5.5625 28.5625 
L 52.828125 28.5625 
z
" id="ArialMT-61"/>
      <path d="M 14.703125 0 
L 6.546875 0 
L 6.546875 71.578125 
L 15.328125 71.578125 
L 15.328125 46.046875 
Q 20.90625 53.03125 29.546875 53.03125 
Q 34.328125 53.03125 38.59375 51.09375 
Q 42.875 49.171875 45.625 45.671875 
Q 48.390625 42.1875 49.953125 37.25 
Q 51.515625 32.328125 51.515625 26.703125 
Q 51.515625 13.375 44.921875 6.09375 
Q 38.328125 -1.171875 29.109375 -1.171875 
Q 19.921875 -1.171875 14.703125 6.5 
z
M 14.59375 26.3125 
Q 14.59375 17 17.140625 12.84375 
Q 21.296875 6.0625 28.375 6.0625 
Q 34.125 6.0625 38.328125 11.0625 
Q 42.53125 16.0625 42.53125 25.984375 
Q 42.53125 36.140625 38.5 40.96875 
Q 34.46875 45.796875 28.765625 45.796875 
Q 23 45.796875 18.796875 40.796875 
Q 14.59375 35.796875 14.59375 26.3125 
z
" id="ArialMT-98"/>
      <path d="M 6.59375 0 
L 6.59375 51.859375 
L 14.453125 51.859375 
L 14.453125 44.578125 
Q 16.890625 48.390625 20.9375 50.703125 
Q 25 53.03125 30.171875 53.03125 
Q 35.9375 53.03125 39.625 50.640625 
Q 43.3125 48.25 44.828125 43.953125 
Q 50.984375 53.03125 60.84375 53.03125 
Q 68.5625 53.03125 72.703125 48.75 
Q 76.859375 44.484375 76.859375 35.59375 
L 76.859375 0 
L 68.109375 0 
L 68.109375 32.671875 
Q 68.109375 37.9375 67.25 40.25 
Q 66.40625 42.578125 64.15625 43.984375 
Q 61.921875 45.40625 58.890625 45.40625 
Q 53.421875 45.40625 49.796875 41.765625 
Q 46.1875 38.140625 46.1875 30.125 
L 46.1875 0 
L 37.40625 0 
L 37.40625 33.6875 
Q 37.40625 39.546875 35.25 42.46875 
Q 33.109375 45.40625 28.21875 45.40625 
Q 24.515625 45.40625 21.359375 43.453125 
Q 18.21875 41.5 16.796875 37.734375 
Q 15.375 33.984375 15.375 26.90625 
L 15.375 0 
z
" id="ArialMT-109"/>
     </defs>
     <use xlink:href="#ArialMT-99"/>
     <use x="50" xlink:href="#ArialMT-97"/>
     <use x="105.615234" xlink:href="#ArialMT-116"/>
     <use x="133.398438" xlink:href="#ArialMT-101"/>
     <use x="189.013672" xlink:href="#ArialMT-103"/>
     <use x="244.628906" xlink:href="#ArialMT-111"/>
     <use x="300.244141" xlink:href="#ArialMT-114"/>
     <use x="333.544922" xlink:href="#ArialMT-121"/>
     <use x="383.544922" xlink:href="#ArialMT-32"/>
     <use x="411.328125" xlink:href="#ArialMT-61"/>
     <use x="469.726562" xlink:href="#ArialMT-32"/>
     <use x="497.509766" xlink:href="#ArialMT-98"/>
     <use x="553.125" xlink:href="#ArialMT-111"/>
     <use x="608.740234" xlink:href="#ArialMT-111"/>
     <use x="664.355469" xlink:href="#ArialMT-109"/>
     <use x="747.65625" xlink:href="#ArialMT-101"/>
     <use x="803.271484" xlink:href="#ArialMT-114"/>
    </g>
   </g>
  </g>
  <g id="axes_2">
   <g id="patch_5">
    <path d="M 370.65151 251.174063 
L 577.648177 251.174063 
L 577.648177 26.084062 
L 370.65151 26.084062 
z
" style="fill:#eaeaf2;"/>
   </g>
   <g id="matplotlib.axis_3">
    <g id="xtick_4">
     <g id="line2d_11">
      <path clip-path="url(#p826520f86e)" d="M 406.943134 251.174063 
L 406.943134 26.084062 
" style="fill:none;stroke:#ffffff;stroke-linecap:round;stroke-width:1.5;"/>
     </g>
    </g>
    <g id="xtick_5">
     <g id="line2d_12">
      <path clip-path="url(#p826520f86e)" d="M 474.149844 251.174063 
L 474.149844 26.084062 
" style="fill:none;stroke:#ffffff;stroke-linecap:round;stroke-width:1.5;"/>
     </g>
    </g>
    <g id="xtick_6">
     <g id="line2d_13">
      <path clip-path="url(#p826520f86e)" d="M 541.356554 251.174063 
L 541.356554 26.084062 
" style="fill:none;stroke:#ffffff;stroke-linecap:round;stroke-width:1.5;"/>
     </g>
    </g>
   </g>
   <g id="matplotlib.axis_4">
    <g id="ytick_7">
     <g id="line2d_14">
      <path clip-path="url(#p826520f86e)" d="M 370.65151 241.951709 
L 577.648177 241.951709 
" style="fill:none;stroke:#ffffff;stroke-linecap:round;stroke-width:1.5;"/>
     </g>
     <g id="text_9">
      <!-- 0 -->
      <g style="fill:#262626;" transform="translate(348.975964 247.856904)scale(0.165 -0.165)">
       <use xlink:href="#ArialMT-48"/>
      </g>
     </g>
    </g>
    <g id="ytick_8">
     <g id="line2d_15">
      <path clip-path="url(#p826520f86e)" d="M 370.65151 201.5913 
L 577.648177 201.5913 
" style="fill:none;stroke:#ffffff;stroke-linecap:round;stroke-width:1.5;"/>
     </g>
     <g id="text_10">
      <!-- 200 -->
      <g style="fill:#262626;" transform="translate(330.62487 207.496496)scale(0.165 -0.165)">
       <use xlink:href="#ArialMT-50"/>
       <use x="55.615234" xlink:href="#ArialMT-48"/>
       <use x="111.230469" xlink:href="#ArialMT-48"/>
      </g>
     </g>
    </g>
    <g id="ytick_9">
     <g id="line2d_16">
      <path clip-path="url(#p826520f86e)" d="M 370.65151 161.230891 
L 577.648177 161.230891 
" style="fill:none;stroke:#ffffff;stroke-linecap:round;stroke-width:1.5;"/>
     </g>
     <g id="text_11">
      <!-- 400 -->
      <g style="fill:#262626;" transform="translate(330.62487 167.136087)scale(0.165 -0.165)">
       <use xlink:href="#ArialMT-52"/>
       <use x="55.615234" xlink:href="#ArialMT-48"/>
       <use x="111.230469" xlink:href="#ArialMT-48"/>
      </g>
     </g>
    </g>
    <g id="ytick_10">
     <g id="line2d_17">
      <path clip-path="url(#p826520f86e)" d="M 370.65151 120.870483 
L 577.648177 120.870483 
" style="fill:none;stroke:#ffffff;stroke-linecap:round;stroke-width:1.5;"/>
     </g>
     <g id="text_12">
      <!-- 600 -->
      <g style="fill:#262626;" transform="translate(330.62487 126.775678)scale(0.165 -0.165)">
       <use xlink:href="#ArialMT-54"/>
       <use x="55.615234" xlink:href="#ArialMT-48"/>
       <use x="111.230469" xlink:href="#ArialMT-48"/>
      </g>
     </g>
    </g>
    <g id="ytick_11">
     <g id="line2d_18">
      <path clip-path="url(#p826520f86e)" d="M 370.65151 80.510074 
L 577.648177 80.510074 
" style="fill:none;stroke:#ffffff;stroke-linecap:round;stroke-width:1.5;"/>
     </g>
     <g id="text_13">
      <!-- 800 -->
      <g style="fill:#262626;" transform="translate(330.62487 86.415269)scale(0.165 -0.165)">
       <use xlink:href="#ArialMT-56"/>
       <use x="55.615234" xlink:href="#ArialMT-48"/>
       <use x="111.230469" xlink:href="#ArialMT-48"/>
      </g>
     </g>
    </g>
    <g id="ytick_12">
     <g id="line2d_19">
      <path clip-path="url(#p826520f86e)" d="M 370.65151 40.149665 
L 577.648177 40.149665 
" style="fill:none;stroke:#ffffff;stroke-linecap:round;stroke-width:1.5;"/>
     </g>
     <g id="text_14">
      <!-- 1000 -->
      <g style="fill:#262626;" transform="translate(321.449323 46.05486)scale(0.165 -0.165)">
       <use xlink:href="#ArialMT-49"/>
       <use x="55.615234" xlink:href="#ArialMT-48"/>
       <use x="111.230469" xlink:href="#ArialMT-48"/>
       <use x="166.845703" xlink:href="#ArialMT-48"/>
      </g>
     </g>
    </g>
   </g>
   <g id="line2d_20">
    <path clip-path="url(#p826520f86e)" d="M 380.06045 240.740897 
L 382.748718 240.942699 
L 384.092852 240.337293 
L 385.436987 240.135491 
L 388.125255 239.328283 
L 389.469389 239.731887 
L 390.813523 240.539095 
L 392.157658 239.12648 
L 393.501792 240.539095 
L 394.845926 238.722876 
L 396.19006 240.942699 
L 397.534194 240.740897 
L 398.878329 239.328283 
L 400.222463 237.512064 
L 401.566597 237.512064 
L 402.910731 237.915668 
L 404.254865 237.713866 
L 405.599 238.924678 
L 406.943134 236.906658 
L 408.287268 239.530085 
L 409.631402 236.704856 
L 410.975536 238.924678 
L 412.319671 237.512064 
L 413.663805 237.915668 
L 415.007939 239.12648 
L 416.352073 237.10846 
L 417.696207 238.521074 
L 419.040342 237.915668 
L 420.384476 237.512064 
L 421.72861 236.503054 
L 423.072744 235.897648 
L 424.416878 234.081429 
L 425.761013 234.283231 
L 427.105147 227.421962 
L 428.449281 226.009348 
L 429.793415 230.852597 
L 431.137549 228.430972 
L 432.481684 229.23818 
L 433.825818 231.054399 
L 435.169952 228.430972 
L 436.514086 231.256201 
L 437.85822 228.834576 
L 439.202355 232.265211 
L 440.546489 232.668815 
L 441.890623 234.888638 
L 443.234757 234.081429 
L 444.578891 232.870617 
L 445.923026 236.301252 
L 447.26716 233.677825 
L 449.955428 236.09945 
L 451.299562 236.503054 
L 452.643697 236.09945 
L 453.987831 239.12648 
L 455.331965 237.713866 
L 456.676099 237.512064 
L 458.020233 239.530085 
L 459.364368 237.713866 
L 460.708502 238.722876 
L 462.052636 238.319272 
L 463.39677 237.713866 
L 464.740904 237.310262 
L 466.085039 238.924678 
L 467.429173 237.310262 
L 470.117441 234.888638 
L 471.461575 236.704856 
L 472.80571 232.063409 
L 474.149844 230.852597 
L 475.493978 234.888638 
L 476.838112 230.650795 
L 478.182246 231.861607 
L 479.526381 227.22016 
L 480.870515 220.964296 
L 482.214649 211.277798 
L 483.558783 215.717443 
L 484.902917 215.515641 
L 486.247052 181.209294 
L 487.591186 205.627341 
L 488.93532 195.940843 
L 490.279454 205.425539 
L 491.623588 198.56427 
L 492.967723 202.802113 
L 494.311857 206.232747 
L 495.655991 205.425539 
L 497.000125 196.949853 
L 498.344259 209.865184 
L 499.688394 209.46158 
L 501.032528 198.967874 
L 502.376662 186.657949 
L 505.06493 180.80569 
L 506.409065 178.384065 
L 507.753199 180.200284 
L 509.097333 176.567847 
L 510.441467 175.357035 
L 511.785601 175.558837 
L 513.129736 169.706577 
L 514.47387 172.128202 
L 515.818004 180.402086 
L 517.162138 177.576857 
L 518.506272 191.703 
L 519.850407 199.976884 
L 521.194541 199.976884 
L 522.538675 196.142645 
L 523.882809 169.504775 
L 525.226943 174.146222 
L 527.915212 161.230891 
L 529.259346 163.04711 
L 530.60348 161.230891 
L 531.947614 157.598455 
L 533.291749 157.598455 
L 535.980017 135.803834 
L 537.324151 98.87406 
L 540.01242 112.596599 
L 541.356554 91.00378 
L 542.700688 92.618196 
L 544.044822 81.922688 
L 545.388956 69.007357 
L 548.077225 62.146088 
L 549.421359 67.392941 
L 550.765493 74.859617 
L 552.109627 80.510074 
L 553.453761 81.317282 
L 554.797896 82.326292 
L 556.14203 90.398374 
L 557.486164 70.419972 
L 558.830298 69.007357 
L 560.174432 36.315426 
L 562.862701 45.396518 
L 564.206835 53.4686 
L 565.550969 52.45959 
L 566.895103 50.441569 
L 568.239238 67.191139 
L 568.239238 67.191139 
" style="fill:none;stroke:#4c72b0;stroke-linecap:round;stroke-width:2.25;"/>
   </g>
   <g id="patch_6">
    <path d="M 370.65151 251.174063 
L 370.65151 26.084062 
" style="fill:none;stroke:#ffffff;stroke-linecap:square;stroke-linejoin:miter;stroke-width:1.875;"/>
   </g>
   <g id="patch_7">
    <path d="M 370.65151 251.174063 
L 577.648177 251.174063 
" style="fill:none;stroke:#ffffff;stroke-linecap:square;stroke-linejoin:miter;stroke-width:1.875;"/>
   </g>
   <g id="text_15">
    <!-- category = celestial -->
    <g style="fill:#262626;" transform="translate(396.862344 20.084062)scale(0.18 -0.18)">
     <defs>
      <path d="M 6.390625 0 
L 6.390625 71.578125 
L 15.1875 71.578125 
L 15.1875 0 
z
" id="ArialMT-108"/>
      <path d="M 3.078125 15.484375 
L 11.765625 16.84375 
Q 12.5 11.625 15.84375 8.84375 
Q 19.1875 6.0625 25.203125 6.0625 
Q 31.25 6.0625 34.171875 8.515625 
Q 37.109375 10.984375 37.109375 14.3125 
Q 37.109375 17.28125 34.515625 19 
Q 32.71875 20.171875 25.53125 21.96875 
Q 15.875 24.421875 12.140625 26.203125 
Q 8.40625 27.984375 6.46875 31.125 
Q 4.546875 34.28125 4.546875 38.09375 
Q 4.546875 41.546875 6.125 44.5 
Q 7.71875 47.46875 10.453125 49.421875 
Q 12.5 50.921875 16.03125 51.96875 
Q 19.578125 53.03125 23.640625 53.03125 
Q 29.734375 53.03125 34.34375 51.265625 
Q 38.96875 49.515625 41.15625 46.5 
Q 43.359375 43.5 44.1875 38.484375 
L 35.59375 37.3125 
Q 35.015625 41.3125 32.203125 43.546875 
Q 29.390625 45.796875 24.265625 45.796875 
Q 18.21875 45.796875 15.625 43.796875 
Q 13.03125 41.796875 13.03125 39.109375 
Q 13.03125 37.40625 14.109375 36.03125 
Q 15.1875 34.625 17.484375 33.6875 
Q 18.796875 33.203125 25.25 31.453125 
Q 34.578125 28.953125 38.25 27.359375 
Q 41.9375 25.78125 44.03125 22.75 
Q 46.140625 19.734375 46.140625 15.234375 
Q 46.140625 10.84375 43.578125 6.953125 
Q 41.015625 3.078125 36.171875 0.953125 
Q 31.34375 -1.171875 25.25 -1.171875 
Q 15.140625 -1.171875 9.84375 3.03125 
Q 4.546875 7.234375 3.078125 15.484375 
z
" id="ArialMT-115"/>
      <path d="M 6.640625 61.46875 
L 6.640625 71.578125 
L 15.4375 71.578125 
L 15.4375 61.46875 
z
M 6.640625 0 
L 6.640625 51.859375 
L 15.4375 51.859375 
L 15.4375 0 
z
" id="ArialMT-105"/>
     </defs>
     <use xlink:href="#ArialMT-99"/>
     <use x="50" xlink:href="#ArialMT-97"/>
     <use x="105.615234" xlink:href="#ArialMT-116"/>
     <use x="133.398438" xlink:href="#ArialMT-101"/>
     <use x="189.013672" xlink:href="#ArialMT-103"/>
     <use x="244.628906" xlink:href="#ArialMT-111"/>
     <use x="300.244141" xlink:href="#ArialMT-114"/>
     <use x="333.544922" xlink:href="#ArialMT-121"/>
     <use x="383.544922" xlink:href="#ArialMT-32"/>
     <use x="411.328125" xlink:href="#ArialMT-61"/>
     <use x="469.726562" xlink:href="#ArialMT-32"/>
     <use x="497.509766" xlink:href="#ArialMT-99"/>
     <use x="547.509766" xlink:href="#ArialMT-101"/>
     <use x="603.125" xlink:href="#ArialMT-108"/>
     <use x="625.341797" xlink:href="#ArialMT-101"/>
     <use x="680.957031" xlink:href="#ArialMT-115"/>
     <use x="730.957031" xlink:href="#ArialMT-116"/>
     <use x="758.740234" xlink:href="#ArialMT-105"/>
     <use x="780.957031" xlink:href="#ArialMT-97"/>
     <use x="836.572266" xlink:href="#ArialMT-108"/>
    </g>
   </g>
  </g>
  <g id="axes_3">
   <g id="patch_8">
    <path d="M 646.088177 251.174063 
L 853.084844 251.174063 
L 853.084844 26.084062 
L 646.088177 26.084062 
z
" style="fill:#eaeaf2;"/>
   </g>
   <g id="matplotlib.axis_5">
    <g id="xtick_7">
     <g id="line2d_21">
      <path clip-path="url(#p995ac251c1)" d="M 682.3798 251.174063 
L 682.3798 26.084062 
" style="fill:none;stroke:#ffffff;stroke-linecap:round;stroke-width:1.5;"/>
     </g>
    </g>
    <g id="xtick_8">
     <g id="line2d_22">
      <path clip-path="url(#p995ac251c1)" d="M 749.58651 251.174063 
L 749.58651 26.084062 
" style="fill:none;stroke:#ffffff;stroke-linecap:round;stroke-width:1.5;"/>
     </g>
    </g>
    <g id="xtick_9">
     <g id="line2d_23">
      <path clip-path="url(#p995ac251c1)" d="M 816.79322 251.174063 
L 816.79322 26.084062 
" style="fill:none;stroke:#ffffff;stroke-linecap:round;stroke-width:1.5;"/>
     </g>
    </g>
   </g>
   <g id="matplotlib.axis_6">
    <g id="ytick_13">
     <g id="line2d_24">
      <path clip-path="url(#p995ac251c1)" d="M 646.088177 241.806834 
L 853.084844 241.806834 
" style="fill:none;stroke:#ffffff;stroke-linecap:round;stroke-width:1.5;"/>
     </g>
     <g id="text_16">
      <!-- 0 -->
      <g style="fill:#262626;" transform="translate(624.41263 247.71203)scale(0.165 -0.165)">
       <use xlink:href="#ArialMT-48"/>
      </g>
     </g>
    </g>
    <g id="ytick_14">
     <g id="line2d_25">
      <path clip-path="url(#p995ac251c1)" d="M 646.088177 198.600062 
L 853.084844 198.600062 
" style="fill:none;stroke:#ffffff;stroke-linecap:round;stroke-width:1.5;"/>
     </g>
     <g id="text_17">
      <!-- 250 -->
      <g style="fill:#262626;" transform="translate(606.061536 204.505258)scale(0.165 -0.165)">
       <defs>
        <path d="M 4.15625 18.75 
L 13.375 19.53125 
Q 14.40625 12.796875 18.140625 9.390625 
Q 21.875 6 27.15625 6 
Q 33.5 6 37.890625 10.78125 
Q 42.28125 15.578125 42.28125 23.484375 
Q 42.28125 31 38.0625 35.34375 
Q 33.84375 39.703125 27 39.703125 
Q 22.75 39.703125 19.328125 37.765625 
Q 15.921875 35.84375 13.96875 32.765625 
L 5.71875 33.84375 
L 12.640625 70.609375 
L 48.25 70.609375 
L 48.25 62.203125 
L 19.671875 62.203125 
L 15.828125 42.96875 
Q 22.265625 47.46875 29.34375 47.46875 
Q 38.71875 47.46875 45.15625 40.96875 
Q 51.609375 34.46875 51.609375 24.265625 
Q 51.609375 14.546875 45.953125 7.46875 
Q 39.0625 -1.21875 27.15625 -1.21875 
Q 17.390625 -1.21875 11.203125 4.25 
Q 5.03125 9.71875 4.15625 18.75 
z
" id="ArialMT-53"/>
       </defs>
       <use xlink:href="#ArialMT-50"/>
       <use x="55.615234" xlink:href="#ArialMT-53"/>
       <use x="111.230469" xlink:href="#ArialMT-48"/>
      </g>
     </g>
    </g>
    <g id="ytick_15">
     <g id="line2d_26">
      <path clip-path="url(#p995ac251c1)" d="M 646.088177 155.39329 
L 853.084844 155.39329 
" style="fill:none;stroke:#ffffff;stroke-linecap:round;stroke-width:1.5;"/>
     </g>
     <g id="text_18">
      <!-- 500 -->
      <g style="fill:#262626;" transform="translate(606.061536 161.298485)scale(0.165 -0.165)">
       <use xlink:href="#ArialMT-53"/>
       <use x="55.615234" xlink:href="#ArialMT-48"/>
       <use x="111.230469" xlink:href="#ArialMT-48"/>
      </g>
     </g>
    </g>
    <g id="ytick_16">
     <g id="line2d_27">
      <path clip-path="url(#p995ac251c1)" d="M 646.088177 112.186518 
L 853.084844 112.186518 
" style="fill:none;stroke:#ffffff;stroke-linecap:round;stroke-width:1.5;"/>
     </g>
     <g id="text_19">
      <!-- 750 -->
      <g style="fill:#262626;" transform="translate(606.061536 118.091713)scale(0.165 -0.165)">
       <defs>
        <path d="M 4.734375 62.203125 
L 4.734375 70.65625 
L 51.078125 70.65625 
L 51.078125 63.8125 
Q 44.234375 56.546875 37.515625 44.484375 
Q 30.8125 32.421875 27.15625 19.671875 
Q 24.515625 10.6875 23.78125 0 
L 14.75 0 
Q 14.890625 8.453125 18.0625 20.40625 
Q 21.234375 32.375 27.171875 43.484375 
Q 33.109375 54.59375 39.796875 62.203125 
z
" id="ArialMT-55"/>
       </defs>
       <use xlink:href="#ArialMT-55"/>
       <use x="55.615234" xlink:href="#ArialMT-53"/>
       <use x="111.230469" xlink:href="#ArialMT-48"/>
      </g>
     </g>
    </g>
    <g id="ytick_17">
     <g id="line2d_28">
      <path clip-path="url(#p995ac251c1)" d="M 646.088177 68.979746 
L 853.084844 68.979746 
" style="fill:none;stroke:#ffffff;stroke-linecap:round;stroke-width:1.5;"/>
     </g>
     <g id="text_20">
      <!-- 1000 -->
      <g style="fill:#262626;" transform="translate(596.88599 74.884941)scale(0.165 -0.165)">
       <use xlink:href="#ArialMT-49"/>
       <use x="55.615234" xlink:href="#ArialMT-48"/>
       <use x="111.230469" xlink:href="#ArialMT-48"/>
       <use x="166.845703" xlink:href="#ArialMT-48"/>
      </g>
     </g>
    </g>
   </g>
   <g id="line2d_29">
    <path clip-path="url(#p995ac251c1)" d="M 655.497116 240.597045 
L 659.529519 240.597045 
L 660.873653 240.424218 
L 664.906056 240.769872 
L 666.25019 240.942699 
L 670.282593 239.905736 
L 671.626727 240.424218 
L 674.314995 240.769872 
L 677.003264 240.078563 
L 678.347398 239.387255 
L 687.756337 240.769872 
L 691.78874 240.942699 
L 693.132874 240.769872 
L 695.821142 239.732909 
L 697.165277 240.769872 
L 698.509411 240.942699 
L 699.853545 239.905736 
L 701.197679 238.004638 
L 702.541813 234.720924 
L 703.885948 235.239405 
L 705.230082 235.930713 
L 706.574216 235.239405 
L 707.91835 235.757886 
L 709.262484 234.548097 
L 710.606619 234.548097 
L 711.950753 234.720924 
L 713.294887 235.757886 
L 714.639021 235.412232 
L 715.983155 236.10354 
L 717.32729 236.276367 
L 718.671424 236.967676 
L 720.015558 236.10354 
L 721.359692 238.868774 
L 722.703826 238.177465 
L 724.047961 237.831811 
L 725.392095 238.868774 
L 726.736229 238.177465 
L 728.080363 236.794849 
L 729.424497 237.658984 
L 730.768632 238.868774 
L 732.112766 238.177465 
L 733.4569 239.214428 
L 734.801034 238.004638 
L 736.145168 238.350293 
L 737.489303 237.831811 
L 738.833437 238.177465 
L 740.177571 238.177465 
L 741.521705 239.560082 
L 742.865839 239.041601 
L 744.209974 239.732909 
L 745.554108 237.31333 
L 746.898242 238.350293 
L 748.242376 238.004638 
L 749.58651 238.004638 
L 750.930645 239.905736 
L 752.274779 238.177465 
L 753.618913 237.658984 
L 754.963047 238.52312 
L 756.307181 238.52312 
L 758.99545 237.140503 
L 760.339584 239.214428 
L 761.683718 238.868774 
L 763.027852 239.214428 
L 764.371987 238.868774 
L 765.716121 240.251391 
L 768.404389 240.597045 
L 769.748523 240.769872 
L 771.092658 240.078563 
L 773.780926 240.078563 
L 775.12506 238.004638 
L 776.469194 240.078563 
L 777.813329 239.560082 
L 779.157463 240.424218 
L 780.501597 237.31333 
L 781.845731 236.622022 
L 783.189865 237.831811 
L 784.534 237.831811 
L 785.878134 232.992653 
L 787.222268 236.449195 
L 788.566402 236.794849 
L 789.910536 235.066578 
L 791.254671 237.31333 
L 792.598805 237.658984 
L 793.942939 232.992653 
L 795.287073 234.720924 
L 796.631207 235.066578 
L 797.975342 238.004638 
L 799.319476 232.819826 
L 800.66361 233.511134 
L 802.007744 233.511134 
L 803.351878 229.190457 
L 804.696013 229.536111 
L 806.040147 229.708938 
L 807.384281 225.733915 
L 808.728415 226.943705 
L 810.072549 226.943705 
L 811.416684 222.623027 
L 812.760818 221.240411 
L 814.104952 215.191463 
L 815.449086 214.845809 
L 816.79322 210.352304 
L 818.137355 201.71095 
L 819.481489 207.587071 
L 820.825623 200.846814 
L 822.169757 199.291371 
L 823.513891 199.464198 
L 824.858026 192.723941 
L 826.20216 195.316348 
L 827.546294 190.99567 
L 828.890428 181.663008 
L 830.234562 179.243428 
L 831.578697 184.428241 
L 832.922831 168.873803 
L 834.266965 169.737938 
L 835.611099 162.133547 
L 836.955233 133.962731 
L 838.299368 95.940772 
L 839.643502 100.088622 
L 840.987636 79.176544 
L 842.33177 58.610121 
L 843.675904 36.315426 
" style="fill:none;stroke:#4c72b0;stroke-linecap:round;stroke-width:2.25;"/>
   </g>
   <g id="patch_9">
    <path d="M 646.088177 251.174063 
L 646.088177 26.084062 
" style="fill:none;stroke:#ffffff;stroke-linecap:square;stroke-linejoin:miter;stroke-width:1.875;"/>
   </g>
   <g id="patch_10">
    <path d="M 646.088177 251.174063 
L 853.084844 251.174063 
" style="fill:none;stroke:#ffffff;stroke-linecap:square;stroke-linejoin:miter;stroke-width:1.875;"/>
   </g>
   <g id="text_21">
    <!-- category = evangelical -->
    <g style="fill:#262626;" transform="translate(659.784792 20.084062)scale(0.18 -0.18)">
     <defs>
      <path d="M 21 0 
L 1.265625 51.859375 
L 10.546875 51.859375 
L 21.6875 20.796875 
Q 23.484375 15.765625 25 10.359375 
Q 26.171875 14.453125 28.265625 20.21875 
L 39.796875 51.859375 
L 48.828125 51.859375 
L 29.203125 0 
z
" id="ArialMT-118"/>
     </defs>
     <use xlink:href="#ArialMT-99"/>
     <use x="50" xlink:href="#ArialMT-97"/>
     <use x="105.615234" xlink:href="#ArialMT-116"/>
     <use x="133.398438" xlink:href="#ArialMT-101"/>
     <use x="189.013672" xlink:href="#ArialMT-103"/>
     <use x="244.628906" xlink:href="#ArialMT-111"/>
     <use x="300.244141" xlink:href="#ArialMT-114"/>
     <use x="333.544922" xlink:href="#ArialMT-121"/>
     <use x="383.544922" xlink:href="#ArialMT-32"/>
     <use x="411.328125" xlink:href="#ArialMT-61"/>
     <use x="469.726562" xlink:href="#ArialMT-32"/>
     <use x="497.509766" xlink:href="#ArialMT-101"/>
     <use x="553.125" xlink:href="#ArialMT-118"/>
     <use x="603.125" xlink:href="#ArialMT-97"/>
     <use x="658.740234" xlink:href="#ArialMT-110"/>
     <use x="714.355469" xlink:href="#ArialMT-103"/>
     <use x="769.970703" xlink:href="#ArialMT-101"/>
     <use x="825.585938" xlink:href="#ArialMT-108"/>
     <use x="847.802734" xlink:href="#ArialMT-105"/>
     <use x="870.019531" xlink:href="#ArialMT-99"/>
     <use x="920.019531" xlink:href="#ArialMT-97"/>
     <use x="975.634766" xlink:href="#ArialMT-108"/>
    </g>
   </g>
  </g>
  <g id="axes_4">
   <g id="patch_11">
    <path d="M 95.214844 515.704063 
L 302.21151 515.704063 
L 302.21151 290.614062 
L 95.214844 290.614062 
z
" style="fill:#eaeaf2;"/>
   </g>
   <g id="matplotlib.axis_7">
    <g id="xtick_10">
     <g id="line2d_30">
      <path clip-path="url(#p6ba0e25c49)" d="M 131.506467 515.704063 
L 131.506467 290.614062 
" style="fill:none;stroke:#ffffff;stroke-linecap:round;stroke-width:1.5;"/>
     </g>
     <g id="text_22">
      <!-- 1900 -->
      <g style="fill:#262626;" transform="translate(113.155373 540.014453)scale(0.165 -0.165)">
       <defs>
        <path d="M 5.46875 16.546875 
L 13.921875 17.328125 
Q 14.984375 11.375 18.015625 8.6875 
Q 21.046875 6 25.78125 6 
Q 29.828125 6 32.875 7.859375 
Q 35.9375 9.71875 37.890625 12.8125 
Q 39.84375 15.921875 41.15625 21.1875 
Q 42.484375 26.46875 42.484375 31.9375 
Q 42.484375 32.515625 42.4375 33.6875 
Q 39.796875 29.5 35.234375 26.875 
Q 30.671875 24.265625 25.34375 24.265625 
Q 16.453125 24.265625 10.296875 30.703125 
Q 4.15625 37.15625 4.15625 47.703125 
Q 4.15625 58.59375 10.578125 65.234375 
Q 17 71.875 26.65625 71.875 
Q 33.640625 71.875 39.421875 68.109375 
Q 45.21875 64.359375 48.21875 57.390625 
Q 51.21875 50.4375 51.21875 37.25 
Q 51.21875 23.53125 48.234375 15.40625 
Q 45.265625 7.28125 39.375 3.03125 
Q 33.5 -1.21875 25.59375 -1.21875 
Q 17.1875 -1.21875 11.859375 3.4375 
Q 6.546875 8.109375 5.46875 16.546875 
z
M 41.453125 48.140625 
Q 41.453125 55.71875 37.421875 60.15625 
Q 33.40625 64.59375 27.734375 64.59375 
Q 21.875 64.59375 17.53125 59.8125 
Q 13.1875 55.03125 13.1875 47.40625 
Q 13.1875 40.578125 17.3125 36.296875 
Q 21.4375 32.03125 27.484375 32.03125 
Q 33.59375 32.03125 37.515625 36.296875 
Q 41.453125 40.578125 41.453125 48.140625 
z
" id="ArialMT-57"/>
       </defs>
       <use xlink:href="#ArialMT-49"/>
       <use x="55.615234" xlink:href="#ArialMT-57"/>
       <use x="111.230469" xlink:href="#ArialMT-48"/>
       <use x="166.845703" xlink:href="#ArialMT-48"/>
      </g>
     </g>
    </g>
    <g id="xtick_11">
     <g id="line2d_31">
      <path clip-path="url(#p6ba0e25c49)" d="M 198.713177 515.704063 
L 198.713177 290.614062 
" style="fill:none;stroke:#ffffff;stroke-linecap:round;stroke-width:1.5;"/>
     </g>
     <g id="text_23">
      <!-- 1950 -->
      <g style="fill:#262626;" transform="translate(180.362083 540.014453)scale(0.165 -0.165)">
       <use xlink:href="#ArialMT-49"/>
       <use x="55.615234" xlink:href="#ArialMT-57"/>
       <use x="111.230469" xlink:href="#ArialMT-53"/>
       <use x="166.845703" xlink:href="#ArialMT-48"/>
      </g>
     </g>
    </g>
    <g id="xtick_12">
     <g id="line2d_32">
      <path clip-path="url(#p6ba0e25c49)" d="M 265.919887 515.704063 
L 265.919887 290.614062 
" style="fill:none;stroke:#ffffff;stroke-linecap:round;stroke-width:1.5;"/>
     </g>
     <g id="text_24">
      <!-- 2000 -->
      <g style="fill:#262626;" transform="translate(247.568793 540.014453)scale(0.165 -0.165)">
       <use xlink:href="#ArialMT-50"/>
       <use x="55.615234" xlink:href="#ArialMT-48"/>
       <use x="111.230469" xlink:href="#ArialMT-48"/>
       <use x="166.845703" xlink:href="#ArialMT-48"/>
      </g>
     </g>
    </g>
    <g id="text_25">
     <!-- Year -->
     <g style="fill:#262626;" transform="translate(180.52474 560.177891)scale(0.18 -0.18)">
      <defs>
       <path d="M 27.875 0 
L 27.875 30.328125 
L 0.296875 71.578125 
L 11.8125 71.578125 
L 25.921875 50 
Q 29.828125 43.953125 33.203125 37.890625 
Q 36.421875 43.5 41.015625 50.53125 
L 54.890625 71.578125 
L 65.921875 71.578125 
L 37.359375 30.328125 
L 37.359375 0 
z
" id="ArialMT-89"/>
      </defs>
      <use xlink:href="#ArialMT-89"/>
      <use x="57.574219" xlink:href="#ArialMT-101"/>
      <use x="113.189453" xlink:href="#ArialMT-97"/>
      <use x="168.804688" xlink:href="#ArialMT-114"/>
     </g>
    </g>
   </g>
   <g id="matplotlib.axis_8">
    <g id="ytick_18">
     <g id="line2d_33">
      <path clip-path="url(#p6ba0e25c49)" d="M 95.214844 506.442496 
L 302.21151 506.442496 
" style="fill:none;stroke:#ffffff;stroke-linecap:round;stroke-width:1.5;"/>
     </g>
     <g id="text_26">
      <!-- 0 -->
      <g style="fill:#262626;" transform="translate(73.539297 512.347692)scale(0.165 -0.165)">
       <use xlink:href="#ArialMT-48"/>
      </g>
     </g>
    </g>
    <g id="ytick_19">
     <g id="line2d_34">
      <path clip-path="url(#p6ba0e25c49)" d="M 95.214844 467.650596 
L 302.21151 467.650596 
" style="fill:none;stroke:#ffffff;stroke-linecap:round;stroke-width:1.5;"/>
     </g>
     <g id="text_27">
      <!-- 200 -->
      <g style="fill:#262626;" transform="translate(55.188203 473.555792)scale(0.165 -0.165)">
       <use xlink:href="#ArialMT-50"/>
       <use x="55.615234" xlink:href="#ArialMT-48"/>
       <use x="111.230469" xlink:href="#ArialMT-48"/>
      </g>
     </g>
    </g>
    <g id="ytick_20">
     <g id="line2d_35">
      <path clip-path="url(#p6ba0e25c49)" d="M 95.214844 428.858696 
L 302.21151 428.858696 
" style="fill:none;stroke:#ffffff;stroke-linecap:round;stroke-width:1.5;"/>
     </g>
     <g id="text_28">
      <!-- 400 -->
      <g style="fill:#262626;" transform="translate(55.188203 434.763892)scale(0.165 -0.165)">
       <use xlink:href="#ArialMT-52"/>
       <use x="55.615234" xlink:href="#ArialMT-48"/>
       <use x="111.230469" xlink:href="#ArialMT-48"/>
      </g>
     </g>
    </g>
    <g id="ytick_21">
     <g id="line2d_36">
      <path clip-path="url(#p6ba0e25c49)" d="M 95.214844 390.066796 
L 302.21151 390.066796 
" style="fill:none;stroke:#ffffff;stroke-linecap:round;stroke-width:1.5;"/>
     </g>
     <g id="text_29">
      <!-- 600 -->
      <g style="fill:#262626;" transform="translate(55.188203 395.971992)scale(0.165 -0.165)">
       <use xlink:href="#ArialMT-54"/>
       <use x="55.615234" xlink:href="#ArialMT-48"/>
       <use x="111.230469" xlink:href="#ArialMT-48"/>
      </g>
     </g>
    </g>
    <g id="ytick_22">
     <g id="line2d_37">
      <path clip-path="url(#p6ba0e25c49)" d="M 95.214844 351.274896 
L 302.21151 351.274896 
" style="fill:none;stroke:#ffffff;stroke-linecap:round;stroke-width:1.5;"/>
     </g>
     <g id="text_30">
      <!-- 800 -->
      <g style="fill:#262626;" transform="translate(55.188203 357.180092)scale(0.165 -0.165)">
       <use xlink:href="#ArialMT-56"/>
       <use x="55.615234" xlink:href="#ArialMT-48"/>
       <use x="111.230469" xlink:href="#ArialMT-48"/>
      </g>
     </g>
    </g>
    <g id="ytick_23">
     <g id="line2d_38">
      <path clip-path="url(#p6ba0e25c49)" d="M 95.214844 312.482996 
L 302.21151 312.482996 
" style="fill:none;stroke:#ffffff;stroke-linecap:round;stroke-width:1.5;"/>
     </g>
     <g id="text_31">
      <!-- 1000 -->
      <g style="fill:#262626;" transform="translate(46.012656 318.388191)scale(0.165 -0.165)">
       <use xlink:href="#ArialMT-49"/>
       <use x="55.615234" xlink:href="#ArialMT-48"/>
       <use x="111.230469" xlink:href="#ArialMT-48"/>
       <use x="166.845703" xlink:href="#ArialMT-48"/>
      </g>
     </g>
    </g>
    <g id="text_32">
     <!-- Count -->
     <g style="fill:#262626;" transform="translate(38.435156 427.173594)rotate(-90)scale(0.18 -0.18)">
      <use xlink:href="#ArialMT-67"/>
      <use x="72.216797" xlink:href="#ArialMT-111"/>
      <use x="127.832031" xlink:href="#ArialMT-117"/>
      <use x="183.447266" xlink:href="#ArialMT-110"/>
      <use x="239.0625" xlink:href="#ArialMT-116"/>
     </g>
    </g>
   </g>
   <g id="line2d_39">
    <path clip-path="url(#p6ba0e25c49)" d="M 148.980212 505.278739 
L 150.324346 505.472699 
L 151.66848 505.278739 
L 154.356749 505.472699 
L 155.700883 505.08478 
L 157.045017 505.278739 
L 158.389151 504.696861 
L 159.733285 504.89082 
L 161.07742 505.278739 
L 171.830493 504.696861 
L 187.960103 505.472699 
L 216.186922 505.278739 
L 217.531056 505.472699 
L 220.219324 504.89082 
L 221.563458 505.08478 
L 225.595861 504.89082 
L 226.939995 504.696861 
L 229.628264 505.278739 
L 230.972398 505.472699 
L 232.316532 505.278739 
L 236.348935 505.08478 
L 245.757874 505.08478 
L 248.446142 505.472699 
L 251.134411 505.472699 
L 252.478545 505.08478 
L 253.822679 504.502901 
L 255.166813 503.921023 
L 256.510948 504.696861 
L 257.855082 504.696861 
L 259.199216 503.533104 
L 260.54335 504.114982 
L 261.887484 500.817671 
L 263.231619 494.223048 
L 264.575753 489.180101 
L 265.919887 489.180101 
L 267.264021 487.434465 
L 268.608155 485.300911 
L 269.95229 482.973397 
L 271.296424 484.137154 
L 272.640558 481.227761 
L 273.984692 479.094207 
L 275.328826 474.439179 
L 276.672961 470.17207 
L 278.017095 460.862014 
L 279.361229 455.043229 
L 280.705363 450.194241 
L 282.049497 440.302307 
L 283.393632 441.272104 
L 284.737766 415.087572 
L 286.0819 404.03188 
L 287.426034 388.903039 
L 288.770168 376.87755 
L 290.114303 384.82989 
L 291.458437 346.231949 
L 292.802571 300.845426 
" style="fill:none;stroke:#4c72b0;stroke-linecap:round;stroke-width:2.25;"/>
   </g>
   <g id="patch_12">
    <path d="M 95.214844 515.704063 
L 95.214844 290.614062 
" style="fill:none;stroke:#ffffff;stroke-linecap:square;stroke-linejoin:miter;stroke-width:1.875;"/>
   </g>
   <g id="patch_13">
    <path d="M 95.214844 515.704063 
L 302.21151 515.704063 
" style="fill:none;stroke:#ffffff;stroke-linecap:square;stroke-linejoin:miter;stroke-width:1.875;"/>
   </g>
   <g id="text_33">
    <!-- category = forbidden -->
    <g style="fill:#262626;" transform="translate(116.413802 284.614062)scale(0.18 -0.18)">
     <defs>
      <path d="M 8.6875 0 
L 8.6875 45.015625 
L 0.921875 45.015625 
L 0.921875 51.859375 
L 8.6875 51.859375 
L 8.6875 57.375 
Q 8.6875 62.59375 9.625 65.140625 
Q 10.890625 68.5625 14.078125 70.671875 
Q 17.28125 72.796875 23.046875 72.796875 
Q 26.765625 72.796875 31.25 71.921875 
L 29.9375 64.265625 
Q 27.203125 64.75 24.75 64.75 
Q 20.75 64.75 19.09375 63.03125 
Q 17.4375 61.328125 17.4375 56.640625 
L 17.4375 51.859375 
L 27.546875 51.859375 
L 27.546875 45.015625 
L 17.4375 45.015625 
L 17.4375 0 
z
" id="ArialMT-102"/>
      <path d="M 40.234375 0 
L 40.234375 6.546875 
Q 35.296875 -1.171875 25.734375 -1.171875 
Q 19.53125 -1.171875 14.328125 2.25 
Q 9.125 5.671875 6.265625 11.796875 
Q 3.421875 17.921875 3.421875 25.875 
Q 3.421875 33.640625 6 39.96875 
Q 8.59375 46.296875 13.765625 49.65625 
Q 18.953125 53.03125 25.34375 53.03125 
Q 30.03125 53.03125 33.6875 51.046875 
Q 37.359375 49.078125 39.65625 45.90625 
L 39.65625 71.578125 
L 48.390625 71.578125 
L 48.390625 0 
z
M 12.453125 25.875 
Q 12.453125 15.921875 16.640625 10.984375 
Q 20.84375 6.0625 26.5625 6.0625 
Q 32.328125 6.0625 36.34375 10.765625 
Q 40.375 15.484375 40.375 25.140625 
Q 40.375 35.796875 36.265625 40.765625 
Q 32.171875 45.75 26.171875 45.75 
Q 20.3125 45.75 16.375 40.96875 
Q 12.453125 36.1875 12.453125 25.875 
z
" id="ArialMT-100"/>
     </defs>
     <use xlink:href="#ArialMT-99"/>
     <use x="50" xlink:href="#ArialMT-97"/>
     <use x="105.615234" xlink:href="#ArialMT-116"/>
     <use x="133.398438" xlink:href="#ArialMT-101"/>
     <use x="189.013672" xlink:href="#ArialMT-103"/>
     <use x="244.628906" xlink:href="#ArialMT-111"/>
     <use x="300.244141" xlink:href="#ArialMT-114"/>
     <use x="333.544922" xlink:href="#ArialMT-121"/>
     <use x="383.544922" xlink:href="#ArialMT-32"/>
     <use x="411.328125" xlink:href="#ArialMT-61"/>
     <use x="469.726562" xlink:href="#ArialMT-32"/>
     <use x="497.509766" xlink:href="#ArialMT-102"/>
     <use x="525.292969" xlink:href="#ArialMT-111"/>
     <use x="580.908203" xlink:href="#ArialMT-114"/>
     <use x="614.208984" xlink:href="#ArialMT-98"/>
     <use x="669.824219" xlink:href="#ArialMT-105"/>
     <use x="692.041016" xlink:href="#ArialMT-100"/>
     <use x="747.65625" xlink:href="#ArialMT-100"/>
     <use x="803.271484" xlink:href="#ArialMT-101"/>
     <use x="858.886719" xlink:href="#ArialMT-110"/>
    </g>
   </g>
  </g>
  <g id="axes_5">
   <g id="patch_14">
    <path d="M 370.65151 515.704063 
L 577.648177 515.704063 
L 577.648177 290.614062 
L 370.65151 290.614062 
z
" style="fill:#eaeaf2;"/>
   </g>
   <g id="matplotlib.axis_9">
    <g id="xtick_13">
     <g id="line2d_40">
      <path clip-path="url(#p48166d89ec)" d="M 406.943134 515.704063 
L 406.943134 290.614062 
" style="fill:none;stroke:#ffffff;stroke-linecap:round;stroke-width:1.5;"/>
     </g>
     <g id="text_34">
      <!-- 1900 -->
      <g style="fill:#262626;" transform="translate(388.59204 540.014453)scale(0.165 -0.165)">
       <use xlink:href="#ArialMT-49"/>
       <use x="55.615234" xlink:href="#ArialMT-57"/>
       <use x="111.230469" xlink:href="#ArialMT-48"/>
       <use x="166.845703" xlink:href="#ArialMT-48"/>
      </g>
     </g>
    </g>
    <g id="xtick_14">
     <g id="line2d_41">
      <path clip-path="url(#p48166d89ec)" d="M 474.149844 515.704063 
L 474.149844 290.614062 
" style="fill:none;stroke:#ffffff;stroke-linecap:round;stroke-width:1.5;"/>
     </g>
     <g id="text_35">
      <!-- 1950 -->
      <g style="fill:#262626;" transform="translate(455.79875 540.014453)scale(0.165 -0.165)">
       <use xlink:href="#ArialMT-49"/>
       <use x="55.615234" xlink:href="#ArialMT-57"/>
       <use x="111.230469" xlink:href="#ArialMT-53"/>
       <use x="166.845703" xlink:href="#ArialMT-48"/>
      </g>
     </g>
    </g>
    <g id="xtick_15">
     <g id="line2d_42">
      <path clip-path="url(#p48166d89ec)" d="M 541.356554 515.704063 
L 541.356554 290.614062 
" style="fill:none;stroke:#ffffff;stroke-linecap:round;stroke-width:1.5;"/>
     </g>
     <g id="text_36">
      <!-- 2000 -->
      <g style="fill:#262626;" transform="translate(523.00546 540.014453)scale(0.165 -0.165)">
       <use xlink:href="#ArialMT-50"/>
       <use x="55.615234" xlink:href="#ArialMT-48"/>
       <use x="111.230469" xlink:href="#ArialMT-48"/>
       <use x="166.845703" xlink:href="#ArialMT-48"/>
      </g>
     </g>
    </g>
    <g id="text_37">
     <!-- Year -->
     <g style="fill:#262626;" transform="translate(455.961406 560.177891)scale(0.18 -0.18)">
      <use xlink:href="#ArialMT-89"/>
      <use x="57.574219" xlink:href="#ArialMT-101"/>
      <use x="113.189453" xlink:href="#ArialMT-97"/>
      <use x="168.804688" xlink:href="#ArialMT-114"/>
     </g>
    </g>
   </g>
   <g id="matplotlib.axis_10">
    <g id="ytick_24">
     <g id="line2d_43">
      <path clip-path="url(#p48166d89ec)" d="M 370.65151 506.874256 
L 577.648177 506.874256 
" style="fill:none;stroke:#ffffff;stroke-linecap:round;stroke-width:1.5;"/>
     </g>
     <g id="text_38">
      <!-- 0 -->
      <g style="fill:#262626;" transform="translate(348.975964 512.779451)scale(0.165 -0.165)">
       <use xlink:href="#ArialMT-48"/>
      </g>
     </g>
    </g>
    <g id="ytick_25">
     <g id="line2d_44">
      <path clip-path="url(#p48166d89ec)" d="M 370.65151 450.811989 
L 577.648177 450.811989 
" style="fill:none;stroke:#ffffff;stroke-linecap:round;stroke-width:1.5;"/>
     </g>
     <g id="text_39">
      <!-- 200 -->
      <g style="fill:#262626;" transform="translate(330.62487 456.717184)scale(0.165 -0.165)">
       <use xlink:href="#ArialMT-50"/>
       <use x="55.615234" xlink:href="#ArialMT-48"/>
       <use x="111.230469" xlink:href="#ArialMT-48"/>
      </g>
     </g>
    </g>
    <g id="ytick_26">
     <g id="line2d_45">
      <path clip-path="url(#p48166d89ec)" d="M 370.65151 394.749723 
L 577.648177 394.749723 
" style="fill:none;stroke:#ffffff;stroke-linecap:round;stroke-width:1.5;"/>
     </g>
     <g id="text_40">
      <!-- 400 -->
      <g style="fill:#262626;" transform="translate(330.62487 400.654918)scale(0.165 -0.165)">
       <use xlink:href="#ArialMT-52"/>
       <use x="55.615234" xlink:href="#ArialMT-48"/>
       <use x="111.230469" xlink:href="#ArialMT-48"/>
      </g>
     </g>
    </g>
    <g id="ytick_27">
     <g id="line2d_46">
      <path clip-path="url(#p48166d89ec)" d="M 370.65151 338.687456 
L 577.648177 338.687456 
" style="fill:none;stroke:#ffffff;stroke-linecap:round;stroke-width:1.5;"/>
     </g>
     <g id="text_41">
      <!-- 600 -->
      <g style="fill:#262626;" transform="translate(330.62487 344.592651)scale(0.165 -0.165)">
       <use xlink:href="#ArialMT-54"/>
       <use x="55.615234" xlink:href="#ArialMT-48"/>
       <use x="111.230469" xlink:href="#ArialMT-48"/>
      </g>
     </g>
    </g>
   </g>
   <g id="line2d_47">
    <path clip-path="url(#p48166d89ec)" d="M 431.137549 505.472699 
L 497.000125 505.472699 
L 498.344259 505.192388 
L 499.688394 505.472699 
L 502.376662 505.472699 
L 505.06493 504.071142 
L 506.409065 504.351454 
L 507.753199 502.108963 
L 509.097333 502.669586 
L 510.441467 502.669586 
L 511.785601 502.949897 
L 513.129736 502.669586 
L 514.47387 500.707406 
L 515.818004 500.987718 
L 517.162138 497.623982 
L 518.506272 501.828652 
L 519.850407 496.502736 
L 521.194541 496.502736 
L 522.538675 496.502736 
L 523.882809 498.464916 
L 525.226943 492.578378 
L 526.571078 486.69184 
L 527.915212 481.365924 
L 529.259346 483.888726 
L 530.60348 476.32032 
L 531.947614 473.797518 
L 533.291749 475.479386 
L 534.635883 475.479386 
L 535.980017 474.358141 
L 537.324151 469.87316 
L 538.668285 471.274716 
L 540.01242 474.07783 
L 541.356554 470.994405 
L 542.700688 470.994405 
L 544.044822 469.592848 
L 545.388956 469.312537 
L 546.733091 469.592848 
L 548.077225 476.32032 
L 549.421359 468.751914 
L 550.765493 471.555028 
L 552.109627 479.123434 
L 553.453761 465.948801 
L 554.797896 466.789735 
L 556.14203 468.471603 
L 557.486164 454.456036 
L 558.830298 460.342574 
L 560.174432 441.842026 
L 561.518567 427.265837 
L 562.862701 396.992213 
L 564.206835 385.219137 
L 565.550969 367.559523 
L 566.895103 338.126833 
L 568.239238 300.845426 
" style="fill:none;stroke:#4c72b0;stroke-linecap:round;stroke-width:2.25;"/>
   </g>
   <g id="patch_15">
    <path d="M 370.65151 515.704063 
L 370.65151 290.614062 
" style="fill:none;stroke:#ffffff;stroke-linecap:square;stroke-linejoin:miter;stroke-width:1.875;"/>
   </g>
   <g id="patch_16">
    <path d="M 370.65151 515.704063 
L 577.648177 515.704063 
" style="fill:none;stroke:#ffffff;stroke-linecap:square;stroke-linejoin:miter;stroke-width:1.875;"/>
   </g>
   <g id="text_42">
    <!-- category = mineral -->
    <g style="fill:#262626;" transform="translate(399.868906 284.614062)scale(0.18 -0.18)">
     <use xlink:href="#ArialMT-99"/>
     <use x="50" xlink:href="#ArialMT-97"/>
     <use x="105.615234" xlink:href="#ArialMT-116"/>
     <use x="133.398438" xlink:href="#ArialMT-101"/>
     <use x="189.013672" xlink:href="#ArialMT-103"/>
     <use x="244.628906" xlink:href="#ArialMT-111"/>
     <use x="300.244141" xlink:href="#ArialMT-114"/>
     <use x="333.544922" xlink:href="#ArialMT-121"/>
     <use x="383.544922" xlink:href="#ArialMT-32"/>
     <use x="411.328125" xlink:href="#ArialMT-61"/>
     <use x="469.726562" xlink:href="#ArialMT-32"/>
     <use x="497.509766" xlink:href="#ArialMT-109"/>
     <use x="580.810547" xlink:href="#ArialMT-105"/>
     <use x="603.027344" xlink:href="#ArialMT-110"/>
     <use x="658.642578" xlink:href="#ArialMT-101"/>
     <use x="714.257812" xlink:href="#ArialMT-114"/>
     <use x="747.558594" xlink:href="#ArialMT-97"/>
     <use x="803.173828" xlink:href="#ArialMT-108"/>
    </g>
   </g>
  </g>
  <g id="axes_6">
   <g id="patch_17">
    <path d="M 646.088177 515.704063 
L 853.084844 515.704063 
L 853.084844 290.614062 
L 646.088177 290.614062 
z
" style="fill:#eaeaf2;"/>
   </g>
   <g id="matplotlib.axis_11">
    <g id="xtick_16">
     <g id="line2d_48">
      <path clip-path="url(#p85f73188e6)" d="M 682.3798 515.704063 
L 682.3798 290.614062 
" style="fill:none;stroke:#ffffff;stroke-linecap:round;stroke-width:1.5;"/>
     </g>
     <g id="text_43">
      <!-- 1900 -->
      <g style="fill:#262626;" transform="translate(664.028707 540.014453)scale(0.165 -0.165)">
       <use xlink:href="#ArialMT-49"/>
       <use x="55.615234" xlink:href="#ArialMT-57"/>
       <use x="111.230469" xlink:href="#ArialMT-48"/>
       <use x="166.845703" xlink:href="#ArialMT-48"/>
      </g>
     </g>
    </g>
    <g id="xtick_17">
     <g id="line2d_49">
      <path clip-path="url(#p85f73188e6)" d="M 749.58651 515.704063 
L 749.58651 290.614062 
" style="fill:none;stroke:#ffffff;stroke-linecap:round;stroke-width:1.5;"/>
     </g>
     <g id="text_44">
      <!-- 1950 -->
      <g style="fill:#262626;" transform="translate(731.235417 540.014453)scale(0.165 -0.165)">
       <use xlink:href="#ArialMT-49"/>
       <use x="55.615234" xlink:href="#ArialMT-57"/>
       <use x="111.230469" xlink:href="#ArialMT-53"/>
       <use x="166.845703" xlink:href="#ArialMT-48"/>
      </g>
     </g>
    </g>
    <g id="xtick_18">
     <g id="line2d_50">
      <path clip-path="url(#p85f73188e6)" d="M 816.79322 515.704063 
L 816.79322 290.614062 
" style="fill:none;stroke:#ffffff;stroke-linecap:round;stroke-width:1.5;"/>
     </g>
     <g id="text_45">
      <!-- 2000 -->
      <g style="fill:#262626;" transform="translate(798.442127 540.014453)scale(0.165 -0.165)">
       <use xlink:href="#ArialMT-50"/>
       <use x="55.615234" xlink:href="#ArialMT-48"/>
       <use x="111.230469" xlink:href="#ArialMT-48"/>
       <use x="166.845703" xlink:href="#ArialMT-48"/>
      </g>
     </g>
    </g>
    <g id="text_46">
     <!-- Year -->
     <g style="fill:#262626;" transform="translate(731.398073 560.177891)scale(0.18 -0.18)">
      <use xlink:href="#ArialMT-89"/>
      <use x="57.574219" xlink:href="#ArialMT-101"/>
      <use x="113.189453" xlink:href="#ArialMT-97"/>
      <use x="168.804688" xlink:href="#ArialMT-114"/>
     </g>
    </g>
   </g>
   <g id="matplotlib.axis_12">
    <g id="ytick_28">
     <g id="line2d_51">
      <path clip-path="url(#p85f73188e6)" d="M 646.088177 513.899605 
L 853.084844 513.899605 
" style="fill:none;stroke:#ffffff;stroke-linecap:round;stroke-width:1.5;"/>
     </g>
     <g id="text_47">
      <!-- 0 -->
      <g style="fill:#262626;" transform="translate(624.41263 519.804801)scale(0.165 -0.165)">
       <use xlink:href="#ArialMT-48"/>
      </g>
     </g>
    </g>
    <g id="ytick_29">
     <g id="line2d_52">
      <path clip-path="url(#p85f73188e6)" d="M 646.088177 452.835066 
L 853.084844 452.835066 
" style="fill:none;stroke:#ffffff;stroke-linecap:round;stroke-width:1.5;"/>
     </g>
     <g id="text_48">
      <!-- 1000 -->
      <g style="fill:#262626;" transform="translate(596.88599 458.740261)scale(0.165 -0.165)">
       <use xlink:href="#ArialMT-49"/>
       <use x="55.615234" xlink:href="#ArialMT-48"/>
       <use x="111.230469" xlink:href="#ArialMT-48"/>
       <use x="166.845703" xlink:href="#ArialMT-48"/>
      </g>
     </g>
    </g>
    <g id="ytick_30">
     <g id="line2d_53">
      <path clip-path="url(#p85f73188e6)" d="M 646.088177 391.770526 
L 853.084844 391.770526 
" style="fill:none;stroke:#ffffff;stroke-linecap:round;stroke-width:1.5;"/>
     </g>
     <g id="text_49">
      <!-- 2000 -->
      <g style="fill:#262626;" transform="translate(596.88599 397.675721)scale(0.165 -0.165)">
       <use xlink:href="#ArialMT-50"/>
       <use x="55.615234" xlink:href="#ArialMT-48"/>
       <use x="111.230469" xlink:href="#ArialMT-48"/>
       <use x="166.845703" xlink:href="#ArialMT-48"/>
      </g>
     </g>
    </g>
    <g id="ytick_31">
     <g id="line2d_54">
      <path clip-path="url(#p85f73188e6)" d="M 646.088177 330.705986 
L 853.084844 330.705986 
" style="fill:none;stroke:#ffffff;stroke-linecap:round;stroke-width:1.5;"/>
     </g>
     <g id="text_50">
      <!-- 3000 -->
      <g style="fill:#262626;" transform="translate(596.88599 336.611181)scale(0.165 -0.165)">
       <defs>
        <path d="M 4.203125 18.890625 
L 12.984375 20.0625 
Q 14.5 12.59375 18.140625 9.296875 
Q 21.78125 6 27 6 
Q 33.203125 6 37.46875 10.296875 
Q 41.75 14.59375 41.75 20.953125 
Q 41.75 27 37.796875 30.921875 
Q 33.84375 34.859375 27.734375 34.859375 
Q 25.25 34.859375 21.53125 33.890625 
L 22.515625 41.609375 
Q 23.390625 41.5 23.921875 41.5 
Q 29.546875 41.5 34.03125 44.421875 
Q 38.53125 47.359375 38.53125 53.46875 
Q 38.53125 58.296875 35.25 61.46875 
Q 31.984375 64.65625 26.8125 64.65625 
Q 21.6875 64.65625 18.265625 61.421875 
Q 14.84375 58.203125 13.875 51.765625 
L 5.078125 53.328125 
Q 6.6875 62.15625 12.390625 67.015625 
Q 18.109375 71.875 26.609375 71.875 
Q 32.46875 71.875 37.390625 69.359375 
Q 42.328125 66.84375 44.9375 62.5 
Q 47.5625 58.15625 47.5625 53.265625 
Q 47.5625 48.640625 45.0625 44.828125 
Q 42.578125 41.015625 37.703125 38.765625 
Q 44.046875 37.3125 47.5625 32.6875 
Q 51.078125 28.078125 51.078125 21.140625 
Q 51.078125 11.765625 44.234375 5.25 
Q 37.40625 -1.265625 26.953125 -1.265625 
Q 17.53125 -1.265625 11.296875 4.34375 
Q 5.078125 9.96875 4.203125 18.890625 
z
" id="ArialMT-51"/>
       </defs>
       <use xlink:href="#ArialMT-51"/>
       <use x="55.615234" xlink:href="#ArialMT-48"/>
       <use x="111.230469" xlink:href="#ArialMT-48"/>
       <use x="166.845703" xlink:href="#ArialMT-48"/>
      </g>
     </g>
    </g>
   </g>
   <g id="line2d_55">
    <path clip-path="url(#p85f73188e6)" d="M 655.497116 504.129279 
L 656.841251 505.472699 
L 658.185385 502.907988 
L 659.529519 503.518634 
L 660.873653 503.640763 
L 662.217787 504.312473 
L 663.561922 503.33544 
L 664.906056 503.579698 
L 666.25019 500.953923 
L 667.594324 503.823956 
L 668.938458 503.762892 
L 670.282593 504.068214 
L 671.626727 501.808826 
L 672.970861 501.503504 
L 674.314995 503.030117 
L 675.659129 503.457569 
L 677.003264 503.274375 
L 678.347398 504.190344 
L 679.691532 502.846924 
L 681.035666 504.068214 
L 682.3798 501.32031 
L 683.723935 503.640763 
L 685.068069 504.190344 
L 687.756337 502.358407 
L 690.444606 502.297343 
L 691.78874 499.793697 
L 693.132874 497.534309 
L 694.477008 497.473244 
L 695.821142 492.221694 
L 697.165277 491.427855 
L 698.509411 467.124168 
L 699.853545 462.239005 
L 701.197679 448.926935 
L 702.541813 429.691605 
L 703.885948 429.447347 
L 705.230082 427.920733 
L 706.574216 426.088797 
L 707.91835 432.622703 
L 710.606619 431.706735 
L 711.950753 434.698897 
L 713.294887 439.950448 
L 714.639021 444.041772 
L 715.983155 446.484353 
L 717.32729 449.293322 
L 718.671424 456.804261 
L 720.015558 460.101746 
L 721.359692 461.200908 
L 722.703826 463.154973 
L 724.047961 469.139298 
L 725.392095 469.749943 
L 726.736229 479.764528 
L 728.080363 478.237914 
L 729.424497 478.84856 
L 730.768632 480.436238 
L 732.112766 479.092818 
L 733.4569 479.703463 
L 734.801034 480.619431 
L 736.145168 477.199817 
L 737.489303 477.50514 
L 738.833437 477.199817 
L 740.177571 474.879364 
L 742.865839 483.550529 
L 744.209974 479.39814 
L 745.554108 475.795333 
L 746.898242 479.214947 
L 748.242376 479.39814 
L 749.58651 481.901787 
L 750.930645 481.901787 
L 752.274779 484.039045 
L 753.618913 479.337076 
L 754.963047 476.83343 
L 756.307181 475.978526 
L 757.651316 481.840722 
L 758.99545 476.894494 
L 760.339584 482.939884 
L 761.683718 481.840722 
L 763.027852 482.512432 
L 764.371987 486.542692 
L 765.716121 486.420562 
L 767.060255 482.75669 
L 768.404389 482.695626 
L 769.748523 485.382465 
L 771.092658 487.031208 
L 772.436792 488.863144 
L 773.780926 489.962306 
L 775.12506 489.229531 
L 776.469194 489.107402 
L 777.813329 488.00824 
L 779.157463 490.328693 
L 780.501597 491.305726 
L 781.845731 490.328693 
L 783.189865 491.549984 
L 784.534 490.267628 
L 785.878134 484.222239 
L 787.222268 483.794787 
L 789.910536 479.520269 
L 792.598805 477.688333 
L 793.942939 475.917462 
L 795.287073 479.153882 
L 796.631207 480.558367 
L 797.975342 482.878819 
L 799.319476 479.153882 
L 800.66361 478.787495 
L 802.007744 477.50514 
L 803.351878 473.230622 
L 804.696013 475.734268 
L 806.040147 476.894494 
L 807.384281 482.878819 
L 808.728415 484.832884 
L 810.072549 482.023916 
L 811.416684 481.41327 
L 812.760818 478.237914 
L 814.104952 478.909624 
L 815.449086 477.932591 
L 816.79322 473.413815 
L 818.137355 464.070941 
L 819.481489 460.956649 
L 820.825623 459.002584 
L 822.169757 454.483808 
L 823.513891 445.263063 
L 824.858026 429.813734 
L 826.20216 421.447892 
L 827.546294 418.577859 
L 828.890428 424.928571 
L 830.234562 428.164992 
L 831.578697 425.905604 
L 832.922831 424.37899 
L 834.266965 411.982888 
L 835.611099 382.855103 
L 836.955233 362.215289 
L 838.299368 350.79622 
L 839.643502 343.102088 
L 840.987636 334.1256 
L 842.33177 311.165333 
L 843.675904 300.845426 
L 843.675904 300.845426 
" style="fill:none;stroke:#4c72b0;stroke-linecap:round;stroke-width:2.25;"/>
   </g>
   <g id="patch_18">
    <path d="M 646.088177 515.704063 
L 646.088177 290.614062 
" style="fill:none;stroke:#ffffff;stroke-linecap:square;stroke-linejoin:miter;stroke-width:1.875;"/>
   </g>
   <g id="patch_19">
    <path d="M 646.088177 515.704063 
L 853.084844 515.704063 
" style="fill:none;stroke:#ffffff;stroke-linecap:square;stroke-linejoin:miter;stroke-width:1.875;"/>
   </g>
   <g id="text_51">
    <!-- category = mythology -->
    <g style="fill:#262626;" transform="translate(663.796823 284.614062)scale(0.18 -0.18)">
     <defs>
      <path d="M 6.59375 0 
L 6.59375 71.578125 
L 15.375 71.578125 
L 15.375 45.90625 
Q 21.53125 53.03125 30.90625 53.03125 
Q 36.671875 53.03125 40.921875 50.75 
Q 45.171875 48.484375 47 44.484375 
Q 48.828125 40.484375 48.828125 32.859375 
L 48.828125 0 
L 40.046875 0 
L 40.046875 32.859375 
Q 40.046875 39.453125 37.1875 42.453125 
Q 34.328125 45.453125 29.109375 45.453125 
Q 25.203125 45.453125 21.75 43.421875 
Q 18.3125 41.40625 16.84375 37.9375 
Q 15.375 34.46875 15.375 28.375 
L 15.375 0 
z
" id="ArialMT-104"/>
     </defs>
     <use xlink:href="#ArialMT-99"/>
     <use x="50" xlink:href="#ArialMT-97"/>
     <use x="105.615234" xlink:href="#ArialMT-116"/>
     <use x="133.398438" xlink:href="#ArialMT-101"/>
     <use x="189.013672" xlink:href="#ArialMT-103"/>
     <use x="244.628906" xlink:href="#ArialMT-111"/>
     <use x="300.244141" xlink:href="#ArialMT-114"/>
     <use x="333.544922" xlink:href="#ArialMT-121"/>
     <use x="383.544922" xlink:href="#ArialMT-32"/>
     <use x="411.328125" xlink:href="#ArialMT-61"/>
     <use x="469.726562" xlink:href="#ArialMT-32"/>
     <use x="497.509766" xlink:href="#ArialMT-109"/>
     <use x="580.810547" xlink:href="#ArialMT-121"/>
     <use x="630.810547" xlink:href="#ArialMT-116"/>
     <use x="658.59375" xlink:href="#ArialMT-104"/>
     <use x="714.208984" xlink:href="#ArialMT-111"/>
     <use x="769.824219" xlink:href="#ArialMT-108"/>
     <use x="792.041016" xlink:href="#ArialMT-111"/>
     <use x="847.65625" xlink:href="#ArialMT-103"/>
     <use x="903.271484" xlink:href="#ArialMT-121"/>
    </g>
   </g>
  </g>
 </g>
 <defs>
  <clipPath id="pf5a4ec8ea6">
   <rect height="225.09" width="206.996667" x="95.214844" y="26.084062"/>
  </clipPath>
  <clipPath id="p826520f86e">
   <rect height="225.09" width="206.996667" x="370.65151" y="26.084062"/>
  </clipPath>
  <clipPath id="p995ac251c1">
   <rect height="225.09" width="206.996667" x="646.088177" y="26.084062"/>
  </clipPath>
  <clipPath id="p6ba0e25c49">
   <rect height="225.09" width="206.996667" x="95.214844" y="290.614062"/>
  </clipPath>
  <clipPath id="p48166d89ec">
   <rect height="225.09" width="206.996667" x="370.65151" y="290.614062"/>
  </clipPath>
  <clipPath id="p85f73188e6">
   <rect height="225.09" width="206.996667" x="646.088177" y="290.614062"/>
  </clipPath>
 </defs>
</svg>
