<?xml version="1.0" encoding="utf-8" standalone="no"?>
<!DOCTYPE svg PUBLIC "-//W3C//DTD SVG 1.1//EN"
  "http://www.w3.org/Graphics/SVG/1.1/DTD/svg11.dtd">
<!-- Created with matplotlib (https://matplotlib.org/) -->
<svg height="294.701719pt" version="1.1" viewBox="0 0 384.635 294.701719" width="384.635pt" xmlns="http://www.w3.org/2000/svg" xmlns:xlink="http://www.w3.org/1999/xlink">
 <metadata>
  <rdf:RDF xmlns:cc="http://creativecommons.org/ns#" xmlns:dc="http://purl.org/dc/elements/1.1/" xmlns:rdf="http://www.w3.org/1999/02/22-rdf-syntax-ns#">
   <cc:Work>
    <dc:type rdf:resource="http://purl.org/dc/dcmitype/StillImage"/>
    <dc:date>2021-08-27T16:09:55.519347</dc:date>
    <dc:format>image/svg+xml</dc:format>
    <dc:creator>
     <cc:Agent>
      <dc:title>Matplotlib v3.3.4, https://matplotlib.org/</dc:title>
     </cc:Agent>
    </dc:creator>
   </cc:Work>
  </rdf:RDF>
 </metadata>
 <defs>
  <style type="text/css">*{stroke-linecap:butt;stroke-linejoin:round;}</style>
 </defs>
 <g id="figure_1">
  <g id="patch_1">
   <path d="M 0 294.701719 
L 384.635 294.701719 
L 384.635 0 
L 0 0 
z
" style="fill:#ffffff;"/>
  </g>
  <g id="axes_1">
   <g id="patch_2">
    <path d="M 42.635 239.450391 
L 377.435 239.450391 
L 377.435 22.010391 
L 42.635 22.010391 
z
" style="fill:#eaeaf2;"/>
   </g>
   <g id="matplotlib.axis_1">
    <g id="xtick_1">
     <g id="line2d_1">
      <path clip-path="url(#pb276655057)" d="M 101.333701 239.450391 
L 101.333701 22.010391 
" style="fill:none;stroke:#ffffff;stroke-linecap:round;stroke-width:1.5;"/>
     </g>
     <g id="text_1">
      <!-- 1900 -->
      <g style="fill:#262626;" transform="translate(82.982608 263.760781)scale(0.165 -0.165)">
       <defs>
        <path d="M 37.25 0 
L 28.46875 0 
L 28.46875 56 
Q 25.296875 52.984375 20.140625 49.953125 
Q 14.984375 46.921875 10.890625 45.40625 
L 10.890625 53.90625 
Q 18.265625 57.375 23.78125 62.296875 
Q 29.296875 67.234375 31.59375 71.875 
L 37.25 71.875 
z
" id="ArialMT-49"/>
        <path d="M 5.46875 16.546875 
L 13.921875 17.328125 
Q 14.984375 11.375 18.015625 8.6875 
Q 21.046875 6 25.78125 6 
Q 29.828125 6 32.875 7.859375 
Q 35.9375 9.71875 37.890625 12.8125 
Q 39.84375 15.921875 41.15625 21.1875 
Q 42.484375 26.46875 42.484375 31.9375 
Q 42.484375 32.515625 42.4375 33.6875 
Q 39.796875 29.5 35.234375 26.875 
Q 30.671875 24.265625 25.34375 24.265625 
Q 16.453125 24.265625 10.296875 30.703125 
Q 4.15625 37.15625 4.15625 47.703125 
Q 4.15625 58.59375 10.578125 65.234375 
Q 17 71.875 26.65625 71.875 
Q 33.640625 71.875 39.421875 68.109375 
Q 45.21875 64.359375 48.21875 57.390625 
Q 51.21875 50.4375 51.21875 37.25 
Q 51.21875 23.53125 48.234375 15.40625 
Q 45.265625 7.28125 39.375 3.03125 
Q 33.5 -1.21875 25.59375 -1.21875 
Q 17.1875 -1.21875 11.859375 3.4375 
Q 6.546875 8.109375 5.46875 16.546875 
z
M 41.453125 48.140625 
Q 41.453125 55.71875 37.421875 60.15625 
Q 33.40625 64.59375 27.734375 64.59375 
Q 21.875 64.59375 17.53125 59.8125 
Q 13.1875 55.03125 13.1875 47.40625 
Q 13.1875 40.578125 17.3125 36.296875 
Q 21.4375 32.03125 27.484375 32.03125 
Q 33.59375 32.03125 37.515625 36.296875 
Q 41.453125 40.578125 41.453125 48.140625 
z
" id="ArialMT-57"/>
        <path d="M 4.15625 35.296875 
Q 4.15625 48 6.765625 55.734375 
Q 9.375 63.484375 14.515625 67.671875 
Q 19.671875 71.875 27.484375 71.875 
Q 33.25 71.875 37.59375 69.546875 
Q 41.9375 67.234375 44.765625 62.859375 
Q 47.609375 58.5 49.21875 52.21875 
Q 50.828125 45.953125 50.828125 35.296875 
Q 50.828125 22.703125 48.234375 14.96875 
Q 45.65625 7.234375 40.5 3 
Q 35.359375 -1.21875 27.484375 -1.21875 
Q 17.140625 -1.21875 11.234375 6.203125 
Q 4.15625 15.140625 4.15625 35.296875 
z
M 13.1875 35.296875 
Q 13.1875 17.671875 17.3125 11.828125 
Q 21.4375 6 27.484375 6 
Q 33.546875 6 37.671875 11.859375 
Q 41.796875 17.71875 41.796875 35.296875 
Q 41.796875 52.984375 37.671875 58.78125 
Q 33.546875 64.59375 27.390625 64.59375 
Q 21.34375 64.59375 17.71875 59.46875 
Q 13.1875 52.9375 13.1875 35.296875 
z
" id="ArialMT-48"/>
       </defs>
       <use xlink:href="#ArialMT-49"/>
       <use x="55.615234" xlink:href="#ArialMT-57"/>
       <use x="111.230469" xlink:href="#ArialMT-48"/>
       <use x="166.845703" xlink:href="#ArialMT-48"/>
      </g>
     </g>
    </g>
    <g id="xtick_2">
     <g id="line2d_2">
      <path clip-path="url(#pb276655057)" d="M 210.035 239.450391 
L 210.035 22.010391 
" style="fill:none;stroke:#ffffff;stroke-linecap:round;stroke-width:1.5;"/>
     </g>
     <g id="text_2">
      <!-- 1950 -->
      <g style="fill:#262626;" transform="translate(191.683906 263.760781)scale(0.165 -0.165)">
       <defs>
        <path d="M 4.15625 18.75 
L 13.375 19.53125 
Q 14.40625 12.796875 18.140625 9.390625 
Q 21.875 6 27.15625 6 
Q 33.5 6 37.890625 10.78125 
Q 42.28125 15.578125 42.28125 23.484375 
Q 42.28125 31 38.0625 35.34375 
Q 33.84375 39.703125 27 39.703125 
Q 22.75 39.703125 19.328125 37.765625 
Q 15.921875 35.84375 13.96875 32.765625 
L 5.71875 33.84375 
L 12.640625 70.609375 
L 48.25 70.609375 
L 48.25 62.203125 
L 19.671875 62.203125 
L 15.828125 42.96875 
Q 22.265625 47.46875 29.34375 47.46875 
Q 38.71875 47.46875 45.15625 40.96875 
Q 51.609375 34.46875 51.609375 24.265625 
Q 51.609375 14.546875 45.953125 7.46875 
Q 39.0625 -1.21875 27.15625 -1.21875 
Q 17.390625 -1.21875 11.203125 4.25 
Q 5.03125 9.71875 4.15625 18.75 
z
" id="ArialMT-53"/>
       </defs>
       <use xlink:href="#ArialMT-49"/>
       <use x="55.615234" xlink:href="#ArialMT-57"/>
       <use x="111.230469" xlink:href="#ArialMT-53"/>
       <use x="166.845703" xlink:href="#ArialMT-48"/>
      </g>
     </g>
    </g>
    <g id="xtick_3">
     <g id="line2d_3">
      <path clip-path="url(#pb276655057)" d="M 318.736299 239.450391 
L 318.736299 22.010391 
" style="fill:none;stroke:#ffffff;stroke-linecap:round;stroke-width:1.5;"/>
     </g>
     <g id="text_3">
      <!-- 2000 -->
      <g style="fill:#262626;" transform="translate(300.385205 263.760781)scale(0.165 -0.165)">
       <defs>
        <path d="M 50.34375 8.453125 
L 50.34375 0 
L 3.03125 0 
Q 2.9375 3.171875 4.046875 6.109375 
Q 5.859375 10.9375 9.828125 15.625 
Q 13.8125 20.3125 21.34375 26.46875 
Q 33.015625 36.03125 37.109375 41.625 
Q 41.21875 47.21875 41.21875 52.203125 
Q 41.21875 57.421875 37.46875 61 
Q 33.734375 64.59375 27.734375 64.59375 
Q 21.390625 64.59375 17.578125 60.78125 
Q 13.765625 56.984375 13.71875 50.25 
L 4.6875 51.171875 
Q 5.609375 61.28125 11.65625 66.578125 
Q 17.71875 71.875 27.9375 71.875 
Q 38.234375 71.875 44.234375 66.15625 
Q 50.25 60.453125 50.25 52 
Q 50.25 47.703125 48.484375 43.546875 
Q 46.734375 39.40625 42.65625 34.8125 
Q 38.578125 30.21875 29.109375 22.21875 
Q 21.1875 15.578125 18.9375 13.203125 
Q 16.703125 10.84375 15.234375 8.453125 
z
" id="ArialMT-50"/>
       </defs>
       <use xlink:href="#ArialMT-50"/>
       <use x="55.615234" xlink:href="#ArialMT-48"/>
       <use x="111.230469" xlink:href="#ArialMT-48"/>
       <use x="166.845703" xlink:href="#ArialMT-48"/>
      </g>
     </g>
    </g>
    <g id="text_4">
     <!-- Year -->
     <g style="fill:#262626;" transform="translate(191.846563 283.924219)scale(0.18 -0.18)">
      <defs>
       <path d="M 27.875 0 
L 27.875 30.328125 
L 0.296875 71.578125 
L 11.8125 71.578125 
L 25.921875 50 
Q 29.828125 43.953125 33.203125 37.890625 
Q 36.421875 43.5 41.015625 50.53125 
L 54.890625 71.578125 
L 65.921875 71.578125 
L 37.359375 30.328125 
L 37.359375 0 
z
" id="ArialMT-89"/>
       <path d="M 42.09375 16.703125 
L 51.171875 15.578125 
Q 49.03125 7.625 43.21875 3.21875 
Q 37.40625 -1.171875 28.375 -1.171875 
Q 17 -1.171875 10.328125 5.828125 
Q 3.65625 12.84375 3.65625 25.484375 
Q 3.65625 38.578125 10.390625 45.796875 
Q 17.140625 53.03125 27.875 53.03125 
Q 38.28125 53.03125 44.875 45.953125 
Q 51.46875 38.875 51.46875 26.03125 
Q 51.46875 25.25 51.421875 23.6875 
L 12.75 23.6875 
Q 13.234375 15.140625 17.578125 10.59375 
Q 21.921875 6.0625 28.421875 6.0625 
Q 33.25 6.0625 36.671875 8.59375 
Q 40.09375 11.140625 42.09375 16.703125 
z
M 13.234375 30.90625 
L 42.1875 30.90625 
Q 41.609375 37.453125 38.875 40.71875 
Q 34.671875 45.796875 27.984375 45.796875 
Q 21.921875 45.796875 17.796875 41.75 
Q 13.671875 37.703125 13.234375 30.90625 
z
" id="ArialMT-101"/>
       <path d="M 40.4375 6.390625 
Q 35.546875 2.25 31.03125 0.53125 
Q 26.515625 -1.171875 21.34375 -1.171875 
Q 12.796875 -1.171875 8.203125 3 
Q 3.609375 7.171875 3.609375 13.671875 
Q 3.609375 17.484375 5.34375 20.625 
Q 7.078125 23.78125 9.890625 25.6875 
Q 12.703125 27.59375 16.21875 28.5625 
Q 18.796875 29.25 24.03125 29.890625 
Q 34.671875 31.15625 39.703125 32.90625 
Q 39.75 34.71875 39.75 35.203125 
Q 39.75 40.578125 37.25 42.78125 
Q 33.890625 45.75 27.25 45.75 
Q 21.046875 45.75 18.09375 43.578125 
Q 15.140625 41.40625 13.71875 35.890625 
L 5.125 37.0625 
Q 6.296875 42.578125 8.984375 45.96875 
Q 11.671875 49.359375 16.75 51.1875 
Q 21.828125 53.03125 28.515625 53.03125 
Q 35.15625 53.03125 39.296875 51.46875 
Q 43.453125 49.90625 45.40625 47.53125 
Q 47.359375 45.171875 48.140625 41.546875 
Q 48.578125 39.3125 48.578125 33.453125 
L 48.578125 21.734375 
Q 48.578125 9.46875 49.140625 6.21875 
Q 49.703125 2.984375 51.375 0 
L 42.1875 0 
Q 40.828125 2.734375 40.4375 6.390625 
z
M 39.703125 26.03125 
Q 34.90625 24.078125 25.34375 22.703125 
Q 19.921875 21.921875 17.671875 20.9375 
Q 15.4375 19.96875 14.203125 18.09375 
Q 12.984375 16.21875 12.984375 13.921875 
Q 12.984375 10.40625 15.640625 8.0625 
Q 18.3125 5.71875 23.4375 5.71875 
Q 28.515625 5.71875 32.46875 7.9375 
Q 36.421875 10.15625 38.28125 14.015625 
Q 39.703125 17 39.703125 22.796875 
z
" id="ArialMT-97"/>
       <path d="M 6.5 0 
L 6.5 51.859375 
L 14.40625 51.859375 
L 14.40625 44 
Q 17.4375 49.515625 20 51.265625 
Q 22.5625 53.03125 25.640625 53.03125 
Q 30.078125 53.03125 34.671875 50.203125 
L 31.640625 42.046875 
Q 28.421875 43.953125 25.203125 43.953125 
Q 22.3125 43.953125 20.015625 42.21875 
Q 17.71875 40.484375 16.75 37.40625 
Q 15.28125 32.71875 15.28125 27.15625 
L 15.28125 0 
z
" id="ArialMT-114"/>
      </defs>
      <use xlink:href="#ArialMT-89"/>
      <use x="57.574219" xlink:href="#ArialMT-101"/>
      <use x="113.189453" xlink:href="#ArialMT-97"/>
      <use x="168.804688" xlink:href="#ArialMT-114"/>
     </g>
    </g>
   </g>
   <g id="matplotlib.axis_2">
    <g id="ytick_1">
     <g id="line2d_4">
      <path clip-path="url(#pb276655057)" d="M 42.635 237.571909 
L 377.435 237.571909 
" style="fill:none;stroke:#ffffff;stroke-linecap:round;stroke-width:1.5;"/>
     </g>
     <g id="text_5">
      <!-- 0.0 -->
      <g style="fill:#262626;" transform="translate(7.2 243.477104)scale(0.165 -0.165)">
       <defs>
        <path d="M 9.078125 0 
L 9.078125 10.015625 
L 19.09375 10.015625 
L 19.09375 0 
z
" id="ArialMT-46"/>
       </defs>
       <use xlink:href="#ArialMT-48"/>
       <use x="55.615234" xlink:href="#ArialMT-46"/>
       <use x="83.398438" xlink:href="#ArialMT-48"/>
      </g>
     </g>
    </g>
    <g id="ytick_2">
     <g id="line2d_5">
      <path clip-path="url(#pb276655057)" d="M 42.635 189.881871 
L 377.435 189.881871 
" style="fill:none;stroke:#ffffff;stroke-linecap:round;stroke-width:1.5;"/>
     </g>
     <g id="text_6">
      <!-- 0.5 -->
      <g style="fill:#262626;" transform="translate(7.2 195.787066)scale(0.165 -0.165)">
       <use xlink:href="#ArialMT-48"/>
       <use x="55.615234" xlink:href="#ArialMT-46"/>
       <use x="83.398438" xlink:href="#ArialMT-53"/>
      </g>
     </g>
    </g>
    <g id="ytick_3">
     <g id="line2d_6">
      <path clip-path="url(#pb276655057)" d="M 42.635 142.191833 
L 377.435 142.191833 
" style="fill:none;stroke:#ffffff;stroke-linecap:round;stroke-width:1.5;"/>
     </g>
     <g id="text_7">
      <!-- 1.0 -->
      <g style="fill:#262626;" transform="translate(7.2 148.097028)scale(0.165 -0.165)">
       <use xlink:href="#ArialMT-49"/>
       <use x="55.615234" xlink:href="#ArialMT-46"/>
       <use x="83.398438" xlink:href="#ArialMT-48"/>
      </g>
     </g>
    </g>
    <g id="ytick_4">
     <g id="line2d_7">
      <path clip-path="url(#pb276655057)" d="M 42.635 94.501795 
L 377.435 94.501795 
" style="fill:none;stroke:#ffffff;stroke-linecap:round;stroke-width:1.5;"/>
     </g>
     <g id="text_8">
      <!-- 1.5 -->
      <g style="fill:#262626;" transform="translate(7.2 100.40699)scale(0.165 -0.165)">
       <use xlink:href="#ArialMT-49"/>
       <use x="55.615234" xlink:href="#ArialMT-46"/>
       <use x="83.398438" xlink:href="#ArialMT-53"/>
      </g>
     </g>
    </g>
    <g id="ytick_5">
     <g id="line2d_8">
      <path clip-path="url(#pb276655057)" d="M 42.635 46.811757 
L 377.435 46.811757 
" style="fill:none;stroke:#ffffff;stroke-linecap:round;stroke-width:1.5;"/>
     </g>
     <g id="text_9">
      <!-- 2.0 -->
      <g style="fill:#262626;" transform="translate(7.2 52.716952)scale(0.165 -0.165)">
       <use xlink:href="#ArialMT-50"/>
       <use x="55.615234" xlink:href="#ArialMT-46"/>
       <use x="83.398438" xlink:href="#ArialMT-48"/>
      </g>
     </g>
    </g>
    <g id="text_10">
     <!-- 1e6 -->
     <g style="fill:#262626;" transform="translate(42.635 19.010391)scale(0.165 -0.165)">
      <defs>
       <path d="M 49.75 54.046875 
L 41.015625 53.375 
Q 39.84375 58.546875 37.703125 60.890625 
Q 34.125 64.65625 28.90625 64.65625 
Q 24.703125 64.65625 21.53125 62.3125 
Q 17.390625 59.28125 14.984375 53.46875 
Q 12.59375 47.65625 12.5 36.921875 
Q 15.671875 41.75 20.265625 44.09375 
Q 24.859375 46.4375 29.890625 46.4375 
Q 38.671875 46.4375 44.84375 39.96875 
Q 51.03125 33.5 51.03125 23.25 
Q 51.03125 16.5 48.125 10.71875 
Q 45.21875 4.9375 40.140625 1.859375 
Q 35.0625 -1.21875 28.609375 -1.21875 
Q 17.625 -1.21875 10.6875 6.859375 
Q 3.765625 14.9375 3.765625 33.5 
Q 3.765625 54.25 11.421875 63.671875 
Q 18.109375 71.875 29.4375 71.875 
Q 37.890625 71.875 43.28125 67.140625 
Q 48.6875 62.40625 49.75 54.046875 
z
M 13.875 23.1875 
Q 13.875 18.65625 15.796875 14.5 
Q 17.71875 10.359375 21.1875 8.171875 
Q 24.65625 6 28.46875 6 
Q 34.03125 6 38.03125 10.484375 
Q 42.046875 14.984375 42.046875 22.703125 
Q 42.046875 30.125 38.078125 34.390625 
Q 34.125 38.671875 28.125 38.671875 
Q 22.171875 38.671875 18.015625 34.390625 
Q 13.875 30.125 13.875 23.1875 
z
" id="ArialMT-54"/>
      </defs>
      <use xlink:href="#ArialMT-49"/>
      <use x="55.615234" xlink:href="#ArialMT-101"/>
      <use x="111.230469" xlink:href="#ArialMT-54"/>
     </g>
    </g>
   </g>
   <g id="line2d_9">
    <path clip-path="url(#pb276655057)" d="M 57.853182 229.566754 
L 60.027208 229.461359 
L 62.201234 228.06261 
L 64.37526 227.623099 
L 66.549286 226.145185 
L 68.723312 225.751742 
L 70.897338 224.729554 
L 73.071364 224.591253 
L 75.24539 221.656026 
L 77.419416 221.670333 
L 79.593442 220.565737 
L 81.767468 220.997045 
L 83.941494 218.575345 
L 86.115519 218.484352 
L 90.463571 216.571124 
L 92.637597 216.196566 
L 94.811623 216.513228 
L 96.985649 214.264452 
L 99.159675 216.602599 
L 101.333701 210.570858 
L 103.507727 215.996077 
L 105.681753 213.766091 
L 107.855779 213.946741 
L 110.029805 212.734842 
L 112.203831 211.289738 
L 114.377857 210.967544 
L 116.551883 208.863841 
L 118.725909 207.465283 
L 120.899935 206.29001 
L 123.073961 201.932476 
L 125.247987 199.999885 
L 127.422013 187.419539 
L 129.596039 181.497485 
L 131.770065 169.257169 
L 133.944091 149.281148 
L 136.118117 143.822451 
L 138.292143 140.571039 
L 140.466169 133.581778 
L 142.640195 136.059562 
L 144.814221 130.048805 
L 146.988247 127.019152 
L 149.162273 129.904781 
L 151.336299 129.338986 
L 153.510325 125.466364 
L 157.858377 130.978188 
L 160.032403 130.576924 
L 164.380455 137.132778 
L 166.554481 136.297249 
L 168.728506 141.771016 
L 170.902532 141.501281 
L 173.076558 146.734309 
L 175.250584 143.406689 
L 177.42461 142.814951 
L 179.598636 143.529061 
L 181.772662 141.395695 
L 183.946688 137.688749 
L 186.120714 138.213721 
L 188.29474 133.87097 
L 190.468766 127.882532 
L 192.642792 114.77731 
L 194.816818 110.805111 
L 196.990844 116.942819 
L 199.16487 118.559511 
L 201.338896 94.1404 
L 203.512922 77.999134 
L 205.686948 84.808604 
L 207.860974 83.070207 
L 210.035 81.851345 
L 212.209026 72.860533 
L 214.383052 67.103391 
L 216.557078 64.274227 
L 218.731104 58.82812 
L 220.90513 57.098784 
L 223.079156 51.974394 
L 225.253182 48.388485 
L 227.427208 51.064182 
L 229.601234 49.818232 
L 231.77526 49.622131 
L 233.949286 49.665624 
L 238.297338 59.085074 
L 240.471364 62.016963 
L 242.64539 74.965475 
L 244.819416 81.615565 
L 246.993442 85.104473 
L 249.167468 85.846816 
L 251.341494 80.95935 
L 253.515519 75.234447 
L 255.689545 84.306142 
L 257.863571 98.546769 
L 260.037597 104.442783 
L 262.211623 103.624518 
L 264.385649 104.068321 
L 266.559675 103.497662 
L 268.733701 96.962792 
L 270.907727 96.833933 
L 273.081753 89.863843 
L 275.255779 84.772169 
L 277.429805 83.92052 
L 279.603831 81.510742 
L 281.777857 83.417486 
L 283.951883 81.806516 
L 286.125909 78.06323 
L 288.299935 78.983743 
L 290.473961 77.097125 
L 292.647987 72.657278 
L 294.822013 66.31145 
L 296.996039 60.945844 
L 299.170065 62.899037 
L 301.344091 65.388648 
L 303.518117 68.383678 
L 305.692143 70.336776 
L 307.866169 72.526321 
L 310.040195 72.794339 
L 312.214221 74.021785 
L 314.388247 71.565653 
L 316.562273 70.947113 
L 318.736299 66.881156 
L 320.910325 68.269985 
L 323.084351 68.573294 
L 325.258377 65.808225 
L 327.432403 64.890669 
L 329.606429 63.693935 
L 331.780455 58.373634 
L 333.954481 56.146319 
L 336.128506 59.137152 
L 340.476558 70.364722 
L 342.650584 72.040932 
L 344.82461 71.923042 
L 346.998636 72.4545 
L 349.172662 69.4382 
L 351.346688 69.549032 
L 353.520714 70.767608 
L 355.69474 75.206119 
L 360.042792 80.012512 
L 362.216818 86.747299 
L 362.216818 86.747299 
" style="fill:none;stroke:#4c72b0;stroke-linecap:round;stroke-width:2.25;"/>
   </g>
   <g id="line2d_10">
    <path clip-path="url(#pb276655057)" d="M 57.853182 227.033364 
L 60.027208 227.963511 
L 62.201234 226.728529 
L 64.37526 227.592768 
L 66.549286 226.656422 
L 68.723312 227.290032 
L 70.897338 227.005322 
L 73.071364 227.89932 
L 75.24539 226.045131 
L 77.419416 227.02478 
L 79.593442 226.982431 
L 81.767468 227.920303 
L 83.941494 225.932201 
L 86.115519 226.858914 
L 88.289545 226.529853 
L 92.637597 226.167694 
L 94.811623 226.817137 
L 96.985649 225.870109 
L 99.159675 227.441591 
L 101.333701 223.219306 
L 103.507727 227.416983 
L 105.681753 225.872779 
L 107.855779 226.199647 
L 110.029805 225.351336 
L 112.203831 224.952362 
L 114.377857 224.871575 
L 116.551883 223.567538 
L 118.725909 222.851139 
L 120.899935 221.929862 
L 125.247987 216.018873 
L 127.422013 196.563627 
L 129.596039 188.68342 
L 131.770065 175.120373 
L 133.944091 156.634093 
L 136.118117 152.674771 
L 138.292143 149.298602 
L 140.466169 140.905346 
L 142.640195 144.085604 
L 144.814221 136.052027 
L 146.988247 132.514761 
L 149.162273 133.781408 
L 151.336299 133.023232 
L 153.510325 129.526503 
L 155.684351 131.133276 
L 157.858377 131.649664 
L 160.032403 130.082951 
L 162.206429 131.923786 
L 164.380455 134.978428 
L 166.554481 132.901813 
L 168.728506 138.411539 
L 170.902532 137.982424 
L 173.076558 143.008668 
L 175.250584 139.092362 
L 177.42461 138.256737 
L 179.598636 138.647891 
L 181.772662 135.842095 
L 183.946688 131.785867 
L 186.120714 132.006958 
L 188.29474 127.01858 
L 190.468766 120.425813 
L 192.642792 105.852596 
L 194.816818 101.4468 
L 196.990844 107.589181 
L 199.16487 109.215507 
L 201.338896 82.68325 
L 203.512922 63.075681 
L 205.686948 70.222224 
L 207.860974 68.384059 
L 210.035 66.798366 
L 212.209026 57.982099 
L 214.383052 52.175169 
L 216.557078 49.451591 
L 218.731104 43.08955 
L 220.90513 41.077888 
L 223.079156 35.897892 
L 225.253182 31.894027 
L 227.427208 35.23252 
L 229.601234 34.116955 
L 231.77526 34.210618 
L 233.949286 35.092407 
L 236.123312 40.260672 
L 240.471364 47.479704 
L 242.64539 60.090667 
L 244.819416 67.445615 
L 246.993442 71.207501 
L 249.167468 71.749927 
L 251.341494 66.934282 
L 253.515519 60.251859 
L 255.689545 68.844364 
L 257.863571 82.826797 
L 260.037597 88.855199 
L 262.211623 87.541529 
L 264.385649 88.573256 
L 266.559675 87.844075 
L 268.733701 80.784137 
L 270.907727 80.897735 
L 273.081753 73.297659 
L 275.255779 67.349663 
L 277.429805 66.672559 
L 279.603831 64.453256 
L 281.777857 66.55858 
L 283.951883 65.408583 
L 286.125909 61.290166 
L 288.299935 61.938179 
L 290.473961 59.518958 
L 292.647987 55.030658 
L 294.822013 46.743942 
L 296.996039 41.709686 
L 299.170065 44.905109 
L 301.344091 47.098851 
L 303.518117 50.54045 
L 307.866169 56.032149 
L 312.214221 57.792674 
L 314.388247 55.292667 
L 316.562273 54.460095 
L 318.736299 50.296468 
L 320.910325 52.31328 
L 323.084351 52.450246 
L 325.258377 49.232313 
L 327.432403 48.328491 
L 329.606429 47.157319 
L 331.780455 41.6454 
L 333.954481 39.729882 
L 336.128506 43.111392 
L 338.302532 48.520777 
L 340.476558 54.711421 
L 342.650584 56.602236 
L 344.82461 56.832865 
L 346.998636 57.377962 
L 349.172662 54.626724 
L 351.346688 55.066712 
L 353.520714 56.929962 
L 355.69474 61.4856 
L 357.868766 64.904499 
L 360.042792 67.268208 
L 362.216818 74.813154 
L 362.216818 74.813154 
" style="fill:none;stroke:#dd8452;stroke-linecap:round;stroke-width:2.25;"/>
   </g>
   <g id="patch_3">
    <path d="M 42.635 239.450391 
L 42.635 22.010391 
" style="fill:none;stroke:#ffffff;stroke-linecap:square;stroke-linejoin:miter;stroke-width:1.875;"/>
   </g>
   <g id="patch_4">
    <path d="M 377.435 239.450391 
L 377.435 22.010391 
" style="fill:none;stroke:#ffffff;stroke-linecap:square;stroke-linejoin:miter;stroke-width:1.875;"/>
   </g>
   <g id="patch_5">
    <path d="M 42.635 239.450391 
L 377.435 239.450391 
" style="fill:none;stroke:#ffffff;stroke-linecap:square;stroke-linejoin:miter;stroke-width:1.875;"/>
   </g>
   <g id="patch_6">
    <path d="M 42.635 22.010391 
L 377.435 22.010391 
" style="fill:none;stroke:#ffffff;stroke-linecap:square;stroke-linejoin:miter;stroke-width:1.875;"/>
   </g>
   <g id="legend_1">
    <g id="patch_7">
     <path d="M 54.185 106.601484 
L 120.728984 106.601484 
Q 124.028984 106.601484 124.028984 103.301484 
L 124.028984 33.560391 
Q 124.028984 30.260391 120.728984 30.260391 
L 54.185 30.260391 
Q 50.885 30.260391 50.885 33.560391 
L 50.885 103.301484 
Q 50.885 106.601484 54.185 106.601484 
z
" style="fill:#eaeaf2;opacity:0.8;stroke:#cccccc;stroke-linejoin:miter;stroke-width:1.5;"/>
    </g>
    <g id="text_11">
     <!-- Sex -->
     <g style="fill:#262626;" transform="translate(71.948867 49.744453)scale(0.18 -0.18)">
      <defs>
       <path d="M 4.5 23 
L 13.421875 23.78125 
Q 14.0625 18.40625 16.375 14.96875 
Q 18.703125 11.53125 23.578125 9.40625 
Q 28.46875 7.28125 34.578125 7.28125 
Q 39.984375 7.28125 44.140625 8.890625 
Q 48.296875 10.5 50.3125 13.296875 
Q 52.34375 16.109375 52.34375 19.4375 
Q 52.34375 22.796875 50.390625 25.3125 
Q 48.4375 27.828125 43.953125 29.546875 
Q 41.0625 30.671875 31.203125 33.03125 
Q 21.34375 35.40625 17.390625 37.5 
Q 12.25 40.1875 9.734375 44.15625 
Q 7.234375 48.140625 7.234375 53.078125 
Q 7.234375 58.5 10.296875 63.203125 
Q 13.375 67.921875 19.28125 70.359375 
Q 25.203125 72.796875 32.421875 72.796875 
Q 40.375 72.796875 46.453125 70.234375 
Q 52.546875 67.671875 55.8125 62.6875 
Q 59.078125 57.71875 59.328125 51.421875 
L 50.25 50.734375 
Q 49.515625 57.515625 45.28125 60.984375 
Q 41.0625 64.453125 32.8125 64.453125 
Q 24.21875 64.453125 20.28125 61.296875 
Q 16.359375 58.15625 16.359375 53.71875 
Q 16.359375 49.859375 19.140625 47.359375 
Q 21.875 44.875 33.421875 42.265625 
Q 44.96875 39.65625 49.265625 37.703125 
Q 55.515625 34.8125 58.484375 30.390625 
Q 61.46875 25.984375 61.46875 20.21875 
Q 61.46875 14.5 58.203125 9.4375 
Q 54.9375 4.390625 48.796875 1.578125 
Q 42.671875 -1.21875 35.015625 -1.21875 
Q 25.296875 -1.21875 18.71875 1.609375 
Q 12.15625 4.4375 8.421875 10.125 
Q 4.6875 15.828125 4.5 23 
z
" id="ArialMT-83"/>
       <path d="M 0.734375 0 
L 19.671875 26.953125 
L 2.15625 51.859375 
L 13.140625 51.859375 
L 21.09375 39.703125 
Q 23.34375 36.234375 24.703125 33.890625 
Q 26.859375 37.109375 28.65625 39.59375 
L 37.40625 51.859375 
L 47.90625 51.859375 
L 29.984375 27.4375 
L 49.265625 0 
L 38.484375 0 
L 27.828125 16.109375 
L 25 20.453125 
L 11.375 0 
z
" id="ArialMT-120"/>
      </defs>
      <use xlink:href="#ArialMT-83"/>
      <use x="66.699219" xlink:href="#ArialMT-101"/>
      <use x="122.314453" xlink:href="#ArialMT-120"/>
     </g>
    </g>
    <g id="line2d_11">
     <path d="M 57.485 67.607344 
L 90.485 67.607344 
" style="fill:none;stroke:#4c72b0;stroke-linecap:round;stroke-width:2.25;"/>
    </g>
    <g id="line2d_12"/>
    <g id="text_12">
     <!-- F -->
     <g style="fill:#262626;" transform="translate(103.685 73.382344)scale(0.165 -0.165)">
      <defs>
       <path d="M 8.203125 0 
L 8.203125 71.578125 
L 56.5 71.578125 
L 56.5 63.140625 
L 17.671875 63.140625 
L 17.671875 40.96875 
L 51.265625 40.96875 
L 51.265625 32.515625 
L 17.671875 32.515625 
L 17.671875 0 
z
" id="ArialMT-70"/>
      </defs>
      <use xlink:href="#ArialMT-70"/>
     </g>
    </g>
    <g id="line2d_13">
     <path d="M 57.485 90.947109 
L 90.485 90.947109 
" style="fill:none;stroke:#dd8452;stroke-linecap:round;stroke-width:2.25;"/>
    </g>
    <g id="line2d_14"/>
    <g id="text_13">
     <!-- M -->
     <g style="fill:#262626;" transform="translate(103.685 96.722109)scale(0.165 -0.165)">
      <defs>
       <path d="M 7.421875 0 
L 7.421875 71.578125 
L 21.6875 71.578125 
L 38.625 20.90625 
Q 40.96875 13.8125 42.046875 10.296875 
Q 43.265625 14.203125 45.84375 21.78125 
L 62.984375 71.578125 
L 75.734375 71.578125 
L 75.734375 0 
L 66.609375 0 
L 66.609375 59.90625 
L 45.796875 0 
L 37.25 0 
L 16.546875 60.9375 
L 16.546875 0 
z
" id="ArialMT-77"/>
      </defs>
      <use xlink:href="#ArialMT-77"/>
     </g>
    </g>
   </g>
  </g>
 </g>
 <defs>
  <clipPath id="pb276655057">
   <rect height="217.44" width="334.8" x="42.635" y="22.010391"/>
  </clipPath>
 </defs>
</svg>
