<svg width="668" height="95" viewBox="0 0 668 95" fill="none" xmlns="http://www.w3.org/2000/svg">
<g clip-path="url(#clip0)">
<rect width="668" height="95" fill="white"/>
<circle cx="32.5" cy="39.5" r="31" stroke="#E99D42" stroke-width="3"/>
<circle cx="255.5" cy="39.5" r="31" stroke="#2C7CF6" stroke-width="3"/>
<circle cx="507.5" cy="39.5" r="31" stroke="#8FC34F" stroke-width="3"/>
<path d="M72.3672 24H74.7266V20.4453H77.0156C79.3906 20.4453 80.9766 18.9141 80.9766 16.5938V16.5781C80.9766 14.2578 79.3906 12.7266 77.0156 12.7266H72.3672V24ZM76.4375 14.5938C77.7891 14.5938 78.5859 15.3047 78.5859 16.5859V16.6016C78.5859 17.8828 77.7891 18.6016 76.4375 18.6016H74.7266V14.5938H76.4375ZM86.5078 24.1797C89.1562 24.1797 90.75 22.5078 90.75 19.7031V19.6875C90.75 16.9062 89.1328 15.2109 86.5078 15.2109C83.8828 15.2109 82.2656 16.9141 82.2656 19.6875V19.7031C82.2656 22.5 83.8594 24.1797 86.5078 24.1797ZM86.5078 22.3906C85.2891 22.3906 84.6016 21.3984 84.6016 19.7031V19.6875C84.6016 18.0078 85.2969 17 86.5078 17C87.7109 17 88.4141 18.0078 88.4141 19.6875V19.7031C88.4141 21.3984 87.7188 22.3906 86.5078 22.3906ZM92.6094 26.8516H94.8906V22.625H95.0312C95.4688 23.5625 96.4297 24.1328 97.6094 24.1328C99.7891 24.1328 101.102 22.4688 101.102 19.7031V19.6875C101.102 16.9453 99.7578 15.2578 97.6094 15.2578C96.3906 15.2578 95.4766 15.8047 95.0312 16.7266H94.8906V15.3984H92.6094V26.8516ZM96.8281 22.2422C95.6328 22.2422 94.8672 21.2812 94.8672 19.7031V19.6875C94.8672 18.1094 95.625 17.1484 96.8281 17.1484C98.0391 17.1484 98.7812 18.1094 98.7812 19.6875V19.7031C98.7812 21.2812 98.0312 22.2422 96.8281 22.2422ZM105.812 24.1797C107.039 24.1797 107.914 23.6094 108.305 22.6719H108.445V24H110.727V15.3984H108.445V20.3672C108.445 21.5312 107.836 22.2891 106.711 22.2891C105.633 22.2891 105.172 21.6562 105.172 20.4375V15.3984H102.891V20.9609C102.891 23.0078 103.883 24.1797 105.812 24.1797ZM113.094 24H115.375V12.1094H113.094V24ZM120.078 24.1328C121.203 24.1328 122.109 23.6562 122.547 22.8594H122.688V24H124.938V18.125C124.938 16.2891 123.648 15.2109 121.367 15.2109C119.203 15.2109 117.781 16.2109 117.602 17.7188L117.594 17.7891H119.703L119.719 17.7578C119.898 17.25 120.422 16.9609 121.242 16.9609C122.18 16.9609 122.688 17.3828 122.688 18.125V18.8359L120.609 18.9609C118.469 19.0859 117.273 19.9922 117.273 21.5391V21.5547C117.273 23.1172 118.438 24.1328 120.078 24.1328ZM119.5 21.4141V21.3984C119.5 20.7734 119.977 20.4062 120.953 20.3438L122.688 20.2344V20.8672C122.688 21.7734 121.898 22.4688 120.844 22.4688C120.055 22.4688 119.5 22.0703 119.5 21.4141ZM130.742 24.0312C131.18 24.0312 131.602 23.9844 131.883 23.9297V22.2344C131.664 22.2578 131.508 22.2734 131.211 22.2734C130.438 22.2734 130.109 21.9297 130.109 21.1562V17.1172H131.883V15.3984H130.109V13.3438H127.805V15.3984H126.477V17.1172H127.805V21.6797C127.805 23.3516 128.648 24.0312 130.742 24.0312ZM134.945 14.0781C135.648 14.0781 136.227 13.5156 136.227 12.8125C136.227 12.1016 135.648 11.5391 134.945 11.5391C134.242 11.5391 133.656 12.1016 133.656 12.8125C133.656 13.5156 134.242 14.0781 134.945 14.0781ZM133.797 24H136.078V15.3984H133.797V24ZM142.195 24.1797C144.844 24.1797 146.438 22.5078 146.438 19.7031V19.6875C146.438 16.9062 144.82 15.2109 142.195 15.2109C139.57 15.2109 137.953 16.9141 137.953 19.6875V19.7031C137.953 22.5 139.547 24.1797 142.195 24.1797ZM142.195 22.3906C140.977 22.3906 140.289 21.3984 140.289 19.7031V19.6875C140.289 18.0078 140.984 17 142.195 17C143.398 17 144.102 18.0078 144.102 19.6875V19.7031C144.102 21.3984 143.406 22.3906 142.195 22.3906ZM148.297 24H150.578V19.0234C150.578 17.8594 151.219 17.1016 152.273 17.1016C153.352 17.1016 153.852 17.7422 153.852 18.9531V24H156.133V18.4375C156.133 16.3828 155.102 15.2109 153.188 15.2109C151.961 15.2109 151.109 15.7969 150.719 16.7266H150.578V15.3984H148.297V24ZM159.984 18.5391C160.789 18.5391 161.359 17.9531 161.359 17.1797C161.359 16.4062 160.789 15.8281 159.984 15.8281C159.188 15.8281 158.609 16.4062 158.609 17.1797C158.609 17.9531 159.188 18.5391 159.984 18.5391ZM159.984 24.1953C160.789 24.1953 161.359 23.6094 161.359 22.8359C161.359 22.0625 160.789 21.4844 159.984 21.4844C159.188 21.4844 158.609 22.0625 158.609 22.8359C158.609 23.6094 159.188 24.1953 159.984 24.1953Z" fill="#E99D42"/>
<path d="M171.539 24.0625C171.805 24.0625 172.062 24.0312 172.328 23.9844V22.8281C172.078 22.8516 171.945 22.8594 171.703 22.8594C170.828 22.8594 170.484 22.4609 170.484 21.4688V16.7031H172.328V15.5781H170.484V13.3984H169.078V15.5781H167.75V16.7031H169.078V21.8125C169.078 23.4219 169.805 24.0625 171.539 24.0625ZM174.438 24H175.797V19.0156C175.797 17.5391 176.648 16.6328 177.992 16.6328C179.336 16.6328 179.961 17.3594 179.961 18.875V24H181.32V18.5469C181.32 16.5469 180.266 15.4297 178.375 15.4297C177.133 15.4297 176.344 15.9531 175.922 16.8438H175.797V12.2344H174.438V24ZM187.219 24.1484C189.203 24.1484 190.406 23.0234 190.695 21.8828L190.711 21.8203H189.352L189.32 21.8906C189.094 22.3984 188.391 22.9375 187.25 22.9375C185.75 22.9375 184.789 21.9219 184.75 20.1797H190.812V19.6484C190.812 17.1328 189.422 15.4297 187.133 15.4297C184.844 15.4297 183.359 17.2109 183.359 19.8125V19.8203C183.359 22.4609 184.812 24.1484 187.219 24.1484ZM187.125 16.6406C188.367 16.6406 189.289 17.4297 189.43 19.0938H184.773C184.922 17.4922 185.875 16.6406 187.125 16.6406ZM75.1562 43.1484C77.0703 43.1484 78.5312 42.1094 78.5312 40.6094V40.5938C78.5312 39.3906 77.7656 38.7031 76.1797 38.3203L74.8828 38.0078C73.8906 37.7656 73.4688 37.4062 73.4688 36.8359V36.8203C73.4688 36.0781 74.2031 35.5625 75.2031 35.5625C76.2188 35.5625 76.875 36.0234 77.0547 36.6875H78.3906C78.2031 35.3125 76.9766 34.4297 75.2109 34.4297C73.4219 34.4297 72.0781 35.4844 72.0781 36.8828V36.8906C72.0781 38.1016 72.7891 38.7891 74.3672 39.1641L75.6719 39.4766C76.7109 39.7266 77.1406 40.125 77.1406 40.6953V40.7109C77.1406 41.4766 76.3359 42.0156 75.2031 42.0156C74.125 42.0156 73.4531 41.5547 73.2266 40.8516H71.8359C71.9922 42.2422 73.2812 43.1484 75.1562 43.1484ZM84.0781 43.1484C86.0625 43.1484 87.2656 42.0234 87.5547 40.8828L87.5703 40.8203H86.2109L86.1797 40.8906C85.9531 41.3984 85.25 41.9375 84.1094 41.9375C82.6094 41.9375 81.6484 40.9219 81.6094 39.1797H87.6719V38.6484C87.6719 36.1328 86.2812 34.4297 83.9922 34.4297C81.7031 34.4297 80.2188 36.2109 80.2188 38.8125V38.8203C80.2188 41.4609 81.6719 43.1484 84.0781 43.1484ZM83.9844 35.6406C85.2266 35.6406 86.1484 36.4297 86.2891 38.0938H81.6328C81.7812 36.4922 82.7344 35.6406 83.9844 35.6406ZM92.7734 43.0625C93.0391 43.0625 93.2969 43.0312 93.5625 42.9844V41.8281C93.3125 41.8516 93.1797 41.8594 92.9375 41.8594C92.0625 41.8594 91.7188 41.4609 91.7188 40.4688V35.7031H93.5625V34.5781H91.7188V32.3984H90.3125V34.5781H88.9844V35.7031H90.3125V40.8125C90.3125 42.4219 91.0391 43.0625 92.7734 43.0625ZM103.57 43.1484C105.969 43.1484 107.453 41.4922 107.453 38.7969V38.7812C107.453 36.0781 105.969 34.4297 103.57 34.4297C101.172 34.4297 99.6875 36.0781 99.6875 38.7812V38.7969C99.6875 41.4922 101.172 43.1484 103.57 43.1484ZM103.57 41.9453C101.977 41.9453 101.078 40.7812 101.078 38.7969V38.7812C101.078 36.7891 101.977 35.6328 103.57 35.6328C105.164 35.6328 106.062 36.7891 106.062 38.7812V38.7969C106.062 40.7812 105.164 41.9453 103.57 41.9453ZM110.125 43H111.484V35.7031H113.398V34.5781H111.484V33.6797C111.484 32.7578 111.875 32.2812 112.844 32.2812C113.086 32.2812 113.312 32.2891 113.477 32.3203V31.2344C113.195 31.1797 112.898 31.1562 112.57 31.1562C110.969 31.1562 110.125 31.9609 110.125 33.6406V34.5781H108.727V35.7031H110.125V43ZM122.188 43.1484C123.32 43.1484 124.203 42.6562 124.734 41.7578H124.859V43H126.219V37.2344C126.219 35.4844 125.07 34.4297 123.016 34.4297C121.219 34.4297 119.938 35.3203 119.719 36.6406L119.711 36.6875H121.07L121.078 36.6641C121.297 36.0078 121.961 35.6328 122.969 35.6328C124.227 35.6328 124.859 36.1953 124.859 37.2344V38L122.445 38.1484C120.484 38.2656 119.375 39.1328 119.375 40.6328V40.6484C119.375 42.1797 120.586 43.1484 122.188 43.1484ZM120.766 40.6172V40.6016C120.766 39.7656 121.328 39.3125 122.609 39.2344L124.859 39.0938V39.8594C124.859 41.0625 123.852 41.9688 122.469 41.9688C121.492 41.9688 120.766 41.4688 120.766 40.6172ZM128.781 43H130.141V31.2344H128.781V43ZM132.828 43H134.188V31.2344H132.828V43ZM144.133 43.1484C145.367 43.1484 146.219 42.6406 146.633 41.7422H146.758V43H148.117V34.5781H146.758V39.5625C146.758 41.0391 145.969 41.9453 144.484 41.9453C143.141 41.9453 142.594 41.2188 142.594 39.7031V34.5781H141.234V40.0312C141.234 42.0234 142.219 43.1484 144.133 43.1484ZM150.656 43H152.016V38.0156C152.016 36.5391 152.867 35.6328 154.211 35.6328C155.555 35.6328 156.18 36.3594 156.18 37.875V43H157.539V37.5469C157.539 35.5469 156.484 34.4297 154.594 34.4297C153.352 34.4297 152.562 34.9531 152.141 35.8438H152.016V34.5781H150.656V43ZM160.719 32.9531C161.234 32.9531 161.656 32.5312 161.656 32.0156C161.656 31.5 161.234 31.0781 160.719 31.0781C160.203 31.0781 159.781 31.5 159.781 32.0156C159.781 32.5312 160.203 32.9531 160.719 32.9531ZM160.031 43H161.391V34.5781H160.031V43ZM166.945 43.0625C167.211 43.0625 167.469 43.0312 167.734 42.9844V41.8281C167.484 41.8516 167.352 41.8594 167.109 41.8594C166.234 41.8594 165.891 41.4609 165.891 40.4688V35.7031H167.734V34.5781H165.891V32.3984H164.484V34.5781H163.156V35.7031H164.484V40.8125C164.484 42.4219 165.211 43.0625 166.945 43.0625ZM172.5 43.1484C174.414 43.1484 175.875 42.1094 175.875 40.6094V40.5938C175.875 39.3906 175.109 38.7031 173.523 38.3203L172.227 38.0078C171.234 37.7656 170.812 37.4062 170.812 36.8359V36.8203C170.812 36.0781 171.547 35.5625 172.547 35.5625C173.562 35.5625 174.219 36.0234 174.398 36.6875H175.734C175.547 35.3125 174.32 34.4297 172.555 34.4297C170.766 34.4297 169.422 35.4844 169.422 36.8828V36.8906C169.422 38.1016 170.133 38.7891 171.711 39.1641L173.016 39.4766C174.055 39.7266 174.484 40.125 174.484 40.6953V40.7109C174.484 41.4766 173.68 42.0156 172.547 42.0156C171.469 42.0156 170.797 41.5547 170.57 40.8516H169.18C169.336 42.2422 170.625 43.1484 172.5 43.1484ZM185.961 43.1484C188.359 43.1484 189.844 41.4922 189.844 38.7969V38.7812C189.844 36.0781 188.359 34.4297 185.961 34.4297C183.562 34.4297 182.078 36.0781 182.078 38.7812V38.7969C182.078 41.4922 183.562 43.1484 185.961 43.1484ZM185.961 41.9453C184.367 41.9453 183.469 40.7812 183.469 38.7969V38.7812C183.469 36.7891 184.367 35.6328 185.961 35.6328C187.555 35.6328 188.453 36.7891 188.453 38.7812V38.7969C188.453 40.7812 187.555 41.9453 185.961 41.9453ZM192.516 43H193.875V35.7031H195.789V34.5781H193.875V33.6797C193.875 32.7578 194.266 32.2812 195.234 32.2812C195.477 32.2812 195.703 32.2891 195.867 32.3203V31.2344C195.586 31.1797 195.289 31.1562 194.961 31.1562C193.359 31.1562 192.516 31.9609 192.516 33.6406V34.5781H191.117V35.7031H192.516V43ZM72.9844 51.9531C73.5 51.9531 73.9219 51.5312 73.9219 51.0156C73.9219 50.5 73.5 50.0781 72.9844 50.0781C72.4688 50.0781 72.0469 50.5 72.0469 51.0156C72.0469 51.5312 72.4688 51.9531 72.9844 51.9531ZM72.2969 62H73.6562V53.5781H72.2969V62ZM76.2188 62H77.5781V57.0156C77.5781 55.5391 78.4297 54.6328 79.7734 54.6328C81.1172 54.6328 81.7422 55.3594 81.7422 56.875V62H83.1016V56.5469C83.1016 54.5469 82.0469 53.4297 80.1562 53.4297C78.9141 53.4297 78.125 53.9531 77.7031 54.8438H77.5781V53.5781H76.2188V62ZM88.5547 62.0625C88.8203 62.0625 89.0781 62.0312 89.3438 61.9844V60.8281C89.0938 60.8516 88.9609 60.8594 88.7188 60.8594C87.8438 60.8594 87.5 60.4609 87.5 59.4688V54.7031H89.3438V53.5781H87.5V51.3984H86.0938V53.5781H84.7656V54.7031H86.0938V59.8125C86.0938 61.4219 86.8203 62.0625 88.5547 62.0625ZM94.6875 62.1484C96.6719 62.1484 97.875 61.0234 98.1641 59.8828L98.1797 59.8203H96.8203L96.7891 59.8906C96.5625 60.3984 95.8594 60.9375 94.7188 60.9375C93.2188 60.9375 92.2578 59.9219 92.2188 58.1797H98.2812V57.6484C98.2812 55.1328 96.8906 53.4297 94.6016 53.4297C92.3125 53.4297 90.8281 55.2109 90.8281 57.8125V57.8203C90.8281 60.4609 92.2812 62.1484 94.6875 62.1484ZM94.5938 54.6406C95.8359 54.6406 96.7578 55.4297 96.8984 57.0938H92.2422C92.3906 55.4922 93.3438 54.6406 94.5938 54.6406ZM100.391 62H101.75V56.7812C101.75 55.5469 102.672 54.7266 103.969 54.7266C104.266 54.7266 104.523 54.7578 104.805 54.8047V53.4844C104.672 53.4609 104.383 53.4297 104.125 53.4297C102.984 53.4297 102.195 53.9453 101.875 54.8281H101.75V53.5781H100.391V62ZM109.688 62.1484C111.672 62.1484 112.875 61.0234 113.164 59.8828L113.18 59.8203H111.82L111.789 59.8906C111.562 60.3984 110.859 60.9375 109.719 60.9375C108.219 60.9375 107.258 59.9219 107.219 58.1797H113.281V57.6484C113.281 55.1328 111.891 53.4297 109.602 53.4297C107.312 53.4297 105.828 55.2109 105.828 57.8125V57.8203C105.828 60.4609 107.281 62.1484 109.688 62.1484ZM109.594 54.6406C110.836 54.6406 111.758 55.4297 111.898 57.0938H107.242C107.391 55.4922 108.344 54.6406 109.594 54.6406ZM118.281 62.1484C120.195 62.1484 121.656 61.1094 121.656 59.6094V59.5938C121.656 58.3906 120.891 57.7031 119.305 57.3203L118.008 57.0078C117.016 56.7656 116.594 56.4062 116.594 55.8359V55.8203C116.594 55.0781 117.328 54.5625 118.328 54.5625C119.344 54.5625 120 55.0234 120.18 55.6875H121.516C121.328 54.3125 120.102 53.4297 118.336 53.4297C116.547 53.4297 115.203 54.4844 115.203 55.8828V55.8906C115.203 57.1016 115.914 57.7891 117.492 58.1641L118.797 58.4766C119.836 58.7266 120.266 59.125 120.266 59.6953V59.7109C120.266 60.4766 119.461 61.0156 118.328 61.0156C117.25 61.0156 116.578 60.5547 116.352 59.8516H114.961C115.117 61.2422 116.406 62.1484 118.281 62.1484ZM126.68 62.0625C126.945 62.0625 127.203 62.0312 127.469 61.9844V60.8281C127.219 60.8516 127.086 60.8594 126.844 60.8594C125.969 60.8594 125.625 60.4609 125.625 59.4688V54.7031H127.469V53.5781H125.625V51.3984H124.219V53.5781H122.891V54.7031H124.219V59.8125C124.219 61.4219 124.945 62.0625 126.68 62.0625ZM129.156 64.8672H130.164L131.391 60.4219H129.836L129.156 64.8672ZM141.656 62.1484C143.57 62.1484 145.031 61.1094 145.031 59.6094V59.5938C145.031 58.3906 144.266 57.7031 142.68 57.3203L141.383 57.0078C140.391 56.7656 139.969 56.4062 139.969 55.8359V55.8203C139.969 55.0781 140.703 54.5625 141.703 54.5625C142.719 54.5625 143.375 55.0234 143.555 55.6875H144.891C144.703 54.3125 143.477 53.4297 141.711 53.4297C139.922 53.4297 138.578 54.4844 138.578 55.8828V55.8906C138.578 57.1016 139.289 57.7891 140.867 58.1641L142.172 58.4766C143.211 58.7266 143.641 59.125 143.641 59.6953V59.7109C143.641 60.4766 142.836 61.0156 141.703 61.0156C140.625 61.0156 139.953 60.5547 139.727 59.8516H138.336C138.492 61.2422 139.781 62.1484 141.656 62.1484ZM147.859 51.9531C148.375 51.9531 148.797 51.5312 148.797 51.0156C148.797 50.5 148.375 50.0781 147.859 50.0781C147.344 50.0781 146.922 50.5 146.922 51.0156C146.922 51.5312 147.344 51.9531 147.859 51.9531ZM147.172 62H148.531V53.5781H147.172V62ZM150.898 62H157.383V60.875H152.523V60.75L157.359 54.5859V53.5781H150.906V54.7031H155.758V54.8281L150.898 61.0156V62ZM162.922 62.1484C164.906 62.1484 166.109 61.0234 166.398 59.8828L166.414 59.8203H165.055L165.023 59.8906C164.797 60.3984 164.094 60.9375 162.953 60.9375C161.453 60.9375 160.492 59.9219 160.453 58.1797H166.516V57.6484C166.516 55.1328 165.125 53.4297 162.836 53.4297C160.547 53.4297 159.062 55.2109 159.062 57.8125V57.8203C159.062 60.4609 160.516 62.1484 162.922 62.1484ZM162.828 54.6406C164.07 54.6406 164.992 55.4297 165.133 57.0938H160.477C160.625 55.4922 161.578 54.6406 162.828 54.6406ZM173.312 62H174.703V53.2578H174.828L180.945 62H182.312V50.7266H180.922V59.5H180.797L174.68 50.7266H173.312V62Z" fill="black"/>
<path d="M301.398 15.2891C304.211 15.2891 305.945 13.875 305.945 11.6406V11.6328C305.945 9.875 304.906 8.92188 302.523 8.42969L301.328 8.1875C300 7.91406 299.453 7.47656 299.453 6.74219V6.73438C299.453 5.89062 300.227 5.35938 301.391 5.35156C302.578 5.35156 303.359 5.91406 303.492 6.71875L303.508 6.8125H305.727L305.719 6.71094C305.57 4.82812 304.023 3.4375 301.391 3.4375C298.891 3.4375 297.094 4.82031 297.094 6.91406V6.92188C297.094 8.63281 298.102 9.72656 300.445 10.2031L301.633 10.4453C303.031 10.7344 303.586 11.1484 303.586 11.8906V11.8984C303.586 12.7656 302.719 13.3672 301.461 13.3672C300.141 13.3672 299.227 12.7969 299.141 11.9531L299.133 11.875H296.859L296.867 12C297 14 298.703 15.2891 301.398 15.2891ZM310.172 15.1328C311.297 15.1328 312.203 14.6562 312.641 13.8594H312.781V15H315.031V9.125C315.031 7.28906 313.742 6.21094 311.461 6.21094C309.297 6.21094 307.875 7.21094 307.695 8.71875L307.688 8.78906H309.797L309.812 8.75781C309.992 8.25 310.516 7.96094 311.336 7.96094C312.273 7.96094 312.781 8.38281 312.781 9.125V9.83594L310.703 9.96094C308.562 10.0859 307.367 10.9922 307.367 12.5391V12.5547C307.367 14.1172 308.531 15.1328 310.172 15.1328ZM309.594 12.4141V12.3984C309.594 11.7734 310.07 11.4062 311.047 11.3438L312.781 11.2344V11.8672C312.781 12.7734 311.992 13.4688 310.938 13.4688C310.148 13.4688 309.594 13.0703 309.594 12.4141ZM317.266 15H319.547V9.8125C319.547 8.82812 320.172 8.10156 321.062 8.10156C321.953 8.10156 322.477 8.64062 322.477 9.5625V15H324.758V9.71094C324.758 8.78125 325.352 8.10156 326.273 8.10156C327.227 8.10156 327.695 8.625 327.695 9.66406V15H329.977V9.09375C329.977 7.32031 328.906 6.21094 327.195 6.21094C325.992 6.21094 324.992 6.84375 324.602 7.79688H324.461C324.109 6.80469 323.242 6.21094 322.07 6.21094C320.945 6.21094 320.055 6.77344 319.688 7.74219H319.547V6.39844H317.266V15ZM332.188 17.8516H334.469V13.625H334.609C335.047 14.5625 336.008 15.1328 337.188 15.1328C339.367 15.1328 340.68 13.4688 340.68 10.7031V10.6875C340.68 7.94531 339.336 6.25781 337.188 6.25781C335.969 6.25781 335.055 6.80469 334.609 7.72656H334.469V6.39844H332.188V17.8516ZM336.406 13.2422C335.211 13.2422 334.445 12.2812 334.445 10.7031V10.6875C334.445 9.10938 335.203 8.14844 336.406 8.14844C337.617 8.14844 338.359 9.10938 338.359 10.6875V10.7031C338.359 12.2812 337.609 13.2422 336.406 13.2422ZM342.625 15H344.906V3.10938H342.625V15ZM348.43 5.07812C349.133 5.07812 349.711 4.51562 349.711 3.8125C349.711 3.10156 349.133 2.53906 348.43 2.53906C347.727 2.53906 347.141 3.10156 347.141 3.8125C347.141 4.51562 347.727 5.07812 348.43 5.07812ZM347.281 15H349.562V6.39844H347.281V15ZM351.859 15H354.141V10.0234C354.141 8.85938 354.781 8.10156 355.836 8.10156C356.914 8.10156 357.414 8.74219 357.414 9.95312V15H359.695V9.4375C359.695 7.38281 358.664 6.21094 356.75 6.21094C355.523 6.21094 354.672 6.79688 354.281 7.72656H354.141V6.39844H351.859V15ZM365.703 18.0234C368.305 18.0234 369.953 16.75 369.953 14.7344V6.39844H367.672V7.80469H367.562C367.102 6.83594 366.18 6.25781 365 6.25781C362.797 6.25781 361.461 7.96094 361.461 10.4922V10.5078C361.461 12.9531 362.797 14.625 364.961 14.625C366.156 14.625 367.062 14.1328 367.539 13.2266H367.68V14.8281C367.68 15.8281 366.969 16.3984 365.75 16.3984C364.734 16.3984 364.141 16.0547 364.016 15.5547L364.008 15.5234H361.75V15.5625C361.938 17.0234 363.32 18.0234 365.703 18.0234ZM365.734 12.875C364.5 12.875 363.797 11.9141 363.797 10.5V10.4844C363.797 9.07031 364.508 8.10938 365.734 8.10938C366.961 8.10938 367.703 9.07031 367.703 10.4844V10.5C367.703 11.9141 366.969 12.875 365.734 12.875ZM377.023 15H379.305V8.11719H381.078V6.39844H379.258V5.75C379.258 5 379.586 4.58594 380.469 4.58594C380.766 4.58594 381.008 4.60938 381.148 4.63281V3.10938C380.82 3.0625 380.438 3.02344 379.977 3.02344C377.898 3.02344 377.023 3.88281 377.023 5.59375V6.39844H375.633V8.11719H377.023V15ZM382.891 15H385.172V10.1875C385.172 8.96875 385.992 8.22656 387.289 8.22656C387.641 8.22656 387.992 8.28125 388.336 8.35938V6.36719C388.109 6.30469 387.789 6.25781 387.484 6.25781C386.367 6.25781 385.586 6.80469 385.312 7.73438H385.172V6.39844H382.891V15ZM392.047 15.1328C393.172 15.1328 394.078 14.6562 394.516 13.8594H394.656V15H396.906V9.125C396.906 7.28906 395.617 6.21094 393.336 6.21094C391.172 6.21094 389.75 7.21094 389.57 8.71875L389.562 8.78906H391.672L391.688 8.75781C391.867 8.25 392.391 7.96094 393.211 7.96094C394.148 7.96094 394.656 8.38281 394.656 9.125V9.83594L392.578 9.96094C390.438 10.0859 389.242 10.9922 389.242 12.5391V12.5547C389.242 14.1172 390.406 15.1328 392.047 15.1328ZM391.469 12.4141V12.3984C391.469 11.7734 391.945 11.4062 392.922 11.3438L394.656 11.2344V11.8672C394.656 12.7734 393.867 13.4688 392.812 13.4688C392.023 13.4688 391.469 13.0703 391.469 12.4141ZM399.141 15H401.422V9.8125C401.422 8.82812 402.047 8.10156 402.938 8.10156C403.828 8.10156 404.352 8.64062 404.352 9.5625V15H406.633V9.71094C406.633 8.78125 407.227 8.10156 408.148 8.10156C409.102 8.10156 409.57 8.625 409.57 9.66406V15H411.852V9.09375C411.852 7.32031 410.781 6.21094 409.07 6.21094C407.867 6.21094 406.867 6.84375 406.477 7.79688H406.336C405.984 6.80469 405.117 6.21094 403.945 6.21094C402.82 6.21094 401.93 6.77344 401.562 7.74219H401.422V6.39844H399.141V15ZM417.844 15.1797C420.359 15.1797 421.469 13.7266 421.734 12.6484L421.75 12.5703H419.625L419.602 12.6172C419.445 12.9453 418.891 13.4766 417.891 13.4766C416.68 13.4766 415.922 12.6562 415.898 11.2422H421.82V10.5312C421.82 7.92969 420.258 6.21094 417.75 6.21094C415.242 6.21094 413.641 7.96875 413.641 10.7031V10.7109C413.641 13.4688 415.227 15.1797 417.844 15.1797ZM417.789 7.92188C418.781 7.92188 419.492 8.5625 419.633 9.8125H415.922C416.062 8.59375 416.797 7.92188 417.789 7.92188ZM425.328 9.53906C426.133 9.53906 426.703 8.95312 426.703 8.17969C426.703 7.40625 426.133 6.82812 425.328 6.82812C424.531 6.82812 423.953 7.40625 423.953 8.17969C423.953 8.95312 424.531 9.53906 425.328 9.53906ZM425.328 15.1953C426.133 15.1953 426.703 14.6094 426.703 13.8359C426.703 13.0625 426.133 12.4844 425.328 12.4844C424.531 12.4844 423.953 13.0625 423.953 13.8359C423.953 14.6094 424.531 15.1953 425.328 15.1953Z" fill="#2C7CF6"/>
<path d="M436.883 15.0625C437.148 15.0625 437.406 15.0312 437.672 14.9844V13.8281C437.422 13.8516 437.289 13.8594 437.047 13.8594C436.172 13.8594 435.828 13.4609 435.828 12.4688V7.70312H437.672V6.57812H435.828V4.39844H434.422V6.57812H433.094V7.70312H434.422V12.8125C434.422 14.4219 435.148 15.0625 436.883 15.0625ZM439.781 15H441.141V10.0156C441.141 8.53906 441.992 7.63281 443.336 7.63281C444.68 7.63281 445.305 8.35938 445.305 9.875V15H446.664V9.54688C446.664 7.54688 445.609 6.42969 443.719 6.42969C442.477 6.42969 441.688 6.95312 441.266 7.84375H441.141V3.23438H439.781V15ZM452.562 15.1484C454.547 15.1484 455.75 14.0234 456.039 12.8828L456.055 12.8203H454.695L454.664 12.8906C454.438 13.3984 453.734 13.9375 452.594 13.9375C451.094 13.9375 450.133 12.9219 450.094 11.1797H456.156V10.6484C456.156 8.13281 454.766 6.42969 452.477 6.42969C450.188 6.42969 448.703 8.21094 448.703 10.8125V10.8203C448.703 13.4609 450.156 15.1484 452.562 15.1484ZM452.469 7.64062C453.711 7.64062 454.633 8.42969 454.773 10.0938H450.117C450.266 8.49219 451.219 7.64062 452.469 7.64062ZM300.156 34.1484C302.07 34.1484 303.531 33.1094 303.531 31.6094V31.5938C303.531 30.3906 302.766 29.7031 301.18 29.3203L299.883 29.0078C298.891 28.7656 298.469 28.4062 298.469 27.8359V27.8203C298.469 27.0781 299.203 26.5625 300.203 26.5625C301.219 26.5625 301.875 27.0234 302.055 27.6875H303.391C303.203 26.3125 301.977 25.4297 300.211 25.4297C298.422 25.4297 297.078 26.4844 297.078 27.8828V27.8906C297.078 29.1016 297.789 29.7891 299.367 30.1641L300.672 30.4766C301.711 30.7266 302.141 31.125 302.141 31.6953V31.7109C302.141 32.4766 301.336 33.0156 300.203 33.0156C299.125 33.0156 298.453 32.5547 298.227 31.8516H296.836C296.992 33.2422 298.281 34.1484 300.156 34.1484ZM309.078 34.1484C311.062 34.1484 312.266 33.0234 312.555 31.8828L312.57 31.8203H311.211L311.18 31.8906C310.953 32.3984 310.25 32.9375 309.109 32.9375C307.609 32.9375 306.648 31.9219 306.609 30.1797H312.672V29.6484C312.672 27.1328 311.281 25.4297 308.992 25.4297C306.703 25.4297 305.219 27.2109 305.219 29.8125V29.8203C305.219 32.4609 306.672 34.1484 309.078 34.1484ZM308.984 26.6406C310.227 26.6406 311.148 27.4297 311.289 29.0938H306.633C306.781 27.4922 307.734 26.6406 308.984 26.6406ZM317.773 34.0625C318.039 34.0625 318.297 34.0312 318.562 33.9844V32.8281C318.312 32.8516 318.18 32.8594 317.938 32.8594C317.062 32.8594 316.719 32.4609 316.719 31.4688V26.7031H318.562V25.5781H316.719V23.3984H315.312V25.5781H313.984V26.7031H315.312V31.8125C315.312 33.4219 316.039 34.0625 317.773 34.0625ZM328.57 34.1484C330.969 34.1484 332.453 32.4922 332.453 29.7969V29.7812C332.453 27.0781 330.969 25.4297 328.57 25.4297C326.172 25.4297 324.688 27.0781 324.688 29.7812V29.7969C324.688 32.4922 326.172 34.1484 328.57 34.1484ZM328.57 32.9453C326.977 32.9453 326.078 31.7812 326.078 29.7969V29.7812C326.078 27.7891 326.977 26.6328 328.57 26.6328C330.164 26.6328 331.062 27.7891 331.062 29.7812V29.7969C331.062 31.7812 330.164 32.9453 328.57 32.9453ZM335.125 34H336.484V26.7031H338.398V25.5781H336.484V24.6797C336.484 23.7578 336.875 23.2812 337.844 23.2812C338.086 23.2812 338.312 23.2891 338.477 23.3203V22.2344C338.195 22.1797 337.898 22.1562 337.57 22.1562C335.969 22.1562 335.125 22.9609 335.125 24.6406V25.5781H333.727V26.7031H335.125V34ZM347.188 34.1484C348.32 34.1484 349.203 33.6562 349.734 32.7578H349.859V34H351.219V28.2344C351.219 26.4844 350.07 25.4297 348.016 25.4297C346.219 25.4297 344.938 26.3203 344.719 27.6406L344.711 27.6875H346.07L346.078 27.6641C346.297 27.0078 346.961 26.6328 347.969 26.6328C349.227 26.6328 349.859 27.1953 349.859 28.2344V29L347.445 29.1484C345.484 29.2656 344.375 30.1328 344.375 31.6328V31.6484C344.375 33.1797 345.586 34.1484 347.188 34.1484ZM345.766 31.6172V31.6016C345.766 30.7656 346.328 30.3125 347.609 30.2344L349.859 30.0938V30.8594C349.859 32.0625 348.852 32.9688 347.469 32.9688C346.492 32.9688 345.766 32.4688 345.766 31.6172ZM353.781 34H355.141V22.2344H353.781V34ZM357.828 34H359.188V22.2344H357.828V34ZM366.312 36.8125H367.672V32.6719H367.797C368.258 33.5703 369.266 34.1484 370.422 34.1484C372.562 34.1484 373.953 32.4375 373.953 29.7969V29.7812C373.953 27.1562 372.555 25.4297 370.422 25.4297C369.25 25.4297 368.312 25.9844 367.797 26.9219H367.672V25.5781H366.312V36.8125ZM370.109 32.9453C368.578 32.9453 367.641 31.7422 367.641 29.7969V29.7812C367.641 27.8359 368.578 26.6328 370.109 26.6328C371.648 26.6328 372.562 27.8203 372.562 29.7812V29.7969C372.562 31.7578 371.648 32.9453 370.109 32.9453ZM379.539 34.1484C381.938 34.1484 383.422 32.4922 383.422 29.7969V29.7812C383.422 27.0781 381.938 25.4297 379.539 25.4297C377.141 25.4297 375.656 27.0781 375.656 29.7812V29.7969C375.656 32.4922 377.141 34.1484 379.539 34.1484ZM379.539 32.9453C377.945 32.9453 377.047 31.7812 377.047 29.7969V29.7812C377.047 27.7891 377.945 26.6328 379.539 26.6328C381.133 26.6328 382.031 27.7891 382.031 29.7812V29.7969C382.031 31.7812 381.133 32.9453 379.539 32.9453ZM388.422 34.1484C390.336 34.1484 391.797 33.1094 391.797 31.6094V31.5938C391.797 30.3906 391.031 29.7031 389.445 29.3203L388.148 29.0078C387.156 28.7656 386.734 28.4062 386.734 27.8359V27.8203C386.734 27.0781 387.469 26.5625 388.469 26.5625C389.484 26.5625 390.141 27.0234 390.32 27.6875H391.656C391.469 26.3125 390.242 25.4297 388.477 25.4297C386.688 25.4297 385.344 26.4844 385.344 27.8828V27.8906C385.344 29.1016 386.055 29.7891 387.633 30.1641L388.938 30.4766C389.977 30.7266 390.406 31.125 390.406 31.6953V31.7109C390.406 32.4766 389.602 33.0156 388.469 33.0156C387.391 33.0156 386.719 32.5547 386.492 31.8516H385.102C385.258 33.2422 386.547 34.1484 388.422 34.1484ZM396.641 34.1484C398.555 34.1484 400.016 33.1094 400.016 31.6094V31.5938C400.016 30.3906 399.25 29.7031 397.664 29.3203L396.367 29.0078C395.375 28.7656 394.953 28.4062 394.953 27.8359V27.8203C394.953 27.0781 395.688 26.5625 396.688 26.5625C397.703 26.5625 398.359 27.0234 398.539 27.6875H399.875C399.688 26.3125 398.461 25.4297 396.695 25.4297C394.906 25.4297 393.562 26.4844 393.562 27.8828V27.8906C393.562 29.1016 394.273 29.7891 395.852 30.1641L397.156 30.4766C398.195 30.7266 398.625 31.125 398.625 31.6953V31.7109C398.625 32.4766 397.82 33.0156 396.688 33.0156C395.609 33.0156 394.938 32.5547 394.711 31.8516H393.32C393.477 33.2422 394.766 34.1484 396.641 34.1484ZM402.844 23.9531C403.359 23.9531 403.781 23.5312 403.781 23.0156C403.781 22.5 403.359 22.0781 402.844 22.0781C402.328 22.0781 401.906 22.5 401.906 23.0156C401.906 23.5312 402.328 23.9531 402.844 23.9531ZM402.156 34H403.516V25.5781H402.156V34ZM410.266 34.1484C412.398 34.1484 413.797 32.4219 413.797 29.7969V29.7812C413.797 27.1406 412.406 25.4297 410.266 25.4297C409.109 25.4297 408.102 26.0078 407.641 26.9062H407.516V22.2344H406.156V34H407.516V32.6562H407.641C408.156 33.5938 409.094 34.1484 410.266 34.1484ZM409.953 32.9453C408.422 32.9453 407.484 31.7422 407.484 29.7969V29.7812C407.484 27.8359 408.422 26.6328 409.953 26.6328C411.492 26.6328 412.406 27.8203 412.406 29.7812V29.7969C412.406 31.7578 411.492 32.9453 409.953 32.9453ZM415.984 34H417.344V22.2344H415.984V34ZM423.391 34.1484C425.375 34.1484 426.578 33.0234 426.867 31.8828L426.883 31.8203H425.523L425.492 31.8906C425.266 32.3984 424.562 32.9375 423.422 32.9375C421.922 32.9375 420.961 31.9219 420.922 30.1797H426.984V29.6484C426.984 27.1328 425.594 25.4297 423.305 25.4297C421.016 25.4297 419.531 27.2109 419.531 29.8125V29.8203C419.531 32.4609 420.984 34.1484 423.391 34.1484ZM423.297 26.6406C424.539 26.6406 425.461 27.4297 425.602 29.0938H420.945C421.094 27.4922 422.047 26.6406 423.297 26.6406ZM300.086 53.1484C301.32 53.1484 302.172 52.6406 302.586 51.7422H302.711V53H304.07V44.5781H302.711V49.5625C302.711 51.0391 301.922 51.9453 300.438 51.9453C299.094 51.9453 298.547 51.2188 298.547 49.7031V44.5781H297.188V50.0312C297.188 52.0234 298.172 53.1484 300.086 53.1484ZM306.609 53H307.969V48.0156C307.969 46.5391 308.82 45.6328 310.164 45.6328C311.508 45.6328 312.133 46.3594 312.133 47.875V53H313.492V47.5469C313.492 45.5469 312.438 44.4297 310.547 44.4297C309.305 44.4297 308.516 44.9531 308.094 45.8438H307.969V44.5781H306.609V53ZM316.672 42.9531C317.188 42.9531 317.609 42.5312 317.609 42.0156C317.609 41.5 317.188 41.0781 316.672 41.0781C316.156 41.0781 315.734 41.5 315.734 42.0156C315.734 42.5312 316.156 42.9531 316.672 42.9531ZM315.984 53H317.344V44.5781H315.984V53ZM322.898 53.0625C323.164 53.0625 323.422 53.0312 323.688 52.9844V51.8281C323.438 51.8516 323.305 51.8594 323.062 51.8594C322.188 51.8594 321.844 51.4609 321.844 50.4688V45.7031H323.688V44.5781H321.844V42.3984H320.438V44.5781H319.109V45.7031H320.438V50.8125C320.438 52.4219 321.164 53.0625 322.898 53.0625ZM328.453 53.1484C330.367 53.1484 331.828 52.1094 331.828 50.6094V50.5938C331.828 49.3906 331.062 48.7031 329.477 48.3203L328.18 48.0078C327.188 47.7656 326.766 47.4062 326.766 46.8359V46.8203C326.766 46.0781 327.5 45.5625 328.5 45.5625C329.516 45.5625 330.172 46.0234 330.352 46.6875H331.688C331.5 45.3125 330.273 44.4297 328.508 44.4297C326.719 44.4297 325.375 45.4844 325.375 46.8828V46.8906C325.375 48.1016 326.086 48.7891 327.664 49.1641L328.969 49.4766C330.008 49.7266 330.438 50.125 330.438 50.6953V50.7109C330.438 51.4766 329.633 52.0156 328.5 52.0156C327.422 52.0156 326.75 51.5547 326.523 50.8516H325.133C325.289 52.2422 326.578 53.1484 328.453 53.1484ZM341.445 53.0625C341.711 53.0625 341.969 53.0312 342.234 52.9844V51.8281C341.984 51.8516 341.852 51.8594 341.609 51.8594C340.734 51.8594 340.391 51.4609 340.391 50.4688V45.7031H342.234V44.5781H340.391V42.3984H338.984V44.5781H337.656V45.7031H338.984V50.8125C338.984 52.4219 339.711 53.0625 341.445 53.0625ZM344.344 53H345.703V48.0156C345.703 46.5391 346.555 45.6328 347.898 45.6328C349.242 45.6328 349.867 46.3594 349.867 47.875V53H351.227V47.5469C351.227 45.5469 350.172 44.4297 348.281 44.4297C347.039 44.4297 346.25 44.9531 345.828 45.8438H345.703V41.2344H344.344V53ZM356 53.1484C357.133 53.1484 358.016 52.6562 358.547 51.7578H358.672V53H360.031V47.2344C360.031 45.4844 358.883 44.4297 356.828 44.4297C355.031 44.4297 353.75 45.3203 353.531 46.6406L353.523 46.6875H354.883L354.891 46.6641C355.109 46.0078 355.773 45.6328 356.781 45.6328C358.039 45.6328 358.672 46.1953 358.672 47.2344V48L356.258 48.1484C354.297 48.2656 353.188 49.1328 353.188 50.6328V50.6484C353.188 52.1797 354.398 53.1484 356 53.1484ZM354.578 50.6172V50.6016C354.578 49.7656 355.141 49.3125 356.422 49.2344L358.672 49.0938V49.8594C358.672 51.0625 357.664 51.9688 356.281 51.9688C355.305 51.9688 354.578 51.4688 354.578 50.6172ZM365.508 53.0625C365.773 53.0625 366.031 53.0312 366.297 52.9844V51.8281C366.047 51.8516 365.914 51.8594 365.672 51.8594C364.797 51.8594 364.453 51.4609 364.453 50.4688V45.7031H366.297V44.5781H364.453V42.3984H363.047V44.5781H361.719V45.7031H363.047V50.8125C363.047 52.4219 363.773 53.0625 365.508 53.0625ZM376.289 53.1484C378.312 53.1484 379.445 52.0625 379.789 50.5391L379.805 50.4531L378.461 50.4609L378.445 50.5078C378.133 51.4453 377.414 51.9453 376.281 51.9453C374.781 51.9453 373.812 50.7031 373.812 48.7656V48.75C373.812 46.8516 374.766 45.6328 376.281 45.6328C377.492 45.6328 378.242 46.3047 378.453 47.1328L378.461 47.1562H379.812L379.805 47.1094C379.555 45.6094 378.328 44.4297 376.281 44.4297C373.922 44.4297 372.422 46.1328 372.422 48.75V48.7656C372.422 51.4375 373.93 53.1484 376.289 53.1484ZM384.109 53.1484C385.242 53.1484 386.125 52.6562 386.656 51.7578H386.781V53H388.141V47.2344C388.141 45.4844 386.992 44.4297 384.938 44.4297C383.141 44.4297 381.859 45.3203 381.641 46.6406L381.633 46.6875H382.992L383 46.6641C383.219 46.0078 383.883 45.6328 384.891 45.6328C386.148 45.6328 386.781 46.1953 386.781 47.2344V48L384.367 48.1484C382.406 48.2656 381.297 49.1328 381.297 50.6328V50.6484C381.297 52.1797 382.508 53.1484 384.109 53.1484ZM382.688 50.6172V50.6016C382.688 49.7656 383.25 49.3125 384.531 49.2344L386.781 49.0938V49.8594C386.781 51.0625 385.773 51.9688 384.391 51.9688C383.414 51.9688 382.688 51.4688 382.688 50.6172ZM390.625 53H391.984V48.0156C391.984 46.5391 392.836 45.6328 394.18 45.6328C395.523 45.6328 396.148 46.3594 396.148 47.875V53H397.508V47.5469C397.508 45.5469 396.453 44.4297 394.562 44.4297C393.32 44.4297 392.531 44.9531 392.109 45.8438H391.984V44.5781H390.625V53ZM408.672 53.1484C410.805 53.1484 412.203 51.4219 412.203 48.7969V48.7812C412.203 46.1406 410.812 44.4297 408.672 44.4297C407.516 44.4297 406.508 45.0078 406.047 45.9062H405.922V41.2344H404.562V53H405.922V51.6562H406.047C406.562 52.5938 407.5 53.1484 408.672 53.1484ZM408.359 51.9453C406.828 51.9453 405.891 50.7422 405.891 48.7969V48.7812C405.891 46.8359 406.828 45.6328 408.359 45.6328C409.898 45.6328 410.812 46.8203 410.812 48.7812V48.7969C410.812 50.7578 409.898 51.9453 408.359 51.9453ZM417.75 53.1484C419.734 53.1484 420.938 52.0234 421.227 50.8828L421.242 50.8203H419.883L419.852 50.8906C419.625 51.3984 418.922 51.9375 417.781 51.9375C416.281 51.9375 415.32 50.9219 415.281 49.1797H421.344V48.6484C421.344 46.1328 419.953 44.4297 417.664 44.4297C415.375 44.4297 413.891 46.2109 413.891 48.8125V48.8203C413.891 51.4609 415.344 53.1484 417.75 53.1484ZM417.656 45.6406C418.898 45.6406 419.82 46.4297 419.961 48.0938H415.305C415.453 46.4922 416.406 45.6406 417.656 45.6406ZM300.375 72.1484C301.547 72.1484 302.484 71.5938 303 70.6562H303.125V72H304.484V60.2344H303.125V64.9062H303C302.539 64.0078 301.531 63.4297 300.375 63.4297C298.234 63.4297 296.844 65.1406 296.844 67.7812V67.7969C296.844 70.4219 298.242 72.1484 300.375 72.1484ZM300.688 70.9453C299.148 70.9453 298.234 69.7578 298.234 67.7969V67.7812C298.234 65.8203 299.148 64.6328 300.688 64.6328C302.219 64.6328 303.156 65.8359 303.156 67.7812V67.7969C303.156 69.7422 302.219 70.9453 300.688 70.9453ZM307.094 72H308.453V66.7812C308.453 65.5469 309.375 64.7266 310.672 64.7266C310.969 64.7266 311.227 64.7578 311.508 64.8047V63.4844C311.375 63.4609 311.086 63.4297 310.828 63.4297C309.688 63.4297 308.898 63.9453 308.578 64.8281H308.453V63.5781H307.094V72ZM315.5 72.1484C316.633 72.1484 317.516 71.6562 318.047 70.7578H318.172V72H319.531V66.2344C319.531 64.4844 318.383 63.4297 316.328 63.4297C314.531 63.4297 313.25 64.3203 313.031 65.6406L313.023 65.6875H314.383L314.391 65.6641C314.609 65.0078 315.273 64.6328 316.281 64.6328C317.539 64.6328 318.172 65.1953 318.172 66.2344V67L315.758 67.1484C313.797 67.2656 312.688 68.1328 312.688 69.6328V69.6484C312.688 71.1797 313.898 72.1484 315.5 72.1484ZM314.078 69.6172V69.6016C314.078 68.7656 314.641 68.3125 315.922 68.2344L318.172 68.0938V68.8594C318.172 70.0625 317.164 70.9688 315.781 70.9688C314.805 70.9688 314.078 70.4688 314.078 69.6172ZM323.25 72H324.609L326.484 65.4844H326.609L328.492 72H329.859L332.219 63.5781H330.867L329.211 70.3125H329.086L327.203 63.5781H325.914L324.031 70.3125H323.906L322.25 63.5781H320.891L323.25 72ZM334.016 72H335.375V67.0156C335.375 65.5391 336.227 64.6328 337.57 64.6328C338.914 64.6328 339.539 65.3594 339.539 66.875V72H340.898V66.5469C340.898 64.5469 339.844 63.4297 337.953 63.4297C336.711 63.4297 335.922 63.9531 335.5 64.8438H335.375V63.5781H334.016V72ZM348.594 61.9531C349.109 61.9531 349.531 61.5312 349.531 61.0156C349.531 60.5 349.109 60.0781 348.594 60.0781C348.078 60.0781 347.656 60.5 347.656 61.0156C347.656 61.5312 348.078 61.9531 348.594 61.9531ZM347.906 72H349.266V63.5781H347.906V72ZM351.828 72H353.188V67.0156C353.188 65.5391 354.039 64.6328 355.383 64.6328C356.727 64.6328 357.352 65.3594 357.352 66.875V72H358.711V66.5469C358.711 64.5469 357.656 63.4297 355.766 63.4297C354.523 63.4297 353.734 63.9531 353.312 64.8438H353.188V63.5781H351.828V72ZM364.164 72.0625C364.43 72.0625 364.688 72.0312 364.953 71.9844V70.8281C364.703 70.8516 364.57 70.8594 364.328 70.8594C363.453 70.8594 363.109 70.4609 363.109 69.4688V64.7031H364.953V63.5781H363.109V61.3984H361.703V63.5781H360.375V64.7031H361.703V69.8125C361.703 71.4219 362.43 72.0625 364.164 72.0625ZM370.32 72.1484C372.719 72.1484 374.203 70.4922 374.203 67.7969V67.7812C374.203 65.0781 372.719 63.4297 370.32 63.4297C367.922 63.4297 366.438 65.0781 366.438 67.7812V67.7969C366.438 70.4922 367.922 72.1484 370.32 72.1484ZM370.32 70.9453C368.727 70.9453 367.828 69.7812 367.828 67.7969V67.7812C367.828 65.7891 368.727 64.6328 370.32 64.6328C371.914 64.6328 372.812 65.7891 372.812 67.7812V67.7969C372.812 69.7812 371.914 70.9453 370.32 70.9453ZM383.719 72.1484C385.633 72.1484 387.094 71.1094 387.094 69.6094V69.5938C387.094 68.3906 386.328 67.7031 384.742 67.3203L383.445 67.0078C382.453 66.7656 382.031 66.4062 382.031 65.8359V65.8203C382.031 65.0781 382.766 64.5625 383.766 64.5625C384.781 64.5625 385.438 65.0234 385.617 65.6875H386.953C386.766 64.3125 385.539 63.4297 383.773 63.4297C381.984 63.4297 380.641 64.4844 380.641 65.8828V65.8906C380.641 67.1016 381.352 67.7891 382.93 68.1641L384.234 68.4766C385.273 68.7266 385.703 69.125 385.703 69.6953V69.7109C385.703 70.4766 384.898 71.0156 383.766 71.0156C382.688 71.0156 382.016 70.5547 381.789 69.8516H380.398C380.555 71.2422 381.844 72.1484 383.719 72.1484ZM391.516 72.1484C392.648 72.1484 393.531 71.6562 394.062 70.7578H394.188V72H395.547V66.2344C395.547 64.4844 394.398 63.4297 392.344 63.4297C390.547 63.4297 389.266 64.3203 389.047 65.6406L389.039 65.6875H390.398L390.406 65.6641C390.625 65.0078 391.289 64.6328 392.297 64.6328C393.555 64.6328 394.188 65.1953 394.188 66.2344V67L391.773 67.1484C389.812 67.2656 388.703 68.1328 388.703 69.6328V69.6484C388.703 71.1797 389.914 72.1484 391.516 72.1484ZM390.094 69.6172V69.6016C390.094 68.7656 390.656 68.3125 391.938 68.2344L394.188 68.0938V68.8594C394.188 70.0625 393.18 70.9688 391.797 70.9688C390.82 70.9688 390.094 70.4688 390.094 69.6172ZM398.031 72H399.391V66.7812C399.391 65.5938 400.227 64.6328 401.328 64.6328C402.391 64.6328 403.078 65.2812 403.078 66.2812V72H404.438V66.5859C404.438 65.5156 405.211 64.6328 406.383 64.6328C407.57 64.6328 408.141 65.25 408.141 66.4922V72H409.5V66.1797C409.5 64.4141 408.539 63.4297 406.82 63.4297C405.656 63.4297 404.695 64.0156 404.242 64.9062H404.117C403.727 64.0312 402.93 63.4297 401.789 63.4297C400.688 63.4297 399.891 63.9531 399.516 64.8594H399.391V63.5781H398.031V72ZM411.953 74.8125H413.312V70.6719H413.438C413.898 71.5703 414.906 72.1484 416.062 72.1484C418.203 72.1484 419.594 70.4375 419.594 67.7969V67.7812C419.594 65.1562 418.195 63.4297 416.062 63.4297C414.891 63.4297 413.953 63.9844 413.438 64.9219H413.312V63.5781H411.953V74.8125ZM415.75 70.9453C414.219 70.9453 413.281 69.7422 413.281 67.7969V67.7812C413.281 65.8359 414.219 64.6328 415.75 64.6328C417.289 64.6328 418.203 65.8203 418.203 67.7812V67.7969C418.203 69.7578 417.289 70.9453 415.75 70.9453ZM421.797 72H423.156V60.2344H421.797V72ZM429.203 72.1484C431.188 72.1484 432.391 71.0234 432.68 69.8828L432.695 69.8203H431.336L431.305 69.8906C431.078 70.3984 430.375 70.9375 429.234 70.9375C427.734 70.9375 426.773 69.9219 426.734 68.1797H432.797V67.6484C432.797 65.1328 431.406 63.4297 429.117 63.4297C426.828 63.4297 425.344 65.2109 425.344 67.8125V67.8203C425.344 70.4609 426.797 72.1484 429.203 72.1484ZM429.109 64.6406C430.352 64.6406 431.273 65.4297 431.414 67.0938H426.758C426.906 65.4922 427.859 64.6406 429.109 64.6406Z" fill="black"/>
<path d="M555.398 24.2891C558.211 24.2891 559.945 22.875 559.945 20.6406V20.6328C559.945 18.875 558.906 17.9219 556.523 17.4297L555.328 17.1875C554 16.9141 553.453 16.4766 553.453 15.7422V15.7344C553.453 14.8906 554.227 14.3594 555.391 14.3516C556.578 14.3516 557.359 14.9141 557.492 15.7188L557.508 15.8125H559.727L559.719 15.7109C559.57 13.8281 558.023 12.4375 555.391 12.4375C552.891 12.4375 551.094 13.8203 551.094 15.9141V15.9219C551.094 17.6328 552.102 18.7266 554.445 19.2031L555.633 19.4453C557.031 19.7344 557.586 20.1484 557.586 20.8906V20.8984C557.586 21.7656 556.719 22.3672 555.461 22.3672C554.141 22.3672 553.227 21.7969 553.141 20.9531L553.133 20.875H550.859L550.867 21C551 23 552.703 24.2891 555.398 24.2891ZM564.172 24.1328C565.297 24.1328 566.203 23.6562 566.641 22.8594H566.781V24H569.031V18.125C569.031 16.2891 567.742 15.2109 565.461 15.2109C563.297 15.2109 561.875 16.2109 561.695 17.7188L561.688 17.7891H563.797L563.812 17.7578C563.992 17.25 564.516 16.9609 565.336 16.9609C566.273 16.9609 566.781 17.3828 566.781 18.125V18.8359L564.703 18.9609C562.562 19.0859 561.367 19.9922 561.367 21.5391V21.5547C561.367 23.1172 562.531 24.1328 564.172 24.1328ZM563.594 21.4141V21.3984C563.594 20.7734 564.07 20.4062 565.047 20.3438L566.781 20.2344V20.8672C566.781 21.7734 565.992 22.4688 564.938 22.4688C564.148 22.4688 563.594 22.0703 563.594 21.4141ZM571.266 24H573.547V18.8125C573.547 17.8281 574.172 17.1016 575.062 17.1016C575.953 17.1016 576.477 17.6406 576.477 18.5625V24H578.758V18.7109C578.758 17.7812 579.352 17.1016 580.273 17.1016C581.227 17.1016 581.695 17.625 581.695 18.6641V24H583.977V18.0938C583.977 16.3203 582.906 15.2109 581.195 15.2109C579.992 15.2109 578.992 15.8438 578.602 16.7969H578.461C578.109 15.8047 577.242 15.2109 576.07 15.2109C574.945 15.2109 574.055 15.7734 573.688 16.7422H573.547V15.3984H571.266V24ZM586.188 26.8516H588.469V22.625H588.609C589.047 23.5625 590.008 24.1328 591.188 24.1328C593.367 24.1328 594.68 22.4688 594.68 19.7031V19.6875C594.68 16.9453 593.336 15.2578 591.188 15.2578C589.969 15.2578 589.055 15.8047 588.609 16.7266H588.469V15.3984H586.188V26.8516ZM590.406 22.2422C589.211 22.2422 588.445 21.2812 588.445 19.7031V19.6875C588.445 18.1094 589.203 17.1484 590.406 17.1484C591.617 17.1484 592.359 18.1094 592.359 19.6875V19.7031C592.359 21.2812 591.609 22.2422 590.406 22.2422ZM596.625 24H598.906V12.1094H596.625V24ZM605.047 24.1797C607.562 24.1797 608.672 22.7266 608.938 21.6484L608.953 21.5703H606.828L606.805 21.6172C606.648 21.9453 606.094 22.4766 605.094 22.4766C603.883 22.4766 603.125 21.6562 603.102 20.2422H609.023V19.5312C609.023 16.9297 607.461 15.2109 604.953 15.2109C602.445 15.2109 600.844 16.9688 600.844 19.7031V19.7109C600.844 22.4688 602.43 24.1797 605.047 24.1797ZM604.992 16.9219C605.984 16.9219 606.695 17.5625 606.836 18.8125H603.125C603.266 17.5938 604 16.9219 604.992 16.9219ZM612.531 18.5391C613.336 18.5391 613.906 17.9531 613.906 17.1797C613.906 16.4062 613.336 15.8281 612.531 15.8281C611.734 15.8281 611.156 16.4062 611.156 17.1797C611.156 17.9531 611.734 18.5391 612.531 18.5391ZM612.531 24.1953C613.336 24.1953 613.906 23.6094 613.906 22.8359C613.906 22.0625 613.336 21.4844 612.531 21.4844C611.734 21.4844 611.156 22.0625 611.156 22.8359C611.156 23.6094 611.734 24.1953 612.531 24.1953Z" fill="#8FC34F"/>
<path d="M623.406 24.1484C624.539 24.1484 625.422 23.6562 625.953 22.7578H626.078V24H627.438V18.2344C627.438 16.4844 626.289 15.4297 624.234 15.4297C622.438 15.4297 621.156 16.3203 620.938 17.6406L620.93 17.6875H622.289L622.297 17.6641C622.516 17.0078 623.18 16.6328 624.188 16.6328C625.445 16.6328 626.078 17.1953 626.078 18.2344V19L623.664 19.1484C621.703 19.2656 620.594 20.1328 620.594 21.6328V21.6484C620.594 23.1797 621.805 24.1484 623.406 24.1484ZM621.984 21.6172V21.6016C621.984 20.7656 622.547 20.3125 623.828 20.2344L626.078 20.0938V20.8594C626.078 22.0625 625.07 22.9688 623.688 22.9688C622.711 22.9688 621.984 22.4688 621.984 21.6172ZM554.156 43.1484C556.07 43.1484 557.531 42.1094 557.531 40.6094V40.5938C557.531 39.3906 556.766 38.7031 555.18 38.3203L553.883 38.0078C552.891 37.7656 552.469 37.4062 552.469 36.8359V36.8203C552.469 36.0781 553.203 35.5625 554.203 35.5625C555.219 35.5625 555.875 36.0234 556.055 36.6875H557.391C557.203 35.3125 555.977 34.4297 554.211 34.4297C552.422 34.4297 551.078 35.4844 551.078 36.8828V36.8906C551.078 38.1016 551.789 38.7891 553.367 39.1641L554.672 39.4766C555.711 39.7266 556.141 40.125 556.141 40.6953V40.7109C556.141 41.4766 555.336 42.0156 554.203 42.0156C553.125 42.0156 552.453 41.5547 552.227 40.8516H550.836C550.992 42.2422 552.281 43.1484 554.156 43.1484ZM562.461 43.1484C563.695 43.1484 564.547 42.6406 564.961 41.7422H565.086V43H566.445V34.5781H565.086V39.5625C565.086 41.0391 564.297 41.9453 562.812 41.9453C561.469 41.9453 560.922 41.2188 560.922 39.7031V34.5781H559.562V40.0312C559.562 42.0234 560.547 43.1484 562.461 43.1484ZM573.172 43.1484C575.305 43.1484 576.703 41.4219 576.703 38.7969V38.7812C576.703 36.1406 575.312 34.4297 573.172 34.4297C572.016 34.4297 571.008 35.0078 570.547 35.9062H570.422V31.2344H569.062V43H570.422V41.6562H570.547C571.062 42.5938 572 43.1484 573.172 43.1484ZM572.859 41.9453C571.328 41.9453 570.391 40.7422 570.391 38.7969V38.7812C570.391 36.8359 571.328 35.6328 572.859 35.6328C574.398 35.6328 575.312 36.8203 575.312 38.7812V38.7969C575.312 40.7578 574.398 41.9453 572.859 41.9453ZM581.703 43.1484C583.617 43.1484 585.078 42.1094 585.078 40.6094V40.5938C585.078 39.3906 584.312 38.7031 582.727 38.3203L581.43 38.0078C580.438 37.7656 580.016 37.4062 580.016 36.8359V36.8203C580.016 36.0781 580.75 35.5625 581.75 35.5625C582.766 35.5625 583.422 36.0234 583.602 36.6875H584.938C584.75 35.3125 583.523 34.4297 581.758 34.4297C579.969 34.4297 578.625 35.4844 578.625 36.8828V36.8906C578.625 38.1016 579.336 38.7891 580.914 39.1641L582.219 39.4766C583.258 39.7266 583.688 40.125 583.688 40.6953V40.7109C583.688 41.4766 582.883 42.0156 581.75 42.0156C580.672 42.0156 580 41.5547 579.773 40.8516H578.383C578.539 42.2422 579.828 43.1484 581.703 43.1484ZM590.625 43.1484C592.609 43.1484 593.812 42.0234 594.102 40.8828L594.117 40.8203H592.758L592.727 40.8906C592.5 41.3984 591.797 41.9375 590.656 41.9375C589.156 41.9375 588.195 40.9219 588.156 39.1797H594.219V38.6484C594.219 36.1328 592.828 34.4297 590.539 34.4297C588.25 34.4297 586.766 36.2109 586.766 38.8125V38.8203C586.766 41.4609 588.219 43.1484 590.625 43.1484ZM590.531 35.6406C591.773 35.6406 592.695 36.4297 592.836 38.0938H588.18C588.328 36.4922 589.281 35.6406 590.531 35.6406ZM599.32 43.0625C599.586 43.0625 599.844 43.0312 600.109 42.9844V41.8281C599.859 41.8516 599.727 41.8594 599.484 41.8594C598.609 41.8594 598.266 41.4609 598.266 40.4688V35.7031H600.109V34.5781H598.266V32.3984H596.859V34.5781H595.531V35.7031H596.859V40.8125C596.859 42.4219 597.586 43.0625 599.32 43.0625ZM610.117 43.1484C612.516 43.1484 614 41.4922 614 38.7969V38.7812C614 36.0781 612.516 34.4297 610.117 34.4297C607.719 34.4297 606.234 36.0781 606.234 38.7812V38.7969C606.234 41.4922 607.719 43.1484 610.117 43.1484ZM610.117 41.9453C608.523 41.9453 607.625 40.7812 607.625 38.7969V38.7812C607.625 36.7891 608.523 35.6328 610.117 35.6328C611.711 35.6328 612.609 36.7891 612.609 38.7812V38.7969C612.609 40.7812 611.711 41.9453 610.117 41.9453ZM616.672 43H618.031V35.7031H619.945V34.5781H618.031V33.6797C618.031 32.7578 618.422 32.2812 619.391 32.2812C619.633 32.2812 619.859 32.2891 620.023 32.3203V31.2344C619.742 31.1797 619.445 31.1562 619.117 31.1562C617.516 31.1562 616.672 31.9609 616.672 33.6406V34.5781H615.273V35.7031H616.672V43ZM629.414 43.0625C629.68 43.0625 629.938 43.0312 630.203 42.9844V41.8281C629.953 41.8516 629.82 41.8594 629.578 41.8594C628.703 41.8594 628.359 41.4609 628.359 40.4688V35.7031H630.203V34.5781H628.359V32.3984H626.953V34.5781H625.625V35.7031H626.953V40.8125C626.953 42.4219 627.68 43.0625 629.414 43.0625ZM632.312 43H633.672V38.0156C633.672 36.5391 634.523 35.6328 635.867 35.6328C637.211 35.6328 637.836 36.3594 637.836 37.875V43H639.195V37.5469C639.195 35.5469 638.141 34.4297 636.25 34.4297C635.008 34.4297 634.219 34.9531 633.797 35.8438H633.672V31.2344H632.312V43ZM645.094 43.1484C647.078 43.1484 648.281 42.0234 648.57 40.8828L648.586 40.8203H647.227L647.195 40.8906C646.969 41.3984 646.266 41.9375 645.125 41.9375C643.625 41.9375 642.664 40.9219 642.625 39.1797H648.688V38.6484C648.688 36.1328 647.297 34.4297 645.008 34.4297C642.719 34.4297 641.234 36.2109 641.234 38.8125V38.8203C641.234 41.4609 642.688 43.1484 645.094 43.1484ZM645 35.6406C646.242 35.6406 647.164 36.4297 647.305 38.0938H642.648C642.797 36.4922 643.75 35.6406 645 35.6406ZM554.156 62.1484C556.07 62.1484 557.531 61.1094 557.531 59.6094V59.5938C557.531 58.3906 556.766 57.7031 555.18 57.3203L553.883 57.0078C552.891 56.7656 552.469 56.4062 552.469 55.8359V55.8203C552.469 55.0781 553.203 54.5625 554.203 54.5625C555.219 54.5625 555.875 55.0234 556.055 55.6875H557.391C557.203 54.3125 555.977 53.4297 554.211 53.4297C552.422 53.4297 551.078 54.4844 551.078 55.8828V55.8906C551.078 57.1016 551.789 57.7891 553.367 58.1641L554.672 58.4766C555.711 58.7266 556.141 59.125 556.141 59.6953V59.7109C556.141 60.4766 555.336 61.0156 554.203 61.0156C553.125 61.0156 552.453 60.5547 552.227 59.8516H550.836C550.992 61.2422 552.281 62.1484 554.156 62.1484ZM561.953 62.1484C563.086 62.1484 563.969 61.6562 564.5 60.7578H564.625V62H565.984V56.2344C565.984 54.4844 564.836 53.4297 562.781 53.4297C560.984 53.4297 559.703 54.3203 559.484 55.6406L559.477 55.6875H560.836L560.844 55.6641C561.062 55.0078 561.727 54.6328 562.734 54.6328C563.992 54.6328 564.625 55.1953 564.625 56.2344V57L562.211 57.1484C560.25 57.2656 559.141 58.1328 559.141 59.6328V59.6484C559.141 61.1797 560.352 62.1484 561.953 62.1484ZM560.531 59.6172V59.6016C560.531 58.7656 561.094 58.3125 562.375 58.2344L564.625 58.0938V58.8594C564.625 60.0625 563.617 60.9688 562.234 60.9688C561.258 60.9688 560.531 60.4688 560.531 59.6172ZM568.469 62H569.828V56.7812C569.828 55.5938 570.664 54.6328 571.766 54.6328C572.828 54.6328 573.516 55.2812 573.516 56.2812V62H574.875V56.5859C574.875 55.5156 575.648 54.6328 576.82 54.6328C578.008 54.6328 578.578 55.25 578.578 56.4922V62H579.938V56.1797C579.938 54.4141 578.977 53.4297 577.258 53.4297C576.094 53.4297 575.133 54.0156 574.68 54.9062H574.555C574.164 54.0312 573.367 53.4297 572.227 53.4297C571.125 53.4297 570.328 53.9531 569.953 54.8594H569.828V53.5781H568.469V62ZM582.391 64.8125H583.75V60.6719H583.875C584.336 61.5703 585.344 62.1484 586.5 62.1484C588.641 62.1484 590.031 60.4375 590.031 57.7969V57.7812C590.031 55.1562 588.633 53.4297 586.5 53.4297C585.328 53.4297 584.391 53.9844 583.875 54.9219H583.75V53.5781H582.391V64.8125ZM586.188 60.9453C584.656 60.9453 583.719 59.7422 583.719 57.7969V57.7812C583.719 55.8359 584.656 54.6328 586.188 54.6328C587.727 54.6328 588.641 55.8203 588.641 57.7812V57.7969C588.641 59.7578 587.727 60.9453 586.188 60.9453ZM592.234 62H593.594V50.2344H592.234V62ZM596.922 51.9531C597.438 51.9531 597.859 51.5312 597.859 51.0156C597.859 50.5 597.438 50.0781 596.922 50.0781C596.406 50.0781 595.984 50.5 595.984 51.0156C595.984 51.5312 596.406 51.9531 596.922 51.9531ZM596.234 62H597.594V53.5781H596.234V62ZM600.156 62H601.516V57.0156C601.516 55.5391 602.367 54.6328 603.711 54.6328C605.055 54.6328 605.68 55.3594 605.68 56.875V62H607.039V56.5469C607.039 54.5469 605.984 53.4297 604.094 53.4297C602.852 53.4297 602.062 53.9531 601.641 54.8438H601.516V53.5781H600.156V62ZM612.969 64.9688C615.266 64.9688 616.719 63.7656 616.719 61.8828V53.5781H615.359V54.9688H615.266C614.75 54.0156 613.828 53.4297 612.641 53.4297C610.438 53.4297 609.078 55.1406 609.078 57.5V57.5156C609.078 59.875 610.43 61.5625 612.609 61.5625C613.766 61.5625 614.719 61.0391 615.25 60.1094H615.375V61.8125C615.375 63.0547 614.477 63.7656 612.969 63.7656C611.758 63.7656 611.008 63.3125 610.859 62.6719L610.852 62.6641H609.445L609.43 62.6719C609.641 64.0547 610.938 64.9688 612.969 64.9688ZM612.906 60.3594C611.344 60.3594 610.469 59.1875 610.469 57.5156V57.5C610.469 55.8281 611.344 54.6328 612.906 54.6328C614.461 54.6328 615.406 55.8281 615.406 57.5V57.5156C615.406 59.1875 614.469 60.3594 612.906 60.3594ZM624.328 62H625.688V54.7031H627.602V53.5781H625.688V52.6797C625.688 51.7578 626.078 51.2812 627.047 51.2812C627.289 51.2812 627.516 51.2891 627.68 51.3203V50.2344C627.398 50.1797 627.102 50.1562 626.773 50.1562C625.172 50.1562 624.328 50.9609 624.328 52.6406V53.5781H622.93V54.7031H624.328V62ZM629.562 62H630.922V56.7812C630.922 55.5469 631.844 54.7266 633.141 54.7266C633.438 54.7266 633.695 54.7578 633.977 54.8047V53.4844C633.844 53.4609 633.555 53.4297 633.297 53.4297C632.156 53.4297 631.367 53.9453 631.047 54.8281H630.922V53.5781H629.562V62ZM637.969 62.1484C639.102 62.1484 639.984 61.6562 640.516 60.7578H640.641V62H642V56.2344C642 54.4844 640.852 53.4297 638.797 53.4297C637 53.4297 635.719 54.3203 635.5 55.6406L635.492 55.6875H636.852L636.859 55.6641C637.078 55.0078 637.742 54.6328 638.75 54.6328C640.008 54.6328 640.641 55.1953 640.641 56.2344V57L638.227 57.1484C636.266 57.2656 635.156 58.1328 635.156 59.6328V59.6484C635.156 61.1797 636.367 62.1484 637.969 62.1484ZM636.547 59.6172V59.6016C636.547 58.7656 637.109 58.3125 638.391 58.2344L640.641 58.0938V58.8594C640.641 60.0625 639.633 60.9688 638.25 60.9688C637.273 60.9688 636.547 60.4688 636.547 59.6172ZM644.484 62H645.844V56.7812C645.844 55.5938 646.68 54.6328 647.781 54.6328C648.844 54.6328 649.531 55.2812 649.531 56.2812V62H650.891V56.5859C650.891 55.5156 651.664 54.6328 652.836 54.6328C654.023 54.6328 654.594 55.25 654.594 56.4922V62H655.953V56.1797C655.953 54.4141 654.992 53.4297 653.273 53.4297C652.109 53.4297 651.148 54.0156 650.695 54.9062H650.57C650.18 54.0312 649.383 53.4297 648.242 53.4297C647.141 53.4297 646.344 53.9531 645.969 54.8594H645.844V53.5781H644.484V62ZM661.844 62.1484C663.828 62.1484 665.031 61.0234 665.32 59.8828L665.336 59.8203H663.977L663.945 59.8906C663.719 60.3984 663.016 60.9375 661.875 60.9375C660.375 60.9375 659.414 59.9219 659.375 58.1797H665.438V57.6484C665.438 55.1328 664.047 53.4297 661.758 53.4297C659.469 53.4297 657.984 55.2109 657.984 57.8125V57.8203C657.984 60.4609 659.438 62.1484 661.844 62.1484ZM661.75 54.6406C662.992 54.6406 663.914 55.4297 664.055 57.0938H659.398C659.547 55.4922 660.5 54.6406 661.75 54.6406Z" fill="black"/>
</g>
<defs>
<clipPath id="clip0">
<rect width="668" height="95" fill="white"/>
</clipPath>
</defs>
</svg>
