<svg class="main-svg" xmlns="http://www.w3.org/2000/svg" xmlns:xlink="http://www.w3.org/1999/xlink" width="600" height="250" style="" viewBox="0 0 600 250"><rect x="0" y="0" width="600" height="250" style="fill: rgb(255, 255, 255); fill-opacity: 1;"/><defs id="defs-41ee36"><g class="clips"><clipPath id="clip41ee36xyplot" class="plotclip"><rect width="441" height="170"/></clipPath><clipPath class="axesclip" id="clip41ee36x"><rect x="66" y="0" width="441" height="250"/></clipPath><clipPath class="axesclip" id="clip41ee36y"><rect x="0" y="30" width="600" height="170"/></clipPath><clipPath class="axesclip" id="clip41ee36xy"><rect x="66" y="30" width="441" height="170"/></clipPath></g><g class="gradients"/><g class="patterns"/></defs><g class="bglayer"><rect class="bg" x="66" y="30" width="441" height="170" style="fill: rgb(234, 234, 242); fill-opacity: 1; stroke-width: 0;"/></g><g class="layer-below"><g class="imagelayer"/><g class="shapelayer"/></g><g class="cartesianlayer"><g class="subplot xy"><g class="layer-subplot"><g class="shapelayer"/><g class="imagelayer"/></g><g class="gridlayer"><g class="x"><path class="xgrid crisp" transform="translate(119.15,0)" d="M0,30v170" style="stroke: rgb(255, 255, 255); stroke-opacity: 1; stroke-width: 1px;"/><path class="xgrid crisp" transform="translate(198.24,0)" d="M0,30v170" style="stroke: rgb(255, 255, 255); stroke-opacity: 1; stroke-width: 1px;"/><path class="xgrid crisp" transform="translate(277.1,0)" d="M0,30v170" style="stroke: rgb(255, 255, 255); stroke-opacity: 1; stroke-width: 1px;"/><path class="xgrid crisp" transform="translate(355.97,0)" d="M0,30v170" style="stroke: rgb(255, 255, 255); stroke-opacity: 1; stroke-width: 1px;"/><path class="xgrid crisp" transform="translate(434.83,0)" d="M0,30v170" style="stroke: rgb(255, 255, 255); stroke-opacity: 1; stroke-width: 1px;"/></g><g class="y"><path class="ygrid crisp" transform="translate(0,147.01)" d="M66,0h441" style="stroke: rgb(255, 255, 255); stroke-opacity: 1; stroke-width: 1px;"/><path class="ygrid crisp" transform="translate(0,79.19)" d="M66,0h441" style="stroke: rgb(255, 255, 255); stroke-opacity: 1; stroke-width: 1px;"/></g></g><g class="zerolinelayer"/><path class="xlines-below"/><path class="ylines-below"/><g class="overlines-below"/><g class="xaxislayer-below"/><g class="yaxislayer-below"/><g class="overaxes-below"/><g class="plot" transform="translate(66,30)" clip-path="url(#clip41ee36xyplot)"><g class="scatterlayer mlayer"><g class="trace scatter trace17bafe" style="stroke-miterlimit: 2; opacity: 1;"><g class="fills"/><g class="errorbars"/><g class="lines"><path class="js-line" d="M0,150.24L13.18,148.89L19.88,149.22L26.58,147.66L33.06,147.66L39.76,147.73L46.24,146.85L59.64,146.17L65.9,147.39L79.08,146.04L85.78,144.14L98.96,142.78L105.66,142.44L132.02,140.07L138.72,140.07L144.77,140.75L151.47,139.39L177.83,133.97L184.52,133.29L191.01,130.98L197.7,131.25L204.19,131.25L210.88,132.61L223.63,132.61L230.33,132.68L236.81,133.29L243.51,131.73L256.69,132.07L263.39,131.25L276.57,131.93L283.05,132.07L296.45,130.71L302.5,133.97L309.2,133.97L315.68,132.61L328.86,132.61L335.56,131.25L342.26,132.61L348.74,134.91L355.44,137.56L361.92,137.36L375.31,141.56L381.58,144.14L388.28,148.21L394.76,150.92L414.64,155.13L421.34,157.84L427.82,160.41L434.52,161.5L441,161.43" style="vector-effect: non-scaling-stroke; fill: none; stroke: rgb(0, 0, 4); stroke-opacity: 1; stroke-width: 2px; opacity: 1;"/></g><g class="points"/><g class="text"/></g><g class="trace scatter trace10438c" style="stroke-miterlimit: 2; opacity: 1;"><g class="fills"/><g class="errorbars"/><g class="lines"><path class="js-line" d="M0,138.71L13.18,136L19.88,136L26.58,134.64L33.06,134.64L46.24,133.97L52.94,133.29L72.6,132.61L79.08,131.25L92.26,127.73L98.96,127.18L112.14,126.51L118.84,126.51L125.32,125.15L132.02,125.15L138.72,124.47L144.77,125.42L157.95,120.88L164.65,119.05L171.13,117.01L177.83,116.2L191.01,113.21L197.7,114.57L204.19,113.62L210.88,114.03L223.63,115.38L230.33,114.98L236.81,114.98L243.51,112.67L256.69,112.94L263.39,112.53L276.57,114.3L283.05,114.98L296.45,113.62L302.5,115.65L309.2,117.01L315.68,112.94L322.38,111.86L328.86,111.59L342.26,110.91L348.74,113.35L355.44,117.01L361.92,118.37L368.62,119.72L375.31,124.47L401.46,136L407.94,137.49L414.64,139.39L421.34,143.46L434.52,148.21L441,148.48" style="vector-effect: non-scaling-stroke; fill: none; stroke: rgb(27, 12, 65); stroke-opacity: 1; stroke-width: 2px; opacity: 1;"/></g><g class="points"/><g class="text"/></g><g class="trace scatter trace68ae54" style="stroke-miterlimit: 2; opacity: 1;"><g class="fills"/><g class="errorbars"/><g class="lines"><path class="js-line" d="M0,127.73L13.18,124.47L19.88,123.79L26.58,122.57L33.06,123.05L59.64,121.22L65.9,122.16L72.6,121.08L79.08,119.05L92.26,114.3L98.96,113.62L105.66,112.94L112.14,113.62L118.84,114.3L125.32,111.59L132.02,111.59L138.72,110.5L144.77,111.31L151.47,107.65L157.95,106.3L164.65,103.45L171.13,101.55L177.83,100.39L191.01,98.02L197.7,100.06L204.19,98.63L210.88,98.7L223.63,100.73L230.33,99.38L249.99,96.66L256.69,97.07L263.39,96.66L269.87,98.02L276.57,99.38L283.05,99.24L309.2,100.19L315.68,95.99L322.38,93.55L328.86,92.87L342.26,92.93L348.74,95.31L355.44,99.17L361.92,97.41L368.62,100.06L375.31,105.68L381.58,110.23L388.28,111.59L394.76,116.6L401.46,118.37L414.64,123.11L421.34,127.18L434.52,134.64L441,135.32" style="vector-effect: non-scaling-stroke; fill: none; stroke: rgb(74, 12, 107); stroke-opacity: 1; stroke-width: 2px; opacity: 1;"/></g><g class="points"/><g class="text"/></g><g class="trace scatter tracec1bb58" style="stroke-miterlimit: 2; opacity: 1;"><g class="fills"/><g class="errorbars"/><g class="lines"><path class="js-line" d="M0,112.26L6.7,110.5L13.18,110.23L26.58,106.84L33.06,107.11L46.24,108.33L52.94,106.84L59.64,106.16L65.9,106.84L72.6,105.62L79.08,103.45L92.26,97.61L98.96,96.66L112.14,97.34L118.84,98.97L125.32,95.99L132.02,95.31L138.72,94.97L144.77,95.78L151.47,90.29L157.95,87.44L164.65,84.46L171.13,84.46L184.52,81.54L191.01,81.47L197.7,83.71L204.19,83.1L210.88,82.15L217.58,83.51L223.63,83.78L230.33,82.49L236.81,82.08L243.51,79.71L249.99,78.49L256.69,79.03L263.39,79.03L269.87,81.41L276.57,82.42L283.05,82.42L302.5,84.46L309.2,83.1L315.68,77.07L322.38,72.93L328.86,72.45L335.56,69.54L342.26,69.54L348.74,72.93L355.44,77L361.92,74.96L368.62,76.32L375.31,83.1L381.58,87.17L388.28,86.49L394.76,93.27L401.46,94.63L407.94,94.63L414.64,96.66L421.34,102.77L427.82,106.43L434.52,113.96L441,114.98" style="vector-effect: non-scaling-stroke; fill: none; stroke: rgb(120, 28, 109); stroke-opacity: 1; stroke-width: 2px; opacity: 1;"/></g><g class="points"/><g class="text"/></g><g class="trace scatter trace501693" style="stroke-miterlimit: 2; opacity: 1;"><g class="fills"/><g class="errorbars"/><g class="lines"><path class="js-line" d="M0,78.08L6.7,76.32L13.18,76.32L19.88,75.1L26.58,69.54L33.06,74.28L39.76,74.96L46.24,77L52.94,73.88L65.9,73.61L72.6,72.25L79.08,68.86L85.78,64.11L92.26,58.69L98.96,60.18L105.66,60.31L112.14,62.76L118.84,65.4L125.32,60.18L132.02,60.31L138.72,58.69L144.77,60.04L151.47,47.9L157.95,42.95L164.65,39.02L171.13,40.38L177.83,38.68L184.52,32.24L191.01,35.63L197.7,44.44L204.19,35.76L210.88,37.87L217.58,42.82L223.63,44.44L230.33,42.55L243.51,28.85L249.99,27.49L256.69,24.91L263.39,28.85L269.87,37.66L276.57,42.21L283.05,35.63L289.75,42.34L296.45,49.19L302.5,41.05L309.2,36.31L315.68,21.39L322.38,15.42L328.86,11.89L335.56,8.5L342.26,11.89L355.44,22.06L361.92,15.28L368.62,17.32L375.31,27.49L381.58,31.56L388.28,23.69L394.76,35.63L401.46,33.59L407.94,27.76L414.64,40.38L421.34,52.58L427.82,55.97L434.52,66.15L441,70.69" style="vector-effect: non-scaling-stroke; fill: none; stroke: rgb(165, 44, 96); stroke-opacity: 1; stroke-width: 2px; opacity: 1;"/></g><g class="points"/><g class="text"/></g></g></g><g class="overplot"/><path class="xlines-above crisp" d="M0,0" style="fill: none;"/><path class="ylines-above crisp" d="M0,0" style="fill: none;"/><g class="overlines-above"/><g class="xaxislayer-above"><g class="xtick"><text text-anchor="middle" x="0" y="213" transform="translate(119.15,0)" style="font-family: 'Open Sans', verdana, arial, sans-serif; font-size: 12px; fill: rgb(36, 36, 36); fill-opacity: 1; white-space: pre; opacity: 1;">2004</text></g><g class="xtick"><text text-anchor="middle" x="0" y="213" style="font-family: 'Open Sans', verdana, arial, sans-serif; font-size: 12px; fill: rgb(36, 36, 36); fill-opacity: 1; white-space: pre; opacity: 1;" transform="translate(198.24,0)">2005</text></g><g class="xtick"><text text-anchor="middle" x="0" y="213" style="font-family: 'Open Sans', verdana, arial, sans-serif; font-size: 12px; fill: rgb(36, 36, 36); fill-opacity: 1; white-space: pre; opacity: 1;" transform="translate(277.1,0)">2006</text></g><g class="xtick"><text text-anchor="middle" x="0" y="213" style="font-family: 'Open Sans', verdana, arial, sans-serif; font-size: 12px; fill: rgb(36, 36, 36); fill-opacity: 1; white-space: pre; opacity: 1;" transform="translate(355.97,0)">2007</text></g><g class="xtick"><text text-anchor="middle" x="0" y="213" style="font-family: 'Open Sans', verdana, arial, sans-serif; font-size: 12px; fill: rgb(36, 36, 36); fill-opacity: 1; white-space: pre; opacity: 1;" transform="translate(434.83,0)">2008</text></g></g><g class="yaxislayer-above"><g class="ytick"><text text-anchor="end" x="65" y="4.199999999999999" transform="translate(0,147.01)" style="font-family: 'Open Sans', verdana, arial, sans-serif; font-size: 12px; fill: rgb(36, 36, 36); fill-opacity: 1; white-space: pre; opacity: 1;">0.5M</text></g><g class="ytick"><text text-anchor="end" x="65" y="4.199999999999999" style="font-family: 'Open Sans', verdana, arial, sans-serif; font-size: 12px; fill: rgb(36, 36, 36); fill-opacity: 1; white-space: pre; opacity: 1;" transform="translate(0,79.19)">1M</text></g></g><g class="overaxes-above"/></g></g><g class="polarlayer"/><g class="smithlayer"/><g class="ternarylayer"/><g class="geolayer"/><g class="funnelarealayer"/><g class="pielayer"/><g class="iciclelayer"/><g class="treemaplayer"/><g class="sunburstlayer"/><g class="glimages"/><defs id="topdefs-41ee36"><g class="clips"/><clipPath id="legend41ee36"><rect width="74" height="124" x="0" y="0"/></clipPath></defs><g class="layer-above"><g class="imagelayer"/><g class="shapelayer"/></g><g class="infolayer"><g class="legend" pointer-events="all" transform="translate(515.8199999999999,30)"><rect class="bg" shape-rendering="crispEdges" width="74" height="124" x="0" y="0" style="stroke: rgb(68, 68, 68); stroke-opacity: 1; fill: rgb(255, 255, 255); fill-opacity: 1; stroke-width: 0px;"/><g class="scrollbox" transform="" clip-path="url(#legend41ee36)"><text class="legendtitletext" text-anchor="start" x="2" y="18.2" style="font-family: 'Open Sans', verdana, arial, sans-serif; font-size: 14px; fill: rgb(36, 36, 36); fill-opacity: 1; white-space: pre;">percentile</text><g class="groups" transform=""><g class="traces" transform="translate(0,32.7)" style="opacity: 1;"><text class="legendtext" text-anchor="start" x="40" y="4.680000000000001" style="font-family: 'Open Sans', verdana, arial, sans-serif; font-size: 12px; fill: rgb(36, 36, 36); fill-opacity: 1; white-space: pre;">10</text><g class="layers" style="opacity: 1;"><g class="legendfill"/><g class="legendlines"><path class="js-line" d="M5,0h30" style="fill: none; stroke: rgb(0, 0, 4); stroke-opacity: 1; stroke-width: 2px;"/></g><g class="legendsymbols"><g class="legendpoints"/></g></g><rect class="legendtoggle" x="0" y="-9.5" width="55.265625" height="19" style="fill: rgb(0, 0, 0); fill-opacity: 0;"/></g></g><g class="groups" transform=""><g class="traces" transform="translate(0,51.7)" style="opacity: 1;"><text class="legendtext" text-anchor="start" x="40" y="4.680000000000001" style="font-family: 'Open Sans', verdana, arial, sans-serif; font-size: 12px; fill: rgb(36, 36, 36); fill-opacity: 1; white-space: pre;">30</text><g class="layers" style="opacity: 1;"><g class="legendfill"/><g class="legendlines"><path class="js-line" d="M5,0h30" style="fill: none; stroke: rgb(27, 12, 65); stroke-opacity: 1; stroke-width: 2px;"/></g><g class="legendsymbols"><g class="legendpoints"/></g></g><rect class="legendtoggle" x="0" y="-9.5" width="55.265625" height="19" style="fill: rgb(0, 0, 0); fill-opacity: 0;"/></g></g><g class="groups" transform=""><g class="traces" transform="translate(0,70.7)" style="opacity: 1;"><text class="legendtext" text-anchor="start" x="40" y="4.680000000000001" style="font-family: 'Open Sans', verdana, arial, sans-serif; font-size: 12px; fill: rgb(36, 36, 36); fill-opacity: 1; white-space: pre;">50</text><g class="layers" style="opacity: 1;"><g class="legendfill"/><g class="legendlines"><path class="js-line" d="M5,0h30" style="fill: none; stroke: rgb(74, 12, 107); stroke-opacity: 1; stroke-width: 2px;"/></g><g class="legendsymbols"><g class="legendpoints"/></g></g><rect class="legendtoggle" x="0" y="-9.5" width="55.265625" height="19" style="fill: rgb(0, 0, 0); fill-opacity: 0;"/></g></g><g class="groups" transform=""><g class="traces" transform="translate(0,89.7)" style="opacity: 1;"><text class="legendtext" text-anchor="start" x="40" y="4.680000000000001" style="font-family: 'Open Sans', verdana, arial, sans-serif; font-size: 12px; fill: rgb(36, 36, 36); fill-opacity: 1; white-space: pre;">70</text><g class="layers" style="opacity: 1;"><g class="legendfill"/><g class="legendlines"><path class="js-line" d="M5,0h30" style="fill: none; stroke: rgb(120, 28, 109); stroke-opacity: 1; stroke-width: 2px;"/></g><g class="legendsymbols"><g class="legendpoints"/></g></g><rect class="legendtoggle" x="0" y="-9.5" width="55.265625" height="19" style="fill: rgb(0, 0, 0); fill-opacity: 0;"/></g></g><g class="groups" transform=""><g class="traces" transform="translate(0,108.7)" style="opacity: 1;"><text class="legendtext" text-anchor="start" x="40" y="4.680000000000001" style="font-family: 'Open Sans', verdana, arial, sans-serif; font-size: 12px; fill: rgb(36, 36, 36); fill-opacity: 1; white-space: pre;">90</text><g class="layers" style="opacity: 1;"><g class="legendfill"/><g class="legendlines"><path class="js-line" d="M5,0h30" style="fill: none; stroke: rgb(165, 44, 96); stroke-opacity: 1; stroke-width: 2px;"/></g><g class="legendsymbols"><g class="legendpoints"/></g></g><rect class="legendtoggle" x="0" y="-9.5" width="55.265625" height="19" style="fill: rgb(0, 0, 0); fill-opacity: 0;"/></g></g></g><rect class="scrollbar" rx="20" ry="3" width="0" height="0" x="0" y="0" style="fill: rgb(128, 139, 164); fill-opacity: 1;"/></g><g class="g-gtitle"><text class="gtitle" x="300" y="15" text-anchor="middle" dy="0em" style="font-family: 'Open Sans', verdana, arial, sans-serif; font-size: 17px; fill: rgb(36, 36, 36); opacity: 1; font-weight: normal; white-space: pre;">House Sale Prices, Split By Percentile</text></g><g class="g-xtitle"><text class="xtitle" x="286.5" y="240.3" text-anchor="middle" style="font-family: 'Open Sans', verdana, arial, sans-serif; font-size: 14px; fill: rgb(36, 36, 36); opacity: 1; font-weight: normal; white-space: pre;">date</text></g><g class="g-ytitle" transform="translate(3.5498046875,0)"><text class="ytitle" transform="rotate(-90,10.450000000000003,115)" x="10.450000000000003" y="115" text-anchor="middle" style="font-family: 'Open Sans', verdana, arial, sans-serif; font-size: 14px; fill: rgb(36, 36, 36); opacity: 1; font-weight: normal; white-space: pre;">price</text></g></g></svg>