<svg class="main-svg" xmlns="http://www.w3.org/2000/svg" xmlns:xlink="http://www.w3.org/1999/xlink" width="600" height="250" style="" viewBox="0 0 600 250"><rect x="0" y="0" width="600" height="250" style="fill: rgb(255, 255, 255); fill-opacity: 1;"/><defs id="defs-467d7d"><g class="clips"><clipPath id="clip467d7dxyplot" class="plotclip"><rect width="524" height="170"/></clipPath><clipPath class="axesclip" id="clip467d7dx"><rect x="66" y="0" width="524" height="250"/></clipPath><clipPath class="axesclip" id="clip467d7dy"><rect x="0" y="30" width="600" height="170"/></clipPath><clipPath class="axesclip" id="clip467d7dxy"><rect x="66" y="30" width="524" height="170"/></clipPath></g><g class="gradients"/><g class="patterns"/></defs><g class="bglayer"><rect class="bg" x="66" y="30" width="524" height="170" style="fill: rgb(234, 234, 242); fill-opacity: 1; stroke-width: 0;"/></g><g class="layer-below"><g class="imagelayer"/><g class="shapelayer"/></g><g class="cartesianlayer"><g class="subplot xy"><g class="layer-subplot"><g class="shapelayer"/><g class="imagelayer"/></g><g class="gridlayer"><g class="x"><path class="xgrid crisp" transform="translate(129.16,0)" d="M0,30v170" style="stroke: rgb(255, 255, 255); stroke-opacity: 1; stroke-width: 1px;"/><path class="xgrid crisp" transform="translate(223.12,0)" d="M0,30v170" style="stroke: rgb(255, 255, 255); stroke-opacity: 1; stroke-width: 1px;"/><path class="xgrid crisp" transform="translate(316.83000000000004,0)" d="M0,30v170" style="stroke: rgb(255, 255, 255); stroke-opacity: 1; stroke-width: 1px;"/><path class="xgrid crisp" transform="translate(410.54,0)" d="M0,30v170" style="stroke: rgb(255, 255, 255); stroke-opacity: 1; stroke-width: 1px;"/><path class="xgrid crisp" transform="translate(504.25,0)" d="M0,30v170" style="stroke: rgb(255, 255, 255); stroke-opacity: 1; stroke-width: 1px;"/></g><g class="y"><path class="ygrid crisp" transform="translate(0,174.5)" d="M66,0h524" style="stroke: rgb(255, 255, 255); stroke-opacity: 1; stroke-width: 1px;"/><path class="ygrid crisp" transform="translate(0,125.93)" d="M66,0h524" style="stroke: rgb(255, 255, 255); stroke-opacity: 1; stroke-width: 1px;"/><path class="ygrid crisp" transform="translate(0,77.36)" d="M66,0h524" style="stroke: rgb(255, 255, 255); stroke-opacity: 1; stroke-width: 1px;"/></g></g><g class="zerolinelayer"/><path class="xlines-below"/><path class="ylines-below"/><g class="overlines-below"/><g class="xaxislayer-below"/><g class="yaxislayer-below"/><g class="overaxes-below"/><g class="plot" transform="translate(66,30)" clip-path="url(#clip467d7dxyplot)"><g class="scatterlayer mlayer"><g class="trace scatter trace200068" style="stroke-miterlimit: 2; opacity: 1;"><g class="fills"/><g class="errorbars"/><g class="lines"><path class="js-line" d="M0,134.3L7.96,127.5L15.66,122.64L23.62,120.21L31.58,115.84L39.28,117.54L47.24,115.84L54.94,116.57L62.9,112.93L70.86,110.99L78.3,114.39L86.26,110.5L93.97,103.21L101.92,95.93L109.63,86.21L125.54,81.36L133.25,83.79L141.21,86.21L148.91,76.5L156.87,76.5L164.83,72.61L172.01,75.53L179.97,62.41L187.67,57.56L195.63,47.36L203.34,40.56L211.29,36.43L219.25,32.54L226.96,27.93L234.91,35.21L242.62,30.11L250.58,30.36L258.53,35.21L265.72,37.64L273.68,32.79L281.38,30.36L289.34,25.5L297.04,23.07L305,24.53L312.96,23.07L320.66,27.93L328.62,32.79L336.33,32.3L344.28,32.79L352.24,32.3L359.43,35.21L367.39,35.7L375.09,20.64L383.05,11.9L390.75,9.47L398.71,8.5L406.67,9.71L414.37,18.21L422.33,32.06L430.03,25.74L437.99,35.21L445.95,55.37L453.4,71.64L461.36,76.5L469.06,94.47L477.02,100.79L484.72,110.5L492.68,117.79L500.64,132.36L508.34,144.5L516.3,159.07L524,161.5" style="vector-effect: non-scaling-stroke; fill: none; stroke: rgb(76, 114, 176); stroke-opacity: 1; stroke-width: 2px; opacity: 1;"/></g><g class="points"/><g class="text"/></g></g></g><g class="overplot"/><path class="xlines-above crisp" d="M0,0" style="fill: none;"/><path class="ylines-above crisp" d="M0,0" style="fill: none;"/><g class="overlines-above"/><g class="xaxislayer-above"><g class="xtick"><text text-anchor="middle" x="0" y="213" transform="translate(129.16,0)" style="font-family: 'Open Sans', verdana, arial, sans-serif; font-size: 12px; fill: rgb(36, 36, 36); fill-opacity: 1; white-space: pre; opacity: 1;">2004</text></g><g class="xtick"><text text-anchor="middle" x="0" y="213" style="font-family: 'Open Sans', verdana, arial, sans-serif; font-size: 12px; fill: rgb(36, 36, 36); fill-opacity: 1; white-space: pre; opacity: 1;" transform="translate(223.12,0)">2005</text></g><g class="xtick"><text text-anchor="middle" x="0" y="213" style="font-family: 'Open Sans', verdana, arial, sans-serif; font-size: 12px; fill: rgb(36, 36, 36); fill-opacity: 1; white-space: pre; opacity: 1;" transform="translate(316.83000000000004,0)">2006</text></g><g class="xtick"><text text-anchor="middle" x="0" y="213" style="font-family: 'Open Sans', verdana, arial, sans-serif; font-size: 12px; fill: rgb(36, 36, 36); fill-opacity: 1; white-space: pre; opacity: 1;" transform="translate(410.54,0)">2007</text></g><g class="xtick"><text text-anchor="middle" x="0" y="213" style="font-family: 'Open Sans', verdana, arial, sans-serif; font-size: 12px; fill: rgb(36, 36, 36); fill-opacity: 1; white-space: pre; opacity: 1;" transform="translate(504.25,0)">2008</text></g></g><g class="yaxislayer-above"><g class="ytick"><text text-anchor="end" x="65" y="4.199999999999999" transform="translate(0,174.5)" style="font-family: 'Open Sans', verdana, arial, sans-serif; font-size: 12px; fill: rgb(36, 36, 36); fill-opacity: 1; white-space: pre; opacity: 1;">400k</text></g><g class="ytick"><text text-anchor="end" x="65" y="4.199999999999999" style="font-family: 'Open Sans', verdana, arial, sans-serif; font-size: 12px; fill: rgb(36, 36, 36); fill-opacity: 1; white-space: pre; opacity: 1;" transform="translate(0,125.93)">500k</text></g><g class="ytick"><text text-anchor="end" x="65" y="4.199999999999999" style="font-family: 'Open Sans', verdana, arial, sans-serif; font-size: 12px; fill: rgb(36, 36, 36); fill-opacity: 1; white-space: pre; opacity: 1;" transform="translate(0,77.36)">600k</text></g></g><g class="overaxes-above"/></g></g><g class="polarlayer"/><g class="smithlayer"/><g class="ternarylayer"/><g class="geolayer"/><g class="funnelarealayer"/><g class="pielayer"/><g class="iciclelayer"/><g class="treemaplayer"/><g class="sunburstlayer"/><g class="glimages"/><defs id="topdefs-467d7d"><g class="clips"/></defs><g class="layer-above"><g class="imagelayer"/><g class="shapelayer"/></g><g class="infolayer"><g class="g-gtitle"><text class="gtitle" x="300" y="15" text-anchor="middle" dy="0em" style="font-family: 'Open Sans', verdana, arial, sans-serif; font-size: 17px; fill: rgb(36, 36, 36); opacity: 1; font-weight: normal; white-space: pre;">Median House Sale Price</text></g><g class="g-xtitle"><text class="xtitle" x="328" y="240.3" text-anchor="middle" style="font-family: 'Open Sans', verdana, arial, sans-serif; font-size: 14px; fill: rgb(36, 36, 36); opacity: 1; font-weight: normal; white-space: pre;">date</text></g><g class="g-ytitle" transform="translate(3.7998046875,0)"><text class="ytitle" transform="rotate(-90,10.200000000000003,115)" x="10.200000000000003" y="115" text-anchor="middle" style="font-family: 'Open Sans', verdana, arial, sans-serif; font-size: 14px; fill: rgb(36, 36, 36); opacity: 1; font-weight: normal; white-space: pre;">price</text></g></g></svg>