<svg class="main-svg" xmlns="http://www.w3.org/2000/svg" xmlns:xlink="http://www.w3.org/1999/xlink" width="600" height="350" style="" viewBox="0 0 600 350"><rect x="0" y="0" width="600" height="350" style="fill: rgb(255, 255, 255); fill-opacity: 1;"/><defs id="defs-811660"><g class="clips"><clipPath id="clip811660xyplot" class="plotclip"><rect width="368" height="289"/></clipPath><clipPath class="axesclip" id="clip811660x"><rect x="63" y="0" width="368" height="350"/></clipPath><clipPath class="axesclip" id="clip811660y"><rect x="0" y="10" width="600" height="289"/></clipPath><clipPath class="axesclip" id="clip811660xy"><rect x="63" y="10" width="368" height="289"/></clipPath></g><g class="gradients"/><g class="patterns"/></defs><g class="bglayer"><rect class="bg" x="63" y="10" width="368" height="289" style="fill: rgb(234, 234, 242); fill-opacity: 1; stroke-width: 0;"/></g><g class="layer-below"><g class="imagelayer"/><g class="shapelayer"/></g><g class="cartesianlayer"><g class="subplot xy"><g class="layer-subplot"><g class="shapelayer"/><g class="imagelayer"/></g><g class="gridlayer"><g class="x"><path class="xgrid crisp" transform="translate(122.35,0)" d="M0,10v289" style="stroke: rgb(255, 255, 255); stroke-opacity: 1; stroke-width: 1px;"/><path class="xgrid crisp" transform="translate(241.06,0)" d="M0,10v289" style="stroke: rgb(255, 255, 255); stroke-opacity: 1; stroke-width: 1px;"/><path class="xgrid crisp" transform="translate(359.77,0)" d="M0,10v289" style="stroke: rgb(255, 255, 255); stroke-opacity: 1; stroke-width: 1px;"/></g><g class="y"><path class="ygrid crisp" transform="translate(0,283.27)" d="M63,0h368" style="stroke: rgb(255, 255, 255); stroke-opacity: 1; stroke-width: 1px;"/><path class="ygrid crisp" transform="translate(0,265.03)" d="M63,0h368" style="stroke: rgb(255, 255, 255); stroke-opacity: 1; stroke-width: 1px;"/><path class="ygrid crisp" transform="translate(0,246.78)" d="M63,0h368" style="stroke: rgb(255, 255, 255); stroke-opacity: 1; stroke-width: 1px;"/><path class="ygrid crisp" transform="translate(0,222.66)" d="M63,0h368" style="stroke: rgb(255, 255, 255); stroke-opacity: 1; stroke-width: 1px;"/><path class="ygrid crisp" transform="translate(0,204.41)" d="M63,0h368" style="stroke: rgb(255, 255, 255); stroke-opacity: 1; stroke-width: 1px;"/><path class="ygrid crisp" transform="translate(0,186.17)" d="M63,0h368" style="stroke: rgb(255, 255, 255); stroke-opacity: 1; stroke-width: 1px;"/><path class="ygrid crisp" transform="translate(0,162.05)" d="M63,0h368" style="stroke: rgb(255, 255, 255); stroke-opacity: 1; stroke-width: 1px;"/><path class="ygrid crisp" transform="translate(0,143.8)" d="M63,0h368" style="stroke: rgb(255, 255, 255); stroke-opacity: 1; stroke-width: 1px;"/><path class="ygrid crisp" transform="translate(0,125.55)" d="M63,0h368" style="stroke: rgb(255, 255, 255); stroke-opacity: 1; stroke-width: 1px;"/><path class="ygrid crisp" transform="translate(0,101.43)" d="M63,0h368" style="stroke: rgb(255, 255, 255); stroke-opacity: 1; stroke-width: 1px;"/><path class="ygrid crisp" transform="translate(0,83.19)" d="M63,0h368" style="stroke: rgb(255, 255, 255); stroke-opacity: 1; stroke-width: 1px;"/><path class="ygrid crisp" transform="translate(0,64.94)" d="M63,0h368" style="stroke: rgb(255, 255, 255); stroke-opacity: 1; stroke-width: 1px;"/><path class="ygrid crisp" transform="translate(0,40.82)" d="M63,0h368" style="stroke: rgb(255, 255, 255); stroke-opacity: 1; stroke-width: 1px;"/><path class="ygrid crisp" transform="translate(0,22.58)" d="M63,0h368" style="stroke: rgb(255, 255, 255); stroke-opacity: 1; stroke-width: 1px;"/></g></g><g class="zerolinelayer"/><path class="xlines-below"/><path class="ylines-below"/><g class="overlines-below"/><g class="xaxislayer-below"/><g class="yaxislayer-below"/><g class="overaxes-below"/><g class="plot" transform="translate(63,10)" clip-path="url(#clip811660xyplot)"><g class="scatterlayer mlayer"><g class="trace scatter tracede1bbf" style="stroke-miterlimit: 2; opacity: 1;"><g class="fills"/><g class="errorbars"/><g class="lines"><path class="js-line" d="M0,122.41L5.94,120.99L11.87,121.52L23.74,120.94L29.68,120.24L35.61,117.39L41.55,118.53L53.42,118.13L59.35,116.97L65.29,116.9L71.23,115.24L77.16,114.72L83.1,111.49L89.03,109.92L94.97,109.17L106.84,104.97L112.77,104.65L118.71,101.87L124.65,101.3L136.52,98.59L142.45,97.89L148.39,98.46L154.32,97.5L172.13,95.5L178.06,95.1L189.94,97.5L195.87,97.87L201.81,96.69L207.74,96.54L213.68,97.09L219.61,96.25L225.55,94.4L231.48,93.49L237.42,94.91L243.35,95.31L273.03,92.17L278.97,91.26L290.84,90.47L296.77,89.45L308.65,89.55L314.58,88.48L332.39,88.86L338.32,87.51L344.26,88.25L350.19,89.99L362.06,89.13L368,89.26" style="vector-effect: non-scaling-stroke; fill: none; stroke: rgb(76, 114, 176); stroke-opacity: 1; stroke-width: 2px; opacity: 1;"/></g><g class="points"/><g class="text"/></g><g class="trace scatter tracea4a339" style="stroke-miterlimit: 2; opacity: 1;"><g class="fills"/><g class="errorbars"/><g class="lines"><path class="js-line" d="M0,140.12L11.87,127.26L17.81,126.08L29.68,116.78L35.61,113.49L41.55,109.02L47.48,90.13L53.42,81.79L59.35,79.73L65.29,88.85L71.23,94.8L83.1,95.01L89.03,92.75L94.97,90.28L100.9,95.23L106.84,93.14L112.77,87.67L118.71,80.03L124.65,78.19L136.52,75.52L142.45,75L148.39,71.08L154.32,69.86L166.19,63.3L172.13,62.75L184,63.39L189.94,62.28L195.87,60.86L201.81,58.64L213.68,56.18L219.61,54.23L225.55,52.23L231.48,51.32L237.42,50.7L243.35,49.28L249.29,47.88L255.23,45.67L261.16,44.4L267.1,42.09L284.9,40.93L290.84,41.56L296.77,39.41L302.71,38.57L308.65,36.92L314.58,32.98L320.52,29.19L326.45,26.31L338.32,21.98L344.26,21.27L356.13,17.93L362.06,15.35L368,14.45" style="vector-effect: non-scaling-stroke; fill: none; stroke: rgb(221, 132, 82); stroke-opacity: 1; stroke-width: 2px; opacity: 1; stroke-dasharray: 9px, 3px, 3px, 3px;"/></g><g class="points"/><g class="text"/></g><g class="trace scatter trace2e847b" style="stroke-miterlimit: 2; opacity: 1;"><g class="fills"/><g class="errorbars"/><g class="lines"><path class="js-line" d="M0,90.87L5.94,87.67L11.87,86.15L17.81,85.62L23.74,84.13L29.68,81.7L35.61,80.2L41.55,79.8L47.48,80.53L53.42,80.55L59.35,78.6L65.29,77.94L71.23,76.45L77.16,74.66L83.1,74.01L100.9,74.92L106.84,73.59L112.77,71.85L118.71,72.51L124.65,73.1L130.58,72.43L136.52,71.2L142.45,71.87L148.39,73.25L154.32,71.76L160.26,72.16L166.19,71.17L172.13,70.01L178.06,71.19L189.94,73.1L195.87,73.06L207.74,72.33L213.68,72.27L231.48,73.26L237.42,74.03L255.23,76L261.16,76.32L267.1,76.39L273.03,75.58L290.84,77.55L296.77,77.61L302.71,77.1L308.65,77.51L320.52,77.98L326.45,78.5L332.39,78.07L338.32,79.13L344.26,78.9L350.19,80.85L356.13,79.51L362.06,80.39L368,79.93" style="vector-effect: non-scaling-stroke; fill: none; stroke: rgb(85, 168, 104); stroke-opacity: 1; stroke-width: 2px; opacity: 1;"/></g><g class="points"/><g class="text"/></g><g class="trace scatter tracededc10" style="stroke-miterlimit: 2; opacity: 1;"><g class="fills"/><g class="errorbars"/><g class="lines"><path class="js-line" d="M0,144.5L23.74,140.09L29.68,137.94L35.61,137.03L41.55,134L53.42,131.36L59.35,128.9L77.16,122.46L83.1,123.12L89.03,120.61L94.97,119.71L100.9,119.73L106.84,117.49L118.71,116.42L124.65,114.5L130.58,113.46L136.52,113.51L154.32,107.85L160.26,107.37L166.19,108.75L172.13,106.73L178.06,105.21L184,102.37L207.74,95.08L213.68,92.86L243.35,84.19L249.29,83.07L261.16,80.86L267.1,78.78L278.97,76.02L284.9,75.57L296.77,72.41L302.71,71.95L314.58,70.31L320.52,68.38L332.39,65.01L338.32,62.68L344.26,61.19L350.19,58.02L368,53.97" style="vector-effect: non-scaling-stroke; fill: none; stroke: rgb(196, 78, 82); stroke-opacity: 1; stroke-width: 2px; opacity: 1; stroke-dasharray: 9px, 3px, 3px, 3px;"/></g><g class="points"/><g class="text"/></g><g class="trace scatter trace14a0e7" style="stroke-miterlimit: 2; opacity: 1;"><g class="fills"/><g class="errorbars"/><g class="lines"><path class="js-line" d="M0,6069L5.92851880986807,6069L5.94,204.13L11.87,217.93L17.81,219.71L23.74,253.79L29.68,217.42L35.61,194.27L41.55,187.23L47.48,183.12L53.42,184.88L59.35,170.63L65.29,173.52L71.23,174.07L77.16,171.97L83.1,168.29L89.03,167.17L94.97,165.11L100.9,163.87L106.84,157.08L112.77,157.8L118.71,149.08L124.65,155.97L130.58,153.24L136.52,148.32L142.45,145.37L160.26,135L166.19,134.47L178.06,130.92L184,131.1L189.94,126.02L195.87,122.64L201.81,122.79L207.74,120.86L213.68,122.97L219.61,121.22L225.55,121.03L231.48,118.98L237.42,117.22L243.35,112.41L249.29,110.39L255.23,110.72L261.16,107.68L267.1,106.62L284.9,104.43L290.84,102.13L314.58,97.46L320.52,95.51L338.32,89.52L344.26,88.89L350.19,88.02L356.13,88.16L368,86.91" style="vector-effect: non-scaling-stroke; fill: none; stroke: rgb(129, 114, 179); stroke-opacity: 1; stroke-width: 2px; opacity: 1;"/></g><g class="points"/><g class="text"/></g><g class="trace scatter trace857a44" style="stroke-miterlimit: 2; opacity: 1;"><g class="fills"/><g class="errorbars"/><g class="lines"><path class="js-line" d="M0,133.14L5.94,128.25L11.87,126.81L17.81,123.87L23.74,124.46L29.68,124.58L35.61,121.32L41.55,117.16L47.48,118.15L53.42,116.53L59.35,111.58L65.29,106.43L71.23,105.5L83.1,100.15L89.03,98.2L94.97,96.06L100.9,91.99L112.77,84.39L118.71,80.13L130.58,78.05L136.52,74.64L142.45,75.07L148.39,76.29L160.26,74.6L166.19,74.56L172.13,73.86L178.06,75.25L189.94,76.76L195.87,76.56L201.81,74.88L207.74,75.54L219.61,75.4L225.55,73.43L231.48,72.67L237.42,70.71L255.23,70.36L261.16,69.1L278.97,68.54L284.9,69.36L296.77,68.15L302.71,68.51L314.58,67.64L320.52,67.64L338.32,67.05L344.26,68.95L350.19,70.38L356.13,69.29L368,67.33" style="vector-effect: non-scaling-stroke; fill: none; stroke: rgb(147, 120, 96); stroke-opacity: 1; stroke-width: 2px; opacity: 1; stroke-dasharray: 9px, 3px, 3px, 3px;"/></g><g class="points"/><g class="text"/></g><g class="trace scatter traceb1bc78" style="stroke-miterlimit: 2; opacity: 1;"><g class="fills"/><g class="errorbars"/><g class="lines"><path class="js-line" d="M0,234.42L5.94,226.78L11.87,222.33L17.81,214.34L23.74,211.84L29.68,205.98L35.61,201.79L47.48,197.17L53.42,191.38L65.29,184.72L71.23,180.04L77.16,174.77L83.1,173.42L89.03,170.31L94.97,165.5L100.9,161.35L106.84,159.82L112.77,156.33L118.71,150.15L130.58,148.51L136.52,142.69L142.45,141.32L148.39,139.09L172.13,127.26L178.06,126.46L184,125.48L189.94,125.33L201.81,121.58L207.74,120.87L219.61,118.51L225.55,115.06L231.48,113.57L237.42,110.1L255.23,102.55L261.16,100.5L273.03,96.48L278.97,94.92L284.9,99.08L290.84,96.7L296.77,93.44L302.71,92.62L314.58,92.55L320.52,91.53L332.39,91.25L338.32,90.58L350.19,89.38L356.13,87.16L362.06,86.03L368,85.89" style="vector-effect: non-scaling-stroke; fill: none; stroke: rgb(218, 139, 195); stroke-opacity: 1; stroke-width: 2px; opacity: 1;"/></g><g class="points"/><g class="text"/></g><g class="trace scatter trace887afc" style="stroke-miterlimit: 2; opacity: 1;"><g class="fills"/><g class="errorbars"/><g class="lines"><path class="js-line" d="M0,96.16L11.87,92.24L17.81,90.76L23.74,88.43L29.68,85.13L47.48,78.61L53.42,77.29L71.23,74.15L77.16,72.31L100.9,66.52L106.84,65.79L124.65,62.05L130.58,60.69L166.19,54.62L172.13,54.26L178.06,53.24L184,53.74L201.81,52.57L207.74,50.58L213.68,50.5L219.61,49.4L225.55,48.77L231.48,49.33L237.42,52.16L243.35,52.28L255.23,56.95L261.16,60.32L273.03,61.81L278.97,63.59L284.9,63.78L290.84,63.04L302.71,62.24L308.65,62.26L320.52,61.53L326.45,61.44L332.39,60.46L338.32,60.39L344.26,60.04L350.19,61.9L362.06,59.02L368,58.89" style="vector-effect: non-scaling-stroke; fill: none; stroke: rgb(140, 140, 140); stroke-opacity: 1; stroke-width: 2px; opacity: 1; stroke-dasharray: 9px, 3px, 3px, 3px;"/></g><g class="points"/><g class="text"/></g><g class="trace scatter tracebeae02" style="stroke-miterlimit: 2; opacity: 1;"><g class="fills"/><g class="errorbars"/><g class="lines"><path class="js-line" d="M0,211.93L0.02291259738565297,6069L0,6069L17.798656402245914,6069.000000000466L17.81,274.55L23.74,249.4L29.68,235.32L35.61,242.16L41.55,235.5L47.48,223.12L53.42,238.77L59.35,229.13L65.29,221.56L71.23,206.78L77.16,204.02L83.1,203.64L89.03,217.14L94.97,206.13L100.9,204.55L112.77,190.32L118.71,180.87L124.65,187.32L130.58,183.86L136.52,178.85L142.45,175.24L148.39,172.43L154.32,168.36L160.26,161.11L166.19,150.06L172.13,141.5L178.06,119.77L184,120.12L189.94,119.32L195.87,119.24L201.81,122.42L207.74,126.42L213.68,124.85L225.55,120.7L231.48,120.71L237.42,120.38L243.35,117.31L249.29,115.48L255.23,114.54L261.16,113.1L267.1,112.63L273.03,111.24L278.97,113.41L284.9,111.65L290.84,111.17L314.58,106.68L320.52,105.15L338.32,101L344.26,98.84L350.19,97.52L356.13,95.04L368,92.5" style="vector-effect: non-scaling-stroke; fill: none; stroke: rgb(204, 185, 116); stroke-opacity: 1; stroke-width: 2px; opacity: 1;"/></g><g class="points"/><g class="text"/></g><g class="trace scatter trace603c5d" style="stroke-miterlimit: 2; opacity: 1;"><g class="fills"/><g class="errorbars"/><g class="lines"><path class="js-line" d="M0,49.14L5.94,48.34L11.87,49.07L17.81,48.42L23.74,49.66L29.68,47.24L35.61,46.02L47.48,46.98L53.42,46.15L71.23,44.61L77.16,43.44L112.77,36.74L118.71,34.8L124.65,34.62L130.58,33.19L136.52,32.24L142.45,33.1L148.39,34.23L154.32,32.66L160.26,31.61L166.19,31.5L172.13,31.31L178.06,32.43L184,32.82L189.94,34.19L195.87,34.35L201.81,33.23L219.61,32.39L225.55,31.23L237.42,31.29L243.35,31.47L267.1,29.82L273.03,28.99L278.97,28.13L284.9,28.18L290.84,28.05L296.77,27.15L314.58,27.22L320.52,26.82L338.32,26.83L344.26,27.66L350.19,29.67L356.13,28.46L368,30.18" style="vector-effect: non-scaling-stroke; fill: none; stroke: rgb(100, 181, 205); stroke-opacity: 1; stroke-width: 2px; opacity: 1; stroke-dasharray: 9px, 3px, 3px, 3px;"/></g><g class="points"/><g class="text"/></g></g></g><g class="overplot"/><path class="xlines-above crisp" d="M0,0" style="fill: none;"/><path class="ylines-above crisp" d="M0,0" style="fill: none;"/><g class="overlines-above"/><g class="xaxislayer-above"><g class="xtick"><text text-anchor="middle" x="0" y="312" transform="translate(122.35,0)" style="font-family: 'Open Sans', verdana, arial, sans-serif; font-size: 12px; fill: rgb(36, 36, 36); fill-opacity: 1; white-space: pre; opacity: 1;">1960</text></g><g class="xtick"><text text-anchor="middle" x="0" y="312" style="font-family: 'Open Sans', verdana, arial, sans-serif; font-size: 12px; fill: rgb(36, 36, 36); fill-opacity: 1; white-space: pre; opacity: 1;" transform="translate(241.06,0)">1980</text></g><g class="xtick"><text text-anchor="middle" x="0" y="312" style="font-family: 'Open Sans', verdana, arial, sans-serif; font-size: 12px; fill: rgb(36, 36, 36); fill-opacity: 1; white-space: pre; opacity: 1;" transform="translate(359.77,0)">2000</text></g></g><g class="yaxislayer-above"><g class="ytick"><text text-anchor="end" x="62" y="3.15" transform="translate(0,283.27)" style="font-family: 'Open Sans', verdana, arial, sans-serif; font-size: 9px; fill: rgb(36, 36, 36); fill-opacity: 1; white-space: pre; opacity: 1;">5</text></g><g class="ytick"><text text-anchor="end" x="62" y="4.199999999999999" style="font-family: 'Open Sans', verdana, arial, sans-serif; font-size: 12px; fill: rgb(36, 36, 36); fill-opacity: 1; white-space: pre; opacity: 1;" transform="translate(0,265.03)">1</text></g><g class="ytick"><text text-anchor="end" x="62" y="3.15" style="font-family: 'Open Sans', verdana, arial, sans-serif; font-size: 9px; fill: rgb(36, 36, 36); fill-opacity: 1; white-space: pre; opacity: 1;" transform="translate(0,246.78)">2</text></g><g class="ytick"><text text-anchor="end" x="62" y="3.15" style="font-family: 'Open Sans', verdana, arial, sans-serif; font-size: 9px; fill: rgb(36, 36, 36); fill-opacity: 1; white-space: pre; opacity: 1;" transform="translate(0,222.66)">5</text></g><g class="ytick"><text text-anchor="end" x="62" y="4.199999999999999" style="font-family: 'Open Sans', verdana, arial, sans-serif; font-size: 12px; fill: rgb(36, 36, 36); fill-opacity: 1; white-space: pre; opacity: 1;" transform="translate(0,204.41)">10</text></g><g class="ytick"><text text-anchor="end" x="62" y="3.15" style="font-family: 'Open Sans', verdana, arial, sans-serif; font-size: 9px; fill: rgb(36, 36, 36); fill-opacity: 1; white-space: pre; opacity: 1;" transform="translate(0,186.17)">2</text></g><g class="ytick"><text text-anchor="end" x="62" y="3.15" style="font-family: 'Open Sans', verdana, arial, sans-serif; font-size: 9px; fill: rgb(36, 36, 36); fill-opacity: 1; white-space: pre; opacity: 1;" transform="translate(0,162.05)">5</text></g><g class="ytick"><text text-anchor="end" x="62" y="4.199999999999999" style="font-family: 'Open Sans', verdana, arial, sans-serif; font-size: 12px; fill: rgb(36, 36, 36); fill-opacity: 1; white-space: pre; opacity: 1;" transform="translate(0,143.8)">100</text></g><g class="ytick"><text text-anchor="end" x="62" y="3.15" style="font-family: 'Open Sans', verdana, arial, sans-serif; font-size: 9px; fill: rgb(36, 36, 36); fill-opacity: 1; white-space: pre; opacity: 1;" transform="translate(0,125.55)">2</text></g><g class="ytick"><text text-anchor="end" x="62" y="3.15" style="font-family: 'Open Sans', verdana, arial, sans-serif; font-size: 9px; fill: rgb(36, 36, 36); fill-opacity: 1; white-space: pre; opacity: 1;" transform="translate(0,101.43)">5</text></g><g class="ytick"><text text-anchor="end" x="62" y="4.199999999999999" style="font-family: 'Open Sans', verdana, arial, sans-serif; font-size: 12px; fill: rgb(36, 36, 36); fill-opacity: 1; white-space: pre; opacity: 1;" transform="translate(0,83.19)">1000</text></g><g class="ytick"><text text-anchor="end" x="62" y="3.15" style="font-family: 'Open Sans', verdana, arial, sans-serif; font-size: 9px; fill: rgb(36, 36, 36); fill-opacity: 1; white-space: pre; opacity: 1;" transform="translate(0,64.94)">2</text></g><g class="ytick"><text text-anchor="end" x="62" y="3.15" style="font-family: 'Open Sans', verdana, arial, sans-serif; font-size: 9px; fill: rgb(36, 36, 36); fill-opacity: 1; white-space: pre; opacity: 1;" transform="translate(0,40.82)">5</text></g><g class="ytick"><text text-anchor="end" x="62" y="4.199999999999999" style="font-family: 'Open Sans', verdana, arial, sans-serif; font-size: 12px; fill: rgb(36, 36, 36); fill-opacity: 1; white-space: pre; opacity: 1;" transform="translate(0,22.58)">10k</text></g></g><g class="overaxes-above"/></g></g><g class="polarlayer"/><g class="smithlayer"/><g class="ternarylayer"/><g class="geolayer"/><g class="funnelarealayer"/><g class="pielayer"/><g class="iciclelayer"/><g class="treemaplayer"/><g class="sunburstlayer"/><g class="glimages"/><defs id="topdefs-811660"><g class="clips"/><clipPath id="legend811660"><rect width="152" height="219" x="0" y="0"/></clipPath></defs><g class="layer-above"><g class="imagelayer"/><g class="shapelayer"/></g><g class="infolayer"><g class="legend" pointer-events="all" transform="translate(438.36,10)"><rect class="bg" shape-rendering="crispEdges" width="152" height="219" x="0" y="0" style="stroke: rgb(68, 68, 68); stroke-opacity: 1; fill: rgb(255, 255, 255); fill-opacity: 1; stroke-width: 0px;"/><g class="scrollbox" transform="" clip-path="url(#legend811660)"><text class="legendtitletext" text-anchor="start" x="2" y="18.2" style="font-family: 'Open Sans', verdana, arial, sans-serif; font-size: 14px; fill: rgb(36, 36, 36); fill-opacity: 1; white-space: pre;">Country</text><g class="groups" transform=""><g class="traces" transform="translate(0,32.7)" style="opacity: 1;"><text class="legendtext" text-anchor="start" x="40" y="4.680000000000001" style="font-family: 'Open Sans', verdana, arial, sans-serif; font-size: 12px; fill: rgb(36, 36, 36); fill-opacity: 1; white-space: pre;">Canada</text><g class="layers" style="opacity: 1;"><g class="legendfill"/><g class="legendlines"><path class="js-line" d="M5,0h30" style="fill: none; stroke: rgb(76, 114, 176); stroke-opacity: 1; stroke-width: 2px;"/></g><g class="legendsymbols"><g class="legendpoints"/></g></g><rect class="legendtoggle" x="0" y="-9.5" width="146.90625" height="19" style="fill: rgb(0, 0, 0); fill-opacity: 0;"/></g></g><g class="groups" transform=""><g class="traces" transform="translate(0,51.7)" style="opacity: 1;"><text class="legendtext" text-anchor="start" x="40" y="4.680000000000001" style="font-family: 'Open Sans', verdana, arial, sans-serif; font-size: 12px; fill: rgb(36, 36, 36); fill-opacity: 1; white-space: pre;">China</text><g class="layers" style="opacity: 1;"><g class="legendfill"/><g class="legendlines"><path class="js-line" d="M5,0h30" style="fill: none; stroke: rgb(221, 132, 82); stroke-opacity: 1; stroke-dasharray: 9px, 3px, 3px, 3px; stroke-width: 2px;"/></g><g class="legendsymbols"><g class="legendpoints"/></g></g><rect class="legendtoggle" x="0" y="-9.5" width="146.90625" height="19" style="fill: rgb(0, 0, 0); fill-opacity: 0;"/></g></g><g class="groups" transform=""><g class="traces" transform="translate(0,70.7)" style="opacity: 1;"><text class="legendtext" text-anchor="start" x="40" y="4.680000000000001" style="font-family: 'Open Sans', verdana, arial, sans-serif; font-size: 12px; fill: rgb(36, 36, 36); fill-opacity: 1; white-space: pre;">Germany</text><g class="layers" style="opacity: 1;"><g class="legendfill"/><g class="legendlines"><path class="js-line" d="M5,0h30" style="fill: none; stroke: rgb(85, 168, 104); stroke-opacity: 1; stroke-width: 2px;"/></g><g class="legendsymbols"><g class="legendpoints"/></g></g><rect class="legendtoggle" x="0" y="-9.5" width="146.90625" height="19" style="fill: rgb(0, 0, 0); fill-opacity: 0;"/></g></g><g class="groups" transform=""><g class="traces" transform="translate(0,89.7)" style="opacity: 1;"><text class="legendtext" text-anchor="start" x="40" y="4.680000000000001" style="font-family: 'Open Sans', verdana, arial, sans-serif; font-size: 12px; fill: rgb(36, 36, 36); fill-opacity: 1; white-space: pre;">India</text><g class="layers" style="opacity: 1;"><g class="legendfill"/><g class="legendlines"><path class="js-line" d="M5,0h30" style="fill: none; stroke: rgb(196, 78, 82); stroke-opacity: 1; stroke-dasharray: 9px, 3px, 3px, 3px; stroke-width: 2px;"/></g><g class="legendsymbols"><g class="legendpoints"/></g></g><rect class="legendtoggle" x="0" y="-9.5" width="146.90625" height="19" style="fill: rgb(0, 0, 0); fill-opacity: 0;"/></g></g><g class="groups" transform=""><g class="traces" transform="translate(0,108.7)" style="opacity: 1;"><text class="legendtext" text-anchor="start" x="40" y="4.680000000000001" style="font-family: 'Open Sans', verdana, arial, sans-serif; font-size: 12px; fill: rgb(36, 36, 36); fill-opacity: 1; white-space: pre;">Iran</text><g class="layers" style="opacity: 1;"><g class="legendfill"/><g class="legendlines"><path class="js-line" d="M5,0h30" style="fill: none; stroke: rgb(129, 114, 179); stroke-opacity: 1; stroke-width: 2px;"/></g><g class="legendsymbols"><g class="legendpoints"/></g></g><rect class="legendtoggle" x="0" y="-9.5" width="146.90625" height="19" style="fill: rgb(0, 0, 0); fill-opacity: 0;"/></g></g><g class="groups" transform=""><g class="traces" transform="translate(0,127.7)" style="opacity: 1;"><text class="legendtext" text-anchor="start" x="40" y="4.680000000000001" style="font-family: 'Open Sans', verdana, arial, sans-serif; font-size: 12px; fill: rgb(36, 36, 36); fill-opacity: 1; white-space: pre;">Japan</text><g class="layers" style="opacity: 1;"><g class="legendfill"/><g class="legendlines"><path class="js-line" d="M5,0h30" style="fill: none; stroke: rgb(147, 120, 96); stroke-opacity: 1; stroke-dasharray: 9px, 3px, 3px, 3px; stroke-width: 2px;"/></g><g class="legendsymbols"><g class="legendpoints"/></g></g><rect class="legendtoggle" x="0" y="-9.5" width="146.90625" height="19" style="fill: rgb(0, 0, 0); fill-opacity: 0;"/></g></g><g class="groups" transform=""><g class="traces" transform="translate(0,146.7)" style="opacity: 1;"><text class="legendtext" text-anchor="start" x="40" y="4.680000000000001" style="font-family: 'Open Sans', verdana, arial, sans-serif; font-size: 12px; fill: rgb(36, 36, 36); fill-opacity: 1; white-space: pre;">Korea, Rep. (South)</text><g class="layers" style="opacity: 1;"><g class="legendfill"/><g class="legendlines"><path class="js-line" d="M5,0h30" style="fill: none; stroke: rgb(218, 139, 195); stroke-opacity: 1; stroke-width: 2px;"/></g><g class="legendsymbols"><g class="legendpoints"/></g></g><rect class="legendtoggle" x="0" y="-9.5" width="146.90625" height="19" style="fill: rgb(0, 0, 0); fill-opacity: 0;"/></g></g><g class="groups" transform=""><g class="traces" transform="translate(0,165.7)" style="opacity: 1;"><text class="legendtext" text-anchor="start" x="40" y="4.680000000000001" style="font-family: 'Open Sans', verdana, arial, sans-serif; font-size: 12px; fill: rgb(36, 36, 36); fill-opacity: 1; white-space: pre;">Russian Federation</text><g class="layers" style="opacity: 1;"><g class="legendfill"/><g class="legendlines"><path class="js-line" d="M5,0h30" style="fill: none; stroke: rgb(140, 140, 140); stroke-opacity: 1; stroke-dasharray: 9px, 3px, 3px, 3px; stroke-width: 2px;"/></g><g class="legendsymbols"><g class="legendpoints"/></g></g><rect class="legendtoggle" x="0" y="-9.5" width="146.90625" height="19" style="fill: rgb(0, 0, 0); fill-opacity: 0;"/></g></g><g class="groups" transform=""><g class="traces" transform="translate(0,184.7)" style="opacity: 1;"><text class="legendtext" text-anchor="start" x="40" y="4.680000000000001" style="font-family: 'Open Sans', verdana, arial, sans-serif; font-size: 12px; fill: rgb(36, 36, 36); fill-opacity: 1; white-space: pre;">Saudi Arabia</text><g class="layers" style="opacity: 1;"><g class="legendfill"/><g class="legendlines"><path class="js-line" d="M5,0h30" style="fill: none; stroke: rgb(204, 185, 116); stroke-opacity: 1; stroke-width: 2px;"/></g><g class="legendsymbols"><g class="legendpoints"/></g></g><rect class="legendtoggle" x="0" y="-9.5" width="146.90625" height="19" style="fill: rgb(0, 0, 0); fill-opacity: 0;"/></g></g><g class="groups" transform=""><g class="traces" transform="translate(0,203.7)" style="opacity: 1;"><text class="legendtext" text-anchor="start" x="40" y="4.680000000000001" style="font-family: 'Open Sans', verdana, arial, sans-serif; font-size: 12px; fill: rgb(36, 36, 36); fill-opacity: 1; white-space: pre;">United States</text><g class="layers" style="opacity: 1;"><g class="legendfill"/><g class="legendlines"><path class="js-line" d="M5,0h30" style="fill: none; stroke: rgb(100, 181, 205); stroke-opacity: 1; stroke-dasharray: 9px, 3px, 3px, 3px; stroke-width: 2px;"/></g><g class="legendsymbols"><g class="legendpoints"/></g></g><rect class="legendtoggle" x="0" y="-9.5" width="146.90625" height="19" style="fill: rgb(0, 0, 0); fill-opacity: 0;"/></g></g></g><rect class="scrollbar" rx="20" ry="3" width="0" height="0" x="0" y="0" style="fill: rgb(128, 139, 164); fill-opacity: 1;"/></g><g class="g-gtitle"/><g class="g-xtitle"><text class="xtitle" x="247" y="340.3" text-anchor="middle" style="font-family: 'Open Sans', verdana, arial, sans-serif; font-size: 14px; fill: rgb(36, 36, 36); opacity: 1; font-weight: normal; white-space: pre;">Year</text></g><g class="g-ytitle" transform="translate(5.2529296875,0)"><text class="ytitle" transform="rotate(-90,9.746875000000003,154.5)" x="9.746875000000003" y="154.5" text-anchor="middle" style="font-family: 'Open Sans', verdana, arial, sans-serif; font-size: 14px; fill: rgb(36, 36, 36); opacity: 1; font-weight: normal; white-space: pre;">CO2 Emissions (million tons)</text></g></g></svg>