<svg class="main-svg" xmlns="http://www.w3.org/2000/svg" xmlns:xlink="http://www.w3.org/1999/xlink" width="600" height="250" style="" viewBox="0 0 600 250"><rect x="0" y="0" width="600" height="250" style="fill: rgb(255, 255, 255); fill-opacity: 1;"/><defs id="defs-0584fd"><g class="clips"><clipPath id="clip0584fdxyplot" class="plotclip"><rect width="447" height="169"/></clipPath><clipPath class="axesclip" id="clip0584fdx"><rect x="64" y="0" width="447" height="250"/></clipPath><clipPath class="axesclip" id="clip0584fdy"><rect x="0" y="30" width="600" height="169"/></clipPath><clipPath class="axesclip" id="clip0584fdxy"><rect x="64" y="30" width="447" height="169"/></clipPath></g><g class="gradients"/><g class="patterns"/></defs><g class="bglayer"><rect class="bg" x="64" y="30" width="447" height="169" style="fill: rgb(234, 234, 242); fill-opacity: 1; stroke-width: 0;"/></g><g class="layer-below"><g class="imagelayer"/><g class="shapelayer"/></g><g class="cartesianlayer"><g class="subplot xy"><g class="layer-subplot"><g class="shapelayer"/><g class="imagelayer"/></g><g class="gridlayer"><g class="x"><path class="xgrid crisp" transform="translate(117.88,0)" d="M0,30v169" style="stroke: rgb(255, 255, 255); stroke-opacity: 1; stroke-width: 1px;"/><path class="xgrid crisp" transform="translate(198.03,0)" d="M0,30v169" style="stroke: rgb(255, 255, 255); stroke-opacity: 1; stroke-width: 1px;"/><path class="xgrid crisp" transform="translate(277.97,0)" d="M0,30v169" style="stroke: rgb(255, 255, 255); stroke-opacity: 1; stroke-width: 1px;"/><path class="xgrid crisp" transform="translate(357.91,0)" d="M0,30v169" style="stroke: rgb(255, 255, 255); stroke-opacity: 1; stroke-width: 1px;"/><path class="xgrid crisp" transform="translate(437.85,0)" d="M0,30v169" style="stroke: rgb(255, 255, 255); stroke-opacity: 1; stroke-width: 1px;"/></g><g class="y"><path class="ygrid crisp" transform="translate(0,146.32)" d="M64,0h447" style="stroke: rgb(255, 255, 255); stroke-opacity: 1; stroke-width: 1px;"/><path class="ygrid crisp" transform="translate(0,78.9)" d="M64,0h447" style="stroke: rgb(255, 255, 255); stroke-opacity: 1; stroke-width: 1px;"/></g></g><g class="zerolinelayer"/><path class="xlines-below"/><path class="ylines-below"/><g class="overlines-below"/><g class="xaxislayer-below"/><g class="yaxislayer-below"/><g class="overaxes-below"/><g class="plot" transform="translate(64,30)" clip-path="url(#clip0584fdxyplot)"><g class="scatterlayer mlayer"><g class="trace scatter tracebe6f38" style="stroke-miterlimit: 2; opacity: 1;"><g class="fills"/><g class="errorbars"/><g class="lines"><path class="js-line" d="M0,149.36L13.36,148.01L20.15,148.35L26.94,146.8L33.51,146.8L40.3,146.86L46.87,145.99L60.45,145.31L66.8,146.53L80.16,145.18L86.95,143.29L100.31,141.94L107.1,141.6L133.82,139.25L140.6,139.25L146.74,139.92L153.53,138.57L180.25,133.18L187.03,132.5L193.61,130.21L200.39,130.48L206.96,130.48L213.75,131.83L226.68,131.83L233.46,131.9L240.04,132.5L246.82,130.95L260.18,131.29L266.97,130.48L280.33,131.15L286.9,131.29L300.48,129.94L306.61,133.18L313.4,133.18L319.97,131.83L333.33,131.83L340.12,130.48L346.91,131.83L353.48,134.12L360.27,136.75L366.84,136.55L380.42,140.73L386.77,143.29L393.56,147.34L400.13,150.03L420.28,154.21L427.07,156.91L433.64,159.47L440.43,160.55L447,160.48" style="vector-effect: non-scaling-stroke; fill: none; stroke: rgb(0, 0, 4); stroke-opacity: 1; stroke-width: 2px; opacity: 1;"/></g><g class="points"/><g class="text"/></g><g class="trace scatter trace5fb887" style="stroke-miterlimit: 2; opacity: 1;"><g class="fills"/><g class="errorbars"/><g class="lines"><path class="js-line" d="M0,137.9L13.36,135.2L20.15,135.2L26.94,133.85L33.51,133.85L46.87,133.18L53.66,132.5L73.59,131.83L80.16,130.48L93.52,126.97L100.31,126.44L113.67,125.76L120.46,125.76L127.03,124.41L133.82,124.41L140.6,123.74L146.74,124.68L160.1,120.17L166.89,118.34L173.46,116.32L180.25,115.51L193.61,112.55L200.39,113.9L206.96,112.95L213.75,113.36L226.68,114.7L233.46,114.3L240.04,114.3L246.82,112.01L260.18,112.28L266.97,111.87L280.33,113.63L286.9,114.3L300.48,112.95L306.61,114.97L313.4,116.32L319.97,112.28L326.76,111.2L333.33,110.93L346.91,110.25L353.48,112.68L360.27,116.32L366.84,117.67L373.63,119.02L380.42,123.74L406.92,135.2L413.49,136.68L420.28,138.57L427.07,142.62L440.43,147.34L447,147.61" style="vector-effect: non-scaling-stroke; fill: none; stroke: rgb(27, 12, 65); stroke-opacity: 1; stroke-width: 2px; opacity: 1;"/></g><g class="points"/><g class="text"/></g><g class="trace scatter tracee6deb0" style="stroke-miterlimit: 2; opacity: 1;"><g class="fills"/><g class="errorbars"/><g class="lines"><path class="js-line" d="M0,126.97L13.36,123.74L20.15,123.06L26.94,121.85L33.51,122.32L60.45,120.5L66.8,121.45L73.59,120.37L80.16,118.34L93.52,113.63L100.31,112.95L107.1,112.28L113.67,112.95L120.46,113.63L127.03,110.93L133.82,110.93L140.6,109.85L146.74,110.66L153.53,107.02L160.1,105.67L166.89,102.84L173.46,100.95L180.25,99.8L193.61,97.44L200.39,99.47L206.96,98.05L213.75,98.12L226.68,100.14L233.46,98.79L253.39,96.1L260.18,96.5L266.97,96.1L273.54,97.44L280.33,98.79L286.9,98.66L313.4,99.6L319.97,95.42L326.76,92.99L333.33,92.32L346.91,92.39L353.48,94.75L360.27,98.59L366.84,96.84L373.63,99.47L380.42,105.06L386.77,109.58L393.56,110.93L400.13,115.92L406.92,117.67L420.28,122.39L427.07,126.44L440.43,133.85L447,134.53" style="vector-effect: non-scaling-stroke; fill: none; stroke: rgb(74, 12, 107); stroke-opacity: 1; stroke-width: 2px; opacity: 1;"/></g><g class="points"/><g class="text"/></g><g class="trace scatter trace47ebd6" style="stroke-miterlimit: 2; opacity: 1;"><g class="fills"/><g class="errorbars"/><g class="lines"><path class="js-line" d="M0,111.6L6.79,109.85L13.36,109.58L26.94,106.21L33.51,106.48L46.87,107.69L53.66,106.21L60.45,105.54L66.8,106.21L73.59,105L80.16,102.84L93.52,97.04L100.31,96.1L113.67,96.77L120.46,98.39L127.03,95.42L133.82,94.75L140.6,94.41L146.74,95.22L153.53,89.76L160.1,86.93L166.89,83.96L173.46,83.96L187.03,81.06L193.61,80.99L200.39,83.22L206.96,82.61L213.75,81.67L220.54,83.02L226.68,83.29L233.46,82.01L240.04,81.6L246.82,79.24L253.39,78.03L260.18,78.57L266.97,78.57L273.54,80.93L280.33,81.94L286.9,81.94L306.61,83.96L313.4,82.61L319.97,76.61L326.76,72.5L333.33,72.03L340.12,69.13L346.91,69.13L353.48,72.5L360.27,76.54L366.84,74.52L373.63,75.87L380.42,82.61L386.77,86.66L393.56,85.98L400.13,92.73L406.92,94.07L413.49,94.07L420.28,96.1L427.07,102.16L433.64,105.8L440.43,113.29L447,114.3" style="vector-effect: non-scaling-stroke; fill: none; stroke: rgb(120, 28, 109); stroke-opacity: 1; stroke-width: 2px; opacity: 1;"/></g><g class="points"/><g class="text"/></g><g class="trace scatter trace3a8248" style="stroke-miterlimit: 2; opacity: 1;"><g class="fills"/><g class="errorbars"/><g class="lines"><path class="js-line" d="M0,77.62L6.79,75.87L13.36,75.87L20.15,74.66L26.94,69.13L33.51,73.85L40.3,74.52L46.87,76.54L53.66,73.44L66.8,73.17L73.59,71.83L80.16,68.45L86.95,63.73L93.52,58.34L100.31,59.82L107.1,59.96L113.67,62.39L120.46,65.02L127.03,59.82L133.82,59.96L140.6,58.34L146.74,59.69L153.53,47.62L160.1,42.7L166.89,38.79L173.46,40.14L180.25,38.45L187.03,32.05L193.61,35.42L200.39,44.18L206.96,35.55L213.75,37.64L220.54,42.56L226.68,44.18L233.46,42.29L246.82,28.68L253.39,27.33L260.18,24.77L266.97,28.68L273.54,37.44L280.33,41.96L286.9,35.42L293.69,42.09L300.48,48.9L306.61,40.81L313.4,36.09L319.97,21.26L326.76,15.33L333.33,11.82L340.12,8.45L346.91,11.82L360.27,21.93L366.84,15.19L373.63,17.21L380.42,27.33L386.77,31.37L393.56,23.55L400.13,35.42L406.92,33.4L413.49,27.6L420.28,40.14L427.07,52.27L433.64,55.64L440.43,65.76L447,70.27" style="vector-effect: non-scaling-stroke; fill: none; stroke: rgb(165, 44, 96); stroke-opacity: 1; stroke-width: 2px; opacity: 1;"/></g><g class="points"/><g class="text"/></g></g></g><g class="overplot"/><path class="xlines-above crisp" d="M0,0" style="fill: none;"/><path class="ylines-above crisp" d="M0,0" style="fill: none;"/><g class="overlines-above"/><g class="xaxislayer-above"><g class="xtick"><text text-anchor="middle" x="0" y="212" transform="translate(117.88,0)" style="font-family: 'Open Sans', verdana, arial, sans-serif; font-size: 12px; fill: rgb(36, 36, 36); fill-opacity: 1; white-space: pre; opacity: 1;">2004</text></g><g class="xtick"><text text-anchor="middle" x="0" y="212" style="font-family: 'Open Sans', verdana, arial, sans-serif; font-size: 12px; fill: rgb(36, 36, 36); fill-opacity: 1; white-space: pre; opacity: 1;" transform="translate(198.03,0)">2005</text></g><g class="xtick"><text text-anchor="middle" x="0" y="212" style="font-family: 'Open Sans', verdana, arial, sans-serif; font-size: 12px; fill: rgb(36, 36, 36); fill-opacity: 1; white-space: pre; opacity: 1;" transform="translate(277.97,0)">2006</text></g><g class="xtick"><text text-anchor="middle" x="0" y="212" style="font-family: 'Open Sans', verdana, arial, sans-serif; font-size: 12px; fill: rgb(36, 36, 36); fill-opacity: 1; white-space: pre; opacity: 1;" transform="translate(357.91,0)">2007</text></g><g class="xtick"><text text-anchor="middle" x="0" y="212" style="font-family: 'Open Sans', verdana, arial, sans-serif; font-size: 12px; fill: rgb(36, 36, 36); fill-opacity: 1; white-space: pre; opacity: 1;" transform="translate(437.85,0)">2008</text></g></g><g class="yaxislayer-above"><g class="ytick"><text text-anchor="end" x="63" y="4.199999999999999" transform="translate(0,146.32)" style="font-family: 'Open Sans', verdana, arial, sans-serif; font-size: 12px; fill: rgb(36, 36, 36); fill-opacity: 1; white-space: pre; opacity: 1;">0.5M</text></g><g class="ytick"><text text-anchor="end" x="63" y="4.199999999999999" style="font-family: 'Open Sans', verdana, arial, sans-serif; font-size: 12px; fill: rgb(36, 36, 36); fill-opacity: 1; white-space: pre; opacity: 1;" transform="translate(0,78.9)">1M</text></g></g><g class="overaxes-above"/></g></g><g class="polarlayer"/><g class="smithlayer"/><g class="ternarylayer"/><g class="geolayer"/><g class="funnelarealayer"/><g class="pielayer"/><g class="iciclelayer"/><g class="treemaplayer"/><g class="sunburstlayer"/><g class="glimages"/><defs id="topdefs-0584fd"><g class="clips"/><clipPath id="legend0584fd"><rect width="70" height="124" x="0" y="0"/></clipPath></defs><g class="layer-above"><g class="imagelayer"/><g class="shapelayer"/></g><g class="infolayer"><g class="legend" pointer-events="all" transform="translate(519.94,30)"><rect class="bg" shape-rendering="crispEdges" style="stroke: rgb(68, 68, 68); stroke-opacity: 1; fill: rgb(255, 255, 255); fill-opacity: 1; stroke-width: 0px;" width="70" height="124" x="0" y="0"/><g class="scrollbox" transform="" clip-path="url(#legend0584fd)"><text class="legendtitletext" text-anchor="start" x="2" y="18.2" style="font-family: 'Open Sans', verdana, arial, sans-serif; font-size: 14px; fill: rgb(36, 36, 36); fill-opacity: 1; white-space: pre;">percentile</text><g class="groups" transform=""><g class="traces" transform="translate(0,32.7)" style="opacity: 1;"><text class="legendtext" text-anchor="start" x="40" y="4.680000000000001" style="font-family: 'Open Sans', verdana, arial, sans-serif; font-size: 12px; fill: rgb(36, 36, 36); fill-opacity: 1; white-space: pre;">10</text><g class="layers" style="opacity: 1;"><g class="legendfill"/><g class="legendlines"><path class="js-line" d="M5,0h30" style="fill: none; stroke: rgb(0, 0, 4); stroke-opacity: 1; stroke-width: 2px;"/></g><g class="legendsymbols"><g class="legendpoints"/></g></g><rect class="legendtoggle" x="0" y="-9.5" width="53.734375" height="19" style="fill: rgb(0, 0, 0); fill-opacity: 0;"/></g></g><g class="groups" transform=""><g class="traces" transform="translate(0,51.7)" style="opacity: 1;"><text class="legendtext" text-anchor="start" x="40" y="4.680000000000001" style="font-family: 'Open Sans', verdana, arial, sans-serif; font-size: 12px; fill: rgb(36, 36, 36); fill-opacity: 1; white-space: pre;">30</text><g class="layers" style="opacity: 1;"><g class="legendfill"/><g class="legendlines"><path class="js-line" d="M5,0h30" style="fill: none; stroke: rgb(27, 12, 65); stroke-opacity: 1; stroke-width: 2px;"/></g><g class="legendsymbols"><g class="legendpoints"/></g></g><rect class="legendtoggle" x="0" y="-9.5" width="53.734375" height="19" style="fill: rgb(0, 0, 0); fill-opacity: 0;"/></g></g><g class="groups" transform=""><g class="traces" transform="translate(0,70.7)" style="opacity: 1;"><text class="legendtext" text-anchor="start" x="40" y="4.680000000000001" style="font-family: 'Open Sans', verdana, arial, sans-serif; font-size: 12px; fill: rgb(36, 36, 36); fill-opacity: 1; white-space: pre;">50</text><g class="layers" style="opacity: 1;"><g class="legendfill"/><g class="legendlines"><path class="js-line" d="M5,0h30" style="fill: none; stroke: rgb(74, 12, 107); stroke-opacity: 1; stroke-width: 2px;"/></g><g class="legendsymbols"><g class="legendpoints"/></g></g><rect class="legendtoggle" x="0" y="-9.5" width="53.734375" height="19" style="fill: rgb(0, 0, 0); fill-opacity: 0;"/></g></g><g class="groups" transform=""><g class="traces" transform="translate(0,89.7)" style="opacity: 1;"><text class="legendtext" text-anchor="start" x="40" y="4.680000000000001" style="font-family: 'Open Sans', verdana, arial, sans-serif; font-size: 12px; fill: rgb(36, 36, 36); fill-opacity: 1; white-space: pre;">70</text><g class="layers" style="opacity: 1;"><g class="legendfill"/><g class="legendlines"><path class="js-line" d="M5,0h30" style="fill: none; stroke: rgb(120, 28, 109); stroke-opacity: 1; stroke-width: 2px;"/></g><g class="legendsymbols"><g class="legendpoints"/></g></g><rect class="legendtoggle" x="0" y="-9.5" width="53.734375" height="19" style="fill: rgb(0, 0, 0); fill-opacity: 0;"/></g></g><g class="groups" transform=""><g class="traces" transform="translate(0,108.7)" style="opacity: 1;"><text class="legendtext" text-anchor="start" x="40" y="4.680000000000001" style="font-family: 'Open Sans', verdana, arial, sans-serif; font-size: 12px; fill: rgb(36, 36, 36); fill-opacity: 1; white-space: pre;">90</text><g class="layers" style="opacity: 1;"><g class="legendfill"/><g class="legendlines"><path class="js-line" d="M5,0h30" style="fill: none; stroke: rgb(165, 44, 96); stroke-opacity: 1; stroke-width: 2px;"/></g><g class="legendsymbols"><g class="legendpoints"/></g></g><rect class="legendtoggle" x="0" y="-9.5" width="53.734375" height="19" style="fill: rgb(0, 0, 0); fill-opacity: 0;"/></g></g></g><rect class="scrollbar" rx="20" ry="3" width="0" height="0" style="fill: rgb(128, 139, 164); fill-opacity: 1;" x="0" y="0"/></g><g class="g-gtitle"><text class="gtitle" x="300" y="15" text-anchor="middle" dy="0em" style="font-family: 'Open Sans', verdana, arial, sans-serif; font-size: 17px; fill: rgb(36, 36, 36); opacity: 1; font-weight: normal; white-space: pre;">House Sale Prices, Split By Percentile</text></g><g class="g-xtitle"><text class="xtitle" x="287.5" y="240.3" text-anchor="middle" style="font-family: 'Open Sans', verdana, arial, sans-serif; font-size: 14px; fill: rgb(36, 36, 36); opacity: 1; font-weight: normal; white-space: pre;">date</text></g><g class="g-ytitle" transform="translate(4.5498046875,0)"><text class="ytitle" transform="rotate(-90,10.450000000000003,114.5)" x="10.450000000000003" y="114.5" text-anchor="middle" style="font-family: 'Open Sans', verdana, arial, sans-serif; font-size: 14px; fill: rgb(36, 36, 36); opacity: 1; font-weight: normal; white-space: pre;">price</text></g></g></svg>