<svg class="main-svg" xmlns="http://www.w3.org/2000/svg" xmlns:xlink="http://www.w3.org/1999/xlink" width="600" height="250" style="" viewBox="0 0 600 250"><rect x="0" y="0" width="600" height="250" style="fill: rgb(255, 255, 255); fill-opacity: 1;"/><defs id="defs-eb4281"><g class="clips"><clipPath id="clipeb4281xyplot" class="plotclip"><rect width="458" height="169"/></clipPath><clipPath class="axesclip" id="clipeb4281x"><rect x="53" y="0" width="458" height="250"/></clipPath><clipPath class="axesclip" id="clipeb4281y"><rect x="0" y="30" width="600" height="169"/></clipPath><clipPath class="axesclip" id="clipeb4281xy"><rect x="53" y="30" width="458" height="169"/></clipPath></g><g class="gradients"/><g class="patterns"/></defs><g class="bglayer"><rect class="bg" x="53" y="30" width="458" height="169" style="fill: rgb(234, 234, 242); fill-opacity: 1; stroke-width: 0;"/></g><g class="layer-below"><g class="imagelayer"/><g class="shapelayer"/></g><g class="cartesianlayer"><g class="subplot xy"><g class="layer-subplot"><g class="shapelayer"/><g class="imagelayer"/></g><g class="gridlayer"><g class="x"><path class="xgrid crisp" transform="translate(108.2,0)" d="M0,30v169" style="stroke: rgb(255, 255, 255); stroke-opacity: 1; stroke-width: 1px;"/><path class="xgrid crisp" transform="translate(190.33,0)" d="M0,30v169" style="stroke: rgb(255, 255, 255); stroke-opacity: 1; stroke-width: 1px;"/><path class="xgrid crisp" transform="translate(272.24,0)" d="M0,30v169" style="stroke: rgb(255, 255, 255); stroke-opacity: 1; stroke-width: 1px;"/><path class="xgrid crisp" transform="translate(354.14,0)" d="M0,30v169" style="stroke: rgb(255, 255, 255); stroke-opacity: 1; stroke-width: 1px;"/><path class="xgrid crisp" transform="translate(436.05,0)" d="M0,30v169" style="stroke: rgb(255, 255, 255); stroke-opacity: 1; stroke-width: 1px;"/></g><g class="y"><path class="ygrid crisp" transform="translate(0,139.89)" d="M53,0h458" style="stroke: rgb(255, 255, 255); stroke-opacity: 1; stroke-width: 1px;"/><path class="ygrid crisp" transform="translate(0,62.08)" d="M53,0h458" style="stroke: rgb(255, 255, 255); stroke-opacity: 1; stroke-width: 1px;"/></g></g><g class="zerolinelayer"/><path class="xlines-below"/><path class="ylines-below"/><g class="overlines-below"/><g class="xaxislayer-below"/><g class="yaxislayer-below"/><g class="overaxes-below"/><g class="plot" transform="translate(53,30)" clip-path="url(#clipeb4281xyplot)"><g class="scatterlayer mlayer"><g class="trace scatter traceb48a6f" style="stroke-miterlimit: 2; opacity: 1;"><g class="fills"/><g class="errorbars"/><g class="lines"><path class="js-line" d="M0,109.89L13.69,103.79L20.64,105.32L27.6,98.3L34.33,98.3L41.29,98.6L48.02,94.64L54.98,94.64L61.93,91.59L68.44,97.08L75.4,94.64L82.13,90.98L89.09,82.43L95.82,78.16L102.78,76.33L109.73,74.8L116.46,71.45L123.42,70.22L130.15,67.17L137.11,64.12L144.06,64.12L150.35,67.17L157.3,61.07L164.04,54.97L170.99,45.81L177.72,39.71L184.68,36.66L191.64,33.61L198.37,23.23L205.33,24.45L212.06,24.45L219.01,30.56L225.97,29.33L232.25,30.56L239.21,30.86L245.94,33.61L252.9,26.59L259.63,26.89L266.59,28.11L273.54,24.45L280.28,27.5L293.96,28.11L300.92,25.98L307.88,22.01L314.16,36.66L321.12,36.66L327.85,30.56L341.54,30.56L348.49,24.45L355.45,30.56L362.18,40.93L369.14,52.83L375.87,51.92L389.78,70.84L396.29,82.43L403.25,100.74L409.98,112.95L416.93,119.05L423.67,128.2L430.62,131.87L437.58,144.07L444.31,155.67L451.27,160.55L458,160.24" style="vector-effect: non-scaling-stroke; fill: none; stroke: rgb(0, 0, 4); stroke-opacity: 1; stroke-width: 2px; opacity: 1;"/></g><g class="points"/><g class="text"/></g><g class="trace scatter trace9126ba" style="stroke-miterlimit: 2; opacity: 1;"><g class="fills"/><g class="errorbars"/><g class="lines"><path class="js-line" d="M0,109.89L13.69,100.74L20.64,100.74L27.6,96.16L34.33,96.16L41.29,96.16L48.02,93.87L54.98,91.59L61.93,90.44L68.44,91.59L75.4,89.3L82.13,84.72L89.09,77.85L95.82,72.82L102.78,70.99L109.73,68.7L116.46,68.7L123.42,68.7L130.15,64.12L137.11,64.12L144.06,61.83L150.35,65.04L157.3,55.88L177.72,36.66L184.68,33.91L191.64,27.96L198.37,23.84L205.33,28.42L212.06,25.21L219.01,26.59L225.97,29.79L232.25,31.17L239.21,29.79L245.94,29.79L252.9,22.01L259.63,22.93L266.59,22.93L273.54,21.55L280.28,25.21L293.96,29.79L300.92,27.5L307.88,25.21L314.16,32.08L321.12,36.66L327.85,22.93L334.8,19.26L341.54,18.35L348.49,16.52L355.45,16.06L362.18,24.3L369.14,36.66L382.83,45.81L389.78,61.83L396.29,70.99L403.25,82.43L416.93,100.74L423.67,105.78L430.62,112.18L437.58,125.92L444.31,132.78L451.27,141.94L458,142.85" style="vector-effect: non-scaling-stroke; fill: none; stroke: rgb(27, 12, 65); stroke-opacity: 1; stroke-width: 2px; opacity: 1;"/></g><g class="points"/><g class="text"/></g><g class="trace scatter trace431073" style="stroke-miterlimit: 2; opacity: 1;"><g class="fills"/><g class="errorbars"/><g class="lines"><path class="js-line" d="M0,109.89L6.96,104.72L13.69,101.02L20.64,99.17L27.6,95.85L34.33,97.14L41.29,95.85L48.02,96.4L54.98,93.63L61.93,92.15L68.44,94.74L75.4,91.78L82.13,86.24L89.09,80.69L95.82,73.3L109.73,69.6L116.46,71.45L123.42,73.3L130.15,65.9L137.11,65.9L144.06,62.95L150.35,65.17L157.3,55.18L164.04,51.49L170.99,43.73L177.72,38.55L184.68,35.41L198.37,28.94L205.33,34.48L212.06,30.6L219.01,30.79L225.97,34.48L232.25,36.33L239.21,32.64L245.94,30.79L252.9,27.09L259.63,25.24L266.59,26.35L273.54,25.24L287.23,32.64L293.96,32.27L307.88,32.27L314.16,34.48L321.12,34.85L327.85,23.39L334.8,16.74L341.54,14.89L348.49,14.15L355.45,15.08L362.18,21.55L369.14,32.08L375.87,27.28L382.83,34.48L389.78,49.82L396.29,62.21L403.25,65.9L409.98,79.58L416.93,84.39L423.67,91.78L430.62,97.33L437.58,108.42L444.31,117.66L451.27,128.75L458,130.6" style="vector-effect: non-scaling-stroke; fill: none; stroke: rgb(74, 12, 107); stroke-opacity: 1; stroke-width: 2px; opacity: 1;"/></g><g class="points"/><g class="text"/></g><g class="trace scatter tracef55abd" style="stroke-miterlimit: 2; opacity: 1;"><g class="fills"/><g class="errorbars"/><g class="lines"><path class="js-line" d="M0,109.89L6.96,106.11L13.69,105.53L20.64,101.17L27.6,98.26L41.29,99.71L48.02,101.46L54.98,98.26L61.93,96.8L68.44,98.26L75.4,95.64L82.13,90.99L89.09,83.71L95.82,78.48L102.78,76.44L109.73,76.44L116.46,77.9L123.42,81.39L130.15,74.99L144.06,72.81L150.35,74.55L157.3,62.77L164.04,56.66L170.99,50.26L177.72,50.26L191.64,44.01L198.37,43.86L205.33,48.66L212.06,47.35L219.01,45.32L225.97,48.23L232.25,48.81L239.21,46.04L245.94,45.17L252.9,40.08L259.63,37.46L266.59,38.63L273.54,38.63L280.28,43.72L287.23,45.9L293.96,45.9L300.92,47.35L307.88,49.68L314.16,50.26L321.12,47.35L327.85,34.41L334.8,25.54L341.54,24.52L348.49,18.26L355.45,18.26L362.18,25.54L369.14,34.26L375.87,29.9L382.83,32.81L389.78,47.35L396.29,56.08L403.25,54.63L409.98,69.17L416.93,72.08L423.67,72.08L430.62,76.44L437.58,89.53L444.31,97.39L451.27,113.53L458,115.71" style="vector-effect: non-scaling-stroke; fill: none; stroke: rgb(120, 28, 109); stroke-opacity: 1; stroke-width: 2px; opacity: 1;"/></g><g class="points"/><g class="text"/></g><g class="trace scatter trace1e7b9c" style="stroke-miterlimit: 2; opacity: 1;"><g class="fills"/><g class="errorbars"/><g class="lines"><path class="js-line" d="M0,109.89L6.96,107.32L13.69,107.32L20.64,105.54L27.6,97.44L34.33,104.36L41.29,105.35L48.02,108.31L54.98,103.76L68.44,103.37L75.4,101.39L82.13,96.45L89.09,89.53L95.82,81.62L102.78,83.79L109.73,83.99L116.46,87.55L123.42,91.41L130.15,83.79L137.11,83.99L144.06,81.62L150.35,83.59L157.3,65.9L164.04,58.68L170.99,52.94L177.72,54.92L184.68,52.45L191.64,43.06L198.37,48L205.33,60.85L212.06,48.2L219.01,51.26L225.97,58.48L232.25,60.85L239.21,58.08L245.94,48.99L252.9,38.11L259.63,36.13L266.59,32.38L273.54,38.11L280.28,50.97L287.23,57.59L293.96,48L307.88,67.77L314.16,55.91L321.12,48.99L327.85,27.24L334.8,18.54L341.54,13.39L348.49,8.45L355.45,13.39L369.14,28.22L375.87,18.34L382.83,21.3L389.78,36.13L396.29,42.07L403.25,30.6L409.98,48L416.93,45.03L423.67,36.53L430.62,54.92L437.58,72.72L444.31,77.66L451.27,92.49L458,99.12" style="vector-effect: non-scaling-stroke; fill: none; stroke: rgb(165, 44, 96); stroke-opacity: 1; stroke-width: 2px; opacity: 1;"/></g><g class="points"/><g class="text"/></g></g></g><g class="overplot"/><path class="xlines-above crisp" d="M0,0" style="fill: none;"/><path class="ylines-above crisp" d="M0,0" style="fill: none;"/><g class="overlines-above"/><g class="xaxislayer-above"><g class="xtick"><text text-anchor="middle" x="0" y="212" transform="translate(108.2,0)" style="font-family: 'Open Sans', verdana, arial, sans-serif; font-size: 12px; fill: rgb(36, 36, 36); fill-opacity: 1; white-space: pre; opacity: 1;">2004</text></g><g class="xtick"><text text-anchor="middle" x="0" y="212" style="font-family: 'Open Sans', verdana, arial, sans-serif; font-size: 12px; fill: rgb(36, 36, 36); fill-opacity: 1; white-space: pre; opacity: 1;" transform="translate(190.33,0)">2005</text></g><g class="xtick"><text text-anchor="middle" x="0" y="212" style="font-family: 'Open Sans', verdana, arial, sans-serif; font-size: 12px; fill: rgb(36, 36, 36); fill-opacity: 1; white-space: pre; opacity: 1;" transform="translate(272.24,0)">2006</text></g><g class="xtick"><text text-anchor="middle" x="0" y="212" style="font-family: 'Open Sans', verdana, arial, sans-serif; font-size: 12px; fill: rgb(36, 36, 36); fill-opacity: 1; white-space: pre; opacity: 1;" transform="translate(354.14,0)">2007</text></g><g class="xtick"><text text-anchor="middle" x="0" y="212" style="font-family: 'Open Sans', verdana, arial, sans-serif; font-size: 12px; fill: rgb(36, 36, 36); fill-opacity: 1; white-space: pre; opacity: 1;" transform="translate(436.05,0)">2008</text></g></g><g class="yaxislayer-above"><g class="ytick"><text text-anchor="end" x="52" y="4.199999999999999" transform="translate(0,139.89)" style="font-family: 'Open Sans', verdana, arial, sans-serif; font-size: 12px; fill: rgb(36, 36, 36); fill-opacity: 1; white-space: pre; opacity: 1;">1</text></g><g class="ytick"><text text-anchor="end" x="52" y="4.199999999999999" style="font-family: 'Open Sans', verdana, arial, sans-serif; font-size: 12px; fill: rgb(36, 36, 36); fill-opacity: 1; white-space: pre; opacity: 1;" transform="translate(0,62.08)">1.5</text></g></g><g class="overaxes-above"/></g></g><g class="polarlayer"/><g class="smithlayer"/><g class="ternarylayer"/><g class="geolayer"/><g class="funnelarealayer"/><g class="pielayer"/><g class="iciclelayer"/><g class="treemaplayer"/><g class="sunburstlayer"/><g class="glimages"/><defs id="topdefs-eb4281"><g class="clips"/><clipPath id="legendeb4281"><rect width="70" height="124" x="0" y="0"/></clipPath></defs><g class="layer-above"><g class="imagelayer"/><g class="shapelayer"/></g><g class="infolayer"><g class="legend" pointer-events="all" transform="translate(520.1600000000001,30)"><rect class="bg" shape-rendering="crispEdges" width="70" height="124" x="0" y="0" style="stroke: rgb(68, 68, 68); stroke-opacity: 1; fill: rgb(255, 255, 255); fill-opacity: 1; stroke-width: 0px;"/><g class="scrollbox" transform="" clip-path="url(#legendeb4281)"><text class="legendtitletext" text-anchor="start" x="2" y="18.2" style="font-family: 'Open Sans', verdana, arial, sans-serif; font-size: 14px; fill: rgb(36, 36, 36); fill-opacity: 1; white-space: pre;">percentile</text><g class="groups" transform=""><g class="traces" transform="translate(0,32.7)" style="opacity: 1;"><text class="legendtext" text-anchor="start" x="40" y="4.680000000000001" style="font-family: 'Open Sans', verdana, arial, sans-serif; font-size: 12px; fill: rgb(36, 36, 36); fill-opacity: 1; white-space: pre;">10</text><g class="layers" style="opacity: 1;"><g class="legendfill"/><g class="legendlines"><path class="js-line" d="M5,0h30" style="fill: none; stroke: rgb(0, 0, 4); stroke-opacity: 1; stroke-width: 2px;"/></g><g class="legendsymbols"><g class="legendpoints"/></g></g><rect class="legendtoggle" x="0" y="-9.5" width="53.734375" height="19" style="fill: rgb(0, 0, 0); fill-opacity: 0;"/></g></g><g class="groups" transform=""><g class="traces" transform="translate(0,51.7)" style="opacity: 1;"><text class="legendtext" text-anchor="start" x="40" y="4.680000000000001" style="font-family: 'Open Sans', verdana, arial, sans-serif; font-size: 12px; fill: rgb(36, 36, 36); fill-opacity: 1; white-space: pre;">30</text><g class="layers" style="opacity: 1;"><g class="legendfill"/><g class="legendlines"><path class="js-line" d="M5,0h30" style="fill: none; stroke: rgb(27, 12, 65); stroke-opacity: 1; stroke-width: 2px;"/></g><g class="legendsymbols"><g class="legendpoints"/></g></g><rect class="legendtoggle" x="0" y="-9.5" width="53.734375" height="19" style="fill: rgb(0, 0, 0); fill-opacity: 0;"/></g></g><g class="groups" transform=""><g class="traces" transform="translate(0,70.7)" style="opacity: 1;"><text class="legendtext" text-anchor="start" x="40" y="4.680000000000001" style="font-family: 'Open Sans', verdana, arial, sans-serif; font-size: 12px; fill: rgb(36, 36, 36); fill-opacity: 1; white-space: pre;">50</text><g class="layers" style="opacity: 1;"><g class="legendfill"/><g class="legendlines"><path class="js-line" d="M5,0h30" style="fill: none; stroke: rgb(74, 12, 107); stroke-opacity: 1; stroke-width: 2px;"/></g><g class="legendsymbols"><g class="legendpoints"/></g></g><rect class="legendtoggle" x="0" y="-9.5" width="53.734375" height="19" style="fill: rgb(0, 0, 0); fill-opacity: 0;"/></g></g><g class="groups" transform=""><g class="traces" transform="translate(0,89.7)" style="opacity: 1;"><text class="legendtext" text-anchor="start" x="40" y="4.680000000000001" style="font-family: 'Open Sans', verdana, arial, sans-serif; font-size: 12px; fill: rgb(36, 36, 36); fill-opacity: 1; white-space: pre;">70</text><g class="layers" style="opacity: 1;"><g class="legendfill"/><g class="legendlines"><path class="js-line" d="M5,0h30" style="fill: none; stroke: rgb(120, 28, 109); stroke-opacity: 1; stroke-width: 2px;"/></g><g class="legendsymbols"><g class="legendpoints"/></g></g><rect class="legendtoggle" x="0" y="-9.5" width="53.734375" height="19" style="fill: rgb(0, 0, 0); fill-opacity: 0;"/></g></g><g class="groups" transform=""><g class="traces" transform="translate(0,108.7)" style="opacity: 1;"><text class="legendtext" text-anchor="start" x="40" y="4.680000000000001" style="font-family: 'Open Sans', verdana, arial, sans-serif; font-size: 12px; fill: rgb(36, 36, 36); fill-opacity: 1; white-space: pre;">90</text><g class="layers" style="opacity: 1;"><g class="legendfill"/><g class="legendlines"><path class="js-line" d="M5,0h30" style="fill: none; stroke: rgb(165, 44, 96); stroke-opacity: 1; stroke-width: 2px;"/></g><g class="legendsymbols"><g class="legendpoints"/></g></g><rect class="legendtoggle" x="0" y="-9.5" width="53.734375" height="19" style="fill: rgb(0, 0, 0); fill-opacity: 0;"/></g></g></g><rect class="scrollbar" rx="20" ry="3" width="0" height="0" x="0" y="0" style="fill: rgb(128, 139, 164); fill-opacity: 1;"/></g><g class="g-gtitle"><text class="gtitle" x="300" y="15" text-anchor="middle" dy="0em" style="font-family: 'Open Sans', verdana, arial, sans-serif; font-size: 17px; fill: rgb(36, 36, 36); opacity: 1; font-weight: normal; white-space: pre;">House Sale Prices, Relative to April 2003</text></g><g class="g-xtitle"><text class="xtitle" x="282" y="240.3" text-anchor="middle" style="font-family: 'Open Sans', verdana, arial, sans-serif; font-size: 14px; fill: rgb(36, 36, 36); opacity: 1; font-weight: normal; white-space: pre;">date</text></g><g class="g-ytitle" transform="translate(4.7216796875,0)"><text class="ytitle" transform="rotate(-90,10.278125000000003,114.5)" x="10.278125000000003" y="114.5" text-anchor="middle" style="font-family: 'Open Sans', verdana, arial, sans-serif; font-size: 14px; fill: rgb(36, 36, 36); opacity: 1; font-weight: normal; white-space: pre;">rel_price</text></g></g></svg>