<svg class="main-svg" xmlns="http://www.w3.org/2000/svg" xmlns:xlink="http://www.w3.org/1999/xlink" width="600" height="250" style="" viewBox="0 0 600 250"><rect x="0" y="0" width="600" height="250" style="fill: rgb(255, 255, 255); fill-opacity: 1;"/><defs id="defs-e10885"><g class="clips"><clipPath id="clipe10885xyplot" class="plotclip"><rect width="452" height="170"/></clipPath><clipPath class="axesclip" id="clipe10885x"><rect x="55" y="0" width="452" height="250"/></clipPath><clipPath class="axesclip" id="clipe10885y"><rect x="0" y="30" width="600" height="170"/></clipPath><clipPath class="axesclip" id="clipe10885xy"><rect x="55" y="30" width="452" height="170"/></clipPath></g><g class="gradients"/><g class="patterns"/></defs><g class="bglayer"><rect class="bg" x="55" y="30" width="452" height="170" style="fill: rgb(234, 234, 242); fill-opacity: 1; stroke-width: 0;"/></g><g class="layer-below"><g class="imagelayer"/><g class="shapelayer"/></g><g class="cartesianlayer"><g class="subplot xy"><g class="layer-subplot"><g class="shapelayer"/><g class="imagelayer"/></g><g class="gridlayer"><g class="x"><path class="xgrid crisp" transform="translate(109.47999999999999,0)" d="M0,30v170" style="stroke: rgb(255, 255, 255); stroke-opacity: 1; stroke-width: 1px;"/><path class="xgrid crisp" transform="translate(190.53,0)" d="M0,30v170" style="stroke: rgb(255, 255, 255); stroke-opacity: 1; stroke-width: 1px;"/><path class="xgrid crisp" transform="translate(271.37,0)" d="M0,30v170" style="stroke: rgb(255, 255, 255); stroke-opacity: 1; stroke-width: 1px;"/><path class="xgrid crisp" transform="translate(352.2,0)" d="M0,30v170" style="stroke: rgb(255, 255, 255); stroke-opacity: 1; stroke-width: 1px;"/><path class="xgrid crisp" transform="translate(433.03,0)" d="M0,30v170" style="stroke: rgb(255, 255, 255); stroke-opacity: 1; stroke-width: 1px;"/></g><g class="y"><path class="ygrid crisp" transform="translate(0,140.54000000000002)" d="M55,0h452" style="stroke: rgb(255, 255, 255); stroke-opacity: 1; stroke-width: 1px;"/><path class="ygrid crisp" transform="translate(0,62.27)" d="M55,0h452" style="stroke: rgb(255, 255, 255); stroke-opacity: 1; stroke-width: 1px;"/></g></g><g class="zerolinelayer"/><path class="xlines-below"/><path class="ylines-below"/><g class="overlines-below"/><g class="xaxislayer-below"/><g class="yaxislayer-below"/><g class="overaxes-below"/><g class="plot" transform="translate(55,30)" clip-path="url(#clipe10885xyplot)"><g class="scatterlayer mlayer"><g class="trace scatter trace68e696" style="stroke-miterlimit: 2; opacity: 1;"><g class="fills"/><g class="errorbars"/><g class="lines"><path class="js-line" d="M0,110.54L13.51,104.41L20.37,105.94L27.24,98.88L33.88,98.88L40.75,99.19L47.39,95.2L54.26,95.2L61.12,92.13L67.55,97.65L74.41,95.2L81.05,91.51L87.92,82.92L94.56,78.62L101.43,76.78L108.29,75.24L114.94,71.87L121.8,70.64L128.45,67.57L135.31,64.5L142.18,64.5L148.38,67.57L155.24,61.43L161.89,55.29L168.75,46.08L175.4,39.94L182.26,36.88L189.13,33.81L195.77,23.37L202.64,24.6L209.28,24.6L216.15,30.74L223.01,29.51L229.21,30.74L236.08,31.04L242.72,33.81L249.59,26.75L256.23,27.05L263.09,28.28L269.96,24.6L276.6,27.67L290.11,28.28L296.98,26.13L303.84,22.14L310.04,36.88L316.91,36.88L323.55,30.74L337.06,30.74L343.93,24.6L350.79,30.74L357.44,41.17L364.3,53.14L370.95,52.22L384.68,71.25L391.1,82.92L397.96,101.34L404.61,113.61L411.47,119.75L418.12,128.96L424.98,132.65L431.85,144.92L438.49,156.59L445.36,161.5L452,161.19" style="vector-effect: non-scaling-stroke; fill: none; stroke: rgb(0, 0, 4); stroke-opacity: 1; stroke-width: 2px; opacity: 1;"/></g><g class="points"/><g class="text"/></g><g class="trace scatter trace6d0f7a" style="stroke-miterlimit: 2; opacity: 1;"><g class="fills"/><g class="errorbars"/><g class="lines"><path class="js-line" d="M0,110.54L13.51,101.34L20.37,101.34L27.24,96.73L33.88,96.73L40.75,96.73L47.39,94.43L54.26,92.13L61.12,90.98L67.55,92.13L74.41,89.83L81.05,85.22L87.92,78.31L94.56,73.25L101.43,71.41L108.29,69.11L114.94,69.11L121.8,69.11L128.45,64.5L135.31,64.5L142.18,62.2L148.38,65.42L155.24,56.21L175.4,36.88L182.26,34.11L189.13,28.13L195.77,23.98L202.64,28.59L209.28,25.36L216.15,26.75L223.01,29.97L229.21,31.35L236.08,29.97L242.72,29.97L249.59,22.14L256.23,23.06L263.09,23.06L269.96,21.68L276.6,25.36L290.11,29.97L296.98,27.67L303.84,25.36L310.04,32.27L316.91,36.88L323.55,23.06L330.42,19.38L337.06,18.46L343.93,16.62L350.79,16.16L357.44,24.44L364.3,36.88L377.81,46.08L384.68,62.2L391.1,71.41L397.96,82.92L411.47,101.34L418.12,106.4L424.98,112.85L431.85,126.66L438.49,133.57L445.36,142.78L452,143.7" style="vector-effect: non-scaling-stroke; fill: none; stroke: rgb(27, 12, 65); stroke-opacity: 1; stroke-width: 2px; opacity: 1;"/></g><g class="points"/><g class="text"/></g><g class="trace scatter tracedc6212" style="stroke-miterlimit: 2; opacity: 1;"><g class="fills"/><g class="errorbars"/><g class="lines"><path class="js-line" d="M0,110.54L6.87,105.34L13.51,101.62L20.37,99.76L27.24,96.41L33.88,97.72L40.75,96.41L47.39,96.97L54.26,94.18L61.12,92.7L67.55,95.3L74.41,92.32L81.05,86.75L87.92,81.17L94.56,73.73L108.29,70.01L114.94,71.87L121.8,73.73L128.45,66.29L135.31,66.29L142.18,63.32L148.38,65.55L155.24,55.51L161.89,51.79L168.75,43.98L175.4,38.78L182.26,35.62L195.77,29.11L202.64,34.69L209.28,30.78L216.15,30.97L223.01,34.69L229.21,36.55L236.08,32.83L242.72,30.97L249.59,27.25L256.23,25.39L263.09,26.51L269.96,25.39L283.47,32.83L290.11,32.46L303.84,32.46L310.04,34.69L316.91,35.06L323.55,23.53L330.42,16.84L337.06,14.98L343.93,14.24L350.79,15.17L357.44,21.67L364.3,32.27L370.95,27.44L377.81,34.69L384.68,50.12L391.1,62.58L397.96,66.29L404.61,80.05L411.47,84.89L418.12,92.32L424.98,97.9L431.85,109.06L438.49,118.35L445.36,129.51L452,131.37" style="vector-effect: non-scaling-stroke; fill: none; stroke: rgb(74, 12, 107); stroke-opacity: 1; stroke-width: 2px; opacity: 1;"/></g><g class="points"/><g class="text"/></g><g class="trace scatter tracef5daba" style="stroke-miterlimit: 2; opacity: 1;"><g class="fills"/><g class="errorbars"/><g class="lines"><path class="js-line" d="M0,110.54L6.87,106.74L13.51,106.16L20.37,101.77L27.24,98.84L40.75,100.3L47.39,102.06L54.26,98.84L61.12,97.38L67.55,98.84L74.41,96.21L81.05,91.53L87.92,84.21L94.56,78.94L101.43,76.89L108.29,76.89L114.94,78.36L121.8,81.87L128.45,75.43L142.18,73.24L148.38,74.99L155.24,63.14L161.89,57L168.75,50.56L175.4,50.56L189.13,44.27L195.77,44.12L202.64,48.95L209.28,47.63L216.15,45.58L223.01,48.51L229.21,49.1L236.08,46.32L242.72,45.44L249.59,40.32L256.23,37.68L263.09,38.85L269.96,38.85L276.6,43.98L283.47,46.17L290.11,46.17L296.98,47.63L303.84,49.97L310.04,50.56L316.91,47.63L323.55,34.61L330.42,25.69L337.06,24.66L343.93,18.37L350.79,18.37L357.44,25.69L364.3,34.47L370.95,30.08L377.81,33L384.68,47.63L391.1,56.41L397.96,54.95L404.61,69.58L411.47,72.51L418.12,72.51L424.98,76.89L431.85,90.06L438.49,97.96L445.36,114.2L452,116.4" style="vector-effect: non-scaling-stroke; fill: none; stroke: rgb(120, 28, 109); stroke-opacity: 1; stroke-width: 2px; opacity: 1;"/></g><g class="points"/><g class="text"/></g><g class="trace scatter traceb948c9" style="stroke-miterlimit: 2; opacity: 1;"><g class="fills"/><g class="errorbars"/><g class="lines"><path class="js-line" d="M0,110.54L6.87,107.96L13.51,107.96L20.37,106.17L27.24,98.01L33.88,104.98L40.75,105.97L47.39,108.95L54.26,104.38L67.55,103.98L74.41,101.99L81.05,97.02L87.92,90.06L94.56,82.1L101.43,84.29L108.29,84.49L114.94,88.07L121.8,91.95L128.45,84.29L135.31,84.49L142.18,82.1L148.38,84.09L155.24,66.29L161.89,59.03L168.75,53.26L175.4,55.25L182.26,52.76L189.13,43.31L195.77,48.28L202.64,61.21L209.28,48.48L216.15,51.57L223.01,58.83L229.21,61.21L236.08,58.43L242.72,49.28L249.59,38.34L256.23,36.35L263.09,32.57L269.96,38.34L276.6,51.27L283.47,57.93L290.11,48.28L303.84,68.18L310.04,56.24L316.91,49.28L323.55,27.4L330.42,18.64L337.06,13.47L343.93,8.5L350.79,13.47L364.3,28.39L370.95,18.45L377.81,21.43L384.68,36.35L391.1,42.32L397.96,30.78L404.61,48.28L411.47,45.3L418.12,36.75L424.98,55.25L431.85,73.15L438.49,78.12L445.36,93.04L452,99.7" style="vector-effect: non-scaling-stroke; fill: none; stroke: rgb(165, 44, 96); stroke-opacity: 1; stroke-width: 2px; opacity: 1;"/></g><g class="points"/><g class="text"/></g></g></g><g class="overplot"/><path class="xlines-above crisp" d="M0,0" style="fill: none;"/><path class="ylines-above crisp" d="M0,0" style="fill: none;"/><g class="overlines-above"/><g class="xaxislayer-above"><g class="xtick"><text text-anchor="middle" x="0" y="213" transform="translate(109.47999999999999,0)" style="font-family: 'Open Sans', verdana, arial, sans-serif; font-size: 12px; fill: rgb(36, 36, 36); fill-opacity: 1; white-space: pre; opacity: 1;">2004</text></g><g class="xtick"><text text-anchor="middle" x="0" y="213" style="font-family: 'Open Sans', verdana, arial, sans-serif; font-size: 12px; fill: rgb(36, 36, 36); fill-opacity: 1; white-space: pre; opacity: 1;" transform="translate(190.53,0)">2005</text></g><g class="xtick"><text text-anchor="middle" x="0" y="213" style="font-family: 'Open Sans', verdana, arial, sans-serif; font-size: 12px; fill: rgb(36, 36, 36); fill-opacity: 1; white-space: pre; opacity: 1;" transform="translate(271.37,0)">2006</text></g><g class="xtick"><text text-anchor="middle" x="0" y="213" style="font-family: 'Open Sans', verdana, arial, sans-serif; font-size: 12px; fill: rgb(36, 36, 36); fill-opacity: 1; white-space: pre; opacity: 1;" transform="translate(352.2,0)">2007</text></g><g class="xtick"><text text-anchor="middle" x="0" y="213" style="font-family: 'Open Sans', verdana, arial, sans-serif; font-size: 12px; fill: rgb(36, 36, 36); fill-opacity: 1; white-space: pre; opacity: 1;" transform="translate(433.03,0)">2008</text></g></g><g class="yaxislayer-above"><g class="ytick"><text text-anchor="end" x="54" y="4.199999999999999" transform="translate(0,140.54000000000002)" style="font-family: 'Open Sans', verdana, arial, sans-serif; font-size: 12px; fill: rgb(36, 36, 36); fill-opacity: 1; white-space: pre; opacity: 1;">1</text></g><g class="ytick"><text text-anchor="end" x="54" y="4.199999999999999" style="font-family: 'Open Sans', verdana, arial, sans-serif; font-size: 12px; fill: rgb(36, 36, 36); fill-opacity: 1; white-space: pre; opacity: 1;" transform="translate(0,62.27)">1.5</text></g></g><g class="overaxes-above"/></g></g><g class="polarlayer"/><g class="smithlayer"/><g class="ternarylayer"/><g class="geolayer"/><g class="funnelarealayer"/><g class="pielayer"/><g class="iciclelayer"/><g class="treemaplayer"/><g class="sunburstlayer"/><g class="glimages"/><defs id="topdefs-e10885"><g class="clips"/><clipPath id="legende10885"><rect width="74" height="124" x="0" y="0"/></clipPath></defs><g class="layer-above"><g class="imagelayer"/><g class="shapelayer"/></g><g class="infolayer"><g class="legend" pointer-events="all" transform="translate(516.04,30)"><rect class="bg" shape-rendering="crispEdges" width="74" height="124" x="0" y="0" style="stroke: rgb(68, 68, 68); stroke-opacity: 1; fill: rgb(255, 255, 255); fill-opacity: 1; stroke-width: 0px;"/><g class="scrollbox" transform="" clip-path="url(#legende10885)"><text class="legendtitletext" text-anchor="start" x="2" y="18.2" style="font-family: 'Open Sans', verdana, arial, sans-serif; font-size: 14px; fill: rgb(36, 36, 36); fill-opacity: 1; white-space: pre;">percentile</text><g class="groups" transform=""><g class="traces" transform="translate(0,32.7)" style="opacity: 1;"><text class="legendtext" text-anchor="start" x="40" y="4.680000000000001" style="font-family: 'Open Sans', verdana, arial, sans-serif; font-size: 12px; fill: rgb(36, 36, 36); fill-opacity: 1; white-space: pre;">10</text><g class="layers" style="opacity: 1;"><g class="legendfill"/><g class="legendlines"><path class="js-line" d="M5,0h30" style="fill: none; stroke: rgb(0, 0, 4); stroke-opacity: 1; stroke-width: 2px;"/></g><g class="legendsymbols"><g class="legendpoints"/></g></g><rect class="legendtoggle" x="0" y="-9.5" width="55.265625" height="19" style="fill: rgb(0, 0, 0); fill-opacity: 0;"/></g></g><g class="groups" transform=""><g class="traces" transform="translate(0,51.7)" style="opacity: 1;"><text class="legendtext" text-anchor="start" x="40" y="4.680000000000001" style="font-family: 'Open Sans', verdana, arial, sans-serif; font-size: 12px; fill: rgb(36, 36, 36); fill-opacity: 1; white-space: pre;">30</text><g class="layers" style="opacity: 1;"><g class="legendfill"/><g class="legendlines"><path class="js-line" d="M5,0h30" style="fill: none; stroke: rgb(27, 12, 65); stroke-opacity: 1; stroke-width: 2px;"/></g><g class="legendsymbols"><g class="legendpoints"/></g></g><rect class="legendtoggle" x="0" y="-9.5" width="55.265625" height="19" style="fill: rgb(0, 0, 0); fill-opacity: 0;"/></g></g><g class="groups" transform=""><g class="traces" transform="translate(0,70.7)" style="opacity: 1;"><text class="legendtext" text-anchor="start" x="40" y="4.680000000000001" style="font-family: 'Open Sans', verdana, arial, sans-serif; font-size: 12px; fill: rgb(36, 36, 36); fill-opacity: 1; white-space: pre;">50</text><g class="layers" style="opacity: 1;"><g class="legendfill"/><g class="legendlines"><path class="js-line" d="M5,0h30" style="fill: none; stroke: rgb(74, 12, 107); stroke-opacity: 1; stroke-width: 2px;"/></g><g class="legendsymbols"><g class="legendpoints"/></g></g><rect class="legendtoggle" x="0" y="-9.5" width="55.265625" height="19" style="fill: rgb(0, 0, 0); fill-opacity: 0;"/></g></g><g class="groups" transform=""><g class="traces" transform="translate(0,89.7)" style="opacity: 1;"><text class="legendtext" text-anchor="start" x="40" y="4.680000000000001" style="font-family: 'Open Sans', verdana, arial, sans-serif; font-size: 12px; fill: rgb(36, 36, 36); fill-opacity: 1; white-space: pre;">70</text><g class="layers" style="opacity: 1;"><g class="legendfill"/><g class="legendlines"><path class="js-line" d="M5,0h30" style="fill: none; stroke: rgb(120, 28, 109); stroke-opacity: 1; stroke-width: 2px;"/></g><g class="legendsymbols"><g class="legendpoints"/></g></g><rect class="legendtoggle" x="0" y="-9.5" width="55.265625" height="19" style="fill: rgb(0, 0, 0); fill-opacity: 0;"/></g></g><g class="groups" transform=""><g class="traces" transform="translate(0,108.7)" style="opacity: 1;"><text class="legendtext" text-anchor="start" x="40" y="4.680000000000001" style="font-family: 'Open Sans', verdana, arial, sans-serif; font-size: 12px; fill: rgb(36, 36, 36); fill-opacity: 1; white-space: pre;">90</text><g class="layers" style="opacity: 1;"><g class="legendfill"/><g class="legendlines"><path class="js-line" d="M5,0h30" style="fill: none; stroke: rgb(165, 44, 96); stroke-opacity: 1; stroke-width: 2px;"/></g><g class="legendsymbols"><g class="legendpoints"/></g></g><rect class="legendtoggle" x="0" y="-9.5" width="55.265625" height="19" style="fill: rgb(0, 0, 0); fill-opacity: 0;"/></g></g></g><rect class="scrollbar" rx="20" ry="3" width="0" height="0" x="0" y="0" style="fill: rgb(128, 139, 164); fill-opacity: 1;"/></g><g class="g-gtitle"><text class="gtitle" x="300" y="15" text-anchor="middle" dy="0em" style="font-family: 'Open Sans', verdana, arial, sans-serif; font-size: 17px; fill: rgb(36, 36, 36); opacity: 1; font-weight: normal; white-space: pre;">House Sale Prices, Relative to April 2003</text></g><g class="g-xtitle"><text class="xtitle" x="281" y="240.3" text-anchor="middle" style="font-family: 'Open Sans', verdana, arial, sans-serif; font-size: 14px; fill: rgb(36, 36, 36); opacity: 1; font-weight: normal; white-space: pre;">date</text></g><g class="g-ytitle" transform="translate(4.4248046875,0)"><text class="ytitle" transform="rotate(-90,9.575000000000003,115)" x="9.575000000000003" y="115" text-anchor="middle" style="font-family: 'Open Sans', verdana, arial, sans-serif; font-size: 14px; fill: rgb(36, 36, 36); opacity: 1; font-weight: normal; white-space: pre;">rel_price</text></g></g></svg>