<svg class="main-svg" xmlns="http://www.w3.org/2000/svg" xmlns:xlink="http://www.w3.org/1999/xlink" width="600" height="350" style="" viewBox="0 0 600 350"><rect x="0" y="0" width="600" height="350" style="fill: rgb(255, 255, 255); fill-opacity: 1;"/><defs id="defs-1d3da0"><g class="clips"><clipPath id="clip1d3da0xyplot" class="plotclip"><rect width="358" height="290"/></clipPath><clipPath class="axesclip" id="clip1d3da0x"><rect x="58" y="0" width="358" height="350"/></clipPath><clipPath class="axesclip" id="clip1d3da0y"><rect x="0" y="10" width="600" height="290"/></clipPath><clipPath class="axesclip" id="clip1d3da0xy"><rect x="58" y="10" width="358" height="290"/></clipPath></g><g class="gradients"/><g class="patterns"/></defs><g class="bglayer"><rect class="bg" x="58" y="10" width="358" height="290" style="fill: rgb(234, 234, 242); fill-opacity: 1; stroke-width: 0;"/></g><g class="layer-below"><g class="imagelayer"/><g class="shapelayer"/></g><g class="cartesianlayer"><g class="subplot xy"><g class="layer-subplot"><g class="shapelayer"/><g class="imagelayer"/></g><g class="gridlayer"><g class="x"><path class="xgrid crisp" transform="translate(115.74000000000001,0)" d="M0,10v290" style="stroke: rgb(255, 255, 255); stroke-opacity: 1; stroke-width: 1px;"/><path class="xgrid crisp" transform="translate(231.23,0)" d="M0,10v290" style="stroke: rgb(255, 255, 255); stroke-opacity: 1; stroke-width: 1px;"/><path class="xgrid crisp" transform="translate(346.71,0)" d="M0,10v290" style="stroke: rgb(255, 255, 255); stroke-opacity: 1; stroke-width: 1px;"/></g><g class="y"><path class="ygrid crisp" transform="translate(0,238.75)" d="M58,0h358" style="stroke: rgb(255, 255, 255); stroke-opacity: 1; stroke-width: 1px;"/><path class="ygrid crisp" transform="translate(0,177.5)" d="M58,0h358" style="stroke: rgb(255, 255, 255); stroke-opacity: 1; stroke-width: 1px;"/><path class="ygrid crisp" transform="translate(0,116.25)" d="M58,0h358" style="stroke: rgb(255, 255, 255); stroke-opacity: 1; stroke-width: 1px;"/><path class="ygrid crisp" transform="translate(0,55)" d="M58,0h358" style="stroke: rgb(255, 255, 255); stroke-opacity: 1; stroke-width: 1px;"/></g></g><g class="zerolinelayer"><path class="yzl zl crisp" transform="translate(0,300)" d="M58,0h358" style="stroke: rgb(255, 255, 255); stroke-opacity: 1; stroke-width: 1px;"/></g><path class="xlines-below"/><path class="ylines-below"/><g class="overlines-below"/><g class="xaxislayer-below"/><g class="yaxislayer-below"/><g class="overaxes-below"/><g class="plot" transform="translate(58,10)" clip-path="url(#clip1d3da0xyplot)"><g class="scatterlayer mlayer"><g class="trace scatter trace772d94" style="stroke-miterlimit: 2;"><g class="fills"><g><path class="js-fill" d="M358,290L0,290L0,288.11L109.71,286.29L115.48,285.88L184.77,285.14L190.55,285.2L225.19,284.34L230.97,284.63L254.06,284.37L259.84,284.24L306.03,283.15L311.81,283.22L334.9,283.09L340.68,283.53L358,283.35" style="fill: rgb(76, 114, 176); fill-opacity: 0.5; stroke-width: 0;"/></g><g><path class="js-fill" d="M0,287.15L40.42,284.67L46.19,281.38L51.97,278.94L57.74,278.12L63.52,280.91L69.29,282.13L80.84,281.79L86.61,281.14L92.39,280.48L98.16,281.3L109.71,279.23L115.48,276.43L138.58,273.77L144.35,272.04L150.13,271.23L155.9,269.27L161.68,267.1L167.45,266.54L184.77,266.6L190.55,265.64L196.32,263.69L202.1,262.96L213.65,259.72L219.42,257.37L236.74,254.34L242.52,252.54L248.29,249.74L254.06,247.81L259.84,244.32L265.61,243.19L271.39,243.19L277.16,242.04L282.94,242.91L288.71,239.2L294.48,237.86L300.26,234.83L317.58,210.43L323.35,203.26L329.13,197.21L334.9,195.04L340.68,190.28L346.45,183.42L352.23,173.06L358,169.27L358,283.35L340.68,283.53L334.9,283.09L311.81,283.22L306.03,283.15L259.84,284.24L254.06,284.37L230.97,284.63L225.19,284.34L190.55,285.2L184.77,285.14L115.48,285.88L109.71,286.29L0,288.11Z" style="fill: rgb(221, 132, 82); fill-opacity: 0.5; stroke-width: 0;"/></g></g><g class="errorbars"/><g class="lines"><path class="js-line" d="M0,288.11L109.71,286.29L115.48,285.88L184.77,285.14L190.55,285.2L225.19,284.34L230.97,284.63L254.06,284.37L259.84,284.24L306.03,283.15L311.81,283.22L334.9,283.09L340.68,283.53L358,283.35" style="vector-effect: non-scaling-stroke; fill: none; stroke: rgb(76, 114, 176); stroke-opacity: 1; stroke-width: 2px; opacity: 1;"/></g><g class="points"/><g class="text"/></g><g class="trace scatter trace00d9da" style="stroke-miterlimit: 2;"><g class="fills"><g><path class="js-fill" d="M0,280.89L11.55,278.99L17.32,278.77L40.42,275.14L46.19,272.12L51.97,269.68L57.74,268.15L63.52,270.69L69.29,271.31L92.39,268.82L98.16,269.83L103.94,268.53L109.71,266.34L115.48,263.86L121.26,263.37L132.81,260.91L138.58,260.89L150.13,258.3L155.9,256.53L161.68,253.87L167.45,252.72L179,254.34L184.77,254.31L190.55,253.33L196.32,251.12L207.87,249L213.65,247.16L219.42,244.87L225.19,244.01L230.97,243.99L236.74,242.79L242.52,241.44L248.29,238.73L254.06,236.93L259.84,233.47L265.61,232L271.39,232.36L277.16,231.28L282.94,232.53L288.71,228.85L294.48,227.31L300.26,224.43L306.03,216.31L317.58,200.42L323.35,193.08L329.13,187.43L334.9,185.18L340.68,181.12L346.45,173.79L352.23,163.74L358,159.79L358,169.27L352.23,173.06L346.45,183.42L340.68,190.28L334.9,195.04L329.13,197.21L323.35,203.26L317.58,210.43L300.26,234.83L294.48,237.86L288.71,239.2L282.94,242.91L277.16,242.04L271.39,243.19L265.61,243.19L259.84,244.32L254.06,247.81L248.29,249.74L242.52,252.54L236.74,254.34L219.42,257.37L213.65,259.72L202.1,262.96L196.32,263.69L190.55,265.64L184.77,266.6L167.45,266.54L161.68,267.1L155.9,269.27L150.13,271.23L144.35,272.04L138.58,273.77L115.48,276.43L109.71,279.23L98.16,281.3L92.39,280.48L86.61,281.14L80.84,281.79L69.29,282.13L63.52,280.91L57.74,278.12L51.97,278.94L46.19,281.38L40.42,284.67L0,287.15Z" style="fill: rgb(85, 168, 104); fill-opacity: 0.5; stroke-width: 0;"/></g></g><g class="errorbars"/><g class="lines"><path class="js-line" d="M0,287.15L40.42,284.67L46.19,281.38L51.97,278.94L57.74,278.12L63.52,280.91L69.29,282.13L80.84,281.79L86.61,281.14L92.39,280.48L98.16,281.3L109.71,279.23L115.48,276.43L138.58,273.77L144.35,272.04L150.13,271.23L155.9,269.27L161.68,267.1L167.45,266.54L184.77,266.6L190.55,265.64L196.32,263.69L202.1,262.96L213.65,259.72L219.42,257.37L236.74,254.34L242.52,252.54L248.29,249.74L254.06,247.81L259.84,244.32L265.61,243.19L271.39,243.19L277.16,242.04L282.94,242.91L288.71,239.2L294.48,237.86L300.26,234.83L317.58,210.43L323.35,203.26L329.13,197.21L334.9,195.04L340.68,190.28L346.45,183.42L352.23,173.06L358,169.27" style="vector-effect: non-scaling-stroke; fill: none; stroke: rgb(221, 132, 82); stroke-opacity: 1; stroke-width: 2px; opacity: 1;"/></g><g class="points"/><g class="text"/></g><g class="trace scatter trace0b193e" style="stroke-miterlimit: 2;"><g class="fills"><g><path class="js-fill" d="M0,280.08L11.55,278.09L17.32,277.85L40.42,273.93L46.19,270.85L51.97,268.34L57.74,266.67L63.52,269.09L69.29,269.55L92.39,266.73L98.16,267.74L109.71,264.02L115.48,261.49L127.03,259.52L132.81,258.26L138.58,258.04L144.35,256.76L155.9,253.19L161.68,250.7L167.45,249.29L173.23,249.88L184.77,249.99L190.55,248.72L196.32,246.07L202.1,244.97L213.65,240.93L219.42,238.24L225.19,236.86L230.97,236.45L242.52,233.02L248.29,230.05L254.06,227.78L259.84,223.56L265.61,221.55L271.39,221.36L277.16,220.09L282.94,220.51L288.71,216.23L294.48,214.47L300.26,211.15L306.03,202.64L317.58,184.92L323.35,176.36L329.13,169.17L334.9,165.85L340.68,159.32L346.45,151L352.23,139.85L358,134.37L358,159.79L352.23,163.74L346.45,173.79L340.68,181.12L334.9,185.18L329.13,187.43L323.35,193.08L317.58,200.42L306.03,216.31L300.26,224.43L294.48,227.31L288.71,228.85L282.94,232.53L277.16,231.28L271.39,232.36L265.61,232L259.84,233.47L254.06,236.93L248.29,238.73L242.52,241.44L236.74,242.79L230.97,243.99L225.19,244.01L219.42,244.87L213.65,247.16L207.87,249L196.32,251.12L190.55,253.33L184.77,254.31L179,254.34L167.45,252.72L161.68,253.87L155.9,256.53L150.13,258.3L138.58,260.89L132.81,260.91L121.26,263.37L115.48,263.86L109.71,266.34L103.94,268.53L98.16,269.83L92.39,268.82L69.29,271.31L63.52,270.69L57.74,268.15L51.97,269.68L46.19,272.12L40.42,275.14L17.32,278.77L11.55,278.99L0,280.89Z" style="fill: rgb(196, 78, 82); fill-opacity: 0.5; stroke-width: 0;"/></g></g><g class="errorbars"/><g class="lines"><path class="js-line" d="M0,280.89L11.55,278.99L17.32,278.77L40.42,275.14L46.19,272.12L51.97,269.68L57.74,268.15L63.52,270.69L69.29,271.31L92.39,268.82L98.16,269.83L103.94,268.53L109.71,266.34L115.48,263.86L121.26,263.37L132.81,260.91L138.58,260.89L150.13,258.3L155.9,256.53L161.68,253.87L167.45,252.72L179,254.34L184.77,254.31L190.55,253.33L196.32,251.12L207.87,249L213.65,247.16L219.42,244.87L225.19,244.01L230.97,243.99L236.74,242.79L242.52,241.44L248.29,238.73L254.06,236.93L259.84,233.47L265.61,232L271.39,232.36L277.16,231.28L282.94,232.53L288.71,228.85L294.48,227.31L300.26,224.43L306.03,216.31L317.58,200.42L323.35,193.08L329.13,187.43L334.9,185.18L340.68,181.12L346.45,173.79L352.23,163.74L358,159.79" style="vector-effect: non-scaling-stroke; fill: none; stroke: rgb(85, 168, 104); stroke-opacity: 1; stroke-width: 2px; opacity: 1;"/></g><g class="points"/><g class="text"/></g><g class="trace scatter tracef6baaf" style="stroke-miterlimit: 2;"><g class="fills"><g><path class="js-fill" d="M0,280.14L11.55,278.04L17.32,277.8L28.87,275.65L34.65,274.47L40.42,273.76L46.19,270.66L57.74,266.37L63.52,268.82L69.29,269.29L75.06,268.37L92.39,266.36L98.16,267.35L109.71,263.53L115.48,260.81L121.26,260.29L127.03,258.94L132.81,257.56L138.58,257.25L150.13,253.99L155.9,252.02L161.68,249.51L167.45,248.01L179,248.94L184.77,248.34L190.55,246.85L196.32,244.21L207.87,241.35L213.65,238.95L219.42,236.25L225.19,234.71L230.97,234.15L236.74,231.96L242.52,230.04L248.29,227.11L254.06,224.48L259.84,220.12L265.61,218L271.39,217.65L277.16,216.36L282.94,216.43L288.71,211.99L294.48,210.09L300.26,206.55L306.03,197.77L317.58,179.29L323.35,170.22L329.13,162.58L334.9,159.11L340.68,152.35L346.45,144.06L352.23,132.66L358,127.09L358,134.37L352.23,139.85L346.45,151L340.68,159.32L334.9,165.85L329.13,169.17L323.35,176.36L317.58,184.92L306.03,202.64L300.26,211.15L294.48,214.47L288.71,216.23L282.94,220.51L277.16,220.09L271.39,221.36L265.61,221.55L259.84,223.56L254.06,227.78L248.29,230.05L242.52,233.02L230.97,236.45L225.19,236.86L219.42,238.24L213.65,240.93L202.1,244.97L196.32,246.07L190.55,248.72L184.77,249.99L173.23,249.88L167.45,249.29L161.68,250.7L155.9,253.19L144.35,256.76L138.58,258.04L132.81,258.26L127.03,259.52L115.48,261.49L109.71,264.02L98.16,267.74L92.39,266.73L69.29,269.55L63.52,269.09L57.74,266.67L51.97,268.34L46.19,270.85L40.42,273.93L17.32,277.85L11.55,278.09L0,280.08Z" style="fill: rgb(129, 114, 179); fill-opacity: 0.5; stroke-width: 0;"/></g></g><g class="errorbars"/><g class="lines"><path class="js-line" d="M0,280.08L11.55,278.09L17.32,277.85L40.42,273.93L46.19,270.85L51.97,268.34L57.74,266.67L63.52,269.09L69.29,269.55L92.39,266.73L98.16,267.74L109.71,264.02L115.48,261.49L127.03,259.52L132.81,258.26L138.58,258.04L144.35,256.76L155.9,253.19L161.68,250.7L167.45,249.29L173.23,249.88L184.77,249.99L190.55,248.72L196.32,246.07L202.1,244.97L213.65,240.93L219.42,238.24L225.19,236.86L230.97,236.45L242.52,233.02L248.29,230.05L254.06,227.78L259.84,223.56L265.61,221.55L271.39,221.36L277.16,220.09L282.94,220.51L288.71,216.23L294.48,214.47L300.26,211.15L306.03,202.64L317.58,184.92L323.35,176.36L329.13,169.17L334.9,165.85L340.68,159.32L346.45,151L352.23,139.85L358,134.37" style="vector-effect: non-scaling-stroke; fill: none; stroke: rgb(196, 78, 82); stroke-opacity: 1; stroke-width: 2px; opacity: 1;"/></g><g class="points"/><g class="text"/></g><g class="trace scatter trace44aa6f" style="stroke-miterlimit: 2;"><g class="fills"><g><path class="js-fill" d="M0,278.89L5.77,277.24L11.55,276.44L23.1,275.22L28.87,273.91L40.42,271.46L46.19,268.44L57.74,263.52L63.52,265.35L69.29,265.7L75.06,264.39L92.39,261.22L98.16,261.35L103.94,258.86L109.71,255.52L115.48,251.4L121.26,250.63L127.03,248.75L132.81,245.96L138.58,245.84L144.35,244.96L167.45,236.07L173.23,237.18L179,237.93L184.77,237.64L190.55,236.07L196.32,232.72L207.87,230.17L213.65,227.69L219.42,224.11L225.19,222.22L230.97,220.69L236.74,218.38L242.52,216.35L248.29,213.47L254.06,210.17L259.84,205.65L265.61,203.33L271.39,203.03L282.94,201.78L288.71,197.16L294.48,195.45L300.26,191.5L329.13,147.12L334.9,144.72L340.68,138.72L346.45,129.85L352.23,117.85L358,111.79L358,127.09L352.23,132.66L346.45,144.06L340.68,152.35L334.9,159.11L329.13,162.58L323.35,170.22L317.58,179.29L306.03,197.77L300.26,206.55L294.48,210.09L288.71,211.99L282.94,216.43L277.16,216.36L271.39,217.65L265.61,218L259.84,220.12L254.06,224.48L248.29,227.11L242.52,230.04L236.74,231.96L230.97,234.15L225.19,234.71L219.42,236.25L213.65,238.95L207.87,241.35L196.32,244.21L190.55,246.85L184.77,248.34L179,248.94L167.45,248.01L161.68,249.51L155.9,252.02L150.13,253.99L138.58,257.25L132.81,257.56L127.03,258.94L121.26,260.29L115.48,260.81L109.71,263.53L98.16,267.35L92.39,266.36L75.06,268.37L69.29,269.29L63.52,268.82L57.74,266.37L46.19,270.66L40.42,273.76L34.65,274.47L28.87,275.65L17.32,277.8L11.55,278.04L0,280.14Z" style="fill: rgb(147, 120, 96); fill-opacity: 0.5; stroke-width: 0;"/></g></g><g class="errorbars"/><g class="lines"><path class="js-line" d="M0,280.14L11.55,278.04L17.32,277.8L28.87,275.65L34.65,274.47L40.42,273.76L46.19,270.66L57.74,266.37L63.52,268.82L69.29,269.29L75.06,268.37L92.39,266.36L98.16,267.35L109.71,263.53L115.48,260.81L121.26,260.29L127.03,258.94L132.81,257.56L138.58,257.25L150.13,253.99L155.9,252.02L161.68,249.51L167.45,248.01L179,248.94L184.77,248.34L190.55,246.85L196.32,244.21L207.87,241.35L213.65,238.95L219.42,236.25L225.19,234.71L230.97,234.15L236.74,231.96L242.52,230.04L248.29,227.11L254.06,224.48L259.84,220.12L265.61,218L271.39,217.65L277.16,216.36L282.94,216.43L288.71,211.99L294.48,210.09L300.26,206.55L306.03,197.77L317.58,179.29L323.35,170.22L329.13,162.58L334.9,159.11L340.68,152.35L346.45,144.06L352.23,132.66L358,127.09" style="vector-effect: non-scaling-stroke; fill: none; stroke: rgb(129, 114, 179); stroke-opacity: 1; stroke-width: 2px; opacity: 1;"/></g><g class="points"/><g class="text"/></g><g class="trace scatter traceec12dd" style="stroke-miterlimit: 2;"><g class="fills"><g><path class="js-fill" d="M0,278.86L5.77,277.21L11.55,276.4L23.1,275.16L28.87,273.83L40.42,271.36L46.19,268.33L57.74,263.37L63.52,265.18L69.29,265.49L75.06,264.13L92.39,260.85L98.16,260.92L103.94,258.41L109.71,255L115.48,250.74L121.26,249.95L127.03,248.05L132.81,245.09L138.58,244.92L144.35,243.96L167.45,234.5L173.23,235.57L179,236.25L184.77,235.95L190.55,234.26L196.32,230.78L207.87,228.07L213.65,225.5L219.42,221.62L225.19,219.58L236.74,215.05L242.52,212.68L254.06,205.83L259.84,200.92L265.61,198.27L271.39,197.67L277.16,197.61L282.94,196.77L288.71,191.48L294.48,189.6L300.26,185.69L306.03,176.78L317.58,158L323.35,149.01L329.13,140.79L334.9,138.26L340.68,132.1L346.45,122.65L352.23,110.33L358,104.23L358,111.79L352.23,117.85L346.45,129.85L340.68,138.72L334.9,144.72L329.13,147.12L300.26,191.5L294.48,195.45L288.71,197.16L282.94,201.78L271.39,203.03L265.61,203.33L259.84,205.65L254.06,210.17L248.29,213.47L242.52,216.35L236.74,218.38L230.97,220.69L225.19,222.22L219.42,224.11L213.65,227.69L207.87,230.17L196.32,232.72L190.55,236.07L184.77,237.64L179,237.93L173.23,237.18L167.45,236.07L144.35,244.96L138.58,245.84L132.81,245.96L127.03,248.75L121.26,250.63L115.48,251.4L109.71,255.52L103.94,258.86L98.16,261.35L92.39,261.22L75.06,264.39L69.29,265.7L63.52,265.35L57.74,263.52L46.19,268.44L40.42,271.46L28.87,273.91L23.1,275.22L11.55,276.44L5.77,277.24L0,278.89Z" style="fill: rgb(218, 139, 195); fill-opacity: 0.5; stroke-width: 0;"/></g></g><g class="errorbars"/><g class="lines"><path class="js-line" d="M0,278.89L5.77,277.24L11.55,276.44L23.1,275.22L28.87,273.91L40.42,271.46L46.19,268.44L57.74,263.52L63.52,265.35L69.29,265.7L75.06,264.39L92.39,261.22L98.16,261.35L103.94,258.86L109.71,255.52L115.48,251.4L121.26,250.63L127.03,248.75L132.81,245.96L138.58,245.84L144.35,244.96L167.45,236.07L173.23,237.18L179,237.93L184.77,237.64L190.55,236.07L196.32,232.72L207.87,230.17L213.65,227.69L219.42,224.11L225.19,222.22L230.97,220.69L236.74,218.38L242.52,216.35L248.29,213.47L254.06,210.17L259.84,205.65L265.61,203.33L271.39,203.03L282.94,201.78L288.71,197.16L294.48,195.45L300.26,191.5L329.13,147.12L334.9,144.72L340.68,138.72L346.45,129.85L352.23,117.85L358,111.79" style="vector-effect: non-scaling-stroke; fill: none; stroke: rgb(147, 120, 96); stroke-opacity: 1; stroke-width: 2px; opacity: 1;"/></g><g class="points"/><g class="text"/></g><g class="trace scatter trace325225" style="stroke-miterlimit: 2;"><g class="fills"><g><path class="js-fill" d="M0,273.74L5.77,271.66L11.55,270.46L23.1,268.29L28.87,266.05L40.42,262.02L46.19,258.36L57.74,252.46L63.52,253.92L69.29,253.68L75.06,251.46L92.39,245.76L98.16,245.14L103.94,242.18L109.71,238.1L115.48,232.97L121.26,231.25L127.03,228.36L132.81,224.58L138.58,223.64L144.35,221.6L161.68,211.68L167.45,209.36L173.23,209.43L179,210.61L184.77,209.82L190.55,207.7L202.1,200.85L207.87,199.07L219.42,190.65L225.19,189.25L230.97,190.45L236.74,187.94L248.29,186.75L254.06,185.86L259.84,181.6L265.61,179.4L277.16,180.09L282.94,178.76L288.71,172.95L294.48,171.03L300.26,167.14L306.03,157.82L317.58,138.86L323.35,129.14L329.13,120.87L334.9,118.07L340.68,113.29L346.45,102.6L352.23,89.35L358,83.14L358,104.23L352.23,110.33L346.45,122.65L340.68,132.1L334.9,138.26L329.13,140.79L323.35,149.01L317.58,158L306.03,176.78L300.26,185.69L294.48,189.6L288.71,191.48L282.94,196.77L277.16,197.61L271.39,197.67L265.61,198.27L259.84,200.92L254.06,205.83L242.52,212.68L236.74,215.05L225.19,219.58L219.42,221.62L213.65,225.5L207.87,228.07L196.32,230.78L190.55,234.26L184.77,235.95L179,236.25L173.23,235.57L167.45,234.5L144.35,243.96L138.58,244.92L132.81,245.09L127.03,248.05L121.26,249.95L115.48,250.74L109.71,255L103.94,258.41L98.16,260.92L92.39,260.85L75.06,264.13L69.29,265.49L63.52,265.18L57.74,263.37L46.19,268.33L40.42,271.36L28.87,273.83L23.1,275.16L11.55,276.4L5.77,277.21L0,278.86Z" style="fill: rgb(140, 140, 140); fill-opacity: 0.5; stroke-width: 0;"/></g></g><g class="errorbars"/><g class="lines"><path class="js-line" d="M0,278.86L5.77,277.21L11.55,276.4L23.1,275.16L28.87,273.83L40.42,271.36L46.19,268.33L57.74,263.37L63.52,265.18L69.29,265.49L75.06,264.13L92.39,260.85L98.16,260.92L103.94,258.41L109.71,255L115.48,250.74L121.26,249.95L127.03,248.05L132.81,245.09L138.58,244.92L144.35,243.96L167.45,234.5L173.23,235.57L179,236.25L184.77,235.95L190.55,234.26L196.32,230.78L207.87,228.07L213.65,225.5L219.42,221.62L225.19,219.58L236.74,215.05L242.52,212.68L254.06,205.83L259.84,200.92L265.61,198.27L271.39,197.67L277.16,197.61L282.94,196.77L288.71,191.48L294.48,189.6L300.26,185.69L306.03,176.78L317.58,158L323.35,149.01L329.13,140.79L334.9,138.26L340.68,132.1L346.45,122.65L352.23,110.33L358,104.23" style="vector-effect: non-scaling-stroke; fill: none; stroke: rgb(218, 139, 195); stroke-opacity: 1; stroke-width: 2px; opacity: 1;"/></g><g class="points"/><g class="text"/></g><g class="trace scatter trace585bf2" style="stroke-miterlimit: 2;"><g class="fills"><g><path class="js-fill" d="M0,273.68L5.77,271.66L11.55,270.46L23.1,268.28L28.87,266.02L40.42,261.99L46.19,258.32L57.74,252.42L63.52,253.88L69.29,253.6L75.06,251.38L92.39,245.68L98.16,245.05L103.94,242.08L109.71,237.96L115.48,232.76L121.26,231.09L127.03,228.18L132.81,224.36L138.58,223.39L144.35,221.31L167.45,208.45L173.23,207.34L179,208.55L184.77,207.7L190.55,205.57L196.32,202.08L202.1,199.23L207.87,197.35L219.42,188.63L225.19,187.24L230.97,188.41L236.74,185.65L248.29,184.21L254.06,183.17L259.84,178.86L265.61,176.51L271.39,177.38L277.16,177.25L282.94,175.86L288.71,169.93L294.48,167.95L300.26,163.84L329.13,116.61L334.9,113.45L340.68,108.43L346.45,97.26L352.23,83.79L358,77.26L358,83.14L352.23,89.35L346.45,102.6L340.68,113.29L334.9,118.07L329.13,120.87L323.35,129.14L317.58,138.86L306.03,157.82L300.26,167.14L294.48,171.03L288.71,172.95L282.94,178.76L277.16,180.09L265.61,179.4L259.84,181.6L254.06,185.86L248.29,186.75L236.74,187.94L230.97,190.45L225.19,189.25L219.42,190.65L207.87,199.07L202.1,200.85L190.55,207.7L184.77,209.82L179,210.61L173.23,209.43L167.45,209.36L161.68,211.68L144.35,221.6L138.58,223.64L132.81,224.58L127.03,228.36L121.26,231.25L115.48,232.97L109.71,238.1L103.94,242.18L98.16,245.14L92.39,245.76L75.06,251.46L69.29,253.68L63.52,253.92L57.74,252.46L46.19,258.36L40.42,262.02L28.87,266.05L23.1,268.29L11.55,270.46L5.77,271.66L0,273.74Z" style="fill: rgb(204, 185, 116); fill-opacity: 0.5; stroke-width: 0;"/></g></g><g class="errorbars"/><g class="lines"><path class="js-line" d="M0,273.74L5.77,271.66L11.55,270.46L23.1,268.29L28.87,266.05L40.42,262.02L46.19,258.36L57.74,252.46L63.52,253.92L69.29,253.68L75.06,251.46L92.39,245.76L98.16,245.14L103.94,242.18L109.71,238.1L115.48,232.97L121.26,231.25L127.03,228.36L132.81,224.58L138.58,223.64L144.35,221.6L161.68,211.68L167.45,209.36L173.23,209.43L179,210.61L184.77,209.82L190.55,207.7L202.1,200.85L207.87,199.07L219.42,190.65L225.19,189.25L230.97,190.45L236.74,187.94L248.29,186.75L254.06,185.86L259.84,181.6L265.61,179.4L277.16,180.09L282.94,178.76L288.71,172.95L294.48,171.03L300.26,167.14L306.03,157.82L317.58,138.86L323.35,129.14L329.13,120.87L334.9,118.07L340.68,113.29L346.45,102.6L352.23,89.35L358,83.14" style="vector-effect: non-scaling-stroke; fill: none; stroke: rgb(140, 140, 140); stroke-opacity: 1; stroke-width: 2px; opacity: 1;"/></g><g class="points"/><g class="text"/></g><g class="trace scatter tracea07225" style="stroke-miterlimit: 2;"><g class="fills"><g><path class="js-fill" d="M0,243.14L5.77,240.18L11.55,239.84L17.32,238.28L23.1,238.34L28.87,233.19L34.65,229.48L40.42,227.88L46.19,225.16L57.74,217.41L63.52,218.97L69.29,217.32L75.06,213.45L92.39,202.33L98.16,200.14L103.94,195.52L109.71,189.05L115.48,180.1L121.26,178.08L132.81,166.33L138.58,167.21L144.35,167.51L150.13,160.97L155.9,155.25L161.68,151.33L167.45,148.33L173.23,149.72L184.77,153.8L190.55,152.01L196.32,146.18L202.1,143.04L207.87,141.44L213.65,135.69L219.42,128.33L225.19,126.22L230.97,128.23L236.74,125.88L242.52,124.78L248.29,122.25L254.06,120.2L259.84,115.24L265.61,110.86L271.39,109.53L277.16,109.53L282.94,107.8L288.71,99.52L294.48,97.77L300.26,94.55L306.03,84.15L311.81,72.64L317.58,63.61L329.13,45.33L334.9,44.38L340.68,44.44L346.45,30.25L352.23,18.44L358,14.5L358,77.26L352.23,83.79L346.45,97.26L340.68,108.43L334.9,113.45L329.13,116.61L300.26,163.84L294.48,167.95L288.71,169.93L282.94,175.86L277.16,177.25L271.39,177.38L265.61,176.51L259.84,178.86L254.06,183.17L248.29,184.21L236.74,185.65L230.97,188.41L225.19,187.24L219.42,188.63L207.87,197.35L202.1,199.23L196.32,202.08L190.55,205.57L184.77,207.7L179,208.55L173.23,207.34L167.45,208.45L144.35,221.31L138.58,223.39L132.81,224.36L127.03,228.18L121.26,231.09L115.48,232.76L109.71,237.96L103.94,242.08L98.16,245.05L92.39,245.68L75.06,251.38L69.29,253.6L63.52,253.88L57.74,252.42L46.19,258.32L40.42,261.99L28.87,266.02L23.1,268.28L11.55,270.46L5.77,271.66L0,273.68Z" style="fill: rgb(100, 181, 205); fill-opacity: 0.5; stroke-width: 0;"/></g></g><g class="errorbars"/><g class="lines"><path class="js-line" d="M0,273.68L5.77,271.66L11.55,270.46L23.1,268.28L28.87,266.02L40.42,261.99L46.19,258.32L57.74,252.42L63.52,253.88L69.29,253.6L75.06,251.38L92.39,245.68L98.16,245.05L103.94,242.08L109.71,237.96L115.48,232.76L121.26,231.09L127.03,228.18L132.81,224.36L138.58,223.39L144.35,221.31L167.45,208.45L173.23,207.34L179,208.55L184.77,207.7L190.55,205.57L196.32,202.08L202.1,199.23L207.87,197.35L219.42,188.63L225.19,187.24L230.97,188.41L236.74,185.65L248.29,184.21L254.06,183.17L259.84,178.86L265.61,176.51L271.39,177.38L277.16,177.25L282.94,175.86L288.71,169.93L294.48,167.95L300.26,163.84L329.13,116.61L334.9,113.45L340.68,108.43L346.45,97.26L352.23,83.79L358,77.26" style="vector-effect: non-scaling-stroke; fill: none; stroke: rgb(204, 185, 116); stroke-opacity: 1; stroke-width: 2px; opacity: 1;"/></g><g class="points"/><g class="text"/></g><g class="trace scatter tracec67cb7" style="stroke-miterlimit: 2;"><g class="fills"/><g class="errorbars"/><g class="lines"><path class="js-line" d="M0,243.14L5.77,240.18L11.55,239.84L17.32,238.28L23.1,238.34L28.87,233.19L34.65,229.48L40.42,227.88L46.19,225.16L57.74,217.41L63.52,218.97L69.29,217.32L75.06,213.45L92.39,202.33L98.16,200.14L103.94,195.52L109.71,189.05L115.48,180.1L121.26,178.08L132.81,166.33L138.58,167.21L144.35,167.51L150.13,160.97L155.9,155.25L161.68,151.33L167.45,148.33L173.23,149.72L184.77,153.8L190.55,152.01L196.32,146.18L202.1,143.04L207.87,141.44L213.65,135.69L219.42,128.33L225.19,126.22L230.97,128.23L236.74,125.88L242.52,124.78L248.29,122.25L254.06,120.2L259.84,115.24L265.61,110.86L271.39,109.53L277.16,109.53L282.94,107.8L288.71,99.52L294.48,97.77L300.26,94.55L306.03,84.15L311.81,72.64L317.58,63.61L329.13,45.33L334.9,44.38L340.68,44.44L346.45,30.25L352.23,18.44L358,14.5" style="vector-effect: non-scaling-stroke; fill: none; stroke: rgb(100, 181, 205); stroke-opacity: 1; stroke-width: 2px; opacity: 1;"/></g><g class="points"/><g class="text"/></g></g></g><g class="overplot"/><path class="xlines-above crisp" d="M0,0" style="fill: none;"/><path class="ylines-above crisp" d="M0,0" style="fill: none;"/><g class="overlines-above"/><g class="xaxislayer-above"><g class="xtick"><text text-anchor="middle" x="0" y="313" transform="translate(115.74000000000001,0)" style="font-family: 'Open Sans', verdana, arial, sans-serif; font-size: 12px; fill: rgb(36, 36, 36); fill-opacity: 1; white-space: pre; opacity: 1;">1960</text></g><g class="xtick"><text text-anchor="middle" x="0" y="313" style="font-family: 'Open Sans', verdana, arial, sans-serif; font-size: 12px; fill: rgb(36, 36, 36); fill-opacity: 1; white-space: pre; opacity: 1;" transform="translate(231.23,0)">1980</text></g><g class="xtick"><text text-anchor="middle" x="0" y="313" style="font-family: 'Open Sans', verdana, arial, sans-serif; font-size: 12px; fill: rgb(36, 36, 36); fill-opacity: 1; white-space: pre; opacity: 1;" transform="translate(346.71,0)">2000</text></g></g><g class="yaxislayer-above"><g class="ytick"><text text-anchor="end" x="57" y="4.199999999999999" transform="translate(0,300)" style="font-family: 'Open Sans', verdana, arial, sans-serif; font-size: 12px; fill: rgb(36, 36, 36); fill-opacity: 1; white-space: pre; opacity: 1;">0</text></g><g class="ytick"><text text-anchor="end" x="57" y="4.199999999999999" style="font-family: 'Open Sans', verdana, arial, sans-serif; font-size: 12px; fill: rgb(36, 36, 36); fill-opacity: 1; white-space: pre; opacity: 1;" transform="translate(0,238.75)">5k</text></g><g class="ytick"><text text-anchor="end" x="57" y="4.199999999999999" style="font-family: 'Open Sans', verdana, arial, sans-serif; font-size: 12px; fill: rgb(36, 36, 36); fill-opacity: 1; white-space: pre; opacity: 1;" transform="translate(0,177.5)">10k</text></g><g class="ytick"><text text-anchor="end" x="57" y="4.199999999999999" style="font-family: 'Open Sans', verdana, arial, sans-serif; font-size: 12px; fill: rgb(36, 36, 36); fill-opacity: 1; white-space: pre; opacity: 1;" transform="translate(0,116.25)">15k</text></g><g class="ytick"><text text-anchor="end" x="57" y="4.199999999999999" style="font-family: 'Open Sans', verdana, arial, sans-serif; font-size: 12px; fill: rgb(36, 36, 36); fill-opacity: 1; white-space: pre; opacity: 1;" transform="translate(0,55)">20k</text></g></g><g class="overaxes-above"/></g></g><g class="polarlayer"/><g class="smithlayer"/><g class="ternarylayer"/><g class="geolayer"/><g class="funnelarealayer"/><g class="pielayer"/><g class="iciclelayer"/><g class="treemaplayer"/><g class="sunburstlayer"/><g class="glimages"/><defs id="topdefs-1d3da0"><g class="clips"/><clipPath id="legend1d3da0"><rect width="167" height="219" x="0" y="0"/></clipPath></defs><g class="layer-above"><g class="imagelayer"/><g class="shapelayer"/></g><g class="infolayer"><g class="legend" pointer-events="all" transform="translate(423.16,10)"><rect class="bg" shape-rendering="crispEdges" style="stroke: rgb(68, 68, 68); stroke-opacity: 1; fill: rgb(255, 255, 255); fill-opacity: 1; stroke-width: 0px;" width="167" height="219" x="0" y="0"/><g class="scrollbox" transform="" clip-path="url(#legend1d3da0)"><text class="legendtitletext" text-anchor="start" x="2" y="18.2" style="font-family: 'Open Sans', verdana, arial, sans-serif; font-size: 14px; fill: rgb(36, 36, 36); fill-opacity: 1; white-space: pre;">Country</text><g class="groups" transform=""><g class="traces" transform="translate(0,32.7)" style="opacity: 1;"><text class="legendtext" text-anchor="start" x="40" y="4.680000000000001" style="font-family: 'Open Sans', verdana, arial, sans-serif; font-size: 12px; fill: rgb(36, 36, 36); fill-opacity: 1; white-space: pre;">Canada</text><g class="layers"><g class="legendfill"><path class="js-fill" d="M5,-2h30v6h-30z" style="stroke-width: 0; fill: rgb(76, 114, 176); fill-opacity: 0.5;"/></g><g class="legendlines"><path class="js-line" d="M5,-2h30" style="fill: none; stroke: rgb(76, 114, 176); stroke-opacity: 1; stroke-width: 2px;"/></g><g class="legendsymbols"><g class="legendpoints"/></g></g><rect class="legendtoggle" x="0" y="-9.5" width="161.515625" height="19" style="fill: rgb(0, 0, 0); fill-opacity: 0;"/></g></g><g class="groups" transform=""><g class="traces" transform="translate(0,51.7)" style="opacity: 1;"><text class="legendtext" text-anchor="start" x="40" y="4.680000000000001" style="font-family: 'Open Sans', verdana, arial, sans-serif; font-size: 12px; fill: rgb(36, 36, 36); fill-opacity: 1; white-space: pre;">China</text><g class="layers"><g class="legendfill"><path class="js-fill" d="M5,-2h30v6h-30z" style="stroke-width: 0; fill: rgb(221, 132, 82); fill-opacity: 0.5;"/></g><g class="legendlines"><path class="js-line" d="M5,-2h30" style="fill: none; stroke: rgb(221, 132, 82); stroke-opacity: 1; stroke-width: 2px;"/></g><g class="legendsymbols"><g class="legendpoints"/></g></g><rect class="legendtoggle" x="0" y="-9.5" width="161.515625" height="19" style="fill: rgb(0, 0, 0); fill-opacity: 0;"/></g></g><g class="groups" transform=""><g class="traces" transform="translate(0,70.7)" style="opacity: 1;"><text class="legendtext" text-anchor="start" x="40" y="4.680000000000001" style="font-family: 'Open Sans', verdana, arial, sans-serif; font-size: 12px; fill: rgb(36, 36, 36); fill-opacity: 1; white-space: pre;">Germany</text><g class="layers"><g class="legendfill"><path class="js-fill" d="M5,-2h30v6h-30z" style="stroke-width: 0; fill: rgb(85, 168, 104); fill-opacity: 0.5;"/></g><g class="legendlines"><path class="js-line" d="M5,-2h30" style="fill: none; stroke: rgb(85, 168, 104); stroke-opacity: 1; stroke-width: 2px;"/></g><g class="legendsymbols"><g class="legendpoints"/></g></g><rect class="legendtoggle" x="0" y="-9.5" width="161.515625" height="19" style="fill: rgb(0, 0, 0); fill-opacity: 0;"/></g></g><g class="groups" transform=""><g class="traces" transform="translate(0,89.7)" style="opacity: 1;"><text class="legendtext" text-anchor="start" x="40" y="4.680000000000001" style="font-family: 'Open Sans', verdana, arial, sans-serif; font-size: 12px; fill: rgb(36, 36, 36); fill-opacity: 1; white-space: pre;">India</text><g class="layers"><g class="legendfill"><path class="js-fill" d="M5,-2h30v6h-30z" style="stroke-width: 0; fill: rgb(196, 78, 82); fill-opacity: 0.5;"/></g><g class="legendlines"><path class="js-line" d="M5,-2h30" style="fill: none; stroke: rgb(196, 78, 82); stroke-opacity: 1; stroke-width: 2px;"/></g><g class="legendsymbols"><g class="legendpoints"/></g></g><rect class="legendtoggle" x="0" y="-9.5" width="161.515625" height="19" style="fill: rgb(0, 0, 0); fill-opacity: 0;"/></g></g><g class="groups" transform=""><g class="traces" transform="translate(0,108.7)" style="opacity: 1;"><text class="legendtext" text-anchor="start" x="40" y="4.680000000000001" style="font-family: 'Open Sans', verdana, arial, sans-serif; font-size: 12px; fill: rgb(36, 36, 36); fill-opacity: 1; white-space: pre;">Iran</text><g class="layers"><g class="legendfill"><path class="js-fill" d="M5,-2h30v6h-30z" style="stroke-width: 0; fill: rgb(129, 114, 179); fill-opacity: 0.5;"/></g><g class="legendlines"><path class="js-line" d="M5,-2h30" style="fill: none; stroke: rgb(129, 114, 179); stroke-opacity: 1; stroke-width: 2px;"/></g><g class="legendsymbols"><g class="legendpoints"/></g></g><rect class="legendtoggle" x="0" y="-9.5" width="161.515625" height="19" style="fill: rgb(0, 0, 0); fill-opacity: 0;"/></g></g><g class="groups" transform=""><g class="traces" transform="translate(0,127.7)" style="opacity: 1;"><text class="legendtext" text-anchor="start" x="40" y="4.680000000000001" style="font-family: 'Open Sans', verdana, arial, sans-serif; font-size: 12px; fill: rgb(36, 36, 36); fill-opacity: 1; white-space: pre;">Japan</text><g class="layers"><g class="legendfill"><path class="js-fill" d="M5,-2h30v6h-30z" style="stroke-width: 0; fill: rgb(147, 120, 96); fill-opacity: 0.5;"/></g><g class="legendlines"><path class="js-line" d="M5,-2h30" style="fill: none; stroke: rgb(147, 120, 96); stroke-opacity: 1; stroke-width: 2px;"/></g><g class="legendsymbols"><g class="legendpoints"/></g></g><rect class="legendtoggle" x="0" y="-9.5" width="161.515625" height="19" style="fill: rgb(0, 0, 0); fill-opacity: 0;"/></g></g><g class="groups" transform=""><g class="traces" transform="translate(0,146.7)" style="opacity: 1;"><text class="legendtext" text-anchor="start" x="40" y="4.680000000000001" style="font-family: 'Open Sans', verdana, arial, sans-serif; font-size: 12px; fill: rgb(36, 36, 36); fill-opacity: 1; white-space: pre;">Korea, Rep. (South)</text><g class="layers"><g class="legendfill"><path class="js-fill" d="M5,-2h30v6h-30z" style="stroke-width: 0; fill: rgb(218, 139, 195); fill-opacity: 0.5;"/></g><g class="legendlines"><path class="js-line" d="M5,-2h30" style="fill: none; stroke: rgb(218, 139, 195); stroke-opacity: 1; stroke-width: 2px;"/></g><g class="legendsymbols"><g class="legendpoints"/></g></g><rect class="legendtoggle" x="0" y="-9.5" width="161.515625" height="19" style="fill: rgb(0, 0, 0); fill-opacity: 0;"/></g></g><g class="groups" transform=""><g class="traces" transform="translate(0,165.7)" style="opacity: 1;"><text class="legendtext" text-anchor="start" x="40" y="4.680000000000001" style="font-family: 'Open Sans', verdana, arial, sans-serif; font-size: 12px; fill: rgb(36, 36, 36); fill-opacity: 1; white-space: pre;">Russian Federation</text><g class="layers"><g class="legendfill"><path class="js-fill" d="M5,-2h30v6h-30z" style="stroke-width: 0; fill: rgb(140, 140, 140); fill-opacity: 0.5;"/></g><g class="legendlines"><path class="js-line" d="M5,-2h30" style="fill: none; stroke: rgb(140, 140, 140); stroke-opacity: 1; stroke-width: 2px;"/></g><g class="legendsymbols"><g class="legendpoints"/></g></g><rect class="legendtoggle" x="0" y="-9.5" width="161.515625" height="19" style="fill: rgb(0, 0, 0); fill-opacity: 0;"/></g></g><g class="groups" transform=""><g class="traces" transform="translate(0,184.7)" style="opacity: 1;"><text class="legendtext" text-anchor="start" x="40" y="4.680000000000001" style="font-family: 'Open Sans', verdana, arial, sans-serif; font-size: 12px; fill: rgb(36, 36, 36); fill-opacity: 1; white-space: pre;">Saudi Arabia</text><g class="layers"><g class="legendfill"><path class="js-fill" d="M5,-2h30v6h-30z" style="stroke-width: 0; fill: rgb(204, 185, 116); fill-opacity: 0.5;"/></g><g class="legendlines"><path class="js-line" d="M5,-2h30" style="fill: none; stroke: rgb(204, 185, 116); stroke-opacity: 1; stroke-width: 2px;"/></g><g class="legendsymbols"><g class="legendpoints"/></g></g><rect class="legendtoggle" x="0" y="-9.5" width="161.515625" height="19" style="fill: rgb(0, 0, 0); fill-opacity: 0;"/></g></g><g class="groups" transform=""><g class="traces" transform="translate(0,203.7)" style="opacity: 1;"><text class="legendtext" text-anchor="start" x="40" y="4.680000000000001" style="font-family: 'Open Sans', verdana, arial, sans-serif; font-size: 12px; fill: rgb(36, 36, 36); fill-opacity: 1; white-space: pre;">United States</text><g class="layers"><g class="legendfill"><path class="js-fill" d="M5,-2h30v6h-30z" style="stroke-width: 0; fill: rgb(100, 181, 205); fill-opacity: 0.5;"/></g><g class="legendlines"><path class="js-line" d="M5,-2h30" style="fill: none; stroke: rgb(100, 181, 205); stroke-opacity: 1; stroke-width: 2px;"/></g><g class="legendsymbols"><g class="legendpoints"/></g></g><rect class="legendtoggle" x="0" y="-9.5" width="161.515625" height="19" style="fill: rgb(0, 0, 0); fill-opacity: 0;"/></g></g></g><rect class="scrollbar" rx="20" ry="3" width="0" height="0" style="fill: rgb(128, 139, 164); fill-opacity: 1;" x="0" y="0"/></g><g class="g-gtitle"/><g class="g-xtitle"><text class="xtitle" x="237" y="340.3" text-anchor="middle" style="font-family: 'Open Sans', verdana, arial, sans-serif; font-size: 14px; fill: rgb(36, 36, 36); opacity: 1; font-weight: normal; white-space: pre;">Year</text></g><g class="g-ytitle" transform="translate(4.1591796875,0)"><text class="ytitle" transform="rotate(-90,9.840625000000003,155)" x="9.840625000000003" y="155" text-anchor="middle" style="font-family: 'Open Sans', verdana, arial, sans-serif; font-size: 14px; fill: rgb(36, 36, 36); opacity: 1; font-weight: normal; white-space: pre;">CO2</text></g></g></svg>