<svg class="main-svg" xmlns="http://www.w3.org/2000/svg" xmlns:xlink="http://www.w3.org/1999/xlink" width="450" height="250" style="" viewBox="0 0 450 250"><rect x="0" y="0" width="450" height="250" style="fill: rgb(255, 255, 255); fill-opacity: 1;"/><defs id="defs-5469e4"><g class="clips"><clipPath id="clip5469e4xyplot" class="plotclip"><rect width="387" height="157.1724"/></clipPath><clipPath id="clip5469e4x2y2plot" class="plotclip"><rect width="387" height="29.937599999999996"/></clipPath><clipPath class="axesclip" id="clip5469e4x"><rect x="53" y="0" width="387" height="250"/></clipPath><clipPath class="axesclip" id="clip5469e4y"><rect x="0" y="41.827600000000004" width="450" height="157.1724"/></clipPath><clipPath class="axesclip" id="clip5469e4xy"><rect x="53" y="41.827600000000004" width="387" height="157.1724"/></clipPath><clipPath class="axesclip" id="clip5469e4y2"><rect x="0" y="10" width="450" height="29.937599999999996"/></clipPath><clipPath class="axesclip" id="clip5469e4xy2"><rect x="53" y="10" width="387" height="29.937599999999996"/></clipPath><clipPath class="axesclip" id="clip5469e4x2"><rect x="53" y="0" width="387" height="250"/></clipPath><clipPath class="axesclip" id="clip5469e4x2y"><rect x="53" y="41.827600000000004" width="387" height="157.1724"/></clipPath><clipPath class="axesclip" id="clip5469e4x2y2"><rect x="53" y="10" width="387" height="29.937599999999996"/></clipPath></g><g class="gradients"/><g class="patterns"/></defs><g class="bglayer"><rect class="bg" x="53" y="41.827600000000004" width="387" height="157.1724" style="fill: rgb(234, 234, 242); fill-opacity: 1; stroke-width: 0;"/><rect class="bg" x="53" y="10" width="387" height="29.937599999999996" style="fill: rgb(234, 234, 242); fill-opacity: 1; stroke-width: 0;"/></g><g class="layer-below"><g class="imagelayer"/><g class="shapelayer"/></g><g class="cartesianlayer"><g class="subplot xy"><g class="layer-subplot"><g class="shapelayer"/><g class="imagelayer"/></g><g class="gridlayer"><g class="x"><path class="xgrid crisp" transform="translate(54.94,0)" d="M0,41.827600000000004v157.1724" style="stroke: rgb(255, 255, 255); stroke-opacity: 1; stroke-width: 1px;"/><path class="xgrid crisp" transform="translate(124.6,0)" d="M0,41.827600000000004v157.1724" style="stroke: rgb(255, 255, 255); stroke-opacity: 1; stroke-width: 1px;"/><path class="xgrid crisp" transform="translate(194.25,0)" d="M0,41.827600000000004v157.1724" style="stroke: rgb(255, 255, 255); stroke-opacity: 1; stroke-width: 1px;"/><path class="xgrid crisp" transform="translate(263.91999999999996,0)" d="M0,41.827600000000004v157.1724" style="stroke: rgb(255, 255, 255); stroke-opacity: 1; stroke-width: 1px;"/><path class="xgrid crisp" transform="translate(333.58,0)" d="M0,41.827600000000004v157.1724" style="stroke: rgb(255, 255, 255); stroke-opacity: 1; stroke-width: 1px;"/><path class="xgrid crisp" transform="translate(403.24,0)" d="M0,41.827600000000004v157.1724" style="stroke: rgb(255, 255, 255); stroke-opacity: 1; stroke-width: 1px;"/></g><g class="y"><path class="ygrid crisp" transform="translate(0,144.92759999999998)" d="M53,0h387" style="stroke: rgb(255, 255, 255); stroke-opacity: 1; stroke-width: 1px;"/><path class="ygrid crisp" transform="translate(0,97.8576)" d="M53,0h387" style="stroke: rgb(255, 255, 255); stroke-opacity: 1; stroke-width: 1px;"/><path class="ygrid crisp" transform="translate(0,50.77760000000001)" d="M53,0h387" style="stroke: rgb(255, 255, 255); stroke-opacity: 1; stroke-width: 1px;"/></g></g><g class="zerolinelayer"><path class="yzl zl crisp" transform="translate(0,192.00760000000002)" d="M53,0h387" style="stroke: rgb(255, 255, 255); stroke-opacity: 1; stroke-width: 1px;"/></g><path class="xlines-below"/><path class="ylines-below"/><g class="overlines-below"/><g class="xaxislayer-below"/><g class="yaxislayer-below"/><g class="overaxes-below"/><g class="plot" transform="translate(53,41.827600000000004)" clip-path="url(#clip5469e4xyplot)"><g class="barlayer mlayer"><g class="trace bars" style="opacity: 1;"><g class="points"><g class="point"><path d="M1.94,150.18V128.28H36.77V150.18Z" style="vector-effect: non-scaling-stroke; opacity: 1; stroke-width: 1px; fill: rgb(76, 114, 176); fill-opacity: 0.3; stroke: rgb(0, 0, 0); stroke-opacity: 1;"/></g><g class="point"><path d="M36.77,150.18V128.28H71.6V150.18Z" style="vector-effect: non-scaling-stroke; opacity: 1; stroke-width: 1px; fill: rgb(76, 114, 176); fill-opacity: 0.3; stroke: rgb(0, 0, 0); stroke-opacity: 1;"/></g><g class="point"><path d="M0,0Z" style="vector-effect: non-scaling-stroke; opacity: 1; stroke-width: 0px; fill: rgb(76, 114, 176); fill-opacity: 0.3; stroke: rgb(0, 0, 0); stroke-opacity: 1;"/></g><g class="point"><path d="M106.42,150.18V95.44H141.25V150.18Z" style="vector-effect: non-scaling-stroke; opacity: 1; stroke-width: 1px; fill: rgb(76, 114, 176); fill-opacity: 0.3; stroke: rgb(0, 0, 0); stroke-opacity: 1;"/></g><g class="point"><path d="M141.25,150.18V84.49H176.09V150.18Z" style="vector-effect: non-scaling-stroke; opacity: 1; stroke-width: 1px; fill: rgb(76, 114, 176); fill-opacity: 0.3; stroke: rgb(0, 0, 0); stroke-opacity: 1;"/></g><g class="point"><path d="M176.09,150.18V62.6H210.92V150.18Z" style="vector-effect: non-scaling-stroke; opacity: 1; stroke-width: 1px; fill: rgb(76, 114, 176); fill-opacity: 0.3; stroke: rgb(0, 0, 0); stroke-opacity: 1;"/></g><g class="point"><path d="M210.92,150.18V7.86H245.74V150.18Z" style="vector-effect: non-scaling-stroke; opacity: 1; stroke-width: 1px; fill: rgb(76, 114, 176); fill-opacity: 0.3; stroke: rgb(0, 0, 0); stroke-opacity: 1;"/></g><g class="point"><path d="M245.74,150.18V95.44H280.58V150.18Z" style="vector-effect: non-scaling-stroke; opacity: 1; stroke-width: 1px; fill: rgb(76, 114, 176); fill-opacity: 0.3; stroke: rgb(0, 0, 0); stroke-opacity: 1;"/></g><g class="point"><path d="M280.58,150.18V139.23H315.4V150.18Z" style="vector-effect: non-scaling-stroke; opacity: 1; stroke-width: 1px; fill: rgb(76, 114, 176); fill-opacity: 0.3; stroke: rgb(0, 0, 0); stroke-opacity: 1;"/></g><g class="point"><path d="M0,0Z" style="vector-effect: non-scaling-stroke; opacity: 1; stroke-width: 0px; fill: rgb(76, 114, 176); fill-opacity: 0.3; stroke: rgb(0, 0, 0); stroke-opacity: 1;"/></g><g class="point"><path d="M350.24,150.18V139.23H385.07V150.18Z" style="vector-effect: non-scaling-stroke; opacity: 1; stroke-width: 1px; fill: rgb(76, 114, 176); fill-opacity: 0.3; stroke: rgb(0, 0, 0); stroke-opacity: 1;"/></g></g></g></g><g class="scatterlayer mlayer"><g class="trace scatter trace6fcd22" style="stroke-miterlimit: 2; opacity: 1;"><g class="fills"/><g class="errorbars"/><g class="lines"><path class="js-line" d="M19.35,130.21L22.87,129.02L26.39,128.67L33.42,129.76L36.94,130.52L43.98,130.86L47.5,130.26L58.05,128.29L61.57,128.71L68.6,131.96L72.12,134.33L79.16,138.34L82.68,139.02L86.2,138.29L89.71,135.93L93.23,131.93L96.75,126.46L110.82,100.29L114.34,95.66L117.86,92.51L121.38,90.7L128.41,89.67L131.93,89.66L142.49,90.05L146,90.58L160.08,93.23L163.6,92.86L170.63,89.87L174.15,87.24L181.19,79.66L184.7,74.53L191.74,61.06L195.26,52.72L209.33,16.93L212.85,10.99L216.37,7.87L219.89,8.1L223.4,11.84L226.92,18.82L233.96,39.56L237.48,51.36L244.51,73.28L248.03,82.22L255.07,95.16L258.59,99.39L265.62,104.85L269.14,106.84L276.18,111.05L279.7,113.69L290.25,123.81L293.77,127.54L304.32,138.01L307.84,140.92L314.88,145.45L318.4,147.01L325.43,148.86L328.95,149.24L335.99,149.09L339.5,148.58L346.54,146.6L350.06,145.19L360.61,140.73L364.13,139.82L367.65,139.5" style="vector-effect: non-scaling-stroke; fill: none; stroke: rgb(76, 114, 176); stroke-opacity: 1; stroke-width: 2px; opacity: 1;"/></g><g class="points"/><g class="text"/></g></g></g><g class="overplot"/><path class="xlines-above crisp" d="M0,0" style="fill: none;"/><path class="ylines-above crisp" d="M0,0" style="fill: none;"/><g class="overlines-above"/><g class="xaxislayer-above"><g class="xtick"><text text-anchor="middle" x="0" y="212" transform="translate(54.94,0)" style="font-family: 'Open Sans', verdana, arial, sans-serif; font-size: 12px; fill: rgb(36, 36, 36); fill-opacity: 1; white-space: pre; opacity: 1;">6</text></g><g class="xtick"><text text-anchor="middle" x="0" y="212" style="font-family: 'Open Sans', verdana, arial, sans-serif; font-size: 12px; fill: rgb(36, 36, 36); fill-opacity: 1; white-space: pre; opacity: 1;" transform="translate(124.6,0)">8</text></g><g class="xtick"><text text-anchor="middle" x="0" y="212" style="font-family: 'Open Sans', verdana, arial, sans-serif; font-size: 12px; fill: rgb(36, 36, 36); fill-opacity: 1; white-space: pre; opacity: 1;" transform="translate(194.25,0)">10</text></g><g class="xtick"><text text-anchor="middle" x="0" y="212" style="font-family: 'Open Sans', verdana, arial, sans-serif; font-size: 12px; fill: rgb(36, 36, 36); fill-opacity: 1; white-space: pre; opacity: 1;" transform="translate(263.91999999999996,0)">12</text></g><g class="xtick"><text text-anchor="middle" x="0" y="212" style="font-family: 'Open Sans', verdana, arial, sans-serif; font-size: 12px; fill: rgb(36, 36, 36); fill-opacity: 1; white-space: pre; opacity: 1;" transform="translate(333.58,0)">14</text></g><g class="xtick"><text text-anchor="middle" x="0" y="212" style="font-family: 'Open Sans', verdana, arial, sans-serif; font-size: 12px; fill: rgb(36, 36, 36); fill-opacity: 1; white-space: pre; opacity: 1;" transform="translate(403.24,0)">16</text></g></g><g class="yaxislayer-above"><g class="ytick"><text text-anchor="end" x="52" y="4.199999999999999" transform="translate(0,192.00760000000002)" style="font-family: 'Open Sans', verdana, arial, sans-serif; font-size: 12px; fill: rgb(36, 36, 36); fill-opacity: 1; white-space: pre; opacity: 1;">0</text></g><g class="ytick"><text text-anchor="end" x="52" y="4.199999999999999" style="font-family: 'Open Sans', verdana, arial, sans-serif; font-size: 12px; fill: rgb(36, 36, 36); fill-opacity: 1; white-space: pre; opacity: 1;" transform="translate(0,144.92759999999998)">0.1</text></g><g class="ytick"><text text-anchor="end" x="52" y="4.199999999999999" style="font-family: 'Open Sans', verdana, arial, sans-serif; font-size: 12px; fill: rgb(36, 36, 36); fill-opacity: 1; white-space: pre; opacity: 1;" transform="translate(0,97.8576)">0.2</text></g><g class="ytick"><text text-anchor="end" x="52" y="4.199999999999999" style="font-family: 'Open Sans', verdana, arial, sans-serif; font-size: 12px; fill: rgb(36, 36, 36); fill-opacity: 1; white-space: pre; opacity: 1;" transform="translate(0,50.77760000000001)">0.3</text></g></g><g class="overaxes-above"/></g><g class="subplot x2y2"><g class="layer-subplot"><g class="shapelayer"/><g class="imagelayer"/></g><g class="gridlayer"><g class="x2"><path class="x2grid crisp" transform="translate(54.94,0)" d="M0,10v29.937599999999996" style="stroke: rgb(255, 255, 255); stroke-opacity: 1; stroke-width: 1px;"/><path class="x2grid crisp" transform="translate(124.6,0)" d="M0,10v29.937599999999996" style="stroke: rgb(255, 255, 255); stroke-opacity: 1; stroke-width: 1px;"/><path class="x2grid crisp" transform="translate(194.25,0)" d="M0,10v29.937599999999996" style="stroke: rgb(255, 255, 255); stroke-opacity: 1; stroke-width: 1px;"/><path class="x2grid crisp" transform="translate(263.91999999999996,0)" d="M0,10v29.937599999999996" style="stroke: rgb(255, 255, 255); stroke-opacity: 1; stroke-width: 1px;"/><path class="x2grid crisp" transform="translate(333.58,0)" d="M0,10v29.937599999999996" style="stroke: rgb(255, 255, 255); stroke-opacity: 1; stroke-width: 1px;"/><path class="x2grid crisp" transform="translate(403.24,0)" d="M0,10v29.937599999999996" style="stroke: rgb(255, 255, 255); stroke-opacity: 1; stroke-width: 1px;"/></g><g class="y2"><path class="y2grid crisp" transform="translate(0,23.47)" d="M53,0h387" style="stroke: rgb(255, 255, 255); stroke-opacity: 1; stroke-width: 1px;"/></g></g><g class="zerolinelayer"/><path class="xlines-below"/><path class="ylines-below"/><g class="overlines-below"/><g class="xaxislayer-below"/><g class="yaxislayer-below"/><g class="overaxes-below"/><g class="plot" transform="translate(53,10)" clip-path="url(#clip5469e4x2y2plot)"><g class="boxlayer mlayer"><g class="trace boxes" style="opacity: 1;"><path class="box" d="M204.3,20.07V6.87M142.13,20.07V6.87H229.11V20.07ZM142.13,13.47H19.35M229.11,13.47H295.2M19.35,16.77V10.17M295.2,16.77V10.17" style="vector-effect: non-scaling-stroke; stroke-width: 2px; stroke: rgb(255, 255, 255); stroke-opacity: 0; fill: rgb(255, 255, 255); fill-opacity: 0;"/><g class="points"><path class="point" transform="translate(19.35,23.37)" d="M0,4.2V-4.2" style="opacity: 1; stroke: rgb(76, 114, 176); stroke-opacity: 1; stroke-width: 1px; fill: none;"/><path class="point" transform="translate(28.06,23.37)" d="M0,4.2V-4.2" style="opacity: 1; stroke: rgb(76, 114, 176); stroke-opacity: 1; stroke-width: 1px; fill: none;"/><path class="point" transform="translate(56.62,23.37)" d="M0,4.2V-4.2" style="opacity: 1; stroke: rgb(76, 114, 176); stroke-opacity: 1; stroke-width: 1px; fill: none;"/><path class="point" transform="translate(63.93,23.37)" d="M0,4.2V-4.2" style="opacity: 1; stroke: rgb(76, 114, 176); stroke-opacity: 1; stroke-width: 1px; fill: none;"/><path class="point" transform="translate(109.21,23.37)" d="M0,4.2V-4.2" style="opacity: 1; stroke: rgb(76, 114, 176); stroke-opacity: 1; stroke-width: 1px; fill: none;"/><path class="point" transform="translate(109.91,23.37)" d="M0,4.2V-4.2" style="opacity: 1; stroke: rgb(76, 114, 176); stroke-opacity: 1; stroke-width: 1px; fill: none;"/><path class="point" transform="translate(117.57,23.37)" d="M0,4.2V-4.2" style="opacity: 1; stroke: rgb(76, 114, 176); stroke-opacity: 1; stroke-width: 1px; fill: none;"/><path class="point" transform="translate(120.36,23.37)" d="M0,4.2V-4.2" style="opacity: 1; stroke: rgb(76, 114, 176); stroke-opacity: 1; stroke-width: 1px; fill: none;"/><path class="point" transform="translate(123.14,23.37)" d="M0,4.2V-4.2" style="opacity: 1; stroke: rgb(76, 114, 176); stroke-opacity: 1; stroke-width: 1px; fill: none;"/><path class="point" transform="translate(141.25,23.37)" d="M0,4.2V-4.2" style="opacity: 1; stroke: rgb(76, 114, 176); stroke-opacity: 1; stroke-width: 1px; fill: none;"/><path class="point" transform="translate(141.25,23.37)" d="M0,4.2V-4.2" style="opacity: 1; stroke: rgb(76, 114, 176); stroke-opacity: 1; stroke-width: 1px; fill: none;"/><path class="point" transform="translate(144.74,23.37)" d="M0,4.2V-4.2" style="opacity: 1; stroke: rgb(76, 114, 176); stroke-opacity: 1; stroke-width: 1px; fill: none;"/><path class="point" transform="translate(148.57,23.37)" d="M0,4.2V-4.2" style="opacity: 1; stroke: rgb(76, 114, 176); stroke-opacity: 1; stroke-width: 1px; fill: none;"/><path class="point" transform="translate(164.59,23.37)" d="M0,4.2V-4.2" style="opacity: 1; stroke: rgb(76, 114, 176); stroke-opacity: 1; stroke-width: 1px; fill: none;"/><path class="point" transform="translate(165.29,23.37)" d="M0,4.2V-4.2" style="opacity: 1; stroke: rgb(76, 114, 176); stroke-opacity: 1; stroke-width: 1px; fill: none;"/><path class="point" transform="translate(176.09,23.37)" d="M0,4.2V-4.2" style="opacity: 1; stroke: rgb(76, 114, 176); stroke-opacity: 1; stroke-width: 1px; fill: none;"/><path class="point" transform="translate(179.57,23.37)" d="M0,4.2V-4.2" style="opacity: 1; stroke: rgb(76, 114, 176); stroke-opacity: 1; stroke-width: 1px; fill: none;"/><path class="point" transform="translate(186.19,23.37)" d="M0,4.2V-4.2" style="opacity: 1; stroke: rgb(76, 114, 176); stroke-opacity: 1; stroke-width: 1px; fill: none;"/><path class="point" transform="translate(192.11,23.37)" d="M0,4.2V-4.2" style="opacity: 1; stroke: rgb(76, 114, 176); stroke-opacity: 1; stroke-width: 1px; fill: none;"/><path class="point" transform="translate(198.03,23.37)" d="M0,4.2V-4.2" style="opacity: 1; stroke: rgb(76, 114, 176); stroke-opacity: 1; stroke-width: 1px; fill: none;"/><path class="point" transform="translate(199.07,23.37)" d="M0,4.2V-4.2" style="opacity: 1; stroke: rgb(76, 114, 176); stroke-opacity: 1; stroke-width: 1px; fill: none;"/><path class="point" transform="translate(204.3,23.37)" d="M0,4.2V-4.2" style="opacity: 1; stroke: rgb(76, 114, 176); stroke-opacity: 1; stroke-width: 1px; fill: none;"/><path class="point" transform="translate(208.13,23.37)" d="M0,4.2V-4.2" style="opacity: 1; stroke: rgb(76, 114, 176); stroke-opacity: 1; stroke-width: 1px; fill: none;"/><path class="point" transform="translate(212.31,23.37)" d="M0,4.2V-4.2" style="opacity: 1; stroke: rgb(76, 114, 176); stroke-opacity: 1; stroke-width: 1px; fill: none;"/><path class="point" transform="translate(212.31,23.37)" d="M0,4.2V-4.2" style="opacity: 1; stroke: rgb(76, 114, 176); stroke-opacity: 1; stroke-width: 1px; fill: none;"/><path class="point" transform="translate(212.66,23.37)" d="M0,4.2V-4.2" style="opacity: 1; stroke: rgb(76, 114, 176); stroke-opacity: 1; stroke-width: 1px; fill: none;"/><path class="point" transform="translate(216.84,23.37)" d="M0,4.2V-4.2" style="opacity: 1; stroke: rgb(76, 114, 176); stroke-opacity: 1; stroke-width: 1px; fill: none;"/><path class="point" transform="translate(219.62,23.37)" d="M0,4.2V-4.2" style="opacity: 1; stroke: rgb(76, 114, 176); stroke-opacity: 1; stroke-width: 1px; fill: none;"/><path class="point" transform="translate(219.62,23.37)" d="M0,4.2V-4.2" style="opacity: 1; stroke: rgb(76, 114, 176); stroke-opacity: 1; stroke-width: 1px; fill: none;"/><path class="point" transform="translate(221.71,23.37)" d="M0,4.2V-4.2" style="opacity: 1; stroke: rgb(76, 114, 176); stroke-opacity: 1; stroke-width: 1px; fill: none;"/><path class="point" transform="translate(225.54,23.37)" d="M0,4.2V-4.2" style="opacity: 1; stroke: rgb(76, 114, 176); stroke-opacity: 1; stroke-width: 1px; fill: none;"/><path class="point" transform="translate(228.33,23.37)" d="M0,4.2V-4.2" style="opacity: 1; stroke: rgb(76, 114, 176); stroke-opacity: 1; stroke-width: 1px; fill: none;"/><path class="point" transform="translate(229.37,23.37)" d="M0,4.2V-4.2" style="opacity: 1; stroke: rgb(76, 114, 176); stroke-opacity: 1; stroke-width: 1px; fill: none;"/><path class="point" transform="translate(229.72,23.37)" d="M0,4.2V-4.2" style="opacity: 1; stroke: rgb(76, 114, 176); stroke-opacity: 1; stroke-width: 1px; fill: none;"/><path class="point" transform="translate(231.12,23.37)" d="M0,4.2V-4.2" style="opacity: 1; stroke: rgb(76, 114, 176); stroke-opacity: 1; stroke-width: 1px; fill: none;"/><path class="point" transform="translate(242.96,23.37)" d="M0,4.2V-4.2" style="opacity: 1; stroke: rgb(76, 114, 176); stroke-opacity: 1; stroke-width: 1px; fill: none;"/><path class="point" transform="translate(248.18,23.37)" d="M0,4.2V-4.2" style="opacity: 1; stroke: rgb(76, 114, 176); stroke-opacity: 1; stroke-width: 1px; fill: none;"/><path class="point" transform="translate(252.71,23.37)" d="M0,4.2V-4.2" style="opacity: 1; stroke: rgb(76, 114, 176); stroke-opacity: 1; stroke-width: 1px; fill: none;"/><path class="point" transform="translate(265.95,23.37)" d="M0,4.2V-4.2" style="opacity: 1; stroke: rgb(76, 114, 176); stroke-opacity: 1; stroke-width: 1px; fill: none;"/><path class="point" transform="translate(275,23.37)" d="M0,4.2V-4.2" style="opacity: 1; stroke: rgb(76, 114, 176); stroke-opacity: 1; stroke-width: 1px; fill: none;"/><path class="point" transform="translate(277.79,23.37)" d="M0,4.2V-4.2" style="opacity: 1; stroke: rgb(76, 114, 176); stroke-opacity: 1; stroke-width: 1px; fill: none;"/><path class="point" transform="translate(295.2,23.37)" d="M0,4.2V-4.2" style="opacity: 1; stroke: rgb(76, 114, 176); stroke-opacity: 1; stroke-width: 1px; fill: none;"/><path class="point" transform="translate(367.65,23.37)" d="M0,4.2V-4.2" style="opacity: 1; stroke: rgb(76, 114, 176); stroke-opacity: 1; stroke-width: 1px; fill: none;"/></g></g></g></g><g class="overplot"/><path class="xlines-above crisp" d="M0,0" style="fill: none;"/><path class="ylines-above crisp" d="M0,0" style="fill: none;"/><g class="overlines-above"/><g class="xaxislayer-above"/><g class="yaxislayer-above"/><g class="overaxes-above"/></g></g><g class="polarlayer"/><g class="smithlayer"/><g class="ternarylayer"/><g class="geolayer"/><g class="funnelarealayer"/><g class="pielayer"/><g class="iciclelayer"/><g class="treemaplayer"/><g class="sunburstlayer"/><g class="glimages"/><defs id="topdefs-5469e4"><g class="clips"/></defs><g class="layer-above"><g class="imagelayer"/><g class="shapelayer"/></g><g class="infolayer"><g class="g-gtitle"/><g class="g-xtitle"><text class="xtitle" x="246.5" y="240.3" text-anchor="middle" style="font-family: 'Open Sans', verdana, arial, sans-serif; font-size: 14px; fill: rgb(36, 36, 36); opacity: 1; font-weight: normal; white-space: pre;">years</text></g><g class="g-x2title"/><g class="g-ytitle" transform="translate(4.7294921875,0)"><text class="ytitle" transform="rotate(-90,10.278125000000003,120.41380000000001)" x="10.278125000000003" y="120.41380000000001" text-anchor="middle" style="font-family: 'Open Sans', verdana, arial, sans-serif; font-size: 14px; fill: rgb(36, 36, 36); opacity: 1; font-weight: normal; white-space: pre;">probability density</text></g><g class="g-y2title"/></g></svg>