<svg class="main-svg" xmlns="http://www.w3.org/2000/svg" xmlns:xlink="http://www.w3.org/1999/xlink" width="700" height="250" style="" viewBox="0 0 700 250"><rect x="0" y="0" width="700" height="250" style="fill: rgb(255, 255, 255); fill-opacity: 1;"/><defs id="defs-af1554"><g class="clips"><clipPath id="clipaf1554xyplot" class="plotclip"><rect width="242.8" height="189"/></clipPath><clipPath id="clipaf1554x2y2plot" class="plotclip"><rect width="242.79999999999995" height="189"/></clipPath><clipPath class="axesclip" id="clipaf1554x"><rect x="83" y="0" width="242.8" height="250"/></clipPath><clipPath class="axesclip" id="clipaf1554y"><rect x="0" y="10" width="700" height="189"/></clipPath><clipPath class="axesclip" id="clipaf1554xy"><rect x="83" y="10" width="242.8" height="189"/></clipPath><clipPath class="axesclip" id="clipaf1554y2"><rect x="0" y="10" width="700" height="189"/></clipPath><clipPath class="axesclip" id="clipaf1554xy2"><rect x="83" y="10" width="242.8" height="189"/></clipPath><clipPath class="axesclip" id="clipaf1554x2"><rect x="447.20000000000005" y="0" width="242.79999999999995" height="250"/></clipPath><clipPath class="axesclip" id="clipaf1554x2y"><rect x="447.20000000000005" y="10" width="242.79999999999995" height="189"/></clipPath><clipPath class="axesclip" id="clipaf1554x2y2"><rect x="447.20000000000005" y="10" width="242.79999999999995" height="189"/></clipPath></g><g class="gradients"/><g class="patterns"/></defs><g class="bglayer"><rect class="bg" x="83" y="10" width="242.8" height="189" style="fill: rgb(234, 234, 242); fill-opacity: 1; stroke-width: 0;"/><rect class="bg" x="447.20000000000005" y="10" width="242.79999999999995" height="189" style="fill: rgb(234, 234, 242); fill-opacity: 1; stroke-width: 0;"/></g><g class="layer-below"><g class="imagelayer"/><g class="shapelayer"/></g><g class="cartesianlayer"><g class="subplot xy"><g class="layer-subplot"><g class="shapelayer"/><g class="imagelayer"/></g><g class="gridlayer"><g class="x"><path class="xgrid crisp" transform="translate(171.62,0)" d="M0,10v189" style="stroke: rgb(255, 255, 255); stroke-opacity: 1; stroke-width: 1px;"/><path class="xgrid crisp" transform="translate(280.88,0)" d="M0,10v189" style="stroke: rgb(255, 255, 255); stroke-opacity: 1; stroke-width: 1px;"/></g><g class="y"><path class="ygrid crisp" transform="translate(0,185.5)" d="M83,0h242.8" style="stroke: rgb(255, 255, 255); stroke-opacity: 1; stroke-width: 1px;"/><path class="ygrid crisp" transform="translate(0,158.5)" d="M83,0h242.8" style="stroke: rgb(255, 255, 255); stroke-opacity: 1; stroke-width: 1px;"/><path class="ygrid crisp" transform="translate(0,131.5)" d="M83,0h242.8" style="stroke: rgb(255, 255, 255); stroke-opacity: 1; stroke-width: 1px;"/><path class="ygrid crisp" transform="translate(0,104.5)" d="M83,0h242.8" style="stroke: rgb(255, 255, 255); stroke-opacity: 1; stroke-width: 1px;"/><path class="ygrid crisp" transform="translate(0,77.5)" d="M83,0h242.8" style="stroke: rgb(255, 255, 255); stroke-opacity: 1; stroke-width: 1px;"/><path class="ygrid crisp" transform="translate(0,50.5)" d="M83,0h242.8" style="stroke: rgb(255, 255, 255); stroke-opacity: 1; stroke-width: 1px;"/><path class="ygrid crisp" transform="translate(0,23.5)" d="M83,0h242.8" style="stroke: rgb(255, 255, 255); stroke-opacity: 1; stroke-width: 1px;"/></g></g><g class="zerolinelayer"/><path class="xlines-below"/><path class="ylines-below"/><g class="overlines-below"/><g class="xaxislayer-below"/><g class="yaxislayer-below"/><g class="overaxes-below"/><g class="plot" transform="translate(83,10)" clip-path="url(#clipaf1554xyplot)"><g class="boxlayer mlayer"><g class="trace boxes" style="opacity: 1;"><path class="box" d="M129.05,182.12V168.89M116.59,182.12V168.89H142.38V182.12ZM116.59,175.5H88.62M142.38,175.5H152.43M88.62,178.81V172.19M152.43,178.81V172.19" style="vector-effect: non-scaling-stroke; stroke-width: 2px; stroke: rgb(76, 114, 176); stroke-opacity: 1; fill: rgb(76, 114, 176); fill-opacity: 0.5;"/><path class="box" d="M130.8,155.12V141.89M98.46,155.12V141.89H145.87V155.12ZM98.46,148.5H75.51M145.87,148.5H172.53M75.51,151.81V145.19M172.53,151.81V145.19" style="vector-effect: non-scaling-stroke; stroke-width: 2px; stroke: rgb(76, 114, 176); stroke-opacity: 1; fill: rgb(76, 114, 176); fill-opacity: 0.5;"/><path class="box" d="M140.85,128.12V114.89M137.79,128.12V114.89H143.91V128.12ZM137.79,121.5H137.79M143.91,121.5H143.91M137.79,124.81V118.19M143.91,124.81V118.19" style="vector-effect: non-scaling-stroke; stroke-width: 2px; stroke: rgb(76, 114, 176); stroke-opacity: 1; fill: rgb(76, 114, 176); fill-opacity: 0.5;"/><path class="box" d="M73.76,101.12V87.89M36.67,101.12V87.89H99.6V101.12ZM36.67,94.5H12.14M99.6,94.5H145M12.14,97.81V91.19M145,97.81V91.19" style="vector-effect: non-scaling-stroke; stroke-width: 2px; stroke: rgb(76, 114, 176); stroke-opacity: 1; fill: rgb(76, 114, 176); fill-opacity: 0.5;"/><path class="box" d="M174.28,74.12V60.88M147.9,74.12V60.88H182.48V74.12ZM147.9,67.5H139.1M182.48,67.5H185.21M139.1,70.81V64.19M185.21,70.81V64.19" style="vector-effect: non-scaling-stroke; stroke-width: 2px; stroke: rgb(76, 114, 176); stroke-opacity: 1; fill: rgb(76, 114, 176); fill-opacity: 0.5;"/><path class="box" d="M127.3,47.12V33.88M110.47,47.12V33.88H158.55V47.12ZM110.47,40.5H90.81M158.55,40.5H230.66M90.81,43.81V37.19M230.66,43.81V37.19" style="vector-effect: non-scaling-stroke; stroke-width: 2px; stroke: rgb(76, 114, 176); stroke-opacity: 1; fill: rgb(76, 114, 176); fill-opacity: 0.5;"/><path class="box" d="M68.96,20.12V6.88M55.79,20.12V6.88H139.65V20.12ZM55.79,13.5H17.6M139.65,13.5H166.85M17.6,16.81V10.19M166.85,16.81V10.19" style="vector-effect: non-scaling-stroke; stroke-width: 2px; stroke: rgb(76, 114, 176); stroke-opacity: 1; fill: rgb(76, 114, 176); fill-opacity: 0.5;"/><g class="points"><path class="point" transform="translate(77.26,175.5)" d="M3,0A3,3 0 1,1 0,-3A3,3 0 0,1 3,0Z" style="opacity: 1; stroke-width: 0px; fill: rgb(76, 114, 176); fill-opacity: 1;"/></g><g class="points"/><g class="points"/><g class="points"/><g class="points"/><g class="points"/><g class="points"/></g></g></g><g class="overplot"/><path class="xlines-above crisp" d="M0,0" style="fill: none;"/><path class="ylines-above crisp" d="M0,0" style="fill: none;"/><g class="overlines-above"/><g class="xaxislayer-above"><g class="xtick"><text text-anchor="middle" x="0" y="212" transform="translate(171.62,0)" style="font-family: 'Open Sans', verdana, arial, sans-serif; font-size: 12px; fill: rgb(36, 36, 36); fill-opacity: 1; white-space: pre; opacity: 1;">10</text></g><g class="xtick"><text text-anchor="middle" x="0" y="212" style="font-family: 'Open Sans', verdana, arial, sans-serif; font-size: 12px; fill: rgb(36, 36, 36); fill-opacity: 1; white-space: pre; opacity: 1;" transform="translate(280.88,0)">15</text></g></g><g class="yaxislayer-above"><g class="ytick"><text text-anchor="end" x="82" y="4.199999999999999" transform="translate(0,185.5)" style="font-family: 'Open Sans', verdana, arial, sans-serif; font-size: 12px; fill: rgb(36, 36, 36); fill-opacity: 1; white-space: pre; opacity: 1;">sporting</text></g><g class="ytick"><text text-anchor="end" x="82" y="4.199999999999999" transform="translate(0,158.5)" style="font-family: 'Open Sans', verdana, arial, sans-serif; font-size: 12px; fill: rgb(36, 36, 36); fill-opacity: 1; white-space: pre; opacity: 1;">terrier</text></g><g class="ytick"><text text-anchor="end" x="82" y="4.199999999999999" transform="translate(0,131.5)" style="font-family: 'Open Sans', verdana, arial, sans-serif; font-size: 12px; fill: rgb(36, 36, 36); fill-opacity: 1; white-space: pre; opacity: 1;">herding</text></g><g class="ytick"><text text-anchor="end" x="82" y="4.199999999999999" transform="translate(0,104.5)" style="font-family: 'Open Sans', verdana, arial, sans-serif; font-size: 12px; fill: rgb(36, 36, 36); fill-opacity: 1; white-space: pre; opacity: 1;">working</text></g><g class="ytick"><text text-anchor="end" x="82" y="4.199999999999999" transform="translate(0,77.5)" style="font-family: 'Open Sans', verdana, arial, sans-serif; font-size: 12px; fill: rgb(36, 36, 36); fill-opacity: 1; white-space: pre; opacity: 1;">non-sporting</text></g><g class="ytick"><text text-anchor="end" x="82" y="4.199999999999999" transform="translate(0,50.5)" style="font-family: 'Open Sans', verdana, arial, sans-serif; font-size: 12px; fill: rgb(36, 36, 36); fill-opacity: 1; white-space: pre; opacity: 1;">toy</text></g><g class="ytick"><text text-anchor="end" x="82" y="4.199999999999999" transform="translate(0,23.5)" style="font-family: 'Open Sans', verdana, arial, sans-serif; font-size: 12px; fill: rgb(36, 36, 36); fill-opacity: 1; white-space: pre; opacity: 1;">hound</text></g></g><g class="overaxes-above"/></g><g class="subplot x2y2"><g class="layer-subplot"><g class="shapelayer"/><g class="imagelayer"/></g><g class="gridlayer"><g class="x2"><path class="x2grid crisp" transform="translate(535.82,0)" d="M0,10v189" style="stroke: rgb(255, 255, 255); stroke-opacity: 1; stroke-width: 1px;"/><path class="x2grid crisp" transform="translate(645.08,0)" d="M0,10v189" style="stroke: rgb(255, 255, 255); stroke-opacity: 1; stroke-width: 1px;"/></g><g class="y2"><path class="y2grid crisp" transform="translate(0,185.5)" d="M447.20000000000005,0h242.79999999999995" style="stroke: rgb(255, 255, 255); stroke-opacity: 1; stroke-width: 1px;"/><path class="y2grid crisp" transform="translate(0,158.5)" d="M447.20000000000005,0h242.79999999999995" style="stroke: rgb(255, 255, 255); stroke-opacity: 1; stroke-width: 1px;"/><path class="y2grid crisp" transform="translate(0,131.5)" d="M447.20000000000005,0h242.79999999999995" style="stroke: rgb(255, 255, 255); stroke-opacity: 1; stroke-width: 1px;"/><path class="y2grid crisp" transform="translate(0,104.5)" d="M447.20000000000005,0h242.79999999999995" style="stroke: rgb(255, 255, 255); stroke-opacity: 1; stroke-width: 1px;"/><path class="y2grid crisp" transform="translate(0,77.5)" d="M447.20000000000005,0h242.79999999999995" style="stroke: rgb(255, 255, 255); stroke-opacity: 1; stroke-width: 1px;"/><path class="y2grid crisp" transform="translate(0,50.5)" d="M447.20000000000005,0h242.79999999999995" style="stroke: rgb(255, 255, 255); stroke-opacity: 1; stroke-width: 1px;"/><path class="y2grid crisp" transform="translate(0,23.5)" d="M447.20000000000005,0h242.79999999999995" style="stroke: rgb(255, 255, 255); stroke-opacity: 1; stroke-width: 1px;"/></g></g><g class="zerolinelayer"/><path class="xlines-below"/><path class="ylines-below"/><g class="overlines-below"/><g class="xaxislayer-below"/><g class="yaxislayer-below"/><g class="overaxes-below"/><g class="plot" transform="translate(447.20000000000005,10)" clip-path="url(#clipaf1554x2y2plot)"><g class="boxlayer mlayer"><g class="trace boxes" style="opacity: 1;"><path class="box" d="M174.28,182.12V168.89M147.9,182.12V168.89H182.48V182.12ZM147.9,175.5H139.1M182.48,175.5H185.21M139.1,178.81V172.19M185.21,178.81V172.19" style="vector-effect: non-scaling-stroke; stroke-width: 2px; stroke: rgb(76, 114, 176); stroke-opacity: 1; fill: rgb(76, 114, 176); fill-opacity: 0.5;"/><path class="box" d="M140.85,155.12V141.89M137.79,155.12V141.89H143.91V155.12ZM137.79,148.5H137.79M143.91,148.5H143.91M137.79,151.81V145.19M143.91,151.81V145.19" style="vector-effect: non-scaling-stroke; stroke-width: 2px; stroke: rgb(76, 114, 176); stroke-opacity: 1; fill: rgb(76, 114, 176); fill-opacity: 0.5;"/><path class="box" d="M130.8,128.12V114.89M98.46,128.12V114.89H145.87V128.12ZM98.46,121.5H75.51M145.87,121.5H172.53M75.51,124.81V118.19M172.53,124.81V118.19" style="vector-effect: non-scaling-stroke; stroke-width: 2px; stroke: rgb(76, 114, 176); stroke-opacity: 1; fill: rgb(76, 114, 176); fill-opacity: 0.5;"/><path class="box" d="M129.05,101.12V87.89M116.59,101.12V87.89H142.38V101.12ZM116.59,94.5H88.62M142.38,94.5H152.43M88.62,97.81V91.19M152.43,97.81V91.19" style="vector-effect: non-scaling-stroke; stroke-width: 2px; stroke: rgb(76, 114, 176); stroke-opacity: 1; fill: rgb(76, 114, 176); fill-opacity: 0.5;"/><path class="box" d="M127.3,74.12V60.88M110.47,74.12V60.88H158.55V74.12ZM110.47,67.5H90.81M158.55,67.5H230.66M90.81,70.81V64.19M230.66,70.81V64.19" style="vector-effect: non-scaling-stroke; stroke-width: 2px; stroke: rgb(76, 114, 176); stroke-opacity: 1; fill: rgb(76, 114, 176); fill-opacity: 0.5;"/><path class="box" d="M73.76,47.12V33.88M36.67,47.12V33.88H99.6V47.12ZM36.67,40.5H12.14M99.6,40.5H145M12.14,43.81V37.19M145,43.81V37.19" style="vector-effect: non-scaling-stroke; stroke-width: 2px; stroke: rgb(76, 114, 176); stroke-opacity: 1; fill: rgb(76, 114, 176); fill-opacity: 0.5;"/><path class="box" d="M68.96,20.12V6.88M55.79,20.12V6.88H139.65V20.12ZM55.79,13.5H17.6M139.65,13.5H166.85M17.6,16.81V10.19M166.85,16.81V10.19" style="vector-effect: non-scaling-stroke; stroke-width: 2px; stroke: rgb(76, 114, 176); stroke-opacity: 1; fill: rgb(76, 114, 176); fill-opacity: 0.5;"/><g class="points"/><g class="points"/><g class="points"/><g class="points"><path class="point" transform="translate(77.26,94.5)" d="M3,0A3,3 0 1,1 0,-3A3,3 0 0,1 3,0Z" style="opacity: 1; stroke-width: 0px; fill: rgb(76, 114, 176); fill-opacity: 1;"/></g><g class="points"/><g class="points"/><g class="points"/></g></g></g><g class="overplot"/><path class="xlines-above crisp" d="M0,0" style="fill: none;"/><path class="ylines-above crisp" d="M0,0" style="fill: none;"/><g class="overlines-above"/><g class="xaxislayer-above"><g class="x2tick"><text text-anchor="middle" x="0" y="212" transform="translate(535.82,0)" style="font-family: 'Open Sans', verdana, arial, sans-serif; font-size: 12px; fill: rgb(36, 36, 36); fill-opacity: 1; white-space: pre; opacity: 1;">10</text></g><g class="x2tick"><text text-anchor="middle" x="0" y="212" style="font-family: 'Open Sans', verdana, arial, sans-serif; font-size: 12px; fill: rgb(36, 36, 36); fill-opacity: 1; white-space: pre; opacity: 1;" transform="translate(645.08,0)">15</text></g></g><g class="yaxislayer-above"><g class="y2tick"><text text-anchor="end" x="446.20000000000005" y="4.199999999999999" transform="translate(0,185.5)" style="font-family: 'Open Sans', verdana, arial, sans-serif; font-size: 12px; fill: rgb(36, 36, 36); fill-opacity: 1; white-space: pre; opacity: 1;">non-sporting</text></g><g class="y2tick"><text text-anchor="end" x="446.20000000000005" y="4.199999999999999" transform="translate(0,158.5)" style="font-family: 'Open Sans', verdana, arial, sans-serif; font-size: 12px; fill: rgb(36, 36, 36); fill-opacity: 1; white-space: pre; opacity: 1;">herding</text></g><g class="y2tick"><text text-anchor="end" x="446.20000000000005" y="4.199999999999999" transform="translate(0,131.5)" style="font-family: 'Open Sans', verdana, arial, sans-serif; font-size: 12px; fill: rgb(36, 36, 36); fill-opacity: 1; white-space: pre; opacity: 1;">terrier</text></g><g class="y2tick"><text text-anchor="end" x="446.20000000000005" y="4.199999999999999" transform="translate(0,104.5)" style="font-family: 'Open Sans', verdana, arial, sans-serif; font-size: 12px; fill: rgb(36, 36, 36); fill-opacity: 1; white-space: pre; opacity: 1;">sporting</text></g><g class="y2tick"><text text-anchor="end" x="446.20000000000005" y="4.199999999999999" transform="translate(0,77.5)" style="font-family: 'Open Sans', verdana, arial, sans-serif; font-size: 12px; fill: rgb(36, 36, 36); fill-opacity: 1; white-space: pre; opacity: 1;">toy</text></g><g class="y2tick"><text text-anchor="end" x="446.20000000000005" y="4.199999999999999" transform="translate(0,50.5)" style="font-family: 'Open Sans', verdana, arial, sans-serif; font-size: 12px; fill: rgb(36, 36, 36); fill-opacity: 1; white-space: pre; opacity: 1;">working</text></g><g class="y2tick"><text text-anchor="end" x="446.20000000000005" y="4.199999999999999" transform="translate(0,23.5)" style="font-family: 'Open Sans', verdana, arial, sans-serif; font-size: 12px; fill: rgb(36, 36, 36); fill-opacity: 1; white-space: pre; opacity: 1;">hound</text></g></g><g class="overaxes-above"/></g></g><g class="polarlayer"/><g class="smithlayer"/><g class="ternarylayer"/><g class="geolayer"/><g class="funnelarealayer"/><g class="pielayer"/><g class="iciclelayer"/><g class="treemaplayer"/><g class="sunburstlayer"/><g class="glimages"/><defs id="topdefs-af1554"><g class="clips"/></defs><g class="layer-above"><g class="imagelayer"/><g class="shapelayer"/></g><g class="infolayer"><g class="g-gtitle"/><g class="g-xtitle"><text class="xtitle" x="204.4" y="240.3" text-anchor="middle" style="font-family: 'Open Sans', verdana, arial, sans-serif; font-size: 14px; fill: rgb(36, 36, 36); opacity: 1; font-weight: normal; white-space: pre;">Longevity (yrs)</text></g><g class="g-x2title"><text class="x2title" x="568.6" y="240.3" text-anchor="middle" style="font-family: 'Open Sans', verdana, arial, sans-serif; font-size: 14px; fill: rgb(36, 36, 36); opacity: 1; font-weight: normal; white-space: pre;">Longevity (yrs)</text></g><g class="g-ytitle"/><g class="g-y2title"/></g></svg>