<svg class="main-svg" xmlns="http://www.w3.org/2000/svg" xmlns:xlink="http://www.w3.org/1999/xlink" width="600" height="350" style="" viewBox="0 0 600 350"><rect x="0" y="0" width="600" height="350" style="fill: rgb(255, 255, 255); fill-opacity: 1;"/><defs id="defs-8a3aed"><g class="clips"><clipPath id="clip8a3aedxyplot" class="plotclip"><rect width="368" height="281"/></clipPath><clipPath class="axesclip" id="clip8a3aedx"><rect x="63" y="0" width="368" height="350"/></clipPath><clipPath class="axesclip" id="clip8a3aedy"><rect x="0" y="10" width="600" height="281"/></clipPath><clipPath class="axesclip" id="clip8a3aedxy"><rect x="63" y="10" width="368" height="281"/></clipPath></g><g class="gradients"/><g class="patterns"/></defs><g class="bglayer"/><g class="layer-below"><g class="imagelayer"/><g class="shapelayer"/></g><g class="cartesianlayer"><g class="subplot xy"><g class="layer-subplot"><g class="shapelayer"/><g class="imagelayer"/></g><g class="gridlayer"><g class="x"><path class="xgrid crisp" transform="translate(122.35,0)" d="M0,10v281" style="stroke: rgb(232, 232, 232); stroke-opacity: 1; stroke-width: 1px;"/><path class="xgrid crisp" transform="translate(241.06,0)" d="M0,10v281" style="stroke: rgb(232, 232, 232); stroke-opacity: 1; stroke-width: 1px;"/><path class="xgrid crisp" transform="translate(359.77,0)" d="M0,10v281" style="stroke: rgb(232, 232, 232); stroke-opacity: 1; stroke-width: 1px;"/></g><g class="y"><path class="ygrid crisp" transform="translate(0,231.65)" d="M63,0h368" style="stroke: rgb(232, 232, 232); stroke-opacity: 1; stroke-width: 1px;"/><path class="ygrid crisp" transform="translate(0,172.3)" d="M63,0h368" style="stroke: rgb(232, 232, 232); stroke-opacity: 1; stroke-width: 1px;"/><path class="ygrid crisp" transform="translate(0,112.95)" d="M63,0h368" style="stroke: rgb(232, 232, 232); stroke-opacity: 1; stroke-width: 1px;"/><path class="ygrid crisp" transform="translate(0,53.6)" d="M63,0h368" style="stroke: rgb(232, 232, 232); stroke-opacity: 1; stroke-width: 1px;"/></g></g><g class="zerolinelayer"/><path class="xlines-below"/><path class="ylines-below"/><g class="overlines-below"/><g class="xaxislayer-below"/><g class="yaxislayer-below"/><g class="overaxes-below"/><g class="plot" transform="translate(63,10)" clip-path="url(#clip8a3aedxyplot)"><g class="scatterlayer mlayer"><g class="trace scatter trace6a3e79" style="stroke-miterlimit: 2;"><g class="fills"><g><path class="js-fill" d="M368,281L0,281L0,279.17L112.77,277.41L118.71,277.01L189.94,276.29L195.87,276.35L231.48,275.51L237.42,275.8L261.16,275.55L267.1,275.41L320.52,274.43L326.45,274.36L368,274.55" style="fill: rgb(31, 119, 180); fill-opacity: 0.5; stroke-width: 0;"/></g><g><path class="js-fill" d="M0,278.24L41.55,275.84L47.48,272.65L53.42,270.29L59.35,269.49L65.29,272.2L71.23,273.37L83.1,273.05L89.03,272.41L94.97,271.77L100.9,272.57L112.77,270.56L118.71,267.86L142.45,265.28L148.39,263.59L154.32,262.82L160.26,260.91L166.19,258.81L172.13,258.27L189.94,258.32L195.87,257.4L201.81,255.51L207.74,254.8L219.61,251.66L225.55,249.38L243.35,246.44L249.29,244.7L255.23,241.99L261.16,240.12L267.1,236.73L273.03,235.64L278.97,235.65L284.9,234.53L290.84,235.37L296.77,231.78L302.71,230.48L308.65,227.54L326.45,203.9L332.39,196.95L338.32,191.08L344.26,188.99L350.19,184.37L356.13,177.73L362.06,167.69L368,164.02L368,274.55L326.45,274.36L320.52,274.43L267.1,275.41L261.16,275.55L237.42,275.8L231.48,275.51L195.87,276.35L189.94,276.29L118.71,277.01L112.77,277.41L0,279.17Z" style="fill: rgb(255, 127, 14); fill-opacity: 0.5; stroke-width: 0;"/></g></g><g class="errorbars"/><g class="lines"><path class="js-line" d="M0,279.17L112.77,277.41L118.71,277.01L189.94,276.29L195.87,276.35L231.48,275.51L237.42,275.8L261.16,275.55L267.1,275.41L320.52,274.43L326.45,274.36L368,274.55" style="vector-effect: non-scaling-stroke; fill: none; stroke: rgb(31, 119, 180); stroke-opacity: 1; stroke-width: 2px; opacity: 1;"/></g><g class="points"/><g class="text"/></g><g class="trace scatter tracedea0ff" style="stroke-miterlimit: 2;"><g class="fills"><g><path class="js-fill" d="M0,272.17L11.87,270.33L17.81,270.12L41.55,266.6L47.48,263.67L53.42,261.31L59.35,259.83L65.29,262.29L71.23,262.89L94.97,260.48L100.9,261.45L106.84,260.2L112.77,258.07L118.71,255.67L124.65,255.2L136.52,252.81L142.45,252.8L154.32,250.29L160.26,248.57L166.19,245.99L172.13,244.88L184,246.45L189.94,246.42L195.87,245.47L201.81,243.33L213.68,241.27L219.61,239.49L225.55,237.27L231.48,236.44L237.42,236.42L243.35,235.25L249.29,233.95L255.23,231.33L261.16,229.58L267.1,226.22L273.03,224.8L278.97,225.15L284.9,224.11L290.84,225.31L296.77,221.75L302.71,220.25L308.65,217.47L314.58,209.59L326.45,194.2L332.39,187.09L338.32,181.61L344.26,179.43L350.19,175.5L356.13,168.4L362.06,158.66L368,154.83L368,164.02L362.06,167.69L356.13,177.73L350.19,184.37L344.26,188.99L338.32,191.08L332.39,196.95L326.45,203.9L308.65,227.54L302.71,230.48L296.77,231.78L290.84,235.37L284.9,234.53L278.97,235.65L273.03,235.64L267.1,236.73L261.16,240.12L255.23,241.99L249.29,244.7L243.35,246.44L225.55,249.38L219.61,251.66L207.74,254.8L201.81,255.51L195.87,257.4L189.94,258.32L172.13,258.27L166.19,258.81L160.26,260.91L154.32,262.82L148.39,263.59L142.45,265.28L118.71,267.86L112.77,270.56L100.9,272.57L94.97,271.77L89.03,272.41L83.1,273.05L71.23,273.37L65.29,272.2L59.35,269.49L53.42,270.29L47.48,272.65L41.55,275.84L0,278.24Z" style="fill: rgb(44, 160, 44); fill-opacity: 0.5; stroke-width: 0;"/></g></g><g class="errorbars"/><g class="lines"><path class="js-line" d="M0,278.24L41.55,275.84L47.48,272.65L53.42,270.29L59.35,269.49L65.29,272.2L71.23,273.37L83.1,273.05L89.03,272.41L94.97,271.77L100.9,272.57L112.77,270.56L118.71,267.86L142.45,265.28L148.39,263.59L154.32,262.82L160.26,260.91L166.19,258.81L172.13,258.27L189.94,258.32L195.87,257.4L201.81,255.51L207.74,254.8L219.61,251.66L225.55,249.38L243.35,246.44L249.29,244.7L255.23,241.99L261.16,240.12L267.1,236.73L273.03,235.64L278.97,235.65L284.9,234.53L290.84,235.37L296.77,231.78L302.71,230.48L308.65,227.54L326.45,203.9L332.39,196.95L338.32,191.08L344.26,188.99L350.19,184.37L356.13,177.73L362.06,167.69L368,164.02" style="vector-effect: non-scaling-stroke; fill: none; stroke: rgb(255, 127, 14); stroke-opacity: 1; stroke-width: 2px; opacity: 1;"/></g><g class="points"/><g class="text"/></g><g class="trace scatter trace67e1a6" style="stroke-miterlimit: 2;"><g class="fills"><g><path class="js-fill" d="M0,271.38L11.87,269.46L17.81,269.23L41.55,265.42L47.48,262.44L53.42,260.01L59.35,258.4L65.29,260.74L71.23,261.19L94.97,258.45L100.9,259.43L112.77,255.82L118.71,253.38L130.58,251.47L136.52,250.25L142.45,250.03L148.39,248.79L160.26,245.33L166.19,242.92L172.13,241.56L178.06,242.12L189.94,242.23L195.87,241L201.81,238.43L207.74,237.37L219.61,233.45L225.55,230.85L231.48,229.51L237.42,229.12L249.29,225.79L255.23,222.91L261.16,220.71L267.1,216.63L273.03,214.68L278.97,214.49L284.9,213.26L290.84,213.67L296.77,209.52L302.71,207.81L308.65,204.59L314.58,196.35L326.45,179.18L332.39,170.89L338.32,163.92L344.26,160.71L350.19,154.38L356.13,146.31L362.06,135.51L368,130.2L368,154.83L362.06,158.66L356.13,168.4L350.19,175.5L344.26,179.43L338.32,181.61L332.39,187.09L326.45,194.2L314.58,209.59L308.65,217.47L302.71,220.25L296.77,221.75L290.84,225.31L284.9,224.11L278.97,225.15L273.03,224.8L267.1,226.22L261.16,229.58L255.23,231.33L249.29,233.95L243.35,235.25L237.42,236.42L231.48,236.44L225.55,237.27L219.61,239.49L213.68,241.27L201.81,243.33L195.87,245.47L189.94,246.42L184,246.45L172.13,244.88L166.19,245.99L160.26,248.57L154.32,250.29L142.45,252.8L136.52,252.81L124.65,255.2L118.71,255.67L112.77,258.07L106.84,260.2L100.9,261.45L94.97,260.48L71.23,262.89L65.29,262.29L59.35,259.83L53.42,261.31L47.48,263.67L41.55,266.6L17.81,270.12L11.87,270.33L0,272.17Z" style="fill: rgb(214, 39, 40); fill-opacity: 0.5; stroke-width: 0;"/></g></g><g class="errorbars"/><g class="lines"><path class="js-line" d="M0,272.17L11.87,270.33L17.81,270.12L41.55,266.6L47.48,263.67L53.42,261.31L59.35,259.83L65.29,262.29L71.23,262.89L94.97,260.48L100.9,261.45L106.84,260.2L112.77,258.07L118.71,255.67L124.65,255.2L136.52,252.81L142.45,252.8L154.32,250.29L160.26,248.57L166.19,245.99L172.13,244.88L184,246.45L189.94,246.42L195.87,245.47L201.81,243.33L213.68,241.27L219.61,239.49L225.55,237.27L231.48,236.44L237.42,236.42L243.35,235.25L249.29,233.95L255.23,231.33L261.16,229.58L267.1,226.22L273.03,224.8L278.97,225.15L284.9,224.11L290.84,225.31L296.77,221.75L302.71,220.25L308.65,217.47L314.58,209.59L326.45,194.2L332.39,187.09L338.32,181.61L344.26,179.43L350.19,175.5L356.13,168.4L362.06,158.66L368,154.83" style="vector-effect: non-scaling-stroke; fill: none; stroke: rgb(44, 160, 44); stroke-opacity: 1; stroke-width: 2px; opacity: 1;"/></g><g class="points"/><g class="text"/></g><g class="trace scatter traceda7503" style="stroke-miterlimit: 2;"><g class="fills"><g><path class="js-fill" d="M0,271.45L11.87,269.41L17.81,269.18L29.68,267.09L35.61,265.95L41.55,265.27L47.48,262.26L59.35,258.1L65.29,260.48L71.23,260.93L77.16,260.04L94.97,258.09L100.9,259.05L112.77,255.35L118.71,252.71L124.65,252.21L130.58,250.9L136.52,249.56L142.45,249.26L154.32,246.11L160.26,244.2L166.19,241.76L172.13,240.32L184,241.21L189.94,240.63L195.87,239.18L201.81,236.63L213.68,233.86L219.61,231.53L225.55,228.92L231.48,227.43L237.42,226.89L243.35,224.76L249.29,222.9L255.23,220.06L261.16,217.51L267.1,213.29L273.03,211.24L278.97,210.9L284.9,209.64L290.84,209.71L296.77,205.41L302.71,203.57L308.65,200.14L314.58,191.63L326.45,173.72L332.39,164.94L338.32,157.54L344.26,154.17L350.19,147.62L356.13,139.59L362.06,128.54L368,123.15L368,130.2L362.06,135.51L356.13,146.31L350.19,154.38L344.26,160.71L338.32,163.92L332.39,170.89L326.45,179.18L314.58,196.35L308.65,204.59L302.71,207.81L296.77,209.52L290.84,213.67L284.9,213.26L278.97,214.49L273.03,214.68L267.1,216.63L261.16,220.71L255.23,222.91L249.29,225.79L237.42,229.12L231.48,229.51L225.55,230.85L219.61,233.45L207.74,237.37L201.81,238.43L195.87,241L189.94,242.23L178.06,242.12L172.13,241.56L166.19,242.92L160.26,245.33L148.39,248.79L142.45,250.03L136.52,250.25L130.58,251.47L118.71,253.38L112.77,255.82L100.9,259.43L94.97,258.45L71.23,261.19L65.29,260.74L59.35,258.4L53.42,260.01L47.48,262.44L41.55,265.42L17.81,269.23L11.87,269.46L0,271.38Z" style="fill: rgb(148, 103, 189); fill-opacity: 0.5; stroke-width: 0;"/></g></g><g class="errorbars"/><g class="lines"><path class="js-line" d="M0,271.38L11.87,269.46L17.81,269.23L41.55,265.42L47.48,262.44L53.42,260.01L59.35,258.4L65.29,260.74L71.23,261.19L94.97,258.45L100.9,259.43L112.77,255.82L118.71,253.38L130.58,251.47L136.52,250.25L142.45,250.03L148.39,248.79L160.26,245.33L166.19,242.92L172.13,241.56L178.06,242.12L189.94,242.23L195.87,241L201.81,238.43L207.74,237.37L219.61,233.45L225.55,230.85L231.48,229.51L237.42,229.12L249.29,225.79L255.23,222.91L261.16,220.71L267.1,216.63L273.03,214.68L278.97,214.49L284.9,213.26L290.84,213.67L296.77,209.52L302.71,207.81L308.65,204.59L314.58,196.35L326.45,179.18L332.39,170.89L338.32,163.92L344.26,160.71L350.19,154.38L356.13,146.31L362.06,135.51L368,130.2" style="vector-effect: non-scaling-stroke; fill: none; stroke: rgb(214, 39, 40); stroke-opacity: 1; stroke-width: 2px; opacity: 1;"/></g><g class="points"/><g class="text"/></g><g class="trace scatter tracee7ccba" style="stroke-miterlimit: 2;"><g class="fills"><g><path class="js-fill" d="M0,270.23L5.94,268.64L11.87,267.86L23.74,266.68L29.68,265.41L41.55,263.03L47.48,260.11L59.35,255.34L65.29,257.12L71.23,257.45L77.16,256.18L94.97,253.11L100.9,253.24L106.84,250.83L112.77,247.59L118.71,243.59L124.65,242.85L130.58,241.03L136.52,238.33L148.39,237.36L154.32,235.19L172.13,228.75L178.06,229.82L184,230.55L189.94,230.27L195.87,228.74L201.81,225.5L213.68,223.03L219.61,220.62L225.55,217.16L231.48,215.32L237.42,213.85L243.35,211.6L249.29,209.63L255.23,206.85L261.16,203.65L267.1,199.26L273.03,197.02L278.97,196.73L290.84,195.52L296.77,191.04L302.71,189.39L308.65,185.55L338.32,142.55L344.26,140.23L350.19,134.42L356.13,125.82L362.06,114.19L368,108.32L368,123.15L362.06,128.54L356.13,139.59L350.19,147.62L344.26,154.17L338.32,157.54L332.39,164.94L326.45,173.72L314.58,191.63L308.65,200.14L302.71,203.57L296.77,205.41L290.84,209.71L284.9,209.64L278.97,210.9L273.03,211.24L267.1,213.29L261.16,217.51L255.23,220.06L249.29,222.9L243.35,224.76L237.42,226.89L231.48,227.43L225.55,228.92L219.61,231.53L213.68,233.86L201.81,236.63L195.87,239.18L189.94,240.63L184,241.21L172.13,240.32L166.19,241.76L160.26,244.2L154.32,246.11L142.45,249.26L136.52,249.56L130.58,250.9L124.65,252.21L118.71,252.71L112.77,255.35L100.9,259.05L94.97,258.09L77.16,260.04L71.23,260.93L65.29,260.48L59.35,258.1L47.48,262.26L41.55,265.27L35.61,265.95L29.68,267.09L17.81,269.18L11.87,269.41L0,271.45Z" style="fill: rgb(140, 86, 75); fill-opacity: 0.5; stroke-width: 0;"/></g></g><g class="errorbars"/><g class="lines"><path class="js-line" d="M0,271.45L11.87,269.41L17.81,269.18L29.68,267.09L35.61,265.95L41.55,265.27L47.48,262.26L59.35,258.1L65.29,260.48L71.23,260.93L77.16,260.04L94.97,258.09L100.9,259.05L112.77,255.35L118.71,252.71L124.65,252.21L130.58,250.9L136.52,249.56L142.45,249.26L154.32,246.11L160.26,244.2L166.19,241.76L172.13,240.32L184,241.21L189.94,240.63L195.87,239.18L201.81,236.63L213.68,233.86L219.61,231.53L225.55,228.92L231.48,227.43L237.42,226.89L243.35,224.76L249.29,222.9L255.23,220.06L261.16,217.51L267.1,213.29L273.03,211.24L278.97,210.9L284.9,209.64L290.84,209.71L296.77,205.41L302.71,203.57L308.65,200.14L314.58,191.63L326.45,173.72L332.39,164.94L338.32,157.54L344.26,154.17L350.19,147.62L356.13,139.59L362.06,128.54L368,123.15" style="vector-effect: non-scaling-stroke; fill: none; stroke: rgb(148, 103, 189); stroke-opacity: 1; stroke-width: 2px; opacity: 1;"/></g><g class="points"/><g class="text"/></g><g class="trace scatter trace6a64f8" style="stroke-miterlimit: 2;"><g class="fills"><g><path class="js-fill" d="M0,270.2L5.94,268.6L11.87,267.82L23.74,266.62L29.68,265.33L41.55,262.94L47.48,260L59.35,255.2L65.29,256.95L71.23,257.25L77.16,255.93L94.97,252.76L100.9,252.82L106.84,250.39L112.77,247.09L118.71,242.96L124.65,242.2L130.58,240.35L136.52,237.48L142.45,237.32L148.39,236.39L172.13,227.22L178.06,228.25L184,228.92L189.94,228.63L195.87,226.99L201.81,223.61L213.68,221L219.61,218.5L225.55,214.74L231.48,212.76L243.35,208.37L249.29,206.08L261.16,199.44L267.1,194.68L273.03,192.12L278.97,191.54L290.84,190.66L296.77,185.54L302.71,183.72L308.65,179.93L338.32,136.42L344.26,133.97L350.19,128L356.13,118.84L362.06,106.91L368,100.99L368,108.32L362.06,114.19L356.13,125.82L350.19,134.42L344.26,140.23L338.32,142.55L308.65,185.55L302.71,189.39L296.77,191.04L290.84,195.52L278.97,196.73L273.03,197.02L267.1,199.26L261.16,203.65L255.23,206.85L249.29,209.63L243.35,211.6L237.42,213.85L231.48,215.32L225.55,217.16L219.61,220.62L213.68,223.03L201.81,225.5L195.87,228.74L189.94,230.27L184,230.55L178.06,229.82L172.13,228.75L154.32,235.19L148.39,237.36L136.52,238.33L130.58,241.03L124.65,242.85L118.71,243.59L112.77,247.59L106.84,250.83L100.9,253.24L94.97,253.11L77.16,256.18L71.23,257.45L65.29,257.12L59.35,255.34L47.48,260.11L41.55,263.03L29.68,265.41L23.74,266.68L11.87,267.86L5.94,268.64L0,270.23Z" style="fill: rgb(227, 119, 194); fill-opacity: 0.5; stroke-width: 0;"/></g></g><g class="errorbars"/><g class="lines"><path class="js-line" d="M0,270.23L5.94,268.64L11.87,267.86L23.74,266.68L29.68,265.41L41.55,263.03L47.48,260.11L59.35,255.34L65.29,257.12L71.23,257.45L77.16,256.18L94.97,253.11L100.9,253.24L106.84,250.83L112.77,247.59L118.71,243.59L124.65,242.85L130.58,241.03L136.52,238.33L148.39,237.36L154.32,235.19L172.13,228.75L178.06,229.82L184,230.55L189.94,230.27L195.87,228.74L201.81,225.5L213.68,223.03L219.61,220.62L225.55,217.16L231.48,215.32L237.42,213.85L243.35,211.6L249.29,209.63L255.23,206.85L261.16,203.65L267.1,199.26L273.03,197.02L278.97,196.73L290.84,195.52L296.77,191.04L302.71,189.39L308.65,185.55L338.32,142.55L344.26,140.23L350.19,134.42L356.13,125.82L362.06,114.19L368,108.32" style="vector-effect: non-scaling-stroke; fill: none; stroke: rgb(140, 86, 75); stroke-opacity: 1; stroke-width: 2px; opacity: 1;"/></g><g class="points"/><g class="text"/></g><g class="trace scatter tracea6b977" style="stroke-miterlimit: 2;"><g class="fills"><g><path class="js-fill" d="M0,265.25L5.94,263.23L11.87,262.07L23.74,259.97L29.68,257.79L41.55,253.89L47.48,250.34L59.35,244.62L65.29,246.04L71.23,245.8L77.16,243.66L94.97,238.13L100.9,237.53L106.84,234.67L112.77,230.72L118.71,225.74L124.65,224.08L130.58,221.27L136.52,217.61L142.45,216.7L148.39,214.72L172.13,202.86L178.06,202.93L184,204.07L189.94,203.31L195.87,201.25L201.81,197.64L207.74,194.62L213.68,192.89L225.55,184.73L231.48,183.38L237.42,184.54L243.35,182.11L255.23,180.96L261.16,180.09L267.1,175.96L273.03,173.83L284.9,174.5L290.84,173.21L296.77,167.58L302.71,165.72L308.65,161.95L314.58,152.92L326.45,134.55L332.39,125.13L338.32,117.12L344.26,114.41L350.19,109.78L356.13,99.42L362.06,86.57L368,80.56L368,100.99L362.06,106.91L356.13,118.84L350.19,128L344.26,133.97L338.32,136.42L308.65,179.93L302.71,183.72L296.77,185.54L290.84,190.66L278.97,191.54L273.03,192.12L267.1,194.68L261.16,199.44L249.29,206.08L243.35,208.37L231.48,212.76L225.55,214.74L219.61,218.5L213.68,221L201.81,223.61L195.87,226.99L189.94,228.63L184,228.92L178.06,228.25L172.13,227.22L148.39,236.39L142.45,237.32L136.52,237.48L130.58,240.35L124.65,242.2L118.71,242.96L112.77,247.09L106.84,250.39L100.9,252.82L94.97,252.76L77.16,255.93L71.23,257.25L65.29,256.95L59.35,255.2L47.48,260L41.55,262.94L29.68,265.33L23.74,266.62L11.87,267.82L5.94,268.6L0,270.2Z" style="fill: rgb(127, 127, 127); fill-opacity: 0.5; stroke-width: 0;"/></g></g><g class="errorbars"/><g class="lines"><path class="js-line" d="M0,270.2L5.94,268.6L11.87,267.82L23.74,266.62L29.68,265.33L41.55,262.94L47.48,260L59.35,255.2L65.29,256.95L71.23,257.25L77.16,255.93L94.97,252.76L100.9,252.82L106.84,250.39L112.77,247.09L118.71,242.96L124.65,242.2L130.58,240.35L136.52,237.48L142.45,237.32L148.39,236.39L172.13,227.22L178.06,228.25L184,228.92L189.94,228.63L195.87,226.99L201.81,223.61L213.68,221L219.61,218.5L225.55,214.74L231.48,212.76L243.35,208.37L249.29,206.08L261.16,199.44L267.1,194.68L273.03,192.12L278.97,191.54L290.84,190.66L296.77,185.54L302.71,183.72L308.65,179.93L338.32,136.42L344.26,133.97L350.19,128L356.13,118.84L362.06,106.91L368,100.99" style="vector-effect: non-scaling-stroke; fill: none; stroke: rgb(227, 119, 194); stroke-opacity: 1; stroke-width: 2px; opacity: 1;"/></g><g class="points"/><g class="text"/></g><g class="trace scatter tracee34b73" style="stroke-miterlimit: 2;"><g class="fills"><g><path class="js-fill" d="M0,265.18L11.87,262.07L17.81,261.3L23.74,259.95L29.68,257.77L41.55,253.86L47.48,250.3L59.35,244.59L65.29,246L71.23,245.73L77.16,243.58L94.97,238.06L100.9,237.45L106.84,234.56L112.77,230.58L118.71,225.54L124.65,223.92L130.58,221.09L136.52,217.4L142.45,216.45L148.39,214.45L172.13,201.98L178.06,200.91L184,202.07L189.94,201.25L195.87,199.19L201.81,195.81L207.74,193.05L213.68,191.22L225.55,182.78L231.48,181.43L237.42,182.56L243.35,179.89L255.23,178.49L261.16,177.48L267.1,173.31L273.03,171.03L278.97,171.87L284.9,171.75L290.84,170.4L296.77,164.66L302.71,162.73L308.65,158.76L338.32,112.99L344.26,109.93L350.19,105.07L356.13,94.24L362.06,81.19L368,74.86L368,80.56L362.06,86.57L356.13,99.42L350.19,109.78L344.26,114.41L338.32,117.12L332.39,125.13L326.45,134.55L314.58,152.92L308.65,161.95L302.71,165.72L296.77,167.58L290.84,173.21L284.9,174.5L273.03,173.83L267.1,175.96L261.16,180.09L255.23,180.96L243.35,182.11L237.42,184.54L231.48,183.38L225.55,184.73L213.68,192.89L207.74,194.62L201.81,197.64L195.87,201.25L189.94,203.31L184,204.07L178.06,202.93L172.13,202.86L148.39,214.72L142.45,216.7L136.52,217.61L130.58,221.27L124.65,224.08L118.71,225.74L112.77,230.72L106.84,234.67L100.9,237.53L94.97,238.13L77.16,243.66L71.23,245.8L65.29,246.04L59.35,244.62L47.48,250.34L41.55,253.89L29.68,257.79L23.74,259.97L11.87,262.07L5.94,263.23L0,265.25Z" style="fill: rgb(188, 189, 34); fill-opacity: 0.5; stroke-width: 0;"/></g></g><g class="errorbars"/><g class="lines"><path class="js-line" d="M0,265.25L5.94,263.23L11.87,262.07L23.74,259.97L29.68,257.79L41.55,253.89L47.48,250.34L59.35,244.62L65.29,246.04L71.23,245.8L77.16,243.66L94.97,238.13L100.9,237.53L106.84,234.67L112.77,230.72L118.71,225.74L124.65,224.08L130.58,221.27L136.52,217.61L142.45,216.7L148.39,214.72L172.13,202.86L178.06,202.93L184,204.07L189.94,203.31L195.87,201.25L201.81,197.64L207.74,194.62L213.68,192.89L225.55,184.73L231.48,183.38L237.42,184.54L243.35,182.11L255.23,180.96L261.16,180.09L267.1,175.96L273.03,173.83L284.9,174.5L290.84,173.21L296.77,167.58L302.71,165.72L308.65,161.95L314.58,152.92L326.45,134.55L332.39,125.13L338.32,117.12L344.26,114.41L350.19,109.78L356.13,99.42L362.06,86.57L368,80.56" style="vector-effect: non-scaling-stroke; fill: none; stroke: rgb(127, 127, 127); stroke-opacity: 1; stroke-width: 2px; opacity: 1;"/></g><g class="points"/><g class="text"/></g><g class="trace scatter trace2067b5" style="stroke-miterlimit: 2;"><g class="fills"><g><path class="js-fill" d="M0,235.59L5.94,232.73L11.87,232.4L17.81,230.89L23.74,230.94L29.68,225.95L35.61,222.36L41.55,220.81L47.48,218.17L59.35,210.67L65.29,212.17L71.23,210.57L77.16,206.83L94.97,196.05L100.9,193.93L106.84,189.45L112.77,183.18L118.71,174.51L124.65,172.55L136.52,161.17L142.45,162.02L148.39,162.31L154.32,155.97L160.26,150.43L166.19,146.63L172.13,143.72L178.06,145.08L189.94,149.03L195.87,147.29L201.81,141.64L207.74,138.6L213.68,137.05L219.61,131.48L225.55,124.35L231.48,122.31L237.42,124.25L243.35,121.98L249.29,120.91L255.23,118.46L261.16,116.47L267.1,111.66L273.03,107.42L278.97,106.13L284.9,106.14L290.84,104.46L296.77,96.43L302.71,94.74L308.65,91.62L314.58,81.54L320.52,70.39L326.45,61.63L338.32,43.93L344.26,43L350.19,43.06L356.13,29.31L362.06,17.87L368,14.05L368,74.86L362.06,81.19L356.13,94.24L350.19,105.07L344.26,109.93L338.32,112.99L308.65,158.76L302.71,162.73L296.77,164.66L290.84,170.4L284.9,171.75L278.97,171.87L273.03,171.03L267.1,173.31L261.16,177.48L255.23,178.49L243.35,179.89L237.42,182.56L231.48,181.43L225.55,182.78L213.68,191.22L207.74,193.05L201.81,195.81L195.87,199.19L189.94,201.25L184,202.07L178.06,200.91L172.13,201.98L148.39,214.45L142.45,216.45L136.52,217.4L130.58,221.09L124.65,223.92L118.71,225.54L112.77,230.58L106.84,234.56L100.9,237.45L94.97,238.06L77.16,243.58L71.23,245.73L65.29,246L59.35,244.59L47.48,250.3L41.55,253.86L29.68,257.77L23.74,259.95L17.81,261.3L11.87,262.07L0,265.18Z" style="fill: rgb(23, 190, 207); fill-opacity: 0.5; stroke-width: 0;"/></g></g><g class="errorbars"/><g class="lines"><path class="js-line" d="M0,265.18L11.87,262.07L17.81,261.3L23.74,259.95L29.68,257.77L41.55,253.86L47.48,250.3L59.35,244.59L65.29,246L71.23,245.73L77.16,243.58L94.97,238.06L100.9,237.45L106.84,234.56L112.77,230.58L118.71,225.54L124.65,223.92L130.58,221.09L136.52,217.4L142.45,216.45L148.39,214.45L172.13,201.98L178.06,200.91L184,202.07L189.94,201.25L195.87,199.19L201.81,195.81L207.74,193.05L213.68,191.22L225.55,182.78L231.48,181.43L237.42,182.56L243.35,179.89L255.23,178.49L261.16,177.48L267.1,173.31L273.03,171.03L278.97,171.87L284.9,171.75L290.84,170.4L296.77,164.66L302.71,162.73L308.65,158.76L338.32,112.99L344.26,109.93L350.19,105.07L356.13,94.24L362.06,81.19L368,74.86" style="vector-effect: non-scaling-stroke; fill: none; stroke: rgb(188, 189, 34); stroke-opacity: 1; stroke-width: 2px; opacity: 1;"/></g><g class="points"/><g class="text"/></g><g class="trace scatter traceddad64" style="stroke-miterlimit: 2;"><g class="fills"/><g class="errorbars"/><g class="lines"><path class="js-line" d="M0,235.59L5.94,232.73L11.87,232.4L17.81,230.89L23.74,230.94L29.68,225.95L35.61,222.36L41.55,220.81L47.48,218.17L59.35,210.67L65.29,212.17L71.23,210.57L77.16,206.83L94.97,196.05L100.9,193.93L106.84,189.45L112.77,183.18L118.71,174.51L124.65,172.55L136.52,161.17L142.45,162.02L148.39,162.31L154.32,155.97L160.26,150.43L166.19,146.63L172.13,143.72L178.06,145.08L189.94,149.03L195.87,147.29L201.81,141.64L207.74,138.6L213.68,137.05L219.61,131.48L225.55,124.35L231.48,122.31L237.42,124.25L243.35,121.98L249.29,120.91L255.23,118.46L261.16,116.47L267.1,111.66L273.03,107.42L278.97,106.13L284.9,106.14L290.84,104.46L296.77,96.43L302.71,94.74L308.65,91.62L314.58,81.54L320.52,70.39L326.45,61.63L338.32,43.93L344.26,43L350.19,43.06L356.13,29.31L362.06,17.87L368,14.05" style="vector-effect: non-scaling-stroke; fill: none; stroke: rgb(23, 190, 207); stroke-opacity: 1; stroke-width: 2px; opacity: 1;"/></g><g class="points"/><g class="text"/></g></g></g><g class="overplot"/><path class="xlines-above crisp" d="M62,291.5H431" style="fill: none; stroke-width: 1px; stroke: rgb(36, 36, 36); stroke-opacity: 1;"/><path class="ylines-above crisp" d="M62.5,10V291" style="fill: none; stroke-width: 1px; stroke: rgb(36, 36, 36); stroke-opacity: 1;"/><g class="overlines-above"/><g class="xaxislayer-above"><path class="xtick ticks crisp" d="M0,292v5" transform="translate(122.35,0)" style="stroke: rgb(68, 68, 68); stroke-opacity: 1; stroke-width: 1px;"/><path class="xtick ticks crisp" d="M0,292v5" transform="translate(241.06,0)" style="stroke: rgb(68, 68, 68); stroke-opacity: 1; stroke-width: 1px;"/><path class="xtick ticks crisp" d="M0,292v5" transform="translate(359.77,0)" style="stroke: rgb(68, 68, 68); stroke-opacity: 1; stroke-width: 1px;"/><g class="xtick"><text text-anchor="middle" x="0" y="311.4" transform="translate(122.35,0)" style="font-family: 'Open Sans', verdana, arial, sans-serif; font-size: 12px; fill: rgb(36, 36, 36); fill-opacity: 1; white-space: pre; opacity: 1;">1960</text></g><g class="xtick"><text text-anchor="middle" x="0" y="311.4" style="font-family: 'Open Sans', verdana, arial, sans-serif; font-size: 12px; fill: rgb(36, 36, 36); fill-opacity: 1; white-space: pre; opacity: 1;" transform="translate(241.06,0)">1980</text></g><g class="xtick"><text text-anchor="middle" x="0" y="311.4" style="font-family: 'Open Sans', verdana, arial, sans-serif; font-size: 12px; fill: rgb(36, 36, 36); fill-opacity: 1; white-space: pre; opacity: 1;" transform="translate(359.77,0)">2000</text></g></g><g class="yaxislayer-above"><path class="ytick ticks crisp" d="M62,0h-5" transform="translate(0,291)" style="stroke: rgb(68, 68, 68); stroke-opacity: 1; stroke-width: 1px;"/><path class="ytick ticks crisp" d="M62,0h-5" transform="translate(0,231.65)" style="stroke: rgb(68, 68, 68); stroke-opacity: 1; stroke-width: 1px;"/><path class="ytick ticks crisp" d="M62,0h-5" transform="translate(0,172.3)" style="stroke: rgb(68, 68, 68); stroke-opacity: 1; stroke-width: 1px;"/><path class="ytick ticks crisp" d="M62,0h-5" transform="translate(0,112.95)" style="stroke: rgb(68, 68, 68); stroke-opacity: 1; stroke-width: 1px;"/><path class="ytick ticks crisp" d="M62,0h-5" transform="translate(0,53.6)" style="stroke: rgb(68, 68, 68); stroke-opacity: 1; stroke-width: 1px;"/><g class="ytick"><text text-anchor="end" x="54.6" y="4.199999999999999" transform="translate(0,291)" style="font-family: 'Open Sans', verdana, arial, sans-serif; font-size: 12px; fill: rgb(36, 36, 36); fill-opacity: 1; white-space: pre; opacity: 1;">0</text></g><g class="ytick"><text text-anchor="end" x="54.6" y="4.199999999999999" style="font-family: 'Open Sans', verdana, arial, sans-serif; font-size: 12px; fill: rgb(36, 36, 36); fill-opacity: 1; white-space: pre; opacity: 1;" transform="translate(0,231.65)">5k</text></g><g class="ytick"><text text-anchor="end" x="54.6" y="4.199999999999999" style="font-family: 'Open Sans', verdana, arial, sans-serif; font-size: 12px; fill: rgb(36, 36, 36); fill-opacity: 1; white-space: pre; opacity: 1;" transform="translate(0,172.3)">10k</text></g><g class="ytick"><text text-anchor="end" x="54.6" y="4.199999999999999" style="font-family: 'Open Sans', verdana, arial, sans-serif; font-size: 12px; fill: rgb(36, 36, 36); fill-opacity: 1; white-space: pre; opacity: 1;" transform="translate(0,112.95)">15k</text></g><g class="ytick"><text text-anchor="end" x="54.6" y="4.199999999999999" style="font-family: 'Open Sans', verdana, arial, sans-serif; font-size: 12px; fill: rgb(36, 36, 36); fill-opacity: 1; white-space: pre; opacity: 1;" transform="translate(0,53.6)">20k</text></g></g><g class="overaxes-above"/></g></g><g class="polarlayer"/><g class="smithlayer"/><g class="ternarylayer"/><g class="geolayer"/><g class="funnelarealayer"/><g class="pielayer"/><g class="iciclelayer"/><g class="treemaplayer"/><g class="sunburstlayer"/><g class="glimages"/><defs id="topdefs-8a3aed"><g class="clips"/><clipPath id="legend8a3aed"><rect width="152" height="219" x="0" y="0"/></clipPath></defs><g class="layer-above"><g class="imagelayer"/><g class="shapelayer"/></g><g class="infolayer"><g class="legend" pointer-events="all" transform="translate(438.36,10)"><rect class="bg" shape-rendering="crispEdges" style="stroke: rgb(68, 68, 68); stroke-opacity: 1; fill: rgb(255, 255, 255); fill-opacity: 1; stroke-width: 0px;" width="152" height="219" x="0" y="0"/><g class="scrollbox" transform="" clip-path="url(#legend8a3aed)"><text class="legendtitletext" text-anchor="start" x="2" y="18.2" style="font-family: 'Open Sans', verdana, arial, sans-serif; font-size: 14px; fill: rgb(36, 36, 36); fill-opacity: 1; white-space: pre;">Country</text><g class="groups" transform=""><g class="traces" transform="translate(0,32.7)" style="opacity: 1;"><text class="legendtext" text-anchor="start" x="40" y="4.680000000000001" style="font-family: 'Open Sans', verdana, arial, sans-serif; font-size: 12px; fill: rgb(36, 36, 36); fill-opacity: 1; white-space: pre;">Canada</text><g class="layers"><g class="legendfill"><path class="js-fill" d="M5,-2h30v6h-30z" style="stroke-width: 0; fill: rgb(31, 119, 180); fill-opacity: 0.5;"/></g><g class="legendlines"><path class="js-line" d="M5,-2h30" style="fill: none; stroke: rgb(31, 119, 180); stroke-opacity: 1; stroke-width: 2px;"/></g><g class="legendsymbols"><g class="legendpoints"/></g></g><rect class="legendtoggle" x="0" y="-9.5" width="146.90625" height="19" style="fill: rgb(0, 0, 0); fill-opacity: 0;"/></g></g><g class="groups" transform=""><g class="traces" transform="translate(0,51.7)" style="opacity: 1;"><text class="legendtext" text-anchor="start" x="40" y="4.680000000000001" style="font-family: 'Open Sans', verdana, arial, sans-serif; font-size: 12px; fill: rgb(36, 36, 36); fill-opacity: 1; white-space: pre;">China</text><g class="layers"><g class="legendfill"><path class="js-fill" d="M5,-2h30v6h-30z" style="stroke-width: 0; fill: rgb(255, 127, 14); fill-opacity: 0.5;"/></g><g class="legendlines"><path class="js-line" d="M5,-2h30" style="fill: none; stroke: rgb(255, 127, 14); stroke-opacity: 1; stroke-width: 2px;"/></g><g class="legendsymbols"><g class="legendpoints"/></g></g><rect class="legendtoggle" x="0" y="-9.5" width="146.90625" height="19" style="fill: rgb(0, 0, 0); fill-opacity: 0;"/></g></g><g class="groups" transform=""><g class="traces" transform="translate(0,70.7)" style="opacity: 1;"><text class="legendtext" text-anchor="start" x="40" y="4.680000000000001" style="font-family: 'Open Sans', verdana, arial, sans-serif; font-size: 12px; fill: rgb(36, 36, 36); fill-opacity: 1; white-space: pre;">Germany</text><g class="layers"><g class="legendfill"><path class="js-fill" d="M5,-2h30v6h-30z" style="stroke-width: 0; fill: rgb(44, 160, 44); fill-opacity: 0.5;"/></g><g class="legendlines"><path class="js-line" d="M5,-2h30" style="fill: none; stroke: rgb(44, 160, 44); stroke-opacity: 1; stroke-width: 2px;"/></g><g class="legendsymbols"><g class="legendpoints"/></g></g><rect class="legendtoggle" x="0" y="-9.5" width="146.90625" height="19" style="fill: rgb(0, 0, 0); fill-opacity: 0;"/></g></g><g class="groups" transform=""><g class="traces" transform="translate(0,89.7)" style="opacity: 1;"><text class="legendtext" text-anchor="start" x="40" y="4.680000000000001" style="font-family: 'Open Sans', verdana, arial, sans-serif; font-size: 12px; fill: rgb(36, 36, 36); fill-opacity: 1; white-space: pre;">India</text><g class="layers"><g class="legendfill"><path class="js-fill" d="M5,-2h30v6h-30z" style="stroke-width: 0; fill: rgb(214, 39, 40); fill-opacity: 0.5;"/></g><g class="legendlines"><path class="js-line" d="M5,-2h30" style="fill: none; stroke: rgb(214, 39, 40); stroke-opacity: 1; stroke-width: 2px;"/></g><g class="legendsymbols"><g class="legendpoints"/></g></g><rect class="legendtoggle" x="0" y="-9.5" width="146.90625" height="19" style="fill: rgb(0, 0, 0); fill-opacity: 0;"/></g></g><g class="groups" transform=""><g class="traces" transform="translate(0,108.7)" style="opacity: 1;"><text class="legendtext" text-anchor="start" x="40" y="4.680000000000001" style="font-family: 'Open Sans', verdana, arial, sans-serif; font-size: 12px; fill: rgb(36, 36, 36); fill-opacity: 1; white-space: pre;">Iran</text><g class="layers"><g class="legendfill"><path class="js-fill" d="M5,-2h30v6h-30z" style="stroke-width: 0; fill: rgb(148, 103, 189); fill-opacity: 0.5;"/></g><g class="legendlines"><path class="js-line" d="M5,-2h30" style="fill: none; stroke: rgb(148, 103, 189); stroke-opacity: 1; stroke-width: 2px;"/></g><g class="legendsymbols"><g class="legendpoints"/></g></g><rect class="legendtoggle" x="0" y="-9.5" width="146.90625" height="19" style="fill: rgb(0, 0, 0); fill-opacity: 0;"/></g></g><g class="groups" transform=""><g class="traces" transform="translate(0,127.7)" style="opacity: 1;"><text class="legendtext" text-anchor="start" x="40" y="4.680000000000001" style="font-family: 'Open Sans', verdana, arial, sans-serif; font-size: 12px; fill: rgb(36, 36, 36); fill-opacity: 1; white-space: pre;">Japan</text><g class="layers"><g class="legendfill"><path class="js-fill" d="M5,-2h30v6h-30z" style="stroke-width: 0; fill: rgb(140, 86, 75); fill-opacity: 0.5;"/></g><g class="legendlines"><path class="js-line" d="M5,-2h30" style="fill: none; stroke: rgb(140, 86, 75); stroke-opacity: 1; stroke-width: 2px;"/></g><g class="legendsymbols"><g class="legendpoints"/></g></g><rect class="legendtoggle" x="0" y="-9.5" width="146.90625" height="19" style="fill: rgb(0, 0, 0); fill-opacity: 0;"/></g></g><g class="groups" transform=""><g class="traces" transform="translate(0,146.7)" style="opacity: 1;"><text class="legendtext" text-anchor="start" x="40" y="4.680000000000001" style="font-family: 'Open Sans', verdana, arial, sans-serif; font-size: 12px; fill: rgb(36, 36, 36); fill-opacity: 1; white-space: pre;">Korea, Rep. (South)</text><g class="layers"><g class="legendfill"><path class="js-fill" d="M5,-2h30v6h-30z" style="stroke-width: 0; fill: rgb(227, 119, 194); fill-opacity: 0.5;"/></g><g class="legendlines"><path class="js-line" d="M5,-2h30" style="fill: none; stroke: rgb(227, 119, 194); stroke-opacity: 1; stroke-width: 2px;"/></g><g class="legendsymbols"><g class="legendpoints"/></g></g><rect class="legendtoggle" x="0" y="-9.5" width="146.90625" height="19" style="fill: rgb(0, 0, 0); fill-opacity: 0;"/></g></g><g class="groups" transform=""><g class="traces" transform="translate(0,165.7)" style="opacity: 1;"><text class="legendtext" text-anchor="start" x="40" y="4.680000000000001" style="font-family: 'Open Sans', verdana, arial, sans-serif; font-size: 12px; fill: rgb(36, 36, 36); fill-opacity: 1; white-space: pre;">Russian Federation</text><g class="layers"><g class="legendfill"><path class="js-fill" d="M5,-2h30v6h-30z" style="stroke-width: 0; fill: rgb(127, 127, 127); fill-opacity: 0.5;"/></g><g class="legendlines"><path class="js-line" d="M5,-2h30" style="fill: none; stroke: rgb(127, 127, 127); stroke-opacity: 1; stroke-width: 2px;"/></g><g class="legendsymbols"><g class="legendpoints"/></g></g><rect class="legendtoggle" x="0" y="-9.5" width="146.90625" height="19" style="fill: rgb(0, 0, 0); fill-opacity: 0;"/></g></g><g class="groups" transform=""><g class="traces" transform="translate(0,184.7)" style="opacity: 1;"><text class="legendtext" text-anchor="start" x="40" y="4.680000000000001" style="font-family: 'Open Sans', verdana, arial, sans-serif; font-size: 12px; fill: rgb(36, 36, 36); fill-opacity: 1; white-space: pre;">Saudi Arabia</text><g class="layers"><g class="legendfill"><path class="js-fill" d="M5,-2h30v6h-30z" style="stroke-width: 0; fill: rgb(188, 189, 34); fill-opacity: 0.5;"/></g><g class="legendlines"><path class="js-line" d="M5,-2h30" style="fill: none; stroke: rgb(188, 189, 34); stroke-opacity: 1; stroke-width: 2px;"/></g><g class="legendsymbols"><g class="legendpoints"/></g></g><rect class="legendtoggle" x="0" y="-9.5" width="146.90625" height="19" style="fill: rgb(0, 0, 0); fill-opacity: 0;"/></g></g><g class="groups" transform=""><g class="traces" transform="translate(0,203.7)" style="opacity: 1;"><text class="legendtext" text-anchor="start" x="40" y="4.680000000000001" style="font-family: 'Open Sans', verdana, arial, sans-serif; font-size: 12px; fill: rgb(36, 36, 36); fill-opacity: 1; white-space: pre;">United States</text><g class="layers"><g class="legendfill"><path class="js-fill" d="M5,-2h30v6h-30z" style="stroke-width: 0; fill: rgb(23, 190, 207); fill-opacity: 0.5;"/></g><g class="legendlines"><path class="js-line" d="M5,-2h30" style="fill: none; stroke: rgb(23, 190, 207); stroke-opacity: 1; stroke-width: 2px;"/></g><g class="legendsymbols"><g class="legendpoints"/></g></g><rect class="legendtoggle" x="0" y="-9.5" width="146.90625" height="19" style="fill: rgb(0, 0, 0); fill-opacity: 0;"/></g></g></g><rect class="scrollbar" rx="20" ry="3" width="0" height="0" style="fill: rgb(128, 139, 164); fill-opacity: 1;" x="0" y="0"/></g><g class="g-gtitle"/><g class="g-xtitle"><text class="xtitle" x="247" y="339.70625" text-anchor="middle" style="font-family: 'Open Sans', verdana, arial, sans-serif; font-size: 14px; fill: rgb(36, 36, 36); opacity: 1; font-weight: normal; white-space: pre;">Year</text></g><g class="g-ytitle" transform="translate(5.2216796875,0)"><text class="ytitle" transform="rotate(-90,9.778125000000003,150.5)" x="9.778125000000003" y="150.5" text-anchor="middle" style="font-family: 'Open Sans', verdana, arial, sans-serif; font-size: 14px; fill: rgb(36, 36, 36); opacity: 1; font-weight: normal; white-space: pre;">CO2</text></g></g></svg>