<svg class="main-svg" xmlns="http://www.w3.org/2000/svg" xmlns:xlink="http://www.w3.org/1999/xlink" width="350" height="250" style="" viewBox="0 0 350 250"><rect x="0" y="0" width="350" height="250" style="fill: rgb(255, 255, 255); fill-opacity: 1;"/><defs id="defs-a9cfa2"><g class="clips"><clipPath id="clipa9cfa2xyplot" class="plotclip"><rect width="280" height="150.5196"/></clipPath><clipPath id="clipa9cfa2x2y2plot" class="plotclip"><rect width="280" height="28.670399999999997"/></clipPath><clipPath class="axesclip" id="clipa9cfa2x"><rect x="60" y="0" width="280" height="250"/></clipPath><clipPath class="axesclip" id="clipa9cfa2y"><rect x="0" y="40.4804" width="350" height="150.5196"/></clipPath><clipPath class="axesclip" id="clipa9cfa2xy"><rect x="60" y="40.4804" width="280" height="150.5196"/></clipPath><clipPath class="axesclip" id="clipa9cfa2y2"><rect x="0" y="10" width="350" height="28.670399999999997"/></clipPath><clipPath class="axesclip" id="clipa9cfa2xy2"><rect x="60" y="10" width="280" height="28.670399999999997"/></clipPath><clipPath class="axesclip" id="clipa9cfa2x2"><rect x="60" y="0" width="280" height="250"/></clipPath><clipPath class="axesclip" id="clipa9cfa2x2y"><rect x="60" y="40.4804" width="280" height="150.5196"/></clipPath><clipPath class="axesclip" id="clipa9cfa2x2y2"><rect x="60" y="10" width="280" height="28.670399999999997"/></clipPath></g><g class="gradients"/><g class="patterns"/></defs><g class="bglayer"/><g class="layer-below"><g class="imagelayer"/><g class="shapelayer"/></g><g class="cartesianlayer"><g class="subplot xy"><g class="layer-subplot"><g class="shapelayer"/><g class="imagelayer"/></g><g class="gridlayer"><g class="x"><path class="xgrid crisp" transform="translate(162.2,0)" d="M0,40.4804v150.5196" style="stroke: rgb(232, 232, 232); stroke-opacity: 1; stroke-width: 1px;"/><path class="xgrid crisp" transform="translate(288.2,0)" d="M0,40.4804v150.5196" style="stroke: rgb(232, 232, 232); stroke-opacity: 1; stroke-width: 1px;"/></g><g class="y"><path class="ygrid crisp" transform="translate(0,184.3004)" d="M60,0h280" style="stroke: rgb(232, 232, 232); stroke-opacity: 1; stroke-width: 1px;"/><path class="ygrid crisp" transform="translate(0,139.22039999999998)" d="M60,0h280" style="stroke: rgb(232, 232, 232); stroke-opacity: 1; stroke-width: 1px;"/><path class="ygrid crisp" transform="translate(0,94.1404)" d="M60,0h280" style="stroke: rgb(232, 232, 232); stroke-opacity: 1; stroke-width: 1px;"/><path class="ygrid crisp" transform="translate(0,49.0504)" d="M60,0h280" style="stroke: rgb(232, 232, 232); stroke-opacity: 1; stroke-width: 1px;"/></g></g><g class="zerolinelayer"/><path class="xlines-below"/><path class="ylines-below"/><g class="overlines-below"/><g class="xaxislayer-below"/><g class="yaxislayer-below"/><g class="overaxes-below"/><g class="plot" transform="translate(60,40.4804)" clip-path="url(#clipa9cfa2xyplot)"><g class="barlayer mlayer"><g class="trace bars" style="opacity: 1;"><g class="points"><g class="point"><path d="M1.4,143.82V122.85H26.6V143.82Z" style="vector-effect: non-scaling-stroke; opacity: 1; stroke-width: 1px; fill: rgb(76, 114, 176); fill-opacity: 0.3; stroke: rgb(0, 0, 0); stroke-opacity: 1;"/></g><g class="point"><path d="M26.6,143.82V122.85H51.8V143.82Z" style="vector-effect: non-scaling-stroke; opacity: 1; stroke-width: 1px; fill: rgb(76, 114, 176); fill-opacity: 0.3; stroke: rgb(0, 0, 0); stroke-opacity: 1;"/></g><g class="point"><path d="M0,0Z" style="vector-effect: non-scaling-stroke; opacity: 1; stroke-width: 0px; fill: rgb(76, 114, 176); fill-opacity: 0.3; stroke: rgb(0, 0, 0); stroke-opacity: 1;"/></g><g class="point"><path d="M77,143.82V91.4H102.2V143.82Z" style="vector-effect: non-scaling-stroke; opacity: 1; stroke-width: 1px; fill: rgb(76, 114, 176); fill-opacity: 0.3; stroke: rgb(0, 0, 0); stroke-opacity: 1;"/></g><g class="point"><path d="M102.2,143.82V80.92H127.4V143.82Z" style="vector-effect: non-scaling-stroke; opacity: 1; stroke-width: 1px; fill: rgb(76, 114, 176); fill-opacity: 0.3; stroke: rgb(0, 0, 0); stroke-opacity: 1;"/></g><g class="point"><path d="M127.4,143.82V59.95H152.6V143.82Z" style="vector-effect: non-scaling-stroke; opacity: 1; stroke-width: 1px; fill: rgb(76, 114, 176); fill-opacity: 0.3; stroke: rgb(0, 0, 0); stroke-opacity: 1;"/></g><g class="point"><path d="M152.6,143.82V7.53H177.8V143.82Z" style="vector-effect: non-scaling-stroke; opacity: 1; stroke-width: 1px; fill: rgb(76, 114, 176); fill-opacity: 0.3; stroke: rgb(0, 0, 0); stroke-opacity: 1;"/></g><g class="point"><path d="M177.8,143.82V91.4H203V143.82Z" style="vector-effect: non-scaling-stroke; opacity: 1; stroke-width: 1px; fill: rgb(76, 114, 176); fill-opacity: 0.3; stroke: rgb(0, 0, 0); stroke-opacity: 1;"/></g><g class="point"><path d="M203,143.82V133.34H228.2V143.82Z" style="vector-effect: non-scaling-stroke; opacity: 1; stroke-width: 1px; fill: rgb(76, 114, 176); fill-opacity: 0.3; stroke: rgb(0, 0, 0); stroke-opacity: 1;"/></g><g class="point"><path d="M0,0Z" style="vector-effect: non-scaling-stroke; opacity: 1; stroke-width: 0px; fill: rgb(76, 114, 176); fill-opacity: 0.3; stroke: rgb(0, 0, 0); stroke-opacity: 1;"/></g><g class="point"><path d="M253.4,143.82V133.34H278.6V143.82Z" style="vector-effect: non-scaling-stroke; opacity: 1; stroke-width: 1px; fill: rgb(76, 114, 176); fill-opacity: 0.3; stroke: rgb(0, 0, 0); stroke-opacity: 1;"/></g></g></g></g><g class="scatterlayer mlayer"><g class="trace scatter trace479c58" style="stroke-miterlimit: 2; opacity: 1;"><g class="fills"/><g class="errorbars"/><g class="lines"><path class="js-line" d="M14,124.7L19.09,123.22L21.64,123.56L29.27,125.4L31.82,125.32L42,122.86L44.55,123.26L49.64,126.37L52.18,128.64L57.27,132.49L59.82,133.14L62.36,132.44L64.91,130.18L67.45,126.34L70,121.11L80.18,96.04L82.73,91.61L85.27,88.59L87.82,86.86L92.91,85.87L95.45,85.87L103.09,86.24L105.64,86.74L115.82,89.29L118.36,88.93L123.45,86.06L126,83.55L131.09,76.29L133.64,71.38L138.73,58.48L141.27,50.49L151.45,16.22L154,10.53L156.55,7.54L159.09,7.76L161.64,11.34L164.18,18.02L169.27,37.88L171.82,49.19L176.91,70.18L179.45,78.74L184.55,91.13L187.09,95.18L192.18,100.42L194.73,102.32L202.36,108.87L204.91,111.81L222.73,134.95L225.27,137.34L230.36,140.79L232.91,141.87L238,142.92L240.55,142.99L245.64,142.29L248.18,141.49L255.82,137.54L258.36,136.05L263.45,133.9L266,133.6" style="vector-effect: non-scaling-stroke; fill: none; stroke: rgb(76, 114, 176); stroke-opacity: 1; stroke-width: 2px; opacity: 1;"/></g><g class="points"/><g class="text"/></g></g></g><g class="overplot"/><path class="xlines-above crisp" d="M59,191.5H340" style="fill: none; stroke-width: 1px; stroke: rgb(36, 36, 36); stroke-opacity: 1;"/><path class="ylines-above crisp" d="M59.5,40.4804V191" style="fill: none; stroke-width: 1px; stroke: rgb(36, 36, 36); stroke-opacity: 1;"/><g class="overlines-above"/><g class="xaxislayer-above"><path class="xtick ticks crisp" d="M0,192v5" transform="translate(162.2,0)" style="stroke: rgb(68, 68, 68); stroke-opacity: 1; stroke-width: 1px;"/><path class="xtick ticks crisp" d="M0,192v5" transform="translate(288.2,0)" style="stroke: rgb(68, 68, 68); stroke-opacity: 1; stroke-width: 1px;"/><g class="xtick"><text text-anchor="middle" x="0" y="211.4" transform="translate(162.2,0)" style="font-family: 'Open Sans', verdana, arial, sans-serif; font-size: 12px; fill: rgb(36, 36, 36); fill-opacity: 1; white-space: pre; opacity: 1;">10</text></g><g class="xtick"><text text-anchor="middle" x="0" y="211.4" style="font-family: 'Open Sans', verdana, arial, sans-serif; font-size: 12px; fill: rgb(36, 36, 36); fill-opacity: 1; white-space: pre; opacity: 1;" transform="translate(288.2,0)">15</text></g></g><g class="yaxislayer-above"><path class="ytick ticks crisp" d="M59,0h-5" transform="translate(0,184.3004)" style="stroke: rgb(68, 68, 68); stroke-opacity: 1; stroke-width: 1px;"/><path class="ytick ticks crisp" d="M59,0h-5" transform="translate(0,139.22039999999998)" style="stroke: rgb(68, 68, 68); stroke-opacity: 1; stroke-width: 1px;"/><path class="ytick ticks crisp" d="M59,0h-5" transform="translate(0,94.1404)" style="stroke: rgb(68, 68, 68); stroke-opacity: 1; stroke-width: 1px;"/><path class="ytick ticks crisp" d="M59,0h-5" transform="translate(0,49.0504)" style="stroke: rgb(68, 68, 68); stroke-opacity: 1; stroke-width: 1px;"/><g class="ytick"><text text-anchor="end" x="51.6" y="4.199999999999999" transform="translate(0,184.3004)" style="font-family: 'Open Sans', verdana, arial, sans-serif; font-size: 12px; fill: rgb(36, 36, 36); fill-opacity: 1; white-space: pre; opacity: 1;">0</text></g><g class="ytick"><text text-anchor="end" x="51.6" y="4.199999999999999" style="font-family: 'Open Sans', verdana, arial, sans-serif; font-size: 12px; fill: rgb(36, 36, 36); fill-opacity: 1; white-space: pre; opacity: 1;" transform="translate(0,139.22039999999998)">0.1</text></g><g class="ytick"><text text-anchor="end" x="51.6" y="4.199999999999999" style="font-family: 'Open Sans', verdana, arial, sans-serif; font-size: 12px; fill: rgb(36, 36, 36); fill-opacity: 1; white-space: pre; opacity: 1;" transform="translate(0,94.1404)">0.2</text></g><g class="ytick"><text text-anchor="end" x="51.6" y="4.199999999999999" style="font-family: 'Open Sans', verdana, arial, sans-serif; font-size: 12px; fill: rgb(36, 36, 36); fill-opacity: 1; white-space: pre; opacity: 1;" transform="translate(0,49.0504)">0.3</text></g></g><g class="overaxes-above"/></g><g class="subplot x2y2"><g class="layer-subplot"><g class="shapelayer"/><g class="imagelayer"/></g><g class="gridlayer"><g class="x2"><path class="x2grid crisp" transform="translate(162.2,0)" d="M0,10v28.670399999999997" style="stroke: rgb(232, 232, 232); stroke-opacity: 1; stroke-width: 1px;"/><path class="x2grid crisp" transform="translate(288.2,0)" d="M0,10v28.670399999999997" style="stroke: rgb(232, 232, 232); stroke-opacity: 1; stroke-width: 1px;"/></g><g class="y2"><path class="y2grid crisp" transform="translate(0,22.84)" d="M60,0h280" style="stroke: rgb(232, 232, 232); stroke-opacity: 1; stroke-width: 1px;"/></g></g><g class="zerolinelayer"/><path class="xlines-below"/><path class="ylines-below"/><g class="overlines-below"/><g class="xaxislayer-below"/><g class="yaxislayer-below"/><g class="overaxes-below"/><g class="plot" transform="translate(60,10)" clip-path="url(#clipa9cfa2x2y2plot)"><g class="boxlayer mlayer"><g class="trace boxes" style="opacity: 1;"><path class="box" d="M147.81,19.12V6.55M102.83,19.12V6.55H165.77V19.12ZM102.83,12.84H14M165.77,12.84H213.58M14,15.98V9.69M213.58,15.98V9.69" style="vector-effect: non-scaling-stroke; stroke-width: 2px; stroke: rgb(255, 255, 255); stroke-opacity: 0; fill: rgb(255, 255, 255); fill-opacity: 0;"/><g class="points"><path class="point" transform="translate(14,22.27)" d="M0,4.2V-4.2" style="opacity: 1; stroke: rgb(31, 119, 180); stroke-opacity: 1; stroke-width: 1px; fill: none;"/><path class="point" transform="translate(20.3,22.27)" d="M0,4.2V-4.2" style="opacity: 1; stroke: rgb(31, 119, 180); stroke-opacity: 1; stroke-width: 1px; fill: none;"/><path class="point" transform="translate(40.96,22.27)" d="M0,4.2V-4.2" style="opacity: 1; stroke: rgb(31, 119, 180); stroke-opacity: 1; stroke-width: 1px; fill: none;"/><path class="point" transform="translate(46.26,22.27)" d="M0,4.2V-4.2" style="opacity: 1; stroke: rgb(31, 119, 180); stroke-opacity: 1; stroke-width: 1px; fill: none;"/><path class="point" transform="translate(79.02,22.27)" d="M0,4.2V-4.2" style="opacity: 1; stroke: rgb(31, 119, 180); stroke-opacity: 1; stroke-width: 1px; fill: none;"/><path class="point" transform="translate(79.52,22.27)" d="M0,4.2V-4.2" style="opacity: 1; stroke: rgb(31, 119, 180); stroke-opacity: 1; stroke-width: 1px; fill: none;"/><path class="point" transform="translate(85.06,22.27)" d="M0,4.2V-4.2" style="opacity: 1; stroke: rgb(31, 119, 180); stroke-opacity: 1; stroke-width: 1px; fill: none;"/><path class="point" transform="translate(87.08,22.27)" d="M0,4.2V-4.2" style="opacity: 1; stroke: rgb(31, 119, 180); stroke-opacity: 1; stroke-width: 1px; fill: none;"/><path class="point" transform="translate(89.1,22.27)" d="M0,4.2V-4.2" style="opacity: 1; stroke: rgb(31, 119, 180); stroke-opacity: 1; stroke-width: 1px; fill: none;"/><path class="point" transform="translate(102.2,22.27)" d="M0,4.2V-4.2" style="opacity: 1; stroke: rgb(31, 119, 180); stroke-opacity: 1; stroke-width: 1px; fill: none;"/><path class="point" transform="translate(102.2,22.27)" d="M0,4.2V-4.2" style="opacity: 1; stroke: rgb(31, 119, 180); stroke-opacity: 1; stroke-width: 1px; fill: none;"/><path class="point" transform="translate(104.72,22.27)" d="M0,4.2V-4.2" style="opacity: 1; stroke: rgb(31, 119, 180); stroke-opacity: 1; stroke-width: 1px; fill: none;"/><path class="point" transform="translate(107.49,22.27)" d="M0,4.2V-4.2" style="opacity: 1; stroke: rgb(31, 119, 180); stroke-opacity: 1; stroke-width: 1px; fill: none;"/><path class="point" transform="translate(119.08,22.27)" d="M0,4.2V-4.2" style="opacity: 1; stroke: rgb(31, 119, 180); stroke-opacity: 1; stroke-width: 1px; fill: none;"/><path class="point" transform="translate(119.59,22.27)" d="M0,4.2V-4.2" style="opacity: 1; stroke: rgb(31, 119, 180); stroke-opacity: 1; stroke-width: 1px; fill: none;"/><path class="point" transform="translate(127.4,22.27)" d="M0,4.2V-4.2" style="opacity: 1; stroke: rgb(31, 119, 180); stroke-opacity: 1; stroke-width: 1px; fill: none;"/><path class="point" transform="translate(129.92,22.27)" d="M0,4.2V-4.2" style="opacity: 1; stroke: rgb(31, 119, 180); stroke-opacity: 1; stroke-width: 1px; fill: none;"/><path class="point" transform="translate(134.71,22.27)" d="M0,4.2V-4.2" style="opacity: 1; stroke: rgb(31, 119, 180); stroke-opacity: 1; stroke-width: 1px; fill: none;"/><path class="point" transform="translate(138.99,22.27)" d="M0,4.2V-4.2" style="opacity: 1; stroke: rgb(31, 119, 180); stroke-opacity: 1; stroke-width: 1px; fill: none;"/><path class="point" transform="translate(143.28,22.27)" d="M0,4.2V-4.2" style="opacity: 1; stroke: rgb(31, 119, 180); stroke-opacity: 1; stroke-width: 1px; fill: none;"/><path class="point" transform="translate(144.03,22.27)" d="M0,4.2V-4.2" style="opacity: 1; stroke: rgb(31, 119, 180); stroke-opacity: 1; stroke-width: 1px; fill: none;"/><path class="point" transform="translate(147.81,22.27)" d="M0,4.2V-4.2" style="opacity: 1; stroke: rgb(31, 119, 180); stroke-opacity: 1; stroke-width: 1px; fill: none;"/><path class="point" transform="translate(150.58,22.27)" d="M0,4.2V-4.2" style="opacity: 1; stroke: rgb(31, 119, 180); stroke-opacity: 1; stroke-width: 1px; fill: none;"/><path class="point" transform="translate(153.61,22.27)" d="M0,4.2V-4.2" style="opacity: 1; stroke: rgb(31, 119, 180); stroke-opacity: 1; stroke-width: 1px; fill: none;"/><path class="point" transform="translate(153.61,22.27)" d="M0,4.2V-4.2" style="opacity: 1; stroke: rgb(31, 119, 180); stroke-opacity: 1; stroke-width: 1px; fill: none;"/><path class="point" transform="translate(153.86,22.27)" d="M0,4.2V-4.2" style="opacity: 1; stroke: rgb(31, 119, 180); stroke-opacity: 1; stroke-width: 1px; fill: none;"/><path class="point" transform="translate(156.88,22.27)" d="M0,4.2V-4.2" style="opacity: 1; stroke: rgb(31, 119, 180); stroke-opacity: 1; stroke-width: 1px; fill: none;"/><path class="point" transform="translate(158.9,22.27)" d="M0,4.2V-4.2" style="opacity: 1; stroke: rgb(31, 119, 180); stroke-opacity: 1; stroke-width: 1px; fill: none;"/><path class="point" transform="translate(158.9,22.27)" d="M0,4.2V-4.2" style="opacity: 1; stroke: rgb(31, 119, 180); stroke-opacity: 1; stroke-width: 1px; fill: none;"/><path class="point" transform="translate(160.41,22.27)" d="M0,4.2V-4.2" style="opacity: 1; stroke: rgb(31, 119, 180); stroke-opacity: 1; stroke-width: 1px; fill: none;"/><path class="point" transform="translate(163.18,22.27)" d="M0,4.2V-4.2" style="opacity: 1; stroke: rgb(31, 119, 180); stroke-opacity: 1; stroke-width: 1px; fill: none;"/><path class="point" transform="translate(165.2,22.27)" d="M0,4.2V-4.2" style="opacity: 1; stroke: rgb(31, 119, 180); stroke-opacity: 1; stroke-width: 1px; fill: none;"/><path class="point" transform="translate(165.96,22.27)" d="M0,4.2V-4.2" style="opacity: 1; stroke: rgb(31, 119, 180); stroke-opacity: 1; stroke-width: 1px; fill: none;"/><path class="point" transform="translate(166.21,22.27)" d="M0,4.2V-4.2" style="opacity: 1; stroke: rgb(31, 119, 180); stroke-opacity: 1; stroke-width: 1px; fill: none;"/><path class="point" transform="translate(167.22,22.27)" d="M0,4.2V-4.2" style="opacity: 1; stroke: rgb(31, 119, 180); stroke-opacity: 1; stroke-width: 1px; fill: none;"/><path class="point" transform="translate(175.78,22.27)" d="M0,4.2V-4.2" style="opacity: 1; stroke: rgb(31, 119, 180); stroke-opacity: 1; stroke-width: 1px; fill: none;"/><path class="point" transform="translate(179.56,22.27)" d="M0,4.2V-4.2" style="opacity: 1; stroke: rgb(31, 119, 180); stroke-opacity: 1; stroke-width: 1px; fill: none;"/><path class="point" transform="translate(182.84,22.27)" d="M0,4.2V-4.2" style="opacity: 1; stroke: rgb(31, 119, 180); stroke-opacity: 1; stroke-width: 1px; fill: none;"/><path class="point" transform="translate(192.42,22.27)" d="M0,4.2V-4.2" style="opacity: 1; stroke: rgb(31, 119, 180); stroke-opacity: 1; stroke-width: 1px; fill: none;"/><path class="point" transform="translate(198.97,22.27)" d="M0,4.2V-4.2" style="opacity: 1; stroke: rgb(31, 119, 180); stroke-opacity: 1; stroke-width: 1px; fill: none;"/><path class="point" transform="translate(200.98,22.27)" d="M0,4.2V-4.2" style="opacity: 1; stroke: rgb(31, 119, 180); stroke-opacity: 1; stroke-width: 1px; fill: none;"/><path class="point" transform="translate(213.58,22.27)" d="M0,4.2V-4.2" style="opacity: 1; stroke: rgb(31, 119, 180); stroke-opacity: 1; stroke-width: 1px; fill: none;"/><path class="point" transform="translate(266,22.27)" d="M0,4.2V-4.2" style="opacity: 1; stroke: rgb(31, 119, 180); stroke-opacity: 1; stroke-width: 1px; fill: none;"/></g></g></g></g><g class="overplot"/><path class="xlines-above crisp" d="M60,39.1704H340" style="fill: none; stroke-width: 1px; stroke: rgb(36, 36, 36); stroke-opacity: 1;"/><path class="ylines-above crisp" d="M0,0" style="fill: none;"/><g class="overlines-above"/><g class="xaxislayer-above"><path class="x2tick ticks crisp" d="M0,39.6704v5" transform="translate(162.2,0)" style="stroke: rgb(68, 68, 68); stroke-opacity: 1; stroke-width: 1px;"/><path class="x2tick ticks crisp" d="M0,39.6704v5" transform="translate(288.2,0)" style="stroke: rgb(68, 68, 68); stroke-opacity: 1; stroke-width: 1px;"/></g><g class="yaxislayer-above"/><g class="overaxes-above"/></g></g><g class="polarlayer"/><g class="smithlayer"/><g class="ternarylayer"/><g class="geolayer"/><g class="funnelarealayer"/><g class="pielayer"/><g class="iciclelayer"/><g class="treemaplayer"/><g class="sunburstlayer"/><g class="glimages"/><defs id="topdefs-a9cfa2"><g class="clips"/></defs><g class="layer-above"><g class="imagelayer"/><g class="shapelayer"/></g><g class="infolayer"><g class="g-gtitle"/><g class="g-xtitle"><text class="xtitle" x="200" y="239.70625" text-anchor="middle" style="font-family: 'Open Sans', verdana, arial, sans-serif; font-size: 14px; fill: rgb(36, 36, 36); opacity: 1; font-weight: normal; white-space: pre;">Typical lifespan (yr)</text></g><g class="g-x2title"/><g class="g-ytitle" transform="translate(5.1337890625,0)"><text class="ytitle" transform="rotate(-90,9.871875000000003,115.7402)" x="9.871875000000003" y="115.7402" text-anchor="middle" style="font-family: 'Open Sans', verdana, arial, sans-serif; font-size: 14px; fill: rgb(36, 36, 36); opacity: 1; font-weight: normal; white-space: pre;">density</text></g><g class="g-y2title"/></g></svg>