<?xml version="1.0" encoding="utf-8" standalone="no"?>
<!DOCTYPE svg PUBLIC "-//W3C//DTD SVG 1.1//EN"
  "http://www.w3.org/Graphics/SVG/1.1/DTD/svg11.dtd">
<!-- Created with matplotlib (https://matplotlib.org/) -->
<svg height="212.014219pt" version="1.1" viewBox="0 0 348.459531 212.014219" width="348.459531pt" xmlns="http://www.w3.org/2000/svg" xmlns:xlink="http://www.w3.org/1999/xlink">
 <metadata>
  <rdf:RDF xmlns:cc="http://creativecommons.org/ns#" xmlns:dc="http://purl.org/dc/elements/1.1/" xmlns:rdf="http://www.w3.org/1999/02/22-rdf-syntax-ns#">
   <cc:Work>
    <dc:type rdf:resource="http://purl.org/dc/dcmitype/StillImage"/>
    <dc:date>2022-02-14T18:03:26.843676</dc:date>
    <dc:format>image/svg+xml</dc:format>
    <dc:creator>
     <cc:Agent>
      <dc:title>Matplotlib v3.3.4, https://matplotlib.org/</dc:title>
     </cc:Agent>
    </dc:creator>
   </cc:Work>
  </rdf:RDF>
 </metadata>
 <defs>
  <style type="text/css">*{stroke-linecap:butt;stroke-linejoin:round;}</style>
 </defs>
 <g id="figure_1">
  <g id="patch_1">
   <path d="M 0 212.014219 
L 348.459531 212.014219 
L 348.459531 0 
L 0 0 
z
" style="fill:#ffffff;"/>
  </g>
  <g id="axes_1">
   <g id="patch_2">
    <path d="M 62.259531 170.28 
L 341.259531 170.28 
L 341.259531 7.2 
L 62.259531 7.2 
z
" style="fill:#eaeaf2;"/>
   </g>
   <g id="matplotlib.axis_1">
    <g id="xtick_1">
     <g id="line2d_1">
      <path clip-path="url(#p4ddcb1d6cb)" d="M 79.353708 170.28 
L 79.353708 7.2 
" style="fill:none;stroke:#ffffff;stroke-linecap:round;"/>
     </g>
     <g id="text_1">
      <!-- 0 -->
      <g style="fill:#262626;" transform="translate(76.295193 187.653594)scale(0.11 -0.11)">
       <defs>
        <path d="M 4.15625 35.296875 
Q 4.15625 48 6.765625 55.734375 
Q 9.375 63.484375 14.515625 67.671875 
Q 19.671875 71.875 27.484375 71.875 
Q 33.25 71.875 37.59375 69.546875 
Q 41.9375 67.234375 44.765625 62.859375 
Q 47.609375 58.5 49.21875 52.21875 
Q 50.828125 45.953125 50.828125 35.296875 
Q 50.828125 22.703125 48.234375 14.96875 
Q 45.65625 7.234375 40.5 3 
Q 35.359375 -1.21875 27.484375 -1.21875 
Q 17.140625 -1.21875 11.234375 6.203125 
Q 4.15625 15.140625 4.15625 35.296875 
z
M 13.1875 35.296875 
Q 13.1875 17.671875 17.3125 11.828125 
Q 21.4375 6 27.484375 6 
Q 33.546875 6 37.671875 11.859375 
Q 41.796875 17.71875 41.796875 35.296875 
Q 41.796875 52.984375 37.671875 58.78125 
Q 33.546875 64.59375 27.390625 64.59375 
Q 21.34375 64.59375 17.71875 59.46875 
Q 13.1875 52.9375 13.1875 35.296875 
z
" id="ArialMT-48"/>
       </defs>
       <use xlink:href="#ArialMT-48"/>
      </g>
     </g>
    </g>
    <g id="xtick_2">
     <g id="line2d_2">
      <path clip-path="url(#p4ddcb1d6cb)" d="M 134.367561 170.28 
L 134.367561 7.2 
" style="fill:none;stroke:#ffffff;stroke-linecap:round;"/>
     </g>
     <g id="text_2">
      <!-- 20 -->
      <g style="fill:#262626;" transform="translate(128.25053 187.653594)scale(0.11 -0.11)">
       <defs>
        <path d="M 50.34375 8.453125 
L 50.34375 0 
L 3.03125 0 
Q 2.9375 3.171875 4.046875 6.109375 
Q 5.859375 10.9375 9.828125 15.625 
Q 13.8125 20.3125 21.34375 26.46875 
Q 33.015625 36.03125 37.109375 41.625 
Q 41.21875 47.21875 41.21875 52.203125 
Q 41.21875 57.421875 37.46875 61 
Q 33.734375 64.59375 27.734375 64.59375 
Q 21.390625 64.59375 17.578125 60.78125 
Q 13.765625 56.984375 13.71875 50.25 
L 4.6875 51.171875 
Q 5.609375 61.28125 11.65625 66.578125 
Q 17.71875 71.875 27.9375 71.875 
Q 38.234375 71.875 44.234375 66.15625 
Q 50.25 60.453125 50.25 52 
Q 50.25 47.703125 48.484375 43.546875 
Q 46.734375 39.40625 42.65625 34.8125 
Q 38.578125 30.21875 29.109375 22.21875 
Q 21.1875 15.578125 18.9375 13.203125 
Q 16.703125 10.84375 15.234375 8.453125 
z
" id="ArialMT-50"/>
       </defs>
       <use xlink:href="#ArialMT-50"/>
       <use x="55.615234" xlink:href="#ArialMT-48"/>
      </g>
     </g>
    </g>
    <g id="xtick_3">
     <g id="line2d_3">
      <path clip-path="url(#p4ddcb1d6cb)" d="M 189.381414 170.28 
L 189.381414 7.2 
" style="fill:none;stroke:#ffffff;stroke-linecap:round;"/>
     </g>
     <g id="text_3">
      <!-- 40 -->
      <g style="fill:#262626;" transform="translate(183.264383 187.653594)scale(0.11 -0.11)">
       <defs>
        <path d="M 32.328125 0 
L 32.328125 17.140625 
L 1.265625 17.140625 
L 1.265625 25.203125 
L 33.9375 71.578125 
L 41.109375 71.578125 
L 41.109375 25.203125 
L 50.78125 25.203125 
L 50.78125 17.140625 
L 41.109375 17.140625 
L 41.109375 0 
z
M 32.328125 25.203125 
L 32.328125 57.46875 
L 9.90625 25.203125 
z
" id="ArialMT-52"/>
       </defs>
       <use xlink:href="#ArialMT-52"/>
       <use x="55.615234" xlink:href="#ArialMT-48"/>
      </g>
     </g>
    </g>
    <g id="xtick_4">
     <g id="line2d_4">
      <path clip-path="url(#p4ddcb1d6cb)" d="M 244.395267 170.28 
L 244.395267 7.2 
" style="fill:none;stroke:#ffffff;stroke-linecap:round;"/>
     </g>
     <g id="text_4">
      <!-- 60 -->
      <g style="fill:#262626;" transform="translate(238.278236 187.653594)scale(0.11 -0.11)">
       <defs>
        <path d="M 49.75 54.046875 
L 41.015625 53.375 
Q 39.84375 58.546875 37.703125 60.890625 
Q 34.125 64.65625 28.90625 64.65625 
Q 24.703125 64.65625 21.53125 62.3125 
Q 17.390625 59.28125 14.984375 53.46875 
Q 12.59375 47.65625 12.5 36.921875 
Q 15.671875 41.75 20.265625 44.09375 
Q 24.859375 46.4375 29.890625 46.4375 
Q 38.671875 46.4375 44.84375 39.96875 
Q 51.03125 33.5 51.03125 23.25 
Q 51.03125 16.5 48.125 10.71875 
Q 45.21875 4.9375 40.140625 1.859375 
Q 35.0625 -1.21875 28.609375 -1.21875 
Q 17.625 -1.21875 10.6875 6.859375 
Q 3.765625 14.9375 3.765625 33.5 
Q 3.765625 54.25 11.421875 63.671875 
Q 18.109375 71.875 29.4375 71.875 
Q 37.890625 71.875 43.28125 67.140625 
Q 48.6875 62.40625 49.75 54.046875 
z
M 13.875 23.1875 
Q 13.875 18.65625 15.796875 14.5 
Q 17.71875 10.359375 21.1875 8.171875 
Q 24.65625 6 28.46875 6 
Q 34.03125 6 38.03125 10.484375 
Q 42.046875 14.984375 42.046875 22.703125 
Q 42.046875 30.125 38.078125 34.390625 
Q 34.125 38.671875 28.125 38.671875 
Q 22.171875 38.671875 18.015625 34.390625 
Q 13.875 30.125 13.875 23.1875 
z
" id="ArialMT-54"/>
       </defs>
       <use xlink:href="#ArialMT-54"/>
       <use x="55.615234" xlink:href="#ArialMT-48"/>
      </g>
     </g>
    </g>
    <g id="xtick_5">
     <g id="line2d_5">
      <path clip-path="url(#p4ddcb1d6cb)" d="M 299.40912 170.28 
L 299.40912 7.2 
" style="fill:none;stroke:#ffffff;stroke-linecap:round;"/>
     </g>
     <g id="text_5">
      <!-- 80 -->
      <g style="fill:#262626;" transform="translate(293.292089 187.653594)scale(0.11 -0.11)">
       <defs>
        <path d="M 17.671875 38.8125 
Q 12.203125 40.828125 9.5625 44.53125 
Q 6.9375 48.25 6.9375 53.421875 
Q 6.9375 61.234375 12.546875 66.546875 
Q 18.171875 71.875 27.484375 71.875 
Q 36.859375 71.875 42.578125 66.421875 
Q 48.296875 60.984375 48.296875 53.171875 
Q 48.296875 48.1875 45.671875 44.5 
Q 43.0625 40.828125 37.75 38.8125 
Q 44.34375 36.671875 47.78125 31.875 
Q 51.21875 27.09375 51.21875 20.453125 
Q 51.21875 11.28125 44.71875 5.03125 
Q 38.234375 -1.21875 27.640625 -1.21875 
Q 17.046875 -1.21875 10.546875 5.046875 
Q 4.046875 11.328125 4.046875 20.703125 
Q 4.046875 27.6875 7.59375 32.390625 
Q 11.140625 37.109375 17.671875 38.8125 
z
M 15.921875 53.71875 
Q 15.921875 48.640625 19.1875 45.40625 
Q 22.46875 42.1875 27.6875 42.1875 
Q 32.765625 42.1875 36.015625 45.375 
Q 39.265625 48.578125 39.265625 53.21875 
Q 39.265625 58.0625 35.90625 61.359375 
Q 32.5625 64.65625 27.59375 64.65625 
Q 22.5625 64.65625 19.234375 61.421875 
Q 15.921875 58.203125 15.921875 53.71875 
z
M 13.09375 20.65625 
Q 13.09375 16.890625 14.875 13.375 
Q 16.65625 9.859375 20.171875 7.921875 
Q 23.6875 6 27.734375 6 
Q 34.03125 6 38.125 10.046875 
Q 42.234375 14.109375 42.234375 20.359375 
Q 42.234375 26.703125 38.015625 30.859375 
Q 33.796875 35.015625 27.4375 35.015625 
Q 21.234375 35.015625 17.15625 30.90625 
Q 13.09375 26.8125 13.09375 20.65625 
z
" id="ArialMT-56"/>
       </defs>
       <use xlink:href="#ArialMT-56"/>
       <use x="55.615234" xlink:href="#ArialMT-48"/>
      </g>
     </g>
    </g>
    <g id="text_6">
     <!-- age -->
     <g style="fill:#262626;" transform="translate(191.749844 202.288594)scale(0.12 -0.12)">
      <defs>
       <path d="M 40.4375 6.390625 
Q 35.546875 2.25 31.03125 0.53125 
Q 26.515625 -1.171875 21.34375 -1.171875 
Q 12.796875 -1.171875 8.203125 3 
Q 3.609375 7.171875 3.609375 13.671875 
Q 3.609375 17.484375 5.34375 20.625 
Q 7.078125 23.78125 9.890625 25.6875 
Q 12.703125 27.59375 16.21875 28.5625 
Q 18.796875 29.25 24.03125 29.890625 
Q 34.671875 31.15625 39.703125 32.90625 
Q 39.75 34.71875 39.75 35.203125 
Q 39.75 40.578125 37.25 42.78125 
Q 33.890625 45.75 27.25 45.75 
Q 21.046875 45.75 18.09375 43.578125 
Q 15.140625 41.40625 13.71875 35.890625 
L 5.125 37.0625 
Q 6.296875 42.578125 8.984375 45.96875 
Q 11.671875 49.359375 16.75 51.1875 
Q 21.828125 53.03125 28.515625 53.03125 
Q 35.15625 53.03125 39.296875 51.46875 
Q 43.453125 49.90625 45.40625 47.53125 
Q 47.359375 45.171875 48.140625 41.546875 
Q 48.578125 39.3125 48.578125 33.453125 
L 48.578125 21.734375 
Q 48.578125 9.46875 49.140625 6.21875 
Q 49.703125 2.984375 51.375 0 
L 42.1875 0 
Q 40.828125 2.734375 40.4375 6.390625 
z
M 39.703125 26.03125 
Q 34.90625 24.078125 25.34375 22.703125 
Q 19.921875 21.921875 17.671875 20.9375 
Q 15.4375 19.96875 14.203125 18.09375 
Q 12.984375 16.21875 12.984375 13.921875 
Q 12.984375 10.40625 15.640625 8.0625 
Q 18.3125 5.71875 23.4375 5.71875 
Q 28.515625 5.71875 32.46875 7.9375 
Q 36.421875 10.15625 38.28125 14.015625 
Q 39.703125 17 39.703125 22.796875 
z
" id="ArialMT-97"/>
       <path d="M 4.984375 -4.296875 
L 13.53125 -5.5625 
Q 14.0625 -9.515625 16.5 -11.328125 
Q 19.78125 -13.765625 25.4375 -13.765625 
Q 31.546875 -13.765625 34.859375 -11.328125 
Q 38.1875 -8.890625 39.359375 -4.5 
Q 40.046875 -1.8125 39.984375 6.78125 
Q 34.234375 0 25.640625 0 
Q 14.9375 0 9.078125 7.71875 
Q 3.21875 15.4375 3.21875 26.21875 
Q 3.21875 33.640625 5.90625 39.90625 
Q 8.59375 46.1875 13.6875 49.609375 
Q 18.796875 53.03125 25.6875 53.03125 
Q 34.859375 53.03125 40.828125 45.609375 
L 40.828125 51.859375 
L 48.921875 51.859375 
L 48.921875 7.03125 
Q 48.921875 -5.078125 46.453125 -10.125 
Q 44 -15.1875 38.640625 -18.109375 
Q 33.296875 -21.046875 25.484375 -21.046875 
Q 16.21875 -21.046875 10.5 -16.875 
Q 4.78125 -12.703125 4.984375 -4.296875 
z
M 12.25 26.859375 
Q 12.25 16.65625 16.296875 11.96875 
Q 20.359375 7.28125 26.46875 7.28125 
Q 32.515625 7.28125 36.609375 11.9375 
Q 40.71875 16.609375 40.71875 26.5625 
Q 40.71875 36.078125 36.5 40.90625 
Q 32.28125 45.75 26.3125 45.75 
Q 20.453125 45.75 16.34375 40.984375 
Q 12.25 36.234375 12.25 26.859375 
z
" id="ArialMT-103"/>
       <path d="M 42.09375 16.703125 
L 51.171875 15.578125 
Q 49.03125 7.625 43.21875 3.21875 
Q 37.40625 -1.171875 28.375 -1.171875 
Q 17 -1.171875 10.328125 5.828125 
Q 3.65625 12.84375 3.65625 25.484375 
Q 3.65625 38.578125 10.390625 45.796875 
Q 17.140625 53.03125 27.875 53.03125 
Q 38.28125 53.03125 44.875 45.953125 
Q 51.46875 38.875 51.46875 26.03125 
Q 51.46875 25.25 51.421875 23.6875 
L 12.75 23.6875 
Q 13.234375 15.140625 17.578125 10.59375 
Q 21.921875 6.0625 28.421875 6.0625 
Q 33.25 6.0625 36.671875 8.59375 
Q 40.09375 11.140625 42.09375 16.703125 
z
M 13.234375 30.90625 
L 42.1875 30.90625 
Q 41.609375 37.453125 38.875 40.71875 
Q 34.671875 45.796875 27.984375 45.796875 
Q 21.921875 45.796875 17.796875 41.75 
Q 13.671875 37.703125 13.234375 30.90625 
z
" id="ArialMT-101"/>
      </defs>
      <use xlink:href="#ArialMT-97"/>
      <use x="55.615234" xlink:href="#ArialMT-103"/>
      <use x="111.230469" xlink:href="#ArialMT-101"/>
     </g>
    </g>
   </g>
   <g id="matplotlib.axis_2">
    <g id="ytick_1">
     <g id="line2d_6">
      <path clip-path="url(#p4ddcb1d6cb)" d="M 62.259531 137.435711 
L 341.259531 137.435711 
" style="fill:none;stroke:#ffffff;stroke-linecap:round;"/>
     </g>
     <g id="text_7">
      <!-- 4000 -->
      <g style="fill:#262626;" transform="translate(28.291406 141.372508)scale(0.11 -0.11)">
       <use xlink:href="#ArialMT-52"/>
       <use x="55.615234" xlink:href="#ArialMT-48"/>
       <use x="111.230469" xlink:href="#ArialMT-48"/>
       <use x="166.845703" xlink:href="#ArialMT-48"/>
      </g>
     </g>
    </g>
    <g id="ytick_2">
     <g id="line2d_7">
      <path clip-path="url(#p4ddcb1d6cb)" d="M 62.259531 100.341282 
L 341.259531 100.341282 
" style="fill:none;stroke:#ffffff;stroke-linecap:round;"/>
     </g>
     <g id="text_8">
      <!-- 6000 -->
      <g style="fill:#262626;" transform="translate(28.291406 104.278079)scale(0.11 -0.11)">
       <use xlink:href="#ArialMT-54"/>
       <use x="55.615234" xlink:href="#ArialMT-48"/>
       <use x="111.230469" xlink:href="#ArialMT-48"/>
       <use x="166.845703" xlink:href="#ArialMT-48"/>
      </g>
     </g>
    </g>
    <g id="ytick_3">
     <g id="line2d_8">
      <path clip-path="url(#p4ddcb1d6cb)" d="M 62.259531 63.246854 
L 341.259531 63.246854 
" style="fill:none;stroke:#ffffff;stroke-linecap:round;"/>
     </g>
     <g id="text_9">
      <!-- 8000 -->
      <g style="fill:#262626;" transform="translate(28.291406 67.183651)scale(0.11 -0.11)">
       <use xlink:href="#ArialMT-56"/>
       <use x="55.615234" xlink:href="#ArialMT-48"/>
       <use x="111.230469" xlink:href="#ArialMT-48"/>
       <use x="166.845703" xlink:href="#ArialMT-48"/>
      </g>
     </g>
    </g>
    <g id="ytick_4">
     <g id="line2d_9">
      <path clip-path="url(#p4ddcb1d6cb)" d="M 62.259531 26.152426 
L 341.259531 26.152426 
" style="fill:none;stroke:#ffffff;stroke-linecap:round;"/>
     </g>
     <g id="text_10">
      <!-- 10000 -->
      <g style="fill:#262626;" transform="translate(22.174375 30.089223)scale(0.11 -0.11)">
       <defs>
        <path d="M 37.25 0 
L 28.46875 0 
L 28.46875 56 
Q 25.296875 52.984375 20.140625 49.953125 
Q 14.984375 46.921875 10.890625 45.40625 
L 10.890625 53.90625 
Q 18.265625 57.375 23.78125 62.296875 
Q 29.296875 67.234375 31.59375 71.875 
L 37.25 71.875 
z
" id="ArialMT-49"/>
       </defs>
       <use xlink:href="#ArialMT-49"/>
       <use x="55.615234" xlink:href="#ArialMT-48"/>
       <use x="111.230469" xlink:href="#ArialMT-48"/>
       <use x="166.845703" xlink:href="#ArialMT-48"/>
       <use x="222.460938" xlink:href="#ArialMT-48"/>
      </g>
     </g>
    </g>
    <g id="text_11">
     <!-- time -->
     <g style="fill:#262626;" transform="translate(15.789375 100.074375)rotate(-90)scale(0.12 -0.12)">
      <defs>
       <path d="M 25.78125 7.859375 
L 27.046875 0.09375 
Q 23.34375 -0.6875 20.40625 -0.6875 
Q 15.625 -0.6875 12.984375 0.828125 
Q 10.359375 2.34375 9.28125 4.8125 
Q 8.203125 7.28125 8.203125 15.1875 
L 8.203125 45.015625 
L 1.765625 45.015625 
L 1.765625 51.859375 
L 8.203125 51.859375 
L 8.203125 64.703125 
L 16.9375 69.96875 
L 16.9375 51.859375 
L 25.78125 51.859375 
L 25.78125 45.015625 
L 16.9375 45.015625 
L 16.9375 14.703125 
Q 16.9375 10.9375 17.40625 9.859375 
Q 17.875 8.796875 18.921875 8.15625 
Q 19.96875 7.515625 21.921875 7.515625 
Q 23.390625 7.515625 25.78125 7.859375 
z
" id="ArialMT-116"/>
       <path d="M 6.640625 61.46875 
L 6.640625 71.578125 
L 15.4375 71.578125 
L 15.4375 61.46875 
z
M 6.640625 0 
L 6.640625 51.859375 
L 15.4375 51.859375 
L 15.4375 0 
z
" id="ArialMT-105"/>
       <path d="M 6.59375 0 
L 6.59375 51.859375 
L 14.453125 51.859375 
L 14.453125 44.578125 
Q 16.890625 48.390625 20.9375 50.703125 
Q 25 53.03125 30.171875 53.03125 
Q 35.9375 53.03125 39.625 50.640625 
Q 43.3125 48.25 44.828125 43.953125 
Q 50.984375 53.03125 60.84375 53.03125 
Q 68.5625 53.03125 72.703125 48.75 
Q 76.859375 44.484375 76.859375 35.59375 
L 76.859375 0 
L 68.109375 0 
L 68.109375 32.671875 
Q 68.109375 37.9375 67.25 40.25 
Q 66.40625 42.578125 64.15625 43.984375 
Q 61.921875 45.40625 58.890625 45.40625 
Q 53.421875 45.40625 49.796875 41.765625 
Q 46.1875 38.140625 46.1875 30.125 
L 46.1875 0 
L 37.40625 0 
L 37.40625 33.6875 
Q 37.40625 39.546875 35.25 42.46875 
Q 33.109375 45.40625 28.21875 45.40625 
Q 24.515625 45.40625 21.359375 43.453125 
Q 18.21875 41.5 16.796875 37.734375 
Q 15.375 33.984375 15.375 26.90625 
L 15.375 0 
z
" id="ArialMT-109"/>
      </defs>
      <use xlink:href="#ArialMT-116"/>
      <use x="27.783203" xlink:href="#ArialMT-105"/>
      <use x="50" xlink:href="#ArialMT-109"/>
      <use x="133.300781" xlink:href="#ArialMT-101"/>
     </g>
    </g>
   </g>
   <g id="LineCollection_1">
    <path clip-path="url(#p4ddcb1d6cb)" d="M 147.782144 159.709802 
L 150.586164 159.948213 
L 153.390185 159.924173 
L 156.221815 159.626533 
L 158.998225 159.054639 
L 161.802245 158.180164 
L 164.18169 157.16804 
L 170.214305 154.303849 
L 173.018325 153.295607 
L 175.822345 152.513955 
L 178.626365 151.951187 
L 181.430386 151.585068 
L 185.636416 151.292474 
L 191.244456 150.896483 
L 195.450486 150.319842 
L 205.264556 148.626031 
L 215.078627 146.566233 
L 219.284657 145.574211 
L 223.490687 144.345866 
L 227.696717 142.8218 
L 233.304757 140.661209 
L 236.108777 139.748674 
L 240.314808 138.652253 
L 244.392249 137.500101 
L 245.922848 136.921282 
L 248.114452 135.861106 
L 250.128878 134.604443 
L 251.727703 133.402613 
L 253.5729 131.763618 
L 255.919414 129.305126 
L 257.147479 127.666131 
L 257.96135 126.027136 
L 258.375682 124.388141 
L 258.746613 122.749146 
L 259.410843 121.110151 
L 260.389905 119.471156 
L 261.949908 117.012663 
L 262.746968 115.322868 
L 263.257274 113.734673 
L 263.459746 112.095678 
L 263.556435 107.998191 
L 263.937695 106.359196 
L 264.921859 103.081206 
L 265.142149 101.442211 
L 265.152863 98.983719 
L 264.995487 97.344724 
L 264.587892 95.705729 
L 263.491482 93.247236 
L 262.746968 91.246827 
L 262.266939 89.149749 
L 261.90674 86.691256 
L 261.636538 84.232764 
L 261.090166 82.593769 
L 260.134236 80.954774 
L 258.408832 78.496281 
L 256.928443 76.857286 
L 255.736918 75.929396 
L 254.334908 75.104447 
L 245.922848 70.957115 
L 243.118828 69.827644 
L 240.314808 68.965178 
L 237.510788 68.364499 
L 234.706767 68.020422 
L 231.902747 68.021252 
L 229.098727 68.430533 
L 227.696717 68.701178 
L 224.892697 68.945714 
L 222.088677 68.778148 
L 219.284657 68.281905 
L 213.676617 67.11514 
L 212.274607 66.700147 
L 210.872597 66.18663 
L 205.264556 63.708368 
L 202.460536 62.918951 
L 198.254506 62.158634 
L 192.646466 61.21446 
L 185.636416 59.870643 
L 177.224355 58.684681 
L 174.420335 58.461511 
L 166.008275 58.172811 
L 158.998225 57.512795 
L 157.596215 57.643008 
L 156.117892 58.008844 
L 154.417118 58.828342 
L 153.253747 59.647839 
L 144.703699 67.023317 
L 143.368191 68.662312 
L 141.731851 71.120804 
L 139.84557 74.398794 
L 138.310994 77.676784 
L 135.418534 85.052261 
L 133.762044 91.01987 
L 131.815143 96.525226 
L 131.378115 98.164221 
L 131.010202 100.622714 
L 130.775048 102.261709 
L 130.258042 104.720201 
L 129.45378 107.178693 
L 128.320529 109.637186 
L 127.869888 111.276181 
L 127.853709 112.095678 
L 128.216809 115.373668 
L 127.981337 117.012663 
L 127.433756 119.471156 
L 127.358837 121.110151 
L 127.632158 123.568643 
L 128.405187 130.124623 
L 128.385254 131.763618 
L 128.155652 135.041608 
L 128.264658 135.861106 
L 128.519321 136.680603 
L 128.930916 137.500101 
L 131.261396 140.77809 
L 134.374433 144.875578 
L 136.566064 147.71027 
L 138.305397 150.61206 
L 139.538484 153.070553 
L 140.471598 155.529045 
L 140.785114 156.348543 
L 141.267533 157.16804 
L 142.174104 158.021433 
L 143.776695 158.807035 
L 146.380134 159.479932 
L 147.782144 159.709802 
L 147.782144 159.709802 
" style="fill:none;stroke:#4c72b0;stroke-width:1.5;"/>
    <path clip-path="url(#p4ddcb1d6cb)" d="M 87.495712 146.520976 
L 88.897722 146.377083 
L 90.663393 145.695075 
L 92.042732 144.875578 
L 93.120886 144.05608 
L 94.798344 142.417085 
L 96.104553 140.77809 
L 97.309783 138.85945 
L 98.041674 137.500101 
L 98.992739 135.041608 
L 99.664144 132.583116 
L 101.209771 125.207638 
L 101.448169 122.749146 
L 101.84195 112.915176 
L 101.860249 106.359196 
L 101.756723 104.720201 
L 101.212337 101.442211 
L 99.799848 94.066734 
L 98.936481 91.608241 
L 97.692666 88.330251 
L 96.210823 84.232764 
L 95.793944 83.413266 
L 94.505762 81.594846 
L 93.103752 80.338906 
L 91.701742 79.569508 
L 90.299732 79.241377 
L 88.897722 79.355213 
L 87.256859 80.135276 
L 86.093702 81.121699 
L 84.691692 83.037355 
L 83.653293 85.052261 
L 79.568099 94.066734 
L 78.613361 97.344724 
L 78.117039 99.803216 
L 77.681642 103.336431 
L 77.285812 107.178693 
L 76.611442 118.651658 
L 76.86856 122.749146 
L 77.321901 128.485628 
L 78.083368 134.222111 
L 78.675377 136.680603 
L 79.552548 139.139095 
L 80.485662 141.027583 
L 81.365222 142.417085 
L 82.762061 144.05608 
L 83.657123 144.875578 
L 84.782093 145.695075 
L 86.093702 146.305566 
L 87.495712 146.520976 
L 87.495712 146.520976 
" style="fill:none;stroke:#4c72b0;stroke-width:1.5;"/>
   </g>
   <g id="LineCollection_2">
    <path clip-path="url(#p4ddcb1d6cb)" d="M 153.390185 148.275993 
L 156.194205 148.477444 
L 160.400235 148.455206 
L 164.606265 148.177293 
L 168.812295 147.599452 
L 175.822345 146.430916 
L 180.028375 146.001578 
L 187.038426 145.378068 
L 191.244456 144.757811 
L 196.852496 143.727446 
L 201.058526 142.799479 
L 208.407301 140.77809 
L 217.882647 138.045916 
L 222.088677 136.572455 
L 225.622167 135.041608 
L 229.098727 133.250743 
L 231.902747 131.583977 
L 239.136214 126.846633 
L 241.211021 125.207638 
L 242.823031 123.568643 
L 244.847812 121.110151 
L 246.597217 118.651658 
L 247.452826 117.012663 
L 248.066211 115.373668 
L 250.448125 107.178693 
L 250.695536 105.539698 
L 250.7154 103.900704 
L 250.425525 102.261709 
L 249.778097 100.622714 
L 248.726868 98.854532 
L 246.98073 96.525226 
L 241.716818 90.290594 
L 239.678598 88.330251 
L 238.712589 87.510754 
L 237.510788 86.653588 
L 236.053767 85.871759 
L 233.304757 84.911721 
L 229.098727 83.972089 
L 224.892697 83.24837 
L 222.088677 82.917278 
L 217.882647 82.695626 
L 212.274607 82.564063 
L 209.470587 82.295621 
L 206.666566 81.740808 
L 203.862546 80.773179 
L 200.880157 79.315779 
L 198.254506 78.036168 
L 196.852496 77.498762 
L 194.048476 76.657961 
L 188.440436 75.349028 
L 175.822345 72.722482 
L 167.060393 71.120804 
L 163.204255 70.391474 
L 160.400235 70.121397 
L 158.998225 70.161597 
L 157.596215 70.365024 
L 156.194205 70.764833 
L 154.792195 71.387265 
L 152.733418 72.759799 
L 151.741798 73.579296 
L 149.184154 76.08806 
L 146.260391 79.315779 
L 144.978124 81.010673 
L 143.988234 82.593769 
L 142.751682 85.052261 
L 141.413521 88.330251 
L 140.077263 92.427739 
L 138.48867 97.344724 
L 137.545444 100.622714 
L 136.898544 103.900704 
L 136.228325 108.817688 
L 135.397464 120.290653 
L 135.531666 122.749146 
L 135.937105 126.027136 
L 136.577639 129.305126 
L 137.315229 132.583116 
L 138.085369 135.041608 
L 138.772874 136.680603 
L 139.727118 138.319598 
L 140.982303 139.958593 
L 142.561188 141.597588 
L 145.415834 144.05608 
L 147.782144 145.958578 
L 149.184154 146.90321 
L 150.586164 147.587272 
L 152.699455 148.153568 
L 153.390185 148.275993 
L 153.390185 148.275993 
" style="fill:none;stroke:#4c72b0;stroke-width:1.5;"/>
    <path clip-path="url(#p4ddcb1d6cb)" d="M 86.093702 136.7089 
L 87.495712 137.395063 
L 88.897722 137.491774 
L 90.299732 137.053697 
L 90.845586 136.680603 
L 91.701742 136.035952 
L 91.859602 135.861106 
L 92.51913 135.041608 
L 93.079904 134.222111 
L 93.103752 134.182967 
L 93.494897 133.402613 
L 93.853156 132.583116 
L 94.175092 131.763618 
L 94.475202 130.944121 
L 94.505762 130.859602 
L 94.752607 130.124623 
L 95.022715 129.305126 
L 95.288644 128.485628 
L 95.547142 127.666131 
L 95.790586 126.846633 
L 95.907772 126.413015 
L 96.012793 126.027136 
L 96.203017 125.207638 
L 96.350509 124.388141 
L 96.454285 123.568643 
L 96.518925 122.749146 
L 96.553757 121.929648 
L 96.571011 121.110151 
L 96.583333 120.290653 
L 96.601233 119.471156 
L 96.631191 118.651658 
L 96.674878 117.832161 
L 96.729475 117.012663 
L 96.788804 116.193166 
L 96.844888 115.373668 
L 96.88969 114.554171 
L 96.916828 113.734673 
L 96.923024 112.915176 
L 96.908955 112.095678 
L 96.879099 111.276181 
L 96.840283 110.456683 
L 96.799081 109.637186 
L 96.758828 108.817688 
L 96.717402 107.998191 
L 96.666783 107.178693 
L 96.594699 106.359196 
L 96.487866 105.539698 
L 96.335865 104.720201 
L 96.134569 103.900704 
L 95.907772 103.144414 
L 95.887917 103.081206 
L 95.605754 102.261709 
L 95.306698 101.442211 
L 95.005311 100.622714 
L 94.70886 99.803216 
L 94.505762 99.230643 
L 94.40399 98.983719 
L 94.063721 98.164221 
L 93.691589 97.344724 
L 93.265149 96.525226 
L 93.103752 96.252487 
L 92.652967 95.705729 
L 91.857624 94.886231 
L 91.701742 94.744095 
L 90.299732 94.088446 
L 88.897722 94.066734 
L 87.495712 94.65844 
L 87.228598 94.886231 
L 86.354719 95.705729 
L 86.093702 95.975482 
L 85.722138 96.525226 
L 85.222972 97.344724 
L 84.7735 98.164221 
L 84.691692 98.323562 
L 84.411794 98.983719 
L 84.092354 99.803216 
L 83.798996 100.622714 
L 83.528279 101.442211 
L 83.289682 102.221835 
L 83.278384 102.261709 
L 83.055404 103.081206 
L 82.851262 103.900704 
L 82.668052 104.720201 
L 82.507852 105.539698 
L 82.371527 106.359196 
L 82.257897 107.178693 
L 82.163398 107.998191 
L 82.082259 108.817688 
L 82.007283 109.637186 
L 81.931211 110.456683 
L 81.887672 110.884728 
L 81.846043 111.276181 
L 81.748782 112.095678 
L 81.64426 112.915176 
L 81.538734 113.734673 
L 81.441093 114.554171 
L 81.360812 115.373668 
L 81.305952 116.193166 
L 81.281579 117.012663 
L 81.28875 117.832161 
L 81.324146 118.651658 
L 81.380554 119.471156 
L 81.448455 120.290653 
L 81.51866 121.110151 
L 81.585308 121.929648 
L 81.64794 122.749146 
L 81.711638 123.568643 
L 81.78511 124.388141 
L 81.877627 125.207638 
L 81.887672 125.278699 
L 81.991119 126.027136 
L 82.131375 126.846633 
L 82.295912 127.666131 
L 82.477687 128.485628 
L 82.668589 129.305126 
L 82.863236 130.124623 
L 83.061877 130.944121 
L 83.271238 131.763618 
L 83.289682 131.830809 
L 83.519496 132.583116 
L 83.811775 133.402613 
L 84.165268 134.222111 
L 84.598296 135.041608 
L 84.691692 135.193655 
L 85.243312 135.861106 
L 86.062088 136.680603 
L 86.093702 136.7089 
" style="fill:none;stroke:#4c72b0;stroke-width:1.5;"/>
   </g>
   <g id="LineCollection_3">
    <path clip-path="url(#p4ddcb1d6cb)" d="M 160.400235 143.356822 
L 163.204255 143.49518 
L 166.008275 143.439794 
L 170.214305 143.110635 
L 182.832396 141.756776 
L 191.724311 140.77809 
L 195.450486 140.146204 
L 201.058526 138.875386 
L 206.666566 137.324745 
L 212.274607 135.540289 
L 215.649384 134.222111 
L 217.882647 133.125738 
L 221.604458 130.944121 
L 230.882409 125.207638 
L 234.531309 122.749146 
L 236.425383 121.110151 
L 237.777169 119.471156 
L 238.639712 117.832161 
L 239.16997 116.193166 
L 241.838981 105.539698 
L 241.884599 104.720201 
L 241.716818 103.665077 
L 241.529795 103.081206 
L 241.095742 102.261709 
L 239.764397 100.622714 
L 237.137785 98.164221 
L 234.706767 96.09687 
L 232.888186 94.886231 
L 231.177425 94.066734 
L 229.098727 93.347272 
L 222.088677 91.330299 
L 219.284657 90.574879 
L 216.480637 90.130586 
L 209.470587 89.40516 
L 206.666566 88.837082 
L 203.862546 87.99698 
L 198.254506 86.04831 
L 195.450486 85.379765 
L 191.244456 84.508228 
L 189.842446 84.126814 
L 187.926826 83.413266 
L 184.234406 81.673015 
L 181.848786 80.954774 
L 180.028375 80.632144 
L 175.822345 80.212783 
L 171.616315 79.743659 
L 168.812295 79.213353 
L 164.606265 78.267345 
L 161.802245 77.947676 
L 160.400235 77.965203 
L 158.998225 78.120928 
L 157.381553 78.496281 
L 155.153507 79.315779 
L 154.792195 79.466045 
L 153.390185 80.201332 
L 151.121282 81.774271 
L 150.191482 82.593769 
L 148.699103 84.232764 
L 147.497212 85.871759 
L 146.029132 88.330251 
L 144.853139 90.788744 
L 141.349654 98.983719 
L 140.590148 101.442211 
L 140.056356 103.900704 
L 139.615072 107.178693 
L 139.180319 112.915176 
L 138.634986 120.290653 
L 138.779395 122.749146 
L 139.147674 125.207638 
L 139.920568 128.485628 
L 140.776521 130.944121 
L 141.812957 133.402613 
L 142.675261 135.041608 
L 143.791741 136.680603 
L 145.344679 138.319598 
L 146.380134 139.153179 
L 147.782144 140.045965 
L 149.255738 140.77809 
L 151.988174 141.793879 
L 154.792195 142.515827 
L 157.596215 143.032045 
L 160.400235 143.356822 
L 160.400235 143.356822 
" style="fill:none;stroke:#4c72b0;stroke-width:1.5;"/>
    <path clip-path="url(#p4ddcb1d6cb)" d="M 88.897722 127.786928 
L 89.186565 127.666131 
L 90.299732 127.208112 
L 90.604955 126.846633 
L 91.24481 126.027136 
L 91.701742 125.339211 
L 91.757819 125.207638 
L 92.027633 124.388141 
L 92.209531 123.568643 
L 92.314064 122.749146 
L 92.363549 121.929648 
L 92.386698 121.110151 
L 92.411008 120.290653 
L 92.455709 119.471156 
L 92.528097 118.651658 
L 92.62407 117.832161 
L 92.731439 117.012663 
L 92.833913 116.193166 
L 92.914531 115.373668 
L 92.958478 114.554171 
L 92.955645 113.734673 
L 92.902911 112.915176 
L 92.805324 112.095678 
L 92.674972 111.276181 
L 92.526914 110.456683 
L 92.37316 109.637186 
L 92.216983 108.817688 
L 92.049869 107.998191 
L 91.85227 107.178693 
L 91.701742 106.687921 
L 91.520422 106.359196 
L 90.928223 105.539698 
L 90.299732 104.864573 
L 88.914605 104.720201 
L 88.897722 104.718659 
L 88.895656 104.720201 
L 87.947098 105.539698 
L 87.495712 106.011003 
L 87.332943 106.359196 
L 87.018241 107.178693 
L 86.757906 107.998191 
L 86.530631 108.817688 
L 86.315951 109.637186 
L 86.097807 110.456683 
L 86.093702 110.471158 
L 85.932515 111.276181 
L 85.761239 112.095678 
L 85.58975 112.915176 
L 85.429705 113.734673 
L 85.295162 114.554171 
L 85.199799 115.373668 
L 85.153848 116.193166 
L 85.161054 117.012663 
L 85.216485 117.832161 
L 85.306479 118.651658 
L 85.411859 119.471156 
L 85.514157 120.290653 
L 85.602556 121.110151 
L 85.678355 121.929648 
L 85.75497 122.749146 
L 85.853929 123.568643 
L 85.998823 124.388141 
L 86.093702 124.762555 
L 86.265187 125.207638 
L 86.693832 126.027136 
L 87.238621 126.846633 
L 87.495712 127.185096 
L 88.603268 127.666131 
L 88.897722 127.786928 
" style="fill:none;stroke:#4c72b0;stroke-width:1.5;"/>
   </g>
   <g id="LineCollection_4">
    <path clip-path="url(#p4ddcb1d6cb)" d="M 164.606265 139.984235 
L 168.812295 139.874821 
L 174.420335 139.394348 
L 181.430386 138.695065 
L 191.244456 137.989677 
L 194.155722 137.500101 
L 198.254506 136.535043 
L 203.238127 135.041608 
L 207.700443 133.402613 
L 211.420874 131.763618 
L 215.078627 129.865917 
L 220.279957 126.846633 
L 223.490687 124.673758 
L 226.294707 122.530239 
L 227.9869 121.110151 
L 229.580828 119.471156 
L 230.675212 117.832161 
L 231.380157 116.193166 
L 232.106902 113.734673 
L 232.845563 110.456683 
L 233.10904 107.998191 
L 233.01966 106.359196 
L 232.58204 104.720201 
L 231.902747 103.39728 
L 231.047268 102.261709 
L 230.231355 101.442211 
L 229.098727 100.562394 
L 227.696717 99.774958 
L 225.407512 98.983719 
L 223.490687 98.586969 
L 212.274607 96.890365 
L 209.470587 96.197858 
L 206.666566 95.262674 
L 201.058526 93.20609 
L 192.646466 90.472469 
L 189.842446 89.764825 
L 185.636416 88.947026 
L 177.224355 87.469496 
L 166.008275 84.884882 
L 163.204255 84.469538 
L 160.400235 84.259784 
L 158.998225 84.303603 
L 157.596215 84.498167 
L 155.790951 85.052261 
L 154.110513 85.871759 
L 152.871614 86.691256 
L 151.849908 87.510754 
L 150.257554 89.149749 
L 148.981912 90.788744 
L 146.380134 94.763327 
L 144.436671 98.164221 
L 143.576114 100.158906 
L 143.138346 101.442211 
L 142.566788 103.900704 
L 142.109168 107.178693 
L 141.570592 112.915176 
L 141.1356 119.471156 
L 141.219888 121.929648 
L 141.571854 124.388141 
L 142.198057 126.846633 
L 142.793274 128.485628 
L 143.576114 130.124623 
L 145.082331 132.583116 
L 146.380134 134.270776 
L 148.023119 135.861106 
L 149.184154 136.697636 
L 150.690078 137.500101 
L 152.916469 138.319598 
L 154.792195 138.818278 
L 157.596215 139.357313 
L 160.400235 139.735769 
L 163.699403 139.958593 
L 164.606265 139.984235 
L 164.606265 139.984235 
" style="fill:none;stroke:#4c72b0;stroke-width:1.5;"/>
   </g>
   <g id="LineCollection_5">
    <path clip-path="url(#p4ddcb1d6cb)" d="M 163.204255 136.74159 
L 166.458054 136.680603 
L 168.812295 136.483743 
L 180.028375 135.236045 
L 189.842446 134.967346 
L 192.646466 134.527568 
L 195.450486 133.832355 
L 199.151383 132.583116 
L 203.200465 130.944121 
L 206.851568 129.305126 
L 210.872597 127.270426 
L 213.676617 125.625979 
L 215.497399 124.388141 
L 219.694972 121.110151 
L 221.568149 119.471156 
L 222.315323 118.651658 
L 222.877802 117.832161 
L 223.490687 116.340887 
L 223.680928 115.373668 
L 224.053721 111.276181 
L 223.991075 110.456683 
L 223.767909 109.637186 
L 223.299032 108.817688 
L 222.088677 107.710949 
L 220.686667 106.935495 
L 208.941509 102.261709 
L 205.264556 100.996669 
L 200.352672 98.983719 
L 192.646466 95.651006 
L 189.842446 94.77254 
L 185.636416 93.774136 
L 166.008275 89.619213 
L 163.204255 89.248398 
L 160.400235 89.199135 
L 158.998225 89.3421 
L 157.596215 89.631224 
L 156.194205 90.095997 
L 154.747219 90.788744 
L 153.390185 91.638278 
L 151.420697 93.247236 
L 149.75345 94.886231 
L 148.34012 96.525226 
L 147.175073 98.164221 
L 146.264222 99.803216 
L 145.604941 101.442211 
L 144.959412 103.900704 
L 144.433045 107.178693 
L 143.849613 112.095678 
L 143.518832 117.012663 
L 143.46398 120.290653 
L 143.698551 122.749146 
L 144.031553 124.388141 
L 144.52749 126.027136 
L 145.246253 127.666131 
L 146.380134 129.464925 
L 147.782144 131.088529 
L 149.436129 132.583116 
L 150.586164 133.449747 
L 151.988174 134.29848 
L 153.614722 135.041608 
L 156.235758 135.861106 
L 158.998225 136.386418 
L 161.874205 136.680603 
L 163.204255 136.74159 
L 163.204255 136.74159 
" style="fill:none;stroke:#4c72b0;stroke-width:1.5;"/>
   </g>
   <g id="LineCollection_6">
    <path clip-path="url(#p4ddcb1d6cb)" d="M 160.400235 133.597533 
L 163.204255 133.728508 
L 166.008275 133.554996 
L 168.812295 133.146328 
L 174.420335 132.182464 
L 177.224355 131.895106 
L 181.430386 131.733668 
L 187.038426 131.62939 
L 189.842446 131.398374 
L 192.646466 130.914137 
L 195.600545 130.124623 
L 198.254506 129.214624 
L 201.058526 128.039037 
L 203.397174 126.846633 
L 205.995507 125.207638 
L 208.147292 123.568643 
L 209.994124 121.929648 
L 211.535413 120.290653 
L 212.692214 118.651658 
L 213.085229 117.832161 
L 213.341479 117.012663 
L 213.468163 116.193166 
L 213.476177 115.373668 
L 213.366089 114.554171 
L 213.113019 113.734673 
L 212.656146 112.915176 
L 211.915871 112.095678 
L 210.843498 111.276181 
L 205.94878 107.998191 
L 202.344296 105.539698 
L 196.772543 102.261709 
L 192.646466 100.02477 
L 190.347192 98.983719 
L 187.990283 98.164221 
L 185.636416 97.569943 
L 178.626365 96.102081 
L 171.616315 94.30365 
L 167.410285 93.544176 
L 164.606265 93.174149 
L 161.802245 93.005802 
L 160.400235 93.050282 
L 158.823465 93.247236 
L 157.596215 93.495228 
L 155.889462 94.066734 
L 154.15873 94.886231 
L 152.829004 95.705729 
L 151.735422 96.525226 
L 150.077028 98.164221 
L 148.8919 99.803216 
L 148.079833 101.442211 
L 147.525011 103.081206 
L 146.809627 106.359196 
L 146.005816 111.276181 
L 145.715606 114.554171 
L 145.614874 118.651658 
L 145.754692 121.110151 
L 146.010658 122.749146 
L 146.442485 124.388141 
L 147.136402 126.027136 
L 147.782144 127.119683 
L 148.930151 128.485628 
L 149.843964 129.305126 
L 150.934838 130.124623 
L 152.240688 130.944121 
L 153.819926 131.763618 
L 155.829158 132.583116 
L 157.596215 133.112779 
L 160.400235 133.597533 
L 160.400235 133.597533 
" style="fill:none;stroke:#4c72b0;stroke-width:1.5;"/>
   </g>
   <g id="LineCollection_7">
    <path clip-path="url(#p4ddcb1d6cb)" d="M 158.998225 130.249286 
L 161.802245 130.584301 
L 164.606265 130.498302 
L 167.410285 130.081544 
L 173.018325 129.012098 
L 175.822345 128.693008 
L 180.028375 128.500788 
L 185.636416 128.305188 
L 188.440436 128.04497 
L 191.244456 127.583972 
L 194.048476 126.846633 
L 196.144063 126.027136 
L 197.684774 125.207638 
L 198.851415 124.388141 
L 199.766512 123.568643 
L 201.093812 121.929648 
L 201.963614 120.290653 
L 202.228425 119.471156 
L 202.415213 117.832161 
L 202.282157 116.193166 
L 201.806226 113.734673 
L 201.173322 112.095678 
L 200.067717 110.456683 
L 199.262398 109.637186 
L 198.254506 108.814081 
L 195.611952 107.178693 
L 185.636416 101.729479 
L 184.234406 101.231971 
L 181.430386 100.475754 
L 175.318924 98.983719 
L 170.214305 97.698309 
L 167.410285 97.171092 
L 164.606265 96.797196 
L 161.802245 96.614943 
L 158.998225 96.768419 
L 157.596215 97.032359 
L 156.194205 97.462239 
L 154.702751 98.164221 
L 153.390185 99.061296 
L 151.906475 100.622714 
L 150.945361 102.261709 
L 150.280137 103.900704 
L 149.078509 107.998191 
L 148.402727 111.276181 
L 148.107869 113.734673 
L 148.011037 116.193166 
L 148.098341 118.651658 
L 148.403511 121.110151 
L 148.792487 122.749146 
L 149.441375 124.388141 
L 150.527186 126.027136 
L 151.363684 126.846633 
L 152.440491 127.666131 
L 153.865338 128.485628 
L 156.194205 129.478818 
L 158.998225 130.249286 
L 158.998225 130.249286 
" style="fill:none;stroke:#4c72b0;stroke-width:1.5;"/>
   </g>
   <g id="LineCollection_8">
    <path clip-path="url(#p4ddcb1d6cb)" d="M 158.998225 127.187068 
L 160.400235 127.415835 
L 161.802245 127.517879 
L 163.204255 127.496791 
L 164.606265 127.364105 
L 166.008275 127.141967 
L 167.410285 126.861529 
L 167.47889 126.846633 
L 168.812295 126.548182 
L 170.214305 126.248123 
L 171.39094 126.027136 
L 171.616315 125.983919 
L 173.018325 125.763331 
L 174.420335 125.593066 
L 175.822345 125.462993 
L 177.224355 125.359604 
L 178.626365 125.268909 
L 179.578133 125.207638 
L 180.028375 125.17641 
L 181.430386 125.06713 
L 182.832396 124.931743 
L 184.234406 124.758579 
L 185.636416 124.536068 
L 186.385801 124.388141 
L 187.038426 124.236233 
L 188.440436 123.828895 
L 189.166824 123.568643 
L 189.842446 123.272083 
L 190.824987 122.749146 
L 191.244456 122.470479 
L 191.937725 121.929648 
L 192.646466 121.225839 
L 192.748629 121.110151 
L 193.341181 120.290653 
L 193.799518 119.471156 
L 194.048476 118.897138 
L 194.146572 118.651658 
L 194.400325 117.832161 
L 194.580444 117.012663 
L 194.69164 116.193166 
L 194.729064 115.373668 
L 194.67675 114.554171 
L 194.50764 113.734673 
L 194.18541 112.915176 
L 194.048476 112.691169 
L 193.631844 112.095678 
L 192.808338 111.276181 
L 192.646466 111.150717 
L 191.604416 110.456683 
L 191.244456 110.252024 
L 190.02299 109.637186 
L 189.842446 109.552049 
L 188.440436 108.935265 
L 188.162468 108.817688 
L 187.038426 108.329065 
L 186.292083 107.998191 
L 185.636416 107.689352 
L 184.587739 107.178693 
L 184.234406 106.996111 
L 183.014065 106.359196 
L 182.832396 106.262535 
L 181.430386 105.541378 
L 181.426924 105.539698 
L 180.028375 104.903379 
L 179.59064 104.720201 
L 178.626365 104.35517 
L 177.334814 103.900704 
L 177.224355 103.865711 
L 175.822345 103.44375 
L 174.615659 103.081206 
L 174.420335 103.027189 
L 173.018325 102.645806 
L 171.616315 102.261709 
L 170.214305 101.931056 
L 168.812295 101.6251 
L 167.854513 101.442211 
L 167.410285 101.364384 
L 166.008275 101.160953 
L 164.606265 101.002088 
L 163.204255 100.897982 
L 161.802245 100.867532 
L 160.400235 100.941676 
L 158.998225 101.164967 
L 158.085697 101.442211 
L 157.596215 101.607886 
L 156.401735 102.261709 
L 156.194205 102.388013 
L 155.41327 103.081206 
L 154.792195 103.689689 
L 154.633832 103.900704 
L 154.052823 104.720201 
L 153.501598 105.539698 
L 153.390185 105.708792 
L 153.05556 106.359196 
L 152.648954 107.178693 
L 152.264548 107.998191 
L 151.988174 108.632498 
L 151.921813 108.817688 
L 151.652425 109.637186 
L 151.412416 110.456683 
L 151.202358 111.276181 
L 151.022992 112.095678 
L 150.876037 112.915176 
L 150.764193 113.734673 
L 150.690611 114.554171 
L 150.658196 115.373668 
L 150.668906 116.193166 
L 150.723047 117.012663 
L 150.818795 117.832161 
L 150.952474 118.651658 
L 151.120113 119.471156 
L 151.320193 120.290653 
L 151.556497 121.110151 
L 151.839731 121.929648 
L 151.988174 122.283882 
L 152.218647 122.749146 
L 152.722381 123.568643 
L 153.359311 124.388141 
L 153.390185 124.420793 
L 154.306446 125.207638 
L 154.792195 125.553211 
L 155.636692 126.027136 
L 156.194205 126.300932 
L 157.596215 126.828762 
L 157.661861 126.846633 
L 158.998225 127.187068 
" style="fill:none;stroke:#4c72b0;stroke-width:1.5;"/>
   </g>
   <g id="LineCollection_9">
    <path clip-path="url(#p4ddcb1d6cb)" d="M 158.998225 123.894308 
L 160.400235 124.242507 
L 161.802245 124.37771 
L 163.204255 124.330103 
L 164.606265 124.140665 
L 166.008275 123.861999 
L 167.324046 123.568643 
L 167.410285 123.547741 
L 168.812295 123.215492 
L 170.214305 122.937274 
L 171.41997 122.749146 
L 171.616315 122.716663 
L 173.018325 122.53171 
L 174.420335 122.381405 
L 175.822345 122.239284 
L 177.224355 122.080148 
L 178.293456 121.929648 
L 178.626365 121.875391 
L 180.028375 121.585747 
L 181.430386 121.214689 
L 181.757732 121.110151 
L 182.832396 120.689229 
L 183.697431 120.290653 
L 184.234406 119.976158 
L 185.006719 119.471156 
L 185.636416 118.926013 
L 185.927444 118.651658 
L 186.536174 117.832161 
L 186.886981 117.012663 
L 186.950733 116.193166 
L 186.661883 115.373668 
L 185.932487 114.554171 
L 185.636416 114.343908 
L 184.539832 113.734673 
L 184.234406 113.60117 
L 182.832396 113.055963 
L 182.466858 112.915176 
L 181.430386 112.536113 
L 180.355302 112.095678 
L 180.028375 111.961176 
L 178.626365 111.303107 
L 178.574883 111.276181 
L 177.224355 110.593998 
L 176.957989 110.456683 
L 175.822345 109.911653 
L 175.203107 109.637186 
L 174.420335 109.313865 
L 173.018325 108.817688 
L 171.616315 108.38682 
L 170.214305 108.019826 
L 170.123358 107.998191 
L 168.812295 107.660878 
L 167.410285 107.327261 
L 166.729096 107.178693 
L 166.008275 107.007582 
L 164.606265 106.727827 
L 163.204255 106.535212 
L 161.802245 106.472332 
L 160.400235 106.590698 
L 158.998225 106.951934 
L 158.52802 107.178693 
L 157.596215 107.641619 
L 157.145684 107.998191 
L 156.194205 108.803674 
L 156.182717 108.817688 
L 155.558494 109.637186 
L 155.000564 110.456683 
L 154.792195 110.79868 
L 154.572294 111.276181 
L 154.2382 112.095678 
L 153.958891 112.915176 
L 153.744817 113.734673 
L 153.607068 114.554171 
L 153.555099 115.373668 
L 153.594565 116.193166 
L 153.725031 117.012663 
L 153.938213 117.832161 
L 154.218702 118.651658 
L 154.548968 119.471156 
L 154.792195 120.015545 
L 154.947809 120.290653 
L 155.455512 121.110151 
L 156.038453 121.929648 
L 156.194205 122.114495 
L 156.904278 122.749146 
L 157.596215 123.254417 
L 158.218449 123.568643 
L 158.998225 123.894308 
" style="fill:none;stroke:#4c72b0;stroke-width:1.5;"/>
   </g>
   <g id="LineCollection_10"/>
   <g id="patch_3">
    <path d="M 62.259531 170.28 
L 62.259531 7.2 
" style="fill:none;stroke:#ffffff;stroke-linecap:square;stroke-linejoin:miter;stroke-width:1.25;"/>
   </g>
   <g id="patch_4">
    <path d="M 341.259531 170.28 
L 341.259531 7.2 
" style="fill:none;stroke:#ffffff;stroke-linecap:square;stroke-linejoin:miter;stroke-width:1.25;"/>
   </g>
   <g id="patch_5">
    <path d="M 62.259531 170.28 
L 341.259531 170.28 
" style="fill:none;stroke:#ffffff;stroke-linecap:square;stroke-linejoin:miter;stroke-width:1.25;"/>
   </g>
   <g id="patch_6">
    <path d="M 62.259531 7.2 
L 341.259531 7.2 
" style="fill:none;stroke:#ffffff;stroke-linecap:square;stroke-linejoin:miter;stroke-width:1.25;"/>
   </g>
  </g>
 </g>
 <defs>
  <clipPath id="p4ddcb1d6cb">
   <rect height="163.08" width="279" x="62.259531" y="7.2"/>
  </clipPath>
 </defs>
</svg>
