<svg class="main-svg" xmlns="http://www.w3.org/2000/svg" xmlns:xlink="http://www.w3.org/1999/xlink" width="450" height="250" style="" viewBox="0 0 450 250"><rect x="0" y="0" width="450" height="250" style="fill: rgb(255, 255, 255); fill-opacity: 1;"/><defs id="defs-c8c24a"><g class="clips"><clipPath id="clipc8c24axyplot" class="plotclip"><rect width="385" height="158.004"/></clipPath><clipPath id="clipc8c24ax2y2plot" class="plotclip"><rect width="385" height="30.095999999999997"/></clipPath><clipPath class="axesclip" id="clipc8c24ax"><rect x="55" y="0" width="385" height="250"/></clipPath><clipPath class="axesclip" id="clipc8c24ay"><rect x="0" y="41.995999999999995" width="450" height="158.004"/></clipPath><clipPath class="axesclip" id="clipc8c24axy"><rect x="55" y="41.995999999999995" width="385" height="158.004"/></clipPath><clipPath class="axesclip" id="clipc8c24ay2"><rect x="0" y="10" width="450" height="30.095999999999997"/></clipPath><clipPath class="axesclip" id="clipc8c24axy2"><rect x="55" y="10" width="385" height="30.095999999999997"/></clipPath><clipPath class="axesclip" id="clipc8c24ax2"><rect x="55" y="0" width="385" height="250"/></clipPath><clipPath class="axesclip" id="clipc8c24ax2y"><rect x="55" y="41.995999999999995" width="385" height="158.004"/></clipPath><clipPath class="axesclip" id="clipc8c24ax2y2"><rect x="55" y="10" width="385" height="30.095999999999997"/></clipPath></g><g class="gradients"/><g class="patterns"/></defs><g class="bglayer"><rect class="bg" x="55" y="41.995999999999995" width="385" height="158.004" style="fill: rgb(234, 234, 242); fill-opacity: 1; stroke-width: 0;"/><rect class="bg" x="55" y="10" width="385" height="30.095999999999997" style="fill: rgb(234, 234, 242); fill-opacity: 1; stroke-width: 0;"/></g><g class="layer-below"><g class="imagelayer"/><g class="shapelayer"/></g><g class="cartesianlayer"><g class="subplot xy"><g class="layer-subplot"><g class="shapelayer"/><g class="imagelayer"/></g><g class="gridlayer"><g class="x"><path class="xgrid crisp" transform="translate(56.92,0)" d="M0,41.995999999999995v158.004" style="stroke: rgb(255, 255, 255); stroke-opacity: 1; stroke-width: 1px;"/><path class="xgrid crisp" transform="translate(126.22,0)" d="M0,41.995999999999995v158.004" style="stroke: rgb(255, 255, 255); stroke-opacity: 1; stroke-width: 1px;"/><path class="xgrid crisp" transform="translate(195.53,0)" d="M0,41.995999999999995v158.004" style="stroke: rgb(255, 255, 255); stroke-opacity: 1; stroke-width: 1px;"/><path class="xgrid crisp" transform="translate(264.82,0)" d="M0,41.995999999999995v158.004" style="stroke: rgb(255, 255, 255); stroke-opacity: 1; stroke-width: 1px;"/><path class="xgrid crisp" transform="translate(334.13,0)" d="M0,41.995999999999995v158.004" style="stroke: rgb(255, 255, 255); stroke-opacity: 1; stroke-width: 1px;"/><path class="xgrid crisp" transform="translate(403.42,0)" d="M0,41.995999999999995v158.004" style="stroke: rgb(255, 255, 255); stroke-opacity: 1; stroke-width: 1px;"/></g><g class="y"><path class="ygrid crisp" transform="translate(0,154.39600000000002)" d="M55,0h385" style="stroke: rgb(255, 255, 255); stroke-opacity: 1; stroke-width: 1px;"/><path class="ygrid crisp" transform="translate(0,115.996)" d="M55,0h385" style="stroke: rgb(255, 255, 255); stroke-opacity: 1; stroke-width: 1px;"/><path class="ygrid crisp" transform="translate(0,77.586)" d="M55,0h385" style="stroke: rgb(255, 255, 255); stroke-opacity: 1; stroke-width: 1px;"/></g></g><g class="zerolinelayer"><path class="yzl zl crisp" transform="translate(0,192.80599999999998)" d="M55,0h385" style="stroke: rgb(255, 255, 255); stroke-opacity: 1; stroke-width: 1px;"/></g><path class="xlines-below"/><path class="ylines-below"/><g class="overlines-below"/><g class="xaxislayer-below"/><g class="yaxislayer-below"/><g class="overaxes-below"/><g class="plot" transform="translate(55,41.995999999999995)" clip-path="url(#clipc8c24axyplot)"><g class="barlayer mlayer"><g class="trace bars" shape-rendering="crispEdges" style="opacity: 1;"><g class="points"><g class="point"><path d="M10.59,150.81V132.95H27.91V150.81Z" style="vector-effect: non-scaling-stroke; opacity: 1; stroke-width: 0px; fill: rgb(76, 114, 176); fill-opacity: 0.3;"/></g><g class="point"><path d="M27.91,150.81V132.95H45.24V150.81Z" style="vector-effect: non-scaling-stroke; opacity: 1; stroke-width: 0px; fill: rgb(76, 114, 176); fill-opacity: 0.3;"/></g><g class="point"><path d="M45.24,150.81V132.95H62.56V150.81Z" style="vector-effect: non-scaling-stroke; opacity: 1; stroke-width: 0px; fill: rgb(76, 114, 176); fill-opacity: 0.3;"/></g><g class="point"><path d="M62.56,150.81V132.95H79.89V150.81Z" style="vector-effect: non-scaling-stroke; opacity: 1; stroke-width: 0px; fill: rgb(76, 114, 176); fill-opacity: 0.3;"/></g><g class="point"><path d="M0,0Z" style="vector-effect: non-scaling-stroke; opacity: 1; stroke-width: 0px; fill: rgb(76, 114, 176); fill-opacity: 0.3;"/></g><g class="point"><path d="M97.21,150.81V115.08H114.54V150.81Z" style="vector-effect: non-scaling-stroke; opacity: 1; stroke-width: 0px; fill: rgb(76, 114, 176); fill-opacity: 0.3;"/></g><g class="point"><path d="M114.54,150.81V97.22H131.86V150.81Z" style="vector-effect: non-scaling-stroke; opacity: 1; stroke-width: 0px; fill: rgb(76, 114, 176); fill-opacity: 0.3;"/></g><g class="point"><path d="M131.86,150.81V79.35H149.19V150.81Z" style="vector-effect: non-scaling-stroke; opacity: 1; stroke-width: 0px; fill: rgb(76, 114, 176); fill-opacity: 0.3;"/></g><g class="point"><path d="M149.19,150.81V115.08H166.51V150.81Z" style="vector-effect: non-scaling-stroke; opacity: 1; stroke-width: 0px; fill: rgb(76, 114, 176); fill-opacity: 0.3;"/></g><g class="point"><path d="M166.51,150.81V115.08H183.84V150.81Z" style="vector-effect: non-scaling-stroke; opacity: 1; stroke-width: 0px; fill: rgb(76, 114, 176); fill-opacity: 0.3;"/></g><g class="point"><path d="M183.84,150.81V79.35H201.16V150.81Z" style="vector-effect: non-scaling-stroke; opacity: 1; stroke-width: 0px; fill: rgb(76, 114, 176); fill-opacity: 0.3;"/></g><g class="point"><path d="M201.16,150.81V43.63H218.49V150.81Z" style="vector-effect: non-scaling-stroke; opacity: 1; stroke-width: 0px; fill: rgb(76, 114, 176); fill-opacity: 0.3;"/></g><g class="point"><path d="M218.49,150.81V7.9H235.81V150.81Z" style="vector-effect: non-scaling-stroke; opacity: 1; stroke-width: 0px; fill: rgb(76, 114, 176); fill-opacity: 0.3;"/></g><g class="point"><path d="M235.81,150.81V97.22H253.14V150.81Z" style="vector-effect: non-scaling-stroke; opacity: 1; stroke-width: 0px; fill: rgb(76, 114, 176); fill-opacity: 0.3;"/></g><g class="point"><path d="M253.14,150.81V132.95H270.46V150.81Z" style="vector-effect: non-scaling-stroke; opacity: 1; stroke-width: 0px; fill: rgb(76, 114, 176); fill-opacity: 0.3;"/></g><g class="point"><path d="M270.46,150.81V115.08H287.79V150.81Z" style="vector-effect: non-scaling-stroke; opacity: 1; stroke-width: 0px; fill: rgb(76, 114, 176); fill-opacity: 0.3;"/></g><g class="point"><path d="M287.79,150.81V132.95H305.11V150.81Z" style="vector-effect: non-scaling-stroke; opacity: 1; stroke-width: 0px; fill: rgb(76, 114, 176); fill-opacity: 0.3;"/></g><g class="point"><path d="M0,0Z" style="vector-effect: non-scaling-stroke; opacity: 1; stroke-width: 0px; fill: rgb(76, 114, 176); fill-opacity: 0.3;"/></g><g class="point"><path d="M0,0Z" style="vector-effect: non-scaling-stroke; opacity: 1; stroke-width: 0px; fill: rgb(76, 114, 176); fill-opacity: 0.3;"/></g><g class="point"><path d="M0,0Z" style="vector-effect: non-scaling-stroke; opacity: 1; stroke-width: 0px; fill: rgb(76, 114, 176); fill-opacity: 0.3;"/></g><g class="point"><path d="M357.09,150.81V132.95H374.41V150.81Z" style="vector-effect: non-scaling-stroke; opacity: 1; stroke-width: 0px; fill: rgb(76, 114, 176); fill-opacity: 0.3;"/></g></g></g></g><g class="scatterlayer mlayer"><g class="trace scatter tracea73caf" style="stroke-miterlimit: 2; opacity: 1;"><g class="fills"/><g class="errorbars"/><g class="lines"><path class="js-line" d="M19.25,134.52L26.25,133.26L29.75,133.55L40.25,135.12L43.75,135.04L57.75,132.95L61.25,133.29L68.25,135.94L71.75,137.88L78.75,141.15L82.25,141.71L85.75,141.11L89.25,139.19L92.75,135.92L96.25,131.46L110.25,110.11L113.75,106.33L117.25,103.76L120.75,102.28L127.75,101.44L131.25,101.44L145.25,102.18L148.75,102.82L159.25,104.35L162.75,104.05L169.75,101.6L173.25,99.46L180.25,93.27L183.75,89.09L190.75,78.1L194.25,71.3L208.25,42.1L211.75,37.25L215.25,34.71L218.75,34.9L222.25,37.95L225.75,43.64L232.75,60.56L236.25,70.19L243.25,88.07L246.75,95.37L253.75,105.92L257.25,109.37L264.25,113.83L267.75,115.45L278.25,121.04L281.75,123.54L306.25,143.26L309.75,145.29L316.75,148.23L320.25,149.14L327.25,150.04L330.75,150.1L341.25,148.82L344.75,147.89L362.25,142.36L365.75,142.1" style="vector-effect: non-scaling-stroke; fill: none; stroke: rgb(76, 114, 176); stroke-opacity: 1; stroke-width: 2px; opacity: 1;"/></g><g class="points"/><g class="text"/></g></g></g><g class="overplot"/><path class="xlines-above crisp" d="M0,0" style="fill: none;"/><path class="ylines-above crisp" d="M0,0" style="fill: none;"/><g class="overlines-above"/><g class="xaxislayer-above"><g class="xtick"><text text-anchor="middle" x="0" y="213" transform="translate(56.92,0)" style="font-family: 'Open Sans', verdana, arial, sans-serif; font-size: 12px; fill: rgb(36, 36, 36); fill-opacity: 1; white-space: pre; opacity: 1;">6</text></g><g class="xtick"><text text-anchor="middle" x="0" y="213" style="font-family: 'Open Sans', verdana, arial, sans-serif; font-size: 12px; fill: rgb(36, 36, 36); fill-opacity: 1; white-space: pre; opacity: 1;" transform="translate(126.22,0)">8</text></g><g class="xtick"><text text-anchor="middle" x="0" y="213" style="font-family: 'Open Sans', verdana, arial, sans-serif; font-size: 12px; fill: rgb(36, 36, 36); fill-opacity: 1; white-space: pre; opacity: 1;" transform="translate(195.53,0)">10</text></g><g class="xtick"><text text-anchor="middle" x="0" y="213" style="font-family: 'Open Sans', verdana, arial, sans-serif; font-size: 12px; fill: rgb(36, 36, 36); fill-opacity: 1; white-space: pre; opacity: 1;" transform="translate(264.82,0)">12</text></g><g class="xtick"><text text-anchor="middle" x="0" y="213" style="font-family: 'Open Sans', verdana, arial, sans-serif; font-size: 12px; fill: rgb(36, 36, 36); fill-opacity: 1; white-space: pre; opacity: 1;" transform="translate(334.13,0)">14</text></g><g class="xtick"><text text-anchor="middle" x="0" y="213" style="font-family: 'Open Sans', verdana, arial, sans-serif; font-size: 12px; fill: rgb(36, 36, 36); fill-opacity: 1; white-space: pre; opacity: 1;" transform="translate(403.42,0)">16</text></g></g><g class="yaxislayer-above"><g class="ytick"><text text-anchor="end" x="54" y="4.199999999999999" transform="translate(0,192.80599999999998)" style="font-family: 'Open Sans', verdana, arial, sans-serif; font-size: 12px; fill: rgb(36, 36, 36); fill-opacity: 1; white-space: pre; opacity: 1;">0</text></g><g class="ytick"><text text-anchor="end" x="54" y="4.199999999999999" style="font-family: 'Open Sans', verdana, arial, sans-serif; font-size: 12px; fill: rgb(36, 36, 36); fill-opacity: 1; white-space: pre; opacity: 1;" transform="translate(0,154.39600000000002)">0.1</text></g><g class="ytick"><text text-anchor="end" x="54" y="4.199999999999999" style="font-family: 'Open Sans', verdana, arial, sans-serif; font-size: 12px; fill: rgb(36, 36, 36); fill-opacity: 1; white-space: pre; opacity: 1;" transform="translate(0,115.996)">0.2</text></g><g class="ytick"><text text-anchor="end" x="54" y="4.199999999999999" style="font-family: 'Open Sans', verdana, arial, sans-serif; font-size: 12px; fill: rgb(36, 36, 36); fill-opacity: 1; white-space: pre; opacity: 1;" transform="translate(0,77.586)">0.3</text></g></g><g class="overaxes-above"/></g><g class="subplot x2y2"><g class="layer-subplot"><g class="shapelayer"/><g class="imagelayer"/></g><g class="gridlayer"><g class="x2"><path class="x2grid crisp" transform="translate(56.92,0)" d="M0,10v30.095999999999997" style="stroke: rgb(255, 255, 255); stroke-opacity: 1; stroke-width: 1px;"/><path class="x2grid crisp" transform="translate(126.22,0)" d="M0,10v30.095999999999997" style="stroke: rgb(255, 255, 255); stroke-opacity: 1; stroke-width: 1px;"/><path class="x2grid crisp" transform="translate(195.53,0)" d="M0,10v30.095999999999997" style="stroke: rgb(255, 255, 255); stroke-opacity: 1; stroke-width: 1px;"/><path class="x2grid crisp" transform="translate(264.82,0)" d="M0,10v30.095999999999997" style="stroke: rgb(255, 255, 255); stroke-opacity: 1; stroke-width: 1px;"/><path class="x2grid crisp" transform="translate(334.13,0)" d="M0,10v30.095999999999997" style="stroke: rgb(255, 255, 255); stroke-opacity: 1; stroke-width: 1px;"/><path class="x2grid crisp" transform="translate(403.42,0)" d="M0,10v30.095999999999997" style="stroke: rgb(255, 255, 255); stroke-opacity: 1; stroke-width: 1px;"/></g><g class="y2"><path class="y2grid crisp" transform="translate(0,23.55)" d="M55,0h385" style="stroke: rgb(255, 255, 255); stroke-opacity: 1; stroke-width: 1px;"/></g></g><g class="zerolinelayer"/><path class="xlines-below"/><path class="ylines-below"/><g class="overlines-below"/><g class="xaxislayer-below"/><g class="yaxislayer-below"/><g class="overaxes-below"/><g class="plot" transform="translate(55,10)" clip-path="url(#clipc8c24ax2y2plot)"><g class="boxlayer mlayer"><g class="trace boxes" style="opacity: 1;"><path class="box" d="M203.24,20.19V6.91M141.39,20.19V6.91H227.93V20.19ZM141.39,13.55H19.25M227.93,13.55H293.68M19.25,16.87V10.23M293.68,16.87V10.23" style="vector-effect: non-scaling-stroke; stroke-width: 2px; stroke: rgb(255, 255, 255); stroke-opacity: 0; fill: rgb(255, 255, 255); fill-opacity: 0;"/><g class="points"><path class="point" transform="translate(19.25,23.51)" d="M0,4.2V-4.2" style="opacity: 1; stroke: rgb(76, 114, 176); stroke-opacity: 1; stroke-width: 1px; fill: none;"/><path class="point" transform="translate(27.91,23.51)" d="M0,4.2V-4.2" style="opacity: 1; stroke: rgb(76, 114, 176); stroke-opacity: 1; stroke-width: 1px; fill: none;"/><path class="point" transform="translate(56.33,23.51)" d="M0,4.2V-4.2" style="opacity: 1; stroke: rgb(76, 114, 176); stroke-opacity: 1; stroke-width: 1px; fill: none;"/><path class="point" transform="translate(63.6,23.51)" d="M0,4.2V-4.2" style="opacity: 1; stroke: rgb(76, 114, 176); stroke-opacity: 1; stroke-width: 1px; fill: none;"/><path class="point" transform="translate(108.65,23.51)" d="M0,4.2V-4.2" style="opacity: 1; stroke: rgb(76, 114, 176); stroke-opacity: 1; stroke-width: 1px; fill: none;"/><path class="point" transform="translate(109.34,23.51)" d="M0,4.2V-4.2" style="opacity: 1; stroke: rgb(76, 114, 176); stroke-opacity: 1; stroke-width: 1px; fill: none;"/><path class="point" transform="translate(116.96,23.51)" d="M0,4.2V-4.2" style="opacity: 1; stroke: rgb(76, 114, 176); stroke-opacity: 1; stroke-width: 1px; fill: none;"/><path class="point" transform="translate(119.73,23.51)" d="M0,4.2V-4.2" style="opacity: 1; stroke: rgb(76, 114, 176); stroke-opacity: 1; stroke-width: 1px; fill: none;"/><path class="point" transform="translate(122.51,23.51)" d="M0,4.2V-4.2" style="opacity: 1; stroke: rgb(76, 114, 176); stroke-opacity: 1; stroke-width: 1px; fill: none;"/><path class="point" transform="translate(140.53,23.51)" d="M0,4.2V-4.2" style="opacity: 1; stroke: rgb(76, 114, 176); stroke-opacity: 1; stroke-width: 1px; fill: none;"/><path class="point" transform="translate(140.53,23.51)" d="M0,4.2V-4.2" style="opacity: 1; stroke: rgb(76, 114, 176); stroke-opacity: 1; stroke-width: 1px; fill: none;"/><path class="point" transform="translate(143.99,23.51)" d="M0,4.2V-4.2" style="opacity: 1; stroke: rgb(76, 114, 176); stroke-opacity: 1; stroke-width: 1px; fill: none;"/><path class="point" transform="translate(147.8,23.51)" d="M0,4.2V-4.2" style="opacity: 1; stroke: rgb(76, 114, 176); stroke-opacity: 1; stroke-width: 1px; fill: none;"/><path class="point" transform="translate(163.74,23.51)" d="M0,4.2V-4.2" style="opacity: 1; stroke: rgb(76, 114, 176); stroke-opacity: 1; stroke-width: 1px; fill: none;"/><path class="point" transform="translate(164.43,23.51)" d="M0,4.2V-4.2" style="opacity: 1; stroke: rgb(76, 114, 176); stroke-opacity: 1; stroke-width: 1px; fill: none;"/><path class="point" transform="translate(175.18,23.51)" d="M0,4.2V-4.2" style="opacity: 1; stroke: rgb(76, 114, 176); stroke-opacity: 1; stroke-width: 1px; fill: none;"/><path class="point" transform="translate(178.64,23.51)" d="M0,4.2V-4.2" style="opacity: 1; stroke: rgb(76, 114, 176); stroke-opacity: 1; stroke-width: 1px; fill: none;"/><path class="point" transform="translate(185.22,23.51)" d="M0,4.2V-4.2" style="opacity: 1; stroke: rgb(76, 114, 176); stroke-opacity: 1; stroke-width: 1px; fill: none;"/><path class="point" transform="translate(191.11,23.51)" d="M0,4.2V-4.2" style="opacity: 1; stroke: rgb(76, 114, 176); stroke-opacity: 1; stroke-width: 1px; fill: none;"/><path class="point" transform="translate(197,23.51)" d="M0,4.2V-4.2" style="opacity: 1; stroke: rgb(76, 114, 176); stroke-opacity: 1; stroke-width: 1px; fill: none;"/><path class="point" transform="translate(198.04,23.51)" d="M0,4.2V-4.2" style="opacity: 1; stroke: rgb(76, 114, 176); stroke-opacity: 1; stroke-width: 1px; fill: none;"/><path class="point" transform="translate(203.24,23.51)" d="M0,4.2V-4.2" style="opacity: 1; stroke: rgb(76, 114, 176); stroke-opacity: 1; stroke-width: 1px; fill: none;"/><path class="point" transform="translate(207.05,23.51)" d="M0,4.2V-4.2" style="opacity: 1; stroke: rgb(76, 114, 176); stroke-opacity: 1; stroke-width: 1px; fill: none;"/><path class="point" transform="translate(211.21,23.51)" d="M0,4.2V-4.2" style="opacity: 1; stroke: rgb(76, 114, 176); stroke-opacity: 1; stroke-width: 1px; fill: none;"/><path class="point" transform="translate(211.21,23.51)" d="M0,4.2V-4.2" style="opacity: 1; stroke: rgb(76, 114, 176); stroke-opacity: 1; stroke-width: 1px; fill: none;"/><path class="point" transform="translate(211.56,23.51)" d="M0,4.2V-4.2" style="opacity: 1; stroke: rgb(76, 114, 176); stroke-opacity: 1; stroke-width: 1px; fill: none;"/><path class="point" transform="translate(215.72,23.51)" d="M0,4.2V-4.2" style="opacity: 1; stroke: rgb(76, 114, 176); stroke-opacity: 1; stroke-width: 1px; fill: none;"/><path class="point" transform="translate(218.49,23.51)" d="M0,4.2V-4.2" style="opacity: 1; stroke: rgb(76, 114, 176); stroke-opacity: 1; stroke-width: 1px; fill: none;"/><path class="point" transform="translate(218.49,23.51)" d="M0,4.2V-4.2" style="opacity: 1; stroke: rgb(76, 114, 176); stroke-opacity: 1; stroke-width: 1px; fill: none;"/><path class="point" transform="translate(220.57,23.51)" d="M0,4.2V-4.2" style="opacity: 1; stroke: rgb(76, 114, 176); stroke-opacity: 1; stroke-width: 1px; fill: none;"/><path class="point" transform="translate(224.38,23.51)" d="M0,4.2V-4.2" style="opacity: 1; stroke: rgb(76, 114, 176); stroke-opacity: 1; stroke-width: 1px; fill: none;"/><path class="point" transform="translate(227.15,23.51)" d="M0,4.2V-4.2" style="opacity: 1; stroke: rgb(76, 114, 176); stroke-opacity: 1; stroke-width: 1px; fill: none;"/><path class="point" transform="translate(228.19,23.51)" d="M0,4.2V-4.2" style="opacity: 1; stroke: rgb(76, 114, 176); stroke-opacity: 1; stroke-width: 1px; fill: none;"/><path class="point" transform="translate(228.54,23.51)" d="M0,4.2V-4.2" style="opacity: 1; stroke: rgb(76, 114, 176); stroke-opacity: 1; stroke-width: 1px; fill: none;"/><path class="point" transform="translate(229.92,23.51)" d="M0,4.2V-4.2" style="opacity: 1; stroke: rgb(76, 114, 176); stroke-opacity: 1; stroke-width: 1px; fill: none;"/><path class="point" transform="translate(241.7,23.51)" d="M0,4.2V-4.2" style="opacity: 1; stroke: rgb(76, 114, 176); stroke-opacity: 1; stroke-width: 1px; fill: none;"/><path class="point" transform="translate(246.9,23.51)" d="M0,4.2V-4.2" style="opacity: 1; stroke: rgb(76, 114, 176); stroke-opacity: 1; stroke-width: 1px; fill: none;"/><path class="point" transform="translate(251.4,23.51)" d="M0,4.2V-4.2" style="opacity: 1; stroke: rgb(76, 114, 176); stroke-opacity: 1; stroke-width: 1px; fill: none;"/><path class="point" transform="translate(264.57,23.51)" d="M0,4.2V-4.2" style="opacity: 1; stroke: rgb(76, 114, 176); stroke-opacity: 1; stroke-width: 1px; fill: none;"/><path class="point" transform="translate(273.58,23.51)" d="M0,4.2V-4.2" style="opacity: 1; stroke: rgb(76, 114, 176); stroke-opacity: 1; stroke-width: 1px; fill: none;"/><path class="point" transform="translate(276.35,23.51)" d="M0,4.2V-4.2" style="opacity: 1; stroke: rgb(76, 114, 176); stroke-opacity: 1; stroke-width: 1px; fill: none;"/><path class="point" transform="translate(293.68,23.51)" d="M0,4.2V-4.2" style="opacity: 1; stroke: rgb(76, 114, 176); stroke-opacity: 1; stroke-width: 1px; fill: none;"/><path class="point" transform="translate(365.75,23.51)" d="M0,4.2V-4.2" style="opacity: 1; stroke: rgb(76, 114, 176); stroke-opacity: 1; stroke-width: 1px; fill: none;"/></g></g></g></g><g class="overplot"/><path class="xlines-above crisp" d="M0,0" style="fill: none;"/><path class="ylines-above crisp" d="M0,0" style="fill: none;"/><g class="overlines-above"/><g class="xaxislayer-above"/><g class="yaxislayer-above"/><g class="overaxes-above"/></g></g><g class="polarlayer"/><g class="smithlayer"/><g class="ternarylayer"/><g class="geolayer"/><g class="funnelarealayer"/><g class="pielayer"/><g class="iciclelayer"/><g class="treemaplayer"/><g class="sunburstlayer"/><g class="glimages"/><defs id="topdefs-c8c24a"><g class="clips"/></defs><g class="layer-above"><g class="imagelayer"/><g class="shapelayer"/></g><g class="infolayer"><g class="g-gtitle"/><g class="g-xtitle"><text class="xtitle" x="247.5" y="240.3" text-anchor="middle" style="font-family: 'Open Sans', verdana, arial, sans-serif; font-size: 14px; fill: rgb(36, 36, 36); opacity: 1; font-weight: normal; white-space: pre;">longevity</text></g><g class="g-x2title"/><g class="g-ytitle" transform="translate(4.4384765625,0)"><text class="ytitle" transform="rotate(-90,9.575000000000003,120.99799999999999)" x="9.575000000000003" y="120.99799999999999" text-anchor="middle" style="font-family: 'Open Sans', verdana, arial, sans-serif; font-size: 14px; fill: rgb(36, 36, 36); opacity: 1; font-weight: normal; white-space: pre;">probability density</text></g><g class="g-y2title"/></g></svg>