<svg class="main-svg" xmlns="http://www.w3.org/2000/svg" xmlns:xlink="http://www.w3.org/1999/xlink" width="600" height="350" style="" viewBox="0 0 600 350"><rect x="0" y="0" width="600" height="350" style="fill: rgb(255, 255, 255); fill-opacity: 1;"/><defs id="defs-13c155"><g class="clips"><clipPath id="clip13c155xyplot" class="plotclip"><rect width="445" height="262"/></clipPath><clipPath class="axesclip" id="clip13c155x"><rect x="63" y="0" width="445" height="350"/></clipPath><clipPath class="axesclip" id="clip13c155y"><rect x="0" y="30" width="600" height="262"/></clipPath><clipPath class="axesclip" id="clip13c155xy"><rect x="63" y="30" width="445" height="262"/></clipPath></g><g class="gradients"/><g class="patterns"/></defs><g class="bglayer"/><g class="layer-below"><g class="imagelayer"/><g class="shapelayer"/></g><g class="cartesianlayer"><g class="subplot xy"><g class="layer-subplot"><g class="shapelayer"/><g class="imagelayer"/></g><g class="minor-gridlayer"><g class="x"/><g class="y"/></g><g class="gridlayer"><g class="x"><path class="xgrid crisp" transform="translate(116.64,0)" d="M0,30v262" style="stroke: rgb(232, 232, 232); stroke-opacity: 1; stroke-width: 1px;"/><path class="xgrid crisp" transform="translate(196.43,0)" d="M0,30v262" style="stroke: rgb(232, 232, 232); stroke-opacity: 1; stroke-width: 1px;"/><path class="xgrid crisp" transform="translate(276.02,0)" d="M0,30v262" style="stroke: rgb(232, 232, 232); stroke-opacity: 1; stroke-width: 1px;"/><path class="xgrid crisp" transform="translate(355.6,0)" d="M0,30v262" style="stroke: rgb(232, 232, 232); stroke-opacity: 1; stroke-width: 1px;"/><path class="xgrid crisp" transform="translate(435.18,0)" d="M0,30v262" style="stroke: rgb(232, 232, 232); stroke-opacity: 1; stroke-width: 1px;"/></g><g class="y"><path class="ygrid crisp" transform="translate(0,248.62)" d="M63,0h445" style="stroke: rgb(232, 232, 232); stroke-opacity: 1; stroke-width: 1px;"/><path class="ygrid crisp" transform="translate(0,200.37)" d="M63,0h445" style="stroke: rgb(232, 232, 232); stroke-opacity: 1; stroke-width: 1px;"/><path class="ygrid crisp" transform="translate(0,152.12)" d="M63,0h445" style="stroke: rgb(232, 232, 232); stroke-opacity: 1; stroke-width: 1px;"/><path class="ygrid crisp" transform="translate(0,103.86)" d="M63,0h445" style="stroke: rgb(232, 232, 232); stroke-opacity: 1; stroke-width: 1px;"/><path class="ygrid crisp" transform="translate(0,55.61)" d="M63,0h445" style="stroke: rgb(232, 232, 232); stroke-opacity: 1; stroke-width: 1px;"/></g></g><g class="zerolinelayer"/><path class="xlines-below"/><path class="ylines-below"/><g class="overlines-below"/><g class="xaxislayer-below"/><g class="yaxislayer-below"/><g class="overaxes-below"/><g class="plot" transform="translate(63,30)" clip-path="url(#clip13c155xyplot)"><g class="scatterlayer mlayer"><g class="trace scatter traceb5438d" style="stroke-miterlimit: 2; opacity: 1;"><g class="fills"/><g class="errorbars"/><g class="lines"><path class="js-line" d="M0,170.37L13.3,160.91L20.06,163.27L26.82,152.39L33.36,152.39L40.12,152.87L46.66,146.72L53.42,146.72L60.18,141.98L66.5,150.5L73.26,146.72L79.8,141.04L86.56,127.79L93.1,121.17L99.86,118.33L106.62,115.97L113.16,110.76L119.92,108.87L126.46,104.14L133.22,99.41L139.98,99.41L146.08,104.14L152.84,94.68L159.38,85.22L166.14,71.02L172.68,61.56L179.44,56.83L186.2,52.1L192.74,36.02L199.5,37.91L206.04,37.91L212.8,47.37L219.56,45.48L225.66,47.37L232.42,47.84L238.96,52.1L245.72,41.22L252.26,41.69L259.02,43.58L265.78,37.91L272.32,42.64L279.08,42.64L285.62,43.58L292.38,40.27L299.14,34.12L305.24,56.83L312,56.83L318.54,47.37L325.3,47.37L331.84,47.37L338.6,37.91L345.36,47.37L351.9,63.45L358.66,81.9L365.2,80.48L378.72,109.82L385.04,127.79L391.8,156.18L398.34,175.1L405.1,184.56L411.64,198.75L418.4,204.43L425.16,223.35L431.7,241.33L438.46,248.9L445,248.43" style="vector-effect: none; fill: none; stroke: rgb(0, 0, 4); stroke-opacity: 1; stroke-width: 2px; opacity: 1;"/></g><g class="points"/><g class="text"/></g><g class="trace scatter trace61848c" style="stroke-miterlimit: 2; opacity: 1;"><g class="fills"/><g class="errorbars"/><g class="lines"><path class="js-line" d="M0,170.37L13.3,156.18L20.06,156.18L26.82,149.08L33.36,149.08L40.12,149.08L46.66,145.53L53.42,141.98L60.18,140.21L66.5,141.98L73.26,138.44L79.8,131.34L86.56,120.7L93.1,112.89L99.86,110.05L106.62,106.5L113.16,106.5L119.92,106.5L126.46,99.41L133.22,99.41L139.98,95.86L146.08,100.83L152.84,86.63L172.68,56.83L179.44,52.57L186.2,43.35L192.74,36.96L199.5,44.06L206.04,39.09L212.8,41.22L219.56,46.19L225.66,48.32L232.42,46.19L238.96,46.19L245.72,34.12L252.26,35.54L259.02,35.54L265.78,33.41L272.32,39.09L285.62,46.19L292.38,42.64L299.14,39.09L305.24,49.73L312,56.83L318.54,35.54L325.3,29.87L331.84,28.45L338.6,25.61L345.36,24.9L351.9,37.67L358.66,56.83L371.96,71.02L378.72,95.86L385.04,110.05L391.8,127.79L405.1,156.18L411.64,163.98L418.4,173.92L425.16,195.21L431.7,205.85L438.46,220.04L445,221.46" style="vector-effect: none; fill: none; stroke: rgb(24, 15, 61); stroke-opacity: 1; stroke-dasharray: 3px, 3px; stroke-width: 2px; opacity: 1;"/></g><g class="points"/><g class="text"/></g><g class="trace scatter trace6043c7" style="stroke-miterlimit: 2; opacity: 1;"><g class="fills"/><g class="errorbars"/><g class="lines"><path class="js-line" d="M0,170.37L6.76,162.35L13.3,156.62L20.06,153.75L26.82,148.59L33.36,150.6L40.12,148.59L46.66,149.45L53.42,145.15L60.18,142.86L66.5,146.87L73.26,142.29L79.8,133.69L86.56,125.1L93.1,113.63L106.62,107.9L113.16,110.77L119.92,113.63L126.46,102.17L133.22,102.17L139.98,97.59L146.08,101.03L152.84,85.55L159.38,79.82L166.14,67.79L172.68,59.76L179.44,54.89L186.2,50.31L192.74,44.86L199.5,53.46L206.04,47.44L212.8,47.73L219.56,53.46L225.66,56.33L232.42,50.59L238.96,47.73L245.72,42L252.26,39.13L259.02,40.85L265.78,39.13L272.32,44.86L279.08,50.59L285.62,50.02L292.38,50.59L299.14,50.02L305.24,53.46L312,54.03L318.54,36.27L325.3,25.95L331.84,23.09L338.6,21.94L345.36,23.37L351.9,33.4L358.66,49.73L365.2,42.28L371.96,53.46L378.72,77.24L385.04,96.44L391.8,102.17L398.34,123.38L405.1,130.83L411.64,142.29L418.4,150.88L425.16,168.08L431.7,182.4L438.46,199.6L445,202.46" style="vector-effect: none; fill: none; stroke: rgb(68, 15, 118); stroke-opacity: 1; stroke-dasharray: 9px, 9px; stroke-width: 2px; opacity: 1;"/></g><g class="points"/><g class="text"/></g><g class="trace scatter tracea6508e" style="stroke-miterlimit: 2; opacity: 1;"><g class="fills"/><g class="errorbars"/><g class="lines"><path class="js-line" d="M0,170.37L6.76,164.51L13.3,163.6L20.06,156.84L26.82,152.33L40.12,154.59L46.66,157.29L53.42,152.33L60.18,150.08L66.5,152.33L73.26,148.27L79.8,141.06L86.56,129.78L93.1,121.66L99.86,118.51L106.62,118.51L113.16,120.76L119.92,126.17L126.46,116.25L133.22,114L139.98,112.87L146.08,115.58L152.84,97.31L166.14,77.92L172.68,77.92L186.2,68.22L192.74,68L199.5,75.44L206.04,73.41L212.8,70.25L219.56,74.76L225.66,75.67L232.42,71.38L238.96,70.03L245.72,62.14L252.26,58.08L259.02,59.88L265.78,59.88L272.32,67.77L279.08,71.16L285.62,71.16L292.38,73.41L299.14,77.02L305.24,77.92L312,73.41L318.54,53.34L325.3,39.59L331.84,38.01L338.6,28.31L345.36,28.31L351.9,39.59L358.66,53.12L365.2,46.35L371.96,50.86L378.72,73.41L385.04,86.94L391.8,84.69L398.34,107.23L405.1,111.74L411.64,111.74L418.4,118.51L425.16,138.8L431.7,150.98L438.46,176.01L445,179.39" style="vector-effect: none; fill: none; stroke: rgb(114, 31, 129); stroke-opacity: 1; stroke-dasharray: 15px, 15px; stroke-width: 2px; opacity: 1;"/></g><g class="points"/><g class="text"/></g><g class="trace scatter trace097bd2" style="stroke-miterlimit: 2; opacity: 1;"><g class="fills"/><g class="errorbars"/><g class="lines"><path class="js-line" d="M0,170.37L6.76,166.38L13.3,166.38L20.06,163.62L26.82,151.06L33.36,161.79L40.12,163.32L46.66,167.92L53.42,160.87L66.5,160.25L73.26,157.19L79.8,149.52L86.56,138.79L93.1,126.53L99.86,129.9L106.62,130.21L113.16,135.73L119.92,141.71L126.46,129.9L133.22,130.21L139.98,126.53L146.08,129.6L152.84,102.16L159.38,90.97L166.14,82.08L172.68,85.14L179.44,81.31L186.2,66.75L192.74,74.41L199.5,94.34L206.04,74.72L212.8,79.47L219.56,90.66L225.66,94.34L232.42,90.05L238.96,75.95L245.72,59.09L252.26,56.02L259.02,50.19L265.78,59.09L272.32,79.01L279.08,89.28L285.62,74.41L299.14,105.07L305.24,86.68L312,75.95L318.54,42.22L325.3,28.73L331.84,20.76L338.6,13.1L345.36,20.76L351.9,31.34L358.66,43.76L365.2,28.43L371.96,33.03L378.72,56.02L385.04,65.22L391.8,47.44L398.34,74.41L405.1,69.82L411.64,56.63L425.16,112.73L431.7,120.4L438.46,143.39L445,153.66" style="vector-effect: none; fill: none; stroke: rgb(158, 47, 127); stroke-opacity: 1; stroke-dasharray: 9px, 3px, 3px, 3px; stroke-width: 2px; opacity: 1;"/></g><g class="points"/><g class="text"/></g></g></g><g class="overplot"/><path class="xlines-above crisp" d="M62,292.5H508" style="fill: none; stroke-width: 1px; stroke: rgb(36, 36, 36); stroke-opacity: 1;"/><path class="ylines-above crisp" d="M62.5,30V292" style="fill: none; stroke-width: 1px; stroke: rgb(36, 36, 36); stroke-opacity: 1;"/><g class="overlines-above"/><g class="xaxislayer-above"><path class="xtick ticks crisp" d="M0,293v5" transform="translate(116.64,0)" style="stroke: rgb(68, 68, 68); stroke-opacity: 1; stroke-width: 1px;"/><path class="xtick ticks crisp" d="M0,293v5" transform="translate(196.43,0)" style="stroke: rgb(68, 68, 68); stroke-opacity: 1; stroke-width: 1px;"/><path class="xtick ticks crisp" d="M0,293v5" transform="translate(276.02,0)" style="stroke: rgb(68, 68, 68); stroke-opacity: 1; stroke-width: 1px;"/><path class="xtick ticks crisp" d="M0,293v5" transform="translate(355.6,0)" style="stroke: rgb(68, 68, 68); stroke-opacity: 1; stroke-width: 1px;"/><path class="xtick ticks crisp" d="M0,293v5" transform="translate(435.18,0)" style="stroke: rgb(68, 68, 68); stroke-opacity: 1; stroke-width: 1px;"/><g class="xtick"><text text-anchor="middle" x="0" y="312.4" transform="translate(116.64,0)" style="font-family: 'Open Sans', verdana, arial, sans-serif; font-size: 12px; fill: rgb(36, 36, 36); fill-opacity: 1; white-space: pre; opacity: 1;">2004</text></g><g class="xtick"><text text-anchor="middle" x="0" y="312.4" style="font-family: 'Open Sans', verdana, arial, sans-serif; font-size: 12px; fill: rgb(36, 36, 36); fill-opacity: 1; white-space: pre; opacity: 1;" transform="translate(196.43,0)">2005</text></g><g class="xtick"><text text-anchor="middle" x="0" y="312.4" style="font-family: 'Open Sans', verdana, arial, sans-serif; font-size: 12px; fill: rgb(36, 36, 36); fill-opacity: 1; white-space: pre; opacity: 1;" transform="translate(276.02,0)">2006</text></g><g class="xtick"><text text-anchor="middle" x="0" y="312.4" style="font-family: 'Open Sans', verdana, arial, sans-serif; font-size: 12px; fill: rgb(36, 36, 36); fill-opacity: 1; white-space: pre; opacity: 1;" transform="translate(355.6,0)">2007</text></g><g class="xtick"><text text-anchor="middle" x="0" y="312.4" style="font-family: 'Open Sans', verdana, arial, sans-serif; font-size: 12px; fill: rgb(36, 36, 36); fill-opacity: 1; white-space: pre; opacity: 1;" transform="translate(435.18,0)">2008</text></g></g><g class="yaxislayer-above"><path class="ytick ticks crisp" d="M62,0h-5" transform="translate(0,248.62)" style="stroke: rgb(68, 68, 68); stroke-opacity: 1; stroke-width: 1px;"/><path class="ytick ticks crisp" d="M62,0h-5" transform="translate(0,200.37)" style="stroke: rgb(68, 68, 68); stroke-opacity: 1; stroke-width: 1px;"/><path class="ytick ticks crisp" d="M62,0h-5" transform="translate(0,152.12)" style="stroke: rgb(68, 68, 68); stroke-opacity: 1; stroke-width: 1px;"/><path class="ytick ticks crisp" d="M62,0h-5" transform="translate(0,103.86)" style="stroke: rgb(68, 68, 68); stroke-opacity: 1; stroke-width: 1px;"/><path class="ytick ticks crisp" d="M62,0h-5" transform="translate(0,55.61)" style="stroke: rgb(68, 68, 68); stroke-opacity: 1; stroke-width: 1px;"/><g class="ytick"><text text-anchor="end" x="54.6" y="4.199999999999999" transform="translate(0,248.62)" style="font-family: 'Open Sans', verdana, arial, sans-serif; font-size: 12px; fill: rgb(36, 36, 36); fill-opacity: 1; white-space: pre; opacity: 1;">0.8</text></g><g class="ytick"><text text-anchor="end" x="54.6" y="4.199999999999999" style="font-family: 'Open Sans', verdana, arial, sans-serif; font-size: 12px; fill: rgb(36, 36, 36); fill-opacity: 1; white-space: pre; opacity: 1;" transform="translate(0,200.37)">1</text></g><g class="ytick"><text text-anchor="end" x="54.6" y="4.199999999999999" style="font-family: 'Open Sans', verdana, arial, sans-serif; font-size: 12px; fill: rgb(36, 36, 36); fill-opacity: 1; white-space: pre; opacity: 1;" transform="translate(0,152.12)">1.2</text></g><g class="ytick"><text text-anchor="end" x="54.6" y="4.199999999999999" style="font-family: 'Open Sans', verdana, arial, sans-serif; font-size: 12px; fill: rgb(36, 36, 36); fill-opacity: 1; white-space: pre; opacity: 1;" transform="translate(0,103.86)">1.4</text></g><g class="ytick"><text text-anchor="end" x="54.6" y="4.199999999999999" style="font-family: 'Open Sans', verdana, arial, sans-serif; font-size: 12px; fill: rgb(36, 36, 36); fill-opacity: 1; white-space: pre; opacity: 1;" transform="translate(0,55.61)">1.6</text></g></g><g class="overaxes-above"/></g></g><g class="polarlayer"/><g class="smithlayer"/><g class="ternarylayer"/><g class="geolayer"/><g class="funnelarealayer"/><g class="pielayer"/><g class="iciclelayer"/><g class="treemaplayer"/><g class="sunburstlayer"/><g class="glimages"/><defs id="topdefs-13c155"><g class="clips"/><clipPath id="legend13c155"><rect width="73" height="124" x="0" y="0"/></clipPath></defs><g class="layer-above"><g class="imagelayer"/><g class="shapelayer"/></g><g class="infolayer"><g class="legend" pointer-events="all" transform="translate(516.9000000000001,30)"><rect class="bg" shape-rendering="crispEdges" style="stroke: rgb(68, 68, 68); stroke-opacity: 1; fill: rgb(255, 255, 255); fill-opacity: 1; stroke-width: 0px;" width="73" height="124" x="0" y="0"/><g class="scrollbox" transform="" clip-path="url(#legend13c155)"><text class="legendtitletext" text-anchor="start" x="2" y="18.2" style="font-family: 'Open Sans', verdana, arial, sans-serif; font-size: 14px; fill: rgb(36, 36, 36); fill-opacity: 1; white-space: pre;">Percentile</text><g class="groups" transform=""><g class="traces" transform="translate(0,32.7)" style="opacity: 1;"><text class="legendtext" text-anchor="start" x="40" y="4.680000000000001" style="font-family: 'Open Sans', verdana, arial, sans-serif; font-size: 12px; fill: rgb(36, 36, 36); fill-opacity: 1; white-space: pre;">10</text><g class="layers" style="opacity: 1;"><g class="legendfill"/><g class="legendlines"><path class="js-line" d="M5,0h30" style="fill: none; stroke: rgb(0, 0, 4); stroke-opacity: 1; stroke-width: 2px;"/></g><g class="legendsymbols"><g class="legendpoints"/></g></g><rect class="legendtoggle" x="0" y="-9.5" width="55.265625" height="19" style="fill: rgb(0, 0, 0); fill-opacity: 0;"/></g></g><g class="groups" transform=""><g class="traces" transform="translate(0,51.7)" style="opacity: 1;"><text class="legendtext" text-anchor="start" x="40" y="4.680000000000001" style="font-family: 'Open Sans', verdana, arial, sans-serif; font-size: 12px; fill: rgb(36, 36, 36); fill-opacity: 1; white-space: pre;">30</text><g class="layers" style="opacity: 1;"><g class="legendfill"/><g class="legendlines"><path class="js-line" d="M5,0h30" style="fill: none; stroke: rgb(24, 15, 61); stroke-opacity: 1; stroke-dasharray: 3px, 3px; stroke-width: 2px;"/></g><g class="legendsymbols"><g class="legendpoints"/></g></g><rect class="legendtoggle" x="0" y="-9.5" width="55.265625" height="19" style="fill: rgb(0, 0, 0); fill-opacity: 0;"/></g></g><g class="groups" transform=""><g class="traces" transform="translate(0,70.7)" style="opacity: 1;"><text class="legendtext" text-anchor="start" x="40" y="4.680000000000001" style="font-family: 'Open Sans', verdana, arial, sans-serif; font-size: 12px; fill: rgb(36, 36, 36); fill-opacity: 1; white-space: pre;">50</text><g class="layers" style="opacity: 1;"><g class="legendfill"/><g class="legendlines"><path class="js-line" d="M5,0h30" style="fill: none; stroke: rgb(68, 15, 118); stroke-opacity: 1; stroke-dasharray: 9px, 9px; stroke-width: 2px;"/></g><g class="legendsymbols"><g class="legendpoints"/></g></g><rect class="legendtoggle" x="0" y="-9.5" width="55.265625" height="19" style="fill: rgb(0, 0, 0); fill-opacity: 0;"/></g></g><g class="groups" transform=""><g class="traces" transform="translate(0,89.7)" style="opacity: 1;"><text class="legendtext" text-anchor="start" x="40" y="4.680000000000001" style="font-family: 'Open Sans', verdana, arial, sans-serif; font-size: 12px; fill: rgb(36, 36, 36); fill-opacity: 1; white-space: pre;">70</text><g class="layers" style="opacity: 1;"><g class="legendfill"/><g class="legendlines"><path class="js-line" d="M5,0h30" style="fill: none; stroke: rgb(114, 31, 129); stroke-opacity: 1; stroke-dasharray: 15px, 15px; stroke-width: 2px;"/></g><g class="legendsymbols"><g class="legendpoints"/></g></g><rect class="legendtoggle" x="0" y="-9.5" width="55.265625" height="19" style="fill: rgb(0, 0, 0); fill-opacity: 0;"/></g></g><g class="groups" transform=""><g class="traces" transform="translate(0,108.7)" style="opacity: 1;"><text class="legendtext" text-anchor="start" x="40" y="4.680000000000001" style="font-family: 'Open Sans', verdana, arial, sans-serif; font-size: 12px; fill: rgb(36, 36, 36); fill-opacity: 1; white-space: pre;">90</text><g class="layers" style="opacity: 1;"><g class="legendfill"/><g class="legendlines"><path class="js-line" d="M5,0h30" style="fill: none; stroke: rgb(158, 47, 127); stroke-opacity: 1; stroke-dasharray: 9px, 3px, 3px, 3px; stroke-width: 2px;"/></g><g class="legendsymbols"><g class="legendpoints"/></g></g><rect class="legendtoggle" x="0" y="-9.5" width="55.265625" height="19" style="fill: rgb(0, 0, 0); fill-opacity: 0;"/></g></g></g><rect class="scrollbar" rx="20" ry="3" width="0" height="0" style="fill: rgb(128, 139, 164); fill-opacity: 1;" x="0" y="0"/></g><g class="g-gtitle"><text class="gtitle" x="300" y="15" text-anchor="middle" dy="0em" style="font-family: 'Open Sans', verdana, arial, sans-serif; font-size: 17px; fill: rgb(36, 36, 36); opacity: 1; font-weight: normal; white-space: pre;">San Francisco sale prices, inflation-adjusted</text></g><g class="g-xtitle"/><g class="g-ytitle" transform="translate(3.3310546875,0)"><text class="ytitle" transform="rotate(-90,10.668750000000003,161)" x="10.668750000000003" y="161" text-anchor="middle" style="font-family: 'Open Sans', verdana, arial, sans-serif; font-size: 14px; fill: rgb(36, 36, 36); opacity: 1; font-weight: normal; white-space: pre;">Sale price relative to 2003</text></g></g></svg>