<svg class="main-svg" xmlns="http://www.w3.org/2000/svg" xmlns:xlink="http://www.w3.org/1999/xlink" width="350" height="250" style="" viewBox="0 0 350 250"><rect x="0" y="0" width="350" height="250" style="fill: rgb(255, 255, 255); fill-opacity: 1;"/><defs id="defs-f007ed"><g class="clips"><clipPath id="clipf007edxyplot" class="plotclip"><rect width="277" height="151.3512"/></clipPath><clipPath id="clipf007edx2y2plot" class="plotclip"><rect width="277" height="28.828799999999998"/></clipPath><clipPath class="axesclip" id="clipf007edx"><rect x="63" y="0" width="277" height="250"/></clipPath><clipPath class="axesclip" id="clipf007edy"><rect x="0" y="40.648799999999994" width="350" height="151.3512"/></clipPath><clipPath class="axesclip" id="clipf007edxy"><rect x="63" y="40.648799999999994" width="277" height="151.3512"/></clipPath><clipPath class="axesclip" id="clipf007edy2"><rect x="0" y="10" width="350" height="28.828799999999998"/></clipPath><clipPath class="axesclip" id="clipf007edxy2"><rect x="63" y="10" width="277" height="28.828799999999998"/></clipPath><clipPath class="axesclip" id="clipf007edx2"><rect x="63" y="0" width="277" height="250"/></clipPath><clipPath class="axesclip" id="clipf007edx2y"><rect x="63" y="40.648799999999994" width="277" height="151.3512"/></clipPath><clipPath class="axesclip" id="clipf007edx2y2"><rect x="63" y="10" width="277" height="28.828799999999998"/></clipPath></g><g class="gradients"/><g class="patterns"/></defs><g class="bglayer"/><g class="layer-below"><g class="imagelayer"/><g class="shapelayer"/></g><g class="cartesianlayer"><g class="subplot xy"><g class="layer-subplot"><g class="shapelayer"/><g class="imagelayer"/></g><g class="minor-gridlayer"><g class="x"/><g class="y"/></g><g class="gridlayer"><g class="x"><path class="xgrid crisp" transform="translate(164.1,0)" d="M0,40.648799999999994v151.3512" style="stroke: rgb(232, 232, 232); stroke-opacity: 1; stroke-width: 1px;"/><path class="xgrid crisp" transform="translate(288.75,0)" d="M0,40.648799999999994v151.3512" style="stroke: rgb(232, 232, 232); stroke-opacity: 1; stroke-width: 1px;"/></g><g class="y"><path class="ygrid crisp" transform="translate(0,185.2688)" d="M63,0h277" style="stroke: rgb(232, 232, 232); stroke-opacity: 1; stroke-width: 1px;"/><path class="ygrid crisp" transform="translate(0,139.93880000000001)" d="M63,0h277" style="stroke: rgb(232, 232, 232); stroke-opacity: 1; stroke-width: 1px;"/><path class="ygrid crisp" transform="translate(0,94.5988)" d="M63,0h277" style="stroke: rgb(232, 232, 232); stroke-opacity: 1; stroke-width: 1px;"/><path class="ygrid crisp" transform="translate(0,49.26879999999999)" d="M63,0h277" style="stroke: rgb(232, 232, 232); stroke-opacity: 1; stroke-width: 1px;"/></g></g><g class="zerolinelayer"/><path class="xlines-below"/><path class="ylines-below"/><g class="overlines-below"/><g class="xaxislayer-below"/><g class="yaxislayer-below"/><g class="overaxes-below"/><g class="plot" transform="translate(63,40.648799999999994)" clip-path="url(#clipf007edxyplot)"><g class="barlayer mlayer"><g class="trace bars" style="opacity: 1;"><g class="points"><g class="point"><path d="M1.38,144.62V123.53H26.31V144.62Z" style="vector-effect: none; opacity: 1; stroke-width: 1px; fill: rgb(76, 114, 176); fill-opacity: 0.3; stroke: rgb(0, 0, 0); stroke-opacity: 1;"/></g><g class="point"><path d="M26.31,144.62V123.53H51.24V144.62Z" style="vector-effect: none; opacity: 1; stroke-width: 1px; fill: rgb(76, 114, 176); fill-opacity: 0.3; stroke: rgb(0, 0, 0); stroke-opacity: 1;"/></g><g class="point"><path d="M0,0Z" style="vector-effect: none; opacity: 1; stroke-width: 0px; fill: rgb(76, 114, 176); fill-opacity: 0.3; stroke: rgb(0, 0, 0); stroke-opacity: 1;"/></g><g class="point"><path d="M76.17,144.62V91.91H101.1V144.62Z" style="vector-effect: none; opacity: 1; stroke-width: 1px; fill: rgb(76, 114, 176); fill-opacity: 0.3; stroke: rgb(0, 0, 0); stroke-opacity: 1;"/></g><g class="point"><path d="M101.1,144.62V81.36H126.03V144.62Z" style="vector-effect: none; opacity: 1; stroke-width: 1px; fill: rgb(76, 114, 176); fill-opacity: 0.3; stroke: rgb(0, 0, 0); stroke-opacity: 1;"/></g><g class="point"><path d="M126.03,144.62V60.28H150.96V144.62Z" style="vector-effect: none; opacity: 1; stroke-width: 1px; fill: rgb(76, 114, 176); fill-opacity: 0.3; stroke: rgb(0, 0, 0); stroke-opacity: 1;"/></g><g class="point"><path d="M150.96,144.62V7.57H175.9V144.62Z" style="vector-effect: none; opacity: 1; stroke-width: 1px; fill: rgb(76, 114, 176); fill-opacity: 0.3; stroke: rgb(0, 0, 0); stroke-opacity: 1;"/></g><g class="point"><path d="M175.9,144.62V91.91H200.82V144.62Z" style="vector-effect: none; opacity: 1; stroke-width: 1px; fill: rgb(76, 114, 176); fill-opacity: 0.3; stroke: rgb(0, 0, 0); stroke-opacity: 1;"/></g><g class="point"><path d="M200.82,144.62V134.07H225.75V144.62Z" style="vector-effect: none; opacity: 1; stroke-width: 1px; fill: rgb(76, 114, 176); fill-opacity: 0.3; stroke: rgb(0, 0, 0); stroke-opacity: 1;"/></g><g class="point"><path d="M0,0Z" style="vector-effect: none; opacity: 1; stroke-width: 0px; fill: rgb(76, 114, 176); fill-opacity: 0.3; stroke: rgb(0, 0, 0); stroke-opacity: 1;"/></g><g class="point"><path d="M250.68,144.62V134.07H275.61V144.62Z" style="vector-effect: none; opacity: 1; stroke-width: 1px; fill: rgb(76, 114, 176); fill-opacity: 0.3; stroke: rgb(0, 0, 0); stroke-opacity: 1;"/></g></g></g></g><g class="scatterlayer mlayer"><g class="trace scatter tracef7dac0" style="stroke-miterlimit: 2; opacity: 1;"><g class="fills"/><g class="errorbars"/><g class="lines"><path class="js-line" d="M13.85,125.39L18.89,123.9L21.4,124.24L28.96,126.1L31.48,126.01L41.55,123.53L44.07,123.94L49.1,127.07L51.62,129.35L56.66,133.22L59.18,133.87L61.7,133.17L64.21,130.9L66.73,127.04L69.25,121.78L79.32,96.57L81.84,92.12L84.36,89.08L86.88,87.34L91.91,86.35L94.43,86.34L104.5,87.22L107.02,87.98L114.58,89.78L117.1,89.42L122.13,86.54L124.65,84.01L129.69,76.71L132.2,71.77L137.24,58.8L139.76,50.77L149.83,16.31L152.35,10.58L154.87,7.58L157.39,7.8L159.9,11.4L162.42,18.12L167.46,38.09L169.98,49.46L175.01,70.56L177.53,79.18L182.57,91.64L185.09,95.71L190.12,100.97L192.64,102.88L200.2,109.47L202.71,112.43L220.34,135.7L222.86,138.1L227.9,141.57L230.41,142.65L235.45,143.71L237.97,143.78L243,143.07L245.52,142.27L253.08,138.3L255.6,136.8L260.63,134.64L263.15,134.33" style="vector-effect: none; fill: none; stroke: rgb(76, 114, 176); stroke-opacity: 1; stroke-width: 2px; opacity: 1;"/></g><g class="points"/><g class="text"/></g></g></g><g class="overplot"/><path class="xlines-above crisp" d="M62,192.5H340" style="fill: none; stroke-width: 1px; stroke: rgb(36, 36, 36); stroke-opacity: 1;"/><path class="ylines-above crisp" d="M62.5,40.648799999999994V192" style="fill: none; stroke-width: 1px; stroke: rgb(36, 36, 36); stroke-opacity: 1;"/><g class="overlines-above"/><g class="xaxislayer-above"><path class="xtick ticks crisp" d="M0,193v5" transform="translate(164.1,0)" style="stroke: rgb(68, 68, 68); stroke-opacity: 1; stroke-width: 1px;"/><path class="xtick ticks crisp" d="M0,193v5" transform="translate(288.75,0)" style="stroke: rgb(68, 68, 68); stroke-opacity: 1; stroke-width: 1px;"/><g class="xtick"><text text-anchor="middle" x="0" y="212.4" transform="translate(164.1,0)" style="font-family: 'Open Sans', verdana, arial, sans-serif; font-size: 12px; fill: rgb(36, 36, 36); fill-opacity: 1; white-space: pre; opacity: 1;">10</text></g><g class="xtick"><text text-anchor="middle" x="0" y="212.4" style="font-family: 'Open Sans', verdana, arial, sans-serif; font-size: 12px; fill: rgb(36, 36, 36); fill-opacity: 1; white-space: pre; opacity: 1;" transform="translate(288.75,0)">15</text></g></g><g class="yaxislayer-above"><path class="ytick ticks crisp" d="M62,0h-5" transform="translate(0,185.2688)" style="stroke: rgb(68, 68, 68); stroke-opacity: 1; stroke-width: 1px;"/><path class="ytick ticks crisp" d="M62,0h-5" transform="translate(0,139.93880000000001)" style="stroke: rgb(68, 68, 68); stroke-opacity: 1; stroke-width: 1px;"/><path class="ytick ticks crisp" d="M62,0h-5" transform="translate(0,94.5988)" style="stroke: rgb(68, 68, 68); stroke-opacity: 1; stroke-width: 1px;"/><path class="ytick ticks crisp" d="M62,0h-5" transform="translate(0,49.26879999999999)" style="stroke: rgb(68, 68, 68); stroke-opacity: 1; stroke-width: 1px;"/><g class="ytick"><text text-anchor="end" x="54.6" y="4.199999999999999" transform="translate(0,185.2688)" style="font-family: 'Open Sans', verdana, arial, sans-serif; font-size: 12px; fill: rgb(36, 36, 36); fill-opacity: 1; white-space: pre; opacity: 1;">0</text></g><g class="ytick"><text text-anchor="end" x="54.6" y="4.199999999999999" style="font-family: 'Open Sans', verdana, arial, sans-serif; font-size: 12px; fill: rgb(36, 36, 36); fill-opacity: 1; white-space: pre; opacity: 1;" transform="translate(0,139.93880000000001)">0.1</text></g><g class="ytick"><text text-anchor="end" x="54.6" y="4.199999999999999" style="font-family: 'Open Sans', verdana, arial, sans-serif; font-size: 12px; fill: rgb(36, 36, 36); fill-opacity: 1; white-space: pre; opacity: 1;" transform="translate(0,94.5988)">0.2</text></g><g class="ytick"><text text-anchor="end" x="54.6" y="4.199999999999999" style="font-family: 'Open Sans', verdana, arial, sans-serif; font-size: 12px; fill: rgb(36, 36, 36); fill-opacity: 1; white-space: pre; opacity: 1;" transform="translate(0,49.26879999999999)">0.3</text></g></g><g class="overaxes-above"/></g><g class="subplot x2y2"><g class="layer-subplot"><g class="shapelayer"/><g class="imagelayer"/></g><g class="minor-gridlayer"><g class="x2"/><g class="y2"/></g><g class="gridlayer"><g class="x2"><path class="x2grid crisp" transform="translate(164.1,0)" d="M0,10v28.828799999999998" style="stroke: rgb(232, 232, 232); stroke-opacity: 1; stroke-width: 1px;"/><path class="x2grid crisp" transform="translate(288.75,0)" d="M0,10v28.828799999999998" style="stroke: rgb(232, 232, 232); stroke-opacity: 1; stroke-width: 1px;"/></g><g class="y2"><path class="y2grid crisp" transform="translate(0,22.91)" d="M63,0h277" style="stroke: rgb(232, 232, 232); stroke-opacity: 1; stroke-width: 1px;"/></g></g><g class="zerolinelayer"/><path class="xlines-below"/><path class="ylines-below"/><g class="overlines-below"/><g class="xaxislayer-below"/><g class="yaxislayer-below"/><g class="overaxes-below"/><g class="plot" transform="translate(63,10)" clip-path="url(#clipf007edx2y2plot)"><g class="boxlayer mlayer"><g class="trace boxes" style="opacity: 1;"><path class="box" d="M146.23,19.24V6.59M101.73,19.24V6.59H163.99V19.24ZM101.73,12.91H13.85M163.99,12.91H211.3M13.85,16.08V9.75M211.3,16.08V9.75" style="vector-effect: none; stroke-width: 2px; stroke: rgb(255, 255, 255); stroke-opacity: 0; fill: rgb(255, 255, 255); fill-opacity: 0;"/><g class="points"><path class="point" transform="translate(13.85,22.41)" d="M0,4.2V-4.2" style="opacity: 1; stroke: rgb(31, 119, 180); stroke-opacity: 1; stroke-width: 1px; fill: none;"/><path class="point" transform="translate(20.08,22.41)" d="M0,4.2V-4.2" style="opacity: 1; stroke: rgb(31, 119, 180); stroke-opacity: 1; stroke-width: 1px; fill: none;"/><path class="point" transform="translate(40.53,22.41)" d="M0,4.2V-4.2" style="opacity: 1; stroke: rgb(31, 119, 180); stroke-opacity: 1; stroke-width: 1px; fill: none;"/><path class="point" transform="translate(45.76,22.41)" d="M0,4.2V-4.2" style="opacity: 1; stroke: rgb(31, 119, 180); stroke-opacity: 1; stroke-width: 1px; fill: none;"/><path class="point" transform="translate(78.17,22.41)" d="M0,4.2V-4.2" style="opacity: 1; stroke: rgb(31, 119, 180); stroke-opacity: 1; stroke-width: 1px; fill: none;"/><path class="point" transform="translate(78.67,22.41)" d="M0,4.2V-4.2" style="opacity: 1; stroke: rgb(31, 119, 180); stroke-opacity: 1; stroke-width: 1px; fill: none;"/><path class="point" transform="translate(84.15,22.41)" d="M0,4.2V-4.2" style="opacity: 1; stroke: rgb(31, 119, 180); stroke-opacity: 1; stroke-width: 1px; fill: none;"/><path class="point" transform="translate(86.15,22.41)" d="M0,4.2V-4.2" style="opacity: 1; stroke: rgb(31, 119, 180); stroke-opacity: 1; stroke-width: 1px; fill: none;"/><path class="point" transform="translate(88.14,22.41)" d="M0,4.2V-4.2" style="opacity: 1; stroke: rgb(31, 119, 180); stroke-opacity: 1; stroke-width: 1px; fill: none;"/><path class="point" transform="translate(101.1,22.41)" d="M0,4.2V-4.2" style="opacity: 1; stroke: rgb(31, 119, 180); stroke-opacity: 1; stroke-width: 1px; fill: none;"/><path class="point" transform="translate(101.1,22.41)" d="M0,4.2V-4.2" style="opacity: 1; stroke: rgb(31, 119, 180); stroke-opacity: 1; stroke-width: 1px; fill: none;"/><path class="point" transform="translate(103.6,22.41)" d="M0,4.2V-4.2" style="opacity: 1; stroke: rgb(31, 119, 180); stroke-opacity: 1; stroke-width: 1px; fill: none;"/><path class="point" transform="translate(106.34,22.41)" d="M0,4.2V-4.2" style="opacity: 1; stroke: rgb(31, 119, 180); stroke-opacity: 1; stroke-width: 1px; fill: none;"/><path class="point" transform="translate(117.81,22.41)" d="M0,4.2V-4.2" style="opacity: 1; stroke: rgb(31, 119, 180); stroke-opacity: 1; stroke-width: 1px; fill: none;"/><path class="point" transform="translate(118.31,22.41)" d="M0,4.2V-4.2" style="opacity: 1; stroke: rgb(31, 119, 180); stroke-opacity: 1; stroke-width: 1px; fill: none;"/><path class="point" transform="translate(126.03,22.41)" d="M0,4.2V-4.2" style="opacity: 1; stroke: rgb(31, 119, 180); stroke-opacity: 1; stroke-width: 1px; fill: none;"/><path class="point" transform="translate(128.53,22.41)" d="M0,4.2V-4.2" style="opacity: 1; stroke: rgb(31, 119, 180); stroke-opacity: 1; stroke-width: 1px; fill: none;"/><path class="point" transform="translate(133.26,22.41)" d="M0,4.2V-4.2" style="opacity: 1; stroke: rgb(31, 119, 180); stroke-opacity: 1; stroke-width: 1px; fill: none;"/><path class="point" transform="translate(137.5,22.41)" d="M0,4.2V-4.2" style="opacity: 1; stroke: rgb(31, 119, 180); stroke-opacity: 1; stroke-width: 1px; fill: none;"/><path class="point" transform="translate(141.74,22.41)" d="M0,4.2V-4.2" style="opacity: 1; stroke: rgb(31, 119, 180); stroke-opacity: 1; stroke-width: 1px; fill: none;"/><path class="point" transform="translate(142.49,22.41)" d="M0,4.2V-4.2" style="opacity: 1; stroke: rgb(31, 119, 180); stroke-opacity: 1; stroke-width: 1px; fill: none;"/><path class="point" transform="translate(146.23,22.41)" d="M0,4.2V-4.2" style="opacity: 1; stroke: rgb(31, 119, 180); stroke-opacity: 1; stroke-width: 1px; fill: none;"/><path class="point" transform="translate(148.97,22.41)" d="M0,4.2V-4.2" style="opacity: 1; stroke: rgb(31, 119, 180); stroke-opacity: 1; stroke-width: 1px; fill: none;"/><path class="point" transform="translate(151.96,22.41)" d="M0,4.2V-4.2" style="opacity: 1; stroke: rgb(31, 119, 180); stroke-opacity: 1; stroke-width: 1px; fill: none;"/><path class="point" transform="translate(151.96,22.41)" d="M0,4.2V-4.2" style="opacity: 1; stroke: rgb(31, 119, 180); stroke-opacity: 1; stroke-width: 1px; fill: none;"/><path class="point" transform="translate(152.21,22.41)" d="M0,4.2V-4.2" style="opacity: 1; stroke: rgb(31, 119, 180); stroke-opacity: 1; stroke-width: 1px; fill: none;"/><path class="point" transform="translate(155.2,22.41)" d="M0,4.2V-4.2" style="opacity: 1; stroke: rgb(31, 119, 180); stroke-opacity: 1; stroke-width: 1px; fill: none;"/><path class="point" transform="translate(157.2,22.41)" d="M0,4.2V-4.2" style="opacity: 1; stroke: rgb(31, 119, 180); stroke-opacity: 1; stroke-width: 1px; fill: none;"/><path class="point" transform="translate(157.2,22.41)" d="M0,4.2V-4.2" style="opacity: 1; stroke: rgb(31, 119, 180); stroke-opacity: 1; stroke-width: 1px; fill: none;"/><path class="point" transform="translate(158.69,22.41)" d="M0,4.2V-4.2" style="opacity: 1; stroke: rgb(31, 119, 180); stroke-opacity: 1; stroke-width: 1px; fill: none;"/><path class="point" transform="translate(161.44,22.41)" d="M0,4.2V-4.2" style="opacity: 1; stroke: rgb(31, 119, 180); stroke-opacity: 1; stroke-width: 1px; fill: none;"/><path class="point" transform="translate(163.43,22.41)" d="M0,4.2V-4.2" style="opacity: 1; stroke: rgb(31, 119, 180); stroke-opacity: 1; stroke-width: 1px; fill: none;"/><path class="point" transform="translate(164.18,22.41)" d="M0,4.2V-4.2" style="opacity: 1; stroke: rgb(31, 119, 180); stroke-opacity: 1; stroke-width: 1px; fill: none;"/><path class="point" transform="translate(164.43,22.41)" d="M0,4.2V-4.2" style="opacity: 1; stroke: rgb(31, 119, 180); stroke-opacity: 1; stroke-width: 1px; fill: none;"/><path class="point" transform="translate(165.42,22.41)" d="M0,4.2V-4.2" style="opacity: 1; stroke: rgb(31, 119, 180); stroke-opacity: 1; stroke-width: 1px; fill: none;"/><path class="point" transform="translate(173.9,22.41)" d="M0,4.2V-4.2" style="opacity: 1; stroke: rgb(31, 119, 180); stroke-opacity: 1; stroke-width: 1px; fill: none;"/><path class="point" transform="translate(177.64,22.41)" d="M0,4.2V-4.2" style="opacity: 1; stroke: rgb(31, 119, 180); stroke-opacity: 1; stroke-width: 1px; fill: none;"/><path class="point" transform="translate(180.88,22.41)" d="M0,4.2V-4.2" style="opacity: 1; stroke: rgb(31, 119, 180); stroke-opacity: 1; stroke-width: 1px; fill: none;"/><path class="point" transform="translate(190.35,22.41)" d="M0,4.2V-4.2" style="opacity: 1; stroke: rgb(31, 119, 180); stroke-opacity: 1; stroke-width: 1px; fill: none;"/><path class="point" transform="translate(196.84,22.41)" d="M0,4.2V-4.2" style="opacity: 1; stroke: rgb(31, 119, 180); stroke-opacity: 1; stroke-width: 1px; fill: none;"/><path class="point" transform="translate(198.83,22.41)" d="M0,4.2V-4.2" style="opacity: 1; stroke: rgb(31, 119, 180); stroke-opacity: 1; stroke-width: 1px; fill: none;"/><path class="point" transform="translate(211.3,22.41)" d="M0,4.2V-4.2" style="opacity: 1; stroke: rgb(31, 119, 180); stroke-opacity: 1; stroke-width: 1px; fill: none;"/><path class="point" transform="translate(263.15,22.41)" d="M0,4.2V-4.2" style="opacity: 1; stroke: rgb(31, 119, 180); stroke-opacity: 1; stroke-width: 1px; fill: none;"/></g></g></g></g><g class="overplot"/><path class="xlines-above crisp" d="M63,39.3288H340" style="fill: none; stroke-width: 1px; stroke: rgb(36, 36, 36); stroke-opacity: 1;"/><path class="ylines-above crisp" d="M0,0" style="fill: none;"/><g class="overlines-above"/><g class="xaxislayer-above"><path class="x2tick ticks crisp" d="M0,39.8288v5" transform="translate(164.1,0)" style="stroke: rgb(68, 68, 68); stroke-opacity: 1; stroke-width: 1px;"/><path class="x2tick ticks crisp" d="M0,39.8288v5" transform="translate(288.75,0)" style="stroke: rgb(68, 68, 68); stroke-opacity: 1; stroke-width: 1px;"/></g><g class="yaxislayer-above"/><g class="overaxes-above"/></g></g><g class="polarlayer"/><g class="smithlayer"/><g class="ternarylayer"/><g class="geolayer"/><g class="funnelarealayer"/><g class="pielayer"/><g class="iciclelayer"/><g class="treemaplayer"/><g class="sunburstlayer"/><g class="glimages"/><defs id="topdefs-f007ed"><g class="clips"/></defs><g class="layer-above"><g class="imagelayer"/><g class="shapelayer"/></g><g class="infolayer"><g class="g-gtitle"/><g class="g-xtitle"><text class="xtitle" x="201.5" y="239.20625" text-anchor="middle" style="font-family: 'Open Sans', verdana, arial, sans-serif; font-size: 14px; fill: rgb(36, 36, 36); opacity: 1; font-weight: normal; white-space: pre;">Lifespan (yr)</text></g><g class="g-x2title"/><g class="g-ytitle" transform="translate(3.3427734375,0)"><text class="ytitle" transform="rotate(-90,10.668750000000003,116.3244)" x="10.668750000000003" y="116.3244" text-anchor="middle" style="font-family: 'Open Sans', verdana, arial, sans-serif; font-size: 14px; fill: rgb(36, 36, 36); opacity: 1; font-weight: normal; white-space: pre;">probability density</text></g><g class="g-y2title"/></g></svg>