<svg class="main-svg" xmlns="http://www.w3.org/2000/svg" xmlns:xlink="http://www.w3.org/1999/xlink" width="600" height="350" style="" viewBox="0 0 600 350"><rect x="0" y="0" width="600" height="350" style="fill: rgb(255, 255, 255); fill-opacity: 1;"/><defs id="defs-4cf3f7"><g class="clips"><clipPath id="clip4cf3f7xyplot" class="plotclip"><rect width="451" height="261"/></clipPath><clipPath class="axesclip" id="clip4cf3f7x"><rect x="60" y="0" width="451" height="350"/></clipPath><clipPath class="axesclip" id="clip4cf3f7y"><rect x="0" y="30" width="600" height="261"/></clipPath><clipPath class="axesclip" id="clip4cf3f7xy"><rect x="60" y="30" width="451" height="261"/></clipPath></g><g class="gradients"/><g class="patterns"/></defs><g class="bglayer"/><g class="layer-below"><g class="imagelayer"/><g class="shapelayer"/></g><g class="cartesianlayer"><g class="subplot xy"><g class="layer-subplot"><g class="shapelayer"/><g class="imagelayer"/></g><g class="gridlayer"><g class="x"><path class="xgrid crisp" transform="translate(114.36,0)" d="M0,30v261" style="stroke: rgb(232, 232, 232); stroke-opacity: 1; stroke-width: 1px;"/><path class="xgrid crisp" transform="translate(195.23,0)" d="M0,30v261" style="stroke: rgb(232, 232, 232); stroke-opacity: 1; stroke-width: 1px;"/><path class="xgrid crisp" transform="translate(275.89,0)" d="M0,30v261" style="stroke: rgb(232, 232, 232); stroke-opacity: 1; stroke-width: 1px;"/><path class="xgrid crisp" transform="translate(356.54,0)" d="M0,30v261" style="stroke: rgb(232, 232, 232); stroke-opacity: 1; stroke-width: 1px;"/><path class="xgrid crisp" transform="translate(437.2,0)" d="M0,30v261" style="stroke: rgb(232, 232, 232); stroke-opacity: 1; stroke-width: 1px;"/></g><g class="y"><path class="ygrid crisp" transform="translate(0,247.79)" d="M60,0h451" style="stroke: rgb(232, 232, 232); stroke-opacity: 1; stroke-width: 1px;"/><path class="ygrid crisp" transform="translate(0,199.72)" d="M60,0h451" style="stroke: rgb(232, 232, 232); stroke-opacity: 1; stroke-width: 1px;"/><path class="ygrid crisp" transform="translate(0,151.65)" d="M60,0h451" style="stroke: rgb(232, 232, 232); stroke-opacity: 1; stroke-width: 1px;"/><path class="ygrid crisp" transform="translate(0,103.58)" d="M60,0h451" style="stroke: rgb(232, 232, 232); stroke-opacity: 1; stroke-width: 1px;"/><path class="ygrid crisp" transform="translate(0,55.510000000000005)" d="M60,0h451" style="stroke: rgb(232, 232, 232); stroke-opacity: 1; stroke-width: 1px;"/></g></g><g class="zerolinelayer"/><path class="xlines-below"/><path class="ylines-below"/><g class="overlines-below"/><g class="xaxislayer-below"/><g class="yaxislayer-below"/><g class="overaxes-below"/><g class="plot" transform="translate(60,30)" clip-path="url(#clip4cf3f7xyplot)"><g class="scatterlayer mlayer"><g class="trace scatter tracedea62e" style="stroke-miterlimit: 2; opacity: 1;"><g class="fills"/><g class="errorbars"/><g class="lines"><path class="js-line" d="M0,169.72L13.48,160.29L20.33,162.65L27.18,151.81L33.81,151.81L40.66,152.28L47.29,146.16L54.14,146.16L60.99,141.44L67.4,149.93L74.25,146.16L80.88,140.5L87.73,127.3L94.35,120.71L101.2,117.88L108.05,115.52L114.68,110.34L121.53,108.45L128.16,103.74L135.01,99.03L141.86,99.03L148.05,103.74L154.9,94.32L161.53,84.89L168.38,70.75L175.01,61.33L181.86,56.61L188.71,51.9L195.34,35.88L202.19,37.76L208.82,37.76L215.67,47.19L222.52,45.3L228.7,47.19L235.55,47.66L242.18,51.9L249.03,41.06L255.66,41.53L262.51,43.42L269.36,37.76L275.99,42.48L282.84,42.48L289.47,43.42L296.32,40.12L303.17,33.99L309.36,56.61L316.21,56.61L322.84,47.19L329.69,47.19L336.32,47.19L343.17,37.76L350.02,47.19L356.65,63.21L363.5,81.59L370.12,80.18L383.83,109.4L390.23,127.3L397.08,155.58L403.71,174.43L410.56,183.86L417.19,198L424.04,203.65L430.89,222.5L437.52,240.41L444.37,247.95L451,247.48" style="vector-effect: non-scaling-stroke; fill: none; stroke: rgb(0, 0, 4); stroke-opacity: 1; stroke-width: 2px; opacity: 1;"/></g><g class="points"/><g class="text"/></g><g class="trace scatter trace7ba00e" style="stroke-miterlimit: 2; opacity: 1;"><g class="fills"/><g class="errorbars"/><g class="lines"><path class="js-line" d="M0,169.72L13.48,155.58L20.33,155.58L27.18,148.51L33.81,148.51L40.66,148.51L47.29,144.98L54.14,141.44L60.99,139.68L67.4,141.44L74.25,137.91L80.88,130.84L87.73,120.24L94.35,112.46L101.2,109.63L108.05,106.1L114.68,106.1L121.53,106.1L128.16,99.03L135.01,99.03L141.86,95.49L148.05,100.44L154.9,86.3L175.01,56.61L181.86,52.37L188.71,43.18L195.34,36.82L202.19,43.89L208.82,38.94L215.67,41.06L222.52,46.01L228.7,48.13L235.55,46.01L242.18,46.01L249.03,33.99L255.66,35.41L262.51,35.41L269.36,33.29L275.99,38.94L289.47,46.01L296.32,42.48L303.17,38.94L309.36,49.55L316.21,56.61L322.84,35.41L329.69,29.75L336.32,28.34L343.17,25.51L350.02,24.8L356.65,37.53L363.5,56.61L376.98,70.75L383.83,95.49L390.23,109.63L397.08,127.3L410.56,155.58L417.19,163.36L424.04,173.25L430.89,194.46L437.52,205.06L444.37,219.2L451,220.62" style="vector-effect: non-scaling-stroke; fill: none; stroke: rgb(24, 15, 61); stroke-opacity: 1; stroke-width: 2px; opacity: 1; stroke-dasharray: 3px, 3px;"/></g><g class="points"/><g class="text"/></g><g class="trace scatter trace3ffe86" style="stroke-miterlimit: 2; opacity: 1;"><g class="fills"/><g class="errorbars"/><g class="lines"><path class="js-line" d="M0,169.72L6.85,161.73L13.48,156.02L20.33,153.16L27.18,148.02L33.81,150.02L40.66,148.02L47.29,148.88L54.14,144.6L60.99,142.32L67.4,146.31L74.25,141.75L80.88,133.18L87.73,124.62L94.35,113.2L108.05,107.49L114.68,110.35L121.53,113.2L128.16,101.78L135.01,101.78L141.86,97.22L148.05,100.64L154.9,85.23L161.53,79.52L168.38,67.53L175.01,59.54L181.86,54.68L188.71,50.12L195.34,44.69L202.19,53.26L208.82,47.26L215.67,47.55L222.52,53.26L228.7,56.11L235.55,50.4L242.18,47.55L249.03,41.84L255.66,38.98L262.51,40.7L269.36,38.98L275.99,44.69L282.84,50.4L289.47,49.83L296.32,50.4L303.17,49.83L309.36,53.26L316.21,53.83L322.84,36.13L329.69,25.85L336.32,23L343.17,21.86L350.02,23.28L356.65,33.27L363.5,49.55L370.12,42.12L376.98,53.26L383.83,76.95L390.23,96.07L397.08,101.78L403.71,122.91L410.56,130.33L417.19,141.75L424.04,150.31L430.89,167.44L437.52,181.71L444.37,198.83L451,201.69" style="vector-effect: non-scaling-stroke; fill: none; stroke: rgb(68, 15, 118); stroke-opacity: 1; stroke-width: 2px; opacity: 1; stroke-dasharray: 9px, 9px;"/></g><g class="points"/><g class="text"/></g><g class="trace scatter trace2d0c0b" style="stroke-miterlimit: 2; opacity: 1;"><g class="fills"/><g class="errorbars"/><g class="lines"><path class="js-line" d="M0,169.72L6.85,163.88L13.48,162.98L20.33,156.24L27.18,151.75L40.66,154L47.29,156.69L54.14,151.75L60.99,149.5L67.4,151.75L74.25,147.71L80.88,140.52L87.73,129.29L94.35,121.2L101.2,118.06L108.05,118.06L114.68,120.3L121.53,125.69L128.16,115.81L135.01,113.56L141.86,112.44L148.05,115.14L154.9,96.94L168.38,77.62L175.01,77.62L188.71,67.96L195.34,67.74L202.19,75.15L208.82,73.13L215.67,69.99L222.52,74.48L228.7,75.38L235.55,71.11L242.18,69.76L249.03,61.9L255.66,57.86L262.51,59.65L269.36,59.65L275.99,67.51L282.84,70.88L289.47,70.88L296.32,73.13L303.17,76.72L309.36,77.62L316.21,73.13L322.84,53.14L329.69,39.44L336.32,37.86L343.17,28.21L350.02,28.21L356.65,39.44L363.5,52.91L370.12,46.18L376.98,50.67L383.83,73.13L390.23,86.61L397.08,84.36L403.71,106.82L410.56,111.32L417.19,111.32L424.04,118.06L430.89,138.27L437.52,150.4L444.37,175.33L451,178.7" style="vector-effect: non-scaling-stroke; fill: none; stroke: rgb(114, 31, 129); stroke-opacity: 1; stroke-width: 2px; opacity: 1; stroke-dasharray: 15px, 15px;"/></g><g class="points"/><g class="text"/></g><g class="trace scatter traceca5b07" style="stroke-miterlimit: 2; opacity: 1;"><g class="fills"/><g class="errorbars"/><g class="lines"><path class="js-line" d="M0,169.72L6.85,165.75L13.48,165.75L20.33,163L27.18,150.48L33.81,161.17L40.66,162.69L47.29,167.28L54.14,160.25L67.4,159.64L74.25,156.59L80.88,148.95L87.73,138.26L94.35,126.05L101.2,129.41L108.05,129.71L114.68,135.21L121.53,141.16L128.16,129.41L135.01,129.71L141.86,126.05L148.05,129.1L154.9,101.77L161.53,90.62L168.38,81.76L175.01,84.82L181.86,81L188.71,66.49L195.34,74.13L202.19,93.98L208.82,74.43L215.67,79.17L222.52,90.32L228.7,93.98L235.55,89.7L242.18,75.66L249.03,58.86L255.66,55.81L262.51,50L269.36,58.86L275.99,78.71L282.84,88.94L289.47,74.13L303.17,104.67L309.36,86.35L316.21,75.66L322.84,42.06L329.69,28.63L336.32,20.68L343.17,13.05L350.02,20.68L356.65,31.22L363.5,43.59L370.12,28.32L376.98,32.9L383.83,55.81L390.23,64.97L397.08,47.25L403.71,74.13L410.56,69.55L417.19,56.42L430.89,112.3L437.52,119.94L444.37,142.84L451,153.07" style="vector-effect: non-scaling-stroke; fill: none; stroke: rgb(158, 47, 127); stroke-opacity: 1; stroke-width: 2px; opacity: 1; stroke-dasharray: 9px, 3px, 3px, 3px;"/></g><g class="points"/><g class="text"/></g></g></g><g class="overplot"/><path class="xlines-above crisp" d="M59,291.5H511" style="fill: none; stroke-width: 1px; stroke: rgb(36, 36, 36); stroke-opacity: 1;"/><path class="ylines-above crisp" d="M59.5,30V291" style="fill: none; stroke-width: 1px; stroke: rgb(36, 36, 36); stroke-opacity: 1;"/><g class="overlines-above"/><g class="xaxislayer-above"><path class="xtick ticks crisp" d="M0,292v5" transform="translate(114.36,0)" style="stroke: rgb(68, 68, 68); stroke-opacity: 1; stroke-width: 1px;"/><path class="xtick ticks crisp" d="M0,292v5" transform="translate(195.23,0)" style="stroke: rgb(68, 68, 68); stroke-opacity: 1; stroke-width: 1px;"/><path class="xtick ticks crisp" d="M0,292v5" transform="translate(275.89,0)" style="stroke: rgb(68, 68, 68); stroke-opacity: 1; stroke-width: 1px;"/><path class="xtick ticks crisp" d="M0,292v5" transform="translate(356.54,0)" style="stroke: rgb(68, 68, 68); stroke-opacity: 1; stroke-width: 1px;"/><path class="xtick ticks crisp" d="M0,292v5" transform="translate(437.2,0)" style="stroke: rgb(68, 68, 68); stroke-opacity: 1; stroke-width: 1px;"/><g class="xtick"><text text-anchor="middle" x="0" y="311.4" transform="translate(114.36,0)" style="font-family: 'Open Sans', verdana, arial, sans-serif; font-size: 12px; fill: rgb(36, 36, 36); fill-opacity: 1; white-space: pre; opacity: 1;">2004</text></g><g class="xtick"><text text-anchor="middle" x="0" y="311.4" style="font-family: 'Open Sans', verdana, arial, sans-serif; font-size: 12px; fill: rgb(36, 36, 36); fill-opacity: 1; white-space: pre; opacity: 1;" transform="translate(195.23,0)">2005</text></g><g class="xtick"><text text-anchor="middle" x="0" y="311.4" style="font-family: 'Open Sans', verdana, arial, sans-serif; font-size: 12px; fill: rgb(36, 36, 36); fill-opacity: 1; white-space: pre; opacity: 1;" transform="translate(275.89,0)">2006</text></g><g class="xtick"><text text-anchor="middle" x="0" y="311.4" style="font-family: 'Open Sans', verdana, arial, sans-serif; font-size: 12px; fill: rgb(36, 36, 36); fill-opacity: 1; white-space: pre; opacity: 1;" transform="translate(356.54,0)">2007</text></g><g class="xtick"><text text-anchor="middle" x="0" y="311.4" style="font-family: 'Open Sans', verdana, arial, sans-serif; font-size: 12px; fill: rgb(36, 36, 36); fill-opacity: 1; white-space: pre; opacity: 1;" transform="translate(437.2,0)">2008</text></g></g><g class="yaxislayer-above"><path class="ytick ticks crisp" d="M59,0h-5" transform="translate(0,247.79)" style="stroke: rgb(68, 68, 68); stroke-opacity: 1; stroke-width: 1px;"/><path class="ytick ticks crisp" d="M59,0h-5" transform="translate(0,199.72)" style="stroke: rgb(68, 68, 68); stroke-opacity: 1; stroke-width: 1px;"/><path class="ytick ticks crisp" d="M59,0h-5" transform="translate(0,151.65)" style="stroke: rgb(68, 68, 68); stroke-opacity: 1; stroke-width: 1px;"/><path class="ytick ticks crisp" d="M59,0h-5" transform="translate(0,103.58)" style="stroke: rgb(68, 68, 68); stroke-opacity: 1; stroke-width: 1px;"/><path class="ytick ticks crisp" d="M59,0h-5" transform="translate(0,55.510000000000005)" style="stroke: rgb(68, 68, 68); stroke-opacity: 1; stroke-width: 1px;"/><g class="ytick"><text text-anchor="end" x="51.6" y="4.199999999999999" transform="translate(0,247.79)" style="font-family: 'Open Sans', verdana, arial, sans-serif; font-size: 12px; fill: rgb(36, 36, 36); fill-opacity: 1; white-space: pre; opacity: 1;">0.8</text></g><g class="ytick"><text text-anchor="end" x="51.6" y="4.199999999999999" style="font-family: 'Open Sans', verdana, arial, sans-serif; font-size: 12px; fill: rgb(36, 36, 36); fill-opacity: 1; white-space: pre; opacity: 1;" transform="translate(0,199.72)">1</text></g><g class="ytick"><text text-anchor="end" x="51.6" y="4.199999999999999" style="font-family: 'Open Sans', verdana, arial, sans-serif; font-size: 12px; fill: rgb(36, 36, 36); fill-opacity: 1; white-space: pre; opacity: 1;" transform="translate(0,151.65)">1.2</text></g><g class="ytick"><text text-anchor="end" x="51.6" y="4.199999999999999" style="font-family: 'Open Sans', verdana, arial, sans-serif; font-size: 12px; fill: rgb(36, 36, 36); fill-opacity: 1; white-space: pre; opacity: 1;" transform="translate(0,103.58)">1.4</text></g><g class="ytick"><text text-anchor="end" x="51.6" y="4.199999999999999" style="font-family: 'Open Sans', verdana, arial, sans-serif; font-size: 12px; fill: rgb(36, 36, 36); fill-opacity: 1; white-space: pre; opacity: 1;" transform="translate(0,55.510000000000005)">1.6</text></g></g><g class="overaxes-above"/></g></g><g class="polarlayer"/><g class="smithlayer"/><g class="ternarylayer"/><g class="geolayer"/><g class="funnelarealayer"/><g class="pielayer"/><g class="iciclelayer"/><g class="treemaplayer"/><g class="sunburstlayer"/><g class="glimages"/><defs id="topdefs-4cf3f7"><g class="clips"/><clipPath id="legend4cf3f7"><rect width="70" height="124" x="0" y="0"/></clipPath></defs><g class="layer-above"><g class="imagelayer"/><g class="shapelayer"/></g><g class="infolayer"><g class="legend" pointer-events="all" transform="translate(520.02,30)"><rect class="bg" shape-rendering="crispEdges" width="70" height="124" x="0" y="0" style="stroke: rgb(68, 68, 68); stroke-opacity: 1; fill: rgb(255, 255, 255); fill-opacity: 1; stroke-width: 0px;"/><g class="scrollbox" transform="" clip-path="url(#legend4cf3f7)"><text class="legendtitletext" text-anchor="start" x="2" y="18.2" style="font-family: 'Open Sans', verdana, arial, sans-serif; font-size: 14px; fill: rgb(36, 36, 36); fill-opacity: 1; white-space: pre;">percentile</text><g class="groups" transform=""><g class="traces" transform="translate(0,32.7)" style="opacity: 1;"><text class="legendtext" text-anchor="start" x="40" y="4.680000000000001" style="font-family: 'Open Sans', verdana, arial, sans-serif; font-size: 12px; fill: rgb(36, 36, 36); fill-opacity: 1; white-space: pre;">10</text><g class="layers" style="opacity: 1;"><g class="legendfill"/><g class="legendlines"><path class="js-line" d="M5,0h30" style="fill: none; stroke: rgb(0, 0, 4); stroke-opacity: 1; stroke-width: 2px;"/></g><g class="legendsymbols"><g class="legendpoints"/></g></g><rect class="legendtoggle" x="0" y="-9.5" width="53.734375" height="19" style="fill: rgb(0, 0, 0); fill-opacity: 0;"/></g></g><g class="groups" transform=""><g class="traces" transform="translate(0,51.7)" style="opacity: 1;"><text class="legendtext" text-anchor="start" x="40" y="4.680000000000001" style="font-family: 'Open Sans', verdana, arial, sans-serif; font-size: 12px; fill: rgb(36, 36, 36); fill-opacity: 1; white-space: pre;">30</text><g class="layers" style="opacity: 1;"><g class="legendfill"/><g class="legendlines"><path class="js-line" d="M5,0h30" style="fill: none; stroke: rgb(24, 15, 61); stroke-opacity: 1; stroke-dasharray: 3px, 3px; stroke-width: 2px;"/></g><g class="legendsymbols"><g class="legendpoints"/></g></g><rect class="legendtoggle" x="0" y="-9.5" width="53.734375" height="19" style="fill: rgb(0, 0, 0); fill-opacity: 0;"/></g></g><g class="groups" transform=""><g class="traces" transform="translate(0,70.7)" style="opacity: 1;"><text class="legendtext" text-anchor="start" x="40" y="4.680000000000001" style="font-family: 'Open Sans', verdana, arial, sans-serif; font-size: 12px; fill: rgb(36, 36, 36); fill-opacity: 1; white-space: pre;">50</text><g class="layers" style="opacity: 1;"><g class="legendfill"/><g class="legendlines"><path class="js-line" d="M5,0h30" style="fill: none; stroke: rgb(68, 15, 118); stroke-opacity: 1; stroke-dasharray: 9px, 9px; stroke-width: 2px;"/></g><g class="legendsymbols"><g class="legendpoints"/></g></g><rect class="legendtoggle" x="0" y="-9.5" width="53.734375" height="19" style="fill: rgb(0, 0, 0); fill-opacity: 0;"/></g></g><g class="groups" transform=""><g class="traces" transform="translate(0,89.7)" style="opacity: 1;"><text class="legendtext" text-anchor="start" x="40" y="4.680000000000001" style="font-family: 'Open Sans', verdana, arial, sans-serif; font-size: 12px; fill: rgb(36, 36, 36); fill-opacity: 1; white-space: pre;">70</text><g class="layers" style="opacity: 1;"><g class="legendfill"/><g class="legendlines"><path class="js-line" d="M5,0h30" style="fill: none; stroke: rgb(114, 31, 129); stroke-opacity: 1; stroke-dasharray: 15px, 15px; stroke-width: 2px;"/></g><g class="legendsymbols"><g class="legendpoints"/></g></g><rect class="legendtoggle" x="0" y="-9.5" width="53.734375" height="19" style="fill: rgb(0, 0, 0); fill-opacity: 0;"/></g></g><g class="groups" transform=""><g class="traces" transform="translate(0,108.7)" style="opacity: 1;"><text class="legendtext" text-anchor="start" x="40" y="4.680000000000001" style="font-family: 'Open Sans', verdana, arial, sans-serif; font-size: 12px; fill: rgb(36, 36, 36); fill-opacity: 1; white-space: pre;">90</text><g class="layers" style="opacity: 1;"><g class="legendfill"/><g class="legendlines"><path class="js-line" d="M5,0h30" style="fill: none; stroke: rgb(158, 47, 127); stroke-opacity: 1; stroke-dasharray: 9px, 3px, 3px, 3px; stroke-width: 2px;"/></g><g class="legendsymbols"><g class="legendpoints"/></g></g><rect class="legendtoggle" x="0" y="-9.5" width="53.734375" height="19" style="fill: rgb(0, 0, 0); fill-opacity: 0;"/></g></g></g><rect class="scrollbar" rx="20" ry="3" width="0" height="0" x="0" y="0" style="fill: rgb(128, 139, 164); fill-opacity: 1;"/></g><g class="g-gtitle"><text class="gtitle" x="300" y="15" text-anchor="middle" dy="0em" style="font-family: 'Open Sans', verdana, arial, sans-serif; font-size: 17px; fill: rgb(36, 36, 36); opacity: 1; font-weight: normal; white-space: pre;">San Francisco house sale prices, inflation-adjusted</text></g><g class="g-xtitle"/><g class="g-ytitle" transform="translate(5.1279296875,0)"><text class="ytitle" transform="rotate(-90,9.871875000000003,160.5)" x="9.871875000000003" y="160.5" text-anchor="middle" style="font-family: 'Open Sans', verdana, arial, sans-serif; font-size: 14px; fill: rgb(36, 36, 36); opacity: 1; font-weight: normal; white-space: pre;">Sale price relatve to 2003</text></g></g></svg>