<?xml version="1.0" encoding="utf-8" standalone="no"?>
<!DOCTYPE svg PUBLIC "-//W3C//DTD SVG 1.1//EN"
  "http://www.w3.org/Graphics/SVG/1.1/DTD/svg11.dtd">
<!-- Created with matplotlib (https://matplotlib.org/) -->
<svg height="206.770625pt" version="1.1" viewBox="0 0 341.35 206.770625" width="341.35pt" xmlns="http://www.w3.org/2000/svg" xmlns:xlink="http://www.w3.org/1999/xlink">
 <metadata>
  <rdf:RDF xmlns:cc="http://creativecommons.org/ns#" xmlns:dc="http://purl.org/dc/elements/1.1/" xmlns:rdf="http://www.w3.org/1999/02/22-rdf-syntax-ns#">
   <cc:Work>
    <dc:type rdf:resource="http://purl.org/dc/dcmitype/StillImage"/>
    <dc:date>2023-01-22T13:56:09.851114</dc:date>
    <dc:format>image/svg+xml</dc:format>
    <dc:creator>
     <cc:Agent>
      <dc:title>Matplotlib v3.3.4, https://matplotlib.org/</dc:title>
     </cc:Agent>
    </dc:creator>
   </cc:Work>
  </rdf:RDF>
 </metadata>
 <defs>
  <style type="text/css">*{stroke-linecap:butt;stroke-linejoin:round;}</style>
 </defs>
 <g id="figure_1">
  <g id="patch_1">
   <path d="M 0 206.770625 
L 341.35 206.770625 
L 341.35 0 
L 0 0 
z
" style="fill:#ffffff;"/>
  </g>
  <g id="axes_1">
   <g id="patch_2">
    <path d="M 55.15 170.28 
L 334.15 170.28 
L 334.15 7.2 
L 55.15 7.2 
z
" style="fill:#ffffff;"/>
   </g>
   <g id="matplotlib.axis_1">
    <g id="xtick_1">
     <g id="line2d_1">
      <path clip-path="url(#p0ae4a582ff)" d="M 79.495512 170.28 
L 79.495512 7.2 
" style="fill:none;stroke:#cccccc;stroke-linecap:round;stroke-width:0.8;"/>
     </g>
     <g id="text_1">
      <!-- 20 -->
      <g style="fill:#262626;" transform="translate(73.934575 184.437813)scale(0.1 -0.1)">
       <defs>
        <path d="M 50.34375 8.453125 
L 50.34375 0 
L 3.03125 0 
Q 2.9375 3.171875 4.046875 6.109375 
Q 5.859375 10.9375 9.828125 15.625 
Q 13.8125 20.3125 21.34375 26.46875 
Q 33.015625 36.03125 37.109375 41.625 
Q 41.21875 47.21875 41.21875 52.203125 
Q 41.21875 57.421875 37.46875 61 
Q 33.734375 64.59375 27.734375 64.59375 
Q 21.390625 64.59375 17.578125 60.78125 
Q 13.765625 56.984375 13.71875 50.25 
L 4.6875 51.171875 
Q 5.609375 61.28125 11.65625 66.578125 
Q 17.71875 71.875 27.9375 71.875 
Q 38.234375 71.875 44.234375 66.15625 
Q 50.25 60.453125 50.25 52 
Q 50.25 47.703125 48.484375 43.546875 
Q 46.734375 39.40625 42.65625 34.8125 
Q 38.578125 30.21875 29.109375 22.21875 
Q 21.1875 15.578125 18.9375 13.203125 
Q 16.703125 10.84375 15.234375 8.453125 
z
" id="ArialMT-50"/>
        <path d="M 4.15625 35.296875 
Q 4.15625 48 6.765625 55.734375 
Q 9.375 63.484375 14.515625 67.671875 
Q 19.671875 71.875 27.484375 71.875 
Q 33.25 71.875 37.59375 69.546875 
Q 41.9375 67.234375 44.765625 62.859375 
Q 47.609375 58.5 49.21875 52.21875 
Q 50.828125 45.953125 50.828125 35.296875 
Q 50.828125 22.703125 48.234375 14.96875 
Q 45.65625 7.234375 40.5 3 
Q 35.359375 -1.21875 27.484375 -1.21875 
Q 17.140625 -1.21875 11.234375 6.203125 
Q 4.15625 15.140625 4.15625 35.296875 
z
M 13.1875 35.296875 
Q 13.1875 17.671875 17.3125 11.828125 
Q 21.4375 6 27.484375 6 
Q 33.546875 6 37.671875 11.859375 
Q 41.796875 17.71875 41.796875 35.296875 
Q 41.796875 52.984375 37.671875 58.78125 
Q 33.546875 64.59375 27.390625 64.59375 
Q 21.34375 64.59375 17.71875 59.46875 
Q 13.1875 52.9375 13.1875 35.296875 
z
" id="ArialMT-48"/>
       </defs>
       <use xlink:href="#ArialMT-50"/>
       <use x="55.615234" xlink:href="#ArialMT-48"/>
      </g>
     </g>
    </g>
    <g id="xtick_2">
     <g id="line2d_2">
      <path clip-path="url(#p0ae4a582ff)" d="M 113.869986 170.28 
L 113.869986 7.2 
" style="fill:none;stroke:#cccccc;stroke-linecap:round;stroke-width:0.8;"/>
     </g>
     <g id="text_2">
      <!-- 30 -->
      <g style="fill:#262626;" transform="translate(108.309049 184.437813)scale(0.1 -0.1)">
       <defs>
        <path d="M 4.203125 18.890625 
L 12.984375 20.0625 
Q 14.5 12.59375 18.140625 9.296875 
Q 21.78125 6 27 6 
Q 33.203125 6 37.46875 10.296875 
Q 41.75 14.59375 41.75 20.953125 
Q 41.75 27 37.796875 30.921875 
Q 33.84375 34.859375 27.734375 34.859375 
Q 25.25 34.859375 21.53125 33.890625 
L 22.515625 41.609375 
Q 23.390625 41.5 23.921875 41.5 
Q 29.546875 41.5 34.03125 44.421875 
Q 38.53125 47.359375 38.53125 53.46875 
Q 38.53125 58.296875 35.25 61.46875 
Q 31.984375 64.65625 26.8125 64.65625 
Q 21.6875 64.65625 18.265625 61.421875 
Q 14.84375 58.203125 13.875 51.765625 
L 5.078125 53.328125 
Q 6.6875 62.15625 12.390625 67.015625 
Q 18.109375 71.875 26.609375 71.875 
Q 32.46875 71.875 37.390625 69.359375 
Q 42.328125 66.84375 44.9375 62.5 
Q 47.5625 58.15625 47.5625 53.265625 
Q 47.5625 48.640625 45.0625 44.828125 
Q 42.578125 41.015625 37.703125 38.765625 
Q 44.046875 37.3125 47.5625 32.6875 
Q 51.078125 28.078125 51.078125 21.140625 
Q 51.078125 11.765625 44.234375 5.25 
Q 37.40625 -1.265625 26.953125 -1.265625 
Q 17.53125 -1.265625 11.296875 4.34375 
Q 5.078125 9.96875 4.203125 18.890625 
z
" id="ArialMT-51"/>
       </defs>
       <use xlink:href="#ArialMT-51"/>
       <use x="55.615234" xlink:href="#ArialMT-48"/>
      </g>
     </g>
    </g>
    <g id="xtick_3">
     <g id="line2d_3">
      <path clip-path="url(#p0ae4a582ff)" d="M 148.24446 170.28 
L 148.24446 7.2 
" style="fill:none;stroke:#cccccc;stroke-linecap:round;stroke-width:0.8;"/>
     </g>
     <g id="text_3">
      <!-- 40 -->
      <g style="fill:#262626;" transform="translate(142.683523 184.437813)scale(0.1 -0.1)">
       <defs>
        <path d="M 32.328125 0 
L 32.328125 17.140625 
L 1.265625 17.140625 
L 1.265625 25.203125 
L 33.9375 71.578125 
L 41.109375 71.578125 
L 41.109375 25.203125 
L 50.78125 25.203125 
L 50.78125 17.140625 
L 41.109375 17.140625 
L 41.109375 0 
z
M 32.328125 25.203125 
L 32.328125 57.46875 
L 9.90625 25.203125 
z
" id="ArialMT-52"/>
       </defs>
       <use xlink:href="#ArialMT-52"/>
       <use x="55.615234" xlink:href="#ArialMT-48"/>
      </g>
     </g>
    </g>
    <g id="xtick_4">
     <g id="line2d_4">
      <path clip-path="url(#p0ae4a582ff)" d="M 182.618934 170.28 
L 182.618934 7.2 
" style="fill:none;stroke:#cccccc;stroke-linecap:round;stroke-width:0.8;"/>
     </g>
     <g id="text_4">
      <!-- 50 -->
      <g style="fill:#262626;" transform="translate(177.057997 184.437813)scale(0.1 -0.1)">
       <defs>
        <path d="M 4.15625 18.75 
L 13.375 19.53125 
Q 14.40625 12.796875 18.140625 9.390625 
Q 21.875 6 27.15625 6 
Q 33.5 6 37.890625 10.78125 
Q 42.28125 15.578125 42.28125 23.484375 
Q 42.28125 31 38.0625 35.34375 
Q 33.84375 39.703125 27 39.703125 
Q 22.75 39.703125 19.328125 37.765625 
Q 15.921875 35.84375 13.96875 32.765625 
L 5.71875 33.84375 
L 12.640625 70.609375 
L 48.25 70.609375 
L 48.25 62.203125 
L 19.671875 62.203125 
L 15.828125 42.96875 
Q 22.265625 47.46875 29.34375 47.46875 
Q 38.71875 47.46875 45.15625 40.96875 
Q 51.609375 34.46875 51.609375 24.265625 
Q 51.609375 14.546875 45.953125 7.46875 
Q 39.0625 -1.21875 27.15625 -1.21875 
Q 17.390625 -1.21875 11.203125 4.25 
Q 5.03125 9.71875 4.15625 18.75 
z
" id="ArialMT-53"/>
       </defs>
       <use xlink:href="#ArialMT-53"/>
       <use x="55.615234" xlink:href="#ArialMT-48"/>
      </g>
     </g>
    </g>
    <g id="xtick_5">
     <g id="line2d_5">
      <path clip-path="url(#p0ae4a582ff)" d="M 216.993408 170.28 
L 216.993408 7.2 
" style="fill:none;stroke:#cccccc;stroke-linecap:round;stroke-width:0.8;"/>
     </g>
     <g id="text_5">
      <!-- 60 -->
      <g style="fill:#262626;" transform="translate(211.432471 184.437813)scale(0.1 -0.1)">
       <defs>
        <path d="M 49.75 54.046875 
L 41.015625 53.375 
Q 39.84375 58.546875 37.703125 60.890625 
Q 34.125 64.65625 28.90625 64.65625 
Q 24.703125 64.65625 21.53125 62.3125 
Q 17.390625 59.28125 14.984375 53.46875 
Q 12.59375 47.65625 12.5 36.921875 
Q 15.671875 41.75 20.265625 44.09375 
Q 24.859375 46.4375 29.890625 46.4375 
Q 38.671875 46.4375 44.84375 39.96875 
Q 51.03125 33.5 51.03125 23.25 
Q 51.03125 16.5 48.125 10.71875 
Q 45.21875 4.9375 40.140625 1.859375 
Q 35.0625 -1.21875 28.609375 -1.21875 
Q 17.625 -1.21875 10.6875 6.859375 
Q 3.765625 14.9375 3.765625 33.5 
Q 3.765625 54.25 11.421875 63.671875 
Q 18.109375 71.875 29.4375 71.875 
Q 37.890625 71.875 43.28125 67.140625 
Q 48.6875 62.40625 49.75 54.046875 
z
M 13.875 23.1875 
Q 13.875 18.65625 15.796875 14.5 
Q 17.71875 10.359375 21.1875 8.171875 
Q 24.65625 6 28.46875 6 
Q 34.03125 6 38.03125 10.484375 
Q 42.046875 14.984375 42.046875 22.703125 
Q 42.046875 30.125 38.078125 34.390625 
Q 34.125 38.671875 28.125 38.671875 
Q 22.171875 38.671875 18.015625 34.390625 
Q 13.875 30.125 13.875 23.1875 
z
" id="ArialMT-54"/>
       </defs>
       <use xlink:href="#ArialMT-54"/>
       <use x="55.615234" xlink:href="#ArialMT-48"/>
      </g>
     </g>
    </g>
    <g id="xtick_6">
     <g id="line2d_6">
      <path clip-path="url(#p0ae4a582ff)" d="M 251.367882 170.28 
L 251.367882 7.2 
" style="fill:none;stroke:#cccccc;stroke-linecap:round;stroke-width:0.8;"/>
     </g>
     <g id="text_6">
      <!-- 70 -->
      <g style="fill:#262626;" transform="translate(245.806945 184.437813)scale(0.1 -0.1)">
       <defs>
        <path d="M 4.734375 62.203125 
L 4.734375 70.65625 
L 51.078125 70.65625 
L 51.078125 63.8125 
Q 44.234375 56.546875 37.515625 44.484375 
Q 30.8125 32.421875 27.15625 19.671875 
Q 24.515625 10.6875 23.78125 0 
L 14.75 0 
Q 14.890625 8.453125 18.0625 20.40625 
Q 21.234375 32.375 27.171875 43.484375 
Q 33.109375 54.59375 39.796875 62.203125 
z
" id="ArialMT-55"/>
       </defs>
       <use xlink:href="#ArialMT-55"/>
       <use x="55.615234" xlink:href="#ArialMT-48"/>
      </g>
     </g>
    </g>
    <g id="xtick_7">
     <g id="line2d_7">
      <path clip-path="url(#p0ae4a582ff)" d="M 285.742356 170.28 
L 285.742356 7.2 
" style="fill:none;stroke:#cccccc;stroke-linecap:round;stroke-width:0.8;"/>
     </g>
     <g id="text_7">
      <!-- 80 -->
      <g style="fill:#262626;" transform="translate(280.181419 184.437813)scale(0.1 -0.1)">
       <defs>
        <path d="M 17.671875 38.8125 
Q 12.203125 40.828125 9.5625 44.53125 
Q 6.9375 48.25 6.9375 53.421875 
Q 6.9375 61.234375 12.546875 66.546875 
Q 18.171875 71.875 27.484375 71.875 
Q 36.859375 71.875 42.578125 66.421875 
Q 48.296875 60.984375 48.296875 53.171875 
Q 48.296875 48.1875 45.671875 44.5 
Q 43.0625 40.828125 37.75 38.8125 
Q 44.34375 36.671875 47.78125 31.875 
Q 51.21875 27.09375 51.21875 20.453125 
Q 51.21875 11.28125 44.71875 5.03125 
Q 38.234375 -1.21875 27.640625 -1.21875 
Q 17.046875 -1.21875 10.546875 5.046875 
Q 4.046875 11.328125 4.046875 20.703125 
Q 4.046875 27.6875 7.59375 32.390625 
Q 11.140625 37.109375 17.671875 38.8125 
z
M 15.921875 53.71875 
Q 15.921875 48.640625 19.1875 45.40625 
Q 22.46875 42.1875 27.6875 42.1875 
Q 32.765625 42.1875 36.015625 45.375 
Q 39.265625 48.578125 39.265625 53.21875 
Q 39.265625 58.0625 35.90625 61.359375 
Q 32.5625 64.65625 27.59375 64.65625 
Q 22.5625 64.65625 19.234375 61.421875 
Q 15.921875 58.203125 15.921875 53.71875 
z
M 13.09375 20.65625 
Q 13.09375 16.890625 14.875 13.375 
Q 16.65625 9.859375 20.171875 7.921875 
Q 23.6875 6 27.734375 6 
Q 34.03125 6 38.125 10.046875 
Q 42.234375 14.109375 42.234375 20.359375 
Q 42.234375 26.703125 38.015625 30.859375 
Q 33.796875 35.015625 27.4375 35.015625 
Q 21.234375 35.015625 17.15625 30.90625 
Q 13.09375 26.8125 13.09375 20.65625 
z
" id="ArialMT-56"/>
       </defs>
       <use xlink:href="#ArialMT-56"/>
       <use x="55.615234" xlink:href="#ArialMT-48"/>
      </g>
     </g>
    </g>
    <g id="xtick_8">
     <g id="line2d_8">
      <path clip-path="url(#p0ae4a582ff)" d="M 320.11683 170.28 
L 320.11683 7.2 
" style="fill:none;stroke:#cccccc;stroke-linecap:round;stroke-width:0.8;"/>
     </g>
     <g id="text_8">
      <!-- 90 -->
      <g style="fill:#262626;" transform="translate(314.555893 184.437813)scale(0.1 -0.1)">
       <defs>
        <path d="M 5.46875 16.546875 
L 13.921875 17.328125 
Q 14.984375 11.375 18.015625 8.6875 
Q 21.046875 6 25.78125 6 
Q 29.828125 6 32.875 7.859375 
Q 35.9375 9.71875 37.890625 12.8125 
Q 39.84375 15.921875 41.15625 21.1875 
Q 42.484375 26.46875 42.484375 31.9375 
Q 42.484375 32.515625 42.4375 33.6875 
Q 39.796875 29.5 35.234375 26.875 
Q 30.671875 24.265625 25.34375 24.265625 
Q 16.453125 24.265625 10.296875 30.703125 
Q 4.15625 37.15625 4.15625 47.703125 
Q 4.15625 58.59375 10.578125 65.234375 
Q 17 71.875 26.65625 71.875 
Q 33.640625 71.875 39.421875 68.109375 
Q 45.21875 64.359375 48.21875 57.390625 
Q 51.21875 50.4375 51.21875 37.25 
Q 51.21875 23.53125 48.234375 15.40625 
Q 45.265625 7.28125 39.375 3.03125 
Q 33.5 -1.21875 25.59375 -1.21875 
Q 17.1875 -1.21875 11.859375 3.4375 
Q 6.546875 8.109375 5.46875 16.546875 
z
M 41.453125 48.140625 
Q 41.453125 55.71875 37.421875 60.15625 
Q 33.40625 64.59375 27.734375 64.59375 
Q 21.875 64.59375 17.53125 59.8125 
Q 13.1875 55.03125 13.1875 47.40625 
Q 13.1875 40.578125 17.3125 36.296875 
Q 21.4375 32.03125 27.484375 32.03125 
Q 33.59375 32.03125 37.515625 36.296875 
Q 41.453125 40.578125 41.453125 48.140625 
z
" id="ArialMT-57"/>
       </defs>
       <use xlink:href="#ArialMT-57"/>
       <use x="55.615234" xlink:href="#ArialMT-48"/>
      </g>
     </g>
    </g>
    <g id="text_9">
     <!-- age -->
     <g style="fill:#262626;" transform="translate(186.308594 197.465937)scale(0.1 -0.1)">
      <defs>
       <path d="M 40.4375 6.390625 
Q 35.546875 2.25 31.03125 0.53125 
Q 26.515625 -1.171875 21.34375 -1.171875 
Q 12.796875 -1.171875 8.203125 3 
Q 3.609375 7.171875 3.609375 13.671875 
Q 3.609375 17.484375 5.34375 20.625 
Q 7.078125 23.78125 9.890625 25.6875 
Q 12.703125 27.59375 16.21875 28.5625 
Q 18.796875 29.25 24.03125 29.890625 
Q 34.671875 31.15625 39.703125 32.90625 
Q 39.75 34.71875 39.75 35.203125 
Q 39.75 40.578125 37.25 42.78125 
Q 33.890625 45.75 27.25 45.75 
Q 21.046875 45.75 18.09375 43.578125 
Q 15.140625 41.40625 13.71875 35.890625 
L 5.125 37.0625 
Q 6.296875 42.578125 8.984375 45.96875 
Q 11.671875 49.359375 16.75 51.1875 
Q 21.828125 53.03125 28.515625 53.03125 
Q 35.15625 53.03125 39.296875 51.46875 
Q 43.453125 49.90625 45.40625 47.53125 
Q 47.359375 45.171875 48.140625 41.546875 
Q 48.578125 39.3125 48.578125 33.453125 
L 48.578125 21.734375 
Q 48.578125 9.46875 49.140625 6.21875 
Q 49.703125 2.984375 51.375 0 
L 42.1875 0 
Q 40.828125 2.734375 40.4375 6.390625 
z
M 39.703125 26.03125 
Q 34.90625 24.078125 25.34375 22.703125 
Q 19.921875 21.921875 17.671875 20.9375 
Q 15.4375 19.96875 14.203125 18.09375 
Q 12.984375 16.21875 12.984375 13.921875 
Q 12.984375 10.40625 15.640625 8.0625 
Q 18.3125 5.71875 23.4375 5.71875 
Q 28.515625 5.71875 32.46875 7.9375 
Q 36.421875 10.15625 38.28125 14.015625 
Q 39.703125 17 39.703125 22.796875 
z
" id="ArialMT-97"/>
       <path d="M 4.984375 -4.296875 
L 13.53125 -5.5625 
Q 14.0625 -9.515625 16.5 -11.328125 
Q 19.78125 -13.765625 25.4375 -13.765625 
Q 31.546875 -13.765625 34.859375 -11.328125 
Q 38.1875 -8.890625 39.359375 -4.5 
Q 40.046875 -1.8125 39.984375 6.78125 
Q 34.234375 0 25.640625 0 
Q 14.9375 0 9.078125 7.71875 
Q 3.21875 15.4375 3.21875 26.21875 
Q 3.21875 33.640625 5.90625 39.90625 
Q 8.59375 46.1875 13.6875 49.609375 
Q 18.796875 53.03125 25.6875 53.03125 
Q 34.859375 53.03125 40.828125 45.609375 
L 40.828125 51.859375 
L 48.921875 51.859375 
L 48.921875 7.03125 
Q 48.921875 -5.078125 46.453125 -10.125 
Q 44 -15.1875 38.640625 -18.109375 
Q 33.296875 -21.046875 25.484375 -21.046875 
Q 16.21875 -21.046875 10.5 -16.875 
Q 4.78125 -12.703125 4.984375 -4.296875 
z
M 12.25 26.859375 
Q 12.25 16.65625 16.296875 11.96875 
Q 20.359375 7.28125 26.46875 7.28125 
Q 32.515625 7.28125 36.609375 11.9375 
Q 40.71875 16.609375 40.71875 26.5625 
Q 40.71875 36.078125 36.5 40.90625 
Q 32.28125 45.75 26.3125 45.75 
Q 20.453125 45.75 16.34375 40.984375 
Q 12.25 36.234375 12.25 26.859375 
z
" id="ArialMT-103"/>
       <path d="M 42.09375 16.703125 
L 51.171875 15.578125 
Q 49.03125 7.625 43.21875 3.21875 
Q 37.40625 -1.171875 28.375 -1.171875 
Q 17 -1.171875 10.328125 5.828125 
Q 3.65625 12.84375 3.65625 25.484375 
Q 3.65625 38.578125 10.390625 45.796875 
Q 17.140625 53.03125 27.875 53.03125 
Q 38.28125 53.03125 44.875 45.953125 
Q 51.46875 38.875 51.46875 26.03125 
Q 51.46875 25.25 51.421875 23.6875 
L 12.75 23.6875 
Q 13.234375 15.140625 17.578125 10.59375 
Q 21.921875 6.0625 28.421875 6.0625 
Q 33.25 6.0625 36.671875 8.59375 
Q 40.09375 11.140625 42.09375 16.703125 
z
M 13.234375 30.90625 
L 42.1875 30.90625 
Q 41.609375 37.453125 38.875 40.71875 
Q 34.671875 45.796875 27.984375 45.796875 
Q 21.921875 45.796875 17.796875 41.75 
Q 13.671875 37.703125 13.234375 30.90625 
z
" id="ArialMT-101"/>
      </defs>
      <use xlink:href="#ArialMT-97"/>
      <use x="55.615234" xlink:href="#ArialMT-103"/>
      <use x="111.230469" xlink:href="#ArialMT-101"/>
     </g>
    </g>
   </g>
   <g id="matplotlib.axis_2">
    <g id="ytick_1">
     <g id="line2d_9">
      <path clip-path="url(#p0ae4a582ff)" d="M 55.15 137.356121 
L 334.15 137.356121 
" style="fill:none;stroke:#cccccc;stroke-linecap:round;stroke-width:0.8;"/>
     </g>
     <g id="text_10">
      <!-- 4000 -->
      <g style="fill:#262626;" transform="translate(25.90625 140.935028)scale(0.1 -0.1)">
       <use xlink:href="#ArialMT-52"/>
       <use x="55.615234" xlink:href="#ArialMT-48"/>
       <use x="111.230469" xlink:href="#ArialMT-48"/>
       <use x="166.845703" xlink:href="#ArialMT-48"/>
      </g>
     </g>
    </g>
    <g id="ytick_2">
     <g id="line2d_10">
      <path clip-path="url(#p0ae4a582ff)" d="M 55.15 100.322321 
L 334.15 100.322321 
" style="fill:none;stroke:#cccccc;stroke-linecap:round;stroke-width:0.8;"/>
     </g>
     <g id="text_11">
      <!-- 6000 -->
      <g style="fill:#262626;" transform="translate(25.90625 103.901227)scale(0.1 -0.1)">
       <use xlink:href="#ArialMT-54"/>
       <use x="55.615234" xlink:href="#ArialMT-48"/>
       <use x="111.230469" xlink:href="#ArialMT-48"/>
       <use x="166.845703" xlink:href="#ArialMT-48"/>
      </g>
     </g>
    </g>
    <g id="ytick_3">
     <g id="line2d_11">
      <path clip-path="url(#p0ae4a582ff)" d="M 55.15 63.288521 
L 334.15 63.288521 
" style="fill:none;stroke:#cccccc;stroke-linecap:round;stroke-width:0.8;"/>
     </g>
     <g id="text_12">
      <!-- 8000 -->
      <g style="fill:#262626;" transform="translate(25.90625 66.867427)scale(0.1 -0.1)">
       <use xlink:href="#ArialMT-56"/>
       <use x="55.615234" xlink:href="#ArialMT-48"/>
       <use x="111.230469" xlink:href="#ArialMT-48"/>
       <use x="166.845703" xlink:href="#ArialMT-48"/>
      </g>
     </g>
    </g>
    <g id="ytick_4">
     <g id="line2d_12">
      <path clip-path="url(#p0ae4a582ff)" d="M 55.15 26.25472 
L 334.15 26.25472 
" style="fill:none;stroke:#cccccc;stroke-linecap:round;stroke-width:0.8;"/>
     </g>
     <g id="text_13">
      <!-- 10000 -->
      <g style="fill:#262626;" transform="translate(20.345313 29.833627)scale(0.1 -0.1)">
       <defs>
        <path d="M 37.25 0 
L 28.46875 0 
L 28.46875 56 
Q 25.296875 52.984375 20.140625 49.953125 
Q 14.984375 46.921875 10.890625 45.40625 
L 10.890625 53.90625 
Q 18.265625 57.375 23.78125 62.296875 
Q 29.296875 67.234375 31.59375 71.875 
L 37.25 71.875 
z
" id="ArialMT-49"/>
       </defs>
       <use xlink:href="#ArialMT-49"/>
       <use x="55.615234" xlink:href="#ArialMT-48"/>
       <use x="111.230469" xlink:href="#ArialMT-48"/>
       <use x="166.845703" xlink:href="#ArialMT-48"/>
       <use x="222.460938" xlink:href="#ArialMT-48"/>
      </g>
     </g>
    </g>
    <g id="text_14">
     <!-- time -->
     <g style="fill:#262626;" transform="translate(14.357813 98.185312)rotate(-90)scale(0.1 -0.1)">
      <defs>
       <path d="M 25.78125 7.859375 
L 27.046875 0.09375 
Q 23.34375 -0.6875 20.40625 -0.6875 
Q 15.625 -0.6875 12.984375 0.828125 
Q 10.359375 2.34375 9.28125 4.8125 
Q 8.203125 7.28125 8.203125 15.1875 
L 8.203125 45.015625 
L 1.765625 45.015625 
L 1.765625 51.859375 
L 8.203125 51.859375 
L 8.203125 64.703125 
L 16.9375 69.96875 
L 16.9375 51.859375 
L 25.78125 51.859375 
L 25.78125 45.015625 
L 16.9375 45.015625 
L 16.9375 14.703125 
Q 16.9375 10.9375 17.40625 9.859375 
Q 17.875 8.796875 18.921875 8.15625 
Q 19.96875 7.515625 21.921875 7.515625 
Q 23.390625 7.515625 25.78125 7.859375 
z
" id="ArialMT-116"/>
       <path d="M 6.640625 61.46875 
L 6.640625 71.578125 
L 15.4375 71.578125 
L 15.4375 61.46875 
z
M 6.640625 0 
L 6.640625 51.859375 
L 15.4375 51.859375 
L 15.4375 0 
z
" id="ArialMT-105"/>
       <path d="M 6.59375 0 
L 6.59375 51.859375 
L 14.453125 51.859375 
L 14.453125 44.578125 
Q 16.890625 48.390625 20.9375 50.703125 
Q 25 53.03125 30.171875 53.03125 
Q 35.9375 53.03125 39.625 50.640625 
Q 43.3125 48.25 44.828125 43.953125 
Q 50.984375 53.03125 60.84375 53.03125 
Q 68.5625 53.03125 72.703125 48.75 
Q 76.859375 44.484375 76.859375 35.59375 
L 76.859375 0 
L 68.109375 0 
L 68.109375 32.671875 
Q 68.109375 37.9375 67.25 40.25 
Q 66.40625 42.578125 64.15625 43.984375 
Q 61.921875 45.40625 58.890625 45.40625 
Q 53.421875 45.40625 49.796875 41.765625 
Q 46.1875 38.140625 46.1875 30.125 
L 46.1875 0 
L 37.40625 0 
L 37.40625 33.6875 
Q 37.40625 39.546875 35.25 42.46875 
Q 33.109375 45.40625 28.21875 45.40625 
Q 24.515625 45.40625 21.359375 43.453125 
Q 18.21875 41.5 16.796875 37.734375 
Q 15.375 33.984375 15.375 26.90625 
L 15.375 0 
z
" id="ArialMT-109"/>
      </defs>
      <use xlink:href="#ArialMT-116"/>
      <use x="27.783203" xlink:href="#ArialMT-105"/>
      <use x="50" xlink:href="#ArialMT-109"/>
      <use x="133.300781" xlink:href="#ArialMT-101"/>
     </g>
    </g>
   </g>
   <g id="LineCollection_1">
    <path clip-path="url(#p0ae4a582ff)" d="M 97.210302 158.264015 
L 100.014322 158.641165 
L 102.818342 158.728138 
L 105.622362 158.519757 
L 108.671558 157.987538 
L 111.568954 157.16804 
L 115.436432 155.685365 
L 118.240452 154.601868 
L 122.446482 153.277008 
L 126.216608 152.251055 
L 130.858543 151.237844 
L 135.064573 150.652234 
L 137.868593 150.442972 
L 143.476633 150.268103 
L 149.084673 150.084266 
L 153.290704 149.647733 
L 164.506784 147.964073 
L 168.712814 147.193644 
L 176.472814 145.695075 
L 182.732915 144.629965 
L 186.938945 143.693182 
L 192.546985 142.131688 
L 205.420751 138.319598 
L 209.371106 137.434946 
L 216.381156 136.151029 
L 217.783166 135.726664 
L 219.486332 135.041608 
L 221.039548 134.222111 
L 222.289865 133.402613 
L 224.255477 131.763618 
L 226.548963 129.305126 
L 227.813092 127.666131 
L 228.801014 126.027136 
L 230.806589 121.929648 
L 232.114496 120.290653 
L 235.112429 117.012663 
L 236.191528 115.373668 
L 236.843003 113.734673 
L 237.079723 112.095678 
L 237.159597 107.998191 
L 237.555721 106.359196 
L 238.677113 103.081206 
L 238.930614 101.442211 
L 238.87466 99.803216 
L 238.491475 98.164221 
L 237.669201 96.525226 
L 235.436141 93.247236 
L 234.607286 91.337974 
L 233.973904 89.149749 
L 233.687463 87.510754 
L 233.417302 84.232764 
L 233.19821 83.413266 
L 232.855091 82.593769 
L 231.795064 80.954774 
L 230.401256 79.473596 
L 230.219089 79.315779 
L 228.999246 78.455941 
L 227.406339 77.676784 
L 224.793216 76.760809 
L 221.989196 75.8165 
L 219.185176 74.640225 
L 214.979146 72.734461 
L 212.175126 71.781551 
L 209.371106 71.177657 
L 206.567085 70.858076 
L 203.763065 70.792914 
L 200.959045 70.984744 
L 193.948995 71.873664 
L 191.144975 71.939018 
L 188.340955 71.647592 
L 184.134925 70.745277 
L 181.330905 70.226951 
L 178.526884 69.904029 
L 173.813095 69.481809 
L 171.516834 69.003148 
L 170.114824 68.547647 
L 166.888798 67.023317 
L 164.506784 65.957186 
L 161.702764 65.144477 
L 158.188339 64.564824 
L 151.888693 63.681551 
L 143.476633 62.239419 
L 137.868593 61.806419 
L 132.260553 61.257129 
L 128.054523 60.932683 
L 118.240452 60.724691 
L 111.230402 60.018958 
L 109.828392 60.041136 
L 108.426382 60.222684 
L 107.024372 60.605505 
L 105.480589 61.286834 
L 101.416332 63.53824 
L 95.624484 67.023317 
L 93.674187 68.662312 
L 91.602261 70.868303 
L 90.082435 72.759799 
L 88.380666 75.218291 
L 87.007681 77.676784 
L 85.025459 81.774271 
L 83.705595 85.052261 
L 79.567864 98.164221 
L 79.126661 100.622714 
L 78.636208 103.900704 
L 77.383789 110.456683 
L 76.924254 115.373668 
L 76.482269 117.832161 
L 76.400358 119.471156 
L 76.544706 121.110151 
L 77.061803 125.207638 
L 77.320053 129.305126 
L 77.582161 135.717783 
L 77.795543 136.680603 
L 78.408845 138.319598 
L 79.320175 139.958593 
L 80.533535 141.597588 
L 82.015121 143.236583 
L 84.592211 146.003035 
L 85.994221 148.031332 
L 87.396231 150.701069 
L 88.798241 153.110698 
L 90.200251 154.97076 
L 91.602261 156.226074 
L 91.785153 156.348543 
L 93.333318 157.16804 
L 95.861845 157.987538 
L 97.210302 158.264015 
L 97.210302 158.264015 
" style="fill:none;stroke:#1f77b4;stroke-width:1.5;"/>
   </g>
   <g id="LineCollection_2">
    <path clip-path="url(#p0ae4a582ff)" d="M 107.024372 146.581075 
L 114.034422 146.867305 
L 116.838442 146.809252 
L 120.238068 146.514573 
L 123.848492 146.016726 
L 129.456533 145.229088 
L 135.064573 144.723002 
L 146.280653 143.906058 
L 151.888693 143.171045 
L 160.300754 141.902598 
L 165.908794 140.775092 
L 174.320854 138.8285 
L 183.237886 136.680603 
L 185.908531 135.861106 
L 188.340955 134.961146 
L 192.546985 133.119643 
L 198.155025 130.393702 
L 203.763065 127.535893 
L 209.371106 124.870902 
L 211.379254 123.568643 
L 213.34286 121.929648 
L 214.979146 120.245075 
L 216.216663 118.651658 
L 217.10862 117.012663 
L 217.783166 114.995803 
L 218.782541 112.095678 
L 219.96298 109.637186 
L 221.095184 107.178693 
L 221.503269 105.539698 
L 221.514439 103.900704 
L 221.349922 103.081206 
L 221.058387 102.261709 
L 220.587186 101.375013 
L 219.351147 99.803216 
L 218.511075 98.983719 
L 216.381156 97.197669 
L 209.208924 91.608241 
L 206.567085 90.103407 
L 203.763065 88.941488 
L 200.959045 88.144225 
L 189.742965 85.640362 
L 186.938945 85.247443 
L 184.134925 85.052261 
L 172.918844 84.639147 
L 170.114824 84.191295 
L 166.960113 83.413266 
L 161.702764 81.746871 
L 154.159026 79.315779 
L 147.682663 77.466056 
L 143.476633 76.622842 
L 136.466583 75.604647 
L 130.858543 74.971065 
L 125.011189 74.398794 
L 119.642462 73.574381 
L 114.034422 72.718847 
L 111.230402 72.473148 
L 109.828392 72.491094 
L 107.962965 72.759799 
L 107.024372 72.978336 
L 105.46482 73.579296 
L 103.912234 74.398794 
L 101.413507 76.037789 
L 96.922756 79.315779 
L 95.101227 80.954774 
L 93.68295 82.593769 
L 92.546803 84.232764 
L 91.132056 86.691256 
L 89.964085 89.149749 
L 88.798241 92.179973 
L 85.453668 101.442211 
L 84.881431 103.900704 
L 84.337406 107.178693 
L 84.069079 110.456683 
L 83.742974 114.554171 
L 83.202094 119.471156 
L 83.258994 121.929648 
L 83.53789 124.388141 
L 84.170116 127.666131 
L 85.285339 131.763618 
L 86.180134 134.222111 
L 86.962205 135.861106 
L 88.019035 137.500101 
L 89.438878 139.139095 
L 91.294351 140.77809 
L 93.004271 142.015467 
L 95.808291 143.67926 
L 98.612312 145.021223 
L 100.568236 145.695075 
L 101.416332 145.933576 
L 104.220352 146.374409 
L 107.024372 146.581075 
L 107.024372 146.581075 
" style="fill:none;stroke:#1f77b4;stroke-width:1.5;"/>
   </g>
   <g id="LineCollection_3">
    <path clip-path="url(#p0ae4a582ff)" d="M 111.230402 141.611798 
L 114.034422 141.845833 
L 116.838442 141.916375 
L 121.044472 141.77227 
L 130.858543 141.07654 
L 140.672613 140.183095 
L 149.084673 139.765715 
L 153.290704 139.245793 
L 158.898744 138.259605 
L 165.908794 136.753726 
L 171.516834 135.320433 
L 177.124874 133.66833 
L 180.137243 132.583116 
L 183.779599 130.944121 
L 193.805723 126.027136 
L 199.577433 122.749146 
L 202.361055 120.984242 
L 203.763065 119.825657 
L 204.135009 119.471156 
L 205.165075 118.137958 
L 205.797744 117.012663 
L 206.81832 114.554171 
L 207.598169 112.095678 
L 208.922848 106.359196 
L 209.009982 105.539698 
L 208.960626 104.720201 
L 208.726515 103.900704 
L 207.969095 102.686348 
L 207.630389 102.261709 
L 205.867971 100.622714 
L 203.760138 98.983719 
L 201.301298 97.344724 
L 199.678006 96.525226 
L 199.557035 96.471876 
L 197.026779 95.705729 
L 195.351005 95.411432 
L 188.340955 94.552494 
L 182.732915 93.501389 
L 178.526884 93.165927 
L 175.722864 92.887064 
L 172.918844 92.393666 
L 167.310804 91.086976 
L 163.104774 89.964878 
L 157.496734 88.274488 
L 154.692714 87.713825 
L 144.878643 86.217357 
L 140.672613 85.257205 
L 136.881608 84.232764 
L 135.064573 83.777947 
L 132.260553 83.270733 
L 126.169231 82.593769 
L 122.446482 82.1179 
L 118.240452 81.341133 
L 114.034422 80.49823 
L 111.230402 80.288681 
L 109.828392 80.359142 
L 108.426382 80.551886 
L 106.733579 80.954774 
L 104.408337 81.774271 
L 104.220352 81.849126 
L 102.713634 82.593769 
L 101.358004 83.413266 
L 99.255163 85.052261 
L 97.596698 86.691256 
L 96.250977 88.330251 
L 95.136996 89.969246 
L 93.004271 93.644471 
L 90.117221 98.983719 
L 89.417167 100.622714 
L 88.669132 103.081206 
L 88.174988 105.539698 
L 87.803894 108.817688 
L 87.095085 116.193166 
L 86.782679 119.471156 
L 86.844962 121.929648 
L 87.221298 124.388141 
L 87.831815 126.846633 
L 88.714138 129.305126 
L 89.896011 131.763618 
L 90.873976 133.402613 
L 92.079111 135.041608 
L 93.691369 136.680603 
L 94.748412 137.500101 
L 96.085393 138.319598 
L 97.899436 139.139095 
L 100.014322 139.819787 
L 102.818342 140.422441 
L 108.426382 141.274205 
L 111.230402 141.611798 
L 111.230402 141.611798 
" style="fill:none;stroke:#1f77b4;stroke-width:1.5;"/>
   </g>
   <g id="LineCollection_4">
    <path clip-path="url(#p0ae4a582ff)" d="M 112.632412 138.44101 
L 115.436432 138.616936 
L 118.240452 138.63451 
L 122.446482 138.425184 
L 129.456533 137.80135 
L 136.466583 137.157686 
L 140.672613 137.050863 
L 147.682663 137.016819 
L 151.220484 136.680603 
L 154.692714 136.094229 
L 159.332021 135.041608 
L 165.232066 133.402613 
L 170.234246 131.763618 
L 175.722864 129.734973 
L 180.612155 127.666131 
L 184.134925 125.931125 
L 188.340955 123.538962 
L 192.138857 121.110151 
L 193.948995 119.696416 
L 195.009977 118.651658 
L 195.65104 117.832161 
L 196.516408 116.193166 
L 197.264305 113.734673 
L 198.155025 110.312924 
L 198.270515 108.817688 
L 198.155025 107.940565 
L 197.931936 107.178693 
L 197.062683 105.539698 
L 196.4359 104.720201 
L 195.351005 103.636051 
L 193.948995 102.705015 
L 192.546985 102.108879 
L 189.742965 101.456578 
L 186.938945 101.083499 
L 179.928894 100.027761 
L 171.516834 98.649646 
L 168.712814 97.911891 
L 163.104774 96.044049 
L 157.496734 94.288716 
L 151.888693 92.681875 
L 147.682663 91.722361 
L 143.476633 91.026298 
L 126.652513 88.495536 
L 119.642462 87.079534 
L 115.436432 86.539579 
L 112.632412 86.312772 
L 109.828392 86.305305 
L 108.426382 86.44842 
L 107.024372 86.726367 
L 104.748072 87.510754 
L 104.220352 87.729757 
L 102.818342 88.484367 
L 100.747748 89.969246 
L 99.798044 90.788744 
L 97.210302 93.445598 
L 94.406281 96.881639 
L 93.004271 99.0438 
L 92.210646 100.622714 
L 91.602261 102.261709 
L 91.002326 104.720201 
L 90.53654 107.998191 
L 89.600008 117.012663 
L 89.43274 119.471156 
L 89.456512 121.110151 
L 89.636868 122.749146 
L 90.200251 125.224993 
L 90.756426 126.846633 
L 91.602261 128.632453 
L 92.561061 130.124623 
L 93.908772 131.763618 
L 94.707089 132.583116 
L 96.665257 134.222111 
L 97.928811 135.041608 
L 99.554076 135.861106 
L 101.416332 136.54971 
L 104.220352 137.248404 
L 108.426382 137.949727 
L 112.632412 138.44101 
L 112.632412 138.44101 
" style="fill:none;stroke:#1f77b4;stroke-width:1.5;"/>
   </g>
   <g id="LineCollection_5">
    <path clip-path="url(#p0ae4a582ff)" d="M 108.426382 135.194299 
L 111.230402 135.569515 
L 114.034422 135.769799 
L 116.838442 135.795852 
L 119.642462 135.643027 
L 123.848492 135.127031 
L 130.858543 134.132472 
L 135.064573 133.853083 
L 139.270603 133.820066 
L 147.682663 133.952649 
L 150.486683 133.705936 
L 153.290704 133.222071 
L 156.094724 132.532822 
L 161.263888 130.944121 
L 165.966537 129.305126 
L 170.114824 127.659901 
L 174.320854 125.801858 
L 177.124874 124.371925 
L 179.928894 122.61104 
L 185.696811 118.651658 
L 186.542601 117.832161 
L 187.124697 117.012663 
L 187.457823 116.193166 
L 187.731074 114.554171 
L 187.821054 112.095678 
L 187.677463 111.276181 
L 187.284256 110.456683 
L 186.40515 109.637186 
L 185.536935 109.180442 
L 184.134925 108.681123 
L 179.928894 107.776532 
L 177.124874 107.077377 
L 174.320854 105.978229 
L 169.662297 103.900704 
L 150.481131 96.525226 
L 147.271748 95.705729 
L 144.878643 95.279561 
L 137.868593 94.30583 
L 126.652513 92.097241 
L 115.436432 90.388465 
L 112.632412 90.252543 
L 109.828392 90.405565 
L 107.024372 90.960227 
L 105.182119 91.608241 
L 103.422594 92.427739 
L 101.994402 93.247236 
L 100.76251 94.066734 
L 99.663009 94.886231 
L 97.801511 96.525226 
L 96.311531 98.164221 
L 95.170451 99.803216 
L 94.338362 101.442211 
L 93.77517 103.081206 
L 93.229505 105.539698 
L 92.344473 111.276181 
L 92.01515 114.554171 
L 91.749283 119.471156 
L 91.810736 121.110151 
L 92.038941 122.749146 
L 92.448383 124.388141 
L 93.058983 126.027136 
L 93.978304 127.666131 
L 94.587547 128.485628 
L 95.808291 129.756592 
L 97.332596 130.944121 
L 100.014322 132.530611 
L 102.818342 133.751152 
L 105.622362 134.611857 
L 108.426382 135.194299 
L 108.426382 135.194299 
" style="fill:none;stroke:#1f77b4;stroke-width:1.5;"/>
   </g>
   <g id="LineCollection_6">
    <path clip-path="url(#p0ae4a582ff)" d="M 111.230402 132.748835 
L 114.034422 132.941023 
L 116.838442 132.867749 
L 119.642462 132.557448 
L 124.038859 131.763618 
L 128.054523 131.081003 
L 130.858543 130.796702 
L 135.064573 130.644658 
L 147.682663 130.486735 
L 150.987347 130.124623 
L 153.290704 129.722808 
L 156.094724 129.062188 
L 158.898744 128.238933 
L 161.702764 127.20413 
L 164.202461 126.027136 
L 166.922366 124.388141 
L 171.362069 121.110151 
L 172.918844 119.471156 
L 173.4295 118.651658 
L 173.759759 117.832161 
L 173.900822 117.012663 
L 173.844694 116.193166 
L 173.582693 115.373668 
L 172.918844 114.337985 
L 172.402901 113.734673 
L 170.519737 112.095678 
L 168.419475 110.456683 
L 165.075248 107.998191 
L 162.304577 106.359196 
L 158.898744 104.706121 
L 148.225101 99.803216 
L 146.280653 99.183837 
L 143.476633 98.586516 
L 133.662563 97.118592 
L 126.652513 95.452395 
L 122.446482 94.792275 
L 116.220315 94.066734 
L 114.034422 93.904014 
L 111.230402 93.883892 
L 108.426382 94.167743 
L 107.024372 94.449933 
L 105.516193 94.886231 
L 103.484774 95.705729 
L 101.946825 96.525226 
L 100.722854 97.344724 
L 99.710338 98.164221 
L 98.201076 99.803216 
L 97.171192 101.442211 
L 96.515125 103.081206 
L 95.808291 105.681094 
L 94.674325 111.276181 
L 94.387794 113.734673 
L 94.255252 117.012663 
L 94.320301 120.290653 
L 94.543126 121.929648 
L 94.977826 123.568643 
L 95.671217 125.207638 
L 96.177362 126.027136 
L 97.210302 127.266982 
L 98.612312 128.41324 
L 100.129707 129.305126 
L 102.818342 130.507951 
L 106.499161 131.763618 
L 108.426382 132.269233 
L 111.230402 132.748835 
L 111.230402 132.748835 
" style="fill:none;stroke:#1f77b4;stroke-width:1.5;"/>
   </g>
   <g id="LineCollection_7">
    <path clip-path="url(#p0ae4a582ff)" d="M 108.426382 129.317422 
L 111.230402 129.866289 
L 114.034422 130.083284 
L 116.838442 129.946313 
L 119.642462 129.510594 
L 126.652513 128.102507 
L 129.456533 127.794664 
L 133.662563 127.624162 
L 143.476633 127.463293 
L 147.682663 127.114229 
L 150.486683 126.693636 
L 153.429813 126.027136 
L 156.094724 125.091495 
L 157.496734 124.385206 
L 158.898744 123.343682 
L 159.506504 122.749146 
L 160.300754 121.648564 
L 160.607544 121.110151 
L 160.937852 120.290653 
L 161.252662 118.651658 
L 161.266421 117.012663 
L 161.099597 114.554171 
L 160.773441 112.915176 
L 160.300754 111.848586 
L 159.959878 111.276181 
L 158.898744 110.147571 
L 157.496734 109.147997 
L 156.094724 108.405381 
L 153.207113 107.178693 
L 149.084673 105.456015 
L 143.476633 102.8833 
L 140.672613 102.005752 
L 136.466583 101.163541 
L 132.260553 100.321732 
L 125.250503 98.692538 
L 121.044472 98.059037 
L 114.034422 97.384821 
L 111.230402 97.306599 
L 108.426382 97.526061 
L 107.024372 97.798246 
L 105.622362 98.203801 
L 103.906997 98.983719 
L 102.644102 99.803216 
L 101.416332 100.95586 
L 100.487801 102.261709 
L 99.663753 103.900704 
L 98.445831 107.178693 
L 97.504125 110.456683 
L 97.081269 112.915176 
L 96.946538 115.373668 
L 97.018293 117.832161 
L 97.311471 120.290653 
L 97.719084 121.929648 
L 98.386325 123.568643 
L 98.886155 124.388141 
L 100.014322 125.664254 
L 101.416332 126.700251 
L 102.818342 127.435827 
L 104.220352 128.019609 
L 107.024372 128.944028 
L 108.426382 129.317422 
L 108.426382 129.317422 
" style="fill:none;stroke:#1f77b4;stroke-width:1.5;"/>
   </g>
   <g id="LineCollection_8">
    <path clip-path="url(#p0ae4a582ff)" d="M 111.230402 127.033937 
L 114.034422 127.217834 
L 116.838442 127.003094 
L 119.642462 126.450881 
L 125.276893 125.207638 
L 128.054523 124.874207 
L 133.662563 124.607609 
L 137.868593 124.372267 
L 142.074623 123.896713 
L 144.878643 123.369383 
L 147.682663 122.519164 
L 149.084673 121.887431 
L 150.486683 120.990166 
L 151.888693 119.620718 
L 152.541507 118.651658 
L 153.25351 117.012663 
L 153.446366 116.193166 
L 153.532843 115.373668 
L 153.493391 114.554171 
L 153.290704 113.734673 
L 152.83018 112.915176 
L 151.888693 111.966201 
L 150.486683 111.116537 
L 148.942427 110.456683 
L 144.878643 109.176321 
L 141.294529 107.998191 
L 137.383743 106.359196 
L 135.064573 105.492869 
L 132.260553 104.703741 
L 122.446482 102.549098 
L 119.642462 102.137595 
L 115.436432 101.727233 
L 112.632412 101.604329 
L 109.828392 101.777328 
L 107.815071 102.261709 
L 107.024372 102.548439 
L 105.622362 103.333737 
L 104.058723 104.720201 
L 102.743005 106.359196 
L 101.338317 108.817688 
L 100.720151 110.456683 
L 100.273351 112.095678 
L 100.005013 113.734673 
L 99.930478 115.373668 
L 100.036768 117.012663 
L 100.355439 118.651658 
L 100.860212 120.290653 
L 101.591637 121.929648 
L 102.123325 122.749146 
L 102.818342 123.597862 
L 104.220352 124.716464 
L 105.622362 125.477466 
L 107.024372 126.043882 
L 109.828392 126.799222 
L 111.230402 127.033937 
L 111.230402 127.033937 
" style="fill:none;stroke:#1f77b4;stroke-width:1.5;"/>
   </g>
   <g id="LineCollection_9">
    <path clip-path="url(#p0ae4a582ff)" d="M 109.828392 123.789834 
L 111.230402 124.101065 
L 112.632412 124.258014 
L 114.034422 124.265971 
L 115.436432 124.136175 
L 116.838442 123.891698 
L 118.240452 123.569349 
L 118.243168 123.568643 
L 119.642462 123.166641 
L 121.044472 122.787016 
L 121.204012 122.749146 
L 122.446482 122.435414 
L 123.848492 122.173982 
L 125.250503 122.004543 
L 126.32322 121.929648 
L 126.652513 121.90499 
L 128.054523 121.847525 
L 129.456533 121.810749 
L 130.858543 121.76624 
L 132.260553 121.690304 
L 133.662563 121.564621 
L 135.064573 121.376352 
L 136.466583 121.11799 
L 136.50132 121.110151 
L 137.868593 120.727356 
L 139.184418 120.290653 
L 139.270603 120.25331 
L 140.672613 119.603876 
L 140.946994 119.471156 
L 142.074623 118.749424 
L 142.226937 118.651658 
L 143.118996 117.832161 
L 143.476633 117.250796 
L 143.625573 117.012663 
L 143.664438 116.193166 
L 143.476633 115.894895 
L 143.046363 115.373668 
L 142.074623 114.855564 
L 141.350445 114.554171 
L 140.672613 114.354512 
L 139.270603 113.970851 
L 138.425827 113.734673 
L 137.868593 113.593028 
L 136.466583 113.180589 
L 135.704223 112.915176 
L 135.064573 112.687777 
L 133.662563 112.095678 
L 132.260553 111.414452 
L 131.994317 111.276181 
L 130.858543 110.724451 
L 130.286573 110.456683 
L 129.456533 110.108403 
L 128.163883 109.637186 
L 128.054523 109.600901 
L 126.652513 109.189834 
L 125.250503 108.857049 
L 125.059794 108.817688 
L 123.848492 108.561407 
L 122.446482 108.297344 
L 121.044472 108.052003 
L 120.72524 107.998191 
L 119.642462 107.790511 
L 118.240452 107.526927 
L 116.838442 107.273088 
L 116.255835 107.178693 
L 115.436432 107.037426 
L 114.034422 106.856351 
L 112.632412 106.765737 
L 111.230402 106.799335 
L 109.828392 106.996285 
L 109.198404 107.178693 
L 108.426382 107.411415 
L 107.254051 107.998191 
L 107.024372 108.122375 
L 106.152807 108.817688 
L 105.622362 109.291852 
L 105.33848 109.637186 
L 104.741945 110.456683 
L 104.229403 111.276181 
L 104.220352 111.292798 
L 103.874556 112.095678 
L 103.583198 112.915176 
L 103.362739 113.734673 
L 103.224724 114.554171 
L 103.180504 115.373668 
L 103.2385 116.193166 
L 103.401127 117.012663 
L 103.662069 117.832161 
L 104.006148 118.651658 
L 104.220352 119.086214 
L 104.450042 119.471156 
L 104.989878 120.290653 
L 105.587074 121.110151 
L 105.622362 121.153064 
L 106.402388 121.929648 
L 107.024372 122.45294 
L 107.473239 122.749146 
L 108.426382 123.270072 
L 109.170565 123.568643 
L 109.828392 123.789834 
" style="fill:none;stroke:#1f77b4;stroke-width:1.5;"/>
   </g>
   <g id="LineCollection_10"/>
   <g id="patch_3">
    <path d="M 55.15 170.28 
L 55.15 7.2 
" style="fill:none;stroke:#cccccc;stroke-linecap:square;stroke-linejoin:miter;stroke-width:0.8;"/>
   </g>
   <g id="patch_4">
    <path d="M 334.15 170.28 
L 334.15 7.2 
" style="fill:none;stroke:#cccccc;stroke-linecap:square;stroke-linejoin:miter;stroke-width:0.8;"/>
   </g>
   <g id="patch_5">
    <path d="M 55.15 170.28 
L 334.15 170.28 
" style="fill:none;stroke:#cccccc;stroke-linecap:square;stroke-linejoin:miter;stroke-width:0.8;"/>
   </g>
   <g id="patch_6">
    <path d="M 55.15 7.2 
L 334.15 7.2 
" style="fill:none;stroke:#cccccc;stroke-linecap:square;stroke-linejoin:miter;stroke-width:0.8;"/>
   </g>
  </g>
 </g>
 <defs>
  <clipPath id="p0ae4a582ff">
   <rect height="163.08" width="279" x="55.15" y="7.2"/>
  </clipPath>
 </defs>
</svg>
