<svg class="main-svg" xmlns="http://www.w3.org/2000/svg" xmlns:xlink="http://www.w3.org/1999/xlink" width="600" height="350" style="" viewBox="0 0 600 350"><rect x="0" y="0" width="600" height="350" style="fill: rgb(255, 255, 255); fill-opacity: 1;"/><defs id="defs-2a209c"><g class="clips"><clipPath id="clip2a209cxyplot" class="plotclip"><rect width="375" height="289"/></clipPath><clipPath class="axesclip" id="clip2a209cx"><rect x="56" y="0" width="375" height="350"/></clipPath><clipPath class="axesclip" id="clip2a209cy"><rect x="0" y="10" width="600" height="289"/></clipPath><clipPath class="axesclip" id="clip2a209cxy"><rect x="56" y="10" width="375" height="289"/></clipPath></g><g class="gradients"/><g class="patterns"/></defs><g class="bglayer"><rect class="bg" x="56" y="10" width="375" height="289" style="fill: rgb(234, 234, 242); fill-opacity: 1; stroke-width: 0;"/></g><g class="layer-below"><g class="imagelayer"/><g class="shapelayer"/></g><g class="cartesianlayer"><g class="subplot xy"><g class="layer-subplot"><g class="shapelayer"/><g class="imagelayer"/></g><g class="gridlayer"><g class="x"><path class="xgrid crisp" transform="translate(116.47999999999999,0)" d="M0,10v289" style="stroke: rgb(255, 255, 255); stroke-opacity: 1; stroke-width: 1px;"/><path class="xgrid crisp" transform="translate(237.45,0)" d="M0,10v289" style="stroke: rgb(255, 255, 255); stroke-opacity: 1; stroke-width: 1px;"/><path class="xgrid crisp" transform="translate(358.42,0)" d="M0,10v289" style="stroke: rgb(255, 255, 255); stroke-opacity: 1; stroke-width: 1px;"/></g><g class="y"><path class="ygrid crisp" transform="translate(0,237.96)" d="M56,0h375" style="stroke: rgb(255, 255, 255); stroke-opacity: 1; stroke-width: 1px;"/><path class="ygrid crisp" transform="translate(0,176.92)" d="M56,0h375" style="stroke: rgb(255, 255, 255); stroke-opacity: 1; stroke-width: 1px;"/><path class="ygrid crisp" transform="translate(0,115.88)" d="M56,0h375" style="stroke: rgb(255, 255, 255); stroke-opacity: 1; stroke-width: 1px;"/><path class="ygrid crisp" transform="translate(0,54.84)" d="M56,0h375" style="stroke: rgb(255, 255, 255); stroke-opacity: 1; stroke-width: 1px;"/></g></g><g class="zerolinelayer"><path class="yzl zl crisp" transform="translate(0,299)" d="M56,0h375" style="stroke: rgb(255, 255, 255); stroke-opacity: 1; stroke-width: 1px;"/></g><path class="xlines-below"/><path class="ylines-below"/><g class="overlines-below"/><g class="xaxislayer-below"/><g class="yaxislayer-below"/><g class="overaxes-below"/><g class="plot" transform="translate(56,10)" clip-path="url(#clip2a209cxyplot)"><g class="scatterlayer mlayer"><g class="trace scatter tracef8db53" style="stroke-miterlimit: 2;"><g class="fills"><g><path class="js-fill" d="M375,289L0,289L0,287.12L60.48,286.69L66.53,286.68L181.45,283.69L187.5,283.92L205.65,284L211.69,283.97L229.84,283.55L235.89,283.36L254.03,283.6L260.08,283.61L308.47,282.52L314.52,282.44L332.66,282.17L338.71,282.27L350.81,282.11L356.85,282.55L375,282.37" style="fill: rgb(76, 114, 176); fill-opacity: 0.5; stroke-width: 0;"/></g><g><path class="js-fill" d="M0,286.16L42.34,283.69L48.39,280.41L54.44,277.98L60.48,277.16L66.53,279.95L72.58,281.16L84.68,280.82L90.73,280.17L96.77,279.51L102.82,280.33L114.92,278.26L120.97,275.48L145.16,272.83L151.21,271.1L157.26,270.3L163.31,268.34L169.35,266.18L175.4,265.62L193.55,265.68L199.6,264.72L205.65,262.78L211.69,262.05L223.79,258.83L229.84,256.48L235.89,255.34L241.94,254.97L254.03,251.67L260.08,248.88L266.13,246.95L272.18,243.47L278.23,242.35L284.27,242.35L290.32,241.2L296.37,242.07L302.42,238.38L308.47,237.04L314.52,234.02L320.56,225.94L332.66,209.71L338.71,202.56L344.76,196.53L350.81,194.37L356.85,189.62L362.9,182.79L368.95,172.46L375,168.68L375,282.37L356.85,282.55L350.81,282.11L338.71,282.27L332.66,282.17L314.52,282.44L308.47,282.52L260.08,283.61L254.03,283.6L235.89,283.36L229.84,283.55L211.69,283.97L205.65,284L187.5,283.92L181.45,283.69L66.53,286.68L60.48,286.69L0,287.12Z" style="fill: rgb(221, 132, 82); fill-opacity: 0.5; stroke-width: 0;"/></g></g><g class="errorbars"/><g class="lines"><path class="js-line" d="M0,287.12L60.48,286.69L66.53,286.68L181.45,283.69L187.5,283.92L205.65,284L211.69,283.97L229.84,283.55L235.89,283.36L254.03,283.6L260.08,283.61L308.47,282.52L314.52,282.44L332.66,282.17L338.71,282.27L350.81,282.11L356.85,282.55L375,282.37" style="vector-effect: non-scaling-stroke; fill: none; stroke: rgb(76, 114, 176); stroke-opacity: 1; stroke-width: 2px; opacity: 1;"/></g><g class="points"/><g class="text"/></g><g class="trace scatter tracef5dc78" style="stroke-miterlimit: 2;"><g class="fills"><g><path class="js-fill" d="M0,279.92L12.1,278.03L18.15,277.81L42.34,274.19L48.39,271.18L54.44,268.75L60.48,267.23L66.53,269.75L72.58,270.37L96.77,267.89L102.82,268.9L108.87,267.61L114.92,265.42L120.97,262.95L127.02,262.46L139.11,260.01L145.16,259.99L157.26,257.41L163.31,255.65L169.35,253L175.4,251.85L187.5,253.46L193.55,253.43L199.6,252.45L205.65,250.25L217.74,248.14L223.79,246.3L229.84,244.03L235.89,243.17L241.94,243.15L247.98,241.95L254.03,240.61L260.08,237.91L266.13,236.12L272.18,232.66L278.23,231.2L284.27,231.56L290.32,230.49L296.37,231.73L302.42,228.06L308.47,226.52L314.52,223.66L320.56,215.56L332.66,199.73L338.71,192.41L344.76,186.78L350.81,184.54L356.85,180.5L362.9,173.19L368.95,163.17L375,159.24L375,168.68L368.95,172.46L362.9,182.79L356.85,189.62L350.81,194.37L344.76,196.53L338.71,202.56L332.66,209.71L320.56,225.94L314.52,234.02L308.47,237.04L302.42,238.38L296.37,242.07L290.32,241.2L284.27,242.35L278.23,242.35L272.18,243.47L266.13,246.95L260.08,248.88L254.03,251.67L241.94,254.97L235.89,255.34L229.84,256.48L223.79,258.83L211.69,262.05L205.65,262.78L199.6,264.72L193.55,265.68L175.4,265.62L169.35,266.18L163.31,268.34L157.26,270.3L151.21,271.1L145.16,272.83L120.97,275.48L114.92,278.26L102.82,280.33L96.77,279.51L90.73,280.17L84.68,280.82L72.58,281.16L66.53,279.95L60.48,277.16L54.44,277.98L48.39,280.41L42.34,283.69L0,286.16Z" style="fill: rgb(85, 168, 104); fill-opacity: 0.5; stroke-width: 0;"/></g></g><g class="errorbars"/><g class="lines"><path class="js-line" d="M0,286.16L42.34,283.69L48.39,280.41L54.44,277.98L60.48,277.16L66.53,279.95L72.58,281.16L84.68,280.82L90.73,280.17L96.77,279.51L102.82,280.33L114.92,278.26L120.97,275.48L145.16,272.83L151.21,271.1L157.26,270.3L163.31,268.34L169.35,266.18L175.4,265.62L193.55,265.68L199.6,264.72L205.65,262.78L211.69,262.05L223.79,258.83L229.84,256.48L235.89,255.34L241.94,254.97L254.03,251.67L260.08,248.88L266.13,246.95L272.18,243.47L278.23,242.35L284.27,242.35L290.32,241.2L296.37,242.07L302.42,238.38L308.47,237.04L314.52,234.02L320.56,225.94L332.66,209.71L338.71,202.56L344.76,196.53L350.81,194.37L356.85,189.62L362.9,182.79L368.95,172.46L375,168.68" style="vector-effect: non-scaling-stroke; fill: none; stroke: rgb(221, 132, 82); stroke-opacity: 1; stroke-width: 2px; opacity: 1;"/></g><g class="points"/><g class="text"/></g><g class="trace scatter trace15e1bc" style="stroke-miterlimit: 2;"><g class="fills"><g><path class="js-fill" d="M0,279.11L12.1,277.13L18.15,276.89L42.34,272.98L48.39,269.91L54.44,267.41L60.48,265.75L66.53,268.16L72.58,268.62L96.77,265.81L102.82,266.81L114.92,263.11L120.97,260.59L133.06,258.63L139.11,257.37L145.16,257.15L151.21,255.87L163.31,252.31L169.35,249.83L175.4,248.43L181.45,249.01L193.55,249.13L199.6,247.86L205.65,245.22L211.69,244.13L223.79,240.09L229.84,237.42L235.89,236.05L241.94,235.64L254.03,232.22L260.08,229.26L266.13,226.99L272.18,222.79L278.23,220.79L284.27,220.6L290.32,219.34L296.37,219.75L302.42,215.49L308.47,213.73L314.52,210.42L320.56,201.94L332.66,184.28L338.71,175.76L344.76,168.59L350.81,165.28L356.85,158.77L362.9,150.47L368.95,139.37L375,133.9L375,159.24L368.95,163.17L362.9,173.19L356.85,180.5L350.81,184.54L344.76,186.78L338.71,192.41L332.66,199.73L320.56,215.56L314.52,223.66L308.47,226.52L302.42,228.06L296.37,231.73L290.32,230.49L284.27,231.56L278.23,231.2L272.18,232.66L266.13,236.12L260.08,237.91L254.03,240.61L247.98,241.95L241.94,243.15L235.89,243.17L229.84,244.03L223.79,246.3L217.74,248.14L205.65,250.25L199.6,252.45L193.55,253.43L187.5,253.46L175.4,251.85L169.35,253L163.31,255.65L157.26,257.41L145.16,259.99L139.11,260.01L127.02,262.46L120.97,262.95L114.92,265.42L108.87,267.61L102.82,268.9L96.77,267.89L72.58,270.37L66.53,269.75L60.48,267.23L54.44,268.75L48.39,271.18L42.34,274.19L18.15,277.81L12.1,278.03L0,279.92Z" style="fill: rgb(196, 78, 82); fill-opacity: 0.5; stroke-width: 0;"/></g></g><g class="errorbars"/><g class="lines"><path class="js-line" d="M0,279.92L12.1,278.03L18.15,277.81L42.34,274.19L48.39,271.18L54.44,268.75L60.48,267.23L66.53,269.75L72.58,270.37L96.77,267.89L102.82,268.9L108.87,267.61L114.92,265.42L120.97,262.95L127.02,262.46L139.11,260.01L145.16,259.99L157.26,257.41L163.31,255.65L169.35,253L175.4,251.85L187.5,253.46L193.55,253.43L199.6,252.45L205.65,250.25L217.74,248.14L223.79,246.3L229.84,244.03L235.89,243.17L241.94,243.15L247.98,241.95L254.03,240.61L260.08,237.91L266.13,236.12L272.18,232.66L278.23,231.2L284.27,231.56L290.32,230.49L296.37,231.73L302.42,228.06L308.47,226.52L314.52,223.66L320.56,215.56L332.66,199.73L338.71,192.41L344.76,186.78L350.81,184.54L356.85,180.5L362.9,173.19L368.95,163.17L375,159.24" style="vector-effect: non-scaling-stroke; fill: none; stroke: rgb(85, 168, 104); stroke-opacity: 1; stroke-width: 2px; opacity: 1;"/></g><g class="points"/><g class="text"/></g><g class="trace scatter trace33b1ee" style="stroke-miterlimit: 2;"><g class="fills"><g><path class="js-fill" d="M0,279.18L12.1,277.08L18.15,276.84L30.24,274.7L36.29,273.52L42.34,272.82L48.39,269.72L60.48,265.45L66.53,267.89L72.58,268.36L78.63,267.45L96.77,265.44L102.82,266.42L114.92,262.62L120.97,259.91L127.02,259.39L133.06,258.04L139.11,256.67L145.16,256.36L157.26,253.12L163.31,251.15L169.35,248.64L175.4,247.16L187.5,248.08L193.55,247.48L199.6,245.99L205.65,243.37L217.74,240.52L223.79,238.13L229.84,235.44L235.89,233.9L241.94,233.35L247.98,231.16L254.03,229.25L260.08,226.32L266.13,223.7L272.18,219.36L278.23,217.25L284.27,216.9L290.32,215.61L296.37,215.69L302.42,211.26L308.47,209.36L314.52,205.84L320.56,197.09L332.66,178.67L338.71,169.63L344.76,162.02L350.81,158.56L356.85,151.83L362.9,143.56L368.95,132.2L375,126.65L375,133.9L368.95,139.37L362.9,150.47L356.85,158.77L350.81,165.28L344.76,168.59L338.71,175.76L332.66,184.28L320.56,201.94L314.52,210.42L308.47,213.73L302.42,215.49L296.37,219.75L290.32,219.34L284.27,220.6L278.23,220.79L272.18,222.79L266.13,226.99L260.08,229.26L254.03,232.22L241.94,235.64L235.89,236.05L229.84,237.42L223.79,240.09L211.69,244.13L205.65,245.22L199.6,247.86L193.55,249.13L181.45,249.01L175.4,248.43L169.35,249.83L163.31,252.31L151.21,255.87L145.16,257.15L139.11,257.37L133.06,258.63L120.97,260.59L114.92,263.11L102.82,266.81L96.77,265.81L72.58,268.62L66.53,268.16L60.48,265.75L54.44,267.41L48.39,269.91L42.34,272.98L18.15,276.89L12.1,277.13L0,279.11Z" style="fill: rgb(129, 114, 179); fill-opacity: 0.5; stroke-width: 0;"/></g></g><g class="errorbars"/><g class="lines"><path class="js-line" d="M0,279.11L12.1,277.13L18.15,276.89L42.34,272.98L48.39,269.91L54.44,267.41L60.48,265.75L66.53,268.16L72.58,268.62L96.77,265.81L102.82,266.81L114.92,263.11L120.97,260.59L133.06,258.63L139.11,257.37L145.16,257.15L151.21,255.87L163.31,252.31L169.35,249.83L175.4,248.43L181.45,249.01L193.55,249.13L199.6,247.86L205.65,245.22L211.69,244.13L223.79,240.09L229.84,237.42L235.89,236.05L241.94,235.64L254.03,232.22L260.08,229.26L266.13,226.99L272.18,222.79L278.23,220.79L284.27,220.6L290.32,219.34L296.37,219.75L302.42,215.49L308.47,213.73L314.52,210.42L320.56,201.94L332.66,184.28L338.71,175.76L344.76,168.59L350.81,165.28L356.85,158.77L362.9,150.47L368.95,139.37L375,133.9" style="vector-effect: non-scaling-stroke; fill: none; stroke: rgb(196, 78, 82); stroke-opacity: 1; stroke-width: 2px; opacity: 1;"/></g><g class="points"/><g class="text"/></g><g class="trace scatter traceb89f2d" style="stroke-miterlimit: 2;"><g class="fills"><g><path class="js-fill" d="M0,277.92L6.05,276.29L12.1,275.49L24.19,274.27L30.24,272.97L42.34,270.52L48.39,267.51L60.48,262.61L66.53,264.44L72.58,264.78L78.63,263.48L96.77,260.32L102.82,260.45L108.87,257.97L114.92,254.64L120.97,250.53L127.02,249.77L133.06,247.89L139.11,245.11L145.16,244.99L151.21,244.11L175.4,235.26L181.45,236.37L187.5,237.11L193.55,236.83L199.6,235.25L205.65,231.92L217.74,229.38L223.79,226.9L229.84,223.34L235.89,221.45L241.94,219.93L247.98,217.62L254.03,215.6L260.08,212.73L266.13,209.44L272.18,204.94L278.23,202.63L284.27,202.33L296.37,201.09L302.42,196.48L308.47,194.78L314.52,190.84L344.76,146.61L350.81,144.22L356.85,138.24L362.9,129.4L368.95,117.45L375,111.4L375,126.65L368.95,132.2L362.9,143.56L356.85,151.83L350.81,158.56L344.76,162.02L338.71,169.63L332.66,178.67L320.56,197.09L314.52,205.84L308.47,209.36L302.42,211.26L296.37,215.69L290.32,215.61L284.27,216.9L278.23,217.25L272.18,219.36L266.13,223.7L260.08,226.32L254.03,229.25L247.98,231.16L241.94,233.35L235.89,233.9L229.84,235.44L223.79,238.13L217.74,240.52L205.65,243.37L199.6,245.99L193.55,247.48L187.5,248.08L175.4,247.16L169.35,248.64L163.31,251.15L157.26,253.12L145.16,256.36L139.11,256.67L133.06,258.04L127.02,259.39L120.97,259.91L114.92,262.62L102.82,266.42L96.77,265.44L78.63,267.45L72.58,268.36L66.53,267.89L60.48,265.45L48.39,269.72L42.34,272.82L36.29,273.52L30.24,274.7L18.15,276.84L12.1,277.08L0,279.18Z" style="fill: rgb(147, 120, 96); fill-opacity: 0.5; stroke-width: 0;"/></g></g><g class="errorbars"/><g class="lines"><path class="js-line" d="M0,279.18L12.1,277.08L18.15,276.84L30.24,274.7L36.29,273.52L42.34,272.82L48.39,269.72L60.48,265.45L66.53,267.89L72.58,268.36L78.63,267.45L96.77,265.44L102.82,266.42L114.92,262.62L120.97,259.91L127.02,259.39L133.06,258.04L139.11,256.67L145.16,256.36L157.26,253.12L163.31,251.15L169.35,248.64L175.4,247.16L187.5,248.08L193.55,247.48L199.6,245.99L205.65,243.37L217.74,240.52L223.79,238.13L229.84,235.44L235.89,233.9L241.94,233.35L247.98,231.16L254.03,229.25L260.08,226.32L266.13,223.7L272.18,219.36L278.23,217.25L284.27,216.9L290.32,215.61L296.37,215.69L302.42,211.26L308.47,209.36L314.52,205.84L320.56,197.09L332.66,178.67L338.71,169.63L344.76,162.02L350.81,158.56L356.85,151.83L362.9,143.56L368.95,132.2L375,126.65" style="vector-effect: non-scaling-stroke; fill: none; stroke: rgb(129, 114, 179); stroke-opacity: 1; stroke-width: 2px; opacity: 1;"/></g><g class="points"/><g class="text"/></g><g class="trace scatter trace8cc1b2" style="stroke-miterlimit: 2;"><g class="fills"><g><path class="js-fill" d="M0,277.9L6.05,276.25L12.1,275.45L24.19,274.21L30.24,272.89L42.34,270.42L48.39,267.4L60.48,262.46L66.53,264.26L72.58,264.57L78.63,263.22L96.77,259.95L102.82,260.02L108.87,257.52L114.92,254.12L120.97,249.87L127.02,249.09L133.06,247.2L139.11,244.24L145.16,244.08L151.21,243.12L175.4,233.69L181.45,234.75L187.5,235.43L193.55,235.14L199.6,233.45L205.65,229.98L217.74,227.29L223.79,224.72L229.84,220.85L235.89,218.82L247.98,214.31L254.03,211.95L266.13,205.12L272.18,200.22L278.23,197.59L284.27,196.99L290.32,196.92L296.37,196.09L302.42,190.82L308.47,188.95L314.52,185.05L320.56,176.17L326.61,166.08L332.66,157.46L344.76,140.3L350.81,137.78L356.85,131.65L362.9,122.22L368.95,109.95L375,103.87L375,111.4L368.95,117.45L362.9,129.4L356.85,138.24L350.81,144.22L344.76,146.61L314.52,190.84L308.47,194.78L302.42,196.48L296.37,201.09L284.27,202.33L278.23,202.63L272.18,204.94L266.13,209.44L260.08,212.73L254.03,215.6L247.98,217.62L241.94,219.93L235.89,221.45L229.84,223.34L223.79,226.9L217.74,229.38L205.65,231.92L199.6,235.25L193.55,236.83L187.5,237.11L181.45,236.37L175.4,235.26L151.21,244.11L145.16,244.99L139.11,245.11L133.06,247.89L127.02,249.77L120.97,250.53L114.92,254.64L108.87,257.97L102.82,260.45L96.77,260.32L78.63,263.48L72.58,264.78L66.53,264.44L60.48,262.61L48.39,267.51L42.34,270.52L30.24,272.97L24.19,274.27L12.1,275.49L6.05,276.29L0,277.92Z" style="fill: rgb(218, 139, 195); fill-opacity: 0.5; stroke-width: 0;"/></g></g><g class="errorbars"/><g class="lines"><path class="js-line" d="M0,277.92L6.05,276.29L12.1,275.49L24.19,274.27L30.24,272.97L42.34,270.52L48.39,267.51L60.48,262.61L66.53,264.44L72.58,264.78L78.63,263.48L96.77,260.32L102.82,260.45L108.87,257.97L114.92,254.64L120.97,250.53L127.02,249.77L133.06,247.89L139.11,245.11L145.16,244.99L151.21,244.11L175.4,235.26L181.45,236.37L187.5,237.11L193.55,236.83L199.6,235.25L205.65,231.92L217.74,229.38L223.79,226.9L229.84,223.34L235.89,221.45L241.94,219.93L247.98,217.62L254.03,215.6L260.08,212.73L266.13,209.44L272.18,204.94L278.23,202.63L284.27,202.33L296.37,201.09L302.42,196.48L308.47,194.78L314.52,190.84L344.76,146.61L350.81,144.22L356.85,138.24L362.9,129.4L368.95,117.45L375,111.4" style="vector-effect: non-scaling-stroke; fill: none; stroke: rgb(147, 120, 96); stroke-opacity: 1; stroke-width: 2px; opacity: 1;"/></g><g class="points"/><g class="text"/></g><g class="trace scatter trace1edc3d" style="stroke-miterlimit: 2;"><g class="fills"><g><path class="js-fill" d="M0,272.8L6.05,270.72L12.1,269.53L24.19,267.37L30.24,265.13L42.34,261.12L48.39,257.47L60.48,251.59L66.53,253.05L72.58,252.8L78.63,250.6L96.77,244.91L102.82,244.29L108.87,241.35L114.92,237.28L120.97,232.16L127.02,230.46L133.06,227.57L139.11,223.81L145.16,222.87L151.21,220.83L169.35,210.95L175.4,208.64L181.45,208.71L187.5,209.88L193.55,209.1L199.6,206.98L211.69,200.16L217.74,198.38L229.84,189.99L235.89,188.6L241.94,189.79L247.98,187.29L260.08,186.11L266.13,185.22L272.18,180.97L278.23,178.78L290.32,179.47L296.37,178.14L302.42,172.35L308.47,170.44L314.52,166.56L320.56,157.27L326.61,147.07L332.66,138.38L338.71,128.7L344.76,120.45L350.81,117.67L356.85,112.9L362.9,102.25L368.95,89.04L375,82.85L375,103.87L368.95,109.95L362.9,122.22L356.85,131.65L350.81,137.78L344.76,140.3L332.66,157.46L326.61,166.08L320.56,176.17L314.52,185.05L308.47,188.95L302.42,190.82L296.37,196.09L290.32,196.92L284.27,196.99L278.23,197.59L272.18,200.22L266.13,205.12L254.03,211.95L247.98,214.31L235.89,218.82L229.84,220.85L223.79,224.72L217.74,227.29L205.65,229.98L199.6,233.45L193.55,235.14L187.5,235.43L181.45,234.75L175.4,233.69L151.21,243.12L145.16,244.08L139.11,244.24L133.06,247.2L127.02,249.09L120.97,249.87L114.92,254.12L108.87,257.52L102.82,260.02L96.77,259.95L78.63,263.22L72.58,264.57L66.53,264.26L60.48,262.46L48.39,267.4L42.34,270.42L30.24,272.89L24.19,274.21L12.1,275.45L6.05,276.25L0,277.9Z" style="fill: rgb(140, 140, 140); fill-opacity: 0.5; stroke-width: 0;"/></g></g><g class="errorbars"/><g class="lines"><path class="js-line" d="M0,277.9L6.05,276.25L12.1,275.45L24.19,274.21L30.24,272.89L42.34,270.42L48.39,267.4L60.48,262.46L66.53,264.26L72.58,264.57L78.63,263.22L96.77,259.95L102.82,260.02L108.87,257.52L114.92,254.12L120.97,249.87L127.02,249.09L133.06,247.2L139.11,244.24L145.16,244.08L151.21,243.12L175.4,233.69L181.45,234.75L187.5,235.43L193.55,235.14L199.6,233.45L205.65,229.98L217.74,227.29L223.79,224.72L229.84,220.85L235.89,218.82L247.98,214.31L254.03,211.95L266.13,205.12L272.18,200.22L278.23,197.59L284.27,196.99L290.32,196.92L296.37,196.09L302.42,190.82L308.47,188.95L314.52,185.05L320.56,176.17L326.61,166.08L332.66,157.46L344.76,140.3L350.81,137.78L356.85,131.65L362.9,122.22L368.95,109.95L375,103.87" style="vector-effect: non-scaling-stroke; fill: none; stroke: rgb(218, 139, 195); stroke-opacity: 1; stroke-width: 2px; opacity: 1;"/></g><g class="points"/><g class="text"/></g><g class="trace scatter trace487195" style="stroke-miterlimit: 2;"><g class="fills"><g><path class="js-fill" d="M0,272.73L6.05,270.73L12.1,269.53L24.19,267.35L30.24,265.11L42.34,261.09L48.39,257.43L60.48,251.55L66.53,253L72.58,252.73L78.63,250.51L96.77,244.83L102.82,244.21L108.87,241.24L114.92,237.14L120.97,231.96L127.02,230.3L133.06,227.39L139.11,223.59L145.16,222.62L151.21,220.55L175.4,207.73L181.45,206.63L187.5,207.83L193.55,206.98L199.6,204.86L205.65,201.38L211.69,198.55L217.74,196.67L229.84,187.98L235.89,186.59L241.94,187.76L247.98,185.01L260.08,183.57L266.13,182.54L272.18,178.24L278.23,175.9L284.27,176.76L290.32,176.64L296.37,175.25L302.42,169.34L308.47,167.37L314.52,163.28L344.76,116.2L350.81,113.06L356.85,108.06L362.9,96.92L368.95,83.5L375,76.99L375,82.85L368.95,89.04L362.9,102.25L356.85,112.9L350.81,117.67L344.76,120.45L338.71,128.7L332.66,138.38L326.61,147.07L320.56,157.27L314.52,166.56L308.47,170.44L302.42,172.35L296.37,178.14L290.32,179.47L278.23,178.78L272.18,180.97L266.13,185.22L260.08,186.11L247.98,187.29L241.94,189.79L235.89,188.6L229.84,189.99L217.74,198.38L211.69,200.16L199.6,206.98L193.55,209.1L187.5,209.88L181.45,208.71L175.4,208.64L169.35,210.95L151.21,220.83L145.16,222.87L139.11,223.81L133.06,227.57L127.02,230.46L120.97,232.16L114.92,237.28L108.87,241.35L102.82,244.29L96.77,244.91L78.63,250.6L72.58,252.8L66.53,253.05L60.48,251.59L48.39,257.47L42.34,261.12L30.24,265.13L24.19,267.37L12.1,269.53L6.05,270.72L0,272.8Z" style="fill: rgb(204, 185, 116); fill-opacity: 0.5; stroke-width: 0;"/></g></g><g class="errorbars"/><g class="lines"><path class="js-line" d="M0,272.8L6.05,270.72L12.1,269.53L24.19,267.37L30.24,265.13L42.34,261.12L48.39,257.47L60.48,251.59L66.53,253.05L72.58,252.8L78.63,250.6L96.77,244.91L102.82,244.29L108.87,241.35L114.92,237.28L120.97,232.16L127.02,230.46L133.06,227.57L139.11,223.81L145.16,222.87L151.21,220.83L169.35,210.95L175.4,208.64L181.45,208.71L187.5,209.88L193.55,209.1L199.6,206.98L211.69,200.16L217.74,198.38L229.84,189.99L235.89,188.6L241.94,189.79L247.98,187.29L260.08,186.11L266.13,185.22L272.18,180.97L278.23,178.78L290.32,179.47L296.37,178.14L302.42,172.35L308.47,170.44L314.52,166.56L320.56,157.27L326.61,147.07L332.66,138.38L338.71,128.7L344.76,120.45L350.81,117.67L356.85,112.9L362.9,102.25L368.95,89.04L375,82.85" style="vector-effect: non-scaling-stroke; fill: none; stroke: rgb(140, 140, 140); stroke-opacity: 1; stroke-width: 2px; opacity: 1;"/></g><g class="points"/><g class="text"/></g><g class="trace scatter trace753844" style="stroke-miterlimit: 2;"><g class="fills"><g><path class="js-fill" d="M0,242.3L6.05,239.36L12.1,239.02L18.15,237.46L24.19,237.52L30.24,232.39L36.29,228.69L42.34,227.09L48.39,224.38L60.48,216.66L66.53,218.21L72.58,216.57L78.63,212.72L96.77,201.63L102.82,199.45L108.87,194.85L114.92,188.39L120.97,179.48L127.02,177.47L139.11,165.76L145.16,166.64L151.21,166.93L157.26,160.41L163.31,154.71L169.35,150.81L175.4,147.82L181.45,149.21L193.55,153.27L199.6,151.48L205.65,145.67L211.69,142.55L217.74,140.96L223.79,135.22L229.84,127.89L235.89,125.79L241.94,127.79L247.98,125.45L254.03,124.35L260.08,121.83L266.13,119.79L272.18,114.84L278.23,110.48L284.27,109.15L290.32,109.16L296.37,107.43L302.42,99.18L308.47,97.44L314.52,94.23L320.56,83.86L326.61,72.39L332.66,63.39L344.76,45.18L350.81,44.23L356.85,44.29L362.9,30.15L368.95,18.38L375,14.45L375,76.99L368.95,83.5L362.9,96.92L356.85,108.06L350.81,113.06L344.76,116.2L314.52,163.28L308.47,167.37L302.42,169.34L296.37,175.25L290.32,176.64L284.27,176.76L278.23,175.9L272.18,178.24L266.13,182.54L260.08,183.57L247.98,185.01L241.94,187.76L235.89,186.59L229.84,187.98L217.74,196.67L211.69,198.55L205.65,201.38L199.6,204.86L193.55,206.98L187.5,207.83L181.45,206.63L175.4,207.73L151.21,220.55L145.16,222.62L139.11,223.59L133.06,227.39L127.02,230.3L120.97,231.96L114.92,237.14L108.87,241.24L102.82,244.21L96.77,244.83L78.63,250.51L72.58,252.73L66.53,253L60.48,251.55L48.39,257.43L42.34,261.09L30.24,265.11L24.19,267.35L12.1,269.53L6.05,270.73L0,272.73Z" style="fill: rgb(100, 181, 205); fill-opacity: 0.5; stroke-width: 0;"/></g></g><g class="errorbars"/><g class="lines"><path class="js-line" d="M0,272.73L6.05,270.73L12.1,269.53L24.19,267.35L30.24,265.11L42.34,261.09L48.39,257.43L60.48,251.55L66.53,253L72.58,252.73L78.63,250.51L96.77,244.83L102.82,244.21L108.87,241.24L114.92,237.14L120.97,231.96L127.02,230.3L133.06,227.39L139.11,223.59L145.16,222.62L151.21,220.55L175.4,207.73L181.45,206.63L187.5,207.83L193.55,206.98L199.6,204.86L205.65,201.38L211.69,198.55L217.74,196.67L229.84,187.98L235.89,186.59L241.94,187.76L247.98,185.01L260.08,183.57L266.13,182.54L272.18,178.24L278.23,175.9L284.27,176.76L290.32,176.64L296.37,175.25L302.42,169.34L308.47,167.37L314.52,163.28L344.76,116.2L350.81,113.06L356.85,108.06L362.9,96.92L368.95,83.5L375,76.99" style="vector-effect: non-scaling-stroke; fill: none; stroke: rgb(204, 185, 116); stroke-opacity: 1; stroke-width: 2px; opacity: 1;"/></g><g class="points"/><g class="text"/></g><g class="trace scatter trace0f38d9" style="stroke-miterlimit: 2;"><g class="fills"/><g class="errorbars"/><g class="lines"><path class="js-line" d="M0,242.3L6.05,239.36L12.1,239.02L18.15,237.46L24.19,237.52L30.24,232.39L36.29,228.69L42.34,227.09L48.39,224.38L60.48,216.66L66.53,218.21L72.58,216.57L78.63,212.72L96.77,201.63L102.82,199.45L108.87,194.85L114.92,188.39L120.97,179.48L127.02,177.47L139.11,165.76L145.16,166.64L151.21,166.93L157.26,160.41L163.31,154.71L169.35,150.81L175.4,147.82L181.45,149.21L193.55,153.27L199.6,151.48L205.65,145.67L211.69,142.55L217.74,140.96L223.79,135.22L229.84,127.89L235.89,125.79L241.94,127.79L247.98,125.45L254.03,124.35L260.08,121.83L266.13,119.79L272.18,114.84L278.23,110.48L284.27,109.15L290.32,109.16L296.37,107.43L302.42,99.18L308.47,97.44L314.52,94.23L320.56,83.86L326.61,72.39L332.66,63.39L344.76,45.18L350.81,44.23L356.85,44.29L362.9,30.15L368.95,18.38L375,14.45" style="vector-effect: non-scaling-stroke; fill: none; stroke: rgb(100, 181, 205); stroke-opacity: 1; stroke-width: 2px; opacity: 1;"/></g><g class="points"/><g class="text"/></g></g></g><g class="overplot"/><path class="xlines-above crisp" d="M0,0" style="fill: none;"/><path class="ylines-above crisp" d="M0,0" style="fill: none;"/><g class="overlines-above"/><g class="xaxislayer-above"><g class="xtick"><text text-anchor="middle" x="0" y="312" transform="translate(116.47999999999999,0)" style="font-family: 'Open Sans', verdana, arial, sans-serif; font-size: 12px; fill: rgb(36, 36, 36); fill-opacity: 1; white-space: pre; opacity: 1;">1960</text></g><g class="xtick"><text text-anchor="middle" x="0" y="312" style="font-family: 'Open Sans', verdana, arial, sans-serif; font-size: 12px; fill: rgb(36, 36, 36); fill-opacity: 1; white-space: pre; opacity: 1;" transform="translate(237.45,0)">1980</text></g><g class="xtick"><text text-anchor="middle" x="0" y="312" style="font-family: 'Open Sans', verdana, arial, sans-serif; font-size: 12px; fill: rgb(36, 36, 36); fill-opacity: 1; white-space: pre; opacity: 1;" transform="translate(358.42,0)">2000</text></g></g><g class="yaxislayer-above"><g class="ytick"><text text-anchor="end" x="55" y="4.199999999999999" transform="translate(0,299)" style="font-family: 'Open Sans', verdana, arial, sans-serif; font-size: 12px; fill: rgb(36, 36, 36); fill-opacity: 1; white-space: pre; opacity: 1;">0</text></g><g class="ytick"><text text-anchor="end" x="55" y="4.199999999999999" style="font-family: 'Open Sans', verdana, arial, sans-serif; font-size: 12px; fill: rgb(36, 36, 36); fill-opacity: 1; white-space: pre; opacity: 1;" transform="translate(0,237.96)">5k</text></g><g class="ytick"><text text-anchor="end" x="55" y="4.199999999999999" style="font-family: 'Open Sans', verdana, arial, sans-serif; font-size: 12px; fill: rgb(36, 36, 36); fill-opacity: 1; white-space: pre; opacity: 1;" transform="translate(0,176.92)">10k</text></g><g class="ytick"><text text-anchor="end" x="55" y="4.199999999999999" style="font-family: 'Open Sans', verdana, arial, sans-serif; font-size: 12px; fill: rgb(36, 36, 36); fill-opacity: 1; white-space: pre; opacity: 1;" transform="translate(0,115.88)">15k</text></g><g class="ytick"><text text-anchor="end" x="55" y="4.199999999999999" style="font-family: 'Open Sans', verdana, arial, sans-serif; font-size: 12px; fill: rgb(36, 36, 36); fill-opacity: 1; white-space: pre; opacity: 1;" transform="translate(0,54.84)">20k</text></g></g><g class="overaxes-above"/></g></g><g class="polarlayer"/><g class="smithlayer"/><g class="ternarylayer"/><g class="geolayer"/><g class="funnelarealayer"/><g class="pielayer"/><g class="iciclelayer"/><g class="treemaplayer"/><g class="sunburstlayer"/><g class="glimages"/><defs id="topdefs-2a209c"><g class="clips"/><clipPath id="legend2a209c"><rect width="152" height="219" x="0" y="0"/></clipPath></defs><g class="layer-above"><g class="imagelayer"/><g class="shapelayer"/></g><g class="infolayer"><g class="legend" pointer-events="all" transform="translate(438.5,10)"><rect class="bg" shape-rendering="crispEdges" style="stroke: rgb(68, 68, 68); stroke-opacity: 1; fill: rgb(255, 255, 255); fill-opacity: 1; stroke-width: 0px;" width="152" height="219" x="0" y="0"/><g class="scrollbox" transform="" clip-path="url(#legend2a209c)"><text class="legendtitletext" text-anchor="start" x="2" y="18.2" style="font-family: 'Open Sans', verdana, arial, sans-serif; font-size: 14px; fill: rgb(36, 36, 36); fill-opacity: 1; white-space: pre;">Country</text><g class="groups" transform=""><g class="traces" transform="translate(0,32.7)" style="opacity: 1;"><text class="legendtext" text-anchor="start" x="40" y="4.680000000000001" style="font-family: 'Open Sans', verdana, arial, sans-serif; font-size: 12px; fill: rgb(36, 36, 36); fill-opacity: 1; white-space: pre;">Canada</text><g class="layers"><g class="legendfill"><path class="js-fill" d="M5,-2h30v6h-30z" style="stroke-width: 0; fill: rgb(76, 114, 176); fill-opacity: 0.5;"/></g><g class="legendlines"><path class="js-line" d="M5,-2h30" style="fill: none; stroke: rgb(76, 114, 176); stroke-opacity: 1; stroke-width: 2px;"/></g><g class="legendsymbols"><g class="legendpoints"/></g></g><rect class="legendtoggle" x="0" y="-9.5" width="146.90625" height="19" style="fill: rgb(0, 0, 0); fill-opacity: 0;"/></g></g><g class="groups" transform=""><g class="traces" transform="translate(0,51.7)" style="opacity: 1;"><text class="legendtext" text-anchor="start" x="40" y="4.680000000000001" style="font-family: 'Open Sans', verdana, arial, sans-serif; font-size: 12px; fill: rgb(36, 36, 36); fill-opacity: 1; white-space: pre;">China</text><g class="layers"><g class="legendfill"><path class="js-fill" d="M5,-2h30v6h-30z" style="stroke-width: 0; fill: rgb(221, 132, 82); fill-opacity: 0.5;"/></g><g class="legendlines"><path class="js-line" d="M5,-2h30" style="fill: none; stroke: rgb(221, 132, 82); stroke-opacity: 1; stroke-width: 2px;"/></g><g class="legendsymbols"><g class="legendpoints"/></g></g><rect class="legendtoggle" x="0" y="-9.5" width="146.90625" height="19" style="fill: rgb(0, 0, 0); fill-opacity: 0;"/></g></g><g class="groups" transform=""><g class="traces" transform="translate(0,70.7)" style="opacity: 1;"><text class="legendtext" text-anchor="start" x="40" y="4.680000000000001" style="font-family: 'Open Sans', verdana, arial, sans-serif; font-size: 12px; fill: rgb(36, 36, 36); fill-opacity: 1; white-space: pre;">Germany</text><g class="layers"><g class="legendfill"><path class="js-fill" d="M5,-2h30v6h-30z" style="stroke-width: 0; fill: rgb(85, 168, 104); fill-opacity: 0.5;"/></g><g class="legendlines"><path class="js-line" d="M5,-2h30" style="fill: none; stroke: rgb(85, 168, 104); stroke-opacity: 1; stroke-width: 2px;"/></g><g class="legendsymbols"><g class="legendpoints"/></g></g><rect class="legendtoggle" x="0" y="-9.5" width="146.90625" height="19" style="fill: rgb(0, 0, 0); fill-opacity: 0;"/></g></g><g class="groups" transform=""><g class="traces" transform="translate(0,89.7)" style="opacity: 1;"><text class="legendtext" text-anchor="start" x="40" y="4.680000000000001" style="font-family: 'Open Sans', verdana, arial, sans-serif; font-size: 12px; fill: rgb(36, 36, 36); fill-opacity: 1; white-space: pre;">India</text><g class="layers"><g class="legendfill"><path class="js-fill" d="M5,-2h30v6h-30z" style="stroke-width: 0; fill: rgb(196, 78, 82); fill-opacity: 0.5;"/></g><g class="legendlines"><path class="js-line" d="M5,-2h30" style="fill: none; stroke: rgb(196, 78, 82); stroke-opacity: 1; stroke-width: 2px;"/></g><g class="legendsymbols"><g class="legendpoints"/></g></g><rect class="legendtoggle" x="0" y="-9.5" width="146.90625" height="19" style="fill: rgb(0, 0, 0); fill-opacity: 0;"/></g></g><g class="groups" transform=""><g class="traces" transform="translate(0,108.7)" style="opacity: 1;"><text class="legendtext" text-anchor="start" x="40" y="4.680000000000001" style="font-family: 'Open Sans', verdana, arial, sans-serif; font-size: 12px; fill: rgb(36, 36, 36); fill-opacity: 1; white-space: pre;">Iran</text><g class="layers"><g class="legendfill"><path class="js-fill" d="M5,-2h30v6h-30z" style="stroke-width: 0; fill: rgb(129, 114, 179); fill-opacity: 0.5;"/></g><g class="legendlines"><path class="js-line" d="M5,-2h30" style="fill: none; stroke: rgb(129, 114, 179); stroke-opacity: 1; stroke-width: 2px;"/></g><g class="legendsymbols"><g class="legendpoints"/></g></g><rect class="legendtoggle" x="0" y="-9.5" width="146.90625" height="19" style="fill: rgb(0, 0, 0); fill-opacity: 0;"/></g></g><g class="groups" transform=""><g class="traces" transform="translate(0,127.7)" style="opacity: 1;"><text class="legendtext" text-anchor="start" x="40" y="4.680000000000001" style="font-family: 'Open Sans', verdana, arial, sans-serif; font-size: 12px; fill: rgb(36, 36, 36); fill-opacity: 1; white-space: pre;">Japan</text><g class="layers"><g class="legendfill"><path class="js-fill" d="M5,-2h30v6h-30z" style="stroke-width: 0; fill: rgb(147, 120, 96); fill-opacity: 0.5;"/></g><g class="legendlines"><path class="js-line" d="M5,-2h30" style="fill: none; stroke: rgb(147, 120, 96); stroke-opacity: 1; stroke-width: 2px;"/></g><g class="legendsymbols"><g class="legendpoints"/></g></g><rect class="legendtoggle" x="0" y="-9.5" width="146.90625" height="19" style="fill: rgb(0, 0, 0); fill-opacity: 0;"/></g></g><g class="groups" transform=""><g class="traces" transform="translate(0,146.7)" style="opacity: 1;"><text class="legendtext" text-anchor="start" x="40" y="4.680000000000001" style="font-family: 'Open Sans', verdana, arial, sans-serif; font-size: 12px; fill: rgb(36, 36, 36); fill-opacity: 1; white-space: pre;">Korea, Rep. (South)</text><g class="layers"><g class="legendfill"><path class="js-fill" d="M5,-2h30v6h-30z" style="stroke-width: 0; fill: rgb(218, 139, 195); fill-opacity: 0.5;"/></g><g class="legendlines"><path class="js-line" d="M5,-2h30" style="fill: none; stroke: rgb(218, 139, 195); stroke-opacity: 1; stroke-width: 2px;"/></g><g class="legendsymbols"><g class="legendpoints"/></g></g><rect class="legendtoggle" x="0" y="-9.5" width="146.90625" height="19" style="fill: rgb(0, 0, 0); fill-opacity: 0;"/></g></g><g class="groups" transform=""><g class="traces" transform="translate(0,165.7)" style="opacity: 1;"><text class="legendtext" text-anchor="start" x="40" y="4.680000000000001" style="font-family: 'Open Sans', verdana, arial, sans-serif; font-size: 12px; fill: rgb(36, 36, 36); fill-opacity: 1; white-space: pre;">Russian Federation</text><g class="layers"><g class="legendfill"><path class="js-fill" d="M5,-2h30v6h-30z" style="stroke-width: 0; fill: rgb(140, 140, 140); fill-opacity: 0.5;"/></g><g class="legendlines"><path class="js-line" d="M5,-2h30" style="fill: none; stroke: rgb(140, 140, 140); stroke-opacity: 1; stroke-width: 2px;"/></g><g class="legendsymbols"><g class="legendpoints"/></g></g><rect class="legendtoggle" x="0" y="-9.5" width="146.90625" height="19" style="fill: rgb(0, 0, 0); fill-opacity: 0;"/></g></g><g class="groups" transform=""><g class="traces" transform="translate(0,184.7)" style="opacity: 1;"><text class="legendtext" text-anchor="start" x="40" y="4.680000000000001" style="font-family: 'Open Sans', verdana, arial, sans-serif; font-size: 12px; fill: rgb(36, 36, 36); fill-opacity: 1; white-space: pre;">Saudi Arabia</text><g class="layers"><g class="legendfill"><path class="js-fill" d="M5,-2h30v6h-30z" style="stroke-width: 0; fill: rgb(204, 185, 116); fill-opacity: 0.5;"/></g><g class="legendlines"><path class="js-line" d="M5,-2h30" style="fill: none; stroke: rgb(204, 185, 116); stroke-opacity: 1; stroke-width: 2px;"/></g><g class="legendsymbols"><g class="legendpoints"/></g></g><rect class="legendtoggle" x="0" y="-9.5" width="146.90625" height="19" style="fill: rgb(0, 0, 0); fill-opacity: 0;"/></g></g><g class="groups" transform=""><g class="traces" transform="translate(0,203.7)" style="opacity: 1;"><text class="legendtext" text-anchor="start" x="40" y="4.680000000000001" style="font-family: 'Open Sans', verdana, arial, sans-serif; font-size: 12px; fill: rgb(36, 36, 36); fill-opacity: 1; white-space: pre;">United States</text><g class="layers"><g class="legendfill"><path class="js-fill" d="M5,-2h30v6h-30z" style="stroke-width: 0; fill: rgb(100, 181, 205); fill-opacity: 0.5;"/></g><g class="legendlines"><path class="js-line" d="M5,-2h30" style="fill: none; stroke: rgb(100, 181, 205); stroke-opacity: 1; stroke-width: 2px;"/></g><g class="legendsymbols"><g class="legendpoints"/></g></g><rect class="legendtoggle" x="0" y="-9.5" width="146.90625" height="19" style="fill: rgb(0, 0, 0); fill-opacity: 0;"/></g></g></g><rect class="scrollbar" rx="20" ry="3" width="0" height="0" style="fill: rgb(128, 139, 164); fill-opacity: 1;" x="0" y="0"/></g><g class="g-gtitle"/><g class="g-xtitle"><text class="xtitle" x="243.5" y="340.3" text-anchor="middle" style="font-family: 'Open Sans', verdana, arial, sans-serif; font-size: 14px; fill: rgb(36, 36, 36); opacity: 1; font-weight: normal; white-space: pre;">Year</text></g><g class="g-ytitle" transform="translate(4.8310546875,0)"><text class="ytitle" transform="rotate(-90,10.168750000000003,154.5)" x="10.168750000000003" y="154.5" text-anchor="middle" style="font-family: 'Open Sans', verdana, arial, sans-serif; font-size: 14px; fill: rgb(36, 36, 36); opacity: 1; font-weight: normal; white-space: pre;">CO2</text></g></g></svg>