<svg class="main-svg" xmlns="http://www.w3.org/2000/svg" xmlns:xlink="http://www.w3.org/1999/xlink" width="650" height="300" style="" viewBox="0 0 650 300"><rect x="0" y="0" width="650" height="300" style="fill: rgb(255, 255, 255); fill-opacity: 1;"/><defs id="defs-3a5f42"><g class="clips"><clipPath id="clip3a5f42xyplot" class="plotclip"><rect width="493" height="196"/></clipPath><clipPath class="axesclip" id="clip3a5f42x"><rect x="67" y="0" width="493" height="300"/></clipPath><clipPath class="axesclip" id="clip3a5f42y"><rect x="0" y="30" width="650" height="196"/></clipPath><clipPath class="axesclip" id="clip3a5f42xy"><rect x="67" y="30" width="493" height="196"/></clipPath></g><g class="gradients"/><g class="patterns"/></defs><g class="bglayer"/><g class="layer-below"><g class="imagelayer"/><g class="shapelayer"/></g><g class="cartesianlayer"><g class="subplot xy"><g class="layer-subplot"><g class="shapelayer"/><g class="imagelayer"/></g><g class="gridlayer"><g class="x"><path class="xgrid crisp" transform="translate(100.61,0)" d="M0,30v196" style="stroke: rgb(232, 232, 232); stroke-opacity: 1; stroke-width: 1px;"/><path class="xgrid crisp" transform="translate(179.05,0)" d="M0,30v196" style="stroke: rgb(232, 232, 232); stroke-opacity: 1; stroke-width: 1px;"/><path class="xgrid crisp" transform="translate(257.48,0)" d="M0,30v196" style="stroke: rgb(232, 232, 232); stroke-opacity: 1; stroke-width: 1px;"/><path class="xgrid crisp" transform="translate(335.91,0)" d="M0,30v196" style="stroke: rgb(232, 232, 232); stroke-opacity: 1; stroke-width: 1px;"/><path class="xgrid crisp" transform="translate(414.34,0)" d="M0,30v196" style="stroke: rgb(232, 232, 232); stroke-opacity: 1; stroke-width: 1px;"/><path class="xgrid crisp" transform="translate(492.77,0)" d="M0,30v196" style="stroke: rgb(232, 232, 232); stroke-opacity: 1; stroke-width: 1px;"/></g><g class="y"><path class="ygrid crisp" transform="translate(0,186.19)" d="M67,0h493" style="stroke: rgb(232, 232, 232); stroke-opacity: 1; stroke-width: 1px;"/><path class="ygrid crisp" transform="translate(0,127.84)" d="M67,0h493" style="stroke: rgb(232, 232, 232); stroke-opacity: 1; stroke-width: 1px;"/><path class="ygrid crisp" transform="translate(0,69.49000000000001)" d="M67,0h493" style="stroke: rgb(232, 232, 232); stroke-opacity: 1; stroke-width: 1px;"/></g></g><g class="zerolinelayer"/><path class="xlines-below"/><path class="ylines-below"/><g class="overlines-below"/><g class="xaxislayer-below"/><g class="yaxislayer-below"/><g class="overaxes-below"/><g class="plot" transform="translate(67,30)" clip-path="url(#clip3a5f42xyplot)"><g class="scatterlayer mlayer"><g class="trace scatter trace609d61" style="stroke-miterlimit: 2; opacity: 1;"><g class="fills"/><g class="errorbars"/><g class="lines"><path class="js-line" d="M493,126.35L487.4,113.52L481.8,105.72L476.19,100.14L470.59,97.35L453.78,111.02L448.18,90.1L442.58,90.1L436.98,73.65L431.38,94.01L414.57,92.89L408.97,70.31L403.36,80.34L397.76,90.1L392.16,68.91L369.75,9.8L364.15,36.01L358.55,53.02L352.94,33.5L336.14,44.1L330.53,35.73L319.33,46.05L313.73,42.42L296.92,54.97L291.32,58.04L285.72,51.35L280.11,50.23L274.51,58.87L257.7,58.32L252.1,70.03L246.5,77L235.3,91.22L218.49,145.87L212.89,117.71L207.28,118.26L201.68,133.32L196.08,94.84L179.27,99.58L173.67,104.32L168.07,106.83L162.47,111.29L140.06,111.85L134.45,108.78L128.85,107.95L123.25,118.26L117.65,118.54L100.84,112.69L95.24,112.13L89.64,104.32L84.03,133.32L78.43,128.58L61.63,129.42L56.02,140.57L50.42,137.78L44.82,141.41L39.22,121.61L22.41,135.27L11.2,180.44L5.6,183.23L0,156.19" style="vector-effect: non-scaling-stroke; fill: none; stroke: rgb(31, 119, 180); stroke-opacity: 1; stroke-width: 2px; opacity: 1;"/></g><g class="points"/><g class="text"/></g><g class="trace scatter trace343dfb" style="stroke-miterlimit: 2; opacity: 1;"><g class="fills"/><g class="errorbars"/><g class="lines"><path class="js-line" d="M493,91.46L487.4,93.12L481.8,84.4L476.19,96.23L470.59,92.91L453.78,93.12L448.18,99.75L442.58,95.19L436.98,100.17L431.38,114.49L414.57,93.53L408.97,81.29L403.36,88.34L397.76,92.08L392.16,73.82L375.35,41.25L369.75,44.15L364.15,64.07L358.55,50.79L352.94,58.68L336.14,69.67L330.53,51.21L324.93,56.19L319.33,61.79L313.73,60.54L291.32,43.95L285.72,64.28L280.11,55.56L274.51,68.22L257.7,66.56L252.1,77.97L246.5,80.05L240.9,89.8L235.3,107.02L218.49,100.38L212.89,103.49L207.28,93.74L201.68,83.16L196.08,64.07L179.27,77.76L173.67,70.5L168.07,94.15L162.47,89.38L140.06,79.22L134.45,68.63L128.85,70.5L123.25,75.48L117.65,71.12L100.84,64.07L95.24,77.14L89.64,77.56L84.03,98.3L78.43,80.25L61.63,90.21L56.02,105.36L50.42,88.76L44.82,101.41L39.22,127.97L22.41,135.85L16.81,156.81L11.2,164.69L5.6,168.01L0,156.19" style="vector-effect: non-scaling-stroke; fill: none; stroke: rgb(255, 127, 14); stroke-opacity: 1; stroke-width: 2px; opacity: 1; stroke-dasharray: 3px, 3px;"/></g><g class="points"/><g class="text"/></g><g class="trace scatter trace36b6ad" style="stroke-miterlimit: 2; opacity: 1;"><g class="fills"/><g class="errorbars"/><g class="lines"><path class="js-line" d="M493,100.97L487.4,104.51L481.8,111.08L476.19,111.75L470.59,84.37L453.78,79.31L448.18,79.48L442.58,81.44L436.98,105.02L431.38,99.76L414.57,97.51L408.97,91.88L403.36,82.28L397.76,64.16L392.16,66.18L375.35,67.12L369.75,65.81L364.15,95.32L358.55,106.77L352.94,109.97L336.14,113.1L330.53,111.08L324.93,100.87L319.33,96.83L313.73,110.24L296.92,122.7L291.32,121.09L285.72,125.06L280.11,89.18L274.51,83.69L257.7,82.28L252.1,85.98L246.5,86.56L240.9,98.11L235.3,107.61L218.49,93.23L212.89,99.02L207.28,106.67L201.68,107.61L196.08,88.01L179.27,85.88L173.67,90.73L168.07,107.27L162.47,98.01L140.06,108.22L134.45,101.04L128.85,120.98L123.25,125.06L117.65,138.94L100.84,135.06L95.24,170.06L89.64,172.62L84.03,184.92L78.43,176.4L61.63,178.28L56.02,167.91L50.42,162.86L44.82,170.87L39.22,173.74L22.41,181.48L16.81,186.2L11.2,160.16L5.6,169.26L0,156.19" style="vector-effect: non-scaling-stroke; fill: none; stroke: rgb(44, 160, 44); stroke-opacity: 1; stroke-width: 2px; opacity: 1; stroke-dasharray: 9px, 9px;"/></g><g class="points"/><g class="text"/></g></g></g><g class="overplot"/><path class="xlines-above crisp" d="M66,226.5H560" style="fill: none; stroke-width: 1px; stroke: rgb(36, 36, 36); stroke-opacity: 1;"/><path class="ylines-above crisp" d="M66.5,30V226" style="fill: none; stroke-width: 1px; stroke: rgb(36, 36, 36); stroke-opacity: 1;"/><g class="overlines-above"/><g class="xaxislayer-above"><path class="xtick ticks crisp" d="M0,227v5" transform="translate(100.61,0)" style="stroke: rgb(68, 68, 68); stroke-opacity: 1; stroke-width: 1px;"/><path class="xtick ticks crisp" d="M0,227v5" transform="translate(179.05,0)" style="stroke: rgb(68, 68, 68); stroke-opacity: 1; stroke-width: 1px;"/><path class="xtick ticks crisp" d="M0,227v5" transform="translate(257.48,0)" style="stroke: rgb(68, 68, 68); stroke-opacity: 1; stroke-width: 1px;"/><path class="xtick ticks crisp" d="M0,227v5" transform="translate(335.91,0)" style="stroke: rgb(68, 68, 68); stroke-opacity: 1; stroke-width: 1px;"/><path class="xtick ticks crisp" d="M0,227v5" transform="translate(414.34,0)" style="stroke: rgb(68, 68, 68); stroke-opacity: 1; stroke-width: 1px;"/><path class="xtick ticks crisp" d="M0,227v5" transform="translate(492.77,0)" style="stroke: rgb(68, 68, 68); stroke-opacity: 1; stroke-width: 1px;"/><g class="xtick"><text text-anchor="middle" x="0" y="246.4" transform="translate(100.61,0)" style="font-family: 'Open Sans', verdana, arial, sans-serif; font-size: 12px; fill: rgb(36, 36, 36); fill-opacity: 1; white-space: pre; opacity: 1;"><tspan class="line" dy="0em" x="0" y="246.4">Dec 4</tspan><tspan class="line" dy="1.3em" x="0" y="246.4">2022</tspan></text></g><g class="xtick"><text text-anchor="middle" x="0" y="246.4" style="font-family: 'Open Sans', verdana, arial, sans-serif; font-size: 12px; fill: rgb(36, 36, 36); fill-opacity: 1; white-space: pre; opacity: 1;" transform="translate(179.05,0)">Dec 18</text></g><g class="xtick"><text text-anchor="middle" x="0" y="246.4" style="font-family: 'Open Sans', verdana, arial, sans-serif; font-size: 12px; fill: rgb(36, 36, 36); fill-opacity: 1; white-space: pre; opacity: 1;" transform="translate(257.48,0)"><tspan class="line" dy="0em" x="0" y="246.4">Jan 1</tspan><tspan class="line" dy="1.3em" x="0" y="246.4">2023</tspan></text></g><g class="xtick"><text text-anchor="middle" x="0" y="246.4" style="font-family: 'Open Sans', verdana, arial, sans-serif; font-size: 12px; fill: rgb(36, 36, 36); fill-opacity: 1; white-space: pre; opacity: 1;" transform="translate(335.91,0)">Jan 15</text></g><g class="xtick"><text text-anchor="middle" x="0" y="246.4" style="font-family: 'Open Sans', verdana, arial, sans-serif; font-size: 12px; fill: rgb(36, 36, 36); fill-opacity: 1; white-space: pre; opacity: 1;" transform="translate(414.34,0)">Jan 29</text></g><g class="xtick"><text text-anchor="middle" x="0" y="246.4" style="font-family: 'Open Sans', verdana, arial, sans-serif; font-size: 12px; fill: rgb(36, 36, 36); fill-opacity: 1; white-space: pre; opacity: 1;" transform="translate(492.77,0)">Feb 12</text></g></g><g class="yaxislayer-above"><path class="ytick ticks crisp" d="M66,0h-5" transform="translate(0,186.19)" style="stroke: rgb(68, 68, 68); stroke-opacity: 1; stroke-width: 1px;"/><path class="ytick ticks crisp" d="M66,0h-5" transform="translate(0,127.84)" style="stroke: rgb(68, 68, 68); stroke-opacity: 1; stroke-width: 1px;"/><path class="ytick ticks crisp" d="M66,0h-5" transform="translate(0,69.49000000000001)" style="stroke: rgb(68, 68, 68); stroke-opacity: 1; stroke-width: 1px;"/><g class="ytick"><text text-anchor="end" x="58.6" y="4.199999999999999" transform="translate(0,186.19)" style="font-family: 'Open Sans', verdana, arial, sans-serif; font-size: 12px; fill: rgb(36, 36, 36); fill-opacity: 1; white-space: pre; opacity: 1;">1</text></g><g class="ytick"><text text-anchor="end" x="58.6" y="4.199999999999999" style="font-family: 'Open Sans', verdana, arial, sans-serif; font-size: 12px; fill: rgb(36, 36, 36); fill-opacity: 1; white-space: pre; opacity: 1;" transform="translate(0,127.84)">1.02</text></g><g class="ytick"><text text-anchor="end" x="58.6" y="4.199999999999999" style="font-family: 'Open Sans', verdana, arial, sans-serif; font-size: 12px; fill: rgb(36, 36, 36); fill-opacity: 1; white-space: pre; opacity: 1;" transform="translate(0,69.49000000000001)">1.04</text></g></g><g class="overaxes-above"/></g></g><g class="polarlayer"/><g class="smithlayer"/><g class="ternarylayer"/><g class="geolayer"/><g class="funnelarealayer"/><g class="pielayer"/><g class="iciclelayer"/><g class="treemaplayer"/><g class="sunburstlayer"/><g class="glimages"/><defs id="topdefs-3a5f42"><g class="clips"/><clipPath id="legend3a5f42"><rect width="70" height="86" x="0" y="0"/></clipPath></defs><g class="layer-above"><g class="imagelayer"/><g class="shapelayer"/></g><g class="infolayer"><g class="legend" pointer-events="all" transform="translate(569.86,30)"><rect class="bg" shape-rendering="crispEdges" width="70" height="86" x="0" y="0" style="stroke: rgb(68, 68, 68); stroke-opacity: 1; fill: rgb(255, 255, 255); fill-opacity: 1; stroke-width: 0px;"/><g class="scrollbox" transform="" clip-path="url(#legend3a5f42)"><text class="legendtitletext" text-anchor="start" x="2" y="18.2" style="font-family: 'Open Sans', verdana, arial, sans-serif; font-size: 14px; fill: rgb(36, 36, 36); fill-opacity: 1; white-space: pre;">Currency</text><g class="groups" transform=""><g class="traces" transform="translate(0,32.7)" style="opacity: 1;"><text class="legendtext" text-anchor="start" x="40" y="4.680000000000001" style="font-family: 'Open Sans', verdana, arial, sans-serif; font-size: 12px; fill: rgb(36, 36, 36); fill-opacity: 1; white-space: pre;">USD</text><g class="layers" style="opacity: 1;"><g class="legendfill"/><g class="legendlines"><path class="js-line" d="M5,0h30" style="fill: none; stroke: rgb(31, 119, 180); stroke-opacity: 1; stroke-width: 2px;"/></g><g class="legendsymbols"><g class="legendpoints"/></g></g><rect class="legendtoggle" x="0" y="-9.5" width="64.078125" height="19" style="fill: rgb(0, 0, 0); fill-opacity: 0;"/></g></g><g class="groups" transform=""><g class="traces" transform="translate(0,51.7)" style="opacity: 1;"><text class="legendtext" text-anchor="start" x="40" y="4.680000000000001" style="font-family: 'Open Sans', verdana, arial, sans-serif; font-size: 12px; fill: rgb(36, 36, 36); fill-opacity: 1; white-space: pre;">CAD</text><g class="layers" style="opacity: 1;"><g class="legendfill"/><g class="legendlines"><path class="js-line" d="M5,0h30" style="fill: none; stroke: rgb(255, 127, 14); stroke-opacity: 1; stroke-dasharray: 3px, 3px; stroke-width: 2px;"/></g><g class="legendsymbols"><g class="legendpoints"/></g></g><rect class="legendtoggle" x="0" y="-9.5" width="64.078125" height="19" style="fill: rgb(0, 0, 0); fill-opacity: 0;"/></g></g><g class="groups" transform=""><g class="traces" transform="translate(0,70.7)" style="opacity: 1;"><text class="legendtext" text-anchor="start" x="40" y="4.680000000000001" style="font-family: 'Open Sans', verdana, arial, sans-serif; font-size: 12px; fill: rgb(36, 36, 36); fill-opacity: 1; white-space: pre;">GBP</text><g class="layers" style="opacity: 1;"><g class="legendfill"/><g class="legendlines"><path class="js-line" d="M5,0h30" style="fill: none; stroke: rgb(44, 160, 44); stroke-opacity: 1; stroke-dasharray: 9px, 9px; stroke-width: 2px;"/></g><g class="legendsymbols"><g class="legendpoints"/></g></g><rect class="legendtoggle" x="0" y="-9.5" width="64.078125" height="19" style="fill: rgb(0, 0, 0); fill-opacity: 0;"/></g></g></g><rect class="scrollbar" rx="20" ry="3" width="0" height="0" x="0" y="0" style="fill: rgb(128, 139, 164); fill-opacity: 1;"/></g><g class="g-gtitle"><text class="gtitle" x="325" y="15" text-anchor="middle" dy="0em" style="font-family: 'Open Sans', verdana, arial, sans-serif; font-size: 17px; fill: rgb(36, 36, 36); opacity: 1; font-weight: normal; white-space: pre;">Exchange Rate with the Euro</text></g><g class="g-xtitle"><text class="xtitle" x="313.5" y="290.3" text-anchor="middle" style="font-family: 'Open Sans', verdana, arial, sans-serif; font-size: 14px; fill: rgb(36, 36, 36); opacity: 1; font-weight: normal; white-space: pre;">date</text></g><g class="g-ytitle" transform="translate(4.9873046875,0)"><text class="ytitle" transform="rotate(-90,10.012500000000003,128)" x="10.012500000000003" y="128" text-anchor="middle" style="font-family: 'Open Sans', verdana, arial, sans-serif; font-size: 14px; fill: rgb(36, 36, 36); opacity: 1; font-weight: normal; white-space: pre;">value</text></g></g></svg>