<svg class="main-svg" xmlns="http://www.w3.org/2000/svg" xmlns:xlink="http://www.w3.org/1999/xlink" width="650" height="300" style="" viewBox="0 0 650 300"><rect x="0" y="0" width="650" height="300" style="fill: rgb(255, 255, 255); fill-opacity: 1;"/><defs id="defs-4fe3fc"><g class="clips"><clipPath id="clip4fe3fcxyplot" class="plotclip"><rect width="488" height="221"/></clipPath><clipPath class="axesclip" id="clip4fe3fcx"><rect x="70" y="0" width="488" height="300"/></clipPath><clipPath class="axesclip" id="clip4fe3fcy"><rect x="0" y="30" width="650" height="221"/></clipPath><clipPath class="axesclip" id="clip4fe3fcxy"><rect x="70" y="30" width="488" height="221"/></clipPath></g><g class="gradients"/><g class="patterns"/></defs><g class="bglayer"/><g class="layer-below"><g class="imagelayer"/><g class="shapelayer"/></g><g class="cartesianlayer"><g class="subplot xy"><g class="layer-subplot"><g class="shapelayer"/><g class="imagelayer"/></g><g class="minor-gridlayer"><g class="x"/><g class="y"/></g><g class="gridlayer"><g class="x"><path class="xgrid crisp" transform="translate(86.45,0)" d="M0,30v221" style="stroke: rgb(232, 232, 232); stroke-opacity: 1; stroke-width: 1px;"/><path class="xgrid crisp" transform="translate(163.20999999999998,0)" d="M0,30v221" style="stroke: rgb(232, 232, 232); stroke-opacity: 1; stroke-width: 1px;"/><path class="xgrid crisp" transform="translate(239.98,0)" d="M0,30v221" style="stroke: rgb(232, 232, 232); stroke-opacity: 1; stroke-width: 1px;"/><path class="xgrid crisp" transform="translate(316.74,0)" d="M0,30v221" style="stroke: rgb(232, 232, 232); stroke-opacity: 1; stroke-width: 1px;"/><path class="xgrid crisp" transform="translate(393.51,0)" d="M0,30v221" style="stroke: rgb(232, 232, 232); stroke-opacity: 1; stroke-width: 1px;"/><path class="xgrid crisp" transform="translate(470.27,0)" d="M0,30v221" style="stroke: rgb(232, 232, 232); stroke-opacity: 1; stroke-width: 1px;"/><path class="xgrid crisp" transform="translate(547.03,0)" d="M0,30v221" style="stroke: rgb(232, 232, 232); stroke-opacity: 1; stroke-width: 1px;"/></g><g class="y"><path class="ygrid crisp" transform="translate(0,194.06)" d="M70,0h488" style="stroke: rgb(232, 232, 232); stroke-opacity: 1; stroke-width: 1px;"/><path class="ygrid crisp" transform="translate(0,130.86)" d="M70,0h488" style="stroke: rgb(232, 232, 232); stroke-opacity: 1; stroke-width: 1px;"/><path class="ygrid crisp" transform="translate(0,67.65)" d="M70,0h488" style="stroke: rgb(232, 232, 232); stroke-opacity: 1; stroke-width: 1px;"/></g></g><g class="zerolinelayer"/><path class="xlines-below"/><path class="ylines-below"/><g class="overlines-below"/><g class="xaxislayer-below"/><g class="yaxislayer-below"/><g class="overaxes-below"/><g class="plot" transform="translate(70,30)" clip-path="url(#clip4fe3fcxyplot)"><g class="scatterlayer mlayer"><g class="trace scatter trace452d8a" style="stroke-miterlimit: 2; opacity: 1;"><g class="fills"/><g class="errorbars"/><g class="lines"><path class="js-line" d="M488,11.05L482.52,18.27L466.07,20.87L460.58,32.13L455.1,78.33L444.13,97.39L427.69,117.03L422.2,113.85L416.72,119.63L411.24,115.01L405.75,113.85L389.3,123.38L383.82,102.59L378.34,102.59L372.85,98.84L367.37,108.37L350.92,118.18L345.44,89.02L339.96,106.92L334.47,104.03L328.99,107.21L312.54,94.5L307.06,136.95L301.57,139.84L296.09,144.46L290.61,152.55L274.16,148.22L268.67,160.63L263.19,166.41L257.71,176.23L252.22,174.21L235.78,153.13L230.29,172.18L224.81,176.23L219.33,158.61L213.84,166.99L197.39,156.59L191.91,161.21L186.43,146.77L180.94,148.5L175.46,136.09L159.01,140.13L153.53,138.69L148.04,134.07L142.56,119.05L137.08,120.49L120.63,115.87L115.15,104.9L109.66,99.13L104.18,96.53L98.7,74L82.25,80.64L76.76,63.32L71.28,72.27L65.8,94.79L43.87,90.17L38.38,72.56L32.9,73.42L27.42,78.33L21.93,84.11L5.48,91.04L0,100.86" style="vector-effect: none; fill: none; stroke: rgb(31, 119, 180); stroke-opacity: 1; stroke-width: 2px; opacity: 1;"/></g><g class="points"/><g class="text"/></g><g class="trace scatter trace50518f" style="stroke-miterlimit: 2; opacity: 1;"><g class="fills"/><g class="errorbars"/><g class="lines"><path class="js-line" d="M488,78.37L482.52,82.01L466.07,107.07L460.58,110.07L455.1,140.05L449.62,137.05L444.13,144.76L427.69,143.69L422.2,158.25L411.24,176.67L405.75,168.53L389.3,174.1L383.82,155.25L378.34,157.82L372.85,175.6L367.37,187.16L350.92,181.59L345.44,163.82L339.96,169.82L334.47,161.68L328.99,174.96L312.54,155.9L307.06,174.1L301.57,182.02L296.09,176.67L290.61,186.52L274.16,185.45L268.67,189.73L263.19,187.81L257.71,189.73L252.22,184.38L235.78,168.1L230.29,152.9L224.81,138.34L219.33,137.48L213.84,142.19L197.39,128.06L191.91,134.69L186.43,134.48L180.94,140.69L175.46,130.63L159.01,139.83L153.53,141.33L142.56,123.34L137.08,116.49L120.63,112.64L115.15,119.06L109.66,122.27L104.18,117.56L98.7,110.92L82.25,78.8L76.76,33.4L71.28,39.18L65.8,73.45L43.87,52.89L38.38,40.04L32.9,41.32L27.42,52.24L21.93,68.95L5.48,79.01L0,100.86" style="vector-effect: none; fill: none; stroke: rgb(255, 127, 14); stroke-opacity: 1; stroke-dasharray: 3px, 3px; stroke-width: 2px; opacity: 1;"/></g><g class="points"/><g class="text"/></g><g class="trace scatter trace87861c" style="stroke-miterlimit: 2; opacity: 1;"><g class="fills"/><g class="errorbars"/><g class="lines"><path class="js-line" d="M488,183.85L482.52,182.6L466.07,192.74L460.58,194.07L455.1,200.34L449.62,209.95L444.13,187.62L427.69,203.21L422.2,202.78L416.72,189.34L411.24,189.77L405.75,178.76L389.3,184.21L383.82,163.7L378.34,162.99L372.85,178.4L367.37,182.42L350.92,196.72L345.44,173.92L339.96,184.21L334.47,188.62L328.99,204.29L312.54,198.55L307.06,194L301.57,197.58L296.09,183.42L290.61,189.59L274.16,185.39L268.67,173.99L263.19,179.12L257.71,174.35L252.22,166.46L235.78,180.55L230.29,184.39L224.81,163.52L219.33,164.96L213.84,149.18L197.39,148.9L191.91,149.61L186.43,142.44L180.94,142.44L175.46,147.71L159.01,147.93L153.53,146.14L148.04,145.96L142.56,144.42L137.08,144.24L120.63,141.48L115.15,149.54L109.66,148.9L104.18,142.55L98.7,134.02L82.25,128.64L76.76,105.81L71.28,96.84L65.8,111.08L43.87,104.55L38.38,91L32.9,86.27L27.42,83.22L21.93,89.74L5.48,85.91L0,100.86" style="vector-effect: none; fill: none; stroke: rgb(44, 160, 44); stroke-opacity: 1; stroke-dasharray: 9px, 9px; stroke-width: 2px; opacity: 1;"/></g><g class="points"/><g class="text"/></g></g></g><g class="overplot"/><path class="xlines-above crisp" d="M69,251.5H558" style="fill: none; stroke-width: 1px; stroke: rgb(36, 36, 36); stroke-opacity: 1;"/><path class="ylines-above crisp" d="M69.5,30V251" style="fill: none; stroke-width: 1px; stroke: rgb(36, 36, 36); stroke-opacity: 1;"/><g class="overlines-above"/><g class="xaxislayer-above"><path class="xtick ticks crisp" d="M0,252v5" transform="translate(86.45,0)" style="stroke: rgb(68, 68, 68); stroke-opacity: 1; stroke-width: 1px;"/><path class="xtick ticks crisp" d="M0,252v5" transform="translate(163.20999999999998,0)" style="stroke: rgb(68, 68, 68); stroke-opacity: 1; stroke-width: 1px;"/><path class="xtick ticks crisp" d="M0,252v5" transform="translate(239.98,0)" style="stroke: rgb(68, 68, 68); stroke-opacity: 1; stroke-width: 1px;"/><path class="xtick ticks crisp" d="M0,252v5" transform="translate(316.74,0)" style="stroke: rgb(68, 68, 68); stroke-opacity: 1; stroke-width: 1px;"/><path class="xtick ticks crisp" d="M0,252v5" transform="translate(393.51,0)" style="stroke: rgb(68, 68, 68); stroke-opacity: 1; stroke-width: 1px;"/><path class="xtick ticks crisp" d="M0,252v5" transform="translate(470.27,0)" style="stroke: rgb(68, 68, 68); stroke-opacity: 1; stroke-width: 1px;"/><path class="xtick ticks crisp" d="M0,252v5" transform="translate(547.03,0)" style="stroke: rgb(68, 68, 68); stroke-opacity: 1; stroke-width: 1px;"/><g class="xtick"><text text-anchor="middle" x="0" y="271.4" transform="translate(86.45,0)" style="font-family: 'Open Sans', verdana, arial, sans-serif; font-size: 12px; fill: rgb(36, 36, 36); fill-opacity: 1; white-space: pre; opacity: 1;"><tspan class="line" dy="0em" x="0" y="271.4">Apr 23</tspan><tspan class="line" dy="1.3em" x="0" y="271.4">2023</tspan></text></g><g class="xtick"><text text-anchor="middle" x="0" y="271.4" style="font-family: 'Open Sans', verdana, arial, sans-serif; font-size: 12px; fill: rgb(36, 36, 36); fill-opacity: 1; white-space: pre; opacity: 1;" transform="translate(163.20999999999998,0)">May 7</text></g><g class="xtick"><text text-anchor="middle" x="0" y="271.4" style="font-family: 'Open Sans', verdana, arial, sans-serif; font-size: 12px; fill: rgb(36, 36, 36); fill-opacity: 1; white-space: pre; opacity: 1;" transform="translate(239.98,0)">May 21</text></g><g class="xtick"><text text-anchor="middle" x="0" y="271.4" style="font-family: 'Open Sans', verdana, arial, sans-serif; font-size: 12px; fill: rgb(36, 36, 36); fill-opacity: 1; white-space: pre; opacity: 1;" transform="translate(316.74,0)">Jun 4</text></g><g class="xtick"><text text-anchor="middle" x="0" y="271.4" style="font-family: 'Open Sans', verdana, arial, sans-serif; font-size: 12px; fill: rgb(36, 36, 36); fill-opacity: 1; white-space: pre; opacity: 1;" transform="translate(393.51,0)">Jun 18</text></g><g class="xtick"><text text-anchor="middle" x="0" y="271.4" style="font-family: 'Open Sans', verdana, arial, sans-serif; font-size: 12px; fill: rgb(36, 36, 36); fill-opacity: 1; white-space: pre; opacity: 1;" transform="translate(470.27,0)">Jul 2</text></g><g class="xtick"><text text-anchor="middle" x="0" y="271.4" style="font-family: 'Open Sans', verdana, arial, sans-serif; font-size: 12px; fill: rgb(36, 36, 36); fill-opacity: 1; white-space: pre; opacity: 1;" transform="translate(547.03,0)">Jul 16</text></g></g><g class="yaxislayer-above"><path class="ytick ticks crisp" d="M69,0h-5" transform="translate(0,194.06)" style="stroke: rgb(68, 68, 68); stroke-opacity: 1; stroke-width: 1px;"/><path class="ytick ticks crisp" d="M69,0h-5" transform="translate(0,130.86)" style="stroke: rgb(68, 68, 68); stroke-opacity: 1; stroke-width: 1px;"/><path class="ytick ticks crisp" d="M69,0h-5" transform="translate(0,67.65)" style="stroke: rgb(68, 68, 68); stroke-opacity: 1; stroke-width: 1px;"/><g class="ytick"><text text-anchor="end" x="61.6" y="4.199999999999999" transform="translate(0,194.06)" style="font-family: 'Open Sans', verdana, arial, sans-serif; font-size: 12px; fill: rgb(36, 36, 36); fill-opacity: 1; white-space: pre; opacity: 1;">0.98</text></g><g class="ytick"><text text-anchor="end" x="61.6" y="4.199999999999999" style="font-family: 'Open Sans', verdana, arial, sans-serif; font-size: 12px; fill: rgb(36, 36, 36); fill-opacity: 1; white-space: pre; opacity: 1;" transform="translate(0,130.86)">1</text></g><g class="ytick"><text text-anchor="end" x="61.6" y="4.199999999999999" style="font-family: 'Open Sans', verdana, arial, sans-serif; font-size: 12px; fill: rgb(36, 36, 36); fill-opacity: 1; white-space: pre; opacity: 1;" transform="translate(0,67.65)">1.02</text></g></g><g class="overaxes-above"/></g></g><g class="polarlayer"/><g class="smithlayer"/><g class="ternarylayer"/><g class="geolayer"/><g class="funnelarealayer"/><g class="pielayer"/><g class="iciclelayer"/><g class="treemaplayer"/><g class="sunburstlayer"/><g class="glimages"/><defs id="topdefs-4fe3fc"><g class="clips"/><clipPath id="legend4fe3fc"><rect width="72" height="86" x="0" y="0"/></clipPath></defs><g class="layer-above"><g class="imagelayer"/><g class="shapelayer"/></g><g class="infolayer"><g class="legend" pointer-events="all" transform="translate(567.76,30)"><rect class="bg" shape-rendering="crispEdges" width="72" height="86" x="0" y="0" style="stroke: rgb(68, 68, 68); stroke-opacity: 1; fill: rgb(255, 255, 255); fill-opacity: 1; stroke-width: 0px;"/><g class="scrollbox" transform="" clip-path="url(#legend4fe3fc)"><text class="legendtitletext" text-anchor="start" x="2" y="18.2" style="font-family: 'Open Sans', verdana, arial, sans-serif; font-size: 14px; fill: rgb(36, 36, 36); fill-opacity: 1; white-space: pre;">Currency</text><g class="groups" transform=""><g class="traces" transform="translate(0,32.7)" style="opacity: 1;"><text class="legendtext" text-anchor="start" x="40" y="4.680000000000001" style="font-family: 'Open Sans', verdana, arial, sans-serif; font-size: 12px; fill: rgb(36, 36, 36); fill-opacity: 1; white-space: pre;">USD</text><g class="layers" style="opacity: 1;"><g class="legendfill"/><g class="legendlines"><path class="js-line" d="M5,0h30" style="fill: none; stroke: rgb(31, 119, 180); stroke-opacity: 1; stroke-width: 2px;"/></g><g class="legendsymbols"><g class="legendpoints"/></g></g><rect class="legendtoggle" x="0" y="-9.5" width="66.234375" height="19" style="fill: rgb(0, 0, 0); fill-opacity: 0;"/></g></g><g class="groups" transform=""><g class="traces" transform="translate(0,51.7)" style="opacity: 1;"><text class="legendtext" text-anchor="start" x="40" y="4.680000000000001" style="font-family: 'Open Sans', verdana, arial, sans-serif; font-size: 12px; fill: rgb(36, 36, 36); fill-opacity: 1; white-space: pre;">CAD</text><g class="layers" style="opacity: 1;"><g class="legendfill"/><g class="legendlines"><path class="js-line" d="M5,0h30" style="fill: none; stroke: rgb(255, 127, 14); stroke-opacity: 1; stroke-dasharray: 3px, 3px; stroke-width: 2px;"/></g><g class="legendsymbols"><g class="legendpoints"/></g></g><rect class="legendtoggle" x="0" y="-9.5" width="66.234375" height="19" style="fill: rgb(0, 0, 0); fill-opacity: 0;"/></g></g><g class="groups" transform=""><g class="traces" transform="translate(0,70.7)" style="opacity: 1;"><text class="legendtext" text-anchor="start" x="40" y="4.680000000000001" style="font-family: 'Open Sans', verdana, arial, sans-serif; font-size: 12px; fill: rgb(36, 36, 36); fill-opacity: 1; white-space: pre;">GBP</text><g class="layers" style="opacity: 1;"><g class="legendfill"/><g class="legendlines"><path class="js-line" d="M5,0h30" style="fill: none; stroke: rgb(44, 160, 44); stroke-opacity: 1; stroke-dasharray: 9px, 9px; stroke-width: 2px;"/></g><g class="legendsymbols"><g class="legendpoints"/></g></g><rect class="legendtoggle" x="0" y="-9.5" width="66.234375" height="19" style="fill: rgb(0, 0, 0); fill-opacity: 0;"/></g></g></g><rect class="scrollbar" rx="20" ry="3" width="0" height="0" x="0" y="0" style="fill: rgb(128, 139, 164); fill-opacity: 1;"/></g><g class="g-gtitle"><text class="gtitle" x="325" y="15" text-anchor="middle" dy="0em" style="font-family: 'Open Sans', verdana, arial, sans-serif; font-size: 17px; fill: rgb(36, 36, 36); opacity: 1; font-weight: normal; white-space: pre;">Exchange rate with the euro</text></g><g class="g-xtitle"/><g class="g-ytitle" transform="translate(3.9560546875,0)"><text class="ytitle" transform="rotate(-90,10.043750000000003,140.5)" x="10.043750000000003" y="140.5" text-anchor="middle" style="font-family: 'Open Sans', verdana, arial, sans-serif; font-size: 14px; fill: rgb(36, 36, 36); opacity: 1; font-weight: normal; white-space: pre;">Exchange rate relative to first day</text></g></g></svg>