<svg class="main-svg" xmlns="http://www.w3.org/2000/svg" xmlns:xlink="http://www.w3.org/1999/xlink" width="400" height="250" style="" viewBox="0 0 400 250"><rect x="0" y="0" width="400" height="250" style="fill: rgb(255, 255, 255); fill-opacity: 1;"/><defs id="defs-40993f"><g class="clips"><clipPath id="clip40993fxyplot" class="plotclip"><rect width="326" height="181"/></clipPath><clipPath class="axesclip" id="clip40993fx"><rect x="64" y="0" width="326" height="250"/></clipPath><clipPath class="axesclip" id="clip40993fy"><rect x="0" y="10" width="400" height="181"/></clipPath><clipPath class="axesclip" id="clip40993fxy"><rect x="64" y="10" width="326" height="181"/></clipPath></g><g class="gradients"/><g class="patterns"/></defs><g class="bglayer"/><g class="layer-below"><g class="imagelayer"/><g class="shapelayer"/></g><g class="cartesianlayer"><g class="subplot xy"><g class="layer-subplot"><g class="shapelayer"/><g class="imagelayer"/></g><g class="gridlayer"><g class="x"><path class="xgrid crisp" transform="translate(73.51,0)" d="M0,10v181" style="stroke: rgb(232, 232, 232); stroke-opacity: 1; stroke-width: 1px;"/><path class="xgrid crisp" transform="translate(179.67000000000002,0)" d="M0,10v181" style="stroke: rgb(232, 232, 232); stroke-opacity: 1; stroke-width: 1px;"/><path class="xgrid crisp" transform="translate(285.83000000000004,0)" d="M0,10v181" style="stroke: rgb(232, 232, 232); stroke-opacity: 1; stroke-width: 1px;"/></g><g class="y"><path class="ygrid crisp" transform="translate(0,150.3)" d="M64,0h326" style="stroke: rgb(232, 232, 232); stroke-opacity: 1; stroke-width: 1px;"/><path class="ygrid crisp" transform="translate(0,87)" d="M64,0h326" style="stroke: rgb(232, 232, 232); stroke-opacity: 1; stroke-width: 1px;"/><path class="ygrid crisp" transform="translate(0,23.689999999999998)" d="M64,0h326" style="stroke: rgb(232, 232, 232); stroke-opacity: 1; stroke-width: 1px;"/></g></g><g class="zerolinelayer"/><path class="xlines-below"/><path class="ylines-below"/><g class="overlines-below"/><g class="xaxislayer-below"/><g class="yaxislayer-below"/><g class="overaxes-below"/><g class="plot" transform="translate(64,10)" clip-path="url(#clip40993fxyplot)"><g class="scatterlayer mlayer"><g class="trace scatter trace551d8a" style="stroke-miterlimit: 2; opacity: 1;"><g class="fills"/><g class="errorbars"/><g class="lines"><path class="js-line" d="M0,40.37L0.89,39.8L1.33,171.95L1.77,40.32L2.21,40.62L2.65,41.16L3.1,171.95L3.54,41.12L6.19,39.55L6.63,39.6L8.41,41.15L8.85,40.66L11.94,39.14L12.39,39.59L13.72,40.97L14.16,40.59L16.81,38.83L17.25,39.09L19.02,40.47L19.46,40.25L22.56,38.84L23,39.15L24.33,40.46L24.77,40.06L27.87,38.55L28.31,39.09L29.64,40.28L30.08,39.92L30.97,39.15L31.41,171.95L32.29,171.95L32.73,38.3L33.62,38.87L34.06,39.42L34.95,40.03L35.39,39.71L38.48,38.42L38.93,38.57L40.26,39.87L40.7,39.37L43.79,37.83L44.24,38.26L45.56,39.61L46,39.08L48.66,37.43L49.1,37.72L50.87,39.23L51.31,38.78L53.97,37.25L54.41,37.32L56.18,38.93L56.62,38.6L59.27,36.69L59.71,36.87L61.93,38.11L62.37,37.71L65.02,36.59L65.47,37L66.8,38.01L67.24,37.75L69.89,36.19L70.33,36.3L72.1,37.88L72.54,37.49L75.2,35.82L75.64,36.14L77.41,37.41L77.85,36.95L80.95,35.19L81.39,35.57L82.72,36.74L83.16,36.43L86.25,35.16L86.7,35.51L88.03,36.71L88.47,36.39L91.12,34.6L91.56,34.76L93.34,36.37L93.78,36.05L94.22,171.95L94.66,35.34L96.43,34.34L96.87,34.58L98.64,36.24L99.08,35.8L101.74,33.65L102.18,33.89L103.95,35.45L104.39,35.08L107.49,33.31L107.93,33.82L109.26,35.08L109.7,34.66L112.79,32.92L113.24,33.46L114.57,34.52L115.01,34.17L117.66,32.21L118.1,32.26L119.88,33.9L120.32,33.55L123.41,31.88L123.86,32.43L125.18,33.61L125.62,33.13L128.28,31.22L128.72,31.48L130.49,33.22L130.93,32.81L134.03,30.9L134.47,31.36L135.8,32.56L136.24,32.18L138.01,30.93L138.45,171.95L138.89,30.27L139.33,30.47L139.78,30.93L141.11,32.15L141.55,31.7L143.76,30.04L144.2,29.81L145.53,31.09L145.97,31.65L146.86,31.26L147.3,30.82L149.95,29.54L150.4,30.1L151.72,31.25L152.16,30.8L154.82,28.86L155.26,29.03L157.03,30.6L157.47,30.16L160.57,28.34L161.01,28.67L162.34,29.79L162.78,29.45L165.43,27.66L165.87,27.82L167.65,29.44L168.09,29.04L170.74,27.2L171.18,27.51L172.96,29L173.4,28.54L176.05,26.63L176.49,26.94L178.26,28.77L178.7,28.31L181.36,26.48L181.8,26.56L183.57,28.47L184.01,28.15L186.67,26.29L187.11,26.5L188.88,28.21L189.32,27.8L191.97,25.83L192.41,26.09L194.19,27.59L194.63,27.13L197.28,25.18L197.72,25.34L199.49,26.99L199.94,26.53L202.59,24.73L203.03,24.79L204.8,26.48L205.24,26.07L207.9,24.25L208.34,24.58L210.11,26.09L210.55,25.56L212.76,23.61L213.21,23.37L214.53,24.47L214.97,25.08L216.3,24.09L216.75,23.76L218.95,23.09L219.4,23.36L220.73,24.65L221.17,24.22L223.38,22.61L223.82,22.69L224.71,23.23L225.15,23.78L226.03,24.13L226.48,23.7L229.13,21.97L229.57,22.17L231.34,23.68L231.78,23.26L234.44,21.36L234.88,21.44L236.65,23.01L237.09,22.47L239.75,20.46L240.19,20.57L241.96,22.19L242.4,21.71L245.05,19.82L245.49,20.12L247.27,21.77L247.71,21.24L250.36,19.25L250.8,19.32L252.57,20.97L253.02,20.54L255.23,18.56L255.67,18.43L257.88,20.3L258.32,19.97L260.98,17.94L261.42,18.09L263.19,19.67L263.63,19.25L266.29,17.32L266.73,17.56L268.5,19.07L268.94,18.69L271.59,16.81L272.03,17.02L273.81,18.62L274.25,18.12L276.9,15.91L277.34,16.17L279.11,17.73L279.56,17.28L282.21,15.53L282.65,15.67L284.42,17.17L284.86,16.77L287.52,14.72L287.96,15.05L289.73,16.52L290.17,15.91L292.83,13.76L293.27,14.13L295.04,15.68L295.48,15.22L298.13,13.13L298.57,13.29L300.35,14.95L300.79,14.55L303.44,12.44L303.88,12.8L305.65,14.23L306.1,13.64L308.75,11.25L309.19,11.53L310.96,13.19L311.4,12.57L314.5,10.88L314.94,11.44L316.27,12.54L316.71,12.07L318.92,10.45L319.37,10.13L320.25,10.93L320.69,11.48L321.58,11.79L322.02,11.15L325.11,9.28L325.56,9.96L326,10.54" style="vector-effect: non-scaling-stroke; fill: none; stroke: rgb(31, 119, 180); stroke-opacity: 1; stroke-width: 2px; opacity: 1;"/></g><g class="points"/><g class="text"/></g></g></g><g class="overplot"/><path class="xlines-above crisp" d="M63,191.5H390" style="fill: none; stroke-width: 1px; stroke: rgb(36, 36, 36); stroke-opacity: 1;"/><path class="ylines-above crisp" d="M63.5,10V191" style="fill: none; stroke-width: 1px; stroke: rgb(36, 36, 36); stroke-opacity: 1;"/><g class="overlines-above"/><g class="xaxislayer-above"><path class="xtick ticks crisp" d="M0,192v5" transform="translate(73.51,0)" style="stroke: rgb(68, 68, 68); stroke-opacity: 1; stroke-width: 1px;"/><path class="xtick ticks crisp" d="M0,192v5" transform="translate(179.67000000000002,0)" style="stroke: rgb(68, 68, 68); stroke-opacity: 1; stroke-width: 1px;"/><path class="xtick ticks crisp" d="M0,192v5" transform="translate(285.83000000000004,0)" style="stroke: rgb(68, 68, 68); stroke-opacity: 1; stroke-width: 1px;"/><g class="xtick"><text text-anchor="middle" x="0" y="211.4" transform="translate(73.51,0)" style="font-family: 'Open Sans', verdana, arial, sans-serif; font-size: 12px; fill: rgb(36, 36, 36); fill-opacity: 1; white-space: pre; opacity: 1;">1960</text></g><g class="xtick"><text text-anchor="middle" x="0" y="211.4" style="font-family: 'Open Sans', verdana, arial, sans-serif; font-size: 12px; fill: rgb(36, 36, 36); fill-opacity: 1; white-space: pre; opacity: 1;" transform="translate(179.67000000000002,0)">1980</text></g><g class="xtick"><text text-anchor="middle" x="0" y="211.4" style="font-family: 'Open Sans', verdana, arial, sans-serif; font-size: 12px; fill: rgb(36, 36, 36); fill-opacity: 1; white-space: pre; opacity: 1;" transform="translate(285.83000000000004,0)">2000</text></g></g><g class="yaxislayer-above"><path class="ytick ticks crisp" d="M63,0h-5" transform="translate(0,150.3)" style="stroke: rgb(68, 68, 68); stroke-opacity: 1; stroke-width: 1px;"/><path class="ytick ticks crisp" d="M63,0h-5" transform="translate(0,87)" style="stroke: rgb(68, 68, 68); stroke-opacity: 1; stroke-width: 1px;"/><path class="ytick ticks crisp" d="M63,0h-5" transform="translate(0,23.689999999999998)" style="stroke: rgb(68, 68, 68); stroke-opacity: 1; stroke-width: 1px;"/><g class="ytick"><text text-anchor="end" x="55.6" y="4.199999999999999" transform="translate(0,150.3)" style="font-family: 'Open Sans', verdana, arial, sans-serif; font-size: 12px; fill: rgb(36, 36, 36); fill-opacity: 1; white-space: pre; opacity: 1;">0</text></g><g class="ytick"><text text-anchor="end" x="55.6" y="4.199999999999999" style="font-family: 'Open Sans', verdana, arial, sans-serif; font-size: 12px; fill: rgb(36, 36, 36); fill-opacity: 1; white-space: pre; opacity: 1;" transform="translate(0,87)">200</text></g><g class="ytick"><text text-anchor="end" x="55.6" y="4.199999999999999" style="font-family: 'Open Sans', verdana, arial, sans-serif; font-size: 12px; fill: rgb(36, 36, 36); fill-opacity: 1; white-space: pre; opacity: 1;" transform="translate(0,23.689999999999998)">400</text></g></g><g class="overaxes-above"/></g></g><g class="polarlayer"/><g class="smithlayer"/><g class="ternarylayer"/><g class="geolayer"/><g class="funnelarealayer"/><g class="pielayer"/><g class="iciclelayer"/><g class="treemaplayer"/><g class="sunburstlayer"/><g class="glimages"/><defs id="topdefs-40993f"><g class="clips"/></defs><g class="layer-above"><g class="imagelayer"/><g class="shapelayer"/></g><g class="infolayer"><g class="g-gtitle"/><g class="g-xtitle"><text class="xtitle" x="227" y="239.70625" text-anchor="middle" style="font-family: 'Open Sans', verdana, arial, sans-serif; font-size: 14px; fill: rgb(36, 36, 36); opacity: 1; font-weight: normal; white-space: pre;">DecDate</text></g><g class="g-ytitle" transform="translate(4.7841796875,0)"><text class="ytitle" transform="rotate(-90,10.215625000000003,100.5)" x="10.215625000000003" y="100.5" text-anchor="middle" style="font-family: 'Open Sans', verdana, arial, sans-serif; font-size: 14px; fill: rgb(36, 36, 36); opacity: 1; font-weight: normal; white-space: pre;">Avg</text></g></g></svg>