<svg class="main-svg" xmlns="http://www.w3.org/2000/svg" xmlns:xlink="http://www.w3.org/1999/xlink" width="800" height="250" style="" viewBox="0 0 800 250"><rect x="0" y="0" width="800" height="250" style="fill: rgb(255, 255, 255); fill-opacity: 1;"/><defs id="defs-a3ca9c"><g class="clips"><clipPath id="clipa3ca9cxyplot" class="plotclip"><rect width="185.4666666666667" height="207"/></clipPath><clipPath id="clipa3ca9cx2y2plot" class="plotclip"><rect width="185.4666666666667" height="207"/></clipPath><clipPath id="clipa3ca9cx3y3plot" class="plotclip"><rect width="185.46666666666664" height="207"/></clipPath><clipPath class="axesclip" id="clipa3ca9cx"><rect x="38" y="0" width="185.4666666666667" height="250"/></clipPath><clipPath class="axesclip" id="clipa3ca9cy"><rect x="0" y="10" width="800" height="207"/></clipPath><clipPath class="axesclip" id="clipa3ca9cxy"><rect x="38" y="10" width="185.4666666666667" height="207"/></clipPath><clipPath class="axesclip" id="clipa3ca9cy2"><rect x="0" y="10" width="800" height="207"/></clipPath><clipPath class="axesclip" id="clipa3ca9cxy2"><rect x="38" y="10" width="185.4666666666667" height="207"/></clipPath><clipPath class="axesclip" id="clipa3ca9cy3"><rect x="0" y="10" width="800" height="207"/></clipPath><clipPath class="axesclip" id="clipa3ca9cxy3"><rect x="38" y="10" width="185.4666666666667" height="207"/></clipPath><clipPath class="axesclip" id="clipa3ca9cx2"><rect x="266.26666666666665" y="0" width="185.4666666666667" height="250"/></clipPath><clipPath class="axesclip" id="clipa3ca9cx2y"><rect x="266.26666666666665" y="10" width="185.4666666666667" height="207"/></clipPath><clipPath class="axesclip" id="clipa3ca9cx2y2"><rect x="266.26666666666665" y="10" width="185.4666666666667" height="207"/></clipPath><clipPath class="axesclip" id="clipa3ca9cx2y3"><rect x="266.26666666666665" y="10" width="185.4666666666667" height="207"/></clipPath><clipPath class="axesclip" id="clipa3ca9cx3"><rect x="494.53333333333336" y="0" width="185.46666666666664" height="250"/></clipPath><clipPath class="axesclip" id="clipa3ca9cx3y"><rect x="494.53333333333336" y="10" width="185.46666666666664" height="207"/></clipPath><clipPath class="axesclip" id="clipa3ca9cx3y2"><rect x="494.53333333333336" y="10" width="185.46666666666664" height="207"/></clipPath><clipPath class="axesclip" id="clipa3ca9cx3y3"><rect x="494.53333333333336" y="10" width="185.46666666666664" height="207"/></clipPath></g><g class="gradients"/><g class="patterns"/></defs><g class="bglayer"/><g class="layer-below"><g class="imagelayer"/><g class="shapelayer"/></g><g class="cartesianlayer"><g class="subplot xy"><g class="layer-subplot"><g class="shapelayer"/><g class="imagelayer"/></g><g class="minor-gridlayer"><g class="x"/><g class="y"/></g><g class="gridlayer"><g class="x"><path class="xgrid crisp" transform="translate(130.73000000000002,0)" d="M0,10v207" style="stroke: rgb(232, 232, 232); stroke-opacity: 1; stroke-width: 1px;"/></g><g class="y"><path class="ygrid crisp" transform="translate(0,206.82)" d="M38,0h185.4666666666667" style="stroke: rgb(232, 232, 232); stroke-opacity: 1; stroke-width: 1px;"/><path class="ygrid crisp" transform="translate(0,169.49)" d="M38,0h185.4666666666667" style="stroke: rgb(232, 232, 232); stroke-opacity: 1; stroke-width: 1px;"/><path class="ygrid crisp" transform="translate(0,132.16)" d="M38,0h185.4666666666667" style="stroke: rgb(232, 232, 232); stroke-opacity: 1; stroke-width: 1px;"/><path class="ygrid crisp" transform="translate(0,94.84)" d="M38,0h185.4666666666667" style="stroke: rgb(232, 232, 232); stroke-opacity: 1; stroke-width: 1px;"/><path class="ygrid crisp" transform="translate(0,57.51)" d="M38,0h185.4666666666667" style="stroke: rgb(232, 232, 232); stroke-opacity: 1; stroke-width: 1px;"/><path class="ygrid crisp" transform="translate(0,20.18)" d="M38,0h185.4666666666667" style="stroke: rgb(232, 232, 232); stroke-opacity: 1; stroke-width: 1px;"/></g></g><g class="zerolinelayer"/><path class="xlines-below"/><path class="ylines-below"/><g class="overlines-below"/><g class="xaxislayer-below"/><g class="yaxislayer-below"/><g class="overaxes-below"/><g class="plot" transform="translate(38,10)" clip-path="url(#clipa3ca9cxyplot)"><g class="scatterlayer mlayer"><g class="trace scatter trace7e2f4c" style="stroke-miterlimit: 2; opacity: 1;"><g class="fills"/><g class="errorbars"/><g class="lines"><path class="js-line" d="M0,187.97L7.57,183.82L11.36,181.12L18.93,174.17L22.71,169.78L30.28,158.92L34.07,152.39L41.64,137.15L45.42,128.58L71.92,64.99L75.7,57.44L83.27,44.51L87.06,39.16L94.63,30.5L98.41,27.09L105.98,21.78L109.77,19.75L117.34,16.65L121.12,15.49L132.48,13.1L136.26,12.57L155.19,11.05L158.97,10.89L185.47,10.35" style="vector-effect: none; fill: none; stroke: rgb(31, 119, 180); stroke-opacity: 1; stroke-dasharray: 9px, 3px, 3px, 3px; stroke-width: 2px; opacity: 1;"/></g><g class="points"/><g class="text"/></g><g class="trace scatter trace158a62" style="stroke-miterlimit: 2; opacity: 1;"><g class="fills"/><g class="errorbars"/><g class="lines"><path class="js-line" d="M0,195.57L15.14,194.02L18.93,193.4L30.28,190.6L34.07,189.25L41.64,185.66L45.42,183.32L52.99,177.22L56.78,173.34L64.35,163.62L68.13,157.68L75.7,143.57L79.49,135.48L90.84,108.26L94.63,98.74L105.98,71.52L109.77,63.43L117.34,49.32L121.12,43.38L128.69,33.66L132.48,29.78L140.05,23.68L143.83,21.34L151.4,17.75L155.19,16.4L166.54,13.6L170.33,12.98L185.47,11.43" style="vector-effect: none; fill: none; stroke: rgb(255, 127, 14); stroke-opacity: 1; stroke-width: 2px; opacity: 1;"/></g><g class="points"/><g class="text"/></g><g class="trace scatter tracec50515" style="stroke-miterlimit: 2; opacity: 1;"><g class="fills"/><g class="errorbars"/><g class="lines"><path class="js-line" d="M0,196.65L37.85,195.52L41.64,195.23L56.78,193.26L60.56,192.47L71.92,188.95L75.7,187.25L83.27,182.79L87.06,179.91L94.63,172.49L98.41,167.84L105.98,156.4L109.77,149.56L117.34,133.79L121.12,125.01L143.83,69.85L147.62,61.89L155.19,48.08L158.97,42.28L166.54,32.83L170.33,29.07L177.9,23.18L181.68,20.92L185.47,19.03" style="vector-effect: none; fill: none; stroke: rgb(44, 160, 44); stroke-opacity: 1; stroke-dasharray: 3px, 3px; stroke-width: 2px; opacity: 1;"/></g><g class="points"/><g class="text"/></g></g></g><g class="overplot"/><path class="xlines-above crisp" d="M37,217.5H223.4666666666667" style="fill: none; stroke-width: 1px; stroke: rgb(36, 36, 36); stroke-opacity: 1;"/><path class="ylines-above crisp" d="M37.5,10V217" style="fill: none; stroke-width: 1px; stroke: rgb(36, 36, 36); stroke-opacity: 1;"/><g class="overlines-above"/><g class="xaxislayer-above"><path class="xtick ticks crisp" d="M0,218v5" transform="translate(38,0)" style="stroke: rgb(68, 68, 68); stroke-opacity: 1; stroke-width: 1px;"/><path class="xtick ticks crisp" d="M0,218v5" transform="translate(130.73000000000002,0)" style="stroke: rgb(68, 68, 68); stroke-opacity: 1; stroke-width: 1px;"/><path class="xtick ticks crisp" d="M0,218v5" transform="translate(223.47,0)" style="stroke: rgb(68, 68, 68); stroke-opacity: 1; stroke-width: 1px;"/><g class="xtick"><text text-anchor="middle" x="0" y="237.4" transform="translate(38,0)" style="font-family: 'Open Sans', verdana, arial, sans-serif; font-size: 12px; fill: rgb(36, 36, 36); fill-opacity: 1; white-space: pre; opacity: 1;">−5</text></g><g class="xtick"><text text-anchor="middle" x="0" y="237.4" style="font-family: 'Open Sans', verdana, arial, sans-serif; font-size: 12px; fill: rgb(36, 36, 36); fill-opacity: 1; white-space: pre; opacity: 1;" transform="translate(130.73000000000002,0)">0</text></g><g class="xtick"><text text-anchor="middle" x="0" y="237.4" style="font-family: 'Open Sans', verdana, arial, sans-serif; font-size: 12px; fill: rgb(36, 36, 36); fill-opacity: 1; white-space: pre; opacity: 1;" transform="translate(223.47,0)">5</text></g></g><g class="yaxislayer-above"><path class="ytick ticks crisp" d="M37,0h-5" transform="translate(0,206.82)" style="stroke: rgb(68, 68, 68); stroke-opacity: 1; stroke-width: 1px;"/><path class="ytick ticks crisp" d="M37,0h-5" transform="translate(0,169.49)" style="stroke: rgb(68, 68, 68); stroke-opacity: 1; stroke-width: 1px;"/><path class="ytick ticks crisp" d="M37,0h-5" transform="translate(0,132.16)" style="stroke: rgb(68, 68, 68); stroke-opacity: 1; stroke-width: 1px;"/><path class="ytick ticks crisp" d="M37,0h-5" transform="translate(0,94.84)" style="stroke: rgb(68, 68, 68); stroke-opacity: 1; stroke-width: 1px;"/><path class="ytick ticks crisp" d="M37,0h-5" transform="translate(0,57.51)" style="stroke: rgb(68, 68, 68); stroke-opacity: 1; stroke-width: 1px;"/><path class="ytick ticks crisp" d="M37,0h-5" transform="translate(0,20.18)" style="stroke: rgb(68, 68, 68); stroke-opacity: 1; stroke-width: 1px;"/><g class="ytick"><text text-anchor="end" x="29.6" y="4.199999999999999" transform="translate(0,206.82)" style="font-family: 'Open Sans', verdana, arial, sans-serif; font-size: 12px; fill: rgb(36, 36, 36); fill-opacity: 1; white-space: pre; opacity: 1;">0</text></g><g class="ytick"><text text-anchor="end" x="29.6" y="4.199999999999999" style="font-family: 'Open Sans', verdana, arial, sans-serif; font-size: 12px; fill: rgb(36, 36, 36); fill-opacity: 1; white-space: pre; opacity: 1;" transform="translate(0,169.49)">0.2</text></g><g class="ytick"><text text-anchor="end" x="29.6" y="4.199999999999999" style="font-family: 'Open Sans', verdana, arial, sans-serif; font-size: 12px; fill: rgb(36, 36, 36); fill-opacity: 1; white-space: pre; opacity: 1;" transform="translate(0,132.16)">0.4</text></g><g class="ytick"><text text-anchor="end" x="29.6" y="4.199999999999999" style="font-family: 'Open Sans', verdana, arial, sans-serif; font-size: 12px; fill: rgb(36, 36, 36); fill-opacity: 1; white-space: pre; opacity: 1;" transform="translate(0,94.84)">0.6</text></g><g class="ytick"><text text-anchor="end" x="29.6" y="4.199999999999999" style="font-family: 'Open Sans', verdana, arial, sans-serif; font-size: 12px; fill: rgb(36, 36, 36); fill-opacity: 1; white-space: pre; opacity: 1;" transform="translate(0,57.51)">0.8</text></g><g class="ytick"><text text-anchor="end" x="29.6" y="4.199999999999999" style="font-family: 'Open Sans', verdana, arial, sans-serif; font-size: 12px; fill: rgb(36, 36, 36); fill-opacity: 1; white-space: pre; opacity: 1;" transform="translate(0,20.18)">1</text></g></g><g class="overaxes-above"/></g><g class="subplot x2y2"><g class="layer-subplot"><g class="shapelayer"/><g class="imagelayer"/></g><g class="minor-gridlayer"><g class="x2"/><g class="y2"/></g><g class="gridlayer"><g class="x2"><path class="x2grid crisp" transform="translate(358.99666666666667,0)" d="M0,10v207" style="stroke: rgb(232, 232, 232); stroke-opacity: 1; stroke-width: 1px;"/></g><g class="y2"><path class="y2grid crisp" transform="translate(0,206.65)" d="M266.26666666666665,0h185.4666666666667" style="stroke: rgb(232, 232, 232); stroke-opacity: 1; stroke-width: 1px;"/><path class="y2grid crisp" transform="translate(0,169.39)" d="M266.26666666666665,0h185.4666666666667" style="stroke: rgb(232, 232, 232); stroke-opacity: 1; stroke-width: 1px;"/><path class="y2grid crisp" transform="translate(0,132.13)" d="M266.26666666666665,0h185.4666666666667" style="stroke: rgb(232, 232, 232); stroke-opacity: 1; stroke-width: 1px;"/><path class="y2grid crisp" transform="translate(0,94.87)" d="M266.26666666666665,0h185.4666666666667" style="stroke: rgb(232, 232, 232); stroke-opacity: 1; stroke-width: 1px;"/><path class="y2grid crisp" transform="translate(0,57.61)" d="M266.26666666666665,0h185.4666666666667" style="stroke: rgb(232, 232, 232); stroke-opacity: 1; stroke-width: 1px;"/><path class="y2grid crisp" transform="translate(0,20.35)" d="M266.26666666666665,0h185.4666666666667" style="stroke: rgb(232, 232, 232); stroke-opacity: 1; stroke-width: 1px;"/></g></g><g class="zerolinelayer"/><path class="xlines-below"/><path class="ylines-below"/><g class="overlines-below"/><g class="xaxislayer-below"/><g class="yaxislayer-below"/><g class="overaxes-below"/><g class="plot" transform="translate(266.26666666666665,10)" clip-path="url(#clipa3ca9cx2y2plot)"><g class="scatterlayer mlayer"><g class="trace scatter trace0624b6" style="stroke-miterlimit: 2; opacity: 1;"><g class="fills"/><g class="errorbars"/><g class="lines"><path class="js-line" d="M0,196.65L64.35,196L68.13,194.85L71.92,191.75L75.7,183.67L79.49,164.6L83.27,128.53L90.84,44.62L94.63,24.35L98.41,15.65L102.2,12.3L105.98,11.06L109.77,10.61L128.69,10.35L132.48,10.35L185.47,10.35" style="vector-effect: none; fill: none; stroke: rgb(214, 39, 40); stroke-opacity: 1; stroke-dasharray: 9px, 3px, 3px, 3px; stroke-width: 2px; opacity: 1;"/></g><g class="points"/><g class="text"/></g><g class="trace scatter traceab419f" style="stroke-miterlimit: 2; opacity: 1;"><g class="fills"/><g class="errorbars"/><g class="lines"><path class="js-line" d="M0,196.65L71.92,195.97L75.7,194.78L79.49,191.56L83.27,183.17L87.06,163.51L90.84,126.76L94.63,80.24L98.41,43.49L102.2,23.83L105.98,15.44L109.77,12.22L113.55,11.03L124.91,10.38L128.69,10.36L185.47,10.35" style="vector-effect: none; fill: none; stroke: rgb(148, 103, 189); stroke-opacity: 1; stroke-width: 2px; opacity: 1;"/></g><g class="points"/><g class="text"/></g><g class="trace scatter trace2c8515" style="stroke-miterlimit: 2; opacity: 1;"><g class="fills"/><g class="errorbars"/><g class="lines"><path class="js-line" d="M0,196.65L79.49,195.94L83.27,194.7L87.06,191.35L90.84,182.65L94.63,162.38L98.41,124.97L102.2,78.47L105.98,42.4L109.77,23.33L113.55,15.25L117.34,12.15L121.12,11L132.48,10.38L136.26,10.36L185.47,10.35" style="vector-effect: none; fill: none; stroke: rgb(140, 86, 75); stroke-opacity: 1; stroke-dasharray: 3px, 3px; stroke-width: 2px; opacity: 1;"/></g><g class="points"/><g class="text"/></g></g></g><g class="overplot"/><path class="xlines-above crisp" d="M265.26666666666665,217.5H451.73333333333335" style="fill: none; stroke-width: 1px; stroke: rgb(36, 36, 36); stroke-opacity: 1;"/><path class="ylines-above crisp" d="M265.76666666666665,10V217" style="fill: none; stroke-width: 1px; stroke: rgb(36, 36, 36); stroke-opacity: 1;"/><g class="overlines-above"/><g class="xaxislayer-above"><path class="x2tick ticks crisp" d="M0,218v5" transform="translate(266.26666666666665,0)" style="stroke: rgb(68, 68, 68); stroke-opacity: 1; stroke-width: 1px;"/><path class="x2tick ticks crisp" d="M0,218v5" transform="translate(358.99666666666667,0)" style="stroke: rgb(68, 68, 68); stroke-opacity: 1; stroke-width: 1px;"/><path class="x2tick ticks crisp" d="M0,218v5" transform="translate(451.7366666666667,0)" style="stroke: rgb(68, 68, 68); stroke-opacity: 1; stroke-width: 1px;"/><g class="x2tick"><text text-anchor="middle" x="0" y="237.4" transform="translate(266.26666666666665,0)" style="font-family: 'Open Sans', verdana, arial, sans-serif; font-size: 12px; fill: rgb(36, 36, 36); fill-opacity: 1; white-space: pre; opacity: 1;">−5</text></g><g class="x2tick"><text text-anchor="middle" x="0" y="237.4" style="font-family: 'Open Sans', verdana, arial, sans-serif; font-size: 12px; fill: rgb(36, 36, 36); fill-opacity: 1; white-space: pre; opacity: 1;" transform="translate(358.99666666666667,0)">0</text></g><g class="x2tick"><text text-anchor="middle" x="0" y="237.4" style="font-family: 'Open Sans', verdana, arial, sans-serif; font-size: 12px; fill: rgb(36, 36, 36); fill-opacity: 1; white-space: pre; opacity: 1;" transform="translate(451.7366666666667,0)">5</text></g></g><g class="yaxislayer-above"><path class="y2tick ticks crisp" d="M265.26666666666665,0h-5" transform="translate(0,206.65)" style="stroke: rgb(68, 68, 68); stroke-opacity: 1; stroke-width: 1px;"/><path class="y2tick ticks crisp" d="M265.26666666666665,0h-5" transform="translate(0,169.39)" style="stroke: rgb(68, 68, 68); stroke-opacity: 1; stroke-width: 1px;"/><path class="y2tick ticks crisp" d="M265.26666666666665,0h-5" transform="translate(0,132.13)" style="stroke: rgb(68, 68, 68); stroke-opacity: 1; stroke-width: 1px;"/><path class="y2tick ticks crisp" d="M265.26666666666665,0h-5" transform="translate(0,94.87)" style="stroke: rgb(68, 68, 68); stroke-opacity: 1; stroke-width: 1px;"/><path class="y2tick ticks crisp" d="M265.26666666666665,0h-5" transform="translate(0,57.61)" style="stroke: rgb(68, 68, 68); stroke-opacity: 1; stroke-width: 1px;"/><path class="y2tick ticks crisp" d="M265.26666666666665,0h-5" transform="translate(0,20.35)" style="stroke: rgb(68, 68, 68); stroke-opacity: 1; stroke-width: 1px;"/><g class="y2tick"><text text-anchor="end" x="257.8666666666667" y="4.199999999999999" transform="translate(0,206.65)" style="font-family: 'Open Sans', verdana, arial, sans-serif; font-size: 12px; fill: rgb(36, 36, 36); fill-opacity: 1; white-space: pre; opacity: 1;">0</text></g><g class="y2tick"><text text-anchor="end" x="257.8666666666667" y="4.199999999999999" style="font-family: 'Open Sans', verdana, arial, sans-serif; font-size: 12px; fill: rgb(36, 36, 36); fill-opacity: 1; white-space: pre; opacity: 1;" transform="translate(0,169.39)">0.2</text></g><g class="y2tick"><text text-anchor="end" x="257.8666666666667" y="4.199999999999999" style="font-family: 'Open Sans', verdana, arial, sans-serif; font-size: 12px; fill: rgb(36, 36, 36); fill-opacity: 1; white-space: pre; opacity: 1;" transform="translate(0,132.13)">0.4</text></g><g class="y2tick"><text text-anchor="end" x="257.8666666666667" y="4.199999999999999" style="font-family: 'Open Sans', verdana, arial, sans-serif; font-size: 12px; fill: rgb(36, 36, 36); fill-opacity: 1; white-space: pre; opacity: 1;" transform="translate(0,94.87)">0.6</text></g><g class="y2tick"><text text-anchor="end" x="257.8666666666667" y="4.199999999999999" style="font-family: 'Open Sans', verdana, arial, sans-serif; font-size: 12px; fill: rgb(36, 36, 36); fill-opacity: 1; white-space: pre; opacity: 1;" transform="translate(0,57.61)">0.8</text></g><g class="y2tick"><text text-anchor="end" x="257.8666666666667" y="4.199999999999999" style="font-family: 'Open Sans', verdana, arial, sans-serif; font-size: 12px; fill: rgb(36, 36, 36); fill-opacity: 1; white-space: pre; opacity: 1;" transform="translate(0,20.35)">1</text></g></g><g class="overaxes-above"/></g><g class="subplot x3y3"><g class="layer-subplot"><g class="shapelayer"/><g class="imagelayer"/></g><g class="minor-gridlayer"><g class="x3"/><g class="y3"/></g><g class="gridlayer"><g class="x3"><path class="x3grid crisp" transform="translate(587.2633333333333,0)" d="M0,10v207" style="stroke: rgb(232, 232, 232); stroke-opacity: 1; stroke-width: 1px;"/></g><g class="y3"><path class="y3grid crisp" transform="translate(0,206.82)" d="M494.53333333333336,0h185.46666666666664" style="stroke: rgb(232, 232, 232); stroke-opacity: 1; stroke-width: 1px;"/><path class="y3grid crisp" transform="translate(0,169.49)" d="M494.53333333333336,0h185.46666666666664" style="stroke: rgb(232, 232, 232); stroke-opacity: 1; stroke-width: 1px;"/><path class="y3grid crisp" transform="translate(0,132.16)" d="M494.53333333333336,0h185.46666666666664" style="stroke: rgb(232, 232, 232); stroke-opacity: 1; stroke-width: 1px;"/><path class="y3grid crisp" transform="translate(0,94.84)" d="M494.53333333333336,0h185.46666666666664" style="stroke: rgb(232, 232, 232); stroke-opacity: 1; stroke-width: 1px;"/><path class="y3grid crisp" transform="translate(0,57.51)" d="M494.53333333333336,0h185.46666666666664" style="stroke: rgb(232, 232, 232); stroke-opacity: 1; stroke-width: 1px;"/><path class="y3grid crisp" transform="translate(0,20.18)" d="M494.53333333333336,0h185.46666666666664" style="stroke: rgb(232, 232, 232); stroke-opacity: 1; stroke-width: 1px;"/></g></g><g class="zerolinelayer"/><path class="xlines-below"/><path class="ylines-below"/><g class="overlines-below"/><g class="xaxislayer-below"/><g class="yaxislayer-below"/><g class="overaxes-below"/><g class="plot" transform="translate(494.53333333333336,10)" clip-path="url(#clipa3ca9cx3y3plot)"><g class="scatterlayer mlayer"><g class="trace scatter trace2d4d79" style="stroke-miterlimit: 2; opacity: 1;"><g class="fills"/><g class="errorbars"/><g class="lines"><path class="js-line" d="M0,10.35L37.85,11.48L41.64,11.77L56.78,13.74L60.56,14.53L71.92,18.05L75.7,19.75L83.27,24.21L87.06,27.09L94.63,34.51L98.41,39.16L105.98,50.6L109.77,57.44L117.34,73.21L121.12,81.99L143.83,137.15L147.62,145.11L155.19,158.92L158.97,164.72L166.54,174.17L170.33,177.93L177.9,183.82L181.68,186.08L185.47,187.97" style="vector-effect: none; fill: none; stroke: rgb(227, 119, 194); stroke-opacity: 1; stroke-dasharray: 9px, 3px, 3px, 3px; stroke-width: 2px; opacity: 1;"/></g><g class="points"/><g class="text"/></g><g class="trace scatter traceb5c3cd" style="stroke-miterlimit: 2; opacity: 1;"><g class="fills"/><g class="errorbars"/><g class="lines"><path class="js-line" d="M0,11.43L15.14,12.98L18.93,13.6L30.28,16.4L34.07,17.75L41.64,21.34L45.42,23.68L52.99,29.78L56.78,33.66L64.35,43.38L68.13,49.32L75.7,63.43L79.49,71.52L90.84,98.74L94.63,108.26L105.98,135.48L109.77,143.57L117.34,157.68L121.12,163.62L128.69,173.34L132.48,177.22L140.05,183.32L143.83,185.66L151.4,189.25L155.19,190.6L166.54,193.4L170.33,194.02L185.47,195.57" style="vector-effect: none; fill: none; stroke: rgb(127, 127, 127); stroke-opacity: 1; stroke-width: 2px; opacity: 1;"/></g><g class="points"/><g class="text"/></g><g class="trace scatter traceb40287" style="stroke-miterlimit: 2; opacity: 1;"><g class="fills"/><g class="errorbars"/><g class="lines"><path class="js-line" d="M0,19.03L7.57,23.18L11.36,25.88L18.93,32.83L22.71,37.22L30.28,48.08L34.07,54.61L41.64,69.85L45.42,78.42L71.92,142.01L75.7,149.56L83.27,162.49L87.06,167.84L94.63,176.5L98.41,179.91L105.98,185.22L109.77,187.25L117.34,190.35L121.12,191.51L132.48,193.9L136.26,194.43L155.19,195.95L158.97,196.11L185.47,196.65" style="vector-effect: none; fill: none; stroke: rgb(188, 189, 34); stroke-opacity: 1; stroke-dasharray: 3px, 3px; stroke-width: 2px; opacity: 1;"/></g><g class="points"/><g class="text"/></g></g></g><g class="overplot"/><path class="xlines-above crisp" d="M493.53333333333336,217.5H680" style="fill: none; stroke-width: 1px; stroke: rgb(36, 36, 36); stroke-opacity: 1;"/><path class="ylines-above crisp" d="M494.03333333333336,10V217" style="fill: none; stroke-width: 1px; stroke: rgb(36, 36, 36); stroke-opacity: 1;"/><g class="overlines-above"/><g class="xaxislayer-above"><path class="x3tick ticks crisp" d="M0,218v5" transform="translate(494.53333333333336,0)" style="stroke: rgb(68, 68, 68); stroke-opacity: 1; stroke-width: 1px;"/><path class="x3tick ticks crisp" d="M0,218v5" transform="translate(587.2633333333333,0)" style="stroke: rgb(68, 68, 68); stroke-opacity: 1; stroke-width: 1px;"/><path class="x3tick ticks crisp" d="M0,218v5" transform="translate(680.0033333333333,0)" style="stroke: rgb(68, 68, 68); stroke-opacity: 1; stroke-width: 1px;"/><g class="x3tick"><text text-anchor="middle" x="0" y="237.4" transform="translate(494.53333333333336,0)" style="font-family: 'Open Sans', verdana, arial, sans-serif; font-size: 12px; fill: rgb(36, 36, 36); fill-opacity: 1; white-space: pre; opacity: 1;">−5</text></g><g class="x3tick"><text text-anchor="middle" x="0" y="237.4" style="font-family: 'Open Sans', verdana, arial, sans-serif; font-size: 12px; fill: rgb(36, 36, 36); fill-opacity: 1; white-space: pre; opacity: 1;" transform="translate(587.2633333333333,0)">0</text></g><g class="x3tick"><text text-anchor="middle" x="0" y="237.4" style="font-family: 'Open Sans', verdana, arial, sans-serif; font-size: 12px; fill: rgb(36, 36, 36); fill-opacity: 1; white-space: pre; opacity: 1;" transform="translate(680.0033333333333,0)">5</text></g></g><g class="yaxislayer-above"><path class="y3tick ticks crisp" d="M493.53333333333336,0h-5" transform="translate(0,206.82)" style="stroke: rgb(68, 68, 68); stroke-opacity: 1; stroke-width: 1px;"/><path class="y3tick ticks crisp" d="M493.53333333333336,0h-5" transform="translate(0,169.49)" style="stroke: rgb(68, 68, 68); stroke-opacity: 1; stroke-width: 1px;"/><path class="y3tick ticks crisp" d="M493.53333333333336,0h-5" transform="translate(0,132.16)" style="stroke: rgb(68, 68, 68); stroke-opacity: 1; stroke-width: 1px;"/><path class="y3tick ticks crisp" d="M493.53333333333336,0h-5" transform="translate(0,94.84)" style="stroke: rgb(68, 68, 68); stroke-opacity: 1; stroke-width: 1px;"/><path class="y3tick ticks crisp" d="M493.53333333333336,0h-5" transform="translate(0,57.51)" style="stroke: rgb(68, 68, 68); stroke-opacity: 1; stroke-width: 1px;"/><path class="y3tick ticks crisp" d="M493.53333333333336,0h-5" transform="translate(0,20.18)" style="stroke: rgb(68, 68, 68); stroke-opacity: 1; stroke-width: 1px;"/><g class="y3tick"><text text-anchor="end" x="486.1333333333334" y="4.199999999999999" transform="translate(0,206.82)" style="font-family: 'Open Sans', verdana, arial, sans-serif; font-size: 12px; fill: rgb(36, 36, 36); fill-opacity: 1; white-space: pre; opacity: 1;">0</text></g><g class="y3tick"><text text-anchor="end" x="486.1333333333334" y="4.199999999999999" style="font-family: 'Open Sans', verdana, arial, sans-serif; font-size: 12px; fill: rgb(36, 36, 36); fill-opacity: 1; white-space: pre; opacity: 1;" transform="translate(0,169.49)">0.2</text></g><g class="y3tick"><text text-anchor="end" x="486.1333333333334" y="4.199999999999999" style="font-family: 'Open Sans', verdana, arial, sans-serif; font-size: 12px; fill: rgb(36, 36, 36); fill-opacity: 1; white-space: pre; opacity: 1;" transform="translate(0,132.16)">0.4</text></g><g class="y3tick"><text text-anchor="end" x="486.1333333333334" y="4.199999999999999" style="font-family: 'Open Sans', verdana, arial, sans-serif; font-size: 12px; fill: rgb(36, 36, 36); fill-opacity: 1; white-space: pre; opacity: 1;" transform="translate(0,94.84)">0.6</text></g><g class="y3tick"><text text-anchor="end" x="486.1333333333334" y="4.199999999999999" style="font-family: 'Open Sans', verdana, arial, sans-serif; font-size: 12px; fill: rgb(36, 36, 36); fill-opacity: 1; white-space: pre; opacity: 1;" transform="translate(0,57.51)">0.8</text></g><g class="y3tick"><text text-anchor="end" x="486.1333333333334" y="4.199999999999999" style="font-family: 'Open Sans', verdana, arial, sans-serif; font-size: 12px; fill: rgb(36, 36, 36); fill-opacity: 1; white-space: pre; opacity: 1;" transform="translate(0,20.18)">1</text></g></g><g class="overaxes-above"/></g></g><g class="polarlayer"/><g class="smithlayer"/><g class="ternarylayer"/><g class="geolayer"/><g class="funnelarealayer"/><g class="pielayer"/><g class="iciclelayer"/><g class="treemaplayer"/><g class="sunburstlayer"/><g class="glimages"/><defs id="topdefs-a3ca9c"><g class="clips"/><clipPath id="legenda3ca9c"><rect width="97" height="181" x="0" y="0"/></clipPath></defs><g class="layer-above"><g class="imagelayer"/><g class="shapelayer"/></g><g class="infolayer"><g class="legend" pointer-events="all" transform="translate(692.84,10)"><rect class="bg" shape-rendering="crispEdges" style="stroke: rgb(68, 68, 68); stroke-opacity: 1; fill: rgb(255, 255, 255); fill-opacity: 1; stroke-width: 0px;" width="97" height="181" x="0" y="0"/><g class="scrollbox" transform="" clip-path="url(#legenda3ca9c)"><g class="groups"><g class="traces" transform="translate(0,14.5)" style="opacity: 1;"><text class="legendtext" text-anchor="start" x="40" y="4.680000000000001" style="font-family: 'Open Sans', verdana, arial, sans-serif; font-size: 12px; fill: rgb(36, 36, 36); fill-opacity: 1; white-space: pre;">2 + 1x</text><g class="layers" style="opacity: 1;"><g class="legendfill"/><g class="legendlines"><path class="js-line" d="M5,0h30" style="fill: none; stroke: rgb(31, 119, 180); stroke-opacity: 1; stroke-dasharray: 9px, 3px, 3px, 3px; stroke-width: 2px;"/></g><g class="legendsymbols"><g class="legendpoints"/></g></g><rect class="legendtoggle" x="0" y="-9.5" width="91.515625" height="19" style="fill: rgb(0, 0, 0); fill-opacity: 0;"/></g><g class="traces" transform="translate(0,33.5)" style="opacity: 1;"><text class="legendtext" text-anchor="start" x="40" y="4.680000000000001" style="font-family: 'Open Sans', verdana, arial, sans-serif; font-size: 12px; fill: rgb(36, 36, 36); fill-opacity: 1; white-space: pre;">0 + 1x</text><g class="layers" style="opacity: 1;"><g class="legendfill"/><g class="legendlines"><path class="js-line" d="M5,0h30" style="fill: none; stroke: rgb(255, 127, 14); stroke-opacity: 1; stroke-width: 2px;"/></g><g class="legendsymbols"><g class="legendpoints"/></g></g><rect class="legendtoggle" x="0" y="-9.5" width="91.515625" height="19" style="fill: rgb(0, 0, 0); fill-opacity: 0;"/></g><g class="traces" transform="translate(0,52.5)" style="opacity: 1;"><text class="legendtext" text-anchor="start" x="40" y="4.680000000000001" style="font-family: 'Open Sans', verdana, arial, sans-serif; font-size: 12px; fill: rgb(36, 36, 36); fill-opacity: 1; white-space: pre;">-2 + 1x</text><g class="layers" style="opacity: 1;"><g class="legendfill"/><g class="legendlines"><path class="js-line" d="M5,0h30" style="fill: none; stroke: rgb(44, 160, 44); stroke-opacity: 1; stroke-dasharray: 3px, 3px; stroke-width: 2px;"/></g><g class="legendsymbols"><g class="legendpoints"/></g></g><rect class="legendtoggle" x="0" y="-9.5" width="91.515625" height="19" style="fill: rgb(0, 0, 0); fill-opacity: 0;"/></g><g class="traces" transform="translate(0,71.5)" style="opacity: 1;"><text class="legendtext" text-anchor="start" x="40" y="4.680000000000001" style="font-family: 'Open Sans', verdana, arial, sans-serif; font-size: 12px; fill: rgb(36, 36, 36); fill-opacity: 1; white-space: pre;">2 + 5x</text><g class="layers" style="opacity: 1;"><g class="legendfill"/><g class="legendlines"><path class="js-line" d="M5,0h30" style="fill: none; stroke: rgb(214, 39, 40); stroke-opacity: 1; stroke-dasharray: 9px, 3px, 3px, 3px; stroke-width: 2px;"/></g><g class="legendsymbols"><g class="legendpoints"/></g></g><rect class="legendtoggle" x="0" y="-9.5" width="91.515625" height="19" style="fill: rgb(0, 0, 0); fill-opacity: 0;"/></g><g class="traces" transform="translate(0,90.5)" style="opacity: 1;"><text class="legendtext" text-anchor="start" x="40" y="4.680000000000001" style="font-family: 'Open Sans', verdana, arial, sans-serif; font-size: 12px; fill: rgb(36, 36, 36); fill-opacity: 1; white-space: pre;">0 + 5x</text><g class="layers" style="opacity: 1;"><g class="legendfill"/><g class="legendlines"><path class="js-line" d="M5,0h30" style="fill: none; stroke: rgb(148, 103, 189); stroke-opacity: 1; stroke-width: 2px;"/></g><g class="legendsymbols"><g class="legendpoints"/></g></g><rect class="legendtoggle" x="0" y="-9.5" width="91.515625" height="19" style="fill: rgb(0, 0, 0); fill-opacity: 0;"/></g><g class="traces" transform="translate(0,109.5)" style="opacity: 1;"><text class="legendtext" text-anchor="start" x="40" y="4.680000000000001" style="font-family: 'Open Sans', verdana, arial, sans-serif; font-size: 12px; fill: rgb(36, 36, 36); fill-opacity: 1; white-space: pre;">-2 + 5x</text><g class="layers" style="opacity: 1;"><g class="legendfill"/><g class="legendlines"><path class="js-line" d="M5,0h30" style="fill: none; stroke: rgb(140, 86, 75); stroke-opacity: 1; stroke-dasharray: 3px, 3px; stroke-width: 2px;"/></g><g class="legendsymbols"><g class="legendpoints"/></g></g><rect class="legendtoggle" x="0" y="-9.5" width="91.515625" height="19" style="fill: rgb(0, 0, 0); fill-opacity: 0;"/></g><g class="traces" transform="translate(0,128.5)" style="opacity: 1;"><text class="legendtext" text-anchor="start" x="40" y="4.680000000000001" style="font-family: 'Open Sans', verdana, arial, sans-serif; font-size: 12px; fill: rgb(36, 36, 36); fill-opacity: 1; white-space: pre;">2 + -1x</text><g class="layers" style="opacity: 1;"><g class="legendfill"/><g class="legendlines"><path class="js-line" d="M5,0h30" style="fill: none; stroke: rgb(227, 119, 194); stroke-opacity: 1; stroke-dasharray: 9px, 3px, 3px, 3px; stroke-width: 2px;"/></g><g class="legendsymbols"><g class="legendpoints"/></g></g><rect class="legendtoggle" x="0" y="-9.5" width="91.515625" height="19" style="fill: rgb(0, 0, 0); fill-opacity: 0;"/></g><g class="traces" transform="translate(0,147.5)" style="opacity: 1;"><text class="legendtext" text-anchor="start" x="40" y="4.680000000000001" style="font-family: 'Open Sans', verdana, arial, sans-serif; font-size: 12px; fill: rgb(36, 36, 36); fill-opacity: 1; white-space: pre;">0 + -1x</text><g class="layers" style="opacity: 1;"><g class="legendfill"/><g class="legendlines"><path class="js-line" d="M5,0h30" style="fill: none; stroke: rgb(127, 127, 127); stroke-opacity: 1; stroke-width: 2px;"/></g><g class="legendsymbols"><g class="legendpoints"/></g></g><rect class="legendtoggle" x="0" y="-9.5" width="91.515625" height="19" style="fill: rgb(0, 0, 0); fill-opacity: 0;"/></g><g class="traces" transform="translate(0,166.5)" style="opacity: 1;"><text class="legendtext" text-anchor="start" x="40" y="4.680000000000001" style="font-family: 'Open Sans', verdana, arial, sans-serif; font-size: 12px; fill: rgb(36, 36, 36); fill-opacity: 1; white-space: pre;">-2 + -1x</text><g class="layers" style="opacity: 1;"><g class="legendfill"/><g class="legendlines"><path class="js-line" d="M5,0h30" style="fill: none; stroke: rgb(188, 189, 34); stroke-opacity: 1; stroke-dasharray: 3px, 3px; stroke-width: 2px;"/></g><g class="legendsymbols"><g class="legendpoints"/></g></g><rect class="legendtoggle" x="0" y="-9.5" width="91.515625" height="19" style="fill: rgb(0, 0, 0); fill-opacity: 0;"/></g></g></g><rect class="scrollbar" rx="20" ry="3" width="0" height="0" style="fill: rgb(128, 139, 164); fill-opacity: 1;" x="0" y="0"/></g><g class="g-gtitle"/><g class="g-xtitle"/><g class="g-x2title"/><g class="g-x3title"/><g class="g-ytitle"/><g class="g-y2title"/><g class="g-y3title"/></g></svg>