<?xml version="1.0" encoding="utf-8" standalone="no"?>
<!DOCTYPE svg PUBLIC "-//W3C//DTD SVG 1.1//EN"
  "http://www.w3.org/Graphics/SVG/1.1/DTD/svg11.dtd">
<!-- Created with matplotlib (https://matplotlib.org/) -->
<svg height="209.570312pt" version="1.1" viewBox="0 0 352.8 209.570312" width="352.8pt" xmlns="http://www.w3.org/2000/svg" xmlns:xlink="http://www.w3.org/1999/xlink">
 <metadata>
  <rdf:RDF xmlns:cc="http://creativecommons.org/ns#" xmlns:dc="http://purl.org/dc/elements/1.1/" xmlns:rdf="http://www.w3.org/1999/02/22-rdf-syntax-ns#">
   <cc:Work>
    <dc:type rdf:resource="http://purl.org/dc/dcmitype/StillImage"/>
    <dc:date>2023-07-16T23:15:50.942662</dc:date>
    <dc:format>image/svg+xml</dc:format>
    <dc:creator>
     <cc:Agent>
      <dc:title>Matplotlib v3.3.4, https://matplotlib.org/</dc:title>
     </cc:Agent>
    </dc:creator>
   </cc:Work>
  </rdf:RDF>
 </metadata>
 <defs>
  <style type="text/css">*{stroke-linecap:butt;stroke-linejoin:round;}</style>
 </defs>
 <g id="figure_1">
  <g id="patch_1">
   <path d="M 0 209.570312 
L 352.8 209.570312 
L 352.8 0 
L 0 0 
z
" style="fill:#ffffff;"/>
  </g>
  <g id="axes_1">
   <g id="patch_2">
    <path d="M 7.2 83.625 
L 112.8 83.625 
L 112.8 21.825 
L 7.2 21.825 
z
" style="fill:#ffffff;"/>
   </g>
   <g id="matplotlib.axis_1">
    <g id="xtick_1">
     <g id="line2d_1">
      <path clip-path="url(#pf0b3654aa8)" d="M 28.32 83.625 
L 28.32 21.825 
" style="fill:none;stroke:#cccccc;stroke-linecap:round;stroke-width:0.8;"/>
     </g>
     <g id="text_1">
      <!-- 0 -->
      <g style="fill:#262626;" transform="translate(25.539531 97.782812)scale(0.1 -0.1)">
       <defs>
        <path d="M 4.15625 35.296875 
Q 4.15625 48 6.765625 55.734375 
Q 9.375 63.484375 14.515625 67.671875 
Q 19.671875 71.875 27.484375 71.875 
Q 33.25 71.875 37.59375 69.546875 
Q 41.9375 67.234375 44.765625 62.859375 
Q 47.609375 58.5 49.21875 52.21875 
Q 50.828125 45.953125 50.828125 35.296875 
Q 50.828125 22.703125 48.234375 14.96875 
Q 45.65625 7.234375 40.5 3 
Q 35.359375 -1.21875 27.484375 -1.21875 
Q 17.140625 -1.21875 11.234375 6.203125 
Q 4.15625 15.140625 4.15625 35.296875 
z
M 13.1875 35.296875 
Q 13.1875 17.671875 17.3125 11.828125 
Q 21.4375 6 27.484375 6 
Q 33.546875 6 37.671875 11.859375 
Q 41.796875 17.71875 41.796875 35.296875 
Q 41.796875 52.984375 37.671875 58.78125 
Q 33.546875 64.59375 27.390625 64.59375 
Q 21.34375 64.59375 17.71875 59.46875 
Q 13.1875 52.9375 13.1875 35.296875 
z
" id="ArialMT-48"/>
       </defs>
       <use xlink:href="#ArialMT-48"/>
      </g>
     </g>
    </g>
    <g id="xtick_2">
     <g id="line2d_2">
      <path clip-path="url(#pf0b3654aa8)" d="M 63.52 83.625 
L 63.52 21.825 
" style="fill:none;stroke:#cccccc;stroke-linecap:round;stroke-width:0.8;"/>
     </g>
     <g id="text_2">
      <!-- 5 -->
      <g style="fill:#262626;" transform="translate(60.739531 97.782812)scale(0.1 -0.1)">
       <defs>
        <path d="M 4.15625 18.75 
L 13.375 19.53125 
Q 14.40625 12.796875 18.140625 9.390625 
Q 21.875 6 27.15625 6 
Q 33.5 6 37.890625 10.78125 
Q 42.28125 15.578125 42.28125 23.484375 
Q 42.28125 31 38.0625 35.34375 
Q 33.84375 39.703125 27 39.703125 
Q 22.75 39.703125 19.328125 37.765625 
Q 15.921875 35.84375 13.96875 32.765625 
L 5.71875 33.84375 
L 12.640625 70.609375 
L 48.25 70.609375 
L 48.25 62.203125 
L 19.671875 62.203125 
L 15.828125 42.96875 
Q 22.265625 47.46875 29.34375 47.46875 
Q 38.71875 47.46875 45.15625 40.96875 
Q 51.609375 34.46875 51.609375 24.265625 
Q 51.609375 14.546875 45.953125 7.46875 
Q 39.0625 -1.21875 27.15625 -1.21875 
Q 17.390625 -1.21875 11.203125 4.25 
Q 5.03125 9.71875 4.15625 18.75 
z
" id="ArialMT-53"/>
       </defs>
       <use xlink:href="#ArialMT-53"/>
      </g>
     </g>
    </g>
    <g id="xtick_3">
     <g id="line2d_3">
      <path clip-path="url(#pf0b3654aa8)" d="M 98.72 83.625 
L 98.72 21.825 
" style="fill:none;stroke:#cccccc;stroke-linecap:round;stroke-width:0.8;"/>
     </g>
     <g id="text_3">
      <!-- 10 -->
      <g style="fill:#262626;" transform="translate(93.159062 97.782812)scale(0.1 -0.1)">
       <defs>
        <path d="M 37.25 0 
L 28.46875 0 
L 28.46875 56 
Q 25.296875 52.984375 20.140625 49.953125 
Q 14.984375 46.921875 10.890625 45.40625 
L 10.890625 53.90625 
Q 18.265625 57.375 23.78125 62.296875 
Q 29.296875 67.234375 31.59375 71.875 
L 37.25 71.875 
z
" id="ArialMT-49"/>
       </defs>
       <use xlink:href="#ArialMT-49"/>
       <use x="55.615234" xlink:href="#ArialMT-48"/>
      </g>
     </g>
    </g>
   </g>
   <g id="matplotlib.axis_2"/>
   <g id="LineCollection_1">
    <path clip-path="url(#pf0b3654aa8)" d="M 21.28 83.625 
L 21.28 65.085 
" style="fill:none;stroke:#1f77b4;"/>
    <path clip-path="url(#pf0b3654aa8)" d="M 28.32 83.625 
L 28.32 65.085 
" style="fill:none;stroke:#1f77b4;"/>
    <path clip-path="url(#pf0b3654aa8)" d="M 42.4 83.625 
L 42.4 65.085 
" style="fill:none;stroke:#1f77b4;"/>
    <path clip-path="url(#pf0b3654aa8)" d="M 63.52 83.625 
L 63.52 65.085 
" style="fill:none;stroke:#1f77b4;"/>
    <path clip-path="url(#pf0b3654aa8)" d="M 98.72 83.625 
L 98.72 65.085 
" style="fill:none;stroke:#1f77b4;"/>
   </g>
   <g id="line2d_4">
    <path clip-path="url(#pf0b3654aa8)" d="M 14.24 83.625 
L 14.24 21.825 
" style="fill:none;stroke:#1f77b4;stroke-dasharray:5.55,2.4;stroke-dashoffset:0;stroke-width:1.5;"/>
   </g>
   <g id="patch_3">
    <path d="M 7.2 83.625 
L 7.2 21.825 
" style="fill:none;stroke:#cccccc;stroke-linecap:square;stroke-linejoin:miter;stroke-width:0.8;"/>
   </g>
   <g id="patch_4">
    <path d="M 112.8 83.625 
L 112.8 21.825 
" style="fill:none;stroke:#cccccc;stroke-linecap:square;stroke-linejoin:miter;stroke-width:0.8;"/>
   </g>
   <g id="patch_5">
    <path d="M 7.2 83.625 
L 112.8 83.625 
" style="fill:none;stroke:#cccccc;stroke-linecap:square;stroke-linejoin:miter;stroke-width:0.8;"/>
   </g>
   <g id="patch_6">
    <path d="M 7.2 21.825 
L 112.8 21.825 
" style="fill:none;stroke:#cccccc;stroke-linecap:square;stroke-linejoin:miter;stroke-width:0.8;"/>
   </g>
   <g id="text_4">
    <!-- Avg loss = 5.20 -->
    <g style="fill:#262626;" transform="translate(18.915 15.825)scale(0.12 -0.12)">
     <defs>
      <path d="M -0.140625 0 
L 27.34375 71.578125 
L 37.546875 71.578125 
L 66.84375 0 
L 56.0625 0 
L 47.703125 21.6875 
L 17.78125 21.6875 
L 9.90625 0 
z
M 20.515625 29.390625 
L 44.78125 29.390625 
L 37.3125 49.21875 
Q 33.890625 58.25 32.234375 64.0625 
Q 30.859375 57.171875 28.375 50.390625 
z
" id="ArialMT-65"/>
      <path d="M 21 0 
L 1.265625 51.859375 
L 10.546875 51.859375 
L 21.6875 20.796875 
Q 23.484375 15.765625 25 10.359375 
Q 26.171875 14.453125 28.265625 20.21875 
L 39.796875 51.859375 
L 48.828125 51.859375 
L 29.203125 0 
z
" id="ArialMT-118"/>
      <path d="M 4.984375 -4.296875 
L 13.53125 -5.5625 
Q 14.0625 -9.515625 16.5 -11.328125 
Q 19.78125 -13.765625 25.4375 -13.765625 
Q 31.546875 -13.765625 34.859375 -11.328125 
Q 38.1875 -8.890625 39.359375 -4.5 
Q 40.046875 -1.8125 39.984375 6.78125 
Q 34.234375 0 25.640625 0 
Q 14.9375 0 9.078125 7.71875 
Q 3.21875 15.4375 3.21875 26.21875 
Q 3.21875 33.640625 5.90625 39.90625 
Q 8.59375 46.1875 13.6875 49.609375 
Q 18.796875 53.03125 25.6875 53.03125 
Q 34.859375 53.03125 40.828125 45.609375 
L 40.828125 51.859375 
L 48.921875 51.859375 
L 48.921875 7.03125 
Q 48.921875 -5.078125 46.453125 -10.125 
Q 44 -15.1875 38.640625 -18.109375 
Q 33.296875 -21.046875 25.484375 -21.046875 
Q 16.21875 -21.046875 10.5 -16.875 
Q 4.78125 -12.703125 4.984375 -4.296875 
z
M 12.25 26.859375 
Q 12.25 16.65625 16.296875 11.96875 
Q 20.359375 7.28125 26.46875 7.28125 
Q 32.515625 7.28125 36.609375 11.9375 
Q 40.71875 16.609375 40.71875 26.5625 
Q 40.71875 36.078125 36.5 40.90625 
Q 32.28125 45.75 26.3125 45.75 
Q 20.453125 45.75 16.34375 40.984375 
Q 12.25 36.234375 12.25 26.859375 
z
" id="ArialMT-103"/>
      <path id="ArialMT-32"/>
      <path d="M 6.390625 0 
L 6.390625 71.578125 
L 15.1875 71.578125 
L 15.1875 0 
z
" id="ArialMT-108"/>
      <path d="M 3.328125 25.921875 
Q 3.328125 40.328125 11.328125 47.265625 
Q 18.015625 53.03125 27.640625 53.03125 
Q 38.328125 53.03125 45.109375 46.015625 
Q 51.90625 39.015625 51.90625 26.65625 
Q 51.90625 16.65625 48.90625 10.90625 
Q 45.90625 5.171875 40.15625 2 
Q 34.421875 -1.171875 27.640625 -1.171875 
Q 16.75 -1.171875 10.03125 5.8125 
Q 3.328125 12.796875 3.328125 25.921875 
z
M 12.359375 25.921875 
Q 12.359375 15.96875 16.703125 11.015625 
Q 21.046875 6.0625 27.640625 6.0625 
Q 34.1875 6.0625 38.53125 11.03125 
Q 42.875 16.015625 42.875 26.21875 
Q 42.875 35.84375 38.5 40.796875 
Q 34.125 45.75 27.640625 45.75 
Q 21.046875 45.75 16.703125 40.8125 
Q 12.359375 35.890625 12.359375 25.921875 
z
" id="ArialMT-111"/>
      <path d="M 3.078125 15.484375 
L 11.765625 16.84375 
Q 12.5 11.625 15.84375 8.84375 
Q 19.1875 6.0625 25.203125 6.0625 
Q 31.25 6.0625 34.171875 8.515625 
Q 37.109375 10.984375 37.109375 14.3125 
Q 37.109375 17.28125 34.515625 19 
Q 32.71875 20.171875 25.53125 21.96875 
Q 15.875 24.421875 12.140625 26.203125 
Q 8.40625 27.984375 6.46875 31.125 
Q 4.546875 34.28125 4.546875 38.09375 
Q 4.546875 41.546875 6.125 44.5 
Q 7.71875 47.46875 10.453125 49.421875 
Q 12.5 50.921875 16.03125 51.96875 
Q 19.578125 53.03125 23.640625 53.03125 
Q 29.734375 53.03125 34.34375 51.265625 
Q 38.96875 49.515625 41.15625 46.5 
Q 43.359375 43.5 44.1875 38.484375 
L 35.59375 37.3125 
Q 35.015625 41.3125 32.203125 43.546875 
Q 29.390625 45.796875 24.265625 45.796875 
Q 18.21875 45.796875 15.625 43.796875 
Q 13.03125 41.796875 13.03125 39.109375 
Q 13.03125 37.40625 14.109375 36.03125 
Q 15.1875 34.625 17.484375 33.6875 
Q 18.796875 33.203125 25.25 31.453125 
Q 34.578125 28.953125 38.25 27.359375 
Q 41.9375 25.78125 44.03125 22.75 
Q 46.140625 19.734375 46.140625 15.234375 
Q 46.140625 10.84375 43.578125 6.953125 
Q 41.015625 3.078125 36.171875 0.953125 
Q 31.34375 -1.171875 25.25 -1.171875 
Q 15.140625 -1.171875 9.84375 3.03125 
Q 4.546875 7.234375 3.078125 15.484375 
z
" id="ArialMT-115"/>
      <path d="M 52.828125 42.09375 
L 5.5625 42.09375 
L 5.5625 50.296875 
L 52.828125 50.296875 
z
M 52.828125 20.359375 
L 5.5625 20.359375 
L 5.5625 28.5625 
L 52.828125 28.5625 
z
" id="ArialMT-61"/>
      <path d="M 9.078125 0 
L 9.078125 10.015625 
L 19.09375 10.015625 
L 19.09375 0 
z
" id="ArialMT-46"/>
      <path d="M 50.34375 8.453125 
L 50.34375 0 
L 3.03125 0 
Q 2.9375 3.171875 4.046875 6.109375 
Q 5.859375 10.9375 9.828125 15.625 
Q 13.8125 20.3125 21.34375 26.46875 
Q 33.015625 36.03125 37.109375 41.625 
Q 41.21875 47.21875 41.21875 52.203125 
Q 41.21875 57.421875 37.46875 61 
Q 33.734375 64.59375 27.734375 64.59375 
Q 21.390625 64.59375 17.578125 60.78125 
Q 13.765625 56.984375 13.71875 50.25 
L 4.6875 51.171875 
Q 5.609375 61.28125 11.65625 66.578125 
Q 17.71875 71.875 27.9375 71.875 
Q 38.234375 71.875 44.234375 66.15625 
Q 50.25 60.453125 50.25 52 
Q 50.25 47.703125 48.484375 43.546875 
Q 46.734375 39.40625 42.65625 34.8125 
Q 38.578125 30.21875 29.109375 22.21875 
Q 21.1875 15.578125 18.9375 13.203125 
Q 16.703125 10.84375 15.234375 8.453125 
z
" id="ArialMT-50"/>
     </defs>
     <use xlink:href="#ArialMT-65"/>
     <use x="64.949219" xlink:href="#ArialMT-118"/>
     <use x="114.949219" xlink:href="#ArialMT-103"/>
     <use x="170.564453" xlink:href="#ArialMT-32"/>
     <use x="198.347656" xlink:href="#ArialMT-108"/>
     <use x="220.564453" xlink:href="#ArialMT-111"/>
     <use x="276.179688" xlink:href="#ArialMT-115"/>
     <use x="326.179688" xlink:href="#ArialMT-115"/>
     <use x="376.179688" xlink:href="#ArialMT-32"/>
     <use x="403.962891" xlink:href="#ArialMT-61"/>
     <use x="462.361328" xlink:href="#ArialMT-32"/>
     <use x="490.144531" xlink:href="#ArialMT-53"/>
     <use x="545.759766" xlink:href="#ArialMT-46"/>
     <use x="573.542969" xlink:href="#ArialMT-50"/>
     <use x="629.158203" xlink:href="#ArialMT-48"/>
    </g>
   </g>
   <g id="legend_1">
    <g id="patch_7">
     <path d="M 36.7 43.970312 
L 105.8 43.970312 
Q 107.8 43.970312 107.8 41.970312 
L 107.8 28.825 
Q 107.8 26.825 105.8 26.825 
L 36.7 26.825 
Q 34.7 26.825 34.7 28.825 
L 34.7 41.970312 
Q 34.7 43.970312 36.7 43.970312 
z
" style="fill:#ffffff;opacity:0.8;stroke:#cccccc;stroke-linejoin:miter;"/>
    </g>
    <g id="line2d_5">
     <path d="M 38.7 34.482812 
L 58.7 34.482812 
" style="fill:none;stroke:#1f77b4;stroke-dasharray:5.55,2.4;stroke-dashoffset:0;stroke-width:1.5;"/>
    </g>
    <g id="line2d_6"/>
    <g id="text_5">
     <!-- $ \theta = -2 $ -->
     <g style="fill:#262626;" transform="translate(66.7 37.982812)scale(0.1 -0.1)">
      <defs>
       <path d="M 45.515625 34.671875 
L 14.453125 34.671875 
Q 12.359375 20.0625 14.5 13.875 
Q 17.1875 6.25 24.46875 6.25 
Q 31.78125 6.25 37.359375 13.921875 
Q 42.234375 20.65625 45.515625 34.671875 
z
M 47.015625 42.96875 
Q 48.34375 56.84375 46.625 61.71875 
Q 43.953125 69.4375 36.765625 69.4375 
Q 29.296875 69.4375 23.828125 61.8125 
Q 19.53125 55.671875 16.15625 42.96875 
z
M 38.1875 76.765625 
Q 49.90625 76.765625 54.59375 66.40625 
Q 59.28125 56.109375 55.71875 37.84375 
Q 52.203125 19.625 43.453125 9.28125 
Q 34.765625 -1.125 23.046875 -1.125 
Q 11.28125 -1.125 6.640625 9.28125 
Q 2 19.625 5.515625 37.84375 
Q 9.078125 56.109375 17.71875 66.40625 
Q 26.421875 76.765625 38.1875 76.765625 
z
" id="DejaVuSans-Oblique-952"/>
       <path d="M 10.59375 45.40625 
L 73.1875 45.40625 
L 73.1875 37.203125 
L 10.59375 37.203125 
z
M 10.59375 25.484375 
L 73.1875 25.484375 
L 73.1875 17.1875 
L 10.59375 17.1875 
z
" id="DejaVuSans-61"/>
       <path d="M 10.59375 35.5 
L 73.1875 35.5 
L 73.1875 27.203125 
L 10.59375 27.203125 
z
" id="DejaVuSans-8722"/>
       <path d="M 19.1875 8.296875 
L 53.609375 8.296875 
L 53.609375 0 
L 7.328125 0 
L 7.328125 8.296875 
Q 12.9375 14.109375 22.625 23.890625 
Q 32.328125 33.6875 34.8125 36.53125 
Q 39.546875 41.84375 41.421875 45.53125 
Q 43.3125 49.21875 43.3125 52.78125 
Q 43.3125 58.59375 39.234375 62.25 
Q 35.15625 65.921875 28.609375 65.921875 
Q 23.96875 65.921875 18.8125 64.3125 
Q 13.671875 62.703125 7.8125 59.421875 
L 7.8125 69.390625 
Q 13.765625 71.78125 18.9375 73 
Q 24.125 74.21875 28.421875 74.21875 
Q 39.75 74.21875 46.484375 68.546875 
Q 53.21875 62.890625 53.21875 53.421875 
Q 53.21875 48.921875 51.53125 44.890625 
Q 49.859375 40.875 45.40625 35.40625 
Q 44.1875 33.984375 37.640625 27.21875 
Q 31.109375 20.453125 19.1875 8.296875 
z
" id="DejaVuSans-50"/>
      </defs>
      <use transform="translate(0 0.234375)" xlink:href="#DejaVuSans-Oblique-952"/>
      <use transform="translate(80.664062 0.234375)" xlink:href="#DejaVuSans-61"/>
      <use transform="translate(203.417969 0.234375)" xlink:href="#DejaVuSans-8722"/>
      <use transform="translate(306.689453 0.234375)" xlink:href="#DejaVuSans-50"/>
     </g>
    </g>
   </g>
  </g>
  <g id="axes_2">
   <g id="patch_8">
    <path d="M 123.6 83.625 
L 229.2 83.625 
L 229.2 21.825 
L 123.6 21.825 
z
" style="fill:#ffffff;"/>
   </g>
   <g id="matplotlib.axis_3">
    <g id="xtick_4">
     <g id="line2d_7">
      <path clip-path="url(#p3039153d54)" d="M 144.72 83.625 
L 144.72 21.825 
" style="fill:none;stroke:#cccccc;stroke-linecap:round;stroke-width:0.8;"/>
     </g>
     <g id="text_6">
      <!-- 0 -->
      <g style="fill:#262626;" transform="translate(141.939531 97.782812)scale(0.1 -0.1)">
       <use xlink:href="#ArialMT-48"/>
      </g>
     </g>
    </g>
    <g id="xtick_5">
     <g id="line2d_8">
      <path clip-path="url(#p3039153d54)" d="M 179.92 83.625 
L 179.92 21.825 
" style="fill:none;stroke:#cccccc;stroke-linecap:round;stroke-width:0.8;"/>
     </g>
     <g id="text_7">
      <!-- 5 -->
      <g style="fill:#262626;" transform="translate(177.139531 97.782812)scale(0.1 -0.1)">
       <use xlink:href="#ArialMT-53"/>
      </g>
     </g>
    </g>
    <g id="xtick_6">
     <g id="line2d_9">
      <path clip-path="url(#p3039153d54)" d="M 215.12 83.625 
L 215.12 21.825 
" style="fill:none;stroke:#cccccc;stroke-linecap:round;stroke-width:0.8;"/>
     </g>
     <g id="text_8">
      <!-- 10 -->
      <g style="fill:#262626;" transform="translate(209.559063 97.782812)scale(0.1 -0.1)">
       <use xlink:href="#ArialMT-49"/>
       <use x="55.615234" xlink:href="#ArialMT-48"/>
      </g>
     </g>
    </g>
   </g>
   <g id="matplotlib.axis_4"/>
   <g id="LineCollection_2">
    <path clip-path="url(#p3039153d54)" d="M 137.68 83.625 
L 137.68 65.085 
" style="fill:none;stroke:#1f77b4;"/>
    <path clip-path="url(#p3039153d54)" d="M 144.72 83.625 
L 144.72 65.085 
" style="fill:none;stroke:#1f77b4;"/>
    <path clip-path="url(#p3039153d54)" d="M 158.8 83.625 
L 158.8 65.085 
" style="fill:none;stroke:#1f77b4;"/>
    <path clip-path="url(#p3039153d54)" d="M 179.92 83.625 
L 179.92 65.085 
" style="fill:none;stroke:#1f77b4;"/>
    <path clip-path="url(#p3039153d54)" d="M 215.12 83.625 
L 215.12 65.085 
" style="fill:none;stroke:#1f77b4;"/>
   </g>
   <g id="line2d_10">
    <path clip-path="url(#p3039153d54)" d="M 144.72 83.625 
L 144.72 21.825 
" style="fill:none;stroke:#1f77b4;stroke-dasharray:5.55,2.4;stroke-dashoffset:0;stroke-width:1.5;"/>
   </g>
   <g id="patch_9">
    <path d="M 123.6 83.625 
L 123.6 21.825 
" style="fill:none;stroke:#cccccc;stroke-linecap:square;stroke-linejoin:miter;stroke-width:0.8;"/>
   </g>
   <g id="patch_10">
    <path d="M 229.2 83.625 
L 229.2 21.825 
" style="fill:none;stroke:#cccccc;stroke-linecap:square;stroke-linejoin:miter;stroke-width:0.8;"/>
   </g>
   <g id="patch_11">
    <path d="M 123.6 83.625 
L 229.2 83.625 
" style="fill:none;stroke:#cccccc;stroke-linecap:square;stroke-linejoin:miter;stroke-width:0.8;"/>
   </g>
   <g id="patch_12">
    <path d="M 123.6 21.825 
L 229.2 21.825 
" style="fill:none;stroke:#cccccc;stroke-linecap:square;stroke-linejoin:miter;stroke-width:0.8;"/>
   </g>
   <g id="text_9">
    <!-- Avg loss = 3.60 -->
    <g style="fill:#262626;" transform="translate(135.315 15.825)scale(0.12 -0.12)">
     <defs>
      <path d="M 4.203125 18.890625 
L 12.984375 20.0625 
Q 14.5 12.59375 18.140625 9.296875 
Q 21.78125 6 27 6 
Q 33.203125 6 37.46875 10.296875 
Q 41.75 14.59375 41.75 20.953125 
Q 41.75 27 37.796875 30.921875 
Q 33.84375 34.859375 27.734375 34.859375 
Q 25.25 34.859375 21.53125 33.890625 
L 22.515625 41.609375 
Q 23.390625 41.5 23.921875 41.5 
Q 29.546875 41.5 34.03125 44.421875 
Q 38.53125 47.359375 38.53125 53.46875 
Q 38.53125 58.296875 35.25 61.46875 
Q 31.984375 64.65625 26.8125 64.65625 
Q 21.6875 64.65625 18.265625 61.421875 
Q 14.84375 58.203125 13.875 51.765625 
L 5.078125 53.328125 
Q 6.6875 62.15625 12.390625 67.015625 
Q 18.109375 71.875 26.609375 71.875 
Q 32.46875 71.875 37.390625 69.359375 
Q 42.328125 66.84375 44.9375 62.5 
Q 47.5625 58.15625 47.5625 53.265625 
Q 47.5625 48.640625 45.0625 44.828125 
Q 42.578125 41.015625 37.703125 38.765625 
Q 44.046875 37.3125 47.5625 32.6875 
Q 51.078125 28.078125 51.078125 21.140625 
Q 51.078125 11.765625 44.234375 5.25 
Q 37.40625 -1.265625 26.953125 -1.265625 
Q 17.53125 -1.265625 11.296875 4.34375 
Q 5.078125 9.96875 4.203125 18.890625 
z
" id="ArialMT-51"/>
      <path d="M 49.75 54.046875 
L 41.015625 53.375 
Q 39.84375 58.546875 37.703125 60.890625 
Q 34.125 64.65625 28.90625 64.65625 
Q 24.703125 64.65625 21.53125 62.3125 
Q 17.390625 59.28125 14.984375 53.46875 
Q 12.59375 47.65625 12.5 36.921875 
Q 15.671875 41.75 20.265625 44.09375 
Q 24.859375 46.4375 29.890625 46.4375 
Q 38.671875 46.4375 44.84375 39.96875 
Q 51.03125 33.5 51.03125 23.25 
Q 51.03125 16.5 48.125 10.71875 
Q 45.21875 4.9375 40.140625 1.859375 
Q 35.0625 -1.21875 28.609375 -1.21875 
Q 17.625 -1.21875 10.6875 6.859375 
Q 3.765625 14.9375 3.765625 33.5 
Q 3.765625 54.25 11.421875 63.671875 
Q 18.109375 71.875 29.4375 71.875 
Q 37.890625 71.875 43.28125 67.140625 
Q 48.6875 62.40625 49.75 54.046875 
z
M 13.875 23.1875 
Q 13.875 18.65625 15.796875 14.5 
Q 17.71875 10.359375 21.1875 8.171875 
Q 24.65625 6 28.46875 6 
Q 34.03125 6 38.03125 10.484375 
Q 42.046875 14.984375 42.046875 22.703125 
Q 42.046875 30.125 38.078125 34.390625 
Q 34.125 38.671875 28.125 38.671875 
Q 22.171875 38.671875 18.015625 34.390625 
Q 13.875 30.125 13.875 23.1875 
z
" id="ArialMT-54"/>
     </defs>
     <use xlink:href="#ArialMT-65"/>
     <use x="64.949219" xlink:href="#ArialMT-118"/>
     <use x="114.949219" xlink:href="#ArialMT-103"/>
     <use x="170.564453" xlink:href="#ArialMT-32"/>
     <use x="198.347656" xlink:href="#ArialMT-108"/>
     <use x="220.564453" xlink:href="#ArialMT-111"/>
     <use x="276.179688" xlink:href="#ArialMT-115"/>
     <use x="326.179688" xlink:href="#ArialMT-115"/>
     <use x="376.179688" xlink:href="#ArialMT-32"/>
     <use x="403.962891" xlink:href="#ArialMT-61"/>
     <use x="462.361328" xlink:href="#ArialMT-32"/>
     <use x="490.144531" xlink:href="#ArialMT-51"/>
     <use x="545.759766" xlink:href="#ArialMT-46"/>
     <use x="573.542969" xlink:href="#ArialMT-54"/>
     <use x="629.158203" xlink:href="#ArialMT-48"/>
    </g>
   </g>
   <g id="legend_2">
    <g id="patch_13">
     <path d="M 165.4 43.970312 
L 222.2 43.970312 
Q 224.2 43.970312 224.2 41.970312 
L 224.2 28.825 
Q 224.2 26.825 222.2 26.825 
L 165.4 26.825 
Q 163.4 26.825 163.4 28.825 
L 163.4 41.970312 
Q 163.4 43.970312 165.4 43.970312 
z
" style="fill:#ffffff;opacity:0.8;stroke:#cccccc;stroke-linejoin:miter;"/>
    </g>
    <g id="line2d_11">
     <path d="M 167.4 34.482812 
L 187.4 34.482812 
" style="fill:none;stroke:#1f77b4;stroke-dasharray:5.55,2.4;stroke-dashoffset:0;stroke-width:1.5;"/>
    </g>
    <g id="line2d_12"/>
    <g id="text_10">
     <!-- $ \theta = 0 $ -->
     <g style="fill:#262626;" transform="translate(195.4 37.982812)scale(0.1 -0.1)">
      <defs>
       <path d="M 31.78125 66.40625 
Q 24.171875 66.40625 20.328125 58.90625 
Q 16.5 51.421875 16.5 36.375 
Q 16.5 21.390625 20.328125 13.890625 
Q 24.171875 6.390625 31.78125 6.390625 
Q 39.453125 6.390625 43.28125 13.890625 
Q 47.125 21.390625 47.125 36.375 
Q 47.125 51.421875 43.28125 58.90625 
Q 39.453125 66.40625 31.78125 66.40625 
z
M 31.78125 74.21875 
Q 44.046875 74.21875 50.515625 64.515625 
Q 56.984375 54.828125 56.984375 36.375 
Q 56.984375 17.96875 50.515625 8.265625 
Q 44.046875 -1.421875 31.78125 -1.421875 
Q 19.53125 -1.421875 13.0625 8.265625 
Q 6.59375 17.96875 6.59375 36.375 
Q 6.59375 54.828125 13.0625 64.515625 
Q 19.53125 74.21875 31.78125 74.21875 
z
" id="DejaVuSans-48"/>
      </defs>
      <use transform="translate(0 0.234375)" xlink:href="#DejaVuSans-Oblique-952"/>
      <use transform="translate(80.664062 0.234375)" xlink:href="#DejaVuSans-61"/>
      <use transform="translate(183.935547 0.234375)" xlink:href="#DejaVuSans-48"/>
     </g>
    </g>
   </g>
  </g>
  <g id="axes_3">
   <g id="patch_14">
    <path d="M 240 83.625 
L 345.6 83.625 
L 345.6 21.825 
L 240 21.825 
z
" style="fill:#ffffff;"/>
   </g>
   <g id="matplotlib.axis_5">
    <g id="xtick_7">
     <g id="line2d_13">
      <path clip-path="url(#p3d6c203099)" d="M 261.12 83.625 
L 261.12 21.825 
" style="fill:none;stroke:#cccccc;stroke-linecap:round;stroke-width:0.8;"/>
     </g>
     <g id="text_11">
      <!-- 0 -->
      <g style="fill:#262626;" transform="translate(258.339531 97.782812)scale(0.1 -0.1)">
       <use xlink:href="#ArialMT-48"/>
      </g>
     </g>
    </g>
    <g id="xtick_8">
     <g id="line2d_14">
      <path clip-path="url(#p3d6c203099)" d="M 296.32 83.625 
L 296.32 21.825 
" style="fill:none;stroke:#cccccc;stroke-linecap:round;stroke-width:0.8;"/>
     </g>
     <g id="text_12">
      <!-- 5 -->
      <g style="fill:#262626;" transform="translate(293.539531 97.782812)scale(0.1 -0.1)">
       <use xlink:href="#ArialMT-53"/>
      </g>
     </g>
    </g>
    <g id="xtick_9">
     <g id="line2d_15">
      <path clip-path="url(#p3d6c203099)" d="M 331.52 83.625 
L 331.52 21.825 
" style="fill:none;stroke:#cccccc;stroke-linecap:round;stroke-width:0.8;"/>
     </g>
     <g id="text_13">
      <!-- 10 -->
      <g style="fill:#262626;" transform="translate(325.959062 97.782812)scale(0.1 -0.1)">
       <use xlink:href="#ArialMT-49"/>
       <use x="55.615234" xlink:href="#ArialMT-48"/>
      </g>
     </g>
    </g>
   </g>
   <g id="matplotlib.axis_6"/>
   <g id="LineCollection_3">
    <path clip-path="url(#p3d6c203099)" d="M 254.08 83.625 
L 254.08 65.085 
" style="fill:none;stroke:#1f77b4;"/>
    <path clip-path="url(#p3d6c203099)" d="M 261.12 83.625 
L 261.12 65.085 
" style="fill:none;stroke:#1f77b4;"/>
    <path clip-path="url(#p3d6c203099)" d="M 275.2 83.625 
L 275.2 65.085 
" style="fill:none;stroke:#1f77b4;"/>
    <path clip-path="url(#p3d6c203099)" d="M 296.32 83.625 
L 296.32 65.085 
" style="fill:none;stroke:#1f77b4;"/>
    <path clip-path="url(#p3d6c203099)" d="M 331.52 83.625 
L 331.52 65.085 
" style="fill:none;stroke:#1f77b4;"/>
   </g>
   <g id="line2d_16">
    <path clip-path="url(#p3d6c203099)" d="M 268.16 83.625 
L 268.16 21.825 
" style="fill:none;stroke:#1f77b4;stroke-dasharray:5.55,2.4;stroke-dashoffset:0;stroke-width:1.5;"/>
   </g>
   <g id="patch_15">
    <path d="M 240 83.625 
L 240 21.825 
" style="fill:none;stroke:#cccccc;stroke-linecap:square;stroke-linejoin:miter;stroke-width:0.8;"/>
   </g>
   <g id="patch_16">
    <path d="M 345.6 83.625 
L 345.6 21.825 
" style="fill:none;stroke:#cccccc;stroke-linecap:square;stroke-linejoin:miter;stroke-width:0.8;"/>
   </g>
   <g id="patch_17">
    <path d="M 240 83.625 
L 345.6 83.625 
" style="fill:none;stroke:#cccccc;stroke-linecap:square;stroke-linejoin:miter;stroke-width:0.8;"/>
   </g>
   <g id="patch_18">
    <path d="M 240 21.825 
L 345.6 21.825 
" style="fill:none;stroke:#cccccc;stroke-linecap:square;stroke-linejoin:miter;stroke-width:0.8;"/>
   </g>
   <g id="text_14">
    <!-- Avg loss = 3.40 -->
    <g style="fill:#262626;" transform="translate(251.715 15.825)scale(0.12 -0.12)">
     <defs>
      <path d="M 32.328125 0 
L 32.328125 17.140625 
L 1.265625 17.140625 
L 1.265625 25.203125 
L 33.9375 71.578125 
L 41.109375 71.578125 
L 41.109375 25.203125 
L 50.78125 25.203125 
L 50.78125 17.140625 
L 41.109375 17.140625 
L 41.109375 0 
z
M 32.328125 25.203125 
L 32.328125 57.46875 
L 9.90625 25.203125 
z
" id="ArialMT-52"/>
     </defs>
     <use xlink:href="#ArialMT-65"/>
     <use x="64.949219" xlink:href="#ArialMT-118"/>
     <use x="114.949219" xlink:href="#ArialMT-103"/>
     <use x="170.564453" xlink:href="#ArialMT-32"/>
     <use x="198.347656" xlink:href="#ArialMT-108"/>
     <use x="220.564453" xlink:href="#ArialMT-111"/>
     <use x="276.179688" xlink:href="#ArialMT-115"/>
     <use x="326.179688" xlink:href="#ArialMT-115"/>
     <use x="376.179688" xlink:href="#ArialMT-32"/>
     <use x="403.962891" xlink:href="#ArialMT-61"/>
     <use x="462.361328" xlink:href="#ArialMT-32"/>
     <use x="490.144531" xlink:href="#ArialMT-51"/>
     <use x="545.759766" xlink:href="#ArialMT-46"/>
     <use x="573.542969" xlink:href="#ArialMT-52"/>
     <use x="629.158203" xlink:href="#ArialMT-48"/>
    </g>
   </g>
   <g id="legend_3">
    <g id="patch_19">
     <path d="M 281.8 43.970312 
L 338.6 43.970312 
Q 340.6 43.970312 340.6 41.970312 
L 340.6 28.825 
Q 340.6 26.825 338.6 26.825 
L 281.8 26.825 
Q 279.8 26.825 279.8 28.825 
L 279.8 41.970312 
Q 279.8 43.970312 281.8 43.970312 
z
" style="fill:#ffffff;opacity:0.8;stroke:#cccccc;stroke-linejoin:miter;"/>
    </g>
    <g id="line2d_17">
     <path d="M 283.8 34.482812 
L 303.8 34.482812 
" style="fill:none;stroke:#1f77b4;stroke-dasharray:5.55,2.4;stroke-dashoffset:0;stroke-width:1.5;"/>
    </g>
    <g id="line2d_18"/>
    <g id="text_15">
     <!-- $ \theta = 1 $ -->
     <g style="fill:#262626;" transform="translate(311.8 37.982812)scale(0.1 -0.1)">
      <defs>
       <path d="M 12.40625 8.296875 
L 28.515625 8.296875 
L 28.515625 63.921875 
L 10.984375 60.40625 
L 10.984375 69.390625 
L 28.421875 72.90625 
L 38.28125 72.90625 
L 38.28125 8.296875 
L 54.390625 8.296875 
L 54.390625 0 
L 12.40625 0 
z
" id="DejaVuSans-49"/>
      </defs>
      <use transform="translate(0 0.234375)" xlink:href="#DejaVuSans-Oblique-952"/>
      <use transform="translate(80.664062 0.234375)" xlink:href="#DejaVuSans-61"/>
      <use transform="translate(183.935547 0.234375)" xlink:href="#DejaVuSans-49"/>
     </g>
    </g>
   </g>
  </g>
  <g id="axes_4">
   <g id="patch_20">
    <path d="M 7.2 186.225 
L 112.8 186.225 
L 112.8 124.425 
L 7.2 124.425 
z
" style="fill:#ffffff;"/>
   </g>
   <g id="matplotlib.axis_7">
    <g id="xtick_10">
     <g id="line2d_19">
      <path clip-path="url(#pac6af3f930)" d="M 28.32 186.225 
L 28.32 124.425 
" style="fill:none;stroke:#cccccc;stroke-linecap:round;stroke-width:0.8;"/>
     </g>
     <g id="text_16">
      <!-- 0 -->
      <g style="fill:#262626;" transform="translate(25.539531 200.382812)scale(0.1 -0.1)">
       <use xlink:href="#ArialMT-48"/>
      </g>
     </g>
    </g>
    <g id="xtick_11">
     <g id="line2d_20">
      <path clip-path="url(#pac6af3f930)" d="M 63.52 186.225 
L 63.52 124.425 
" style="fill:none;stroke:#cccccc;stroke-linecap:round;stroke-width:0.8;"/>
     </g>
     <g id="text_17">
      <!-- 5 -->
      <g style="fill:#262626;" transform="translate(60.739531 200.382812)scale(0.1 -0.1)">
       <use xlink:href="#ArialMT-53"/>
      </g>
     </g>
    </g>
    <g id="xtick_12">
     <g id="line2d_21">
      <path clip-path="url(#pac6af3f930)" d="M 98.72 186.225 
L 98.72 124.425 
" style="fill:none;stroke:#cccccc;stroke-linecap:round;stroke-width:0.8;"/>
     </g>
     <g id="text_18">
      <!-- 10 -->
      <g style="fill:#262626;" transform="translate(93.159062 200.382812)scale(0.1 -0.1)">
       <use xlink:href="#ArialMT-49"/>
       <use x="55.615234" xlink:href="#ArialMT-48"/>
      </g>
     </g>
    </g>
   </g>
   <g id="matplotlib.axis_8"/>
   <g id="LineCollection_4">
    <path clip-path="url(#pac6af3f930)" d="M 21.28 186.225 
L 21.28 167.685 
" style="fill:none;stroke:#1f77b4;"/>
    <path clip-path="url(#pac6af3f930)" d="M 28.32 186.225 
L 28.32 167.685 
" style="fill:none;stroke:#1f77b4;"/>
    <path clip-path="url(#pac6af3f930)" d="M 42.4 186.225 
L 42.4 167.685 
" style="fill:none;stroke:#1f77b4;"/>
    <path clip-path="url(#pac6af3f930)" d="M 63.52 186.225 
L 63.52 167.685 
" style="fill:none;stroke:#1f77b4;"/>
    <path clip-path="url(#pac6af3f930)" d="M 98.72 186.225 
L 98.72 167.685 
" style="fill:none;stroke:#1f77b4;"/>
   </g>
   <g id="line2d_22">
    <path clip-path="url(#pac6af3f930)" d="M 42.4 186.225 
L 42.4 124.425 
" style="fill:none;stroke:#1f77b4;stroke-dasharray:5.55,2.4;stroke-dashoffset:0;stroke-width:1.5;"/>
   </g>
   <g id="patch_21">
    <path d="M 7.2 186.225 
L 7.2 124.425 
" style="fill:none;stroke:#cccccc;stroke-linecap:square;stroke-linejoin:miter;stroke-width:0.8;"/>
   </g>
   <g id="patch_22">
    <path d="M 112.8 186.225 
L 112.8 124.425 
" style="fill:none;stroke:#cccccc;stroke-linecap:square;stroke-linejoin:miter;stroke-width:0.8;"/>
   </g>
   <g id="patch_23">
    <path d="M 7.2 186.225 
L 112.8 186.225 
" style="fill:none;stroke:#cccccc;stroke-linecap:square;stroke-linejoin:miter;stroke-width:0.8;"/>
   </g>
   <g id="patch_24">
    <path d="M 7.2 124.425 
L 112.8 124.425 
" style="fill:none;stroke:#cccccc;stroke-linecap:square;stroke-linejoin:miter;stroke-width:0.8;"/>
   </g>
   <g id="text_19">
    <!-- Avg loss = 3.20 -->
    <g style="fill:#262626;" transform="translate(18.915 118.425)scale(0.12 -0.12)">
     <use xlink:href="#ArialMT-65"/>
     <use x="64.949219" xlink:href="#ArialMT-118"/>
     <use x="114.949219" xlink:href="#ArialMT-103"/>
     <use x="170.564453" xlink:href="#ArialMT-32"/>
     <use x="198.347656" xlink:href="#ArialMT-108"/>
     <use x="220.564453" xlink:href="#ArialMT-111"/>
     <use x="276.179688" xlink:href="#ArialMT-115"/>
     <use x="326.179688" xlink:href="#ArialMT-115"/>
     <use x="376.179688" xlink:href="#ArialMT-32"/>
     <use x="403.962891" xlink:href="#ArialMT-61"/>
     <use x="462.361328" xlink:href="#ArialMT-32"/>
     <use x="490.144531" xlink:href="#ArialMT-51"/>
     <use x="545.759766" xlink:href="#ArialMT-46"/>
     <use x="573.542969" xlink:href="#ArialMT-50"/>
     <use x="629.158203" xlink:href="#ArialMT-48"/>
    </g>
   </g>
   <g id="legend_4">
    <g id="patch_25">
     <path d="M 49 146.570312 
L 105.8 146.570312 
Q 107.8 146.570312 107.8 144.570312 
L 107.8 131.425 
Q 107.8 129.425 105.8 129.425 
L 49 129.425 
Q 47 129.425 47 131.425 
L 47 144.570312 
Q 47 146.570312 49 146.570312 
z
" style="fill:#ffffff;opacity:0.8;stroke:#cccccc;stroke-linejoin:miter;"/>
    </g>
    <g id="line2d_23">
     <path d="M 51 137.082812 
L 71 137.082812 
" style="fill:none;stroke:#1f77b4;stroke-dasharray:5.55,2.4;stroke-dashoffset:0;stroke-width:1.5;"/>
    </g>
    <g id="line2d_24"/>
    <g id="text_20">
     <!-- $ \theta = 2 $ -->
     <g style="fill:#262626;" transform="translate(79 140.582812)scale(0.1 -0.1)">
      <use transform="translate(0 0.234375)" xlink:href="#DejaVuSans-Oblique-952"/>
      <use transform="translate(80.664062 0.234375)" xlink:href="#DejaVuSans-61"/>
      <use transform="translate(183.935547 0.234375)" xlink:href="#DejaVuSans-50"/>
     </g>
    </g>
   </g>
  </g>
  <g id="axes_5">
   <g id="patch_26">
    <path d="M 123.6 186.225 
L 229.2 186.225 
L 229.2 124.425 
L 123.6 124.425 
z
" style="fill:#ffffff;"/>
   </g>
   <g id="matplotlib.axis_9">
    <g id="xtick_13">
     <g id="line2d_25">
      <path clip-path="url(#pff4c2a7607)" d="M 144.72 186.225 
L 144.72 124.425 
" style="fill:none;stroke:#cccccc;stroke-linecap:round;stroke-width:0.8;"/>
     </g>
     <g id="text_21">
      <!-- 0 -->
      <g style="fill:#262626;" transform="translate(141.939531 200.382812)scale(0.1 -0.1)">
       <use xlink:href="#ArialMT-48"/>
      </g>
     </g>
    </g>
    <g id="xtick_14">
     <g id="line2d_26">
      <path clip-path="url(#pff4c2a7607)" d="M 179.92 186.225 
L 179.92 124.425 
" style="fill:none;stroke:#cccccc;stroke-linecap:round;stroke-width:0.8;"/>
     </g>
     <g id="text_22">
      <!-- 5 -->
      <g style="fill:#262626;" transform="translate(177.139531 200.382812)scale(0.1 -0.1)">
       <use xlink:href="#ArialMT-53"/>
      </g>
     </g>
    </g>
    <g id="xtick_15">
     <g id="line2d_27">
      <path clip-path="url(#pff4c2a7607)" d="M 215.12 186.225 
L 215.12 124.425 
" style="fill:none;stroke:#cccccc;stroke-linecap:round;stroke-width:0.8;"/>
     </g>
     <g id="text_23">
      <!-- 10 -->
      <g style="fill:#262626;" transform="translate(209.559063 200.382812)scale(0.1 -0.1)">
       <use xlink:href="#ArialMT-49"/>
       <use x="55.615234" xlink:href="#ArialMT-48"/>
      </g>
     </g>
    </g>
   </g>
   <g id="matplotlib.axis_10"/>
   <g id="LineCollection_5">
    <path clip-path="url(#pff4c2a7607)" d="M 137.68 186.225 
L 137.68 167.685 
" style="fill:none;stroke:#1f77b4;"/>
    <path clip-path="url(#pff4c2a7607)" d="M 144.72 186.225 
L 144.72 167.685 
" style="fill:none;stroke:#1f77b4;"/>
    <path clip-path="url(#pff4c2a7607)" d="M 158.8 186.225 
L 158.8 167.685 
" style="fill:none;stroke:#1f77b4;"/>
    <path clip-path="url(#pff4c2a7607)" d="M 179.92 186.225 
L 179.92 167.685 
" style="fill:none;stroke:#1f77b4;"/>
    <path clip-path="url(#pff4c2a7607)" d="M 215.12 186.225 
L 215.12 167.685 
" style="fill:none;stroke:#1f77b4;"/>
   </g>
   <g id="line2d_28">
    <path clip-path="url(#pff4c2a7607)" d="M 165.84 186.225 
L 165.84 124.425 
" style="fill:none;stroke:#1f77b4;stroke-dasharray:5.55,2.4;stroke-dashoffset:0;stroke-width:1.5;"/>
   </g>
   <g id="patch_27">
    <path d="M 123.6 186.225 
L 123.6 124.425 
" style="fill:none;stroke:#cccccc;stroke-linecap:square;stroke-linejoin:miter;stroke-width:0.8;"/>
   </g>
   <g id="patch_28">
    <path d="M 229.2 186.225 
L 229.2 124.425 
" style="fill:none;stroke:#cccccc;stroke-linecap:square;stroke-linejoin:miter;stroke-width:0.8;"/>
   </g>
   <g id="patch_29">
    <path d="M 123.6 186.225 
L 229.2 186.225 
" style="fill:none;stroke:#cccccc;stroke-linecap:square;stroke-linejoin:miter;stroke-width:0.8;"/>
   </g>
   <g id="patch_30">
    <path d="M 123.6 124.425 
L 229.2 124.425 
" style="fill:none;stroke:#cccccc;stroke-linecap:square;stroke-linejoin:miter;stroke-width:0.8;"/>
   </g>
   <g id="text_24">
    <!-- Avg loss = 3.40 -->
    <g style="fill:#262626;" transform="translate(135.315 118.425)scale(0.12 -0.12)">
     <use xlink:href="#ArialMT-65"/>
     <use x="64.949219" xlink:href="#ArialMT-118"/>
     <use x="114.949219" xlink:href="#ArialMT-103"/>
     <use x="170.564453" xlink:href="#ArialMT-32"/>
     <use x="198.347656" xlink:href="#ArialMT-108"/>
     <use x="220.564453" xlink:href="#ArialMT-111"/>
     <use x="276.179688" xlink:href="#ArialMT-115"/>
     <use x="326.179688" xlink:href="#ArialMT-115"/>
     <use x="376.179688" xlink:href="#ArialMT-32"/>
     <use x="403.962891" xlink:href="#ArialMT-61"/>
     <use x="462.361328" xlink:href="#ArialMT-32"/>
     <use x="490.144531" xlink:href="#ArialMT-51"/>
     <use x="545.759766" xlink:href="#ArialMT-46"/>
     <use x="573.542969" xlink:href="#ArialMT-52"/>
     <use x="629.158203" xlink:href="#ArialMT-48"/>
    </g>
   </g>
   <g id="legend_5">
    <g id="patch_31">
     <path d="M 165.4 146.570312 
L 222.2 146.570312 
Q 224.2 146.570312 224.2 144.570312 
L 224.2 131.425 
Q 224.2 129.425 222.2 129.425 
L 165.4 129.425 
Q 163.4 129.425 163.4 131.425 
L 163.4 144.570312 
Q 163.4 146.570312 165.4 146.570312 
z
" style="fill:#ffffff;opacity:0.8;stroke:#cccccc;stroke-linejoin:miter;"/>
    </g>
    <g id="line2d_29">
     <path d="M 167.4 137.082812 
L 187.4 137.082812 
" style="fill:none;stroke:#1f77b4;stroke-dasharray:5.55,2.4;stroke-dashoffset:0;stroke-width:1.5;"/>
    </g>
    <g id="line2d_30"/>
    <g id="text_25">
     <!-- $ \theta = 3 $ -->
     <g style="fill:#262626;" transform="translate(195.4 140.582812)scale(0.1 -0.1)">
      <defs>
       <path d="M 40.578125 39.3125 
Q 47.65625 37.796875 51.625 33 
Q 55.609375 28.21875 55.609375 21.1875 
Q 55.609375 10.40625 48.1875 4.484375 
Q 40.765625 -1.421875 27.09375 -1.421875 
Q 22.515625 -1.421875 17.65625 -0.515625 
Q 12.796875 0.390625 7.625 2.203125 
L 7.625 11.71875 
Q 11.71875 9.328125 16.59375 8.109375 
Q 21.484375 6.890625 26.8125 6.890625 
Q 36.078125 6.890625 40.9375 10.546875 
Q 45.796875 14.203125 45.796875 21.1875 
Q 45.796875 27.640625 41.28125 31.265625 
Q 36.765625 34.90625 28.71875 34.90625 
L 20.21875 34.90625 
L 20.21875 43.015625 
L 29.109375 43.015625 
Q 36.375 43.015625 40.234375 45.921875 
Q 44.09375 48.828125 44.09375 54.296875 
Q 44.09375 59.90625 40.109375 62.90625 
Q 36.140625 65.921875 28.71875 65.921875 
Q 24.65625 65.921875 20.015625 65.03125 
Q 15.375 64.15625 9.8125 62.3125 
L 9.8125 71.09375 
Q 15.4375 72.65625 20.34375 73.4375 
Q 25.25 74.21875 29.59375 74.21875 
Q 40.828125 74.21875 47.359375 69.109375 
Q 53.90625 64.015625 53.90625 55.328125 
Q 53.90625 49.265625 50.4375 45.09375 
Q 46.96875 40.921875 40.578125 39.3125 
z
" id="DejaVuSans-51"/>
      </defs>
      <use transform="translate(0 0.234375)" xlink:href="#DejaVuSans-Oblique-952"/>
      <use transform="translate(80.664062 0.234375)" xlink:href="#DejaVuSans-61"/>
      <use transform="translate(183.935547 0.234375)" xlink:href="#DejaVuSans-51"/>
     </g>
    </g>
   </g>
  </g>
  <g id="axes_6">
   <g id="patch_32">
    <path d="M 240 186.225 
L 345.6 186.225 
L 345.6 124.425 
L 240 124.425 
z
" style="fill:#ffffff;"/>
   </g>
   <g id="matplotlib.axis_11">
    <g id="xtick_16">
     <g id="line2d_31">
      <path clip-path="url(#p6e8214014c)" d="M 261.12 186.225 
L 261.12 124.425 
" style="fill:none;stroke:#cccccc;stroke-linecap:round;stroke-width:0.8;"/>
     </g>
     <g id="text_26">
      <!-- 0 -->
      <g style="fill:#262626;" transform="translate(258.339531 200.382812)scale(0.1 -0.1)">
       <use xlink:href="#ArialMT-48"/>
      </g>
     </g>
    </g>
    <g id="xtick_17">
     <g id="line2d_32">
      <path clip-path="url(#p6e8214014c)" d="M 296.32 186.225 
L 296.32 124.425 
" style="fill:none;stroke:#cccccc;stroke-linecap:round;stroke-width:0.8;"/>
     </g>
     <g id="text_27">
      <!-- 5 -->
      <g style="fill:#262626;" transform="translate(293.539531 200.382812)scale(0.1 -0.1)">
       <use xlink:href="#ArialMT-53"/>
      </g>
     </g>
    </g>
    <g id="xtick_18">
     <g id="line2d_33">
      <path clip-path="url(#p6e8214014c)" d="M 331.52 186.225 
L 331.52 124.425 
" style="fill:none;stroke:#cccccc;stroke-linecap:round;stroke-width:0.8;"/>
     </g>
     <g id="text_28">
      <!-- 10 -->
      <g style="fill:#262626;" transform="translate(325.959062 200.382812)scale(0.1 -0.1)">
       <use xlink:href="#ArialMT-49"/>
       <use x="55.615234" xlink:href="#ArialMT-48"/>
      </g>
     </g>
    </g>
   </g>
   <g id="matplotlib.axis_12"/>
   <g id="LineCollection_6">
    <path clip-path="url(#p6e8214014c)" d="M 254.08 186.225 
L 254.08 167.685 
" style="fill:none;stroke:#1f77b4;"/>
    <path clip-path="url(#p6e8214014c)" d="M 261.12 186.225 
L 261.12 167.685 
" style="fill:none;stroke:#1f77b4;"/>
    <path clip-path="url(#p6e8214014c)" d="M 275.2 186.225 
L 275.2 167.685 
" style="fill:none;stroke:#1f77b4;"/>
    <path clip-path="url(#p6e8214014c)" d="M 296.32 186.225 
L 296.32 167.685 
" style="fill:none;stroke:#1f77b4;"/>
    <path clip-path="url(#p6e8214014c)" d="M 331.52 186.225 
L 331.52 167.685 
" style="fill:none;stroke:#1f77b4;"/>
   </g>
   <g id="line2d_34">
    <path clip-path="url(#p6e8214014c)" d="M 289.28 186.225 
L 289.28 124.425 
" style="fill:none;stroke:#1f77b4;stroke-dasharray:5.55,2.4;stroke-dashoffset:0;stroke-width:1.5;"/>
   </g>
   <g id="patch_33">
    <path d="M 240 186.225 
L 240 124.425 
" style="fill:none;stroke:#cccccc;stroke-linecap:square;stroke-linejoin:miter;stroke-width:0.8;"/>
   </g>
   <g id="patch_34">
    <path d="M 345.6 186.225 
L 345.6 124.425 
" style="fill:none;stroke:#cccccc;stroke-linecap:square;stroke-linejoin:miter;stroke-width:0.8;"/>
   </g>
   <g id="patch_35">
    <path d="M 240 186.225 
L 345.6 186.225 
" style="fill:none;stroke:#cccccc;stroke-linecap:square;stroke-linejoin:miter;stroke-width:0.8;"/>
   </g>
   <g id="patch_36">
    <path d="M 240 124.425 
L 345.6 124.425 
" style="fill:none;stroke:#cccccc;stroke-linecap:square;stroke-linejoin:miter;stroke-width:0.8;"/>
   </g>
   <g id="text_29">
    <!-- Avg loss = 3.60 -->
    <g style="fill:#262626;" transform="translate(251.715 118.425)scale(0.12 -0.12)">
     <use xlink:href="#ArialMT-65"/>
     <use x="64.949219" xlink:href="#ArialMT-118"/>
     <use x="114.949219" xlink:href="#ArialMT-103"/>
     <use x="170.564453" xlink:href="#ArialMT-32"/>
     <use x="198.347656" xlink:href="#ArialMT-108"/>
     <use x="220.564453" xlink:href="#ArialMT-111"/>
     <use x="276.179688" xlink:href="#ArialMT-115"/>
     <use x="326.179688" xlink:href="#ArialMT-115"/>
     <use x="376.179688" xlink:href="#ArialMT-32"/>
     <use x="403.962891" xlink:href="#ArialMT-61"/>
     <use x="462.361328" xlink:href="#ArialMT-32"/>
     <use x="490.144531" xlink:href="#ArialMT-51"/>
     <use x="545.759766" xlink:href="#ArialMT-46"/>
     <use x="573.542969" xlink:href="#ArialMT-54"/>
     <use x="629.158203" xlink:href="#ArialMT-48"/>
    </g>
   </g>
   <g id="legend_6">
    <g id="patch_37">
     <path d="M 281.8 146.570312 
L 338.6 146.570312 
Q 340.6 146.570312 340.6 144.570312 
L 340.6 131.425 
Q 340.6 129.425 338.6 129.425 
L 281.8 129.425 
Q 279.8 129.425 279.8 131.425 
L 279.8 144.570312 
Q 279.8 146.570312 281.8 146.570312 
z
" style="fill:#ffffff;opacity:0.8;stroke:#cccccc;stroke-linejoin:miter;"/>
    </g>
    <g id="line2d_35">
     <path d="M 283.8 137.082812 
L 303.8 137.082812 
" style="fill:none;stroke:#1f77b4;stroke-dasharray:5.55,2.4;stroke-dashoffset:0;stroke-width:1.5;"/>
    </g>
    <g id="line2d_36"/>
    <g id="text_30">
     <!-- $ \theta = 4 $ -->
     <g style="fill:#262626;" transform="translate(311.8 140.582812)scale(0.1 -0.1)">
      <defs>
       <path d="M 37.796875 64.3125 
L 12.890625 25.390625 
L 37.796875 25.390625 
z
M 35.203125 72.90625 
L 47.609375 72.90625 
L 47.609375 25.390625 
L 58.015625 25.390625 
L 58.015625 17.1875 
L 47.609375 17.1875 
L 47.609375 0 
L 37.796875 0 
L 37.796875 17.1875 
L 4.890625 17.1875 
L 4.890625 26.703125 
z
" id="DejaVuSans-52"/>
      </defs>
      <use transform="translate(0 0.234375)" xlink:href="#DejaVuSans-Oblique-952"/>
      <use transform="translate(80.664062 0.234375)" xlink:href="#DejaVuSans-61"/>
      <use transform="translate(183.935547 0.234375)" xlink:href="#DejaVuSans-52"/>
     </g>
    </g>
   </g>
  </g>
 </g>
 <defs>
  <clipPath id="pf0b3654aa8">
   <rect height="61.8" width="105.6" x="7.2" y="21.825"/>
  </clipPath>
  <clipPath id="p3039153d54">
   <rect height="61.8" width="105.6" x="123.6" y="21.825"/>
  </clipPath>
  <clipPath id="p3d6c203099">
   <rect height="61.8" width="105.6" x="240" y="21.825"/>
  </clipPath>
  <clipPath id="pac6af3f930">
   <rect height="61.8" width="105.6" x="7.2" y="124.425"/>
  </clipPath>
  <clipPath id="pff4c2a7607">
   <rect height="61.8" width="105.6" x="123.6" y="124.425"/>
  </clipPath>
  <clipPath id="p6e8214014c">
   <rect height="61.8" width="105.6" x="240" y="124.425"/>
  </clipPath>
 </defs>
</svg>
