<svg class="main-svg" xmlns="http://www.w3.org/2000/svg" xmlns:xlink="http://www.w3.org/1999/xlink" width="500" height="250" style="" viewBox="0 0 500 250"><rect x="0" y="0" width="500" height="250" style="fill: rgb(255, 255, 255); fill-opacity: 1;"/><defs id="defs-b2b57d"><g class="clips"><clipPath id="clipb2b57dxyplot" class="plotclip"><rect width="432" height="174"/></clipPath><clipPath class="axesclip" id="clipb2b57dx"><rect x="58" y="0" width="432" height="250"/></clipPath><clipPath class="axesclip" id="clipb2b57dy"><rect x="0" y="18" width="500" height="174"/></clipPath><clipPath class="axesclip" id="clipb2b57dxy"><rect x="58" y="18" width="432" height="174"/></clipPath></g><g class="gradients"/><g class="patterns"/></defs><g class="bglayer"/><g class="layer-below"><g class="imagelayer"/><g class="shapelayer"/></g><g class="cartesianlayer"><g class="subplot xy"><g class="layer-subplot"><g class="shapelayer"/><g class="imagelayer"/></g><g class="minor-gridlayer"><g class="x"/><g class="y"/></g><g class="gridlayer"><g class="x"><path class="xgrid crisp" transform="translate(63.2,0)" d="M0,18v174" style="stroke: rgb(232, 232, 232); stroke-opacity: 1; stroke-width: 1px;"/><path class="xgrid crisp" transform="translate(130.87,0)" d="M0,18v174" style="stroke: rgb(232, 232, 232); stroke-opacity: 1; stroke-width: 1px;"/><path class="xgrid crisp" transform="translate(199.27,0)" d="M0,18v174" style="stroke: rgb(232, 232, 232); stroke-opacity: 1; stroke-width: 1px;"/><path class="xgrid crisp" transform="translate(267.68,0)" d="M0,18v174" style="stroke: rgb(232, 232, 232); stroke-opacity: 1; stroke-width: 1px;"/><path class="xgrid crisp" transform="translate(334.6,0)" d="M0,18v174" style="stroke: rgb(232, 232, 232); stroke-opacity: 1; stroke-width: 1px;"/><path class="xgrid crisp" transform="translate(402.26,0)" d="M0,18v174" style="stroke: rgb(232, 232, 232); stroke-opacity: 1; stroke-width: 1px;"/><path class="xgrid crisp" transform="translate(470.67,0)" d="M0,18v174" style="stroke: rgb(232, 232, 232); stroke-opacity: 1; stroke-width: 1px;"/></g><g class="y"><path class="ygrid crisp" transform="translate(0,134)" d="M58,0h432" style="stroke: rgb(232, 232, 232); stroke-opacity: 1; stroke-width: 1px;"/><path class="ygrid crisp" transform="translate(0,76)" d="M58,0h432" style="stroke: rgb(232, 232, 232); stroke-opacity: 1; stroke-width: 1px;"/></g></g><g class="zerolinelayer"/><path class="xlines-below"/><path class="ylines-below"/><g class="overlines-below"/><g class="xaxislayer-below"/><g class="yaxislayer-below"/><g class="overaxes-below"/><g class="plot" transform="translate(58,18)" clip-path="url(#clipb2b57dxyplot)"><g class="scatterlayer mlayer"><g class="trace scatter trace2aa303" style="stroke-miterlimit: 2; opacity: 1;"><g class="fills"/><g class="errorbars"/><g class="lines"><path class="js-line" d="M0,143.96L5.2,130.81L10.41,131.61L15.61,112.75L20.82,142.12L26.02,151.29L31.23,93.59L36.43,102.14L41.64,116.71L46.84,135.7L52.05,140.44L57.25,113.94L62.46,115.78L67.66,112.43L72.87,132.58L78.07,127.44L83.28,105.85L88.48,127.87L93.69,134.99L98.89,143.56L104.1,129.53L109.3,115.84L114.51,129.06L119.71,112.83L124.92,133.67L130.12,149.15L135.33,132.62L140.53,143.11L145.73,124.76L150.94,143.65L156.14,140.28L161.35,141.89L166.55,140.53L171.76,143.56L176.96,128.5L182.17,103.58L187.37,121.27L192.58,123.79L197.78,121.78L202.99,130.8L208.19,128.71L213.4,141.81L218.6,121.57L223.81,110.92L229.01,133.82L234.22,114.26L239.42,129.28L244.63,135.03L249.83,149.27L255.04,135.36L260.24,131.6L265.45,143.35L270.65,137.46L275.86,116.75L281.06,128.82L286.27,135.18L291.47,146.79L296.67,128.06L301.88,118.48L307.08,139.4L312.29,127.88L317.49,112.48L322.7,115.81L327.9,129.61L333.11,139.39L338.31,130.99L343.52,120.3L348.72,115.1L353.93,129.31L359.13,125.48L364.34,125.32L369.54,117.17L374.75,117.81L379.95,121.68L385.16,133.82L390.36,131.79L395.57,122.48L400.77,97.17L405.98,122.45L416.39,104.17L421.59,141.87L432,145.86" style="vector-effect: none; fill: none; stroke: rgb(31, 119, 180); stroke-opacity: 1; stroke-width: 2px; opacity: 1;"/></g><g class="points"/><g class="text"/></g><g class="trace scatter trace6854a1" style="stroke-miterlimit: 2; opacity: 1;"><g class="fills"/><g class="errorbars"/><g class="lines"><path class="js-line" d="M0,133.14L10.41,118.85L15.61,83.94L20.82,139.41L26.02,146.51L31.23,86.4L36.43,74.77L41.64,67.88L46.84,112.04L52.05,106.24L57.25,54.87L62.46,46.96L67.66,67.85L72.87,91.3L78.07,81.7L83.28,26.79L88.48,80.8L93.69,99.79L98.89,123.55L104.1,88.64L109.3,59.58L114.51,91.71L119.71,53.11L124.92,99.76L130.12,138.96L135.33,84.84L140.53,126.35L145.73,70.03L150.94,128.42L156.14,123.23L161.35,131.74L166.55,127.41L171.76,137.63L182.17,45.75L187.37,80.43L192.58,81.53L197.78,78.27L202.99,114.07L208.19,93.36L213.4,120.78L218.6,89.05L223.81,56.96L229.01,110.45L234.22,63.83L239.42,93.12L244.63,85.91L249.83,130.93L255.04,100.94L260.24,89.95L265.45,134.77L270.65,116.18L275.86,78.43L281.06,92.58L286.27,111.03L291.47,141.01L301.88,78.44L307.08,125.28L312.29,102.61L317.49,58.12L322.7,66.97L327.9,71.88L333.11,123.8L338.31,86.29L348.72,42.83L353.93,87.55L359.13,104.96L364.34,84.44L369.54,53.16L374.75,56.27L379.95,59.21L385.16,104.86L390.36,107.92L395.57,83.99L400.77,20.63L405.98,93.48L411.18,55.67L416.39,29.06L421.59,134.11L426.8,134.28L432,141.03" style="vector-effect: none; fill: none; stroke: rgb(0, 0, 0); stroke-opacity: 1; stroke-dasharray: 3px, 3px; stroke-width: 2px; opacity: 1;"/></g><g class="points"/><g class="text"/></g></g></g><g class="overplot"/><path class="xlines-above crisp" d="M57,192.5H490" style="fill: none; stroke-width: 1px; stroke: rgb(36, 36, 36); stroke-opacity: 1;"/><path class="ylines-above crisp" d="M57.5,18V192" style="fill: none; stroke-width: 1px; stroke: rgb(36, 36, 36); stroke-opacity: 1;"/><g class="overlines-above"/><g class="xaxislayer-above"><path class="xtick ticks crisp" d="M0,193v5" transform="translate(63.2,0)" style="stroke: rgb(68, 68, 68); stroke-opacity: 1; stroke-width: 1px;"/><path class="xtick ticks crisp" d="M0,193v5" transform="translate(130.87,0)" style="stroke: rgb(68, 68, 68); stroke-opacity: 1; stroke-width: 1px;"/><path class="xtick ticks crisp" d="M0,193v5" transform="translate(199.27,0)" style="stroke: rgb(68, 68, 68); stroke-opacity: 1; stroke-width: 1px;"/><path class="xtick ticks crisp" d="M0,193v5" transform="translate(267.68,0)" style="stroke: rgb(68, 68, 68); stroke-opacity: 1; stroke-width: 1px;"/><path class="xtick ticks crisp" d="M0,193v5" transform="translate(334.6,0)" style="stroke: rgb(68, 68, 68); stroke-opacity: 1; stroke-width: 1px;"/><path class="xtick ticks crisp" d="M0,193v5" transform="translate(402.26,0)" style="stroke: rgb(68, 68, 68); stroke-opacity: 1; stroke-width: 1px;"/><path class="xtick ticks crisp" d="M0,193v5" transform="translate(470.67,0)" style="stroke: rgb(68, 68, 68); stroke-opacity: 1; stroke-width: 1px;"/><g class="xtick"><text text-anchor="middle" x="0" y="212.4" transform="translate(63.2,0)" style="font-family: 'Open Sans', verdana, arial, sans-serif; font-size: 12px; fill: rgb(36, 36, 36); fill-opacity: 1; white-space: pre; opacity: 1;">Apr 2018</text></g><g class="xtick"><text text-anchor="middle" x="0" y="212.4" style="font-family: 'Open Sans', verdana, arial, sans-serif; font-size: 12px; fill: rgb(36, 36, 36); fill-opacity: 1; white-space: pre; opacity: 1;" transform="translate(130.87,0)">Jul 2018</text></g><g class="xtick"><text text-anchor="middle" x="0" y="212.4" style="font-family: 'Open Sans', verdana, arial, sans-serif; font-size: 12px; fill: rgb(36, 36, 36); fill-opacity: 1; white-space: pre; opacity: 1;" transform="translate(199.27,0)">Oct 2018</text></g><g class="xtick"><text text-anchor="middle" x="0" y="212.4" style="font-family: 'Open Sans', verdana, arial, sans-serif; font-size: 12px; fill: rgb(36, 36, 36); fill-opacity: 1; white-space: pre; opacity: 1;" transform="translate(267.68,0)">Jan 2019</text></g><g class="xtick"><text text-anchor="middle" x="0" y="212.4" style="font-family: 'Open Sans', verdana, arial, sans-serif; font-size: 12px; fill: rgb(36, 36, 36); fill-opacity: 1; white-space: pre; opacity: 1;" transform="translate(334.6,0)">Apr 2019</text></g><g class="xtick"><text text-anchor="middle" x="0" y="212.4" style="font-family: 'Open Sans', verdana, arial, sans-serif; font-size: 12px; fill: rgb(36, 36, 36); fill-opacity: 1; white-space: pre; opacity: 1;" transform="translate(402.26,0)">Jul 2019</text></g><g class="xtick"><text text-anchor="middle" x="0" y="212.4" style="font-family: 'Open Sans', verdana, arial, sans-serif; font-size: 12px; fill: rgb(36, 36, 36); fill-opacity: 1; white-space: pre; opacity: 1;" transform="translate(470.67,0)">Oct 2019</text></g></g><g class="yaxislayer-above"><path class="ytick ticks crisp" d="M57,0h-5" transform="translate(0,192)" style="stroke: rgb(68, 68, 68); stroke-opacity: 1; stroke-width: 1px;"/><path class="ytick ticks crisp" d="M57,0h-5" transform="translate(0,134)" style="stroke: rgb(68, 68, 68); stroke-opacity: 1; stroke-width: 1px;"/><path class="ytick ticks crisp" d="M57,0h-5" transform="translate(0,76)" style="stroke: rgb(68, 68, 68); stroke-opacity: 1; stroke-width: 1px;"/><path class="ytick ticks crisp" d="M57,0h-5" transform="translate(0,18)" style="stroke: rgb(68, 68, 68); stroke-opacity: 1; stroke-width: 1px;"/><g class="ytick"><text text-anchor="end" x="49.6" y="4.199999999999999" transform="translate(0,192)" style="font-family: 'Open Sans', verdana, arial, sans-serif; font-size: 12px; fill: rgb(36, 36, 36); fill-opacity: 1; white-space: pre; opacity: 1;">0</text></g><g class="ytick"><text text-anchor="end" x="49.6" y="4.199999999999999" style="font-family: 'Open Sans', verdana, arial, sans-serif; font-size: 12px; fill: rgb(36, 36, 36); fill-opacity: 1; white-space: pre; opacity: 1;" transform="translate(0,134)">10</text></g><g class="ytick"><text text-anchor="end" x="49.6" y="4.199999999999999" style="font-family: 'Open Sans', verdana, arial, sans-serif; font-size: 12px; fill: rgb(36, 36, 36); fill-opacity: 1; white-space: pre; opacity: 1;" transform="translate(0,76)">20</text></g><g class="ytick"><text text-anchor="end" x="49.6" y="4.199999999999999" style="font-family: 'Open Sans', verdana, arial, sans-serif; font-size: 12px; fill: rgb(36, 36, 36); fill-opacity: 1; white-space: pre; opacity: 1;" transform="translate(0,18)">30</text></g></g><g class="overaxes-above"/></g></g><g class="polarlayer"/><g class="smithlayer"/><g class="ternarylayer"/><g class="geolayer"/><g class="funnelarealayer"/><g class="pielayer"/><g class="iciclelayer"/><g class="treemaplayer"/><g class="sunburstlayer"/><g class="glimages"/><defs id="topdefs-b2b57d"><g class="clips"/></defs><g class="layer-above"><g class="imagelayer"/><g class="shapelayer"/></g><g class="infolayer"><g class="g-gtitle"/><g class="g-xtitle"/><g class="g-ytitle" transform="translate(3.9716796875,0)"><text class="ytitle" transform="rotate(-90,10.028125000000003,105)" x="10.028125000000003" y="105" text-anchor="middle" style="font-family: 'Open Sans', verdana, arial, sans-serif; font-size: 14px; fill: rgb(36, 36, 36); opacity: 1; font-weight: normal; white-space: pre;">PM2.5 weekly avg</text></g></g></svg>