<svg class="main-svg" xmlns="http://www.w3.org/2000/svg" xmlns:xlink="http://www.w3.org/1999/xlink" width="350" height="250" style="" viewBox="0 0 350 250"><rect x="0" y="0" width="350" height="250" style="fill: rgb(255, 255, 255); fill-opacity: 1;"/><defs id="defs-d8fa4f"><g class="clips"><clipPath id="clipd8fa4fxyplot" class="plotclip"><rect width="207" height="182"/></clipPath><clipPath class="axesclip" id="clipd8fa4fx"><rect x="73" y="0" width="207" height="250"/></clipPath><clipPath class="axesclip" id="clipd8fa4fy"><rect x="0" y="10" width="350" height="182"/></clipPath><clipPath class="axesclip" id="clipd8fa4fxy"><rect x="73" y="10" width="207" height="182"/></clipPath></g><g class="gradients"/><g class="patterns"/></defs><g class="bglayer"/><g class="layer-below"><g class="imagelayer"/><g class="shapelayer"/></g><g class="cartesianlayer"><g class="subplot xy"><g class="layer-subplot"><g class="shapelayer"/><g class="imagelayer"/></g><g class="minor-gridlayer"><g class="x"/><g class="y"/></g><g class="gridlayer"><g class="x"><path class="xgrid crisp" transform="translate(102.57,0)" d="M0,10v182" style="stroke: rgb(232, 232, 232); stroke-opacity: 1; stroke-width: 1px;"/><path class="xgrid crisp" transform="translate(176.5,0)" d="M0,10v182" style="stroke: rgb(232, 232, 232); stroke-opacity: 1; stroke-width: 1px;"/><path class="xgrid crisp" transform="translate(250.43,0)" d="M0,10v182" style="stroke: rgb(232, 232, 232); stroke-opacity: 1; stroke-width: 1px;"/></g><g class="y"><path class="ygrid crisp" transform="translate(0,189.53)" d="M73,0h207" style="stroke: rgb(232, 232, 232); stroke-opacity: 1; stroke-width: 1px;"/><path class="ygrid crisp" transform="translate(0,150.02)" d="M73,0h207" style="stroke: rgb(232, 232, 232); stroke-opacity: 1; stroke-width: 1px;"/><path class="ygrid crisp" transform="translate(0,110.5)" d="M73,0h207" style="stroke: rgb(232, 232, 232); stroke-opacity: 1; stroke-width: 1px;"/><path class="ygrid crisp" transform="translate(0,70.97999999999999)" d="M73,0h207" style="stroke: rgb(232, 232, 232); stroke-opacity: 1; stroke-width: 1px;"/><path class="ygrid crisp" transform="translate(0,31.46)" d="M73,0h207" style="stroke: rgb(232, 232, 232); stroke-opacity: 1; stroke-width: 1px;"/></g></g><g class="zerolinelayer"/><path class="xlines-below"/><path class="ylines-below"/><g class="overlines-below"/><g class="xaxislayer-below"/><g class="yaxislayer-below"/><g class="overaxes-below"/><g class="plot" transform="translate(73,10)" clip-path="url(#clipd8fa4fxyplot)"><g class="scatterlayer mlayer"><g class="trace scatter trace6232fb" style="stroke-miterlimit: 2; opacity: 1;"><g class="fills"/><g class="errorbars"/><g class="lines"><path class="js-line" d="M0,172.9L1.48,172.81L2.96,171.65L4.44,171.29L5.91,170.06L10.35,168.78L11.83,166.34L13.31,166.36L14.79,165.44L16.26,165.8L17.74,163.79L20.7,162.95L22.18,162.13L25.14,162.08L26.61,160.22L28.09,162.16L29.57,157.16L31.05,161.65L32.53,159.81L34.01,159.96L35.49,158.95L42.88,153.61L44.36,150L45.84,148.4L47.31,137.98L48.79,133.07L50.27,122.92L51.75,106.37L53.23,101.85L54.71,99.15L56.19,93.36L57.66,95.42L59.14,90.44L60.62,87.92L62.1,90.32L63.58,89.85L65.06,86.64L68.01,91.21L69.49,90.87L72.45,96.31L73.93,95.61L75.41,100.15L76.89,99.93L78.36,104.26L79.84,101.5L81.32,101.01L82.8,101.61L84.28,99.84L85.76,96.77L87.24,97.2L88.71,93.6L90.19,88.64L91.67,77.78L93.15,74.49L94.63,79.58L96.11,80.91L97.59,60.68L99.06,47.3L100.54,52.95L103.5,50.5L104.98,43.05L107.94,35.93L109.41,31.42L110.89,29.99L112.37,25.74L113.85,22.77L115.33,24.99L118.29,23.79L119.76,23.83L124.2,34.06L125.68,44.79L128.64,53.19L130.11,53.81L133.07,45.01L134.55,52.53L136.03,64.33L137.51,69.22L138.99,68.54L140.46,68.91L141.94,68.43L143.42,63.02L144.9,62.91L146.38,57.14L147.86,52.92L149.34,52.21L150.81,50.21L152.29,51.79L153.77,50.46L155.25,47.36L156.73,48.12L158.21,46.56L161.16,37.62L162.64,33.17L165.6,36.86L167.08,39.34L170.04,42.77L171.51,42.99L172.99,44.01L174.47,41.97L175.95,41.46L177.43,38.09L180.39,39.49L181.86,37.2L184.82,35.45L186.3,31.04L187.78,29.2L189.26,31.67L192.21,40.98L193.69,42.37L196.65,42.71L198.13,40.21L199.61,40.3L201.09,41.31L204.04,47L205.52,48.97L207,54.55" style="vector-effect: none; fill: none; stroke: rgb(31, 119, 180); stroke-opacity: 1; stroke-width: 2px; opacity: 1;"/></g><g class="points"/><g class="text"/></g><g class="trace scatter trace32b46b" style="stroke-miterlimit: 2; opacity: 1;"><g class="fills"/><g class="errorbars"/><g class="lines"><path class="js-line" d="M0,170.8L1.48,171.57L2.96,170.55L4.44,171.26L5.91,170.49L10.35,171.52L11.83,169.98L14.79,170.76L16.26,171.54L17.74,169.89L19.22,170.66L23.66,170.08L25.14,170.62L26.61,169.84L28.09,171.14L29.57,167.64L31.05,171.12L32.53,169.84L34.01,170.11L36.96,169.08L38.44,169.01L42.88,166.57L44.36,164.18L45.84,161.67L47.31,145.55L48.79,139.02L50.27,127.78L51.75,112.46L53.23,109.18L54.71,106.39L56.19,99.43L57.66,102.07L59.14,95.41L60.62,92.48L62.1,93.53L63.58,92.9L65.06,90L68.01,91.76L69.49,90.46L72.45,94.52L73.93,92.8L75.41,97.36L76.89,97.01L78.36,101.17L79.84,97.93L81.32,97.24L82.8,97.56L85.76,91.87L87.24,92.06L90.19,82.46L91.67,70.39L93.15,66.73L94.63,71.82L96.11,73.17L97.59,51.19L99.06,34.94L100.54,40.86L103.5,38.02L104.98,30.72L109.41,18.38L110.89,16.71L113.85,9.1L115.33,11.87L116.81,10.94L118.29,11.02L119.76,11.75L121.24,16.03L124.2,22.01L125.68,32.46L128.64,41.68L130.11,42.13L133.07,32.6L134.55,39.72L136.03,51.31L137.51,56.3L138.99,55.21L140.46,56.07L141.94,55.46L143.42,49.61L144.9,49.71L146.38,43.41L147.86,38.48L149.34,37.92L150.81,36.08L152.29,37.82L153.77,36.87L155.25,33.46L156.73,34L158.21,31.99L159.69,28.27L161.16,21.41L162.64,17.23L164.12,19.88L167.08,24.55L168.56,26.86L170.04,29.1L171.51,29.84L172.99,30.56L174.47,28.49L175.95,27.8L177.43,24.35L178.91,26.02L180.39,26.13L181.86,23.47L183.34,22.72L184.82,21.75L186.3,17.18L187.78,15.59L189.26,18.4L192.21,28.01L193.69,29.57L196.65,30.22L198.13,27.94L199.61,28.3L201.09,29.85L204.04,36.45L205.52,38.41L207,44.66" style="vector-effect: none; fill: none; stroke: rgb(255, 127, 14); stroke-opacity: 1; stroke-dasharray: 9px, 3px, 3px, 3px; stroke-width: 2px; opacity: 1;"/></g><g class="points"/><g class="text"/></g></g></g><g class="overplot"/><path class="xlines-above crisp" d="M72,192.5H280" style="fill: none; stroke-width: 1px; stroke: rgb(36, 36, 36); stroke-opacity: 1;"/><path class="ylines-above crisp" d="M72.5,10V192" style="fill: none; stroke-width: 1px; stroke: rgb(36, 36, 36); stroke-opacity: 1;"/><g class="overlines-above"/><g class="xaxislayer-above"><path class="xtick ticks crisp" d="M0,193v5" transform="translate(102.57,0)" style="stroke: rgb(68, 68, 68); stroke-opacity: 1; stroke-width: 1px;"/><path class="xtick ticks crisp" d="M0,193v5" transform="translate(176.5,0)" style="stroke: rgb(68, 68, 68); stroke-opacity: 1; stroke-width: 1px;"/><path class="xtick ticks crisp" d="M0,193v5" transform="translate(250.43,0)" style="stroke: rgb(68, 68, 68); stroke-opacity: 1; stroke-width: 1px;"/><g class="xtick"><text text-anchor="middle" x="0" y="212.4" transform="translate(102.57,0)" style="font-family: 'Open Sans', verdana, arial, sans-serif; font-size: 12px; fill: rgb(36, 36, 36); fill-opacity: 1; white-space: pre; opacity: 1;">1900</text></g><g class="xtick"><text text-anchor="middle" x="0" y="212.4" style="font-family: 'Open Sans', verdana, arial, sans-serif; font-size: 12px; fill: rgb(36, 36, 36); fill-opacity: 1; white-space: pre; opacity: 1;" transform="translate(176.5,0)">1950</text></g><g class="xtick"><text text-anchor="middle" x="0" y="212.4" style="font-family: 'Open Sans', verdana, arial, sans-serif; font-size: 12px; fill: rgb(36, 36, 36); fill-opacity: 1; white-space: pre; opacity: 1;" transform="translate(250.43,0)">2000</text></g></g><g class="yaxislayer-above"><path class="ytick ticks crisp" d="M72,0h-5" transform="translate(0,189.53)" style="stroke: rgb(68, 68, 68); stroke-opacity: 1; stroke-width: 1px;"/><path class="ytick ticks crisp" d="M72,0h-5" transform="translate(0,150.02)" style="stroke: rgb(68, 68, 68); stroke-opacity: 1; stroke-width: 1px;"/><path class="ytick ticks crisp" d="M72,0h-5" transform="translate(0,110.5)" style="stroke: rgb(68, 68, 68); stroke-opacity: 1; stroke-width: 1px;"/><path class="ytick ticks crisp" d="M72,0h-5" transform="translate(0,70.97999999999999)" style="stroke: rgb(68, 68, 68); stroke-opacity: 1; stroke-width: 1px;"/><path class="ytick ticks crisp" d="M72,0h-5" transform="translate(0,31.46)" style="stroke: rgb(68, 68, 68); stroke-opacity: 1; stroke-width: 1px;"/><g class="ytick"><text text-anchor="end" x="64.6" y="4.199999999999999" transform="translate(0,189.53)" style="font-family: 'Open Sans', verdana, arial, sans-serif; font-size: 12px; fill: rgb(36, 36, 36); fill-opacity: 1; white-space: pre; opacity: 1;">0</text></g><g class="ytick"><text text-anchor="end" x="64.6" y="4.199999999999999" style="font-family: 'Open Sans', verdana, arial, sans-serif; font-size: 12px; fill: rgb(36, 36, 36); fill-opacity: 1; white-space: pre; opacity: 1;" transform="translate(0,150.02)">0.5M</text></g><g class="ytick"><text text-anchor="end" x="64.6" y="4.199999999999999" style="font-family: 'Open Sans', verdana, arial, sans-serif; font-size: 12px; fill: rgb(36, 36, 36); fill-opacity: 1; white-space: pre; opacity: 1;" transform="translate(0,110.5)">1M</text></g><g class="ytick"><text text-anchor="end" x="64.6" y="4.199999999999999" style="font-family: 'Open Sans', verdana, arial, sans-serif; font-size: 12px; fill: rgb(36, 36, 36); fill-opacity: 1; white-space: pre; opacity: 1;" transform="translate(0,70.97999999999999)">1.5M</text></g><g class="ytick"><text text-anchor="end" x="64.6" y="4.199999999999999" style="font-family: 'Open Sans', verdana, arial, sans-serif; font-size: 12px; fill: rgb(36, 36, 36); fill-opacity: 1; white-space: pre; opacity: 1;" transform="translate(0,31.46)">2M</text></g></g><g class="overaxes-above"/></g></g><g class="polarlayer"/><g class="smithlayer"/><g class="ternarylayer"/><g class="geolayer"/><g class="funnelarealayer"/><g class="pielayer"/><g class="iciclelayer"/><g class="treemaplayer"/><g class="sunburstlayer"/><g class="glimages"/><defs id="topdefs-d8fa4f"><g class="clips"/><clipPath id="legendd8fa4f"><rect width="56" height="67" x="0" y="0"/></clipPath></defs><g class="layer-above"><g class="imagelayer"/><g class="shapelayer"/></g><g class="infolayer"><g class="legend" pointer-events="all" transform="translate(284.14,10)"><rect class="bg" shape-rendering="crispEdges" width="56" height="67" x="0" y="0" style="stroke: rgb(68, 68, 68); stroke-opacity: 1; fill: rgb(255, 255, 255); fill-opacity: 1; stroke-width: 0px;"/><g class="scrollbox" transform="" clip-path="url(#legendd8fa4f)"><text class="legendtitletext" text-anchor="start" x="2" y="18.2" style="font-family: 'Open Sans', verdana, arial, sans-serif; font-size: 14px; fill: rgb(36, 36, 36); fill-opacity: 1; white-space: pre;">Sex</text><g class="groups" transform=""><g class="traces" transform="translate(0,32.7)" style="opacity: 1;"><text class="legendtext" text-anchor="start" x="40" y="4.680000000000001" style="font-family: 'Open Sans', verdana, arial, sans-serif; font-size: 12px; fill: rgb(36, 36, 36); fill-opacity: 1; white-space: pre;">F</text><g class="layers" style="opacity: 1;"><g class="legendfill"/><g class="legendlines"><path class="js-line" d="M5,0h30" style="fill: none; stroke: rgb(31, 119, 180); stroke-opacity: 1; stroke-width: 2px;"/></g><g class="legendsymbols"><g class="legendpoints"/></g></g><rect class="legendtoggle" x="0" y="-9.5" width="50.125" height="19" style="fill: rgb(0, 0, 0); fill-opacity: 0;"/></g></g><g class="groups" transform=""><g class="traces" transform="translate(0,51.7)" style="opacity: 1;"><text class="legendtext" text-anchor="start" x="40" y="4.680000000000001" style="font-family: 'Open Sans', verdana, arial, sans-serif; font-size: 12px; fill: rgb(36, 36, 36); fill-opacity: 1; white-space: pre;">M</text><g class="layers" style="opacity: 1;"><g class="legendfill"/><g class="legendlines"><path class="js-line" d="M5,0h30" style="fill: none; stroke: rgb(255, 127, 14); stroke-opacity: 1; stroke-dasharray: 9px, 3px, 3px, 3px; stroke-width: 2px;"/></g><g class="legendsymbols"><g class="legendpoints"/></g></g><rect class="legendtoggle" x="0" y="-9.5" width="50.125" height="19" style="fill: rgb(0, 0, 0); fill-opacity: 0;"/></g></g></g><rect class="scrollbar" rx="20" ry="3" width="0" height="0" x="0" y="0" style="fill: rgb(128, 139, 164); fill-opacity: 1;"/></g><g class="g-gtitle"/><g class="g-xtitle"><text class="xtitle" x="176.5" y="239.20625" text-anchor="middle" style="font-family: 'Open Sans', verdana, arial, sans-serif; font-size: 14px; fill: rgb(36, 36, 36); opacity: 1; font-weight: normal; white-space: pre;">Year</text></g><g class="g-ytitle" transform="translate(3.4404296875,0)"><text class="ytitle" transform="rotate(-90,10.559375000000003,101)" x="10.559375000000003" y="101" text-anchor="middle" style="font-family: 'Open Sans', verdana, arial, sans-serif; font-size: 14px; fill: rgb(36, 36, 36); opacity: 1; font-weight: normal; white-space: pre;">Value</text></g></g></svg>