<svg class="main-svg" xmlns="http://www.w3.org/2000/svg" xmlns:xlink="http://www.w3.org/1999/xlink" width="500" height="200" style="" viewBox="0 0 500 200"><rect x="0" y="0" width="500" height="200" style="fill: rgb(255, 255, 255); fill-opacity: 1;"/><defs id="defs-c25d11"><g class="clips"><clipPath id="clipc25d11xyplot" class="plotclip"><rect width="198.9" height="137"/></clipPath><clipPath id="clipc25d11x2y2plot" class="plotclip"><rect width="198.89999999999998" height="137"/></clipPath><clipPath class="axesclip" id="clipc25d11x"><rect x="48" y="0" width="198.9" height="200"/></clipPath><clipPath class="axesclip" id="clipc25d11y"><rect x="0" y="30" width="500" height="137"/></clipPath><clipPath class="axesclip" id="clipc25d11xy"><rect x="48" y="30" width="198.9" height="137"/></clipPath><clipPath class="axesclip" id="clipc25d11y2"><rect x="0" y="30" width="500" height="137"/></clipPath><clipPath class="axesclip" id="clipc25d11xy2"><rect x="48" y="30" width="198.9" height="137"/></clipPath><clipPath class="axesclip" id="clipc25d11x2"><rect x="291.1" y="0" width="198.89999999999998" height="200"/></clipPath><clipPath class="axesclip" id="clipc25d11x2y"><rect x="291.1" y="30" width="198.89999999999998" height="137"/></clipPath><clipPath class="axesclip" id="clipc25d11x2y2"><rect x="291.1" y="30" width="198.89999999999998" height="137"/></clipPath></g><g class="gradients"/><g class="patterns"/></defs><g class="bglayer"/><g class="layer-below"><g class="imagelayer"/><g class="shapelayer"/></g><g class="cartesianlayer"><g class="subplot xy"><g class="layer-subplot"><g class="shapelayer"/><g class="imagelayer"/></g><g class="minor-gridlayer"><g class="x"/><g class="y"/></g><g class="gridlayer"><g class="x"><path class="xgrid crisp" transform="translate(76.41,0)" d="M0,30v137" style="stroke: rgb(232, 232, 232); stroke-opacity: 1; stroke-width: 1px;"/><path class="xgrid crisp" transform="translate(147.45,0)" d="M0,30v137" style="stroke: rgb(232, 232, 232); stroke-opacity: 1; stroke-width: 1px;"/><path class="xgrid crisp" transform="translate(218.49,0)" d="M0,30v137" style="stroke: rgb(232, 232, 232); stroke-opacity: 1; stroke-width: 1px;"/></g><g class="y"><path class="ygrid crisp" transform="translate(0,160.49)" d="M48,0h198.9" style="stroke: rgb(232, 232, 232); stroke-opacity: 1; stroke-width: 1px;"/><path class="ygrid crisp" transform="translate(0,102.99)" d="M48,0h198.9" style="stroke: rgb(232, 232, 232); stroke-opacity: 1; stroke-width: 1px;"/><path class="ygrid crisp" transform="translate(0,45.5)" d="M48,0h198.9" style="stroke: rgb(232, 232, 232); stroke-opacity: 1; stroke-width: 1px;"/></g></g><g class="zerolinelayer"/><path class="xlines-below"/><path class="ylines-below"/><g class="overlines-below"/><g class="xaxislayer-below"/><g class="yaxislayer-below"/><g class="overaxes-below"/><g class="plot" transform="translate(48,30)" clip-path="url(#clipc25d11xyplot)"><g class="scatterlayer mlayer"><g class="trace scatter trace01d25e" style="stroke-miterlimit: 2; opacity: 1;"><g class="fills"/><g class="errorbars"/><g class="lines"><path class="js-line" d="M0,130.15L52.57,129.36L53.99,129.21L59.67,129L61.09,128.86L65.35,127.42L66.77,126.57L69.61,124.62L71.04,122.94L76.72,119.11L78.14,117.94L80.98,115.66L82.4,112.27L83.82,110.1L85.24,106.12L89.5,86.6L90.93,86.69L92.35,84.11L93.77,68.13L96.61,56.17L98.03,54.04L99.45,51.66L100.87,44.06L102.29,40.86L103.71,35.26L105.13,26.93L106.55,23.12L109.39,7.61L110.82,6.85L113.66,17.14L115.08,23.75L116.5,27.41L117.92,35.72L120.76,49.86L122.18,63.38L125.02,77.68L126.44,82.2L129.28,91.44L130.71,99.75L133.55,106.15L134.97,108.17L136.39,110.46L137.81,111.3L140.65,114.25L142.07,115.39L149.17,120.94L150.6,121.68L153.44,122.82L154.86,122.79L161.96,124.9L163.38,125.44L166.22,125.79L167.64,126.13L181.85,127.25L183.27,127.82L198.9,129.49" style="vector-effect: none; fill: none; stroke: rgb(31, 119, 180); stroke-opacity: 1; stroke-width: 2px; opacity: 1;"/></g><g class="points"/><g class="text"/></g></g></g><g class="overplot"/><path class="xlines-above crisp" d="M47,167.5H246.9" style="fill: none; stroke-width: 1px; stroke: rgb(36, 36, 36); stroke-opacity: 1;"/><path class="ylines-above crisp" d="M47.5,30V167" style="fill: none; stroke-width: 1px; stroke: rgb(36, 36, 36); stroke-opacity: 1;"/><g class="overlines-above"/><g class="xaxislayer-above"><path class="xtick ticks crisp" d="M0,168v5" transform="translate(76.41,0)" style="stroke: rgb(68, 68, 68); stroke-opacity: 1; stroke-width: 1px;"/><path class="xtick ticks crisp" d="M0,168v5" transform="translate(147.45,0)" style="stroke: rgb(68, 68, 68); stroke-opacity: 1; stroke-width: 1px;"/><path class="xtick ticks crisp" d="M0,168v5" transform="translate(218.49,0)" style="stroke: rgb(68, 68, 68); stroke-opacity: 1; stroke-width: 1px;"/><g class="xtick"><text text-anchor="middle" x="0" y="187.4" transform="translate(76.41,0)" style="font-family: 'Open Sans', verdana, arial, sans-serif; font-size: 12px; fill: rgb(36, 36, 36); fill-opacity: 1; white-space: pre; opacity: 1;">1900</text></g><g class="xtick"><text text-anchor="middle" x="0" y="187.4" style="font-family: 'Open Sans', verdana, arial, sans-serif; font-size: 12px; fill: rgb(36, 36, 36); fill-opacity: 1; white-space: pre; opacity: 1;" transform="translate(147.45,0)">1950</text></g><g class="xtick"><text text-anchor="middle" x="0" y="187.4" style="font-family: 'Open Sans', verdana, arial, sans-serif; font-size: 12px; fill: rgb(36, 36, 36); fill-opacity: 1; white-space: pre; opacity: 1;" transform="translate(218.49,0)">2000</text></g></g><g class="yaxislayer-above"><path class="ytick ticks crisp" d="M47,0h-5" transform="translate(0,160.49)" style="stroke: rgb(68, 68, 68); stroke-opacity: 1; stroke-width: 1px;"/><path class="ytick ticks crisp" d="M47,0h-5" transform="translate(0,102.99)" style="stroke: rgb(68, 68, 68); stroke-opacity: 1; stroke-width: 1px;"/><path class="ytick ticks crisp" d="M47,0h-5" transform="translate(0,45.5)" style="stroke: rgb(68, 68, 68); stroke-opacity: 1; stroke-width: 1px;"/><g class="ytick"><text text-anchor="end" x="39.6" y="4.199999999999999" transform="translate(0,160.49)" style="font-family: 'Open Sans', verdana, arial, sans-serif; font-size: 12px; fill: rgb(36, 36, 36); fill-opacity: 1; white-space: pre; opacity: 1;">0</text></g><g class="ytick"><text text-anchor="end" x="39.6" y="4.199999999999999" style="font-family: 'Open Sans', verdana, arial, sans-serif; font-size: 12px; fill: rgb(36, 36, 36); fill-opacity: 1; white-space: pre; opacity: 1;" transform="translate(0,102.99)">50k</text></g><g class="ytick"><text text-anchor="end" x="39.6" y="4.199999999999999" style="font-family: 'Open Sans', verdana, arial, sans-serif; font-size: 12px; fill: rgb(36, 36, 36); fill-opacity: 1; white-space: pre; opacity: 1;" transform="translate(0,45.5)">100k</text></g></g><g class="overaxes-above"/></g><g class="subplot x2y2"><g class="layer-subplot"><g class="shapelayer"/><g class="imagelayer"/></g><g class="minor-gridlayer"><g class="x2"/><g class="y2"/></g><g class="gridlayer"><g class="x2"><path class="x2grid crisp" transform="translate(319.51000000000005,0)" d="M0,30v137" style="stroke: rgb(232, 232, 232); stroke-opacity: 1; stroke-width: 1px;"/><path class="x2grid crisp" transform="translate(390.55,0)" d="M0,30v137" style="stroke: rgb(232, 232, 232); stroke-opacity: 1; stroke-width: 1px;"/><path class="x2grid crisp" transform="translate(461.59000000000003,0)" d="M0,30v137" style="stroke: rgb(232, 232, 232); stroke-opacity: 1; stroke-width: 1px;"/></g><g class="y2"><path class="y2grid crisp" transform="translate(0,165.23)" d="M291.1,0h198.89999999999998" style="stroke: rgb(232, 232, 232); stroke-opacity: 1; stroke-width: 1px;"/><path class="y2grid crisp" transform="translate(0,128.43)" d="M291.1,0h198.89999999999998" style="stroke: rgb(232, 232, 232); stroke-opacity: 1; stroke-width: 1px;"/><path class="y2grid crisp" transform="translate(0,91.64)" d="M291.1,0h198.89999999999998" style="stroke: rgb(232, 232, 232); stroke-opacity: 1; stroke-width: 1px;"/><path class="y2grid crisp" transform="translate(0,54.84)" d="M291.1,0h198.89999999999998" style="stroke: rgb(232, 232, 232); stroke-opacity: 1; stroke-width: 1px;"/></g></g><g class="zerolinelayer"/><path class="xlines-below"/><path class="ylines-below"/><g class="overlines-below"/><g class="xaxislayer-below"/><g class="yaxislayer-below"/><g class="overaxes-below"/><g class="plot" transform="translate(291.1,30)" clip-path="url(#clipc25d11x2y2plot)"><g class="scatterlayer mlayer"><g class="trace scatter traceefc283" style="stroke-miterlimit: 2; opacity: 1;"><g class="fills"/><g class="errorbars"/><g class="lines"><path class="js-line" d="M0,129.34L1.42,130.15L2.84,128.6L7.1,129.45L8.52,128.86L9.94,129.01L11.37,127.43L12.79,129.16L14.21,129.12L15.63,129.3L17.05,127.94L18.47,127.76L19.89,128.68L24.15,129.38L25.57,128.57L26.99,129.3L28.41,127.65L29.84,129.05L31.26,129.38L35.52,128.24L36.94,128.24L39.78,125.37L41.2,125.33L42.62,122.17L44.04,121.69L45.46,107.04L46.88,104.1L49.72,84.49L51.15,84.34L53.99,82.32L55.41,86.25L58.25,85.7L59.67,87.5L62.51,93.13L63.93,94.61L65.35,96.3L66.77,100.82L68.19,102.81L69.61,103.47L71.04,104.65L72.46,108.26L73.88,108.62L75.3,114.66L76.72,113.74L78.14,114.11L79.56,115.06L80.98,114.25L83.82,115.17L85.24,113.11L88.08,113.11L89.5,111.72L92.35,116.94L93.77,114.44L95.19,112.27L96.61,114.33L98.03,114.44L99.45,115.95L100.87,115.95L102.29,117.23L105.13,112.89L106.55,112.38L107.97,115.91L109.39,112.93L110.82,116.57L112.24,115.91L113.66,116.32L115.08,118.74L116.5,118.67L117.92,116.46L119.34,116.43L120.76,118.04L125.02,120.8L126.44,120.36L129.28,119.63L130.71,121.02L132.13,121.61L133.55,121.02L134.97,121.76L136.39,120.99L137.81,117.35L139.23,117.09L143.49,113.96L144.91,113.41L146.33,112.34L147.75,114.29L150.6,116.54L152.02,114.29L154.86,113.3L156.28,110.72L159.12,112.93L160.54,116.54L161.96,117.71L163.38,116.02L164.8,115.65L166.22,113.74L167.64,114.14L169.07,113.56L170.49,110.83L171.91,105.2L176.17,99.43L177.59,93.87L180.43,79.52L181.85,77.79L184.69,83.57L186.11,82.21L187.53,81.29L188.95,73.82L191.8,43.83L193.22,36.95L196.06,26.9L197.48,13.07L198.9,6.85" style="vector-effect: none; fill: none; stroke: rgb(31, 119, 180); stroke-opacity: 1; stroke-width: 2px; opacity: 1;"/></g><g class="points"/><g class="text"/></g></g></g><g class="overplot"/><path class="xlines-above crisp" d="M290.1,167.5H490" style="fill: none; stroke-width: 1px; stroke: rgb(36, 36, 36); stroke-opacity: 1;"/><path class="ylines-above crisp" d="M290.6,30V167" style="fill: none; stroke-width: 1px; stroke: rgb(36, 36, 36); stroke-opacity: 1;"/><g class="overlines-above"/><g class="xaxislayer-above"><path class="x2tick ticks crisp" d="M0,168v5" transform="translate(319.51000000000005,0)" style="stroke: rgb(68, 68, 68); stroke-opacity: 1; stroke-width: 1px;"/><path class="x2tick ticks crisp" d="M0,168v5" transform="translate(390.55,0)" style="stroke: rgb(68, 68, 68); stroke-opacity: 1; stroke-width: 1px;"/><path class="x2tick ticks crisp" d="M0,168v5" transform="translate(461.59000000000003,0)" style="stroke: rgb(68, 68, 68); stroke-opacity: 1; stroke-width: 1px;"/><g class="x2tick"><text text-anchor="middle" x="0" y="187.4" transform="translate(319.51000000000005,0)" style="font-family: 'Open Sans', verdana, arial, sans-serif; font-size: 12px; fill: rgb(36, 36, 36); fill-opacity: 1; white-space: pre; opacity: 1;">1900</text></g><g class="x2tick"><text text-anchor="middle" x="0" y="187.4" style="font-family: 'Open Sans', verdana, arial, sans-serif; font-size: 12px; fill: rgb(36, 36, 36); fill-opacity: 1; white-space: pre; opacity: 1;" transform="translate(390.55,0)">1950</text></g><g class="x2tick"><text text-anchor="middle" x="0" y="187.4" style="font-family: 'Open Sans', verdana, arial, sans-serif; font-size: 12px; fill: rgb(36, 36, 36); fill-opacity: 1; white-space: pre; opacity: 1;" transform="translate(461.59000000000003,0)">2000</text></g></g><g class="yaxislayer-above"><path class="y2tick ticks crisp" d="M290.1,0h-5" transform="translate(0,165.23)" style="stroke: rgb(68, 68, 68); stroke-opacity: 1; stroke-width: 1px;"/><path class="y2tick ticks crisp" d="M290.1,0h-5" transform="translate(0,128.43)" style="stroke: rgb(68, 68, 68); stroke-opacity: 1; stroke-width: 1px;"/><path class="y2tick ticks crisp" d="M290.1,0h-5" transform="translate(0,91.64)" style="stroke: rgb(68, 68, 68); stroke-opacity: 1; stroke-width: 1px;"/><path class="y2tick ticks crisp" d="M290.1,0h-5" transform="translate(0,54.84)" style="stroke: rgb(68, 68, 68); stroke-opacity: 1; stroke-width: 1px;"/><g class="y2tick"><text text-anchor="end" x="282.70000000000005" y="4.199999999999999" transform="translate(0,165.23)" style="font-family: 'Open Sans', verdana, arial, sans-serif; font-size: 12px; fill: rgb(36, 36, 36); fill-opacity: 1; white-space: pre; opacity: 1;">0</text></g><g class="y2tick"><text text-anchor="end" x="282.70000000000005" y="4.199999999999999" style="font-family: 'Open Sans', verdana, arial, sans-serif; font-size: 12px; fill: rgb(36, 36, 36); fill-opacity: 1; white-space: pre; opacity: 1;" transform="translate(0,128.43)">1000</text></g><g class="y2tick"><text text-anchor="end" x="282.70000000000005" y="4.199999999999999" style="font-family: 'Open Sans', verdana, arial, sans-serif; font-size: 12px; fill: rgb(36, 36, 36); fill-opacity: 1; white-space: pre; opacity: 1;" transform="translate(0,91.64)">2000</text></g><g class="y2tick"><text text-anchor="end" x="282.70000000000005" y="4.199999999999999" style="font-family: 'Open Sans', verdana, arial, sans-serif; font-size: 12px; fill: rgb(36, 36, 36); fill-opacity: 1; white-space: pre; opacity: 1;" transform="translate(0,54.84)">3000</text></g></g><g class="overaxes-above"/></g></g><g class="polarlayer"/><g class="smithlayer"/><g class="ternarylayer"/><g class="geolayer"/><g class="funnelarealayer"/><g class="pielayer"/><g class="iciclelayer"/><g class="treemaplayer"/><g class="sunburstlayer"/><g class="glimages"/><defs id="topdefs-c25d11"><g class="clips"/></defs><g class="layer-above"><g class="imagelayer"/><g class="shapelayer"/></g><g class="infolayer"><g class="g-gtitle"/><g class="g-xtitle"/><g class="g-x2title"/><g class="g-ytitle"/><g class="g-y2title"/><g class="annotation" data-index="0" style="opacity: 1;"><g class="annotation-text-g" transform="rotate(0,147.45,17.999999999999996)"><g class="cursor-pointer" transform="translate(85,6)"><rect class="bg" x="0.5" y="0.5" width="124" height="23" style="stroke-width: 1px; stroke: rgb(0, 0, 0); stroke-opacity: 0; fill: rgb(0, 0, 0); fill-opacity: 0;"/><text class="annotation-text" text-anchor="middle" x="62.5625" y="18" style="font-family: 'Open Sans', verdana, arial, sans-serif; font-size: 16px; fill: rgb(36, 36, 36); fill-opacity: 1; white-space: pre;">Boomer names</text></g></g></g><g class="annotation" data-index="1" style="opacity: 1;"><g class="annotation-text-g" transform="rotate(0,390.55,17.999999999999996)"><g class="cursor-pointer" transform="translate(318,6)"><rect class="bg" x="0.5" y="0.5" width="144" height="23" style="stroke-width: 1px; stroke: rgb(0, 0, 0); stroke-opacity: 0; fill: rgb(0, 0, 0); fill-opacity: 0;"/><text class="annotation-text" text-anchor="middle" x="72.71875" y="18" style="font-family: 'Open Sans', verdana, arial, sans-serif; font-size: 16px; fill: rgb(36, 36, 36); fill-opacity: 1; white-space: pre;">Mythology names</text></g></g></g></g></svg>