<svg class="main-svg" xmlns="http://www.w3.org/2000/svg" xmlns:xlink="http://www.w3.org/1999/xlink" width="600" height="350" style="" viewBox="0 0 600 350"><rect x="0" y="0" width="600" height="350" style="fill: rgb(255, 255, 255); fill-opacity: 1;"/><defs id="defs-d30518"><g class="clips"><clipPath id="clipd30518xyplot" class="plotclip"><rect width="342" height="282"/></clipPath><clipPath class="axesclip" id="clipd30518x"><rect x="74" y="0" width="342" height="350"/></clipPath><clipPath class="axesclip" id="clipd30518y"><rect x="0" y="10" width="600" height="282"/></clipPath><clipPath class="axesclip" id="clipd30518xy"><rect x="74" y="10" width="342" height="282"/></clipPath></g><g class="gradients"/><g class="patterns"/></defs><g class="bglayer"/><g class="layer-below"><g class="imagelayer"/><g class="shapelayer"/></g><g class="cartesianlayer"><g class="subplot xy"><g class="layer-subplot"><g class="shapelayer"/><g class="imagelayer"/></g><g class="minor-gridlayer"><g class="x"/><g class="y"/></g><g class="gridlayer"><g class="x"><path class="xgrid crisp" transform="translate(129.16,0)" d="M0,10v282" style="stroke: rgb(232, 232, 232); stroke-opacity: 1; stroke-width: 1px;"/><path class="xgrid crisp" transform="translate(239.48,0)" d="M0,10v282" style="stroke: rgb(232, 232, 232); stroke-opacity: 1; stroke-width: 1px;"/><path class="xgrid crisp" transform="translate(349.81,0)" d="M0,10v282" style="stroke: rgb(232, 232, 232); stroke-opacity: 1; stroke-width: 1px;"/></g><g class="y"><path class="ygrid crisp" transform="translate(0,276.65)" d="M74,0h342" style="stroke: rgb(232, 232, 232); stroke-opacity: 1; stroke-width: 1px;"/><path class="ygrid crisp" transform="translate(0,258.85)" d="M74,0h342" style="stroke: rgb(232, 232, 232); stroke-opacity: 1; stroke-width: 1px;"/><path class="ygrid crisp" transform="translate(0,241.04)" d="M74,0h342" style="stroke: rgb(232, 232, 232); stroke-opacity: 1; stroke-width: 1px;"/><path class="ygrid crisp" transform="translate(0,217.51)" d="M74,0h342" style="stroke: rgb(232, 232, 232); stroke-opacity: 1; stroke-width: 1px;"/><path class="ygrid crisp" transform="translate(0,199.7)" d="M74,0h342" style="stroke: rgb(232, 232, 232); stroke-opacity: 1; stroke-width: 1px;"/><path class="ygrid crisp" transform="translate(0,181.9)" d="M74,0h342" style="stroke: rgb(232, 232, 232); stroke-opacity: 1; stroke-width: 1px;"/><path class="ygrid crisp" transform="translate(0,158.36)" d="M74,0h342" style="stroke: rgb(232, 232, 232); stroke-opacity: 1; stroke-width: 1px;"/><path class="ygrid crisp" transform="translate(0,140.56)" d="M74,0h342" style="stroke: rgb(232, 232, 232); stroke-opacity: 1; stroke-width: 1px;"/><path class="ygrid crisp" transform="translate(0,122.76)" d="M74,0h342" style="stroke: rgb(232, 232, 232); stroke-opacity: 1; stroke-width: 1px;"/><path class="ygrid crisp" transform="translate(0,99.22)" d="M74,0h342" style="stroke: rgb(232, 232, 232); stroke-opacity: 1; stroke-width: 1px;"/><path class="ygrid crisp" transform="translate(0,81.42)" d="M74,0h342" style="stroke: rgb(232, 232, 232); stroke-opacity: 1; stroke-width: 1px;"/><path class="ygrid crisp" transform="translate(0,63.61)" d="M74,0h342" style="stroke: rgb(232, 232, 232); stroke-opacity: 1; stroke-width: 1px;"/><path class="ygrid crisp" transform="translate(0,40.07)" d="M74,0h342" style="stroke: rgb(232, 232, 232); stroke-opacity: 1; stroke-width: 1px;"/><path class="ygrid crisp" transform="translate(0,22.27)" d="M74,0h342" style="stroke: rgb(232, 232, 232); stroke-opacity: 1; stroke-width: 1px;"/></g></g><g class="zerolinelayer"/><path class="xlines-below"/><path class="ylines-below"/><g class="overlines-below"/><g class="xaxislayer-below"/><g class="yaxislayer-below"/><g class="overaxes-below"/><g class="plot" transform="translate(74,10)" clip-path="url(#clipd30518xyplot)"><g class="scatterlayer mlayer"><g class="trace scatter trace32551f" style="stroke-miterlimit: 2; opacity: 1;"><g class="fills"/><g class="errorbars"/><g class="lines"><path class="js-line" d="M0,119.45L5.52,118.06L11.03,118.58L22.06,118.01L27.58,117.33L33.1,114.55L38.61,115.66L49.65,115.27L55.16,114.14L60.68,114.07L66.19,112.45L71.71,111.95L77.23,108.79L82.74,107.26L88.26,106.53L99.29,102.43L104.81,102.11L110.32,99.4L115.84,98.85L126.87,96.2L132.39,95.52L137.9,96.07L143.42,95.14L159.97,93.19L165.48,92.79L176.52,95.14L182.03,95.5L187.55,94.35L193.06,94.2L198.58,94.74L204.1,93.91L209.61,92.11L215.13,91.23L220.65,92.61L226.16,93L253.74,89.94L259.26,89.05L270.29,88.28L275.81,87.28L286.84,87.38L292.35,86.33L308.9,86.71L314.42,85.39L319.94,86.11L325.45,87.81L336.48,86.97L342,87.1" style="vector-effect: none; fill: none; stroke: rgb(31, 119, 180); stroke-opacity: 1; stroke-width: 2px; opacity: 1;"/></g><g class="points"/><g class="text"/></g><g class="trace scatter trace3be4c0" style="stroke-miterlimit: 2; opacity: 1;"><g class="fills"/><g class="errorbars"/><g class="lines"><path class="js-line" d="M0,136.73L11.03,124.17L16.55,123.02L27.58,113.95L33.1,110.74L38.61,106.38L44.13,87.95L49.65,79.81L55.16,77.79L60.68,86.7L66.19,92.5L77.23,92.7L82.74,90.51L88.26,88.1L93.77,92.92L99.29,90.89L104.81,85.55L110.32,78.1L115.84,76.29L126.87,73.69L132.39,73.18L137.9,69.36L143.42,68.17L154.45,61.76L159.97,61.23L171,61.85L176.52,60.77L182.03,59.39L187.55,57.22L198.58,54.82L204.1,52.91L209.61,50.97L215.13,50.08L220.65,49.47L226.16,48.09L231.68,46.72L237.19,44.56L242.71,43.33L248.23,41.07L264.77,39.93L270.29,40.55L275.81,38.46L281.32,37.63L286.84,36.02L292.35,32.18L303.39,25.67L308.9,23.22L314.42,21.45L319.94,20.75L330.97,17.49L336.48,14.97L342,14.1" style="vector-effect: none; fill: none; stroke: rgb(255, 127, 14); stroke-opacity: 1; stroke-dasharray: 9px, 3px, 3px, 3px; stroke-width: 2px; opacity: 1;"/></g><g class="points"/><g class="text"/></g><g class="trace scatter trace7a66f7" style="stroke-miterlimit: 2; opacity: 1;"><g class="fills"/><g class="errorbars"/><g class="lines"><path class="js-line" d="M0,88.67L5.52,85.54L11.03,84.07L16.55,83.55L22.06,82.1L27.58,79.73L33.1,78.25L38.61,77.86L44.13,78.58L49.65,78.6L55.16,76.7L60.68,76.05L66.19,74.6L71.71,72.85L77.23,72.22L93.77,73.1L99.29,71.8L104.81,70.11L110.32,70.75L115.84,71.33L121.35,70.68L126.87,69.48L132.39,70.13L137.9,71.48L143.42,70.03L148.94,70.41L154.45,69.45L159.97,68.32L165.48,69.47L176.52,71.33L182.03,71.29L193.06,70.58L198.58,70.52L215.13,71.49L220.65,72.24L237.19,74.16L242.71,74.47L248.23,74.54L253.74,73.75L270.29,75.67L275.81,75.73L281.32,75.24L286.84,75.63L297.87,76.09L303.39,76.6L308.9,76.18L314.42,77.21L319.94,76.99L325.45,78.89L330.97,77.59L336.48,78.44L342,78" style="vector-effect: none; fill: none; stroke: rgb(44, 160, 44); stroke-opacity: 1; stroke-dasharray: 9px, 9px; stroke-width: 2px; opacity: 1;"/></g><g class="points"/><g class="text"/></g><g class="trace scatter trace8be22a" style="stroke-miterlimit: 2; opacity: 1;"><g class="fills"/><g class="errorbars"/><g class="lines"><path class="js-line" d="M0,141L22.06,136.7L27.58,134.6L33.1,133.71L38.61,130.76L49.65,128.17L55.16,125.77L71.71,119.5L77.23,120.14L82.74,117.68L88.26,116.81L93.77,116.83L99.29,114.65L110.32,113.6L115.84,111.72L121.35,110.71L126.87,110.76L143.42,105.24L148.94,104.77L154.45,106.11L159.97,104.14L165.48,102.67L171,99.89L198.58,90.61L204.1,88.78L231.68,81.06L237.19,80.25L259.26,74.18L264.77,73.74L275.81,70.66L281.32,70.21L292.35,68.61L297.87,66.73L308.9,63.43L314.42,61.16L319.94,59.71L325.45,56.61L342,52.66" style="vector-effect: none; fill: none; stroke: rgb(214, 39, 40); stroke-opacity: 1; stroke-dasharray: 3px, 3px; stroke-width: 2px; opacity: 1;"/></g><g class="points"/><g class="text"/></g><g class="trace scatter tracebbc88c" style="stroke-miterlimit: 2; opacity: 1;"><g class="fills"/><g class="errorbars"/><g class="lines"><path class="js-line" d="M0,5922L5.509330600631216,5922.000000000466L5.52,199.18L11.03,212.65L16.55,214.39L22.06,247.65L27.58,212.15L33.1,189.57L38.61,182.69L44.13,178.68L49.65,180.4L55.16,166.49L60.68,169.31L66.19,169.85L71.71,167.81L77.23,164.22L82.74,163.12L88.26,161.11L93.77,159.9L99.29,153.28L104.81,153.98L110.32,145.47L115.84,152.19L121.35,149.52L126.87,144.73L132.39,141.85L148.94,131.73L154.45,131.22L165.48,127.75L171,127.92L176.52,122.97L182.03,119.67L187.55,119.82L193.06,117.93L198.58,119.99L204.1,118.29L209.61,118.1L215.13,116.1L220.65,114.38L226.16,109.68L231.68,107.71L237.19,108.04L242.71,105.07L248.23,104.04L264.77,101.9L270.29,99.66L292.35,95.1L297.87,93.2L314.42,87.35L319.94,86.74L325.45,85.89L330.97,86.02L342,84.8" style="vector-effect: none; fill: none; stroke: rgb(148, 103, 189); stroke-opacity: 1; stroke-width: 2px; opacity: 1;"/></g><g class="points"/><g class="text"/></g><g class="trace scatter tracef9b0a9" style="stroke-miterlimit: 2; opacity: 1;"><g class="fills"/><g class="errorbars"/><g class="lines"><path class="js-line" d="M0,129.91L5.52,125.14L11.03,123.73L16.55,120.87L22.06,121.45L27.58,121.57L33.1,118.38L38.61,114.33L44.13,115.29L49.65,113.71L55.16,108.88L60.68,103.85L66.19,102.95L77.23,97.73L82.74,95.83L88.26,93.73L93.77,89.77L104.81,82.35L110.32,78.19L121.35,76.16L126.87,72.83L132.39,73.25L137.9,74.44L148.94,72.79L154.45,72.75L159.97,72.07L165.48,73.43L176.52,74.9L182.03,74.7L187.55,73.07L193.06,73.71L204.1,73.57L209.61,71.65L215.13,70.91L220.65,68.99L237.19,68.66L242.71,67.43L259.26,66.88L264.77,67.68L275.81,66.5L281.32,66.85L292.35,66.01L297.87,66L314.42,65.42L319.94,67.28L325.45,68.68L330.97,67.61L342,65.7" style="vector-effect: none; fill: none; stroke: rgb(140, 86, 75); stroke-opacity: 1; stroke-dasharray: 9px, 3px, 3px, 3px; stroke-width: 2px; opacity: 1;"/></g><g class="points"/><g class="text"/></g><g class="trace scatter trace33090b" style="stroke-miterlimit: 2; opacity: 1;"><g class="fills"/><g class="errorbars"/><g class="lines"><path class="js-line" d="M0,228.74L5.52,221.29L11.03,216.95L16.55,209.15L22.06,206.7L27.58,200.99L33.1,196.91L44.13,192.39L49.65,186.74L60.68,180.25L66.19,175.68L71.71,170.54L77.23,169.21L82.74,166.18L88.26,161.49L93.77,157.44L99.29,155.95L104.81,152.55L110.32,146.51L121.35,144.91L126.87,139.23L132.39,137.89L137.9,135.72L159.97,124.17L165.48,123.4L171,122.44L176.52,122.29L187.55,118.64L193.06,117.94L204.1,115.64L209.61,112.27L215.13,110.82L220.65,107.43L237.19,100.07L242.71,98.07L253.74,94.14L259.26,92.62L264.77,96.68L270.29,94.36L275.81,91.18L281.32,90.37L292.35,90.31L297.87,89.31L308.9,89.04L314.42,88.39L325.45,87.21L330.97,85.05L336.48,83.94L342,83.81" style="vector-effect: none; fill: none; stroke: rgb(227, 119, 194); stroke-opacity: 1; stroke-dasharray: 9px, 9px; stroke-width: 2px; opacity: 1;"/></g><g class="points"/><g class="text"/></g><g class="trace scatter trace67b2ea" style="stroke-miterlimit: 2; opacity: 1;"><g class="fills"/><g class="errorbars"/><g class="lines"><path class="js-line" d="M0,93.83L11.03,90.01L16.55,88.56L22.06,86.29L27.58,83.06L44.13,76.71L49.65,75.42L66.19,72.35L71.71,70.56L93.77,64.91L99.29,64.2L115.84,60.55L121.35,59.22L154.45,53.3L159.97,52.95L165.48,51.95L171,52.44L187.55,51.3L193.06,49.36L198.58,49.28L204.1,48.21L209.61,47.59L215.13,48.14L220.65,50.9L226.16,51.01L237.19,55.57L242.71,58.86L253.74,60.31L259.26,62.05L264.77,62.24L270.29,61.51L281.32,60.73L286.84,60.75L297.87,60.04L303.39,59.95L308.9,59L314.42,58.92L319.94,58.59L325.45,60.4L336.48,57.59L342,57.46" style="vector-effect: none; fill: none; stroke: rgb(127, 127, 127); stroke-opacity: 1; stroke-dasharray: 3px, 3px; stroke-width: 2px; opacity: 1;"/></g><g class="points"/><g class="text"/></g><g class="trace scatter trace79c600" style="stroke-miterlimit: 2; opacity: 1;"><g class="fills"/><g class="errorbars"/><g class="lines"><path class="js-line" d="M0,206.8L0.02129113779375067,5922L16.53945847481439,5922L16.55,267.9L22.06,243.36L27.58,229.62L33.1,236.29L38.61,229.8L44.13,217.72L49.65,232.99L55.16,223.58L60.68,216.2L66.19,201.77L71.71,199.07L77.23,198.71L82.74,211.88L88.26,201.13L93.77,199.6L104.81,185.71L110.32,176.49L115.84,182.78L121.35,179.41L126.87,174.52L132.39,170.99L137.9,168.25L143.42,164.29L148.94,157.21L154.45,146.42L159.97,138.07L165.48,116.87L171,117.21L176.52,116.43L182.03,116.35L187.55,119.45L193.06,123.36L198.58,121.82L209.61,117.77L215.13,117.79L220.65,117.46L226.16,114.47L231.68,112.68L237.19,111.76L242.71,110.36L248.23,109.9L253.74,108.54L259.26,110.67L264.77,108.95L270.29,108.48L292.35,104.1L297.87,102.6L314.42,98.55L319.94,96.45L325.45,95.16L330.97,92.74L342,90.26" style="vector-effect: none; fill: none; stroke: rgb(188, 189, 34); stroke-opacity: 1; stroke-width: 2px; opacity: 1;"/></g><g class="points"/><g class="text"/></g><g class="trace scatter traceb2d330" style="stroke-miterlimit: 2; opacity: 1;"><g class="fills"/><g class="errorbars"/><g class="lines"><path class="js-line" d="M0,47.95L5.52,47.17L11.03,47.89L16.55,47.25L22.06,48.46L27.58,46.09L33.1,44.91L44.13,45.84L49.65,45.03L66.19,43.52L71.71,42.39L104.81,35.85L110.32,33.95L115.84,33.78L121.35,32.38L126.87,31.46L132.39,32.3L137.9,33.4L143.42,31.87L148.94,30.84L154.45,30.74L159.97,30.55L165.48,31.65L171,32.03L176.52,33.36L182.03,33.52L187.55,32.42L204.1,31.6L209.61,30.48L220.65,30.53L226.16,30.71L248.23,29.1L253.74,28.29L259.26,27.45L264.77,27.5L303.39,26.13L308.9,26.52L314.42,26.18L319.94,26.99L325.45,28.95L330.97,27.77L342,29.45" style="vector-effect: none; fill: none; stroke: rgb(23, 190, 207); stroke-opacity: 1; stroke-dasharray: 9px, 3px, 3px, 3px; stroke-width: 2px; opacity: 1;"/></g><g class="points"/><g class="text"/></g></g></g><g class="overplot"/><path class="xlines-above crisp" d="M73,292.5H416" style="fill: none; stroke-width: 1px; stroke: rgb(36, 36, 36); stroke-opacity: 1;"/><path class="ylines-above crisp" d="M73.5,10V292" style="fill: none; stroke-width: 1px; stroke: rgb(36, 36, 36); stroke-opacity: 1;"/><g class="overlines-above"/><g class="xaxislayer-above"><path class="xtick ticks crisp" d="M0,293v5" transform="translate(129.16,0)" style="stroke: rgb(68, 68, 68); stroke-opacity: 1; stroke-width: 1px;"/><path class="xtick ticks crisp" d="M0,293v5" transform="translate(239.48,0)" style="stroke: rgb(68, 68, 68); stroke-opacity: 1; stroke-width: 1px;"/><path class="xtick ticks crisp" d="M0,293v5" transform="translate(349.81,0)" style="stroke: rgb(68, 68, 68); stroke-opacity: 1; stroke-width: 1px;"/><g class="xtick"><text text-anchor="middle" x="0" y="312.4" transform="translate(129.16,0)" style="font-family: 'Open Sans', verdana, arial, sans-serif; font-size: 12px; fill: rgb(36, 36, 36); fill-opacity: 1; white-space: pre; opacity: 1;">1960</text></g><g class="xtick"><text text-anchor="middle" x="0" y="312.4" style="font-family: 'Open Sans', verdana, arial, sans-serif; font-size: 12px; fill: rgb(36, 36, 36); fill-opacity: 1; white-space: pre; opacity: 1;" transform="translate(239.48,0)">1980</text></g><g class="xtick"><text text-anchor="middle" x="0" y="312.4" style="font-family: 'Open Sans', verdana, arial, sans-serif; font-size: 12px; fill: rgb(36, 36, 36); fill-opacity: 1; white-space: pre; opacity: 1;" transform="translate(349.81,0)">2000</text></g></g><g class="yaxislayer-above"><path class="ytick ticks crisp" d="M73,0h-5" transform="translate(0,276.65)" style="stroke: rgb(68, 68, 68); stroke-opacity: 1; stroke-width: 1px;"/><path class="ytick ticks crisp" d="M73,0h-5" transform="translate(0,258.85)" style="stroke: rgb(68, 68, 68); stroke-opacity: 1; stroke-width: 1px;"/><path class="ytick ticks crisp" d="M73,0h-5" transform="translate(0,241.04)" style="stroke: rgb(68, 68, 68); stroke-opacity: 1; stroke-width: 1px;"/><path class="ytick ticks crisp" d="M73,0h-5" transform="translate(0,217.51)" style="stroke: rgb(68, 68, 68); stroke-opacity: 1; stroke-width: 1px;"/><path class="ytick ticks crisp" d="M73,0h-5" transform="translate(0,199.7)" style="stroke: rgb(68, 68, 68); stroke-opacity: 1; stroke-width: 1px;"/><path class="ytick ticks crisp" d="M73,0h-5" transform="translate(0,181.9)" style="stroke: rgb(68, 68, 68); stroke-opacity: 1; stroke-width: 1px;"/><path class="ytick ticks crisp" d="M73,0h-5" transform="translate(0,158.36)" style="stroke: rgb(68, 68, 68); stroke-opacity: 1; stroke-width: 1px;"/><path class="ytick ticks crisp" d="M73,0h-5" transform="translate(0,140.56)" style="stroke: rgb(68, 68, 68); stroke-opacity: 1; stroke-width: 1px;"/><path class="ytick ticks crisp" d="M73,0h-5" transform="translate(0,122.76)" style="stroke: rgb(68, 68, 68); stroke-opacity: 1; stroke-width: 1px;"/><path class="ytick ticks crisp" d="M73,0h-5" transform="translate(0,99.22)" style="stroke: rgb(68, 68, 68); stroke-opacity: 1; stroke-width: 1px;"/><path class="ytick ticks crisp" d="M73,0h-5" transform="translate(0,81.42)" style="stroke: rgb(68, 68, 68); stroke-opacity: 1; stroke-width: 1px;"/><path class="ytick ticks crisp" d="M73,0h-5" transform="translate(0,63.61)" style="stroke: rgb(68, 68, 68); stroke-opacity: 1; stroke-width: 1px;"/><path class="ytick ticks crisp" d="M73,0h-5" transform="translate(0,40.07)" style="stroke: rgb(68, 68, 68); stroke-opacity: 1; stroke-width: 1px;"/><path class="ytick ticks crisp" d="M73,0h-5" transform="translate(0,22.27)" style="stroke: rgb(68, 68, 68); stroke-opacity: 1; stroke-width: 1px;"/><g class="ytick"><text text-anchor="end" x="65.6" y="3.15" transform="translate(0,276.65)" style="font-family: 'Open Sans', verdana, arial, sans-serif; font-size: 9px; fill: rgb(36, 36, 36); fill-opacity: 1; white-space: pre; opacity: 1;">5</text></g><g class="ytick"><text text-anchor="end" x="65.6" y="4.199999999999999" style="font-family: 'Open Sans', verdana, arial, sans-serif; font-size: 12px; fill: rgb(36, 36, 36); fill-opacity: 1; white-space: pre; opacity: 1;" transform="translate(0,258.85)">1</text></g><g class="ytick"><text text-anchor="end" x="65.6" y="3.15" style="font-family: 'Open Sans', verdana, arial, sans-serif; font-size: 9px; fill: rgb(36, 36, 36); fill-opacity: 1; white-space: pre; opacity: 1;" transform="translate(0,241.04)">2</text></g><g class="ytick"><text text-anchor="end" x="65.6" y="3.15" style="font-family: 'Open Sans', verdana, arial, sans-serif; font-size: 9px; fill: rgb(36, 36, 36); fill-opacity: 1; white-space: pre; opacity: 1;" transform="translate(0,217.51)">5</text></g><g class="ytick"><text text-anchor="end" x="65.6" y="4.199999999999999" style="font-family: 'Open Sans', verdana, arial, sans-serif; font-size: 12px; fill: rgb(36, 36, 36); fill-opacity: 1; white-space: pre; opacity: 1;" transform="translate(0,199.7)">10</text></g><g class="ytick"><text text-anchor="end" x="65.6" y="3.15" style="font-family: 'Open Sans', verdana, arial, sans-serif; font-size: 9px; fill: rgb(36, 36, 36); fill-opacity: 1; white-space: pre; opacity: 1;" transform="translate(0,181.9)">2</text></g><g class="ytick"><text text-anchor="end" x="65.6" y="3.15" style="font-family: 'Open Sans', verdana, arial, sans-serif; font-size: 9px; fill: rgb(36, 36, 36); fill-opacity: 1; white-space: pre; opacity: 1;" transform="translate(0,158.36)">5</text></g><g class="ytick"><text text-anchor="end" x="65.6" y="4.199999999999999" style="font-family: 'Open Sans', verdana, arial, sans-serif; font-size: 12px; fill: rgb(36, 36, 36); fill-opacity: 1; white-space: pre; opacity: 1;" transform="translate(0,140.56)">100</text></g><g class="ytick"><text text-anchor="end" x="65.6" y="3.15" style="font-family: 'Open Sans', verdana, arial, sans-serif; font-size: 9px; fill: rgb(36, 36, 36); fill-opacity: 1; white-space: pre; opacity: 1;" transform="translate(0,122.76)">2</text></g><g class="ytick"><text text-anchor="end" x="65.6" y="3.15" style="font-family: 'Open Sans', verdana, arial, sans-serif; font-size: 9px; fill: rgb(36, 36, 36); fill-opacity: 1; white-space: pre; opacity: 1;" transform="translate(0,99.22)">5</text></g><g class="ytick"><text text-anchor="end" x="65.6" y="4.199999999999999" style="font-family: 'Open Sans', verdana, arial, sans-serif; font-size: 12px; fill: rgb(36, 36, 36); fill-opacity: 1; white-space: pre; opacity: 1;" transform="translate(0,81.42)">1000</text></g><g class="ytick"><text text-anchor="end" x="65.6" y="3.15" style="font-family: 'Open Sans', verdana, arial, sans-serif; font-size: 9px; fill: rgb(36, 36, 36); fill-opacity: 1; white-space: pre; opacity: 1;" transform="translate(0,63.61)">2</text></g><g class="ytick"><text text-anchor="end" x="65.6" y="3.15" style="font-family: 'Open Sans', verdana, arial, sans-serif; font-size: 9px; fill: rgb(36, 36, 36); fill-opacity: 1; white-space: pre; opacity: 1;" transform="translate(0,40.07)">5</text></g><g class="ytick"><text text-anchor="end" x="65.6" y="4.199999999999999" style="font-family: 'Open Sans', verdana, arial, sans-serif; font-size: 12px; fill: rgb(36, 36, 36); fill-opacity: 1; white-space: pre; opacity: 1;" transform="translate(0,22.27)">10k</text></g></g><g class="overaxes-above"/></g></g><g class="polarlayer"/><g class="smithlayer"/><g class="ternarylayer"/><g class="geolayer"/><g class="funnelarealayer"/><g class="pielayer"/><g class="iciclelayer"/><g class="treemaplayer"/><g class="sunburstlayer"/><g class="glimages"/><defs id="topdefs-d30518"><g class="clips"/><clipPath id="legendd30518"><rect width="167" height="219" x="0" y="0"/></clipPath></defs><g class="layer-above"><g class="imagelayer"/><g class="shapelayer"/></g><g class="infolayer"><g class="legend" pointer-events="all" transform="translate(422.84000000000003,10)"><rect class="bg" shape-rendering="crispEdges" width="167" height="219" x="0" y="0" style="stroke: rgb(68, 68, 68); stroke-opacity: 1; fill: rgb(255, 255, 255); fill-opacity: 1; stroke-width: 0px;"/><g class="scrollbox" transform="" clip-path="url(#legendd30518)"><text class="legendtitletext" text-anchor="start" x="2" y="18.2" style="font-family: 'Open Sans', verdana, arial, sans-serif; font-size: 14px; fill: rgb(36, 36, 36); fill-opacity: 1; white-space: pre;">Country</text><g class="groups" transform=""><g class="traces" transform="translate(0,32.7)" style="opacity: 1;"><text class="legendtext" text-anchor="start" x="40" y="4.680000000000001" style="font-family: 'Open Sans', verdana, arial, sans-serif; font-size: 12px; fill: rgb(36, 36, 36); fill-opacity: 1; white-space: pre;">Canada</text><g class="layers" style="opacity: 1;"><g class="legendfill"/><g class="legendlines"><path class="js-line" d="M5,0h30" style="fill: none; stroke: rgb(31, 119, 180); stroke-opacity: 1; stroke-width: 2px;"/></g><g class="legendsymbols"><g class="legendpoints"/></g></g><rect class="legendtoggle" x="0" y="-9.5" width="161.515625" height="19" style="fill: rgb(0, 0, 0); fill-opacity: 0;"/></g></g><g class="groups" transform=""><g class="traces" transform="translate(0,51.7)" style="opacity: 1;"><text class="legendtext" text-anchor="start" x="40" y="4.680000000000001" style="font-family: 'Open Sans', verdana, arial, sans-serif; font-size: 12px; fill: rgb(36, 36, 36); fill-opacity: 1; white-space: pre;">China</text><g class="layers" style="opacity: 1;"><g class="legendfill"/><g class="legendlines"><path class="js-line" d="M5,0h30" style="fill: none; stroke: rgb(255, 127, 14); stroke-opacity: 1; stroke-dasharray: 9px, 3px, 3px, 3px; stroke-width: 2px;"/></g><g class="legendsymbols"><g class="legendpoints"/></g></g><rect class="legendtoggle" x="0" y="-9.5" width="161.515625" height="19" style="fill: rgb(0, 0, 0); fill-opacity: 0;"/></g></g><g class="groups" transform=""><g class="traces" transform="translate(0,70.7)" style="opacity: 1;"><text class="legendtext" text-anchor="start" x="40" y="4.680000000000001" style="font-family: 'Open Sans', verdana, arial, sans-serif; font-size: 12px; fill: rgb(36, 36, 36); fill-opacity: 1; white-space: pre;">Germany</text><g class="layers" style="opacity: 1;"><g class="legendfill"/><g class="legendlines"><path class="js-line" d="M5,0h30" style="fill: none; stroke: rgb(44, 160, 44); stroke-opacity: 1; stroke-dasharray: 9px, 9px; stroke-width: 2px;"/></g><g class="legendsymbols"><g class="legendpoints"/></g></g><rect class="legendtoggle" x="0" y="-9.5" width="161.515625" height="19" style="fill: rgb(0, 0, 0); fill-opacity: 0;"/></g></g><g class="groups" transform=""><g class="traces" transform="translate(0,89.7)" style="opacity: 1;"><text class="legendtext" text-anchor="start" x="40" y="4.680000000000001" style="font-family: 'Open Sans', verdana, arial, sans-serif; font-size: 12px; fill: rgb(36, 36, 36); fill-opacity: 1; white-space: pre;">India</text><g class="layers" style="opacity: 1;"><g class="legendfill"/><g class="legendlines"><path class="js-line" d="M5,0h30" style="fill: none; stroke: rgb(214, 39, 40); stroke-opacity: 1; stroke-dasharray: 3px, 3px; stroke-width: 2px;"/></g><g class="legendsymbols"><g class="legendpoints"/></g></g><rect class="legendtoggle" x="0" y="-9.5" width="161.515625" height="19" style="fill: rgb(0, 0, 0); fill-opacity: 0;"/></g></g><g class="groups" transform=""><g class="traces" transform="translate(0,108.7)" style="opacity: 1;"><text class="legendtext" text-anchor="start" x="40" y="4.680000000000001" style="font-family: 'Open Sans', verdana, arial, sans-serif; font-size: 12px; fill: rgb(36, 36, 36); fill-opacity: 1; white-space: pre;">Iran</text><g class="layers" style="opacity: 1;"><g class="legendfill"/><g class="legendlines"><path class="js-line" d="M5,0h30" style="fill: none; stroke: rgb(148, 103, 189); stroke-opacity: 1; stroke-width: 2px;"/></g><g class="legendsymbols"><g class="legendpoints"/></g></g><rect class="legendtoggle" x="0" y="-9.5" width="161.515625" height="19" style="fill: rgb(0, 0, 0); fill-opacity: 0;"/></g></g><g class="groups" transform=""><g class="traces" transform="translate(0,127.7)" style="opacity: 1;"><text class="legendtext" text-anchor="start" x="40" y="4.680000000000001" style="font-family: 'Open Sans', verdana, arial, sans-serif; font-size: 12px; fill: rgb(36, 36, 36); fill-opacity: 1; white-space: pre;">Japan</text><g class="layers" style="opacity: 1;"><g class="legendfill"/><g class="legendlines"><path class="js-line" d="M5,0h30" style="fill: none; stroke: rgb(140, 86, 75); stroke-opacity: 1; stroke-dasharray: 9px, 3px, 3px, 3px; stroke-width: 2px;"/></g><g class="legendsymbols"><g class="legendpoints"/></g></g><rect class="legendtoggle" x="0" y="-9.5" width="161.515625" height="19" style="fill: rgb(0, 0, 0); fill-opacity: 0;"/></g></g><g class="groups" transform=""><g class="traces" transform="translate(0,146.7)" style="opacity: 1;"><text class="legendtext" text-anchor="start" x="40" y="4.680000000000001" style="font-family: 'Open Sans', verdana, arial, sans-serif; font-size: 12px; fill: rgb(36, 36, 36); fill-opacity: 1; white-space: pre;">Korea, Rep. (South)</text><g class="layers" style="opacity: 1;"><g class="legendfill"/><g class="legendlines"><path class="js-line" d="M5,0h30" style="fill: none; stroke: rgb(227, 119, 194); stroke-opacity: 1; stroke-dasharray: 9px, 9px; stroke-width: 2px;"/></g><g class="legendsymbols"><g class="legendpoints"/></g></g><rect class="legendtoggle" x="0" y="-9.5" width="161.515625" height="19" style="fill: rgb(0, 0, 0); fill-opacity: 0;"/></g></g><g class="groups" transform=""><g class="traces" transform="translate(0,165.7)" style="opacity: 1;"><text class="legendtext" text-anchor="start" x="40" y="4.680000000000001" style="font-family: 'Open Sans', verdana, arial, sans-serif; font-size: 12px; fill: rgb(36, 36, 36); fill-opacity: 1; white-space: pre;">Russian Federation</text><g class="layers" style="opacity: 1;"><g class="legendfill"/><g class="legendlines"><path class="js-line" d="M5,0h30" style="fill: none; stroke: rgb(127, 127, 127); stroke-opacity: 1; stroke-dasharray: 3px, 3px; stroke-width: 2px;"/></g><g class="legendsymbols"><g class="legendpoints"/></g></g><rect class="legendtoggle" x="0" y="-9.5" width="161.515625" height="19" style="fill: rgb(0, 0, 0); fill-opacity: 0;"/></g></g><g class="groups" transform=""><g class="traces" transform="translate(0,184.7)" style="opacity: 1;"><text class="legendtext" text-anchor="start" x="40" y="4.680000000000001" style="font-family: 'Open Sans', verdana, arial, sans-serif; font-size: 12px; fill: rgb(36, 36, 36); fill-opacity: 1; white-space: pre;">Saudi Arabia</text><g class="layers" style="opacity: 1;"><g class="legendfill"/><g class="legendlines"><path class="js-line" d="M5,0h30" style="fill: none; stroke: rgb(188, 189, 34); stroke-opacity: 1; stroke-width: 2px;"/></g><g class="legendsymbols"><g class="legendpoints"/></g></g><rect class="legendtoggle" x="0" y="-9.5" width="161.515625" height="19" style="fill: rgb(0, 0, 0); fill-opacity: 0;"/></g></g><g class="groups" transform=""><g class="traces" transform="translate(0,203.7)" style="opacity: 1;"><text class="legendtext" text-anchor="start" x="40" y="4.680000000000001" style="font-family: 'Open Sans', verdana, arial, sans-serif; font-size: 12px; fill: rgb(36, 36, 36); fill-opacity: 1; white-space: pre;">United States</text><g class="layers" style="opacity: 1;"><g class="legendfill"/><g class="legendlines"><path class="js-line" d="M5,0h30" style="fill: none; stroke: rgb(23, 190, 207); stroke-opacity: 1; stroke-dasharray: 9px, 3px, 3px, 3px; stroke-width: 2px;"/></g><g class="legendsymbols"><g class="legendpoints"/></g></g><rect class="legendtoggle" x="0" y="-9.5" width="161.515625" height="19" style="fill: rgb(0, 0, 0); fill-opacity: 0;"/></g></g></g><rect class="scrollbar" rx="20" ry="3" width="0" height="0" x="0" y="0" style="fill: rgb(128, 139, 164); fill-opacity: 1;"/></g><g class="g-gtitle"/><g class="g-xtitle"><text class="xtitle" x="245" y="339.20625" text-anchor="middle" style="font-family: 'Open Sans', verdana, arial, sans-serif; font-size: 14px; fill: rgb(36, 36, 36); opacity: 1; font-weight: normal; white-space: pre;">Year</text></g><g class="g-ytitle" transform="translate(3.2216796875,0)"><text class="ytitle" transform="rotate(-90,10.778125000000003,151)" x="10.778125000000003" y="151" text-anchor="middle" style="font-family: 'Open Sans', verdana, arial, sans-serif; font-size: 14px; fill: rgb(36, 36, 36); opacity: 1; font-weight: normal; white-space: pre;">CO​<tspan style="font-size:70%" dy="0.3em">2</tspan><tspan dy="-0.21em">​</tspan> emissions (million tons)</text></g></g></svg>