<svg width="265" height="145" viewBox="0 0 265 145" fill="none" xmlns="http://www.w3.org/2000/svg">
<rect width="265" height="145" fill="white"/>
<circle cx="61" cy="61" r="59.5" stroke="#E99D42" stroke-width="3"/>
<circle cx="61" cy="61" r="56" stroke="#2C7CF6" stroke-width="3"/>
<circle cx="61" cy="61" r="52" stroke="#8FC34F" stroke-width="3"/>
<path d="M146.156 48.2891C148.875 48.2891 150.805 46.6797 151.047 44.3203L151.055 44.2344H148.758L148.742 44.2969C148.492 45.5 147.516 46.2891 146.164 46.2891C144.383 46.2891 143.281 44.7891 143.281 42.3672V42.3516C143.281 39.9297 144.383 38.4375 146.156 38.4375C147.5 38.4375 148.508 39.2969 148.75 40.5625V40.6172H151.047V40.5234C150.828 38.1406 148.828 36.4375 146.156 36.4375C142.883 36.4375 140.867 38.6953 140.867 42.3516V42.3672C140.867 46.0234 142.891 48.2891 146.156 48.2891ZM156.781 48.1797C159.297 48.1797 160.406 46.7266 160.672 45.6484L160.688 45.5703H158.562L158.539 45.6172C158.383 45.9453 157.828 46.4766 156.828 46.4766C155.617 46.4766 154.859 45.6562 154.836 44.2422H160.758V43.5312C160.758 40.9297 159.195 39.2109 156.688 39.2109C154.18 39.2109 152.578 40.9688 152.578 43.7031V43.7109C152.578 46.4688 154.164 48.1797 156.781 48.1797ZM156.727 40.9219C157.719 40.9219 158.43 41.5625 158.57 42.8125H154.859C155 41.5938 155.734 40.9219 156.727 40.9219ZM162.625 48H164.906V43.0234C164.906 41.8594 165.547 41.1016 166.602 41.1016C167.68 41.1016 168.18 41.7422 168.18 42.9531V48H170.461V42.4375C170.461 40.3828 169.43 39.2109 167.516 39.2109C166.289 39.2109 165.438 39.7969 165.047 40.7266H164.906V39.3984H162.625V48ZM176.094 48.1797C178.297 48.1797 179.867 47.0703 179.867 45.3672V45.3594C179.867 44.0859 179.062 43.3672 177.344 43L175.914 42.6953C175.023 42.5 174.703 42.2344 174.703 41.7734V41.7656C174.703 41.1875 175.266 40.8203 176.055 40.8203C176.906 40.8203 177.414 41.25 177.539 41.7109L177.547 41.75H179.664V41.7188C179.57 40.3359 178.32 39.2109 176.062 39.2109C173.914 39.2109 172.477 40.2891 172.477 41.9062V41.9141C172.477 43.2031 173.289 44.0078 174.93 44.3594L176.367 44.6641C177.242 44.8594 177.586 45.1484 177.586 45.6094V45.625C177.586 46.1953 176.992 46.5703 176.117 46.5703C175.219 46.5703 174.695 46.1875 174.516 45.6562L174.5 45.625H172.258L172.266 45.6562C172.43 47.1328 173.758 48.1797 176.094 48.1797ZM184.578 48.1797C185.805 48.1797 186.68 47.6094 187.07 46.6719H187.211V48H189.492V39.3984H187.211V44.3672C187.211 45.5312 186.602 46.2891 185.477 46.2891C184.398 46.2891 183.938 45.6562 183.938 44.4375V39.3984H181.656V44.9609C181.656 47.0078 182.648 48.1797 184.578 48.1797ZM195.203 48.1797C197.406 48.1797 198.977 47.0703 198.977 45.3672V45.3594C198.977 44.0859 198.172 43.3672 196.453 43L195.023 42.6953C194.133 42.5 193.812 42.2344 193.812 41.7734V41.7656C193.812 41.1875 194.375 40.8203 195.164 40.8203C196.016 40.8203 196.523 41.25 196.648 41.7109L196.656 41.75H198.773V41.7188C198.68 40.3359 197.43 39.2109 195.172 39.2109C193.023 39.2109 191.586 40.2891 191.586 41.9062V41.9141C191.586 43.2031 192.398 44.0078 194.039 44.3594L195.477 44.6641C196.352 44.8594 196.695 45.1484 196.695 45.6094V45.625C196.695 46.1953 196.102 46.5703 195.227 46.5703C194.328 46.5703 193.805 46.1875 193.625 45.6562L193.609 45.625H191.367L191.375 45.6562C191.539 47.1328 192.867 48.1797 195.203 48.1797ZM202.484 42.5391C203.289 42.5391 203.859 41.9531 203.859 41.1797C203.859 40.4062 203.289 39.8281 202.484 39.8281C201.688 39.8281 201.109 40.4062 201.109 41.1797C201.109 41.9531 201.688 42.5391 202.484 42.5391ZM202.484 48.1953C203.289 48.1953 203.859 47.6094 203.859 46.8359C203.859 46.0625 203.289 45.4844 202.484 45.4844C201.688 45.4844 201.109 46.0625 201.109 46.8359C201.109 47.6094 201.688 48.1953 202.484 48.1953ZM213.938 48.1484C215.852 48.1484 217.312 47.1094 217.312 45.6094V45.5938C217.312 44.3906 216.547 43.7031 214.961 43.3203L213.664 43.0078C212.672 42.7656 212.25 42.4062 212.25 41.8359V41.8203C212.25 41.0781 212.984 40.5625 213.984 40.5625C215 40.5625 215.656 41.0234 215.836 41.6875H217.172C216.984 40.3125 215.758 39.4297 213.992 39.4297C212.203 39.4297 210.859 40.4844 210.859 41.8828V41.8906C210.859 43.1016 211.57 43.7891 213.148 44.1641L214.453 44.4766C215.492 44.7266 215.922 45.125 215.922 45.6953V45.7109C215.922 46.4766 215.117 47.0156 213.984 47.0156C212.906 47.0156 212.234 46.5547 212.008 45.8516H210.617C210.773 47.2422 212.062 48.1484 213.938 48.1484ZM221.734 48.1484C222.867 48.1484 223.75 47.6562 224.281 46.7578H224.406V48H225.766V42.2344C225.766 40.4844 224.617 39.4297 222.562 39.4297C220.766 39.4297 219.484 40.3203 219.266 41.6406L219.258 41.6875H220.617L220.625 41.6641C220.844 41.0078 221.508 40.6328 222.516 40.6328C223.773 40.6328 224.406 41.1953 224.406 42.2344V43L221.992 43.1484C220.031 43.2656 218.922 44.1328 218.922 45.6328V45.6484C218.922 47.1797 220.133 48.1484 221.734 48.1484ZM220.312 45.6172V45.6016C220.312 44.7656 220.875 44.3125 222.156 44.2344L224.406 44.0938V44.8594C224.406 46.0625 223.398 46.9688 222.016 46.9688C221.039 46.9688 220.312 46.4688 220.312 45.6172ZM228.25 48H229.609V42.7812C229.609 41.5938 230.445 40.6328 231.547 40.6328C232.609 40.6328 233.297 41.2812 233.297 42.2812V48H234.656V42.5859C234.656 41.5156 235.43 40.6328 236.602 40.6328C237.789 40.6328 238.359 41.25 238.359 42.4922V48H239.719V42.1797C239.719 40.4141 238.758 39.4297 237.039 39.4297C235.875 39.4297 234.914 40.0156 234.461 40.9062H234.336C233.945 40.0312 233.148 39.4297 232.008 39.4297C230.906 39.4297 230.109 39.9531 229.734 40.8594H229.609V39.5781H228.25V48ZM242.172 50.8125H243.531V46.6719H243.656C244.117 47.5703 245.125 48.1484 246.281 48.1484C248.422 48.1484 249.812 46.4375 249.812 43.7969V43.7812C249.812 41.1562 248.414 39.4297 246.281 39.4297C245.109 39.4297 244.172 39.9844 243.656 40.9219H243.531V39.5781H242.172V50.8125ZM245.969 46.9453C244.438 46.9453 243.5 45.7422 243.5 43.7969V43.7812C243.5 41.8359 244.438 40.6328 245.969 40.6328C247.508 40.6328 248.422 41.8203 248.422 43.7812V43.7969C248.422 45.7578 247.508 46.9453 245.969 46.9453ZM252.016 48H253.375V36.2344H252.016V48ZM259.422 48.1484C261.406 48.1484 262.609 47.0234 262.898 45.8828L262.914 45.8203H261.555L261.523 45.8906C261.297 46.3984 260.594 46.9375 259.453 46.9375C257.953 46.9375 256.992 45.9219 256.953 44.1797H263.016V43.6484C263.016 41.1328 261.625 39.4297 259.336 39.4297C257.047 39.4297 255.562 41.2109 255.562 43.8125V43.8203C255.562 46.4609 257.016 48.1484 259.422 48.1484ZM259.328 40.6406C260.57 40.6406 261.492 41.4297 261.633 43.0938H256.977C257.125 41.4922 258.078 40.6406 259.328 40.6406ZM144.711 67.1484C146.734 67.1484 147.867 66.0625 148.211 64.5391L148.227 64.4531L146.883 64.4609L146.867 64.5078C146.555 65.4453 145.836 65.9453 144.703 65.9453C143.203 65.9453 142.234 64.7031 142.234 62.7656V62.75C142.234 60.8516 143.188 59.6328 144.703 59.6328C145.914 59.6328 146.664 60.3047 146.875 61.1328L146.883 61.1562H148.234L148.227 61.1094C147.977 59.6094 146.75 58.4297 144.703 58.4297C142.344 58.4297 140.844 60.1328 140.844 62.75V62.7656C140.844 65.4375 142.352 67.1484 144.711 67.1484ZM153.68 67.1484C156.078 67.1484 157.562 65.4922 157.562 62.7969V62.7812C157.562 60.0781 156.078 58.4297 153.68 58.4297C151.281 58.4297 149.797 60.0781 149.797 62.7812V62.7969C149.797 65.4922 151.281 67.1484 153.68 67.1484ZM153.68 65.9453C152.086 65.9453 151.188 64.7812 151.188 62.7969V62.7812C151.188 60.7891 152.086 59.6328 153.68 59.6328C155.273 59.6328 156.172 60.7891 156.172 62.7812V62.7969C156.172 64.7812 155.273 65.9453 153.68 65.9453ZM161.742 67H163.117L166.234 58.5781H164.797L162.492 65.5156H162.367L160.062 58.5781H158.625L161.742 67ZM171.156 67.1484C173.141 67.1484 174.344 66.0234 174.633 64.8828L174.648 64.8203H173.289L173.258 64.8906C173.031 65.3984 172.328 65.9375 171.188 65.9375C169.688 65.9375 168.727 64.9219 168.688 63.1797H174.75V62.6484C174.75 60.1328 173.359 58.4297 171.07 58.4297C168.781 58.4297 167.297 60.2109 167.297 62.8125V62.8203C167.297 65.4609 168.75 67.1484 171.156 67.1484ZM171.062 59.6406C172.305 59.6406 173.227 60.4297 173.367 62.0938H168.711C168.859 60.4922 169.812 59.6406 171.062 59.6406ZM176.859 67H178.219V61.7812C178.219 60.5469 179.141 59.7266 180.438 59.7266C180.734 59.7266 180.992 59.7578 181.273 59.8047V58.4844C181.141 58.4609 180.852 58.4297 180.594 58.4297C179.453 58.4297 178.664 58.9453 178.344 59.8281H178.219V58.5781H176.859V67ZM185.688 67.1484C187.602 67.1484 189.062 66.1094 189.062 64.6094V64.5938C189.062 63.3906 188.297 62.7031 186.711 62.3203L185.414 62.0078C184.422 61.7656 184 61.4062 184 60.8359V60.8203C184 60.0781 184.734 59.5625 185.734 59.5625C186.75 59.5625 187.406 60.0234 187.586 60.6875H188.922C188.734 59.3125 187.508 58.4297 185.742 58.4297C183.953 58.4297 182.609 59.4844 182.609 60.8828V60.8906C182.609 62.1016 183.32 62.7891 184.898 63.1641L186.203 63.4766C187.242 63.7266 187.672 64.125 187.672 64.6953V64.7109C187.672 65.4766 186.867 66.0156 185.734 66.0156C184.656 66.0156 183.984 65.5547 183.758 64.8516H182.367C182.523 66.2422 183.812 67.1484 185.688 67.1484ZM199.125 67.1484C201.109 67.1484 202.312 66.0234 202.602 64.8828L202.617 64.8203H201.258L201.227 64.8906C201 65.3984 200.297 65.9375 199.156 65.9375C197.656 65.9375 196.695 64.9219 196.656 63.1797H202.719V62.6484C202.719 60.1328 201.328 58.4297 199.039 58.4297C196.75 58.4297 195.266 60.2109 195.266 62.8125V62.8203C195.266 65.4609 196.719 67.1484 199.125 67.1484ZM199.031 59.6406C200.273 59.6406 201.195 60.4297 201.336 62.0938H196.68C196.828 60.4922 197.781 59.6406 199.031 59.6406ZM204.828 67H206.188V62.0156C206.188 60.5391 207.039 59.6328 208.383 59.6328C209.727 59.6328 210.352 60.3594 210.352 61.875V67H211.711V61.5469C211.711 59.5469 210.656 58.4297 208.766 58.4297C207.523 58.4297 206.734 58.9531 206.312 59.8438H206.188V58.5781H204.828V67ZM217.164 67.0625C217.43 67.0625 217.688 67.0312 217.953 66.9844V65.8281C217.703 65.8516 217.57 65.8594 217.328 65.8594C216.453 65.8594 216.109 65.4609 216.109 64.4688V59.7031H217.953V58.5781H216.109V56.3984H214.703V58.5781H213.375V59.7031H214.703V64.8125C214.703 66.4219 215.43 67.0625 217.164 67.0625ZM220.703 56.9531C221.219 56.9531 221.641 56.5312 221.641 56.0156C221.641 55.5 221.219 55.0781 220.703 55.0781C220.188 55.0781 219.766 55.5 219.766 56.0156C219.766 56.5312 220.188 56.9531 220.703 56.9531ZM220.016 67H221.375V58.5781H220.016V67ZM223.938 67H225.297V61.7812C225.297 60.5469 226.219 59.7266 227.516 59.7266C227.812 59.7266 228.07 59.7578 228.352 59.8047V58.4844C228.219 58.4609 227.93 58.4297 227.672 58.4297C226.531 58.4297 225.742 58.9453 225.422 59.8281H225.297V58.5781H223.938V67ZM233.234 67.1484C235.219 67.1484 236.422 66.0234 236.711 64.8828L236.727 64.8203H235.367L235.336 64.8906C235.109 65.3984 234.406 65.9375 233.266 65.9375C231.766 65.9375 230.805 64.9219 230.766 63.1797H236.828V62.6484C236.828 60.1328 235.438 58.4297 233.148 58.4297C230.859 58.4297 229.375 60.2109 229.375 62.8125V62.8203C229.375 65.4609 230.828 67.1484 233.234 67.1484ZM233.141 59.6406C234.383 59.6406 235.305 60.4297 235.445 62.0938H230.789C230.938 60.4922 231.891 59.6406 233.141 59.6406ZM141.266 88.8125H142.625V84.6719H142.75C143.211 85.5703 144.219 86.1484 145.375 86.1484C147.516 86.1484 148.906 84.4375 148.906 81.7969V81.7812C148.906 79.1562 147.508 77.4297 145.375 77.4297C144.203 77.4297 143.266 77.9844 142.75 78.9219H142.625V77.5781H141.266V88.8125ZM145.062 84.9453C143.531 84.9453 142.594 83.7422 142.594 81.7969V81.7812C142.594 79.8359 143.531 78.6328 145.062 78.6328C146.602 78.6328 147.516 79.8203 147.516 81.7812V81.7969C147.516 83.7578 146.602 84.9453 145.062 84.9453ZM154.492 86.1484C156.891 86.1484 158.375 84.4922 158.375 81.7969V81.7812C158.375 79.0781 156.891 77.4297 154.492 77.4297C152.094 77.4297 150.609 79.0781 150.609 81.7812V81.7969C150.609 84.4922 152.094 86.1484 154.492 86.1484ZM154.492 84.9453C152.898 84.9453 152 83.7812 152 81.7969V81.7812C152 79.7891 152.898 78.6328 154.492 78.6328C156.086 78.6328 156.984 79.7891 156.984 81.7812V81.7969C156.984 83.7812 156.086 84.9453 154.492 84.9453ZM160.484 88.8125H161.844V84.6719H161.969C162.43 85.5703 163.438 86.1484 164.594 86.1484C166.734 86.1484 168.125 84.4375 168.125 81.7969V81.7812C168.125 79.1562 166.727 77.4297 164.594 77.4297C163.422 77.4297 162.484 77.9844 161.969 78.9219H161.844V77.5781H160.484V88.8125ZM164.281 84.9453C162.75 84.9453 161.812 83.7422 161.812 81.7969V81.7812C161.812 79.8359 162.75 78.6328 164.281 78.6328C165.82 78.6328 166.734 79.8203 166.734 81.7812V81.7969C166.734 83.7578 165.82 84.9453 164.281 84.9453ZM173.07 86.1484C174.305 86.1484 175.156 85.6406 175.57 84.7422H175.695V86H177.055V77.5781H175.695V82.5625C175.695 84.0391 174.906 84.9453 173.422 84.9453C172.078 84.9453 171.531 84.2188 171.531 82.7031V77.5781H170.172V83.0312C170.172 85.0234 171.156 86.1484 173.07 86.1484ZM179.672 86H181.031V74.2344H179.672V86ZM185.953 86.1484C187.086 86.1484 187.969 85.6562 188.5 84.7578H188.625V86H189.984V80.2344C189.984 78.4844 188.836 77.4297 186.781 77.4297C184.984 77.4297 183.703 78.3203 183.484 79.6406L183.477 79.6875H184.836L184.844 79.6641C185.062 79.0078 185.727 78.6328 186.734 78.6328C187.992 78.6328 188.625 79.1953 188.625 80.2344V81L186.211 81.1484C184.25 81.2656 183.141 82.1328 183.141 83.6328V83.6484C183.141 85.1797 184.352 86.1484 185.953 86.1484ZM184.531 83.6172V83.6016C184.531 82.7656 185.094 82.3125 186.375 82.2344L188.625 82.0938V82.8594C188.625 84.0625 187.617 84.9688 186.234 84.9688C185.258 84.9688 184.531 84.4688 184.531 83.6172ZM195.461 86.0625C195.727 86.0625 195.984 86.0312 196.25 85.9844V84.8281C196 84.8516 195.867 84.8594 195.625 84.8594C194.75 84.8594 194.406 84.4609 194.406 83.4688V78.7031H196.25V77.5781H194.406V75.3984H193V77.5781H191.672V78.7031H193V83.8125C193 85.4219 193.727 86.0625 195.461 86.0625ZM199 75.9531C199.516 75.9531 199.938 75.5312 199.938 75.0156C199.938 74.5 199.516 74.0781 199 74.0781C198.484 74.0781 198.062 74.5 198.062 75.0156C198.062 75.5312 198.484 75.9531 199 75.9531ZM198.312 86H199.672V77.5781H198.312V86ZM205.695 86.1484C208.094 86.1484 209.578 84.4922 209.578 81.7969V81.7812C209.578 79.0781 208.094 77.4297 205.695 77.4297C203.297 77.4297 201.812 79.0781 201.812 81.7812V81.7969C201.812 84.4922 203.297 86.1484 205.695 86.1484ZM205.695 84.9453C204.102 84.9453 203.203 83.7812 203.203 81.7969V81.7812C203.203 79.7891 204.102 78.6328 205.695 78.6328C207.289 78.6328 208.188 79.7891 208.188 81.7812V81.7969C208.188 83.7812 207.289 84.9453 205.695 84.9453ZM211.688 86H213.047V81.0156C213.047 79.5391 213.898 78.6328 215.242 78.6328C216.586 78.6328 217.211 79.3594 217.211 80.875V86H218.57V80.5469C218.57 78.5469 217.516 77.4297 215.625 77.4297C214.383 77.4297 213.594 77.9531 213.172 78.8438H213.047V77.5781H211.688V86Z" fill="black"/>
</svg>
