<svg width="265" height="145" viewBox="0 0 265 145" fill="none" xmlns="http://www.w3.org/2000/svg">
<rect width="265" height="145" fill="white"/>
<circle cx="61" cy="61" r="59.5" stroke="#E99D42" stroke-width="3"/>
<circle cx="61" cy="61" r="56" stroke="#2C7CF6" stroke-width="3"/>
<circle cx="61" cy="61" r="52" stroke="#8FC34F" stroke-width="3"/>
<path d="M143.43 42.0859C143.43 40.2812 144.18 39.2656 145.461 39.2656C146.578 39.2656 147.273 40.0781 147.328 41.1641H149.773V40.8672C149.719 38.6328 147.922 37.1484 145.445 37.1484C142.477 37.1484 140.812 39.0469 140.812 42.0859V43.2734C140.812 46.3047 142.461 48.1953 145.445 48.1953C147.914 48.1953 149.719 46.7266 149.773 44.5391V44.2344H147.328C147.273 45.2969 146.594 46.0703 145.461 46.0703C144.172 46.0703 143.43 45.0781 143.43 43.2812V42.0859ZM155.258 48.1562C157.812 48.1562 158.859 46.5547 158.914 45.4219H156.633C156.57 45.9453 156 46.3125 155.25 46.3125C154.367 46.3125 153.719 45.6953 153.719 44.7266V44.3438H158.969V43.4219C158.969 40.9922 157.406 39.5078 155.148 39.5078C153.023 39.5078 151.297 40.8125 151.297 43.4219V44.2188C151.297 46.8203 152.891 48.1562 155.258 48.1562ZM153.719 42.9453V42.8906C153.719 41.9297 154.312 41.2891 155.172 41.2891C156.031 41.2891 156.586 41.9297 156.586 42.8906V42.9453H153.719ZM160.812 48H163.305V43.3906C163.305 42.2656 163.898 41.5938 164.766 41.5938C165.438 41.5938 166.07 41.9688 166.07 43.1484V48H168.562V42.4844C168.562 40.5078 167.477 39.5312 165.805 39.5312C164.242 39.5312 163.562 40.4609 163.352 41.1016H163.234V39.6562H160.812V48ZM170.484 42.1641C170.484 43.7891 171.664 44.3828 173.125 44.6641C174.164 44.8672 175.18 44.9375 175.18 45.6562C175.18 46.1328 174.82 46.5156 173.969 46.5156C173.195 46.5156 172.773 46.1406 172.719 45.625H170.305C170.305 47.1094 171.562 48.1562 173.852 48.1562C176.242 48.1562 177.586 47.0859 177.586 45.3672C177.586 43.8906 176.586 43.25 175.047 42.9922C174.172 42.8516 172.836 42.75 172.836 41.9766C172.836 41.4766 173.234 41.1328 173.961 41.1328C174.703 41.1328 175.086 41.5781 175.133 42.0156H177.305C177.305 40.3594 175.914 39.5078 173.992 39.5078C172.125 39.5078 170.484 40.25 170.484 42.1641ZM187.078 39.6562H184.594V44.5078C184.594 45.4922 183.914 46.0703 183.141 46.0703C182.523 46.0703 181.836 45.7812 181.836 44.5781V39.6562H179.344V45.2188C179.344 47.2188 180.438 48.125 182.102 48.125C183.562 48.125 184.32 47.2578 184.539 46.6016H184.664V48H187.078V39.6562ZM189.031 42.1641C189.031 43.7891 190.211 44.3828 191.672 44.6641C192.711 44.8672 193.727 44.9375 193.727 45.6562C193.727 46.1328 193.367 46.5156 192.516 46.5156C191.742 46.5156 191.32 46.1406 191.266 45.625H188.852C188.852 47.1094 190.109 48.1562 192.398 48.1562C194.789 48.1562 196.133 47.0859 196.133 45.3672C196.133 43.8906 195.133 43.25 193.594 42.9922C192.719 42.8516 191.383 42.75 191.383 41.9766C191.383 41.4766 191.781 41.1328 192.508 41.1328C193.25 41.1328 193.633 41.5781 193.68 42.0156H195.852C195.852 40.3594 194.461 39.5078 192.539 39.5078C190.672 39.5078 189.031 40.25 189.031 42.1641ZM197.836 41.6562C197.836 42.5625 198.523 43.1094 199.367 43.1094C200.227 43.1094 200.906 42.5625 200.906 41.6562C200.906 40.7578 200.234 40.1797 199.367 40.1797C198.516 40.1797 197.836 40.7422 197.836 41.6562ZM197.836 46.7109C197.836 47.6172 198.523 48.1641 199.367 48.1641C200.227 48.1641 200.906 47.6172 200.906 46.7109C200.906 45.8047 200.234 45.2344 199.367 45.2344C198.516 45.2344 197.836 45.7891 197.836 46.7109ZM206.547 42.1406C206.547 43.7578 207.789 44.1094 209.32 44.4219C210.461 44.6484 211.375 44.8203 211.375 45.7344C211.375 46.4453 210.844 47.0312 209.547 47.0312C208.398 47.0312 207.891 46.5703 207.781 45.8438H206.398C206.398 47.3125 207.656 48.1328 209.484 48.1328C211.453 48.1328 212.766 47.2031 212.766 45.5703C212.766 43.9688 211.492 43.5391 209.953 43.2734C209.023 43.1016 207.914 42.9766 207.914 42C207.914 41.2031 208.602 40.7578 209.562 40.7578C210.664 40.7578 211.195 41.375 211.242 41.9453H212.555C212.555 40.5625 211.383 39.6484 209.609 39.6484C208.008 39.6484 206.547 40.3984 206.547 42.1406ZM217.297 48.1328C218.508 48.1328 219.25 47.5703 219.648 46.9062H219.711V48H221.07V42.3906C221.07 40.375 219.672 39.6484 217.977 39.6484C216.141 39.6484 215.047 40.4297 214.922 41.8203H216.289C216.453 41.25 216.891 40.8438 217.93 40.8438C218.984 40.8438 219.648 41.3281 219.648 42.3828V43.1953H217.5C215.609 43.1953 214.609 44.1719 214.609 45.6094C214.609 47.1328 215.703 48.1328 217.297 48.1328ZM217.688 46.9453C216.836 46.9453 216.055 46.5156 216.055 45.5625C216.055 44.8281 216.508 44.2734 217.617 44.2734H219.648V45.1875C219.648 46.1953 218.797 46.9453 217.688 46.9453ZM223.812 48H225.227V42.7734C225.227 41.6484 225.969 40.875 227 40.875C228.078 40.875 228.742 41.6016 228.742 42.6719V48H230.141V42.7891C230.141 41.6641 230.93 40.875 231.953 40.875C233.062 40.875 233.656 41.5625 233.656 42.6172V48H235.07V42.2188C235.07 40.5703 234.047 39.6484 232.367 39.6484C230.977 39.6484 230.195 40.3906 229.859 41.1953H229.797C229.539 40.3125 228.758 39.6484 227.516 39.6484C226 39.6484 225.477 40.5078 225.289 41.0938H225.211V39.7812H223.812V48ZM241.664 48.125C243.625 48.125 244.852 46.7734 244.852 44.5938V43.1797C244.852 41.0156 243.641 39.6562 241.711 39.6562C240.531 39.6562 239.586 40.2031 239.25 41.0859H239.18V39.7734H237.82V50.7266H239.234V46.7812H239.305C239.688 47.6484 240.531 48.125 241.664 48.125ZM241.375 46.9141C240.109 46.9141 239.234 46.0078 239.234 44.6875V43.2578C239.234 41.7734 240.039 40.8672 241.336 40.8672C242.672 40.8672 243.43 41.8125 243.43 43.4609V44.3359C243.43 45.9766 242.672 46.9141 241.375 46.9141ZM247.297 48H248.711V36.7734H247.297V48ZM254.664 48.1328C256.742 48.1328 257.734 46.8438 257.859 45.9688H256.406C256.266 46.4766 255.617 46.9375 254.656 46.9375C253.289 46.9375 252.555 45.9453 252.555 44.6719V44.2578H257.969V43.2656C257.969 41.0547 256.547 39.6484 254.555 39.6484C252.586 39.6484 251.148 41.0312 251.148 43.2656V44.5156C251.148 46.7344 252.453 48.1328 254.664 48.1328ZM252.555 43.2344V43.1016C252.555 41.7344 253.359 40.8359 254.562 40.8359C255.766 40.8359 256.562 41.7344 256.562 43.1016V43.2344H252.555ZM140.992 63.5469C140.992 65.75 142.305 67.1328 144.422 67.1328C146.594 67.1328 147.586 65.9297 147.633 64.7188H146.258C146.109 65.3438 145.656 65.8984 144.445 65.8984C143.18 65.8984 142.406 64.9922 142.406 63.5625V62.25C142.406 60.8125 143.102 59.8828 144.445 59.8828C145.727 59.8828 146.109 60.6719 146.195 61.1562H147.578C147.539 59.9141 146.477 58.6484 144.422 58.6484C142.312 58.6484 140.992 60.0469 140.992 62.2031V63.5469ZM153.031 58.6484C150.977 58.6484 149.477 60.0625 149.477 62.2812V63.4922C149.477 65.8359 150.953 67.1328 153.031 67.1328C155.07 67.1328 156.578 65.8125 156.578 63.4922V62.2734C156.578 59.9844 155.07 58.6484 153.031 58.6484ZM153.039 59.8516C154.359 59.8516 155.156 60.8984 155.156 62.3984V63.3906C155.156 64.9141 154.398 65.9375 153.039 65.9375C151.664 65.9375 150.891 64.9141 150.891 63.3906V62.3984C150.891 60.8984 151.719 59.8516 153.039 59.8516ZM160.766 67H162.227L165.203 58.7812H163.695L161.516 65.5469H161.461L159.438 58.7812H157.875L160.766 67ZM170.023 67.1328C172.102 67.1328 173.094 65.8438 173.219 64.9688H171.766C171.625 65.4766 170.977 65.9375 170.016 65.9375C168.648 65.9375 167.914 64.9453 167.914 63.6719V63.2578H173.328V62.2656C173.328 60.0547 171.906 58.6484 169.914 58.6484C167.945 58.6484 166.508 60.0312 166.508 62.2656V63.5156C166.508 65.7344 167.812 67.1328 170.023 67.1328ZM167.914 62.2344V62.1016C167.914 60.7344 168.719 59.8359 169.922 59.8359C171.125 59.8359 171.922 60.7344 171.922 62.1016V62.2344H167.914ZM175.797 67H177.219V61.9219C177.219 60.8047 177.938 59.9375 179.383 59.9375C179.633 59.9375 179.914 59.9531 180.047 59.9844V58.6953C179.883 58.6719 179.711 58.6562 179.531 58.6562C178.078 58.6562 177.484 59.5078 177.281 60.0469H177.211V58.7812H175.797V67ZM181.516 61.1406C181.516 62.7578 182.758 63.1094 184.289 63.4219C185.43 63.6484 186.344 63.8203 186.344 64.7344C186.344 65.4453 185.812 66.0312 184.516 66.0312C183.367 66.0312 182.859 65.5703 182.75 64.8438H181.367C181.367 66.3125 182.625 67.1328 184.453 67.1328C186.422 67.1328 187.734 66.2031 187.734 64.5703C187.734 62.9688 186.461 62.5391 184.922 62.2734C183.992 62.1016 182.883 61.9766 182.883 61C182.883 60.2031 183.57 59.7578 184.531 59.7578C185.633 59.7578 186.164 60.375 186.211 60.9453H187.523C187.523 59.5625 186.352 58.6484 184.578 58.6484C182.977 58.6484 181.516 59.3984 181.516 61.1406ZM196.789 67.1328C198.867 67.1328 199.859 65.8438 199.984 64.9688H198.531C198.391 65.4766 197.742 65.9375 196.781 65.9375C195.414 65.9375 194.68 64.9453 194.68 63.6719V63.2578H200.094V62.2656C200.094 60.0547 198.672 58.6484 196.68 58.6484C194.711 58.6484 193.273 60.0312 193.273 62.2656V63.5156C193.273 65.7344 194.578 67.1328 196.789 67.1328ZM194.68 62.2344V62.1016C194.68 60.7344 195.484 59.8359 196.688 59.8359C197.891 59.8359 198.688 60.7344 198.688 62.1016V62.2344H194.68ZM202.438 67H203.852V62.4219C203.852 61 204.555 59.8828 206 59.8828C207.117 59.8828 207.781 60.5469 207.781 61.8359V67H209.195V61.3906C209.195 59.5469 208.062 58.6484 206.406 58.6484C204.688 58.6484 204.117 59.625 203.914 60.2734H203.836V58.7812H202.438V67ZM212.383 58.8047H211.117V59.9531H212.375V64.6953C212.375 66.3203 212.797 67.0703 214.75 67.0703C215.062 67.0703 215.641 67.0312 215.758 67V65.8672C215.625 65.8828 215.312 65.9062 215.109 65.9062C214.109 65.9062 213.781 65.6562 213.781 64.6875V59.9531H215.641V58.8047H213.781V56.7422H212.383V58.8047ZM217.852 56.25C217.852 56.8125 218.281 57.2188 218.844 57.2188C219.438 57.2188 219.867 56.8125 219.867 56.25C219.867 55.6797 219.438 55.2734 218.844 55.2734C218.281 55.2734 217.852 55.6797 217.852 56.25ZM218.148 67H219.562V58.7812H218.148V67ZM222.672 67H224.094V61.9219C224.094 60.8047 224.812 59.9375 226.258 59.9375C226.508 59.9375 226.789 59.9531 226.922 59.9844V58.6953C226.758 58.6719 226.586 58.6562 226.406 58.6562C224.953 58.6562 224.359 59.5078 224.156 60.0469H224.086V58.7812H222.672V67ZM231.898 67.1328C233.977 67.1328 234.969 65.8438 235.094 64.9688H233.641C233.5 65.4766 232.852 65.9375 231.891 65.9375C230.523 65.9375 229.789 64.9453 229.789 63.6719V63.2578H235.203V62.2656C235.203 60.0547 233.781 58.6484 231.789 58.6484C229.82 58.6484 228.383 60.0312 228.383 62.2656V63.5156C228.383 65.7344 229.688 67.1328 231.898 67.1328ZM229.789 62.2344V62.1016C229.789 60.7344 230.594 59.8359 231.797 59.8359C233 59.8359 233.797 60.7344 233.797 62.1016V62.2344H229.789ZM145.242 86.125C147.203 86.125 148.43 84.7734 148.43 82.5938V81.1797C148.43 79.0156 147.219 77.6562 145.289 77.6562C144.109 77.6562 143.164 78.2031 142.828 79.0859H142.758V77.7734H141.398V88.7266H142.812V84.7812H142.883C143.266 85.6484 144.109 86.125 145.242 86.125ZM144.953 84.9141C143.688 84.9141 142.812 84.0078 142.812 82.6875V81.2578C142.812 79.7734 143.617 78.8672 144.914 78.8672C146.25 78.8672 147.008 79.8125 147.008 81.4609V82.3359C147.008 83.9766 146.25 84.9141 144.953 84.9141ZM153.984 77.6484C151.93 77.6484 150.43 79.0625 150.43 81.2812V82.4922C150.43 84.8359 151.906 86.1328 153.984 86.1328C156.023 86.1328 157.531 84.8125 157.531 82.4922V81.2734C157.531 78.9844 156.023 77.6484 153.984 77.6484ZM153.992 78.8516C155.312 78.8516 156.109 79.8984 156.109 81.3984V82.3906C156.109 83.9141 155.352 84.9375 153.992 84.9375C152.617 84.9375 151.844 83.9141 151.844 82.3906V81.3984C151.844 79.8984 152.672 78.8516 153.992 78.8516ZM163.758 86.125C165.719 86.125 166.945 84.7734 166.945 82.5938V81.1797C166.945 79.0156 165.734 77.6562 163.805 77.6562C162.625 77.6562 161.68 78.2031 161.344 79.0859H161.273V77.7734H159.914V88.7266H161.328V84.7812H161.398C161.781 85.6484 162.625 86.125 163.758 86.125ZM163.469 84.9141C162.203 84.9141 161.328 84.0078 161.328 82.6875V81.2578C161.328 79.7734 162.133 78.8672 163.43 78.8672C164.766 78.8672 165.523 79.8125 165.523 81.4609V82.3359C165.523 83.9766 164.766 84.9141 163.469 84.9141ZM176.016 77.7812H174.602V82.9609C174.602 84.0156 173.688 84.8984 172.484 84.8984C171.508 84.8984 170.695 84.4688 170.695 83.1016V77.7812H169.281V83.4844C169.281 85.3906 170.445 86.1328 172.094 86.1328C173.531 86.1328 174.305 85.3047 174.539 84.6328H174.617V86H176.016V77.7812ZM178.844 86H180.258V74.7734H178.844V86ZM185.312 86.1328C186.523 86.1328 187.266 85.5703 187.664 84.9062H187.727V86H189.086V80.3906C189.086 78.375 187.688 77.6484 185.992 77.6484C184.156 77.6484 183.062 78.4297 182.938 79.8203H184.305C184.469 79.25 184.906 78.8438 185.945 78.8438C187 78.8438 187.664 79.3281 187.664 80.3828V81.1953H185.516C183.625 81.1953 182.625 82.1719 182.625 83.6094C182.625 85.1328 183.719 86.1328 185.312 86.1328ZM185.703 84.9453C184.852 84.9453 184.07 84.5156 184.07 83.5625C184.07 82.8281 184.523 82.2734 185.633 82.2734H187.664V83.1875C187.664 84.1953 186.812 84.9453 185.703 84.9453ZM192.273 77.8047H191.008V78.9531H192.266V83.6953C192.266 85.3203 192.688 86.0703 194.641 86.0703C194.953 86.0703 195.531 86.0312 195.648 86V84.8672C195.516 84.8828 195.203 84.9062 195 84.9062C194 84.9062 193.672 84.6562 193.672 83.6875V78.9531H195.531V77.8047H193.672V75.7422H192.273V77.8047ZM197.742 75.25C197.742 75.8125 198.172 76.2188 198.734 76.2188C199.328 76.2188 199.758 75.8125 199.758 75.25C199.758 74.6797 199.328 74.2734 198.734 74.2734C198.172 74.2734 197.742 74.6797 197.742 75.25ZM198.039 86H199.453V77.7812H198.039V86ZM205.594 77.6484C203.539 77.6484 202.039 79.0625 202.039 81.2812V82.4922C202.039 84.8359 203.516 86.1328 205.594 86.1328C207.633 86.1328 209.141 84.8125 209.141 82.4922V81.2734C209.141 78.9844 207.633 77.6484 205.594 77.6484ZM205.602 78.8516C206.922 78.8516 207.719 79.8984 207.719 81.3984V82.3906C207.719 83.9141 206.961 84.9375 205.602 84.9375C204.227 84.9375 203.453 83.9141 203.453 82.3906V81.3984C203.453 79.8984 204.281 78.8516 205.602 78.8516ZM211.516 86H212.93V81.4219C212.93 80 213.633 78.8828 215.078 78.8828C216.195 78.8828 216.859 79.5469 216.859 80.8359V86H218.273V80.3906C218.273 78.5469 217.141 77.6484 215.484 77.6484C213.766 77.6484 213.195 78.625 212.992 79.2734H212.914V77.7812H211.516V86Z" fill="black"/>
</svg>
