<svg width="384" height="145" viewBox="0 0 384 145" fill="none" xmlns="http://www.w3.org/2000/svg">
<rect width="384" height="145" fill="white"/>
<circle cx="61" cy="61" r="59.5" stroke="#E99D42" stroke-width="3"/>
<path d="M161.102 47H163.461V37.6719H166.844V35.7266H157.719V37.6719H161.102V47ZM169.211 50.0312C171.336 50.0312 172.469 49.2656 173.234 46.9922L176.164 38.3984H173.758L171.953 44.9141H171.797L169.992 38.3984H167.484L170.508 47L170.43 47.3281C170.266 48 169.797 48.3125 168.984 48.3125C168.773 48.3125 168.547 48.3047 168.391 48.2891V50.0078C168.656 50.0234 168.945 50.0312 169.211 50.0312ZM177.75 49.8516H180.031V45.625H180.172C180.609 46.5625 181.57 47.1328 182.75 47.1328C184.93 47.1328 186.242 45.4688 186.242 42.7031V42.6875C186.242 39.9453 184.898 38.2578 182.75 38.2578C181.531 38.2578 180.617 38.8047 180.172 39.7266H180.031V38.3984H177.75V49.8516ZM181.969 45.2422C180.773 45.2422 180.008 44.2812 180.008 42.7031V42.6875C180.008 41.1094 180.766 40.1484 181.969 40.1484C183.18 40.1484 183.922 41.1094 183.922 42.6875V42.7031C183.922 44.2812 183.172 45.2422 181.969 45.2422ZM189.273 37.0781C189.977 37.0781 190.555 36.5156 190.555 35.8125C190.555 35.1016 189.977 34.5391 189.273 34.5391C188.57 34.5391 187.984 35.1016 187.984 35.8125C187.984 36.5156 188.57 37.0781 189.273 37.0781ZM188.125 47H190.406V38.3984H188.125V47ZM196.492 47.1797C198.734 47.1797 200.078 45.9766 200.312 44.1016L200.32 44.0547H198.211L198.195 44.0859C197.992 44.9453 197.438 45.3906 196.5 45.3906C195.281 45.3906 194.602 44.4297 194.602 42.6875V42.6719C194.602 40.9531 195.273 40 196.5 40C197.477 40 198.047 40.5469 198.195 41.3828L198.203 41.3984H200.328V41.375C200.125 39.4531 198.773 38.2109 196.492 38.2109C193.797 38.2109 192.281 39.8438 192.281 42.6719V42.6875C192.281 45.5469 193.805 47.1797 196.492 47.1797ZM204.453 47.1328C205.578 47.1328 206.484 46.6562 206.922 45.8594H207.062V47H209.312V41.125C209.312 39.2891 208.023 38.2109 205.742 38.2109C203.578 38.2109 202.156 39.2109 201.977 40.7188L201.969 40.7891H204.078L204.094 40.7578C204.273 40.25 204.797 39.9609 205.617 39.9609C206.555 39.9609 207.062 40.3828 207.062 41.125V41.8359L204.984 41.9609C202.844 42.0859 201.648 42.9922 201.648 44.5391V44.5547C201.648 46.1172 202.812 47.1328 204.453 47.1328ZM203.875 44.4141V44.3984C203.875 43.7734 204.352 43.4062 205.328 43.3438L207.062 43.2344V43.8672C207.062 44.7734 206.273 45.4688 205.219 45.4688C204.43 45.4688 203.875 45.0703 203.875 44.4141ZM211.625 47H213.906V35.1094H211.625V47ZM223.812 47.1797C226.016 47.1797 227.586 46.0703 227.586 44.3672V44.3594C227.586 43.0859 226.781 42.3672 225.062 42L223.633 41.6953C222.742 41.5 222.422 41.2344 222.422 40.7734V40.7656C222.422 40.1875 222.984 39.8203 223.773 39.8203C224.625 39.8203 225.133 40.25 225.258 40.7109L225.266 40.75H227.383V40.7188C227.289 39.3359 226.039 38.2109 223.781 38.2109C221.633 38.2109 220.195 39.2891 220.195 40.9062V40.9141C220.195 42.2031 221.008 43.0078 222.648 43.3594L224.086 43.6641C224.961 43.8594 225.305 44.1484 225.305 44.6094V44.625C225.305 45.1953 224.711 45.5703 223.836 45.5703C222.938 45.5703 222.414 45.1875 222.234 44.6562L222.219 44.625H219.977L219.984 44.6562C220.148 46.1328 221.477 47.1797 223.812 47.1797ZM231.797 47.1328C232.922 47.1328 233.828 46.6562 234.266 45.8594H234.406V47H236.656V41.125C236.656 39.2891 235.367 38.2109 233.086 38.2109C230.922 38.2109 229.5 39.2109 229.32 40.7188L229.312 40.7891H231.422L231.438 40.7578C231.617 40.25 232.141 39.9609 232.961 39.9609C233.898 39.9609 234.406 40.3828 234.406 41.125V41.8359L232.328 41.9609C230.188 42.0859 228.992 42.9922 228.992 44.5391V44.5547C228.992 46.1172 230.156 47.1328 231.797 47.1328ZM231.219 44.4141V44.3984C231.219 43.7734 231.695 43.4062 232.672 43.3438L234.406 43.2344V43.8672C234.406 44.7734 233.617 45.4688 232.562 45.4688C231.773 45.4688 231.219 45.0703 231.219 44.4141ZM238.891 47H241.172V41.8125C241.172 40.8281 241.797 40.1016 242.688 40.1016C243.578 40.1016 244.102 40.6406 244.102 41.5625V47H246.383V41.7109C246.383 40.7812 246.977 40.1016 247.898 40.1016C248.852 40.1016 249.32 40.625 249.32 41.6641V47H251.602V41.0938C251.602 39.3203 250.531 38.2109 248.82 38.2109C247.617 38.2109 246.617 38.8438 246.227 39.7969H246.086C245.734 38.8047 244.867 38.2109 243.695 38.2109C242.57 38.2109 241.68 38.7734 241.312 39.7422H241.172V38.3984H238.891V47ZM253.812 49.8516H256.094V45.625H256.234C256.672 46.5625 257.633 47.1328 258.812 47.1328C260.992 47.1328 262.305 45.4688 262.305 42.7031V42.6875C262.305 39.9453 260.961 38.2578 258.812 38.2578C257.594 38.2578 256.68 38.8047 256.234 39.7266H256.094V38.3984H253.812V49.8516ZM258.031 45.2422C256.836 45.2422 256.07 44.2812 256.07 42.7031V42.6875C256.07 41.1094 256.828 40.1484 258.031 40.1484C259.242 40.1484 259.984 41.1094 259.984 42.6875V42.7031C259.984 44.2812 259.234 45.2422 258.031 45.2422ZM264.25 47H266.531V35.1094H264.25V47ZM272.672 47.1797C275.188 47.1797 276.297 45.7266 276.562 44.6484L276.578 44.5703H274.453L274.43 44.6172C274.273 44.9453 273.719 45.4766 272.719 45.4766C271.508 45.4766 270.75 44.6562 270.727 43.2422H276.648V42.5312C276.648 39.9297 275.086 38.2109 272.578 38.2109C270.07 38.2109 268.469 39.9688 268.469 42.7031V42.7109C268.469 45.4688 270.055 47.1797 272.672 47.1797ZM272.617 39.9219C273.609 39.9219 274.32 40.5625 274.461 41.8125H270.75C270.891 40.5938 271.625 39.9219 272.617 39.9219ZM283.805 37.0781C284.508 37.0781 285.086 36.5156 285.086 35.8125C285.086 35.1016 284.508 34.5391 283.805 34.5391C283.102 34.5391 282.516 35.1016 282.516 35.8125C282.516 36.5156 283.102 37.0781 283.805 37.0781ZM282.656 47H284.938V38.3984H282.656V47ZM287.234 47H289.516V42.0234C289.516 40.8594 290.156 40.1016 291.211 40.1016C292.289 40.1016 292.789 40.7422 292.789 41.9531V47H295.07V41.4375C295.07 39.3828 294.039 38.2109 292.125 38.2109C290.898 38.2109 290.047 38.7969 289.656 39.7266H289.516V38.3984H287.234V47ZM301.406 49.8516H303.688V45.625H303.828C304.266 46.5625 305.227 47.1328 306.406 47.1328C308.586 47.1328 309.898 45.4688 309.898 42.7031V42.6875C309.898 39.9453 308.555 38.2578 306.406 38.2578C305.188 38.2578 304.273 38.8047 303.828 39.7266H303.688V38.3984H301.406V49.8516ZM305.625 45.2422C304.43 45.2422 303.664 44.2812 303.664 42.7031V42.6875C303.664 41.1094 304.422 40.1484 305.625 40.1484C306.836 40.1484 307.578 41.1094 307.578 42.6875V42.7031C307.578 44.2812 306.828 45.2422 305.625 45.2422ZM311.766 47H314.047V42.1875C314.047 40.9688 314.867 40.2266 316.164 40.2266C316.516 40.2266 316.867 40.2812 317.211 40.3594V38.3672C316.984 38.3047 316.664 38.2578 316.359 38.2578C315.242 38.2578 314.461 38.8047 314.188 39.7344H314.047V38.3984H311.766V47ZM320.922 47.1328C322.047 47.1328 322.953 46.6562 323.391 45.8594H323.531V47H325.781V41.125C325.781 39.2891 324.492 38.2109 322.211 38.2109C320.047 38.2109 318.625 39.2109 318.445 40.7188L318.438 40.7891H320.547L320.562 40.7578C320.742 40.25 321.266 39.9609 322.086 39.9609C323.023 39.9609 323.531 40.3828 323.531 41.125V41.8359L321.453 41.9609C319.312 42.0859 318.117 42.9922 318.117 44.5391V44.5547C318.117 46.1172 319.281 47.1328 320.922 47.1328ZM320.344 44.4141V44.3984C320.344 43.7734 320.82 43.4062 321.797 43.3438L323.531 43.2344V43.8672C323.531 44.7734 322.742 45.4688 321.688 45.4688C320.898 45.4688 320.344 45.0703 320.344 44.4141ZM331.805 47.1797C334.047 47.1797 335.391 45.9766 335.625 44.1016L335.633 44.0547H333.523L333.508 44.0859C333.305 44.9453 332.75 45.3906 331.812 45.3906C330.594 45.3906 329.914 44.4297 329.914 42.6875V42.6719C329.914 40.9531 330.586 40 331.812 40C332.789 40 333.359 40.5469 333.508 41.3828L333.516 41.3984H335.641V41.375C335.438 39.4531 334.086 38.2109 331.805 38.2109C329.109 38.2109 327.594 39.8438 327.594 42.6719V42.6875C327.594 45.5469 329.117 47.1797 331.805 47.1797ZM341.07 47.0312C341.508 47.0312 341.93 46.9844 342.211 46.9297V45.2344C341.992 45.2578 341.836 45.2734 341.539 45.2734C340.766 45.2734 340.438 44.9297 340.438 44.1562V40.1172H342.211V38.3984H340.438V36.3438H338.133V38.3984H336.805V40.1172H338.133V44.6797C338.133 46.3516 338.977 47.0312 341.07 47.0312ZM345.273 37.0781C345.977 37.0781 346.555 36.5156 346.555 35.8125C346.555 35.1016 345.977 34.5391 345.273 34.5391C344.57 34.5391 343.984 35.1016 343.984 35.8125C343.984 36.5156 344.57 37.0781 345.273 37.0781ZM344.125 47H346.406V38.3984H344.125V47ZM352.492 47.1797C354.734 47.1797 356.078 45.9766 356.312 44.1016L356.32 44.0547H354.211L354.195 44.0859C353.992 44.9453 353.438 45.3906 352.5 45.3906C351.281 45.3906 350.602 44.4297 350.602 42.6875V42.6719C350.602 40.9531 351.273 40 352.5 40C353.477 40 354.047 40.5469 354.195 41.3828L354.203 41.3984H356.328V41.375C356.125 39.4531 354.773 38.2109 352.492 38.2109C349.797 38.2109 348.281 39.8438 348.281 42.6719V42.6875C348.281 45.5469 349.805 47.1797 352.492 47.1797ZM361.891 47.1797C364.406 47.1797 365.516 45.7266 365.781 44.6484L365.797 44.5703H363.672L363.648 44.6172C363.492 44.9453 362.938 45.4766 361.938 45.4766C360.727 45.4766 359.969 44.6562 359.945 43.2422H365.867V42.5312C365.867 39.9297 364.305 38.2109 361.797 38.2109C359.289 38.2109 357.688 39.9688 357.688 42.7031V42.7109C357.688 45.4688 359.273 47.1797 361.891 47.1797ZM361.836 39.9219C362.828 39.9219 363.539 40.5625 363.68 41.8125H359.969C360.109 40.5938 360.844 39.9219 361.836 39.9219ZM369.375 41.5391C370.18 41.5391 370.75 40.9531 370.75 40.1797C370.75 39.4062 370.18 38.8281 369.375 38.8281C368.578 38.8281 368 39.4062 368 40.1797C368 40.9531 368.578 41.5391 369.375 41.5391ZM369.375 47.1953C370.18 47.1953 370.75 46.6094 370.75 45.8359C370.75 45.0625 370.18 44.4844 369.375 44.4844C368.578 44.4844 368 45.0625 368 45.8359C368 46.6094 368.578 47.1953 369.375 47.1953ZM161.156 66.1484C163.07 66.1484 164.531 65.1094 164.531 63.6094V63.5938C164.531 62.3906 163.766 61.7031 162.18 61.3203L160.883 61.0078C159.891 60.7656 159.469 60.4062 159.469 59.8359V59.8203C159.469 59.0781 160.203 58.5625 161.203 58.5625C162.219 58.5625 162.875 59.0234 163.055 59.6875H164.391C164.203 58.3125 162.977 57.4297 161.211 57.4297C159.422 57.4297 158.078 58.4844 158.078 59.8828V59.8906C158.078 61.1016 158.789 61.7891 160.367 62.1641L161.672 62.4766C162.711 62.7266 163.141 63.125 163.141 63.6953V63.7109C163.141 64.4766 162.336 65.0156 161.203 65.0156C160.125 65.0156 159.453 64.5547 159.227 63.8516H157.836C157.992 65.2422 159.281 66.1484 161.156 66.1484ZM168.953 66.1484C170.086 66.1484 170.969 65.6562 171.5 64.7578H171.625V66H172.984V60.2344C172.984 58.4844 171.836 57.4297 169.781 57.4297C167.984 57.4297 166.703 58.3203 166.484 59.6406L166.477 59.6875H167.836L167.844 59.6641C168.062 59.0078 168.727 58.6328 169.734 58.6328C170.992 58.6328 171.625 59.1953 171.625 60.2344V61L169.211 61.1484C167.25 61.2656 166.141 62.1328 166.141 63.6328V63.6484C166.141 65.1797 167.352 66.1484 168.953 66.1484ZM167.531 63.6172V63.6016C167.531 62.7656 168.094 62.3125 169.375 62.2344L171.625 62.0938V62.8594C171.625 64.0625 170.617 64.9688 169.234 64.9688C168.258 64.9688 167.531 64.4688 167.531 63.6172ZM175.469 66H176.828V60.7812C176.828 59.5938 177.664 58.6328 178.766 58.6328C179.828 58.6328 180.516 59.2812 180.516 60.2812V66H181.875V60.5859C181.875 59.5156 182.648 58.6328 183.82 58.6328C185.008 58.6328 185.578 59.25 185.578 60.4922V66H186.938V60.1797C186.938 58.4141 185.977 57.4297 184.258 57.4297C183.094 57.4297 182.133 58.0156 181.68 58.9062H181.555C181.164 58.0312 180.367 57.4297 179.227 57.4297C178.125 57.4297 177.328 57.9531 176.953 58.8594H176.828V57.5781H175.469V66ZM189.391 68.8125H190.75V64.6719H190.875C191.336 65.5703 192.344 66.1484 193.5 66.1484C195.641 66.1484 197.031 64.4375 197.031 61.7969V61.7812C197.031 59.1562 195.633 57.4297 193.5 57.4297C192.328 57.4297 191.391 57.9844 190.875 58.9219H190.75V57.5781H189.391V68.8125ZM193.188 64.9453C191.656 64.9453 190.719 63.7422 190.719 61.7969V61.7812C190.719 59.8359 191.656 58.6328 193.188 58.6328C194.727 58.6328 195.641 59.8203 195.641 61.7812V61.7969C195.641 63.7578 194.727 64.9453 193.188 64.9453ZM199.234 66H200.594V54.2344H199.234V66ZM203.922 55.9531C204.438 55.9531 204.859 55.5312 204.859 55.0156C204.859 54.5 204.438 54.0781 203.922 54.0781C203.406 54.0781 202.984 54.5 202.984 55.0156C202.984 55.5312 203.406 55.9531 203.922 55.9531ZM203.234 66H204.594V57.5781H203.234V66ZM207.156 66H208.516V61.0156C208.516 59.5391 209.367 58.6328 210.711 58.6328C212.055 58.6328 212.68 59.3594 212.68 60.875V66H214.039V60.5469C214.039 58.5469 212.984 57.4297 211.094 57.4297C209.852 57.4297 209.062 57.9531 208.641 58.8438H208.516V57.5781H207.156V66ZM219.969 68.9688C222.266 68.9688 223.719 67.7656 223.719 65.8828V57.5781H222.359V58.9688H222.266C221.75 58.0156 220.828 57.4297 219.641 57.4297C217.438 57.4297 216.078 59.1406 216.078 61.5V61.5156C216.078 63.875 217.43 65.5625 219.609 65.5625C220.766 65.5625 221.719 65.0391 222.25 64.1094H222.375V65.8125C222.375 67.0547 221.477 67.7656 219.969 67.7656C218.758 67.7656 218.008 67.3125 217.859 66.6719L217.852 66.6641H216.445L216.43 66.6719C216.641 68.0547 217.938 68.9688 219.969 68.9688ZM219.906 64.3594C218.344 64.3594 217.469 63.1875 217.469 61.5156V61.5C217.469 59.8281 218.344 58.6328 219.906 58.6328C221.461 58.6328 222.406 59.8281 222.406 61.5V61.5156C222.406 63.1875 221.469 64.3594 219.906 64.3594ZM231.328 66H232.688V58.7031H234.602V57.5781H232.688V56.6797C232.688 55.7578 233.078 55.2812 234.047 55.2812C234.289 55.2812 234.516 55.2891 234.68 55.3203V54.2344C234.398 54.1797 234.102 54.1562 233.773 54.1562C232.172 54.1562 231.328 54.9609 231.328 56.6406V57.5781H229.93V58.7031H231.328V66ZM236.562 66H237.922V60.7812C237.922 59.5469 238.844 58.7266 240.141 58.7266C240.438 58.7266 240.695 58.7578 240.977 58.8047V57.4844C240.844 57.4609 240.555 57.4297 240.297 57.4297C239.156 57.4297 238.367 57.9453 238.047 58.8281H237.922V57.5781H236.562V66ZM244.969 66.1484C246.102 66.1484 246.984 65.6562 247.516 64.7578H247.641V66H249V60.2344C249 58.4844 247.852 57.4297 245.797 57.4297C244 57.4297 242.719 58.3203 242.5 59.6406L242.492 59.6875H243.852L243.859 59.6641C244.078 59.0078 244.742 58.6328 245.75 58.6328C247.008 58.6328 247.641 59.1953 247.641 60.2344V61L245.227 61.1484C243.266 61.2656 242.156 62.1328 242.156 63.6328V63.6484C242.156 65.1797 243.367 66.1484 244.969 66.1484ZM243.547 63.6172V63.6016C243.547 62.7656 244.109 62.3125 245.391 62.2344L247.641 62.0938V62.8594C247.641 64.0625 246.633 64.9688 245.25 64.9688C244.273 64.9688 243.547 64.4688 243.547 63.6172ZM251.484 66H252.844V60.7812C252.844 59.5938 253.68 58.6328 254.781 58.6328C255.844 58.6328 256.531 59.2812 256.531 60.2812V66H257.891V60.5859C257.891 59.5156 258.664 58.6328 259.836 58.6328C261.023 58.6328 261.594 59.25 261.594 60.4922V66H262.953V60.1797C262.953 58.4141 261.992 57.4297 260.273 57.4297C259.109 57.4297 258.148 58.0156 257.695 58.9062H257.57C257.18 58.0312 256.383 57.4297 255.242 57.4297C254.141 57.4297 253.344 57.9531 252.969 58.8594H252.844V57.5781H251.484V66ZM268.844 66.1484C270.828 66.1484 272.031 65.0234 272.32 63.8828L272.336 63.8203H270.977L270.945 63.8906C270.719 64.3984 270.016 64.9375 268.875 64.9375C267.375 64.9375 266.414 63.9219 266.375 62.1797H272.438V61.6484C272.438 59.1328 271.047 57.4297 268.758 57.4297C266.469 57.4297 264.984 59.2109 264.984 61.8125V61.8203C264.984 64.4609 266.438 66.1484 268.844 66.1484ZM268.75 58.6406C269.992 58.6406 270.914 59.4297 271.055 61.0938H266.398C266.547 59.4922 267.5 58.6406 268.75 58.6406ZM279.062 68.8125H280.422V64.6719H280.547C281.008 65.5703 282.016 66.1484 283.172 66.1484C285.312 66.1484 286.703 64.4375 286.703 61.7969V61.7812C286.703 59.1562 285.305 57.4297 283.172 57.4297C282 57.4297 281.062 57.9844 280.547 58.9219H280.422V57.5781H279.062V68.8125ZM282.859 64.9453C281.328 64.9453 280.391 63.7422 280.391 61.7969V61.7812C280.391 59.8359 281.328 58.6328 282.859 58.6328C284.398 58.6328 285.312 59.8203 285.312 61.7812V61.7969C285.312 63.7578 284.398 64.9453 282.859 64.9453ZM291.141 66.1484C292.273 66.1484 293.156 65.6562 293.688 64.7578H293.812V66H295.172V60.2344C295.172 58.4844 294.023 57.4297 291.969 57.4297C290.172 57.4297 288.891 58.3203 288.672 59.6406L288.664 59.6875H290.023L290.031 59.6641C290.25 59.0078 290.914 58.6328 291.922 58.6328C293.18 58.6328 293.812 59.1953 293.812 60.2344V61L291.398 61.1484C289.438 61.2656 288.328 62.1328 288.328 63.6328V63.6484C288.328 65.1797 289.539 66.1484 291.141 66.1484ZM289.719 63.6172V63.6016C289.719 62.7656 290.281 62.3125 291.562 62.2344L293.812 62.0938V62.8594C293.812 64.0625 292.805 64.9688 291.422 64.9688C290.445 64.9688 289.719 64.4688 289.719 63.6172ZM297.656 66H299.016V60.7812C299.016 59.5469 299.938 58.7266 301.234 58.7266C301.531 58.7266 301.789 58.7578 302.07 58.8047V57.4844C301.938 57.4609 301.648 57.4297 301.391 57.4297C300.25 57.4297 299.461 57.9453 299.141 58.8281H299.016V57.5781H297.656V66ZM307.211 66.0625C307.477 66.0625 307.734 66.0312 308 65.9844V64.8281C307.75 64.8516 307.617 64.8594 307.375 64.8594C306.5 64.8594 306.156 64.4609 306.156 63.4688V58.7031H308V57.5781H306.156V55.3984H304.75V57.5781H303.422V58.7031H304.75V63.8125C304.75 65.4219 305.477 66.0625 307.211 66.0625ZM310.75 55.9531C311.266 55.9531 311.688 55.5312 311.688 55.0156C311.688 54.5 311.266 54.0781 310.75 54.0781C310.234 54.0781 309.812 54.5 309.812 55.0156C309.812 55.5312 310.234 55.9531 310.75 55.9531ZM310.062 66H311.422V57.5781H310.062V66ZM316.297 66.1484C317.43 66.1484 318.312 65.6562 318.844 64.7578H318.969V66H320.328V60.2344C320.328 58.4844 319.18 57.4297 317.125 57.4297C315.328 57.4297 314.047 58.3203 313.828 59.6406L313.82 59.6875H315.18L315.188 59.6641C315.406 59.0078 316.07 58.6328 317.078 58.6328C318.336 58.6328 318.969 59.1953 318.969 60.2344V61L316.555 61.1484C314.594 61.2656 313.484 62.1328 313.484 63.6328V63.6484C313.484 65.1797 314.695 66.1484 316.297 66.1484ZM314.875 63.6172V63.6016C314.875 62.7656 315.438 62.3125 316.719 62.2344L318.969 62.0938V62.8594C318.969 64.0625 317.961 64.9688 316.578 64.9688C315.602 64.9688 314.875 64.4688 314.875 63.6172ZM322.891 66H324.25V54.2344H322.891V66ZM326.938 66H328.297V54.2344H326.938V66ZM331.625 68.9531C333.117 68.9531 333.812 68.4062 334.508 66.5156L337.797 57.5781H336.367L334.062 64.5078H333.938L331.625 57.5781H330.172L333.289 66.0078L333.133 66.5078C332.828 67.4766 332.359 67.8281 331.586 67.8281C331.398 67.8281 331.188 67.8203 331.023 67.7891V68.9062C331.211 68.9375 331.445 68.9531 331.625 68.9531ZM161.727 85.1484C164.125 85.1484 165.609 83.4922 165.609 80.7969V80.7812C165.609 78.0781 164.125 76.4297 161.727 76.4297C159.328 76.4297 157.844 78.0781 157.844 80.7812V80.7969C157.844 83.4922 159.328 85.1484 161.727 85.1484ZM161.727 83.9453C160.133 83.9453 159.234 82.7812 159.234 80.7969V80.7812C159.234 78.7891 160.133 77.6328 161.727 77.6328C163.32 77.6328 164.219 78.7891 164.219 80.7812V80.7969C164.219 82.7812 163.32 83.9453 161.727 83.9453ZM169.789 85H171.164L174.281 76.5781H172.844L170.539 83.5156H170.414L168.109 76.5781H166.672L169.789 85ZM179.203 85.1484C181.188 85.1484 182.391 84.0234 182.68 82.8828L182.695 82.8203H181.336L181.305 82.8906C181.078 83.3984 180.375 83.9375 179.234 83.9375C177.734 83.9375 176.773 82.9219 176.734 81.1797H182.797V80.6484C182.797 78.1328 181.406 76.4297 179.117 76.4297C176.828 76.4297 175.344 78.2109 175.344 80.8125V80.8203C175.344 83.4609 176.797 85.1484 179.203 85.1484ZM179.109 77.6406C180.352 77.6406 181.273 78.4297 181.414 80.0938H176.758C176.906 78.4922 177.859 77.6406 179.109 77.6406ZM184.906 85H186.266V79.7812C186.266 78.5469 187.188 77.7266 188.484 77.7266C188.781 77.7266 189.039 77.7578 189.32 77.8047V76.4844C189.188 76.4609 188.898 76.4297 188.641 76.4297C187.5 76.4297 186.711 76.9453 186.391 77.8281H186.266V76.5781H184.906V85ZM191.078 85H192.438V73.2344H191.078V85ZM197.359 85.1484C198.492 85.1484 199.375 84.6562 199.906 83.7578H200.031V85H201.391V79.2344C201.391 77.4844 200.242 76.4297 198.188 76.4297C196.391 76.4297 195.109 77.3203 194.891 78.6406L194.883 78.6875H196.242L196.25 78.6641C196.469 78.0078 197.133 77.6328 198.141 77.6328C199.398 77.6328 200.031 78.1953 200.031 79.2344V80L197.617 80.1484C195.656 80.2656 194.547 81.1328 194.547 82.6328V82.6484C194.547 84.1797 195.758 85.1484 197.359 85.1484ZM195.938 82.6172V82.6016C195.938 81.7656 196.5 81.3125 197.781 81.2344L200.031 81.0938V81.8594C200.031 83.0625 199.023 83.9688 197.641 83.9688C196.664 83.9688 195.938 83.4688 195.938 82.6172ZM203.875 87.8125H205.234V83.6719H205.359C205.82 84.5703 206.828 85.1484 207.984 85.1484C210.125 85.1484 211.516 83.4375 211.516 80.7969V80.7812C211.516 78.1562 210.117 76.4297 207.984 76.4297C206.812 76.4297 205.875 76.9844 205.359 77.9219H205.234V76.5781H203.875V87.8125ZM207.672 83.9453C206.141 83.9453 205.203 82.7422 205.203 80.7969V80.7812C205.203 78.8359 206.141 77.6328 207.672 77.6328C209.211 77.6328 210.125 78.8203 210.125 80.7812V80.7969C210.125 82.7578 209.211 83.9453 207.672 83.9453ZM216.531 85.1484C218.445 85.1484 219.906 84.1094 219.906 82.6094V82.5938C219.906 81.3906 219.141 80.7031 217.555 80.3203L216.258 80.0078C215.266 79.7656 214.844 79.4062 214.844 78.8359V78.8203C214.844 78.0781 215.578 77.5625 216.578 77.5625C217.594 77.5625 218.25 78.0234 218.43 78.6875H219.766C219.578 77.3125 218.352 76.4297 216.586 76.4297C214.797 76.4297 213.453 77.4844 213.453 78.8828V78.8906C213.453 80.1016 214.164 80.7891 215.742 81.1641L217.047 81.4766C218.086 81.7266 218.516 82.125 218.516 82.6953V82.7109C218.516 83.4766 217.711 84.0156 216.578 84.0156C215.5 84.0156 214.828 83.5547 214.602 82.8516H213.211C213.367 84.2422 214.656 85.1484 216.531 85.1484ZM228.156 85H229.516L231.391 78.4844H231.516L233.398 85H234.766L237.125 76.5781H235.773L234.117 83.3125H233.992L232.109 76.5781H230.82L228.938 83.3125H228.812L227.156 76.5781H225.797L228.156 85ZM239.641 74.9531C240.156 74.9531 240.578 74.5312 240.578 74.0156C240.578 73.5 240.156 73.0781 239.641 73.0781C239.125 73.0781 238.703 73.5 238.703 74.0156C238.703 74.5312 239.125 74.9531 239.641 74.9531ZM238.953 85H240.312V76.5781H238.953V85ZM245.867 85.0625C246.133 85.0625 246.391 85.0312 246.656 84.9844V83.8281C246.406 83.8516 246.273 83.8594 246.031 83.8594C245.156 83.8594 244.812 83.4609 244.812 82.4688V77.7031H246.656V76.5781H244.812V74.3984H243.406V76.5781H242.078V77.7031H243.406V82.8125C243.406 84.4219 244.133 85.0625 245.867 85.0625ZM248.766 85H250.125V80.0156C250.125 78.5391 250.977 77.6328 252.32 77.6328C253.664 77.6328 254.289 78.3594 254.289 79.875V85H255.648V79.5469C255.648 77.5469 254.594 76.4297 252.703 76.4297C251.461 76.4297 250.672 76.9531 250.25 77.8438H250.125V73.2344H248.766V85ZM262.625 87.8125H263.984V83.6719H264.109C264.57 84.5703 265.578 85.1484 266.734 85.1484C268.875 85.1484 270.266 83.4375 270.266 80.7969V80.7812C270.266 78.1562 268.867 76.4297 266.734 76.4297C265.562 76.4297 264.625 76.9844 264.109 77.9219H263.984V76.5781H262.625V87.8125ZM266.422 83.9453C264.891 83.9453 263.953 82.7422 263.953 80.7969V80.7812C263.953 78.8359 264.891 77.6328 266.422 77.6328C267.961 77.6328 268.875 78.8203 268.875 80.7812V80.7969C268.875 82.7578 267.961 83.9453 266.422 83.9453ZM275.852 85.1484C278.25 85.1484 279.734 83.4922 279.734 80.7969V80.7812C279.734 78.0781 278.25 76.4297 275.852 76.4297C273.453 76.4297 271.969 78.0781 271.969 80.7812V80.7969C271.969 83.4922 273.453 85.1484 275.852 85.1484ZM275.852 83.9453C274.258 83.9453 273.359 82.7812 273.359 80.7969V80.7812C273.359 78.7891 274.258 77.6328 275.852 77.6328C277.445 77.6328 278.344 78.7891 278.344 80.7812V80.7969C278.344 82.7812 277.445 83.9453 275.852 83.9453ZM281.844 87.8125H283.203V83.6719H283.328C283.789 84.5703 284.797 85.1484 285.953 85.1484C288.094 85.1484 289.484 83.4375 289.484 80.7969V80.7812C289.484 78.1562 288.086 76.4297 285.953 76.4297C284.781 76.4297 283.844 76.9844 283.328 77.9219H283.203V76.5781H281.844V87.8125ZM285.641 83.9453C284.109 83.9453 283.172 82.7422 283.172 80.7969V80.7812C283.172 78.8359 284.109 77.6328 285.641 77.6328C287.18 77.6328 288.094 78.8203 288.094 80.7812V80.7969C288.094 82.7578 287.18 83.9453 285.641 83.9453ZM294.43 85.1484C295.664 85.1484 296.516 84.6406 296.93 83.7422H297.055V85H298.414V76.5781H297.055V81.5625C297.055 83.0391 296.266 83.9453 294.781 83.9453C293.438 83.9453 292.891 83.2188 292.891 81.7031V76.5781H291.531V82.0312C291.531 84.0234 292.516 85.1484 294.43 85.1484ZM301.031 85H302.391V73.2344H301.031V85ZM307.312 85.1484C308.445 85.1484 309.328 84.6562 309.859 83.7578H309.984V85H311.344V79.2344C311.344 77.4844 310.195 76.4297 308.141 76.4297C306.344 76.4297 305.062 77.3203 304.844 78.6406L304.836 78.6875H306.195L306.203 78.6641C306.422 78.0078 307.086 77.6328 308.094 77.6328C309.352 77.6328 309.984 78.1953 309.984 79.2344V80L307.57 80.1484C305.609 80.2656 304.5 81.1328 304.5 82.6328V82.6484C304.5 84.1797 305.711 85.1484 307.312 85.1484ZM305.891 82.6172V82.6016C305.891 81.7656 306.453 81.3125 307.734 81.2344L309.984 81.0938V81.8594C309.984 83.0625 308.977 83.9688 307.594 83.9688C306.617 83.9688 305.891 83.4688 305.891 82.6172ZM316.82 85.0625C317.086 85.0625 317.344 85.0312 317.609 84.9844V83.8281C317.359 83.8516 317.227 83.8594 316.984 83.8594C316.109 83.8594 315.766 83.4609 315.766 82.4688V77.7031H317.609V76.5781H315.766V74.3984H314.359V76.5781H313.031V77.7031H314.359V82.8125C314.359 84.4219 315.086 85.0625 316.82 85.0625ZM320.359 74.9531C320.875 74.9531 321.297 74.5312 321.297 74.0156C321.297 73.5 320.875 73.0781 320.359 73.0781C319.844 73.0781 319.422 73.5 319.422 74.0156C319.422 74.5312 319.844 74.9531 320.359 74.9531ZM319.672 85H321.031V76.5781H319.672V85ZM327.055 85.1484C329.453 85.1484 330.938 83.4922 330.938 80.7969V80.7812C330.938 78.0781 329.453 76.4297 327.055 76.4297C324.656 76.4297 323.172 78.0781 323.172 80.7812V80.7969C323.172 83.4922 324.656 85.1484 327.055 85.1484ZM327.055 83.9453C325.461 83.9453 324.562 82.7812 324.562 80.7969V80.7812C324.562 78.7891 325.461 77.6328 327.055 77.6328C328.648 77.6328 329.547 78.7891 329.547 80.7812V80.7969C329.547 82.7812 328.648 83.9453 327.055 83.9453ZM333.047 85H334.406V80.0156C334.406 78.5391 335.258 77.6328 336.602 77.6328C337.945 77.6328 338.57 78.3594 338.57 79.875V85H339.93V79.5469C339.93 77.5469 338.875 76.4297 336.984 76.4297C335.742 76.4297 334.953 76.9531 334.531 77.8438H334.406V76.5781H333.047V85Z" fill="black"/>
<circle cx="102.5" cy="49.5" r="34" stroke="#2C7CF6" stroke-width="3"/>
<circle cx="102.5" cy="49.5" r="22" stroke="#8FC34F" stroke-width="3"/>
</svg>
