<svg width="384" height="145" viewBox="0 0 384 145" fill="none" xmlns="http://www.w3.org/2000/svg">
<rect width="384" height="145" fill="white"/>
<circle cx="61" cy="61" r="59.5" stroke="#E99D42" stroke-width="3"/>
<circle cx="61" cy="61" r="56" stroke="#2C7CF6" stroke-width="3"/>
<circle cx="60.5" cy="60.5" r="30" stroke="#8FC34F" stroke-width="3"/>
<path d="M151.367 42H153.727V30.7266H151.367V42ZM159.305 42.1328C160.516 42.1328 161.43 41.5938 161.875 40.6641H162.016V42H164.297V30.1094H162.016V34.7734H161.875C161.445 33.8359 160.484 33.2578 159.305 33.2578C157.125 33.2578 155.812 34.9219 155.812 37.6875V37.7031C155.812 40.4531 157.156 42.1328 159.305 42.1328ZM160.078 40.2422C158.875 40.2422 158.133 39.2891 158.133 37.7031V37.6875C158.133 36.1172 158.875 35.1484 160.078 35.1484C161.281 35.1484 162.039 36.1172 162.039 37.6953V37.7109C162.039 39.2891 161.289 40.2422 160.078 40.2422ZM170.438 42.1797C172.953 42.1797 174.062 40.7266 174.328 39.6484L174.344 39.5703H172.219L172.195 39.6172C172.039 39.9453 171.484 40.4766 170.484 40.4766C169.273 40.4766 168.516 39.6562 168.492 38.2422H174.414V37.5312C174.414 34.9297 172.852 33.2109 170.344 33.2109C167.836 33.2109 166.234 34.9688 166.234 37.7031V37.7109C166.234 40.4688 167.82 42.1797 170.438 42.1797ZM170.383 34.9219C171.375 34.9219 172.086 35.5625 172.227 36.8125H168.516C168.656 35.5938 169.391 34.9219 170.383 34.9219ZM178.625 42.1328C179.75 42.1328 180.656 41.6562 181.094 40.8594H181.234V42H183.484V36.125C183.484 34.2891 182.195 33.2109 179.914 33.2109C177.75 33.2109 176.328 34.2109 176.148 35.7188L176.141 35.7891H178.25L178.266 35.7578C178.445 35.25 178.969 34.9609 179.789 34.9609C180.727 34.9609 181.234 35.3828 181.234 36.125V36.8359L179.156 36.9609C177.016 37.0859 175.82 37.9922 175.82 39.5391V39.5547C175.82 41.1172 176.984 42.1328 178.625 42.1328ZM178.047 39.4141V39.3984C178.047 38.7734 178.523 38.4062 179.5 38.3438L181.234 38.2344V38.8672C181.234 39.7734 180.445 40.4688 179.391 40.4688C178.602 40.4688 178.047 40.0703 178.047 39.4141ZM185.797 42H188.078V30.1094H185.797V42ZM194.562 42H196.844V37.1875C196.844 35.9688 197.664 35.2266 198.961 35.2266C199.312 35.2266 199.664 35.2812 200.008 35.3594V33.3672C199.781 33.3047 199.461 33.2578 199.156 33.2578C198.039 33.2578 197.258 33.8047 196.984 34.7344H196.844V33.3984H194.562V42ZM203.719 42.1328C204.844 42.1328 205.75 41.6562 206.188 40.8594H206.328V42H208.578V36.125C208.578 34.2891 207.289 33.2109 205.008 33.2109C202.844 33.2109 201.422 34.2109 201.242 35.7188L201.234 35.7891H203.344L203.359 35.7578C203.539 35.25 204.062 34.9609 204.883 34.9609C205.82 34.9609 206.328 35.3828 206.328 36.125V36.8359L204.25 36.9609C202.109 37.0859 200.914 37.9922 200.914 39.5391V39.5547C200.914 41.1172 202.078 42.1328 203.719 42.1328ZM203.141 39.4141V39.3984C203.141 38.7734 203.617 38.4062 204.594 38.3438L206.328 38.2344V38.8672C206.328 39.7734 205.539 40.4688 204.484 40.4688C203.695 40.4688 203.141 40.0703 203.141 39.4141ZM210.812 42H213.094V37.0234C213.094 35.8594 213.734 35.1016 214.789 35.1016C215.867 35.1016 216.367 35.7422 216.367 36.9531V42H218.648V36.4375C218.648 34.3828 217.617 33.2109 215.703 33.2109C214.477 33.2109 213.625 33.7969 213.234 34.7266H213.094V33.3984H210.812V42ZM223.93 42.1328C225.141 42.1328 226.055 41.5938 226.5 40.6641H226.641V42H228.922V30.1094H226.641V34.7734H226.5C226.07 33.8359 225.109 33.2578 223.93 33.2578C221.75 33.2578 220.438 34.9219 220.438 37.6875V37.7031C220.438 40.4531 221.781 42.1328 223.93 42.1328ZM224.703 40.2422C223.5 40.2422 222.758 39.2891 222.758 37.7031V37.6875C222.758 36.1172 223.5 35.1484 224.703 35.1484C225.906 35.1484 226.664 36.1172 226.664 37.6953V37.7109C226.664 39.2891 225.914 40.2422 224.703 40.2422ZM235.102 42.1797C237.75 42.1797 239.344 40.5078 239.344 37.7031V37.6875C239.344 34.9062 237.727 33.2109 235.102 33.2109C232.477 33.2109 230.859 34.9141 230.859 37.6875V37.7031C230.859 40.5 232.453 42.1797 235.102 42.1797ZM235.102 40.3906C233.883 40.3906 233.195 39.3984 233.195 37.7031V37.6875C233.195 36.0078 233.891 35 235.102 35C236.305 35 237.008 36.0078 237.008 37.6875V37.7031C237.008 39.3984 236.312 40.3906 235.102 40.3906ZM241.203 42H243.484V36.8125C243.484 35.8281 244.109 35.1016 245 35.1016C245.891 35.1016 246.414 35.6406 246.414 36.5625V42H248.695V36.7109C248.695 35.7812 249.289 35.1016 250.211 35.1016C251.164 35.1016 251.633 35.625 251.633 36.6641V42H253.914V36.0938C253.914 34.3203 252.844 33.2109 251.133 33.2109C249.93 33.2109 248.93 33.8438 248.539 34.7969H248.398C248.047 33.8047 247.18 33.2109 246.008 33.2109C244.883 33.2109 243.992 33.7734 243.625 34.7422H243.484V33.3984H241.203V42ZM263.672 42.1797C265.875 42.1797 267.445 41.0703 267.445 39.3672V39.3594C267.445 38.0859 266.641 37.3672 264.922 37L263.492 36.6953C262.602 36.5 262.281 36.2344 262.281 35.7734V35.7656C262.281 35.1875 262.844 34.8203 263.633 34.8203C264.484 34.8203 264.992 35.25 265.117 35.7109L265.125 35.75H267.242V35.7188C267.148 34.3359 265.898 33.2109 263.641 33.2109C261.492 33.2109 260.055 34.2891 260.055 35.9062V35.9141C260.055 37.2031 260.867 38.0078 262.508 38.3594L263.945 38.6641C264.82 38.8594 265.164 39.1484 265.164 39.6094V39.625C265.164 40.1953 264.57 40.5703 263.695 40.5703C262.797 40.5703 262.273 40.1875 262.094 39.6562L262.078 39.625H259.836L259.844 39.6562C260.008 41.1328 261.336 42.1797 263.672 42.1797ZM271.656 42.1328C272.781 42.1328 273.688 41.6562 274.125 40.8594H274.266V42H276.516V36.125C276.516 34.2891 275.227 33.2109 272.945 33.2109C270.781 33.2109 269.359 34.2109 269.18 35.7188L269.172 35.7891H271.281L271.297 35.7578C271.477 35.25 272 34.9609 272.82 34.9609C273.758 34.9609 274.266 35.3828 274.266 36.125V36.8359L272.188 36.9609C270.047 37.0859 268.852 37.9922 268.852 39.5391V39.5547C268.852 41.1172 270.016 42.1328 271.656 42.1328ZM271.078 39.4141V39.3984C271.078 38.7734 271.555 38.4062 272.531 38.3438L274.266 38.2344V38.8672C274.266 39.7734 273.477 40.4688 272.422 40.4688C271.633 40.4688 271.078 40.0703 271.078 39.4141ZM278.75 42H281.031V36.8125C281.031 35.8281 281.656 35.1016 282.547 35.1016C283.438 35.1016 283.961 35.6406 283.961 36.5625V42H286.242V36.7109C286.242 35.7812 286.836 35.1016 287.758 35.1016C288.711 35.1016 289.18 35.625 289.18 36.6641V42H291.461V36.0938C291.461 34.3203 290.391 33.2109 288.68 33.2109C287.477 33.2109 286.477 33.8438 286.086 34.7969H285.945C285.594 33.8047 284.727 33.2109 283.555 33.2109C282.43 33.2109 281.539 33.7734 281.172 34.7422H281.031V33.3984H278.75V42ZM293.672 44.8516H295.953V40.625H296.094C296.531 41.5625 297.492 42.1328 298.672 42.1328C300.852 42.1328 302.164 40.4688 302.164 37.7031V37.6875C302.164 34.9453 300.82 33.2578 298.672 33.2578C297.453 33.2578 296.539 33.8047 296.094 34.7266H295.953V33.3984H293.672V44.8516ZM297.891 40.2422C296.695 40.2422 295.93 39.2812 295.93 37.7031V37.6875C295.93 36.1094 296.688 35.1484 297.891 35.1484C299.102 35.1484 299.844 36.1094 299.844 37.6875V37.7031C299.844 39.2812 299.094 40.2422 297.891 40.2422ZM304.109 42H306.391V30.1094H304.109V42ZM312.531 42.1797C315.047 42.1797 316.156 40.7266 316.422 39.6484L316.438 39.5703H314.312L314.289 39.6172C314.133 39.9453 313.578 40.4766 312.578 40.4766C311.367 40.4766 310.609 39.6562 310.586 38.2422H316.508V37.5312C316.508 34.9297 314.945 33.2109 312.438 33.2109C309.93 33.2109 308.328 34.9688 308.328 37.7031V37.7109C308.328 40.4688 309.914 42.1797 312.531 42.1797ZM312.477 34.9219C313.469 34.9219 314.18 35.5625 314.32 36.8125H310.609C310.75 35.5938 311.484 34.9219 312.477 34.9219ZM320.016 36.5391C320.82 36.5391 321.391 35.9531 321.391 35.1797C321.391 34.4062 320.82 33.8281 320.016 33.8281C319.219 33.8281 318.641 34.4062 318.641 35.1797C318.641 35.9531 319.219 36.5391 320.016 36.5391ZM320.016 42.1953C320.82 42.1953 321.391 41.6094 321.391 40.8359C321.391 40.0625 320.82 39.4844 320.016 39.4844C319.219 39.4844 318.641 40.0625 318.641 40.8359C318.641 41.6094 319.219 42.1953 320.016 42.1953ZM154.156 61.1484C156.07 61.1484 157.531 60.1094 157.531 58.6094V58.5938C157.531 57.3906 156.766 56.7031 155.18 56.3203L153.883 56.0078C152.891 55.7656 152.469 55.4062 152.469 54.8359V54.8203C152.469 54.0781 153.203 53.5625 154.203 53.5625C155.219 53.5625 155.875 54.0234 156.055 54.6875H157.391C157.203 53.3125 155.977 52.4297 154.211 52.4297C152.422 52.4297 151.078 53.4844 151.078 54.8828V54.8906C151.078 56.1016 151.789 56.7891 153.367 57.1641L154.672 57.4766C155.711 57.7266 156.141 58.125 156.141 58.6953V58.7109C156.141 59.4766 155.336 60.0156 154.203 60.0156C153.125 60.0156 152.453 59.5547 152.227 58.8516H150.836C150.992 60.2422 152.281 61.1484 154.156 61.1484ZM161.953 61.1484C163.086 61.1484 163.969 60.6562 164.5 59.7578H164.625V61H165.984V55.2344C165.984 53.4844 164.836 52.4297 162.781 52.4297C160.984 52.4297 159.703 53.3203 159.484 54.6406L159.477 54.6875H160.836L160.844 54.6641C161.062 54.0078 161.727 53.6328 162.734 53.6328C163.992 53.6328 164.625 54.1953 164.625 55.2344V56L162.211 56.1484C160.25 56.2656 159.141 57.1328 159.141 58.6328V58.6484C159.141 60.1797 160.352 61.1484 161.953 61.1484ZM160.531 58.6172V58.6016C160.531 57.7656 161.094 57.3125 162.375 57.2344L164.625 57.0938V57.8594C164.625 59.0625 163.617 59.9688 162.234 59.9688C161.258 59.9688 160.531 59.4688 160.531 58.6172ZM168.469 61H169.828V55.7812C169.828 54.5938 170.664 53.6328 171.766 53.6328C172.828 53.6328 173.516 54.2812 173.516 55.2812V61H174.875V55.5859C174.875 54.5156 175.648 53.6328 176.82 53.6328C178.008 53.6328 178.578 54.25 178.578 55.4922V61H179.938V55.1797C179.938 53.4141 178.977 52.4297 177.258 52.4297C176.094 52.4297 175.133 53.0156 174.68 53.9062H174.555C174.164 53.0312 173.367 52.4297 172.227 52.4297C171.125 52.4297 170.328 52.9531 169.953 53.8594H169.828V52.5781H168.469V61ZM182.391 63.8125H183.75V59.6719H183.875C184.336 60.5703 185.344 61.1484 186.5 61.1484C188.641 61.1484 190.031 59.4375 190.031 56.7969V56.7812C190.031 54.1562 188.633 52.4297 186.5 52.4297C185.328 52.4297 184.391 52.9844 183.875 53.9219H183.75V52.5781H182.391V63.8125ZM186.188 59.9453C184.656 59.9453 183.719 58.7422 183.719 56.7969V56.7812C183.719 54.8359 184.656 53.6328 186.188 53.6328C187.727 53.6328 188.641 54.8203 188.641 56.7812V56.7969C188.641 58.7578 187.727 59.9453 186.188 59.9453ZM192.234 61H193.594V49.2344H192.234V61ZM196.922 50.9531C197.438 50.9531 197.859 50.5312 197.859 50.0156C197.859 49.5 197.438 49.0781 196.922 49.0781C196.406 49.0781 195.984 49.5 195.984 50.0156C195.984 50.5312 196.406 50.9531 196.922 50.9531ZM196.234 61H197.594V52.5781H196.234V61ZM200.156 61H201.516V56.0156C201.516 54.5391 202.367 53.6328 203.711 53.6328C205.055 53.6328 205.68 54.3594 205.68 55.875V61H207.039V55.5469C207.039 53.5469 205.984 52.4297 204.094 52.4297C202.852 52.4297 202.062 52.9531 201.641 53.8438H201.516V52.5781H200.156V61ZM212.969 63.9688C215.266 63.9688 216.719 62.7656 216.719 60.8828V52.5781H215.359V53.9688H215.266C214.75 53.0156 213.828 52.4297 212.641 52.4297C210.438 52.4297 209.078 54.1406 209.078 56.5V56.5156C209.078 58.875 210.43 60.5625 212.609 60.5625C213.766 60.5625 214.719 60.0391 215.25 59.1094H215.375V60.8125C215.375 62.0547 214.477 62.7656 212.969 62.7656C211.758 62.7656 211.008 62.3125 210.859 61.6719L210.852 61.6641H209.445L209.43 61.6719C209.641 63.0547 210.938 63.9688 212.969 63.9688ZM212.906 59.3594C211.344 59.3594 210.469 58.1875 210.469 56.5156V56.5C210.469 54.8281 211.344 53.6328 212.906 53.6328C214.461 53.6328 215.406 54.8281 215.406 56.5V56.5156C215.406 58.1875 214.469 59.3594 212.906 59.3594ZM224.328 61H225.688V53.7031H227.602V52.5781H225.688V51.6797C225.688 50.7578 226.078 50.2812 227.047 50.2812C227.289 50.2812 227.516 50.2891 227.68 50.3203V49.2344C227.398 49.1797 227.102 49.1562 226.773 49.1562C225.172 49.1562 224.328 49.9609 224.328 51.6406V52.5781H222.93V53.7031H224.328V61ZM229.562 61H230.922V55.7812C230.922 54.5469 231.844 53.7266 233.141 53.7266C233.438 53.7266 233.695 53.7578 233.977 53.8047V52.4844C233.844 52.4609 233.555 52.4297 233.297 52.4297C232.156 52.4297 231.367 52.9453 231.047 53.8281H230.922V52.5781H229.562V61ZM237.969 61.1484C239.102 61.1484 239.984 60.6562 240.516 59.7578H240.641V61H242V55.2344C242 53.4844 240.852 52.4297 238.797 52.4297C237 52.4297 235.719 53.3203 235.5 54.6406L235.492 54.6875H236.852L236.859 54.6641C237.078 54.0078 237.742 53.6328 238.75 53.6328C240.008 53.6328 240.641 54.1953 240.641 55.2344V56L238.227 56.1484C236.266 56.2656 235.156 57.1328 235.156 58.6328V58.6484C235.156 60.1797 236.367 61.1484 237.969 61.1484ZM236.547 58.6172V58.6016C236.547 57.7656 237.109 57.3125 238.391 57.2344L240.641 57.0938V57.8594C240.641 59.0625 239.633 59.9688 238.25 59.9688C237.273 59.9688 236.547 59.4688 236.547 58.6172ZM244.484 61H245.844V55.7812C245.844 54.5938 246.68 53.6328 247.781 53.6328C248.844 53.6328 249.531 54.2812 249.531 55.2812V61H250.891V55.5859C250.891 54.5156 251.664 53.6328 252.836 53.6328C254.023 53.6328 254.594 54.25 254.594 55.4922V61H255.953V55.1797C255.953 53.4141 254.992 52.4297 253.273 52.4297C252.109 52.4297 251.148 53.0156 250.695 53.9062H250.57C250.18 53.0312 249.383 52.4297 248.242 52.4297C247.141 52.4297 246.344 52.9531 245.969 53.8594H245.844V52.5781H244.484V61ZM261.844 61.1484C263.828 61.1484 265.031 60.0234 265.32 58.8828L265.336 58.8203H263.977L263.945 58.8906C263.719 59.3984 263.016 59.9375 261.875 59.9375C260.375 59.9375 259.414 58.9219 259.375 57.1797H265.438V56.6484C265.438 54.1328 264.047 52.4297 261.758 52.4297C259.469 52.4297 257.984 54.2109 257.984 56.8125V56.8203C257.984 59.4609 259.438 61.1484 261.844 61.1484ZM261.75 53.6406C262.992 53.6406 263.914 54.4297 264.055 56.0938H259.398C259.547 54.4922 260.5 53.6406 261.75 53.6406ZM272.781 50.9531C273.297 50.9531 273.719 50.5312 273.719 50.0156C273.719 49.5 273.297 49.0781 272.781 49.0781C272.266 49.0781 271.844 49.5 271.844 50.0156C271.844 50.5312 272.266 50.9531 272.781 50.9531ZM272.094 61H273.453V52.5781H272.094V61ZM278.906 61.1484C280.82 61.1484 282.281 60.1094 282.281 58.6094V58.5938C282.281 57.3906 281.516 56.7031 279.93 56.3203L278.633 56.0078C277.641 55.7656 277.219 55.4062 277.219 54.8359V54.8203C277.219 54.0781 277.953 53.5625 278.953 53.5625C279.969 53.5625 280.625 54.0234 280.805 54.6875H282.141C281.953 53.3125 280.727 52.4297 278.961 52.4297C277.172 52.4297 275.828 53.4844 275.828 54.8828V54.8906C275.828 56.1016 276.539 56.7891 278.117 57.1641L279.422 57.4766C280.461 57.7266 280.891 58.125 280.891 58.6953V58.7109C280.891 59.4766 280.086 60.0156 278.953 60.0156C277.875 60.0156 277.203 59.5547 276.977 58.8516H275.586C275.742 60.2422 277.031 61.1484 278.906 61.1484ZM291.898 61.0625C292.164 61.0625 292.422 61.0312 292.688 60.9844V59.8281C292.438 59.8516 292.305 59.8594 292.062 59.8594C291.188 59.8594 290.844 59.4609 290.844 58.4688V53.7031H292.688V52.5781H290.844V50.3984H289.438V52.5781H288.109V53.7031H289.438V58.8125C289.438 60.4219 290.164 61.0625 291.898 61.0625ZM294.797 61H296.156V56.0156C296.156 54.5391 297.008 53.6328 298.352 53.6328C299.695 53.6328 300.32 54.3594 300.32 55.875V61H301.68V55.5469C301.68 53.5469 300.625 52.4297 298.734 52.4297C297.492 52.4297 296.703 52.9531 296.281 53.8438H296.156V49.2344H294.797V61ZM307.578 61.1484C309.562 61.1484 310.766 60.0234 311.055 58.8828L311.07 58.8203H309.711L309.68 58.8906C309.453 59.3984 308.75 59.9375 307.609 59.9375C306.109 59.9375 305.148 58.9219 305.109 57.1797H311.172V56.6484C311.172 54.1328 309.781 52.4297 307.492 52.4297C305.203 52.4297 303.719 54.2109 303.719 56.8125V56.8203C303.719 59.4609 305.172 61.1484 307.578 61.1484ZM307.484 53.6406C308.727 53.6406 309.648 54.4297 309.789 56.0938H305.133C305.281 54.4922 306.234 53.6406 307.484 53.6406ZM151.266 82.8125H152.625V78.6719H152.75C153.211 79.5703 154.219 80.1484 155.375 80.1484C157.516 80.1484 158.906 78.4375 158.906 75.7969V75.7812C158.906 73.1562 157.508 71.4297 155.375 71.4297C154.203 71.4297 153.266 71.9844 152.75 72.9219H152.625V71.5781H151.266V82.8125ZM155.062 78.9453C153.531 78.9453 152.594 77.7422 152.594 75.7969V75.7812C152.594 73.8359 153.531 72.6328 155.062 72.6328C156.602 72.6328 157.516 73.8203 157.516 75.7812V75.7969C157.516 77.7578 156.602 78.9453 155.062 78.9453ZM164.492 80.1484C166.891 80.1484 168.375 78.4922 168.375 75.7969V75.7812C168.375 73.0781 166.891 71.4297 164.492 71.4297C162.094 71.4297 160.609 73.0781 160.609 75.7812V75.7969C160.609 78.4922 162.094 80.1484 164.492 80.1484ZM164.492 78.9453C162.898 78.9453 162 77.7812 162 75.7969V75.7812C162 73.7891 162.898 72.6328 164.492 72.6328C166.086 72.6328 166.984 73.7891 166.984 75.7812V75.7969C166.984 77.7812 166.086 78.9453 164.492 78.9453ZM170.484 82.8125H171.844V78.6719H171.969C172.43 79.5703 173.438 80.1484 174.594 80.1484C176.734 80.1484 178.125 78.4375 178.125 75.7969V75.7812C178.125 73.1562 176.727 71.4297 174.594 71.4297C173.422 71.4297 172.484 71.9844 171.969 72.9219H171.844V71.5781H170.484V82.8125ZM174.281 78.9453C172.75 78.9453 171.812 77.7422 171.812 75.7969V75.7812C171.812 73.8359 172.75 72.6328 174.281 72.6328C175.82 72.6328 176.734 73.8203 176.734 75.7812V75.7969C176.734 77.7578 175.82 78.9453 174.281 78.9453ZM183.07 80.1484C184.305 80.1484 185.156 79.6406 185.57 78.7422H185.695V80H187.055V71.5781H185.695V76.5625C185.695 78.0391 184.906 78.9453 183.422 78.9453C182.078 78.9453 181.531 78.2188 181.531 76.7031V71.5781H180.172V77.0312C180.172 79.0234 181.156 80.1484 183.07 80.1484ZM189.672 80H191.031V68.2344H189.672V80ZM195.953 80.1484C197.086 80.1484 197.969 79.6562 198.5 78.7578H198.625V80H199.984V74.2344C199.984 72.4844 198.836 71.4297 196.781 71.4297C194.984 71.4297 193.703 72.3203 193.484 73.6406L193.477 73.6875H194.836L194.844 73.6641C195.062 73.0078 195.727 72.6328 196.734 72.6328C197.992 72.6328 198.625 73.1953 198.625 74.2344V75L196.211 75.1484C194.25 75.2656 193.141 76.1328 193.141 77.6328V77.6484C193.141 79.1797 194.352 80.1484 195.953 80.1484ZM194.531 77.6172V77.6016C194.531 76.7656 195.094 76.3125 196.375 76.2344L198.625 76.0938V76.8594C198.625 78.0625 197.617 78.9688 196.234 78.9688C195.258 78.9688 194.531 78.4688 194.531 77.6172ZM205.461 80.0625C205.727 80.0625 205.984 80.0312 206.25 79.9844V78.8281C206 78.8516 205.867 78.8594 205.625 78.8594C204.75 78.8594 204.406 78.4609 204.406 77.4688V72.7031H206.25V71.5781H204.406V69.3984H203V71.5781H201.672V72.7031H203V77.8125C203 79.4219 203.727 80.0625 205.461 80.0625ZM209 69.9531C209.516 69.9531 209.938 69.5312 209.938 69.0156C209.938 68.5 209.516 68.0781 209 68.0781C208.484 68.0781 208.062 68.5 208.062 69.0156C208.062 69.5312 208.484 69.9531 209 69.9531ZM208.312 80H209.672V71.5781H208.312V80ZM215.695 80.1484C218.094 80.1484 219.578 78.4922 219.578 75.7969V75.7812C219.578 73.0781 218.094 71.4297 215.695 71.4297C213.297 71.4297 211.812 73.0781 211.812 75.7812V75.7969C211.812 78.4922 213.297 80.1484 215.695 80.1484ZM215.695 78.9453C214.102 78.9453 213.203 77.7812 213.203 75.7969V75.7812C213.203 73.7891 214.102 72.6328 215.695 72.6328C217.289 72.6328 218.188 73.7891 218.188 75.7812V75.7969C218.188 77.7812 217.289 78.9453 215.695 78.9453ZM221.688 80H223.047V75.0156C223.047 73.5391 223.898 72.6328 225.242 72.6328C226.586 72.6328 227.211 73.3594 227.211 74.875V80H228.57V74.5469C228.57 72.5469 227.516 71.4297 225.625 71.4297C224.383 71.4297 223.594 71.9531 223.172 72.8438H223.047V71.5781H221.688V80ZM237.859 80.1484C238.992 80.1484 239.875 79.6562 240.406 78.7578H240.531V80H241.891V74.2344C241.891 72.4844 240.742 71.4297 238.688 71.4297C236.891 71.4297 235.609 72.3203 235.391 73.6406L235.383 73.6875H236.742L236.75 73.6641C236.969 73.0078 237.633 72.6328 238.641 72.6328C239.898 72.6328 240.531 73.1953 240.531 74.2344V75L238.117 75.1484C236.156 75.2656 235.047 76.1328 235.047 77.6328V77.6484C235.047 79.1797 236.258 80.1484 237.859 80.1484ZM236.438 77.6172V77.6016C236.438 76.7656 237 76.3125 238.281 76.2344L240.531 76.0938V76.8594C240.531 78.0625 239.523 78.9688 238.141 78.9688C237.164 78.9688 236.438 78.4688 236.438 77.6172ZM244.375 80H245.734V75.0156C245.734 73.5391 246.586 72.6328 247.93 72.6328C249.273 72.6328 249.898 73.3594 249.898 74.875V80H251.258V74.5469C251.258 72.5469 250.203 71.4297 248.312 71.4297C247.07 71.4297 246.281 71.9531 245.859 72.8438H245.734V71.5781H244.375V80ZM256.828 80.1484C258 80.1484 258.938 79.5938 259.453 78.6562H259.578V80H260.938V68.2344H259.578V72.9062H259.453C258.992 72.0078 257.984 71.4297 256.828 71.4297C254.688 71.4297 253.297 73.1406 253.297 75.7812V75.7969C253.297 78.4219 254.695 80.1484 256.828 80.1484ZM257.141 78.9453C255.602 78.9453 254.688 77.7578 254.688 75.7969V75.7812C254.688 73.8203 255.602 72.6328 257.141 72.6328C258.672 72.6328 259.609 73.8359 259.609 75.7812V75.7969C259.609 77.7422 258.672 78.9453 257.141 78.9453ZM271.055 80.0625C271.32 80.0625 271.578 80.0312 271.844 79.9844V78.8281C271.594 78.8516 271.461 78.8594 271.219 78.8594C270.344 78.8594 270 78.4609 270 77.4688V72.7031H271.844V71.5781H270V69.3984H268.594V71.5781H267.266V72.7031H268.594V77.8125C268.594 79.4219 269.32 80.0625 271.055 80.0625ZM273.953 80H275.312V75.0156C275.312 73.5391 276.164 72.6328 277.508 72.6328C278.852 72.6328 279.477 73.3594 279.477 74.875V80H280.836V74.5469C280.836 72.5469 279.781 71.4297 277.891 71.4297C276.648 71.4297 275.859 71.9531 275.438 72.8438H275.312V68.2344H273.953V80ZM286.734 80.1484C288.719 80.1484 289.922 79.0234 290.211 77.8828L290.227 77.8203H288.867L288.836 77.8906C288.609 78.3984 287.906 78.9375 286.766 78.9375C285.266 78.9375 284.305 77.9219 284.266 76.1797H290.328V75.6484C290.328 73.1328 288.938 71.4297 286.648 71.4297C284.359 71.4297 282.875 73.2109 282.875 75.8125V75.8203C282.875 78.4609 284.328 80.1484 286.734 80.1484ZM286.641 72.6406C287.883 72.6406 288.805 73.4297 288.945 75.0938H284.289C284.438 73.4922 285.391 72.6406 286.641 72.6406ZM299.844 80.1484C301.758 80.1484 303.219 79.1094 303.219 77.6094V77.5938C303.219 76.3906 302.453 75.7031 300.867 75.3203L299.57 75.0078C298.578 74.7656 298.156 74.4062 298.156 73.8359V73.8203C298.156 73.0781 298.891 72.5625 299.891 72.5625C300.906 72.5625 301.562 73.0234 301.742 73.6875H303.078C302.891 72.3125 301.664 71.4297 299.898 71.4297C298.109 71.4297 296.766 72.4844 296.766 73.8828V73.8906C296.766 75.1016 297.477 75.7891 299.055 76.1641L300.359 76.4766C301.398 76.7266 301.828 77.125 301.828 77.6953V77.7109C301.828 78.4766 301.023 79.0156 299.891 79.0156C298.812 79.0156 298.141 78.5547 297.914 77.8516H296.523C296.68 79.2422 297.969 80.1484 299.844 80.1484ZM307.641 80.1484C308.773 80.1484 309.656 79.6562 310.188 78.7578H310.312V80H311.672V74.2344C311.672 72.4844 310.523 71.4297 308.469 71.4297C306.672 71.4297 305.391 72.3203 305.172 73.6406L305.164 73.6875H306.523L306.531 73.6641C306.75 73.0078 307.414 72.6328 308.422 72.6328C309.68 72.6328 310.312 73.1953 310.312 74.2344V75L307.898 75.1484C305.938 75.2656 304.828 76.1328 304.828 77.6328V77.6484C304.828 79.1797 306.039 80.1484 307.641 80.1484ZM306.219 77.6172V77.6016C306.219 76.7656 306.781 76.3125 308.062 76.2344L310.312 76.0938V76.8594C310.312 78.0625 309.305 78.9688 307.922 78.9688C306.945 78.9688 306.219 78.4688 306.219 77.6172ZM314.156 80H315.516V74.7812C315.516 73.5938 316.352 72.6328 317.453 72.6328C318.516 72.6328 319.203 73.2812 319.203 74.2812V80H320.562V74.5859C320.562 73.5156 321.336 72.6328 322.508 72.6328C323.695 72.6328 324.266 73.25 324.266 74.4922V80H325.625V74.1797C325.625 72.4141 324.664 71.4297 322.945 71.4297C321.781 71.4297 320.82 72.0156 320.367 72.9062H320.242C319.852 72.0312 319.055 71.4297 317.914 71.4297C316.812 71.4297 316.016 71.9531 315.641 72.8594H315.516V71.5781H314.156V80ZM328.078 82.8125H329.438V78.6719H329.562C330.023 79.5703 331.031 80.1484 332.188 80.1484C334.328 80.1484 335.719 78.4375 335.719 75.7969V75.7812C335.719 73.1562 334.32 71.4297 332.188 71.4297C331.016 71.4297 330.078 71.9844 329.562 72.9219H329.438V71.5781H328.078V82.8125ZM331.875 78.9453C330.344 78.9453 329.406 77.7422 329.406 75.7969V75.7812C329.406 73.8359 330.344 72.6328 331.875 72.6328C333.414 72.6328 334.328 73.8203 334.328 75.7812V75.7969C334.328 77.7578 333.414 78.9453 331.875 78.9453ZM337.922 80H339.281V68.2344H337.922V80ZM345.328 80.1484C347.312 80.1484 348.516 79.0234 348.805 77.8828L348.82 77.8203H347.461L347.43 77.8906C347.203 78.3984 346.5 78.9375 345.359 78.9375C343.859 78.9375 342.898 77.9219 342.859 76.1797H348.922V75.6484C348.922 73.1328 347.531 71.4297 345.242 71.4297C342.953 71.4297 341.469 73.2109 341.469 75.8125V75.8203C341.469 78.4609 342.922 80.1484 345.328 80.1484ZM345.234 72.6406C346.477 72.6406 347.398 73.4297 347.539 75.0938H342.883C343.031 73.4922 343.984 72.6406 345.234 72.6406ZM356.266 69.9531C356.781 69.9531 357.203 69.5312 357.203 69.0156C357.203 68.5 356.781 68.0781 356.266 68.0781C355.75 68.0781 355.328 68.5 355.328 69.0156C355.328 69.5312 355.75 69.9531 356.266 69.9531ZM355.578 80H356.938V71.5781H355.578V80ZM362.391 80.1484C364.305 80.1484 365.766 79.1094 365.766 77.6094V77.5938C365.766 76.3906 365 75.7031 363.414 75.3203L362.117 75.0078C361.125 74.7656 360.703 74.4062 360.703 73.8359V73.8203C360.703 73.0781 361.438 72.5625 362.438 72.5625C363.453 72.5625 364.109 73.0234 364.289 73.6875H365.625C365.438 72.3125 364.211 71.4297 362.445 71.4297C360.656 71.4297 359.312 72.4844 359.312 73.8828V73.8906C359.312 75.1016 360.023 75.7891 361.602 76.1641L362.906 76.4766C363.945 76.7266 364.375 77.125 364.375 77.6953V77.7109C364.375 78.4766 363.57 79.0156 362.438 79.0156C361.359 79.0156 360.688 78.5547 360.461 77.8516H359.07C359.227 79.2422 360.516 80.1484 362.391 80.1484ZM154.375 99.1484C155.547 99.1484 156.484 98.5938 157 97.6562H157.125V99H158.484V87.2344H157.125V91.9062H157C156.539 91.0078 155.531 90.4297 154.375 90.4297C152.234 90.4297 150.844 92.1406 150.844 94.7812V94.7969C150.844 97.4219 152.242 99.1484 154.375 99.1484ZM154.688 97.9453C153.148 97.9453 152.234 96.7578 152.234 94.7969V94.7812C152.234 92.8203 153.148 91.6328 154.688 91.6328C156.219 91.6328 157.156 92.8359 157.156 94.7812V94.7969C157.156 96.7422 156.219 97.9453 154.688 97.9453ZM161.094 99H162.453V93.7812C162.453 92.5469 163.375 91.7266 164.672 91.7266C164.969 91.7266 165.227 91.7578 165.508 91.8047V90.4844C165.375 90.4609 165.086 90.4297 164.828 90.4297C163.688 90.4297 162.898 90.9453 162.578 91.8281H162.453V90.5781H161.094V99ZM169.5 99.1484C170.633 99.1484 171.516 98.6562 172.047 97.7578H172.172V99H173.531V93.2344C173.531 91.4844 172.383 90.4297 170.328 90.4297C168.531 90.4297 167.25 91.3203 167.031 92.6406L167.023 92.6875H168.383L168.391 92.6641C168.609 92.0078 169.273 91.6328 170.281 91.6328C171.539 91.6328 172.172 92.1953 172.172 93.2344V94L169.758 94.1484C167.797 94.2656 166.688 95.1328 166.688 96.6328V96.6484C166.688 98.1797 167.898 99.1484 169.5 99.1484ZM168.078 96.6172V96.6016C168.078 95.7656 168.641 95.3125 169.922 95.2344L172.172 95.0938V95.8594C172.172 97.0625 171.164 97.9688 169.781 97.9688C168.805 97.9688 168.078 97.4688 168.078 96.6172ZM177.25 99H178.609L180.484 92.4844H180.609L182.492 99H183.859L186.219 90.5781H184.867L183.211 97.3125H183.086L181.203 90.5781H179.914L178.031 97.3125H177.906L176.25 90.5781H174.891L177.25 99ZM188.016 99H189.375V94.0156C189.375 92.5391 190.227 91.6328 191.57 91.6328C192.914 91.6328 193.539 92.3594 193.539 93.875V99H194.898V93.5469C194.898 91.5469 193.844 90.4297 191.953 90.4297C190.711 90.4297 189.922 90.9531 189.5 91.8438H189.375V90.5781H188.016V99ZM204.188 99.1484C205.32 99.1484 206.203 98.6562 206.734 97.7578H206.859V99H208.219V93.2344C208.219 91.4844 207.07 90.4297 205.016 90.4297C203.219 90.4297 201.938 91.3203 201.719 92.6406L201.711 92.6875H203.07L203.078 92.6641C203.297 92.0078 203.961 91.6328 204.969 91.6328C206.227 91.6328 206.859 92.1953 206.859 93.2344V94L204.445 94.1484C202.484 94.2656 201.375 95.1328 201.375 96.6328V96.6484C201.375 98.1797 202.586 99.1484 204.188 99.1484ZM202.766 96.6172V96.6016C202.766 95.7656 203.328 95.3125 204.609 95.2344L206.859 95.0938V95.8594C206.859 97.0625 205.852 97.9688 204.469 97.9688C203.492 97.9688 202.766 97.4688 202.766 96.6172ZM213.695 99.0625C213.961 99.0625 214.219 99.0312 214.484 98.9844V97.8281C214.234 97.8516 214.102 97.8594 213.859 97.8594C212.984 97.8594 212.641 97.4609 212.641 96.4688V91.7031H214.484V90.5781H212.641V88.3984H211.234V90.5781H209.906V91.7031H211.234V96.8125C211.234 98.4219 211.961 99.0625 213.695 99.0625ZM221.031 99H222.391V93.7812C222.391 92.5469 223.312 91.7266 224.609 91.7266C224.906 91.7266 225.164 91.7578 225.445 91.8047V90.4844C225.312 90.4609 225.023 90.4297 224.766 90.4297C223.625 90.4297 222.836 90.9453 222.516 91.8281H222.391V90.5781H221.031V99ZM229.438 99.1484C230.57 99.1484 231.453 98.6562 231.984 97.7578H232.109V99H233.469V93.2344C233.469 91.4844 232.32 90.4297 230.266 90.4297C228.469 90.4297 227.188 91.3203 226.969 92.6406L226.961 92.6875H228.32L228.328 92.6641C228.547 92.0078 229.211 91.6328 230.219 91.6328C231.477 91.6328 232.109 92.1953 232.109 93.2344V94L229.695 94.1484C227.734 94.2656 226.625 95.1328 226.625 96.6328V96.6484C226.625 98.1797 227.836 99.1484 229.438 99.1484ZM228.016 96.6172V96.6016C228.016 95.7656 228.578 95.3125 229.859 95.2344L232.109 95.0938V95.8594C232.109 97.0625 231.102 97.9688 229.719 97.9688C228.742 97.9688 228.016 97.4688 228.016 96.6172ZM235.953 99H237.312V94.0156C237.312 92.5391 238.164 91.6328 239.508 91.6328C240.852 91.6328 241.477 92.3594 241.477 93.875V99H242.836V93.5469C242.836 91.5469 241.781 90.4297 239.891 90.4297C238.648 90.4297 237.859 90.9531 237.438 91.8438H237.312V90.5781H235.953V99ZM248.406 99.1484C249.578 99.1484 250.516 98.5938 251.031 97.6562H251.156V99H252.516V87.2344H251.156V91.9062H251.031C250.57 91.0078 249.562 90.4297 248.406 90.4297C246.266 90.4297 244.875 92.1406 244.875 94.7812V94.7969C244.875 97.4219 246.273 99.1484 248.406 99.1484ZM248.719 97.9453C247.18 97.9453 246.266 96.7578 246.266 94.7969V94.7812C246.266 92.8203 247.18 91.6328 248.719 91.6328C250.25 91.6328 251.188 92.8359 251.188 94.7812V94.7969C251.188 96.7422 250.25 97.9453 248.719 97.9453ZM258.586 99.1484C260.984 99.1484 262.469 97.4922 262.469 94.7969V94.7812C262.469 92.0781 260.984 90.4297 258.586 90.4297C256.188 90.4297 254.703 92.0781 254.703 94.7812V94.7969C254.703 97.4922 256.188 99.1484 258.586 99.1484ZM258.586 97.9453C256.992 97.9453 256.094 96.7812 256.094 94.7969V94.7812C256.094 92.7891 256.992 91.6328 258.586 91.6328C260.18 91.6328 261.078 92.7891 261.078 94.7812V94.7969C261.078 96.7812 260.18 97.9453 258.586 97.9453ZM264.578 99H265.938V93.7812C265.938 92.5938 266.773 91.6328 267.875 91.6328C268.938 91.6328 269.625 92.2812 269.625 93.2812V99H270.984V93.5859C270.984 92.5156 271.758 91.6328 272.93 91.6328C274.117 91.6328 274.688 92.25 274.688 93.4922V99H276.047V93.1797C276.047 91.4141 275.086 90.4297 273.367 90.4297C272.203 90.4297 271.242 91.0156 270.789 91.9062H270.664C270.273 91.0312 269.477 90.4297 268.336 90.4297C267.234 90.4297 266.438 90.9531 266.062 91.8594H265.938V90.5781H264.578V99Z" fill="black"/>
</svg>
